<?xml version="1.0" encoding="utf-8"?>
<!-- Generator: Adobe Illustrator 17.0.0, SVG Export Plug-In . SVG Version: 6.00 Build 0)  -->
<!DOCTYPE svg PUBLIC "-//W3C//DTD SVG 1.1//EN" "http://www.w3.org/Graphics/SVG/1.1/DTD/svg11.dtd">
<svg version="1.1" id="Calque_1" xmlns="http://www.w3.org/2000/svg" xmlns:xlink="http://www.w3.org/1999/xlink" x="0px" y="0px"
	 width="1280px" height="760px" viewBox="0 0 1280 760" enable-background="new 0 0 1280 760" xml:space="preserve">
<g>
	<g>
		<defs>
			<path id="SVGID_1_" d="M1256.055,8.715c-3.824,181.204-20.031,330.34,1,507.956c0,0-6.02-1.473-17.024-0.036
				c-122.536,16.007-833.476-1.605-1211.232,0.036c21.031-177.616,2.824-326.751-1-507.956l1-0.386
				c405.669,33.263,812.459,9.157,1218.129-0.083L1256.055,8.715z"/>
		</defs>
		<clipPath id="SVGID_2_">
			<use xlink:href="#SVGID_1_"  overflow="visible"/>
		</clipPath>
		<g clip-path="url(#SVGID_2_)">
			<g opacity="0.7">
				
					<radialGradient id="SVGID_3_" cx="593.2658" cy="495.6555" r="475.3224" gradientTransform="matrix(1.0265 0 0 -0.8229 45.9552 677.0547)" gradientUnits="userSpaceOnUse">
					<stop  offset="0" style="stop-color:#84FFF5"/>
					<stop  offset="0.2297" style="stop-color:#78FFE0"/>
					<stop  offset="0.7023" style="stop-color:#58FEA9"/>
					<stop  offset="1" style="stop-color:#42FD84"/>
				</radialGradient>
				<path fill="url(#SVGID_3_)" d="M1239.129,4.563c5.888,0,33.462-1.441,39.35,0.395c-3.925,185.431-20.561,338.045,1.026,519.804
					l12.702-1.951c-421.944,25.703-849.597,0.115-1273.503,1.951c21.588-181.759,2.899-334.373-1.026-519.804l1.026-0.395
					c416.419,34.039,833.987,9.371,1250.406-0.085"/>
			</g>
		</g>
	</g>
</g>
<g>
	<g>
		<path fill="#7D65FB" d="M482.461,274.211c15.202,0,30.403,0,45.605,0c1.935,0,1.935-3,0-3c-15.202,0-30.403,0-45.605,0
			C480.527,271.211,480.527,274.211,482.461,274.211L482.461,274.211z"/>
	</g>
</g>
<g>
	<g>
		<path fill="#7D65FB" d="M560.431,274.211c17.622,1.415,35.292,1.47,52.96,1.471c1.935,0,1.935-3,0-3
			c-17.668-0.001-35.338-0.056-52.96-1.471C558.501,271.056,558.516,274.057,560.431,274.211L560.431,274.211z"/>
	</g>
</g>
<g>
	<g>
		<path fill="#7D65FB" d="M648.698,275.682c17.653,0,35.307,0,52.96,0c1.935,0,1.935-3,0-3c-17.653,0-35.307,0-52.96,0
			C646.763,272.682,646.763,275.682,648.698,275.682L648.698,275.682z"/>
	</g>
</g>
<g>
	<g>
		<path fill="#7D65FB" d="M734.022,275.682c17.666,0.053,35.295,1.418,52.96,1.471c1.935,0.006,1.934-2.994,0-3
			c-17.666-0.053-35.295-1.418-52.96-1.471C732.088,272.676,732.088,275.676,734.022,275.682L734.022,275.682z"/>
	</g>
</g>
<g>
	<g>
		<g>
			<path fill="#7D65FB" d="M625.82,177.871c-1.675,3.745-1.917,8.741-1.048,12.707c0.47,2.146,3.754,1.236,3.285-0.906
				c-0.655-2.99-0.568-7.236,0.705-10.082C629.65,177.603,626.715,175.868,625.82,177.871L625.82,177.871z"/>
		</g>
	</g>
	<g>
		<g>
			<path fill="#7D65FB" d="M626.414,191.828c2.045,0,4.09,0,6.135,0c2.197,0,2.197-3.407,0-3.407c-2.045,0-4.09,0-6.135,0
				C624.217,188.421,624.217,191.828,626.414,191.828L626.414,191.828z"/>
		</g>
	</g>
	<g>
		<g>
			<path fill="#7D65FB" d="M628.167,185.693c1.169,0,2.337,0,3.506,0c2.197,0,2.197-3.407,0-3.407c-1.169,0-2.337,0-3.506,0
				C625.97,182.286,625.97,185.693,628.167,185.693L628.167,185.693z"/>
		</g>
	</g>
	<g>
		<g>
			<path fill="#7D65FB" d="M626.414,181.31c4.326-0.061,8.501-0.959,12.724-1.814c2.152-0.436,1.239-3.719-0.906-3.285
				c-3.928,0.795-7.793,1.635-11.818,1.692C624.219,177.935,624.216,181.341,626.414,181.31L626.414,181.31z"/>
		</g>
	</g>
</g>
<g>
	<g>
		<g>
			<path fill="#7D65FB" d="M749.543,182.137c-1.675,3.745-1.917,8.741-1.048,12.707c0.47,2.146,3.754,1.236,3.285-0.906
				c-0.655-2.99-0.568-7.236,0.705-10.082C753.374,181.869,750.439,180.135,749.543,182.137L749.543,182.137z"/>
		</g>
	</g>
	<g>
		<g>
			<path fill="#7D65FB" d="M750.138,196.094c2.045,0,4.09,0,6.135,0c2.197,0,2.197-3.407,0-3.407c-2.045,0-4.09,0-6.135,0
				C747.941,192.688,747.941,196.094,750.138,196.094L750.138,196.094z"/>
		</g>
	</g>
	<g>
		<g>
			<path fill="#7D65FB" d="M751.891,189.959c1.169,0,2.337,0,3.506,0c2.197,0,2.197-3.407,0-3.407c-1.169,0-2.337,0-3.506,0
				C749.694,186.552,749.694,189.959,751.891,189.959L751.891,189.959z"/>
		</g>
	</g>
	<g>
		<g>
			<path fill="#7D65FB" d="M750.138,185.577c4.326-0.061,8.501-0.959,12.724-1.814c2.152-0.436,1.239-3.719-0.906-3.285
				c-3.928,0.795-7.793,1.635-11.818,1.692C747.943,182.201,747.94,185.608,750.138,185.577L750.138,185.577z"/>
		</g>
	</g>
</g>
<g>
	<g>
		<g>
			<path fill="#7D65FB" d="M537.303,185.45c2.151,0.883,4.783,2.04,6.223,3.962c1.392,1.858-1.676,2.806-3.014,3.266
				c-2.447,0.841-5.25,0.189-5.936-2.574c-0.574-2.315,1.759-4.034,3.633-4.654c2.075-0.686,1.186-3.977-0.906-3.285
				c-3.659,1.21-6.771,4.34-6.075,8.471c0.662,3.93,4.956,6.68,8.806,5.731c3.357-0.828,8.148-2.846,7.174-7.121
				c-0.848-3.718-5.919-5.817-8.999-7.081C536.176,181.331,535.299,184.628,537.303,185.45z"/>
		</g>
	</g>
</g>
<g>
	<g>
		<g>
			<path fill="#7D65FB" d="M670.825,181.949c0.409,3.962,0.857,8.01,1.901,11.862c0.574,2.118,3.861,1.218,3.285-0.906
				c-0.966-3.564-1.401-7.292-1.779-10.957C674.009,179.786,670.6,179.764,670.825,181.949L670.825,181.949z"/>
		</g>
	</g>
	<g>
		<g>
			<path fill="#7D65FB" d="M671.548,181.947c1.728-1.136,5.475-3.028,7.077-0.627c1.645,2.467-2.179,4.873-3.973,5.61
				c-2.003,0.823-1.127,4.12,0.906,3.285c4.11-1.689,8.281-5.38,6.228-10.209c-2.068-4.863-8.65-3.176-11.957-1.001
				C668.002,180.207,669.707,183.158,671.548,181.947L671.548,181.947z"/>
		</g>
	</g>
</g>
<g>
	<g>
		<g>
			<path fill="#7D65FB" d="M506.573,182.926c-1.445,3.154-1.54,6.607-1.542,10.023c-0.001,2.197,3.406,2.197,3.407,0
				c0.002-2.743-0.092-5.754,1.076-8.303C510.423,182.663,507.488,180.93,506.573,182.926L506.573,182.926z"/>
		</g>
	</g>
	<g>
		<g>
			<path fill="#7D65FB" d="M506.84,184.99c1.713,1.712,3.858,4.245,6.441,4.426c2.194,0.154,2.179-3.254,0-3.407
				c0.419,0.029-0.147-0.086,0.014-0.012c-0.208-0.095-0.402-0.222-0.595-0.343c-0.416-0.261-0.788-0.579-1.16-0.897
				c-0.8-0.685-1.547-1.432-2.291-2.176C507.694,181.027,505.285,183.436,506.84,184.99L506.84,184.99z"/>
		</g>
	</g>
	<g>
		<g>
			<path fill="#7D65FB" d="M513.176,188.917c1.581-1.512,3.649-2.41,5.236-3.927c1.591-1.521-0.822-3.926-2.409-2.409
				c-1.581,1.512-3.649,2.41-5.236,3.927C509.176,188.029,511.589,190.434,513.176,188.917L513.176,188.917z"/>
		</g>
	</g>
	<g>
		<g>
			<path fill="#7D65FB" d="M514.195,183.785c0.002,4.148,0.132,8.243,1.37,12.234c0.648,2.091,3.938,1.199,3.285-0.906
				c-1.151-3.712-1.246-7.474-1.248-11.328C517.601,181.589,514.194,181.588,514.195,183.785L514.195,183.785z"/>
		</g>
	</g>
</g>
<g>
	<g>
		<g>
			<path fill="#7D65FB" d="M559.635,186.006c0.001,2.396,0.096,4.785,1.109,6.995c0.914,1.995,3.85,0.263,2.942-1.719
				c-0.735-1.604-0.643-3.554-0.644-5.276C563.041,183.81,559.634,183.809,559.635,186.006L559.635,186.006z"/>
		</g>
	</g>
	<g>
		<g>
			<path fill="#7D65FB" d="M557.409,188.525c4.725-1.128,9.594-1.643,14.447-1.692c2.196-0.022,2.198-3.429,0-3.407
				c-5.144,0.052-10.345,0.618-15.353,1.814C554.367,185.751,555.273,189.035,557.409,188.525L557.409,188.525z"/>
		</g>
	</g>
</g>
<g>
	<g>
		<g>
			<path fill="#7D65FB" d="M615.362,182.224c0-0.163,0-0.327,0-0.49c0-2.197-3.407-2.197-3.407,0c0,2.501,0,5.001,0,7.502
				c0,2.197,3.407,2.197,3.407,0c0-2.501,0-5.001,0-7.502c0-2.197-3.407-2.197-3.407,0c0,0.163,0,0.327,0,0.49
				C611.955,184.421,615.362,184.421,615.362,182.224L615.362,182.224z"/>
		</g>
	</g>
	<g>
		<g>
			<path fill="#7D65FB" d="M610.153,183.051c3.298-0.035,6.144-0.477,8.17,2.662c0.089-0.688,0.178-1.376,0.266-2.064
				c-2.579,2.577-5.162,5.041-8.42,6.745c-1.947,1.019-0.225,3.959,1.719,2.942c3.503-1.833,6.334-4.505,9.11-7.278
				c0.523-0.523,0.679-1.425,0.266-2.064c-1.221-1.891-2.674-3.245-4.813-4.003c-1.976-0.7-4.254-0.369-6.299-0.347
				C607.957,179.668,607.955,183.075,610.153,183.051L610.153,183.051z"/>
		</g>
	</g>
</g>
<g>
	<g>
		<g>
			<path fill="#7D65FB" d="M693.672,189.205c0.598-2.467,0.588-4.795,3.616-4.885c-0.547-0.417-1.095-0.834-1.643-1.251
				c1.062,3.611,4.21,6.073,5.259,9.641c0.618,2.103,3.906,1.207,3.285-0.906c-1.062-3.611-4.21-6.073-5.259-9.641
				c-0.209-0.712-0.879-1.273-1.643-1.251c-1.965,0.058-3.878,0.497-5.104,2.155c-1.113,1.505-1.367,3.457-1.797,5.231
				C689.87,190.434,693.155,191.339,693.672,189.205L693.672,189.205z"/>
		</g>
	</g>
	<g>
		<g>
			<path fill="#7D65FB" d="M688.976,189.518c5.624-1.565,11.229-2.508,17.077-2.569c2.196-0.023,2.198-3.429,0-3.407
				c-6.146,0.063-12.068,1.045-17.982,2.69C685.957,186.821,686.856,190.108,688.976,189.518L688.976,189.518z"/>
		</g>
	</g>
</g>
<g>
	<g>
		<g>
			<path fill="#7D65FB" d="M726.189,180.962c-2.521-0.931-6.286-2.239-8.603-0.179c-2.394,2.128,0.067,6.021,1.42,7.941
				c1.255,1.78,4.211,0.081,2.942-1.719c-0.669-0.95-1.363-1.95-1.747-3.055c-0.061-0.175-0.104-0.354-0.146-0.534
				c-0.039-0.212-0.042-0.222-0.01-0.029c-0.007-0.097-0.009-0.194-0.005-0.292c-0.005,0.479,0.159-0.339-0.055,0.125
				c0.052-0.112-0.034-0.001-0.151,0.087c0.074-0.056,0.43-0.208,0.051-0.06c0.072-0.028,0.642-0.141,0.285-0.097
				c0.44-0.054,0.889-0.019,1.328,0.025c1.235,0.124,2.591,0.632,3.785,1.073C727.349,185.01,728.232,181.716,726.189,180.962
				L726.189,180.962z"/>
		</g>
	</g>
	<g>
		<g>
			<path fill="#7D65FB" d="M718.835,188.316c0.375,0.894,0.819,1.915,0.932,2.858c0.045,0.374,0.03,0.522,0.009,0.618
				c-0.073,0.333,0.054-0.065,0.13-0.157c0.211-0.256-0.087-0.011,0.211-0.113c-0.019,0.006-0.204,0.004-0.225,0
				c-0.387-0.067-0.781-0.2-1.139-0.359c-1.264-0.557-2.428-1.349-3.552-2.143c-1.799-1.27-3.499,1.686-1.719,2.942
				c2.088,1.474,5.376,3.875,8.074,2.629c2.744-1.267,1.409-5.167,0.564-7.183c-0.359-0.856-1.113-1.46-2.095-1.19
				C719.216,186.443,718.475,187.458,718.835,188.316L718.835,188.316z"/>
		</g>
	</g>
</g>
<g>
	<g>
		<g>
			<path fill="#7D65FB" d="M741.121,180.962c-2.521-0.931-6.286-2.239-8.603-0.179c-2.394,2.128,0.067,6.021,1.42,7.941
				c1.255,1.78,4.211,0.081,2.942-1.719c-0.669-0.95-1.363-1.95-1.747-3.055c-0.061-0.175-0.104-0.354-0.146-0.534
				c-0.039-0.212-0.042-0.222-0.01-0.029c-0.007-0.097-0.009-0.194-0.005-0.292c-0.005,0.479,0.159-0.339-0.055,0.125
				c0.052-0.112-0.034-0.001-0.151,0.087c0.074-0.056,0.43-0.208,0.051-0.06c0.072-0.028,0.642-0.141,0.285-0.097
				c0.44-0.054,0.889-0.019,1.328,0.025c1.236,0.124,2.591,0.632,3.785,1.073C742.281,185.01,743.164,181.716,741.121,180.962
				L741.121,180.962z"/>
		</g>
	</g>
	<g>
		<g>
			<path fill="#7D65FB" d="M733.767,188.316c0.375,0.894,0.819,1.915,0.932,2.858c0.045,0.374,0.03,0.522,0.009,0.618
				c-0.073,0.333,0.054-0.065,0.13-0.157c0.211-0.256-0.087-0.011,0.211-0.113c-0.019,0.006-0.204,0.004-0.225,0
				c-0.387-0.067-0.781-0.2-1.139-0.359c-1.264-0.557-2.428-1.349-3.552-2.143c-1.799-1.27-3.499,1.686-1.72,2.942
				c2.088,1.474,5.376,3.875,8.074,2.629c2.744-1.267,1.409-5.167,0.564-7.183c-0.359-0.856-1.113-1.46-2.095-1.19
				C734.148,186.443,733.407,187.458,733.767,188.316L733.767,188.316z"/>
		</g>
	</g>
</g>
<g>
	<g>
		<path d="M1254.602,8.715c-3.241,151.281-16.428,302.621-4.373,453.841c1.441,18.071,3.257,36.111,5.373,54.115
			c0.613-0.467,1.226-0.934,1.839-1.401c-10.985-2.508-23.819,0.791-35.043,1.688c-11.459,0.916-22.944,1.508-34.428,2.009
			c-32.496,1.418-65.031,1.977-97.553,2.38c-93.425,1.158-186.873,0.593-280.299-0.094c-112.509-0.827-225.015-2.135-337.521-3.333
			c-109.031-1.162-218.064-2.295-327.1-2.691c-38.9-0.141-77.8-0.178-116.699-0.011c0.484,0.484,0.969,0.969,1.453,1.453
			c17.717-150.78,5.985-301.74,0.583-452.845c-0.34-9.506-0.643-19.014-0.919-28.523c-0.14-4.815-0.265-9.631-0.386-14.447
			c-0.061-2.424-0.116-4.849-0.172-7.273c0.319-1.355,0.095-2.575-0.673-3.66c1.669-0.011,3.333,0.074,4.992,0.256
			c20.316,1.649,40.645,3.138,60.982,4.51c40.638,2.741,81.314,4.918,122.007,6.659c81.332,3.48,162.738,5.056,244.141,5.4
			c162.844,0.688,325.654-3.777,488.408-8.661c54.512-1.636,109.022-3.322,163.536-4.887c26.837-0.771,53.676-1.508,80.515-2.198
			c20.882-0.537,41.921-1.906,62.789-0.834c1.874,0.096,1.865-2.81,0-2.906c-13.613-0.699-27.211-0.051-40.835,0.282
			c-20.33,0.498-40.66,1.032-60.989,1.586c-40.675,1.109-81.347,2.316-122.019,3.542c-81.382,2.452-162.761,4.985-244.154,7.032
			c-162.759,4.092-325.627,6.151-488.4,1.648c-46.395-1.283-92.775-3.136-139.122-5.602c-22.782-1.212-45.554-2.597-68.317-4.132
			C80.831,10.85,69.447,10.03,58.067,9.177c-5.692-0.427-11.383-0.87-17.074-1.319c-3.974-0.314-9.82-1.996-13.581-0.545
			c-0.602,0.232-1.082,0.708-1.067,1.401c3.248,151.284,18.041,302.572,6.314,453.841c-1.401,18.072-3.199,36.113-5.314,54.115
			c-0.092,0.786,0.731,1.456,1.453,1.453c100.972-0.432,201.948,0.361,302.915,1.285c113.804,1.042,227.604,2.402,341.407,3.538
			c104.082,1.039,208.169,1.979,312.257,1.909c71.782-0.048,143.758,0.173,215.464-3.6c8.516-0.448,17.029-0.988,25.525-1.723
			c9.785-0.846,20.687-3.658,30.302-1.462c0.83,0.19,1.955-0.415,1.839-1.401c-17.718-150.723-7.6-301.728-2.524-452.845
			c0.617-18.367,1.13-36.737,1.524-55.111C1257.548,6.84,1254.642,6.844,1254.602,8.715z"/>
	</g>
</g>
</svg>
