<?xml version="1.0" encoding="utf-8"?>
<!-- Generator: Adobe Illustrator 17.0.0, SVG Export Plug-In . SVG Version: 6.00 Build 0)  -->
<!DOCTYPE svg PUBLIC "-//W3C//DTD SVG 1.1//EN" "http://www.w3.org/Graphics/SVG/1.1/DTD/svg11.dtd">
<svg version="1.1" id="Calque_1" xmlns="http://www.w3.org/2000/svg" xmlns:xlink="http://www.w3.org/1999/xlink" x="0px" y="0px"
	 viewBox="0 0 13.4 12.2" enable-background="new 0 0 13.4 12.2" xml:space="preserve">
<g>
	<g>
		<g>
			<path fill="#3D3D3D" d="M6.321,2.508c-2.525,0.02-3.898,2.279-3.562,4.619c0.149,1.037,0.824,2.001,1.759,2.47
				c1.266,0.636,2.703,0.235,3.91-0.331C9.3,8.857,8.54,7.567,7.672,7.974c-1.502,0.705-3.123,0.61-3.47-1.245
				C3.941,5.337,4.901,4.015,6.321,4.004C7.286,3.997,7.286,2.5,6.321,2.508L6.321,2.508z"/>
		</g>
	</g>
	<g>
		<g>
			<path fill="#3D3D3D" d="M5.687,3.961C6.883,3.611,8.19,3.768,8.923,4.877c0.826,1.25-0.172,2.474-1.251,3.097
				C6.837,8.456,7.59,9.75,8.427,9.266c1.686-0.974,2.887-2.852,1.971-4.79C9.474,2.523,7.25,1.944,5.29,2.518
				C4.366,2.789,4.759,4.233,5.687,3.961L5.687,3.961z"/>
		</g>
	</g>
</g>
</svg>
