<?xml version="1.0" encoding="utf-8"?>
<!-- Generator: Adobe Illustrator 17.0.0, SVG Export Plug-In . SVG Version: 6.00 Build 0)  -->
<!DOCTYPE svg PUBLIC "-//W3C//DTD SVG 1.1//EN" "http://www.w3.org/Graphics/SVG/1.1/DTD/svg11.dtd">
<svg version="1.1" id="Calque_1" xmlns="http://www.w3.org/2000/svg" xmlns:xlink="http://www.w3.org/1999/xlink" x="0px" y="0px"
	 viewBox="0 0 13.4 12.2" enable-background="new 0 0 13.4 12.2" xml:space="preserve">
<g>
	<g>
		<g>
			<path fill="#3D3D3D" d="M4.163,6.188c1.299-1,2.589-2.014,3.946-2.935c0.793-0.538,0.046-1.835-0.755-1.292
				C5.997,2.882,4.707,3.896,3.408,4.896C2.655,5.475,3.399,6.776,4.163,6.188L4.163,6.188z"/>
		</g>
	</g>
	<g>
		<g>
			<path fill="#3D3D3D" d="M6.856,2.73c0.076,2.175,0.041,4.349-0.001,6.524c-0.019,0.965,1.478,0.964,1.496,0
				C8.393,7.079,8.428,4.905,8.352,2.73C8.318,1.768,6.822,1.765,6.856,2.73L6.856,2.73z"/>
		</g>
	</g>
	<g>
		<g>
			<path fill="#3D3D3D" d="M5.464,10.337c1.343,0.017,2.68-0.067,4.018-0.173c0.955-0.076,0.962-1.573,0-1.496
				c-1.338,0.106-2.675,0.19-4.018,0.173C4.499,8.828,4.5,10.325,5.464,10.337L5.464,10.337z"/>
		</g>
	</g>
</g>
</svg>
