<?xml version="1.0" encoding="utf-8"?>
<!-- Generator: Adobe Illustrator 17.0.0, SVG Export Plug-In . SVG Version: 6.00 Build 0)  -->
<!DOCTYPE svg PUBLIC "-//W3C//DTD SVG 1.1//EN" "http://www.w3.org/Graphics/SVG/1.1/DTD/svg11.dtd">
<svg version="1.1" id="Calque_1" xmlns="http://www.w3.org/2000/svg" xmlns:xlink="http://www.w3.org/1999/xlink" x="0px" y="0px"
	 viewBox="0 0 13.4 12.2" enable-background="new 0 0 13.4 12.2" xml:space="preserve">
<g>
	<g>
		<g>
			<path fill="#3D3D3D" d="M4.981,5.605C4.709,4.3,5.155,2.972,6.576,3.002c0.446,0.01,0.864,0.232,1.072,0.591
				c0.29,0.5-0.076,1.267-0.395,1.778C6.741,6.193,8.035,6.943,8.545,6.127C9.164,5.136,9.47,4.019,8.979,2.915
				c-0.386-0.87-1.343-1.28-2.225-1.395C5.835,1.4,4.855,1.796,4.226,2.458C3.323,3.411,3.285,4.79,3.538,6.003
				C3.735,6.947,5.177,6.547,4.981,5.605L4.981,5.605z"/>
		</g>
	</g>
	<g>
		<g>
			<path fill="#3D3D3D" d="M7.372,5.095C6.179,6.506,5.061,7.979,3.902,9.419c-0.599,0.744,0.452,1.809,1.058,1.058
				c1.16-1.439,2.277-2.912,3.471-4.324C9.049,5.421,7.996,4.357,7.372,5.095L7.372,5.095z"/>
		</g>
	</g>
	<g>
		<g>
			<path fill="#3D3D3D" d="M4.057,10.563c1.859-0.115,3.691-0.429,5.485-0.928c0.928-0.258,0.534-1.702-0.398-1.443
				C7.477,8.656,5.785,8.96,4.057,9.067C3.098,9.126,3.093,10.622,4.057,10.563L4.057,10.563z"/>
		</g>
	</g>
</g>
</svg>
