<?xml version="1.0" encoding="utf-8"?>
<!-- Generator: Adobe Illustrator 17.0.0, SVG Export Plug-In . SVG Version: 6.00 Build 0)  -->
<!DOCTYPE svg PUBLIC "-//W3C//DTD SVG 1.1//EN" "http://www.w3.org/Graphics/SVG/1.1/DTD/svg11.dtd">
<svg version="1.1" id="Calque_1" xmlns="http://www.w3.org/2000/svg" xmlns:xlink="http://www.w3.org/1999/xlink" x="0px" y="0px"
	 viewBox="0 0 13.4 12.2" enable-background="new 0 0 13.4 12.2" xml:space="preserve">
<g>
	<g>
		<g>
			<path fill="#3D3D3D" d="M4.852,4.315C5.276,4.009,5.723,3.727,6.22,3.559c0.09-0.031,0.182-0.054,0.274-0.078
				c0.038-0.01,0.3-0.053,0.231-0.045c0.08-0.009,0.161-0.01,0.241-0.011c0.03,0,0.321,0.026,0.174,0.004
				c0.07,0.01,0.138,0.028,0.206,0.045c0.032,0.008,0.285,0.109,0.135,0.041c0.059,0.027,0.115,0.059,0.17,0.092
				c0.168,0.098,0.016-0.003,0.101,0.068c0.047,0.04,0.09,0.084,0.132,0.128c0.139,0.144,0.005-0.01,0.071,0.085
				c0.045,0.066,0.083,0.136,0.12,0.207c0.057,0.109-0.03-0.1,0.036,0.096c0.019,0.056,0.033,0.113,0.046,0.171
				c0.05,0.211,0.004-0.036,0.015,0.091C8.178,4.51,8.177,4.569,8.177,4.627c-0.003,0.216,0.017-0.036-0.005,0.09
				C8.162,4.774,8.146,4.83,8.13,4.885C8.074,5.084,8.151,4.867,8.098,4.977C8.073,5.03,8.042,5.08,8.011,5.129
				C7.95,5.227,8.078,5.065,7.942,5.212C7.774,5.394,7.644,5.453,7.333,5.531c-0.161,0.04-0.248,0.041-0.475,0.042
				C6.61,5.574,6.372,5.536,6.13,5.484C5.189,5.283,4.789,6.725,5.732,6.927c1.122,0.241,2.342,0.209,3.225-0.613
				C9.62,5.695,9.803,4.7,9.573,3.849C9.328,2.943,8.577,2.245,7.678,2.014C6.413,1.689,5.101,2.299,4.097,3.023
				C3.321,3.581,4.067,4.879,4.852,4.315L4.852,4.315z"/>
		</g>
	</g>
	<g>
		<g>
			<path fill="#3D3D3D" d="M5.928,7.079c0.394-0.039,0.803-0.067,1.196,0.003C7.232,7.102,7.525,7.192,7.521,7.19
				C7.589,7.221,7.654,7.26,7.717,7.298c0.187,0.114-0.089-0.087,0.066,0.05c0.15,0.134,0.016-0.024,0.116,0.14
				C7.999,7.654,7.855,7.346,7.92,7.525c0.02,0.055,0.031,0.112,0.043,0.169c-0.048-0.24-0.042,0.303-0.004,0.069
				C7.948,7.829,7.834,8.133,7.9,7.991C7.706,8.411,7.413,8.61,6.955,8.731C6.41,8.876,5.712,8.654,5.126,8.297
				C4.3,7.794,3.549,9.088,4.371,9.589C6.031,10.6,8.452,10.53,9.293,8.51c0.312-0.749,0.139-1.585-0.406-2.174
				c-0.723-0.782-1.975-0.85-2.959-0.753C4.977,5.677,4.968,7.174,5.928,7.079L5.928,7.079z"/>
		</g>
	</g>
</g>
</svg>
