<?xml version="1.0" encoding="utf-8"?>
<!-- Generator: Adobe Illustrator 17.0.0, SVG Export Plug-In . SVG Version: 6.00 Build 0)  -->
<!DOCTYPE svg PUBLIC "-//W3C//DTD SVG 1.1//EN" "http://www.w3.org/Graphics/SVG/1.1/DTD/svg11.dtd">
<svg version="1.1" id="Calque_1" xmlns="http://www.w3.org/2000/svg" xmlns:xlink="http://www.w3.org/1999/xlink" x="0px" y="0px"
	 viewBox="0 0 13.4 12.2" enable-background="new 0 0 13.4 12.2" xml:space="preserve">
<g>
	<g>
		<g>
			<path fill="#3D3D3D" d="M5.837,2.567c-0.691,1.845-1.265,3.74-2.043,5.551c-0.376,0.876,0.912,1.64,1.292,0.755
				C5.915,6.941,6.542,4.932,7.28,2.965C7.619,2.059,6.172,1.672,5.837,2.567L5.837,2.567z"/>
		</g>
	</g>
	<g>
		<g>
			<path fill="#3D3D3D" d="M4.185,9.49c1.676-0.223,3.355-0.432,5.031-0.655c0.942-0.126,0.954-1.623,0-1.496
				C7.539,7.562,5.861,7.77,4.185,7.994C3.243,8.119,3.23,9.617,4.185,9.49L4.185,9.49z"/>
		</g>
	</g>
	<g>
		<g>
			<path fill="#3D3D3D" d="M6.49,6.543c-0.011,1.027,0.059,2.1,0.347,3.091c0.269,0.925,1.713,0.531,1.443-0.398
				c-0.253-0.87-0.304-1.791-0.294-2.693C7.997,5.577,6.501,5.578,6.49,6.543L6.49,6.543z"/>
		</g>
	</g>
</g>
</svg>
