<?xml version="1.0" encoding="utf-8"?>
<!-- Generator: Adobe Illustrator 17.0.0, SVG Export Plug-In . SVG Version: 6.00 Build 0)  -->
<!DOCTYPE svg PUBLIC "-//W3C//DTD SVG 1.1//EN" "http://www.w3.org/Graphics/SVG/1.1/DTD/svg11.dtd">
<svg version="1.1" id="Calque_1" xmlns="http://www.w3.org/2000/svg" xmlns:xlink="http://www.w3.org/1999/xlink" x="0px" y="0px"
	 viewBox="0 0 13.4 12.2" enable-background="new 0 0 13.4 12.2" xml:space="preserve">
<g>
	<g>
		<g>
			<path fill="#3D3D3D" d="M4.33,3.762c1.455-0.104,2.905-0.225,4.347-0.448c0.951-0.148,0.546-1.589-0.398-1.443
				C6.97,2.074,5.65,2.171,4.33,2.266C3.373,2.335,3.367,3.831,4.33,3.762L4.33,3.762z"/>
		</g>
	</g>
	<g>
		<g>
			<path fill="#3D3D3D" d="M3.454,3.137C3.445,4.063,3.54,4.983,3.652,5.901C3.701,6.306,3.955,6.649,4.4,6.649
				c0.37,0,0.797-0.342,0.748-0.748C5.036,4.983,4.942,4.063,4.95,3.137C4.959,2.172,3.463,2.173,3.454,3.137L3.454,3.137z"/>
		</g>
	</g>
	<g>
		<g>
			<path fill="#3D3D3D" d="M4.647,6.795c0.619-0.357,1.256-0.648,1.963-0.78C6.706,5.998,7.045,5.98,7.278,5.998
				c0.089,0.01,0.086,0.009-0.008-0.002c0.061,0.01,0.121,0.024,0.18,0.038c0.06,0.014,0.379,0.139,0.203,0.06
				c0.083,0.037,0.162,0.084,0.239,0.133c0.158,0.1-0.041-0.055,0.136,0.112c0.036,0.034,0.218,0.251,0.086,0.08
				C8.176,6.5,8.229,6.587,8.278,6.677c0.016,0.03,0.031,0.06,0.046,0.091c0.079,0.159-0.06-0.157,0.004,0.009
				C8.365,6.872,8.392,6.971,8.416,7.07c0.008,0.033,0.015,0.067,0.021,0.1c0.035,0.177-0.018-0.175,0.002,0.005
				C8.45,7.278,8.452,7.381,8.451,7.484C8.45,7.569,8.443,7.655,8.433,7.74c0.025-0.232-0.025,0.093-0.04,0.153
				C8.372,7.975,8.345,8.055,8.315,8.134C8.254,8.3,8.386,7.981,8.311,8.14C8.289,8.186,8.265,8.23,8.24,8.273
				C8.2,8.346,8.153,8.415,8.104,8.482C8.231,8.306,8.034,8.548,7.99,8.59C7.838,8.736,8.082,8.539,7.907,8.658
				C7.858,8.692,7.571,8.833,7.77,8.749C7.688,8.784,7.602,8.808,7.516,8.83C7.463,8.844,7.408,8.853,7.354,8.862
				c0.201-0.034,0.009-0.007-0.031-0.005c-0.102,0.006-0.205,0-0.307-0.008c-0.213-0.017,0.156,0.029-0.062-0.01
				c-0.069-0.012-0.137-0.03-0.205-0.047C6.166,8.646,5.63,8.297,5.103,7.896C4.777,7.649,4.266,7.844,4.079,8.164
				C3.854,8.548,4.023,8.942,4.347,9.188c1.04,0.79,2.498,1.515,3.82,1.004C9.24,9.777,9.814,8.796,9.935,7.689
				c0.116-1.065-0.383-2.111-1.244-2.725C7.512,4.124,5.91,4.542,4.709,5.077C4.428,5.202,4.158,5.35,3.892,5.503
				C3.057,5.985,3.81,7.278,4.647,6.795L4.647,6.795z"/>
		</g>
	</g>
</g>
</svg>
