<?xml version="1.0" encoding="utf-8"?>
<!-- Generator: Adobe Illustrator 17.0.0, SVG Export Plug-In . SVG Version: 6.00 Build 0)  -->
<!DOCTYPE svg PUBLIC "-//W3C//DTD SVG 1.1//EN" "http://www.w3.org/Graphics/SVG/1.1/DTD/svg11.dtd">
<svg version="1.1" id="Calque_1" xmlns="http://www.w3.org/2000/svg" xmlns:xlink="http://www.w3.org/1999/xlink" x="0px" y="0px"
	 viewBox="0 0 13.4 12.2" enable-background="new 0 0 13.4 12.2" xml:space="preserve">
<g>
	<g>
		<g>
			<path fill="#3D3D3D" d="M7.942,1.459c-4.04,0.644-6.091,6.497-2.562,9.056c0.783,0.567,1.528-0.731,0.755-1.292
				C3.555,7.352,5.751,3.314,8.34,2.901C9.291,2.75,8.886,1.308,7.942,1.459L7.942,1.459z"/>
		</g>
	</g>
	<g>
		<g>
			<path fill="#3D3D3D" d="M5.391,10.415c1.198,0.373,2.689,0.638,3.752-0.207C9.93,9.584,9.954,8.502,9.587,7.646
				c-0.36-0.839-1.199-1.51-2.107-1.637C6.107,5.817,4.926,6.594,4.06,7.598c-0.627,0.727,0.427,1.79,1.058,1.058
				c0.35-0.406,0.703-0.744,1.165-0.995C6.574,7.503,6.799,7.45,7.161,7.467c0.132,0.006-0.115-0.028,0.096,0.014
				C7.333,7.497,7.407,7.52,7.48,7.544c0.121,0.04-0.107-0.058,0.082,0.036c0.083,0.041,0.162,0.091,0.239,0.143
				c0.104,0.07-0.092-0.084,0.064,0.054c0.068,0.06,0.13,0.127,0.189,0.194C8.138,8.068,7.98,7.861,8.098,8.034
				c0.05,0.072,0.092,0.149,0.133,0.227C8.329,8.45,8.213,8.199,8.257,8.318C8.28,8.381,8.297,8.446,8.314,8.511
				c0.013,0.052,0.039,0.277,0.014,0.043c0.009,0.079,0.008,0.159,0.004,0.238C8.325,8.927,8.37,8.613,8.323,8.822
				c-0.007,0.03-0.016,0.059-0.025,0.089C8.251,9.068,8.375,8.754,8.304,8.902C8.277,8.958,8.242,9.01,8.207,9.06
				c0.126-0.18-0.035,0.019-0.082,0.059C8.282,8.983,8.104,9.122,8.06,9.147C7.88,9.249,8.097,9.142,7.973,9.185
				C7.703,9.279,7.728,9.259,7.491,9.27C6.907,9.296,6.35,9.147,5.788,8.972C4.865,8.685,4.473,10.129,5.391,10.415L5.391,10.415z"
				/>
		</g>
	</g>
</g>
</svg>
