<?xml version="1.0" encoding="utf-8"?>
<!-- Generator: Adobe Illustrator 17.0.0, SVG Export Plug-In . SVG Version: 6.00 Build 0)  -->
<!DOCTYPE svg PUBLIC "-//W3C//DTD SVG 1.1//EN" "http://www.w3.org/Graphics/SVG/1.1/DTD/svg11.dtd">
<svg version="1.1" id="Calque_1" xmlns="http://www.w3.org/2000/svg" xmlns:xlink="http://www.w3.org/1999/xlink" x="0px" y="0px"
	 viewBox="0 0 13.4 12.2" enable-background="new 0 0 13.4 12.2" xml:space="preserve">
<g>
	<g>
		<g>
			<path fill="#3D3D3D" d="M4.037,4.304C5.592,3.995,7.163,3.89,8.742,3.799c0.959-0.055,0.964-1.552,0-1.496
				C7.029,2.401,5.325,2.526,3.64,2.862C2.694,3.05,3.095,4.492,4.037,4.304L4.037,4.304z"/>
		</g>
	</g>
	<g>
		<g>
			<path fill="#3D3D3D" d="M8.096,2.673C6.952,4.574,6.119,6.821,5.519,8.951C5.257,9.881,6.7,10.276,6.961,9.348
				c0.568-2.017,1.344-4.12,2.426-5.92C9.886,2.599,8.592,1.847,8.096,2.673L8.096,2.673z"/>
		</g>
	</g>
	<g>
		<g>
			<path fill="#3D3D3D" d="M5.162,7.242C6.71,7.254,8.233,7.024,9.76,6.799c0.952-0.14,0.546-1.582-0.398-1.443
				c-1.397,0.206-2.785,0.401-4.2,0.39C4.197,5.739,4.198,7.235,5.162,7.242L5.162,7.242z"/>
		</g>
	</g>
</g>
</svg>
