<?xml version="1.0" encoding="utf-8"?>
<!-- Generator: Adobe Illustrator 17.0.0, SVG Export Plug-In . SVG Version: 6.00 Build 0)  -->
<!DOCTYPE svg PUBLIC "-//W3C//DTD SVG 1.1//EN" "http://www.w3.org/Graphics/SVG/1.1/DTD/svg11.dtd">
<svg version="1.1" id="Calque_1" xmlns="http://www.w3.org/2000/svg" xmlns:xlink="http://www.w3.org/1999/xlink" x="0px" y="0px"
	 viewBox="0 0 13.4 12.2" enable-background="new 0 0 13.4 12.2" xml:space="preserve">
<g>
	<g>
		<g>
			<path fill="#3D3D3D" d="M6.055,1.777c-1.399,0.347-3.027,1.407-2.51,3.081C4.053,6.506,6.075,6.79,7.518,6.502
				C8.464,6.314,8.062,4.872,7.12,5.06C6.401,5.203,5.393,5.183,4.987,4.455C4.619,3.798,5.97,3.339,6.452,3.22
				C7.388,2.988,6.991,1.545,6.055,1.777L6.055,1.777z"/>
		</g>
	</g>
	<g>
		<g>
			<path fill="#3D3D3D" d="M5.748,3.378C6.505,2.991,7.59,2.874,8.049,3.639c0.139,0.232,0.128,0.418-0.022,0.669
				C7.795,4.696,7.171,4.84,6.746,4.927C5.801,5.12,6.202,6.562,7.144,6.37c1.644-0.336,3.042-1.673,2.237-3.411
				C8.6,1.273,6.383,1.375,4.993,2.086C4.134,2.526,4.891,3.817,5.748,3.378L5.748,3.378z"/>
		</g>
	</g>
	<g>
		<g>
			<path fill="#3D3D3D" d="M7.324,4.782c-1.168,0.077-2.391,0.404-3.099,1.41C3.698,6.94,3.623,7.945,3.972,8.783
				c0.363,0.873,1.075,1.566,2.011,1.786c1.157,0.272,2.249-0.316,3.059-1.1C9.736,8.797,8.677,7.74,7.984,8.411
				C7.076,9.29,5.953,9.425,5.376,8.287c-0.182-0.36-0.174-0.811,0.038-1.185c0.354-0.625,1.254-0.78,1.911-0.823
				C8.282,6.215,8.288,4.719,7.324,4.782L7.324,4.782z"/>
		</g>
	</g>
	<g>
		<g>
			<path fill="#3D3D3D" d="M6.52,6.232C7.07,6.111,8.016,5.93,8.378,6.516c0.37,0.597-0.304,1.577-0.648,2.016
				C7.144,9.283,8.195,10.35,8.788,9.59c0.789-1.01,1.576-2.435,0.935-3.722C9.051,4.518,7.4,4.507,6.122,4.789
				C5.18,4.997,5.579,6.439,6.52,6.232L6.52,6.232z"/>
		</g>
	</g>
</g>
</svg>
