<?xml version="1.0" encoding="utf-8"?>
<!-- Generator: Adobe Illustrator 17.0.0, SVG Export Plug-In . SVG Version: 6.00 Build 0)  -->
<!DOCTYPE svg PUBLIC "-//W3C//DTD SVG 1.1//EN" "http://www.w3.org/Graphics/SVG/1.1/DTD/svg11.dtd">
<svg version="1.1" id="Calque_1" xmlns="http://www.w3.org/2000/svg" xmlns:xlink="http://www.w3.org/1999/xlink" x="0px" y="0px"
	 viewBox="0 0 13.4 12.2" enable-background="new 0 0 13.4 12.2" xml:space="preserve">
<g>
	<g>
		<g>
			<path fill="#3D3D3D" d="M5.482,1.636C4.245,2.274,3.457,3.795,3.984,5.15c0.611,1.573,2.695,2.014,4.134,1.391
				c1.351-0.585,1.557-2.045,1.023-3.277C8.495,1.77,6.786,1.199,5.286,1.428C4.335,1.573,4.741,3.014,5.684,2.871
				c0.761-0.116,1.534,0.178,1.979,0.815c0.31,0.443,0.473,1.116-0.059,1.449C7.002,5.511,5.671,5.38,5.381,4.636
				C5.106,3.928,5.636,3.238,6.237,2.928C7.094,2.485,6.337,1.194,5.482,1.636L5.482,1.636z"/>
		</g>
	</g>
	<g>
		<g>
			<path fill="#3D3D3D" d="M7.511,3.029c0.485,2.083,0.416,5.717-2.422,5.892c-0.958,0.059-0.964,1.556,0,1.496
				c3.944-0.244,4.596-4.642,3.865-7.786C8.735,1.691,7.292,2.09,7.511,3.029L7.511,3.029z"/>
		</g>
	</g>
</g>
</svg>
