<?xml version="1.0" encoding="utf-8"?>
<!-- Generator: Adobe Illustrator 17.0.0, SVG Export Plug-In . SVG Version: 6.00 Build 0)  -->
<!DOCTYPE svg PUBLIC "-//W3C//DTD SVG 1.1//EN" "http://www.w3.org/Graphics/SVG/1.1/DTD/svg11.dtd" [
	<!ENTITY st0 "fill:#3D3D3D;">
	<!ENTITY st1 "opacity:0.6;">
	<!ENTITY st2 "fill:#4B4B4B;">
	<!ENTITY st3 "fill:#715DDF;">
]>
<svg version="1.1" id="Calque_1" xmlns="http://www.w3.org/2000/svg" xmlns:xlink="http://www.w3.org/1999/xlink" x="0px" y="0px"
	 width="42px" height="21px" viewBox="0 0 42 21" style="enable-background:new 0 0 42 21;" xml:space="preserve">
<g>
	<g>
		<g>
			<g>
				<path style="&st0;" d="M38.528,5.301c0.714,3.854,0.919,7.64,0.618,11.54c-0.091,1.174-3.13,0.748-4.469,0.808
					c-5.368,0.242-10.745,0.289-16.118,0.333C14.012,18.019,9.462,18.019,4.913,18c-0.893-0.004-1.786-0.009-2.679-0.016
					c1.756,0.014,0.775-6.086,0.746-7.238c-0.038-1.481-1.071-5.039,0.72-5.031C4.899,5.72,6.098,5.726,7.297,5.731
					c4.094,0.019,8.188,0.037,12.282,0.056c6.569,0.03,13.138,0.06,19.707,0.09c1.014,0.005,1.014-1.567,0-1.572
					C27.141,4.25,14.996,4.195,2.851,4.139C2.524,4.138,2.156,4.377,2.093,4.716c-0.878,4.727-0.196,9.322-0.691,14.053
					c-0.045,0.429,0.392,0.783,0.786,0.786c12.493,0.101,25.145,0.413,37.602-0.649c0.316-0.027,0.708-0.217,0.758-0.577
					c0.624-4.485,0.319-9.011-0.503-13.446C39.86,3.887,38.345,4.31,38.528,5.301z"/>
			</g>
		</g>
		<g style="&st1;">
			<path style="&st2;" d="M39.286,5.092c0.813,6.683,0.503,13.029,0.503,13.029c-9.617,0.883-37.602,0.556-37.602,0.556
				c1.362-5.469-0.621-7.984,0.663-13.752L39.286,5.092z"/>
			<g>
				<path style="&st0;" d="M38.5,5.092c0.387,3.596,0.568,7.184,0.557,10.8c-0.008,2.65,0.182,1.514-2.476,1.663
					c-5.202,0.291-10.421,0.325-15.629,0.369c-4.877,0.041-9.754,0.031-14.631,0.001c-1.241-0.008-2.482-0.018-3.722-0.03
					c-1.011-0.01,0.619-0.129,0.689-0.777c0.191-1.764,0.178-3.438,0.046-5.205C3.243,10.695,2.52,5.71,3.401,5.714
					c1.08,0.005,2.159,0.01,3.239,0.015c4.313,0.02,8.626,0.04,12.939,0.059c6.569,0.03,13.138,0.06,19.707,0.09
					c1.014,0.005,1.014-1.567,0-1.572C27.141,4.25,14.996,4.195,2.851,4.139C2.526,4.138,2.154,4.377,2.093,4.716
					c-0.826,4.606,0.263,9.168-0.663,13.752c-0.101,0.5,0.221,0.989,0.758,0.995c12.489,0.142,25.147,0.503,37.602-0.556
					c0.442-0.038,0.766-0.33,0.786-0.786c0.188-4.348-0.037-8.705-0.503-13.029C39.965,4.095,38.392,4.085,38.5,5.092z"/>
			</g>
		</g>
		<g>
			<g>
				<path style="&st0;" d="M34.079,16.213c1.769,0.979,3.788,1.387,5.624,2.215c0.916,0.413,1.716-0.941,0.793-1.357
					c-1.832-0.826-3.861-1.24-5.624-2.215C33.985,14.365,33.192,15.723,34.079,16.213L34.079,16.213z"/>
			</g>
		</g>
		<g>
			<g>
				<path style="&st0;" d="M2.584,19.355c1.532-0.998,2.774-2.348,4.263-3.4c0.821-0.58,0.036-1.944-0.793-1.357
					c-1.488,1.052-2.735,2.405-4.263,3.4C0.945,18.549,1.732,19.911,2.584,19.355L2.584,19.355z"/>
			</g>
		</g>
	</g>
	<g>
		<g>
			<path style="&st0;" d="M20.263,15.018c0,0.086,0,0.172,0,0.259c0,0.951,1.475,0.951,1.475,0c0-0.086,0-0.172,0-0.259
				C21.737,14.067,20.263,14.067,20.263,15.018L20.263,15.018z"/>
		</g>
	</g>
	<g>
		<path style="&st3;" d="M35,13.725c0,0.517,0,1.034,0,1.551l-0.403,0.259c-8.49,0.517-18.663-0.776-27.437,0.259l-0.313-1.034
			c0-0.517,0.105-1.034,0.388-1.551L35,13.725z"/>
		<g>
			<path style="&st0;" d="M34.1,13.725c0,1.973-1.073,1.223-2.878,1.268c-2.274,0.056-4.553-0.023-6.826-0.081
				c-4.082-0.105-8.156-0.237-12.24-0.141c-0.269,0.006-4.563,0.33-4.563,0.33c-0.395-1.444-0.806-1.24,0.211-1.221
				c1.593,0.03,3.186,0.06,4.779,0.089c7.392,0.138,14.784,0.276,22.176,0.415c0.851,0.016,0.849-1.302,0-1.318
				c-9.22-0.172-18.44-0.345-27.66-0.517c-0.273-0.005-0.584,0.203-0.636,0.484c-0.28,1.533-0.361,1.617,0,2.936
				c0.072,0.261,0.348,0.513,0.636,0.484c6.908-0.698,13.826-0.276,20.751-0.145c3.419,0.064,7.568,1.551,7.568-2.582
				C35.418,12.875,34.1,12.875,34.1,13.725z"/>
		</g>
	</g>
	<g>
		<path style="&st3;" d="M34.97,13.208c0.553-5.781-0.834-11.797-0.834-11.797c-5.377,0.259-26.662,0-26.662,0
			C6.732,5.157,8,8.689,7,12.691v0.259C14,12.95,27.894,13.208,34.97,13.208z"/>
		<g>
			<path style="&st0;" d="M35.537,13.208c0.259-4.008,0.024-8.038-0.812-11.972c-0.059-0.276-0.357-0.495-0.636-0.484
				c-8.891,0.369-17.834,0.106-26.73,0C6.964,0.748,6.747,1.059,6.7,1.411C6.208,5.076,6.157,9.276,6.157,12.95
				c0,0.36,0.3,0.659,0.659,0.659c9.354,0.015,18.707,0.244,28.061,0.259c0.85,0.001,0.85-1.317,0-1.318
				c-7.485-0.012-14.969-0.149-22.454-0.225c-1.546-0.016-3.091-0.026-4.637-0.032c-0.075,0,0.066-4.507,0.066-4.541
				C7.849,7.217,8.02,2.078,7.417,2.071c0.612,0.007,1.224,0.014,1.836,0.02C14.781,2.15,20.31,2.188,25.839,2.185
				c2.573-0.002,5.147-0.011,7.719-0.092c0.654-0.021,0.772,9.397,0.661,11.116C34.164,14.057,35.482,14.052,35.537,13.208z"/>
		</g>
	</g>
</g>
</svg>
