<?xml version="1.0" encoding="utf-8"?>
<!-- Generator: Adobe Illustrator 17.0.0, SVG Export Plug-In . SVG Version: 6.00 Build 0)  -->
<!DOCTYPE svg PUBLIC "-//W3C//DTD SVG 1.1//EN" "http://www.w3.org/Graphics/SVG/1.1/DTD/svg11.dtd" [
	<!ENTITY st0 "fill:#3D3D3D;">
]>
<svg version="1.1" id="Calque_1" xmlns="http://www.w3.org/2000/svg" xmlns:xlink="http://www.w3.org/1999/xlink" x="0px" y="0px"
	 width="166px" height="167px" viewBox="0 0 166 167" style="enable-background:new 0 0 166 167;" xml:space="preserve">
<g>
	<g>
		<g>
			<path style="&st0;" d="M68.474,101.953c-0.89,1.91,1.609,3.898,3.008,4.741c0.709,0.427,1.353-0.68,0.646-1.106
				c-0.645-0.389-1.211-0.853-1.729-1.4c-0.272-0.288-1.037-1.125-0.82-1.589C69.926,101.856,68.822,101.205,68.474,101.953
				L68.474,101.953z"/>
		</g>
	</g>
	<g>
		<g>
			<path style="&st0;" d="M68.924,101.763c1.317-1.121,2.8-2.012,3.89-3.382c0.509-0.639-0.392-1.552-0.906-0.906
				c-1.089,1.369-2.574,2.262-3.89,3.382C67.388,101.393,68.299,102.295,68.924,101.763L68.924,101.763z"/>
		</g>
	</g>
	<g>
		<g>
			<path style="&st0;" d="M88.153,97.031c1.964,1.114,4.045,2,6.113,2.899c0.749,0.326,1.402-0.777,0.646-1.106
				c-2.068-0.899-4.149-1.785-6.113-2.899C88.08,95.517,87.435,96.624,88.153,97.031L88.153,97.031z"/>
		</g>
	</g>
	<g>
		<g>
			<path style="&st0;" d="M93.481,101.953c-0.454,0.79-0.888,1.662-1.567,2.286c-0.609,0.56,0.299,1.464,0.906,0.906
				c0.759-0.698,1.259-1.663,1.767-2.545C94.999,101.882,93.892,101.237,93.481,101.953L93.481,101.953z"/>
		</g>
	</g>
	<g>
		<g>
			<path style="&st0;" d="M69.027,102.433c7.98,0.399,16.063-0.363,23.51-3.405c0.754-0.308,0.424-1.548-0.341-1.235
				c-7.35,3.002-15.292,3.753-23.17,3.359C68.201,101.111,68.205,102.392,69.027,102.433L69.027,102.433z"/>
		</g>
	</g>
	<g>
		<g>
			<path style="&st0;" d="M74.028,97.119c4.795-0.032,9.472-0.525,14.063-1.955c0.786-0.245,0.45-1.482-0.341-1.235
				c-4.48,1.396-9.045,1.879-13.723,1.91C73.202,95.843,73.202,97.124,74.028,97.119L74.028,97.119z"/>
		</g>
	</g>
	<g>
		<g>
			<path style="&st0;" d="M88.474,94.386c1.154-1.532,2.134-3.2,2.843-4.985c0.305-0.768-0.934-1.099-1.235-0.341
				c-0.665,1.674-1.633,3.243-2.714,4.679C86.87,94.4,87.983,95.037,88.474,94.386L88.474,94.386z"/>
		</g>
	</g>
	<g>
		<g>
			<path style="&st0;" d="M68.018,93.066c1.397,1.181,2.998,2.085,4.575,2.999c0.716,0.415,1.361-0.692,0.646-1.106
				c-1.478-0.857-3.006-1.692-4.316-2.799C68.297,91.631,67.386,92.532,68.018,93.066L68.018,93.066z"/>
		</g>
	</g>
	<g>
		<g>
			<path style="&st0;" d="M69.644,92.3c1.104-2.788,2.818-5.111,5.263-6.865c0.665-0.477,0.026-1.589-0.646-1.106
				c-2.741,1.966-4.614,4.505-5.851,7.63C68.105,92.728,69.344,93.059,69.644,92.3L69.644,92.3z"/>
		</g>
	</g>
	<g>
		<g>
			<path style="&st0;" d="M84.134,83.886c1.482,1.288,2.964,2.577,4.446,3.865c0.62,0.539,1.53-0.363,0.906-0.906
				c-1.482-1.288-2.964-2.577-4.446-3.865C84.419,82.441,83.509,83.343,84.134,83.886L84.134,83.886z"/>
		</g>
	</g>
	<g>
		<g>
			<path style="&st0;" d="M71.805,91.804c6.811,0.823,13.282-0.523,19.217-3.953c0.715-0.413,0.07-1.52-0.646-1.106
				c-5.757,3.326-11.977,4.575-18.571,3.778C70.986,90.424,70.996,91.706,71.805,91.804L71.805,91.804z"/>
		</g>
	</g>
	<g>
		<g>
			<path style="&st0;" d="M65.369,80.121c2.986,1.569,5.905,3.262,8.891,4.832c0.73,0.384,1.378-0.722,0.646-1.106
				c-2.986-1.569-5.905-3.262-8.891-4.832C65.285,78.631,64.638,79.736,65.369,80.121L65.369,80.121z"/>
		</g>
	</g>
	<g>
		<g>
			<path style="&st0;" d="M86.338,83.433c0.079-0.878,1.182-1.984,1.696-2.622c0.781-0.969,1.631-1.896,2.562-2.723
				c0.619-0.55-0.291-1.452-0.906-0.906c-1.122,0.998-2.128,2.138-3.041,3.328c-0.642,0.836-1.494,1.826-1.592,2.923
				C84.983,84.256,86.265,84.249,86.338,83.433L86.338,83.433z"/>
		</g>
	</g>
	<g>
		<g>
			<path style="&st0;" d="M67.812,79.054c1.602-1.833,3.4-3.481,5.001-5.315c0.541-0.619-0.361-1.529-0.906-0.906
				c-1.602,1.833-3.4,3.481-5.001,5.315C66.366,78.768,67.268,79.677,67.812,79.054L67.812,79.054z"/>
		</g>
	</g>
	<g>
		<g>
			<path style="&st0;" d="M69.027,78.276c8.25-0.482,16.463-1.084,24.622-2.439c0.813-0.135,0.467-1.369-0.341-1.235
				c-8.048,1.336-16.146,1.917-24.281,2.393C68.206,77.043,68.201,78.324,69.027,78.276L69.027,78.276z"/>
		</g>
	</g>
	<g>
		<g>
			<path style="&st0;" d="M90.848,74.583c0.686,0.063,1.789,0.281,2.415-0.145c0.594-0.404,0.377-1.086-0.092-1.476
				c-1.245-1.036-2.865-1.598-4.222-2.471c-0.697-0.449-1.338,0.661-0.646,1.106c1.089,0.701,2.266,1.249,3.383,1.902
				c0.199,0.117,0.395,0.24,0.583,0.374c0.035,0.025,0.102,0.087,0.145,0.129c0.052,0.059,0.051,0.055-0.005-0.01
				c-0.109-0.209-0.051-0.421,0.174-0.635c0.116-0.079-0.019-0.004-0.071,0.007c-0.089,0.019-0.22,0.012-0.321,0.015
				c-0.447,0.01-0.897-0.034-1.342-0.075C90.026,73.226,90.033,74.507,90.848,74.583L90.848,74.583z"/>
		</g>
	</g>
	<g>
		<g>
			<path style="&st0;" d="M74.687,101.34c-1.073,0.934-1.86,1.844-2.388,3.182c-0.303,0.769,0.936,1.1,1.235,0.341
				c0.44-1.116,1.168-1.842,2.058-2.616C76.217,101.703,75.307,100.801,74.687,101.34L74.687,101.34z"/>
		</g>
	</g>
	<g>
		<g>
			<path style="&st0;" d="M72.191,100.478c2.602,0.886,5.195,1.44,7.95,1.472c0.826,0.01,0.825-1.271,0-1.281
				c-2.645-0.031-5.115-0.577-7.61-1.427C71.747,98.976,71.413,100.213,72.191,100.478L72.191,100.478z"/>
		</g>
	</g>
	<g>
		<g>
			<path style="&st0;" d="M77.918,99.534c1.353,0.032,2.742,0.471,4.06-0.023c0.766-0.287,0.435-1.525-0.341-1.235
				c-1.188,0.445-2.496,0.006-3.72-0.023C77.091,98.234,77.093,99.515,77.918,99.534L77.918,99.534z"/>
		</g>
	</g>
	<g>
		<g>
			<path style="&st0;" d="M73.149,92.683c1.821,1.054,3.647,1.999,5.71,2.48c0.804,0.187,1.145-1.048,0.341-1.235
				c-1.958-0.457-3.677-1.351-5.404-2.351C73.079,91.162,72.435,92.269,73.149,92.683L73.149,92.683z"/>
		</g>
	</g>
	<g>
		<g>
			<path style="&st0;" d="M74.687,92.643c-0.556,0.483-1.111,0.966-1.667,1.449c-0.624,0.543,0.285,1.445,0.906,0.906
				c0.556-0.483,1.111-0.966,1.667-1.449C76.217,93.006,75.307,92.104,74.687,92.643L74.687,92.643z"/>
		</g>
	</g>
	<g>
		<g>
			<path style="&st0;" d="M76.483,87.228c-1.525,0.901-2.921,1.998-4.446,2.899c-0.71,0.42-0.066,1.527,0.646,1.106
				c1.525-0.901,2.921-1.998,4.446-2.899C77.84,87.915,77.196,86.807,76.483,87.228L76.483,87.228z"/>
		</g>
	</g>
	<g>
		<g>
			<path style="&st0;" d="M73.475,86.009c-0.327,0.586-0.509,1.339-1.011,1.803c-0.608,0.561,0.3,1.465,0.906,0.906
				c0.605-0.558,0.82-1.362,1.212-2.062C74.984,85.933,73.878,85.288,73.475,86.009L73.475,86.009z"/>
		</g>
	</g>
	<g>
		<g>
			<path style="&st0;" d="M77.362,87.456c0.185,0,0.37,0,0.556,0c0.826,0,0.826-1.281,0-1.281c-0.185,0-0.37,0-0.556,0
				C76.536,86.175,76.536,87.456,77.362,87.456L77.362,87.456z"/>
		</g>
	</g>
	<g>
		<g>
			<path style="&st0;" d="M75.633,80.847c-0.44,1.126-1.001,2.182-1.603,3.229c-0.412,0.717,0.695,1.362,1.106,0.646
				c0.658-1.144,1.251-2.304,1.732-3.535C77.169,80.417,75.93,80.086,75.633,80.847L75.633,80.847z"/>
		</g>
	</g>
	<g>
		<g>
			<path style="&st0;" d="M74.413,74.871c1.495,0.443,2.95,1.007,4.446,1.449c0.794,0.235,1.131-1.001,0.341-1.235
				c-1.495-0.443-2.95-1.007-4.446-1.449C73.96,73.4,73.623,74.637,74.413,74.871L74.413,74.871z"/>
		</g>
	</g>
	<g>
		<g>
			<path style="&st0;" d="M77.362,74.894c1.31,0.031,2.578,0.452,3.89,0.483c0.826,0.02,0.825-1.261,0-1.281
				c-1.31-0.031-2.578-0.452-3.89-0.483C76.536,73.593,76.538,74.874,77.362,74.894L77.362,74.894z"/>
		</g>
	</g>
	<g>
		<g>
			<path style="&st0;" d="M77.918,75.377c0.826,0,0.826-1.281,0-1.281S77.092,75.377,77.918,75.377L77.918,75.377z"/>
		</g>
	</g>
	<g>
		<g>
			<path style="&st0;" d="M77.362,78.276c0.826,0,0.826-1.281,0-1.281C76.536,76.995,76.536,78.276,77.362,78.276L77.362,78.276z"/>
		</g>
	</g>
	<g>
		<g>
			<path style="&st0;" d="M70.474,135.953c-0.89,1.91,1.609,3.898,3.008,4.741c0.709,0.427,1.353-0.68,0.646-1.106
				c-0.645-0.389-1.211-0.853-1.729-1.4c-0.272-0.288-1.037-1.125-0.82-1.589C71.926,135.856,70.822,135.205,70.474,135.953
				L70.474,135.953z"/>
		</g>
	</g>
	<g>
		<g>
			<path style="&st0;" d="M70.924,135.763c1.317-1.121,2.8-2.012,3.89-3.382c0.509-0.639-0.392-1.552-0.906-0.906
				c-1.089,1.369-2.574,2.262-3.89,3.382C69.388,135.393,70.299,136.295,70.924,135.763L70.924,135.763z"/>
		</g>
	</g>
	<g>
		<g>
			<path style="&st0;" d="M90.153,131.031c1.964,1.114,4.045,2,6.113,2.899c0.749,0.326,1.402-0.777,0.646-1.106
				c-2.068-0.899-4.149-1.785-6.113-2.899C90.08,129.517,89.435,130.624,90.153,131.031L90.153,131.031z"/>
		</g>
	</g>
	<g>
		<g>
			<path style="&st0;" d="M95.481,135.953c-0.454,0.79-0.888,1.662-1.567,2.286c-0.609,0.56,0.299,1.464,0.906,0.906
				c0.759-0.698,1.259-1.663,1.767-2.545C96.999,135.882,95.892,135.237,95.481,135.953L95.481,135.953z"/>
		</g>
	</g>
	<g>
		<g>
			<path style="&st0;" d="M76.028,131.119c4.795-0.032,9.472-0.525,14.063-1.955c0.786-0.245,0.45-1.482-0.341-1.235
				c-4.48,1.396-9.045,1.879-13.723,1.91C75.202,129.843,75.202,131.124,76.028,131.119L76.028,131.119z"/>
		</g>
	</g>
	<g>
		<g>
			<path style="&st0;" d="M90.474,128.386c1.154-1.532,2.134-3.2,2.843-4.985c0.305-0.768-0.934-1.099-1.235-0.341
				c-0.665,1.674-1.633,3.243-2.714,4.679C88.87,128.4,89.983,129.037,90.474,128.386L90.474,128.386z"/>
		</g>
	</g>
	<g>
		<g>
			<path style="&st0;" d="M70.018,127.066c1.397,1.181,2.998,2.085,4.575,2.999c0.716,0.415,1.361-0.692,0.646-1.106
				c-1.478-0.857-3.006-1.692-4.316-2.799C70.297,125.631,69.386,126.532,70.018,127.066L70.018,127.066z"/>
		</g>
	</g>
	<g>
		<g>
			<path style="&st0;" d="M71.644,126.3c1.104-2.788,2.818-5.111,5.263-6.865c0.665-0.477,0.026-1.589-0.646-1.106
				c-2.741,1.966-4.614,4.505-5.851,7.63C70.105,126.728,71.344,127.059,71.644,126.3L71.644,126.3z"/>
		</g>
	</g>
	<g>
		<g>
			<path style="&st0;" d="M86.134,117.886c1.482,1.288,2.964,2.577,4.446,3.865c0.62,0.539,1.53-0.363,0.906-0.906
				c-1.482-1.288-2.964-2.577-4.446-3.865C86.419,116.441,85.509,117.343,86.134,117.886L86.134,117.886z"/>
		</g>
	</g>
	<g>
		<g>
			<path style="&st0;" d="M77.695,120.006c2.918-0.036,5.74-0.545,8.506-1.472c0.779-0.261,0.445-1.499-0.341-1.235
				c-2.66,0.892-5.356,1.392-8.165,1.427C76.87,118.735,76.869,120.016,77.695,120.006L77.695,120.006z"/>
		</g>
	</g>
	<g>
		<g>
			<path style="&st0;" d="M73.805,125.804c6.811,0.823,13.282-0.523,19.217-3.953c0.715-0.413,0.07-1.52-0.646-1.106
				c-5.757,3.326-11.977,4.575-18.571,3.778C72.986,124.424,72.996,125.706,73.805,125.804L73.805,125.804z"/>
		</g>
	</g>
	<g>
		<g>
			<path style="&st0;" d="M67.369,114.121c2.986,1.569,5.905,3.262,8.891,4.832c0.73,0.384,1.378-0.722,0.646-1.106
				c-2.986-1.569-5.905-3.262-8.891-4.832C67.285,112.631,66.638,113.736,67.369,114.121L67.369,114.121z"/>
		</g>
	</g>
	<g>
		<g>
			<path style="&st0;" d="M88.338,117.433c0.079-0.878,1.182-1.984,1.696-2.622c0.781-0.969,1.631-1.896,2.562-2.723
				c0.619-0.55-0.291-1.452-0.906-0.906c-1.122,0.998-2.128,2.138-3.041,3.328c-0.642,0.836-1.494,1.826-1.592,2.923
				C86.983,118.256,88.265,118.249,88.338,117.433L88.338,117.433z"/>
		</g>
	</g>
	<g>
		<g>
			<path style="&st0;" d="M69.812,113.054c1.602-1.833,3.4-3.481,5.001-5.315c0.541-0.619-0.361-1.529-0.906-0.906
				c-1.602,1.833-3.4,3.481-5.001,5.315C68.366,112.768,69.268,113.677,69.812,113.054L69.812,113.054z"/>
		</g>
	</g>
	<g>
		<g>
			<path style="&st0;" d="M71.027,112.276c8.25-0.482,16.463-1.084,24.622-2.439c0.813-0.135,0.467-1.369-0.341-1.235
				c-8.048,1.336-16.146,1.917-24.281,2.393C70.206,111.043,70.201,112.324,71.027,112.276L71.027,112.276z"/>
		</g>
	</g>
	<g>
		<g>
			<path style="&st0;" d="M92.848,108.583c0.686,0.063,1.789,0.281,2.415-0.145c0.594-0.404,0.377-1.086-0.092-1.476
				c-1.245-1.036-2.865-1.598-4.222-2.471c-0.697-0.449-1.338,0.661-0.646,1.106c1.089,0.701,2.266,1.249,3.383,1.902
				c0.199,0.117,0.395,0.24,0.583,0.374c0.035,0.025,0.102,0.087,0.145,0.129c0.052,0.059,0.051,0.055-0.005-0.01
				c-0.109-0.209-0.051-0.421,0.174-0.635c0.116-0.079-0.019-0.004-0.071,0.007c-0.089,0.019-0.22,0.012-0.321,0.015
				c-0.447,0.01-0.897-0.034-1.342-0.075C92.026,107.226,92.033,108.507,92.848,108.583L92.848,108.583z"/>
		</g>
	</g>
	<g>
		<g>
			<path style="&st0;" d="M74.191,134.478c2.602,0.886,5.195,1.44,7.95,1.472c0.826,0.01,0.825-1.271,0-1.281
				c-2.645-0.031-5.115-0.577-7.61-1.427C73.747,132.976,73.413,134.213,74.191,134.478L74.191,134.478z"/>
		</g>
	</g>
	<g>
		<g>
			<path style="&st0;" d="M79.918,133.534c1.353,0.032,2.742,0.471,4.06-0.023c0.766-0.287,0.435-1.525-0.341-1.235
				c-1.188,0.445-2.496,0.006-3.72-0.023C79.091,132.234,79.093,133.515,79.918,133.534L79.918,133.534z"/>
		</g>
	</g>
	<g>
		<g>
			<path style="&st0;" d="M79.192,127.714c2.087,0.461,4.135,0.956,6.283,0.989c0.826,0.013,0.825-1.268,0-1.281
				c-2.033-0.031-3.968-0.508-5.943-0.943C78.728,126.301,78.386,127.536,79.192,127.714L79.192,127.714z"/>
		</g>
	</g>
	<g>
		<g>
			<path style="&st0;" d="M75.149,126.683c1.821,1.054,3.647,1.999,5.71,2.48c0.804,0.187,1.145-1.048,0.341-1.235
				c-1.958-0.457-3.677-1.351-5.404-2.351C75.079,125.162,74.435,126.269,75.149,126.683L75.149,126.683z"/>
		</g>
	</g>
	<g>
		<g>
			<path style="&st0;" d="M76.687,126.643c-0.556,0.483-1.111,0.966-1.667,1.449c-0.624,0.543,0.285,1.445,0.906,0.906
				c0.556-0.483,1.111-0.966,1.667-1.449C78.217,127.006,77.307,126.104,76.687,126.643L76.687,126.643z"/>
		</g>
	</g>
	<g>
		<g>
			<path style="&st0;" d="M78.483,121.228c-1.525,0.901-2.921,1.998-4.446,2.899c-0.71,0.42-0.066,1.527,0.646,1.106
				c1.525-0.901,2.921-1.998,4.446-2.899C79.84,121.915,79.196,120.807,78.483,121.228L78.483,121.228z"/>
		</g>
	</g>
	<g>
		<g>
			<path style="&st0;" d="M75.475,120.009c-0.327,0.586-0.509,1.339-1.011,1.803c-0.608,0.561,0.3,1.465,0.906,0.906
				c0.605-0.558,0.82-1.362,1.212-2.062C76.984,119.933,75.878,119.288,75.475,120.009L75.475,120.009z"/>
		</g>
	</g>
	<g>
		<g>
			<path style="&st0;" d="M77.695,122.905c0.578,0.04,1.069,0.442,1.667,0.483c0.825,0.056,0.819-1.225,0-1.281
				c-0.578-0.04-1.069-0.442-1.667-0.483C76.87,121.568,76.876,122.849,77.695,122.905L77.695,122.905z"/>
		</g>
	</g>
	<g>
		<g>
			<path style="&st0;" d="M79.362,121.456c0.185,0,0.37,0,0.556,0c0.826,0,0.826-1.281,0-1.281c-0.185,0-0.37,0-0.556,0
				C78.536,120.175,78.536,121.456,79.362,121.456L79.362,121.456z"/>
		</g>
	</g>
	<g>
		<g>
			<g>
				<path style="&st0;" d="M75.695,85.791c2.9-0.036,5.7-0.543,8.449-1.465c0.517-0.173,0.295-0.995-0.226-0.82
					c-2.677,0.898-5.395,1.399-8.223,1.434C75.147,84.947,75.146,85.798,75.695,85.791L75.695,85.791z"/>
			</g>
		</g>
		<g>
			<g>
				<path style="&st0;" d="M72.06,102.094c2.682,3.278,6.761,4.402,10.859,4.473c0.549,0.009,0.548-0.841,0-0.85
					c-3.893-0.067-7.709-1.109-10.258-4.224C72.314,101.068,71.716,101.673,72.06,102.094L72.06,102.094z"/>
			</g>
		</g>
		<g>
			<g>
				<path style="&st0;" d="M78.729,101.975c-1.853,1.652-3.277,3.594-3.999,5.985c-0.159,0.526,0.662,0.75,0.82,0.226
					c0.681-2.255,2.035-4.054,3.781-5.61C79.74,102.211,79.137,101.612,78.729,101.975L78.729,101.975z"/>
			</g>
		</g>
		<g>
			<g>
				<path style="&st0;" d="M83.174,102.459c-1.852,1.611-3.705,3.221-5.557,4.832c-0.415,0.36,0.19,0.959,0.601,0.601
					c1.852-1.611,3.705-3.221,5.557-4.832C84.19,102.699,83.586,102.1,83.174,102.459L83.174,102.459z"/>
			</g>
		</g>
		<g>
			<g>
				<path style="&st0;" d="M77.249,93.506c2.069,0.457,4.096,0.949,6.226,0.981c0.549,0.008,0.548-0.842,0-0.85
					c-2.052-0.032-4.007-0.511-6-0.951C76.941,92.568,76.714,93.388,77.249,93.506L77.249,93.506z"/>
			</g>
		</g>
		<g>
			<g>
				<path style="&st0;" d="M75.695,88.69c0.583,0.04,1.07,0.442,1.667,0.483c0.548,0.037,0.544-0.813,0-0.85
					c-0.583-0.04-1.07-0.442-1.667-0.483C75.147,87.802,75.151,88.653,75.695,88.69L75.695,88.69z"/>
			</g>
		</g>
		<g>
			<g>
				<path style="&st0;" d="M73.661,78.387c-0.603,1.047-1.248,2.003-2.156,2.813c-0.41,0.366,0.193,0.965,0.601,0.601
					c0.96-0.856,1.652-1.878,2.289-2.985C74.669,78.34,73.934,77.912,73.661,78.387L73.661,78.387z"/>
			</g>
		</g>
		<g>
			<g>
				<path style="&st0;" d="M72.804,77.562c1.298,0.384,2.548,0.868,3.788,1.407c0.498,0.216,0.931-0.516,0.429-0.734
					c-1.308-0.568-2.623-1.088-3.992-1.492C72.502,76.586,72.279,77.407,72.804,77.562L72.804,77.562z"/>
			</g>
		</g>
		<g>
			<g>
				<path style="&st0;" d="M80.697,78.544c0.548,0,0.548-0.85,0-0.85S80.148,78.544,80.697,78.544L80.697,78.544z"/>
			</g>
		</g>
		<g>
			<g>
				<path style="&st0;" d="M71.027,136.218c7.964,0.398,16.02-0.361,23.453-3.397c0.501-0.204,0.282-1.027-0.226-0.82
					c-7.366,3.009-15.332,3.761-23.227,3.367C70.478,135.34,70.481,136.191,71.027,136.218L71.027,136.218z"/>
			</g>
		</g>
		<g>
			<g>
				<path style="&st0;" d="M74.06,136.094c2.682,3.278,6.761,4.402,10.859,4.473c0.549,0.009,0.548-0.841,0-0.85
					c-3.893-0.067-7.709-1.109-10.258-4.224C74.314,135.068,73.716,135.673,74.06,136.094L74.06,136.094z"/>
			</g>
		</g>
		<g>
			<g>
				<path style="&st0;" d="M76.839,135.492c-1.044,0.908-1.819,1.785-2.332,3.087c-0.201,0.511,0.621,0.73,0.82,0.226
					c0.455-1.154,1.193-1.911,2.113-2.711C77.855,135.733,77.25,135.134,76.839,135.492L76.839,135.492z"/>
			</g>
		</g>
		<g>
			<g>
				<path style="&st0;" d="M80.729,135.975c-1.853,1.652-3.277,3.594-3.999,5.985c-0.159,0.526,0.662,0.75,0.82,0.226
					c0.681-2.255,2.035-4.054,3.781-5.61C81.74,136.211,81.137,135.612,80.729,135.975L80.729,135.975z"/>
			</g>
		</g>
		<g>
			<g>
				<path style="&st0;" d="M85.174,136.459c-1.852,1.611-3.705,3.221-5.557,4.832c-0.415,0.36,0.19,0.959,0.601,0.601
					c1.852-1.611,3.705-3.221,5.557-4.832C86.19,136.699,85.586,136.1,85.174,136.459L85.174,136.459z"/>
			</g>
		</g>
		<g>
			<g>
				<path style="&st0;" d="M77.841,114.904c-0.447,1.144-1.013,2.217-1.624,3.281c-0.274,0.476,0.461,0.904,0.734,0.429
					c0.648-1.128,1.236-2.27,1.71-3.484C78.861,114.619,78.038,114.399,77.841,114.904L77.841,114.904z"/>
			</g>
		</g>
		<g>
			<g>
				<path style="&st0;" d="M75.661,112.387c-0.603,1.047-1.248,2.003-2.156,2.813c-0.41,0.366,0.193,0.965,0.601,0.601
					c0.96-0.856,1.652-1.878,2.289-2.985C76.669,112.34,75.934,111.912,75.661,112.387L75.661,112.387z"/>
			</g>
		</g>
		<g>
			<g>
				<path style="&st0;" d="M74.804,111.562c1.298,0.384,2.548,0.868,3.788,1.407c0.498,0.216,0.931-0.516,0.429-0.734
					c-1.308-0.568-2.623-1.088-3.992-1.492C74.502,110.586,74.279,111.407,74.804,111.562L74.804,111.562z"/>
			</g>
		</g>
	</g>
	<g>
		<g>
			<path style="&st0;" d="M76.413,108.871c1.495,0.443,2.95,1.007,4.446,1.449c0.794,0.235,1.131-1.001,0.341-1.235
				c-1.495-0.443-2.95-1.007-4.446-1.449C75.96,107.4,75.623,108.637,76.413,108.871L76.413,108.871z"/>
		</g>
	</g>
	<g>
		<g>
			<path style="&st0;" d="M79.362,108.894c1.31,0.031,2.578,0.452,3.89,0.483c0.826,0.02,0.825-1.261,0-1.281
				c-1.31-0.031-2.578-0.452-3.89-0.483C78.536,107.593,78.538,108.874,79.362,108.894L79.362,108.894z"/>
		</g>
	</g>
	<g>
		<g>
			<path style="&st0;" d="M79.918,109.377c0.826,0,0.826-1.281,0-1.281S79.092,109.377,79.918,109.377L79.918,109.377z"/>
		</g>
	</g>
	<g>
		<g>
			<path style="&st0;" d="M79.362,112.276c0.826,0,0.826-1.281,0-1.281C78.536,110.995,78.536,112.276,79.362,112.276
				L79.362,112.276z"/>
		</g>
	</g>
	<g>
		<g>
			<path style="&st0;" d="M82.697,112.759c0.826,0,0.826-1.281,0-1.281C81.871,111.478,81.871,112.759,82.697,112.759
				L82.697,112.759z"/>
		</g>
	</g>
	<g>
		<g>
			<path style="&st0;" d="M67.289,142.572c12.144-1.122,24.563-0.963,36.539-3.463c0.808-0.169,0.465-1.403-0.341-1.235
				c-11.859,2.475-24.172,2.306-36.199,3.417C66.473,141.367,66.466,142.648,67.289,142.572L67.289,142.572z"/>
		</g>
	</g>
	<g>
		<g>
			<path style="&st0;" d="M65.96,142.276c-1.176,26.633,47.681,19.284,38.315-3.954c-0.305-0.756-1.544-0.426-1.235,0.341
				c8.652,21.468-36.891,28.361-35.799,3.614C67.278,141.45,65.996,141.453,65.96,142.276L65.96,142.276z"/>
		</g>
	</g>
	<g>
		<g>
			<path style="&st0;" d="M74.105,29.832c-23.667-1.776-19.823,34.763-3.282,42.155c11.779,5.264,26.472-6.206,28.59-17.677
				c2.831-15.331-13.521-25.797-27.028-24.478c-0.814,0.079-0.822,1.361,0,1.281c13.585-1.326,28.367,8.92,25.608,23.861
				C95.877,66.43,80.354,75.929,69.641,69.965c-14.059-7.826-16.867-40.453,4.464-38.853C74.929,31.174,74.923,29.893,74.105,29.832
				L74.105,29.832z"/>
		</g>
	</g>
	<g>
		<g>
			<path style="&st0;" d="M101.403,41.944c6.141-2.588,7.136,21.206-0.388,18.681c-0.59-0.198-0.84,0.731-0.256,0.927
				c9.267,3.11,8.274-23.859,0.388-20.536C100.585,41.254,100.832,42.185,101.403,41.944L101.403,41.944z"/>
		</g>
	</g>
	<g>
		<g>
			<path style="&st0;" d="M55.358,42.042c-7.146,4.747-8.012,21.653,3.266,20.969c0.698-0.042,0.703-1.133,0-1.09
				c-10.174,0.618-8.96-14.789-2.716-18.937C56.49,42.596,55.945,41.651,55.358,42.042L55.358,42.042z"/>
		</g>
	</g>
	<g>
		<g>
			<path style="&st0;" d="M106.442,49.689c16.548,1.958,9.653-21.504,8.553-30.569c-0.098-0.809-1.38-0.819-1.281,0
				c1.014,8.361,7.955,31.091-7.272,29.289C105.623,48.311,105.632,49.593,106.442,49.689L106.442,49.689z"/>
		</g>
	</g>
	<g>
		<g>
			<path style="&st0;" d="M106.956,54.138c5.883-0.901,12.728-0.869,14.525-7.559c2.587-9.633,1.404-21.032-1.693-30.382
				c-0.258-0.78-1.496-0.446-1.235,0.341c2.995,9.043,3.513,18.652,2.033,28.021c-1.177,7.454-7.682,7.381-13.97,8.345
				C105.801,53.028,106.148,54.262,106.956,54.138L106.956,54.138z"/>
		</g>
	</g>
	<g>
		<g>
			<path style="&st0;" d="M114.354,17.447c-1.613,0.022-3.203,0.322-4.816,0.344c-0.825,0.011-0.826,1.292,0,1.281
				c1.613-0.022,3.203-0.322,4.816-0.344C115.179,18.717,115.181,17.436,114.354,17.447L114.354,17.447z"/>
		</g>
	</g>
	<g>
		<g>
			<path style="&st0;" d="M109.264,13.445c-0.255,1.405-0.648,2.87-0.711,4.298c-0.036,0.826,1.245,0.823,1.281,0
				c0.057-1.313,0.43-2.666,0.665-3.958C110.646,12.978,109.412,12.633,109.264,13.445L109.264,13.445z"/>
		</g>
	</g>
	<g>
		<g>
			<path style="&st0;" d="M110.052,13.201c2.887-0.886,5.844-1.181,8.85-1.302c1.185-0.048,2.372-0.047,3.557-0.051
				c0.725-0.002,0.541,4.353,0.542,4.863c0.001,0.826,1.282,0.826,1.281,0c-0.003-1.91-0.058-3.788-0.367-5.674
				c-0.045-0.277-0.356-0.47-0.618-0.47c-4.571,0.002-9.18,0.047-13.587,1.399C108.924,12.207,109.26,13.444,110.052,13.201
				L110.052,13.201z"/>
		</g>
	</g>
	<g>
		<g>
			<path style="&st0;" d="M118.653,16.985c1.931-0.355,3.907-0.386,5.848-0.688c0.814-0.127,0.467-1.361-0.341-1.235
				c-1.941,0.302-3.914,0.333-5.848,0.688C117.5,15.899,117.845,17.134,118.653,16.985L118.653,16.985z"/>
		</g>
	</g>
	<g>
		<g>
			<path style="&st0;" d="M46.066,52.074c1.362-0.316,2.766-0.372,4.128-0.688c0.805-0.186,0.463-1.421-0.341-1.235
				c-1.362,0.316-2.766,0.372-4.128,0.688C44.921,51.026,45.262,52.261,46.066,52.074L46.066,52.074z"/>
		</g>
	</g>
	<g>
		<g>
			<path style="&st0;" d="M43.144,55.881c2.408,0,4.816,0,7.224,0c0.826,0,0.826-1.281,0-1.281c-2.408,0-4.816,0-7.224,0
				C42.318,54.601,42.318,55.881,43.144,55.881L43.144,55.881z"/>
		</g>
	</g>
	<g>
		<g>
			<path style="&st0;" d="M43.096,54.553c-0.402-13.309-2.114-26.97,1.009-40.079c0.191-0.803-1.044-1.144-1.235-0.341
				c-3.153,13.231-1.461,26.986-1.055,40.42C41.84,55.377,43.121,55.379,43.096,54.553L43.096,54.553z"/>
		</g>
	</g>
	<g>
		<g>
			<path style="&st0;" d="M44.285,14.756c5.867-5.752,29.649-11.135,30.212,1.611c0.036,0.823,1.317,0.826,1.281,0
				c-0.631-14.301-25.758-9.027-32.398-2.517C42.788,14.43,43.695,15.335,44.285,14.756L44.285,14.756z"/>
		</g>
	</g>
	<g>
		<g>
			<path style="&st0;" d="M47.224,48.705c-0.134-9.412-2.67-19.09-0.199-28.385c2.456-9.242,22.635-14.295,25.086-2.749
				c0.171,0.808,1.406,0.465,1.235-0.341c-2.075-9.778-16.829-8.684-23.061-3.868c-9.877,7.633-4.491,24.887-4.342,35.343
				C45.955,49.53,47.236,49.531,47.224,48.705L47.224,48.705z"/>
		</g>
	</g>
	<g>
		<g>
			<path style="&st0;" d="M71.867,16.438c-0.843-0.178-1.679-0.201-2.534-0.086c-0.607,0.082-1.756,0.133-2.218,0.595
				c-0.467,0.467-0.411,1.744-0.44,2.357c-0.044,0.917,0.072,1.845,0.276,2.738c0.184,0.805,1.419,0.464,1.235-0.341
				c-0.311-1.363-0.311-2.769,0-4.132c-0.149,0.149-0.298,0.298-0.447,0.447c1.219-0.387,2.52-0.612,3.788-0.344
				C72.332,17.844,72.675,16.609,71.867,16.438L71.867,16.438z"/>
		</g>
	</g>
	<g>
		<g>
			<path style="&st0;" d="M67.569,22.168c3.633-0.024,7.275-0.306,10.835-1.055c0.808-0.17,0.465-1.405-0.341-1.235
				c-3.449,0.725-6.974,0.986-10.494,1.009C66.743,20.893,66.742,22.174,67.569,22.168L67.569,22.168z"/>
		</g>
	</g>
	<g>
		<g>
			<path style="&st0;" d="M74.619,17.329c1.307-0.3,2.623-0.32,3.958-0.321c-0.206-0.157-0.412-0.313-0.618-0.47
				c0.293,1.196,0.684,2.566,0.344,3.788c-0.222,0.797,1.014,1.135,1.235,0.341c0.404-1.452,0.005-3.045-0.344-4.469
				c-0.068-0.276-0.339-0.47-0.618-0.47c-1.449,0.001-2.881,0.041-4.298,0.367C73.474,16.279,73.815,17.514,74.619,17.329
				L74.619,17.329z"/>
		</g>
	</g>
	<g>
		<g>
			<path style="&st0;" d="M73.487,47.843c0.371,2.12,1.409,5.495,4.184,5.122c1.578-0.213,2.926-1.848,2.978-3.41
				c0.036-1.075-0.716-1.872-1.703-2.17c-1.71-0.515-3.747,0.142-5.355,0.702c-0.775,0.27-0.442,1.508,0.341,1.235
				c0.885-0.308,1.787-0.573,2.712-0.729c0.297-0.05,0.598-0.074,0.899-0.084c0.14-0.004,0.28-0.001,0.42,0.005
				c0.209,0.009,0.195,0.01,0.322,0.031c0.108,0.018,0.215,0.044,0.32,0.074c0.049,0.014,0.327,0.124,0.169,0.054
				c0.081,0.036,0.159,0.08,0.234,0.127c0.035,0.022,0.069,0.047,0.103,0.071c-0.152-0.111-0.009,0,0.022,0.03
				c0.028,0.027,0.053,0.055,0.079,0.084c0.091,0.102-0.087-0.122-0.008-0.011c0.043,0.06,0.078,0.124,0.11,0.19
				c0.059,0.12-0.056-0.145-0.009-0.019c0.013,0.034,0.022,0.069,0.032,0.104c0.01,0.035,0.017,0.071,0.025,0.106
				c0.037,0.177-0.009-0.104,0.002,0.012c0.007,0.075,0.006,0.15,0.004,0.225c-0.001,0.038-0.005,0.077-0.008,0.115
				c-0.013,0.141,0.025-0.157,0.002-0.016c-0.028,0.173-0.081,0.342-0.144,0.506c-0.053,0.138,0.06-0.134-0.001,0.002
				c-0.017,0.039-0.036,0.077-0.055,0.115c-0.038,0.077-0.082,0.152-0.126,0.225c-0.045,0.075-0.094,0.147-0.145,0.218
				c-0.019,0.027-0.113,0.147-0.006,0.011c-0.036,0.046-0.075,0.091-0.113,0.135c-0.116,0.133-0.244,0.256-0.379,0.37
				c-0.026,0.022-0.147,0.114-0.008,0.009c-0.035,0.026-0.071,0.051-0.107,0.076c-0.083,0.058-0.17,0.109-0.259,0.158
				c-0.043,0.024-0.298,0.137-0.118,0.063c-0.078,0.032-0.159,0.059-0.24,0.083c-0.081,0.024-0.163,0.041-0.246,0.055
				c-0.147,0.026,0.153-0.016,0.004-0.002c-0.056,0.005-0.112,0.006-0.168,0.007c-0.07,0.001-0.141-0.005-0.211-0.012
				c0.202,0.02-0.036-0.012-0.083-0.023c-0.072-0.017-0.142-0.041-0.211-0.066c-0.065-0.026-0.056-0.022,0.027,0.012
				c-0.043-0.019-0.084-0.041-0.125-0.062c-0.276-0.145-0.523-0.384-0.69-0.608c-0.738-0.987-1.026-2.27-1.234-3.461
				C74.58,46.69,73.346,47.035,73.487,47.843L73.487,47.843z"/>
		</g>
	</g>
	<g>
		<g>
			<path style="&st0;" d="M62.752,35.929c5.715,0.556,11.14,6.843,11.744,12.432c0.088,0.812,1.37,0.821,1.281,0
				c-0.685-6.337-6.541-13.082-13.025-13.713C61.93,34.568,61.938,35.85,62.752,35.929L62.752,35.929z"/>
		</g>
	</g>
	<g>
		<g>
			<path style="&st0;" d="M61.376,40.057c5.59,0.217,10.32,3.803,13.652,8.069c0.508,0.651,1.408-0.263,0.906-0.906
				c-3.548-4.543-8.637-8.214-14.557-8.444C60.55,38.744,60.553,40.025,61.376,40.057L61.376,40.057z"/>
		</g>
	</g>
	<g>
		<g>
			<path style="&st0;" d="M73.591,49.119c-6.033,0.869-10.806,4.877-13.455,10.271c-0.363,0.738,0.742,1.388,1.106,0.646
				c2.521-5.131,6.949-8.855,12.69-9.682C74.746,50.237,74.398,49.003,73.591,49.119L73.591,49.119z"/>
		</g>
	</g>
	<g>
		<g>
			<path style="&st0;" d="M63.37,62.979c1.174-6.092,5.906-10.445,11.937-11.593c0.811-0.154,0.467-1.389-0.341-1.235
				c-6.431,1.224-11.581,5.999-12.832,12.488C61.979,63.446,63.214,63.79,63.37,62.979L63.37,62.979z"/>
		</g>
	</g>
	<g>
		<g>
			<path style="&st0;" d="M76.992,51.822c-3.572,5.513-5.408,12.704-3.161,19.07c0.273,0.773,1.511,0.44,1.235-0.341
				c-2.142-6.066-0.368-12.836,3.032-18.083C78.549,51.773,77.439,51.131,76.992,51.822L76.992,51.822z"/>
		</g>
	</g>
	<g>
		<g>
			<path style="&st0;" d="M79.313,52.489c-0.508,6.388,3.813,12.295,9.759,14.378c0.782,0.274,1.115-0.964,0.341-1.235
				c-5.441-1.906-9.28-7.34-8.818-13.143C80.659,51.665,79.378,51.671,79.313,52.489L79.313,52.489z"/>
		</g>
	</g>
	<g>
		<g>
			<path style="&st0;" d="M76.304,52.854c-2.684,5.427-4.122,12.847-1.376,18.535c0.359,0.744,1.463,0.094,1.106-0.646
				C73.506,65.506,74.95,58.475,77.41,53.5C77.775,52.762,76.67,52.113,76.304,52.854L76.304,52.854z"/>
		</g>
	</g>
	<g>
		<g>
			<path style="&st0;" d="M77.959,52.315c1.481,5.969,5.994,11.406,12.144,12.832c0.804,0.186,1.145-1.049,0.341-1.235
				c-5.734-1.329-9.871-6.381-11.249-11.937C78.996,51.173,77.76,51.513,77.959,52.315L77.959,52.315z"/>
		</g>
	</g>
	<g>
		<g>
			<path style="&st0;" d="M79.974,49.602c5.771,4.394,12.917,5.149,18.879,0.688c0.653-0.489,0.016-1.601-0.646-1.106
				c-5.632,4.214-12.151,3.45-17.586-0.688C79.963,47.995,79.326,49.108,79.974,49.602L79.974,49.602z"/>
		</g>
	</g>
	<g>
		<g>
			<path style="&st0;" d="M79.244,48.57c4.796-2.485,8.394-6.376,9.583-11.735c0.178-0.805-1.056-1.147-1.235-0.341
				c-1.122,5.06-4.473,8.627-8.994,10.97C77.864,47.844,78.512,48.949,79.244,48.57L79.244,48.57z"/>
		</g>
	</g>
	<g>
		<g>
			<path style="&st0;" d="M80.662,48.57c5.195,3.278,12.001,4.713,16.945,0.244c0.614-0.555-0.295-1.458-0.906-0.906
				c-4.51,4.077-10.731,2.497-15.392-0.444C80.608,47.021,79.965,48.13,80.662,48.57L80.662,48.57z"/>
		</g>
	</g>
	<g>
		<g>
			<path style="&st0;" d="M80.276,47.194c5.108-2.856,8.094-7.447,8.573-13.281c0.068-0.824-1.214-0.817-1.281,0
				c-0.442,5.381-3.245,9.551-7.939,12.175C78.909,46.491,79.555,47.597,80.276,47.194L80.276,47.194z"/>
		</g>
	</g>
	<g>
		<g>
			<path style="&st0;" d="M76.304,29.763c2.569,5.699,3.829,11.705,1.032,17.586c-0.353,0.742,0.751,1.392,1.106,0.646
				c3.01-6.327,1.754-12.699-1.032-18.879C77.071,28.365,75.967,29.017,76.304,29.763L76.304,29.763z"/>
		</g>
	</g>
	<g>
		<g>
			<path style="&st0;" d="M77.13,48.187c1.966-6.175,1.294-12.248-1.032-18.229c-0.296-0.761-1.535-0.43-1.235,0.341
				c2.244,5.769,2.935,11.572,1.032,17.548C75.644,48.636,76.881,48.971,77.13,48.187L77.13,48.187z"/>
		</g>
	</g>
	<g>
		<g>
			<path style="&st0;" d="M73.537,27.022c-26.703-2.065-22.405,39.195-3.815,47.595c13.284,6.003,29.996-6.849,32.404-19.858
				c3.207-17.326-15.2-29.276-30.533-27.737c-0.92,0.092-0.929,1.541,0,1.448c15.295-1.534,32.067,10.08,28.952,26.909
				c-2.382,12.865-19.791,23.735-31.924,17.073c-15.958-8.762-19.276-45.853,4.916-43.982
				C74.468,28.541,74.462,27.093,73.537,27.022L73.537,27.022z"/>
		</g>
	</g>
	<g>
		<g>
			<path style="&st0;" d="M72.426,146.275c2.897,4.909,7.024,8.652,12.295,10.86c0.506,0.212,0.724-0.611,0.226-0.82
				c-5.056-2.118-9.011-5.766-11.786-10.469C72.882,145.374,72.146,145.801,72.426,146.275L72.426,146.275z"/>
		</g>
	</g>
	<g>
		<g>
			<path style="&st0;" d="M70.663,142.045c1.227,6.583,5.094,12.151,11.204,15.047c0.493,0.234,0.925-0.5,0.429-0.734
				c-5.933-2.812-9.622-8.15-10.813-14.538C71.382,141.28,70.563,141.509,70.663,142.045L70.663,142.045z"/>
		</g>
	</g>
	<g>
		<g>
			<path style="&st0;" d="M67.911,143.421c1.989,8.024,8.813,13.472,16.923,14.417c0.544,0.063,0.538-0.788,0-0.85
				c-7.735-0.901-14.21-6.158-16.103-13.792C68.599,142.663,67.779,142.889,67.911,143.421L67.911,143.421z"/>
		</g>
	</g>
	<g>
		<g>
			<path style="&st0;" d="M73.802,144.555c3.233,5.838,8.598,10.937,15.504,11.563c0.546,0.05,0.542-0.801,0-0.85
				c-6.596-0.598-11.696-5.592-14.769-11.142C74.27,143.646,73.536,144.074,73.802,144.555L73.802,144.555z"/>
		</g>
	</g>
	<g>
		<g>
			<path style="&st0;" d="M71.631,147.115c2.983-1.363,5.638-3.202,8.256-5.16c0.434-0.324,0.01-1.063-0.429-0.734
				c-2.618,1.958-5.273,3.798-8.256,5.16C70.704,146.609,71.136,147.341,71.631,147.115L71.631,147.115z"/>
		</g>
	</g>
	<g>
		<g>
			<path style="&st0;" d="M75.76,150.211c2.453-1.431,4.61-3.232,6.622-5.227c0.39-0.386-0.212-0.988-0.601-0.601
				c-1.962,1.944-4.058,3.699-6.45,5.094C74.857,149.753,75.285,150.488,75.76,150.211L75.76,150.211z"/>
		</g>
	</g>
	<g>
		<g>
			<path style="&st0;" d="M77.824,153.995c3.175-1.801,6.096-4.047,8.342-6.947c0.331-0.428-0.266-1.034-0.601-0.601
				c-2.205,2.847-5.052,5.045-8.17,6.814C76.918,153.532,77.346,154.266,77.824,153.995L77.824,153.995z"/>
		</g>
	</g>
	<g>
		<g>
			<path style="&st0;" d="M81.264,158.124c3.927-2.371,6.894-5.752,8.108-10.23c0.144-0.53-0.677-0.755-0.82-0.226
				c-1.157,4.272-3.972,7.461-7.717,9.722C80.366,157.672,80.793,158.408,81.264,158.124L81.264,158.124z"/>
		</g>
	</g>
	<g>
		<g>
			<path style="&st0;" d="M71.975,150.899c2.34-1.03,4.449-2.406,6.278-4.195c0.393-0.384-0.209-0.985-0.601-0.601
				c-1.78,1.741-3.831,3.061-6.106,4.062C71.045,150.385,71.478,151.118,71.975,150.899L71.975,150.899z"/>
		</g>
	</g>
	<g>
		<g>
			<path style="&st0;" d="M72.105,145.453c2.852-0.381,5.591-1.078,8.127-2.466c0.481-0.263,0.052-0.998-0.429-0.734
				c-2.402,1.315-4.998,1.989-7.698,2.35C71.57,144.674,71.563,145.526,72.105,145.453L72.105,145.453z"/>
		</g>
	</g>
	<g>
		<g>
			<path style="&st0;" d="M70.084,144.727c-3.41,3.695,0.704,7.264,3.87,9.268c0.465,0.294,0.891-0.442,0.429-0.734
				c-2.611-1.652-6.67-4.712-3.698-7.932C71.057,144.926,70.457,144.324,70.084,144.727L70.084,144.727z"/>
		</g>
	</g>
	<g>
		<g>
			<path style="&st0;" d="M71.373,144.985c2.021-1.664,4.184-3.1,6.45-4.406c0.475-0.274,0.047-1.009-0.429-0.734
				c-2.329,1.342-4.546,2.829-6.622,4.539C70.348,144.732,70.954,145.33,71.373,144.985L71.373,144.985z"/>
		</g>
	</g>
	<g>
		<g>
			<path style="&st0;" d="M75.545,148.549c0.548,0,0.548-0.85,0-0.85S74.997,148.549,75.545,148.549L75.545,148.549z"/>
		</g>
	</g>
	<g>
		<g>
			<path style="&st0;" d="M79.786,151.63c2.83-1.062,5.643-2.149,8.358-3.483c0.492-0.242,0.061-0.975-0.429-0.734
				c-2.649,1.301-5.394,2.361-8.155,3.397C79.052,151.001,79.272,151.823,79.786,151.63L79.786,151.63z"/>
		</g>
	</g>
	<g>
		<g>
			<path style="&st0;" d="M85.978,156.102c5.243-1.491,9.675-4.531,12.639-9.14c0.298-0.463-0.439-0.889-0.734-0.429
				c-2.848,4.429-7.099,7.318-12.13,8.749C85.226,155.432,85.45,156.253,85.978,156.102L85.978,156.102z"/>
		</g>
	</g>
	<g>
		<g>
			<path style="&st0;" d="M89.354,137.87c2.271-0.438,4.23-1.788,5.692-3.549c0.347-0.419-0.251-1.024-0.601-0.601
				c-1.379,1.662-3.173,2.918-5.317,3.331C88.59,137.153,88.819,137.973,89.354,137.87L89.354,137.87z"/>
		</g>
	</g>
	<g>
		<g>
			<path style="&st0;" d="M93.69,135.61c0.24,0.502,0.285,0.957,0.286,1.505c0.001,0.548,0.851,0.548,0.85,0
				c-0.001-0.705-0.096-1.295-0.402-1.935C94.188,134.687,93.455,135.118,93.69,135.61L93.69,135.61z"/>
		</g>
	</g>
	<g>
		<g>
			<path style="&st0;" d="M90.961,137.541c0.548,0,0.548-0.85,0-0.85S90.413,137.541,90.961,137.541L90.961,137.541z"/>
		</g>
	</g>
	<g>
		<g>
			<path style="&st0;" d="M103.609,44.233c-0.029,3.774-0.248,7.604-0.688,11.352c-0.064,0.544,0.787,0.538,0.85,0
				c0.44-3.748,0.659-7.578,0.688-11.352C104.463,43.684,103.613,43.684,103.609,44.233L103.609,44.233z"/>
		</g>
	</g>
	<g>
		<g>
			<path style="&st0;" d="M102.592,42.97c0.971,3.83,0.976,7.669,0.673,11.583c-0.042,0.547,0.808,0.543,0.85,0
				c0.31-3.992,0.285-7.91-0.703-11.809C103.277,42.212,102.457,42.438,102.592,42.97L102.592,42.97z"/>
		</g>
	</g>
	<g>
		<g>
			<path style="&st0;" d="M54.43,45.152c-1.413,3.395-1.653,6.997-0.688,10.546c0.144,0.529,0.964,0.304,0.82-0.226
				c-0.929-3.416-0.669-6.833,0.688-10.094C55.461,44.871,54.638,44.653,54.43,45.152L54.43,45.152z"/>
		</g>
	</g>
	<g>
		<g>
			<path style="&st0;" d="M53.054,46.528c-1.284,4.226-0.995,8.314,0.731,12.368c0.214,0.503,0.947,0.069,0.734-0.429
				c-1.634-3.839-1.859-7.716-0.645-11.713C54.034,46.228,53.213,46.004,53.054,46.528L53.054,46.528z"/>
		</g>
	</g>
	<g>
		<g>
			<path style="&st0;" d="M51.678,56.042c0.424,2.242,2.017,3.718,3.98,4.726c0.487,0.25,0.917-0.484,0.429-0.734
				c-1.782-0.915-3.203-2.177-3.589-4.218C52.396,55.278,51.577,55.506,51.678,56.042L51.678,56.042z"/>
		</g>
	</g>
	<g>
		<g>
			<path style="&st0;" d="M56.26,52.79c0.277,0.313,0.408,0.716,0.688,1.032c0.364,0.411,0.963-0.192,0.601-0.601
				c-0.277-0.313-0.408-0.716-0.688-1.032C56.497,51.777,55.897,52.381,56.26,52.79L56.26,52.79z"/>
		</g>
	</g>
	<g>
		<g>
			<path style="&st0;" d="M57.936,56.01c0.548,0,0.548-0.85,0-0.85C57.388,55.16,57.388,56.01,57.936,56.01L57.936,56.01z"/>
		</g>
	</g>
	<g>
		<g>
			<path style="&st0;" d="M58.968,57.386c0.548,0,0.548-0.85,0-0.85C58.42,56.536,58.42,57.386,58.968,57.386L58.968,57.386z"/>
		</g>
	</g>
	<g>
		<g>
			<path style="&st0;" d="M61.032,61.17c0.548,0,0.548-0.85,0-0.85S60.484,61.17,61.032,61.17L61.032,61.17z"/>
		</g>
	</g>
	<g>
		<g>
			<path style="&st0;" d="M61.295,64.185c0.025,0.625,0.243,1.663,1,1.786c0.536,0.087,0.766-0.732,0.226-0.82
				c-0.314-0.051-0.366-0.728-0.376-0.966C62.123,63.639,61.273,63.637,61.295,64.185L61.295,64.185z"/>
		</g>
	</g>
	<g>
		<g>
			<path style="&st0;" d="M63.359,65.217c0.001,1.374,0.006,2.791,0.746,3.999c0.286,0.466,1.022,0.04,0.734-0.429
				c-0.659-1.075-0.629-2.35-0.63-3.57C64.209,64.669,63.359,64.669,63.359,65.217L63.359,65.217z"/>
		</g>
	</g>
	<g>
		<g>
			<path style="&st0;" d="M65.095,67.512c-0.33,1.872,0.461,3.148,1.915,4.264c0.435,0.334,0.858-0.405,0.429-0.734
				c-1.118-0.858-1.78-1.854-1.525-3.304C66.009,67.202,65.189,66.973,65.095,67.512L65.095,67.512z"/>
		</g>
	</g>
	<g>
		<g>
			<path style="&st0;" d="M67.612,70.334c0.565,0.584,0.948,1.257,1.31,1.978c0.246,0.49,0.979,0.06,0.734-0.429
				c-0.394-0.786-0.828-1.515-1.443-2.15C67.831,69.338,67.231,69.94,67.612,70.334L67.612,70.334z"/>
		</g>
	</g>
	<g>
		<g>
			<path style="&st0;" d="M60.966,63.384c-0.091,0.285-0.159,0.575-0.216,0.868c-0.024,0.122-0.045,0.245-0.067,0.367
				c-0.037,0.209-0.092,0.129,0.066-0.008c0.223,0.029,0.445,0.057,0.668,0.086c0.132,0.24,0.043,0.051,0.041-0.126
				c-0.002-0.243-0.001-0.487-0.001-0.73c0-0.548-0.85-0.548-0.85,0c0,0.357-0.109,0.95,0.076,1.285
				c0.14,0.253,0.467,0.261,0.668,0.086c0.149-0.13,0.156-0.39,0.188-0.569c0.062-0.349,0.139-0.695,0.247-1.033
				C61.954,63.086,61.133,62.864,60.966,63.384L60.966,63.384z"/>
		</g>
	</g>
	<g>
		<g>
			<path style="&st0;" d="M59.919,61.089c0,0.459,0,0.917,0,1.376c0,0.548,0.85,0.548,0.85,0c0-0.459,0-0.917,0-1.376
				C60.77,60.541,59.919,60.541,59.919,61.089L59.919,61.089z"/>
		</g>
	</g>
	<g>
		<g>
			<path style="&st0;" d="M58.945,57.778c-0.338,0.737-0.401,1.477-0.402,2.279c-0.001,0.548,0.85,0.548,0.85,0
				c0.001-0.637,0.015-1.26,0.286-1.849C59.907,57.713,59.174,57.281,58.945,57.778L58.945,57.778z"/>
		</g>
	</g>
	<g>
		<g>
			<path style="&st0;" d="M58.257,55.026c-0.423,0.887-0.61,1.867-1.032,2.752c-0.235,0.492,0.498,0.924,0.734,0.429
				c0.423-0.887,0.61-1.867,1.032-2.752C59.226,54.963,58.493,54.532,58.257,55.026L58.257,55.026z"/>
		</g>
	</g>
	<g>
		<g>
			<path style="&st0;" d="M56.881,52.274c-0.353,0.769-0.338,1.645-0.688,2.408c-0.227,0.495,0.506,0.927,0.734,0.429
				c0.353-0.769,0.338-1.645,0.688-2.408C57.842,52.209,57.11,51.776,56.881,52.274L56.881,52.274z"/>
		</g>
	</g>
	<g>
		<g>
			<path style="&st0;" d="M57.225,48.49c-0.423,0.887-0.61,1.867-1.032,2.752c-0.235,0.492,0.498,0.924,0.734,0.429
				c0.423-0.887,0.61-1.867,1.032-2.752C58.194,48.427,57.461,47.995,57.225,48.49L57.225,48.49z"/>
		</g>
	</g>
	<g>
		<g>
			<path style="&st0;" d="M56.56,48.442c0.819-0.001,1.424-0.189,1.457-1.113c0.02-0.549-0.831-0.547-0.85,0
				c-0.013,0.36-0.268,0.262-0.607,0.263C56.012,47.592,56.012,48.443,56.56,48.442L56.56,48.442z"/>
		</g>
	</g>
	<g>
		<g>
			<path style="&st0;" d="M56.861,45.565c0.392-0.391,0.796-0.708,1.29-0.966c0.486-0.254,0.056-0.987-0.429-0.734
				c-0.555,0.289-1.021,0.658-1.462,1.099C55.871,45.352,56.472,45.953,56.861,45.565L56.861,45.565z"/>
		</g>
	</g>
	<g>
		<g>
			<path style="&st0;" d="M56.517,42.556c0.014,0.032,0.027,0.063,0.041,0.095c-0.099,0.174-0.198,0.349-0.297,0.523
				c-0.209,0.051-0.235-0.023-0.041,0.073c0.115,0.057,0.231,0.115,0.347,0.169c0.222,0.104,0.437,0.187,0.681,0.21
				c0.546,0.05,0.541-0.801,0-0.85c-0.421-0.039-0.768-0.53-1.213-0.421c-0.241,0.059-0.336,0.3-0.297,0.523
				c0.02,0.111,0.103,0.201,0.178,0.28C56.292,43.558,56.892,42.955,56.517,42.556L56.517,42.556z"/>
		</g>
	</g>
	<g>
		<g>
			<path style="&st0;" d="M57.569,38.858c-1.037,1.464-1.416,3.187-1.763,4.918c-0.107,0.535,0.712,0.764,0.82,0.226
				c0.333-1.661,0.68-3.308,1.677-4.715C58.621,38.838,57.883,38.414,57.569,38.858L57.569,38.858z"/>
		</g>
	</g>
	<g>
		<g>
			<path style="&st0;" d="M57.182,42.744c-0.344,1.376-0.688,2.752-1.032,4.128c-0.133,0.532,0.687,0.758,0.82,0.226
				c0.344-1.376,0.688-2.752,1.032-4.128C58.135,42.437,57.315,42.212,57.182,42.744L57.182,42.744z"/>
		</g>
	</g>
	<g>
		<g>
			<path style="&st0;" d="M69.633,73.211c1.584,0.022,3.166,0.3,4.703,0.673c0.533,0.129,0.759-0.691,0.226-0.82
				c-1.607-0.39-3.273-0.68-4.929-0.703C69.084,72.353,69.085,73.203,69.633,73.211L69.633,73.211z"/>
		</g>
	</g>
	<g>
		<g>
			<path style="&st0;" d="M74.578,73.497c1.17,0.734,2.627,1.067,3.999,1.09c0.549,0.009,0.548-0.841,0-0.85
				c-1.225-0.021-2.525-0.318-3.57-0.974C74.542,72.47,74.115,73.206,74.578,73.497L74.578,73.497z"/>
		</g>
	</g>
	<g>
		<g>
			<path style="&st0;" d="M78.706,73.153c0.849,0.389,1.644,0.389,2.493,0c0.498-0.228,0.066-0.961-0.429-0.734
				c-0.549,0.252-1.086,0.252-1.635,0C78.641,72.192,78.208,72.924,78.706,73.153L78.706,73.153z"/>
		</g>
	</g>
	<g>
		<g>
			<path style="&st0;" d="M80.641,71.491c0.548,0,0.548-0.85,0-0.85S80.093,71.491,80.641,71.491L80.641,71.491z"/>
		</g>
	</g>
	<g>
		<g>
			<path style="&st0;" d="M58.887,37.696c0,0.367,0,0.734,0,1.101c0,0.548,0.85,0.548,0.85,0c0-0.023,0-0.046,0-0.069
				c0-0.548-0.85-0.548-0.85,0c0,0.023,0,0.046,0,0.069c0,0.548,0.85,0.548,0.85,0c0-0.367,0-0.734,0-1.101
				C59.737,37.148,58.887,37.148,58.887,37.696L58.887,37.696z"/>
		</g>
	</g>
	<g>
		<g>
			<path style="&st0;" d="M59.575,34.944c0.012,0.283,0.054,0.55,0.145,0.819c0.061,0.18,0.184,0.365,0.199,0.557
				c0.043,0.543,0.893,0.547,0.85,0c-0.038-0.483-0.324-0.885-0.344-1.376C60.403,34.398,59.553,34.396,59.575,34.944L59.575,34.944
				z"/>
		</g>
	</g>
	<g>
		<g>
			<path style="&st0;" d="M61.376,35.025c0.548,0,0.548-0.85,0-0.85C60.828,34.175,60.828,35.025,61.376,35.025L61.376,35.025z"/>
		</g>
	</g>
	<g>
		<g>
			<path style="&st0;" d="M45.919,50.639c0.688-1.032,1.376-2.064,2.064-3.096c0.305-0.458-0.432-0.883-0.734-0.429
				c-0.688,1.032-1.376,2.064-2.064,3.096C44.88,50.668,45.616,51.093,45.919,50.639L45.919,50.639z"/>
		</g>
	</g>
	<g>
		<g>
			<path style="&st0;" d="M45.231,49.263c0.747-1.18,1.083-2.545,1.419-3.886c0.133-0.532-0.687-0.758-0.82-0.226
				c-0.318,1.271-0.625,2.564-1.333,3.683C44.202,49.299,44.938,49.725,45.231,49.263L45.231,49.263z"/>
		</g>
	</g>
	<g>
		<g>
			<path style="&st0;" d="M45.231,46.167c0.451-0.933,0.723-1.927,0.746-2.967c0.012-0.549-0.838-0.548-0.85,0
				c-0.019,0.885-0.245,1.742-0.63,2.537C44.259,46.229,44.992,46.661,45.231,46.167L45.231,46.167z"/>
		</g>
	</g>
	<g>
		<g>
			<path style="&st0;" d="M44.176,44.658c0.548,0,0.548-0.85,0-0.85C43.627,43.807,43.627,44.658,44.176,44.658L44.176,44.658z"/>
		</g>
	</g>
	<g>
		<g>
			<path style="&st0;" d="M44.601,41.48c0.041-0.358,0.301-0.659,0.344-1.032c0.062-0.544-0.789-0.538-0.85,0
				c-0.041,0.358-0.301,0.659-0.344,1.032C43.688,42.025,44.539,42.019,44.601,41.48L44.601,41.48z"/>
		</g>
	</g>
	<g>
		<g>
			<path style="&st0;" d="M44.52,46.722c0.548,0,0.548-0.85,0-0.85C43.971,45.871,43.971,46.722,44.52,46.722L44.52,46.722z"/>
		</g>
	</g>
	<g>
		<g>
			<path style="&st0;" d="M47.272,53.946c0.229,0,0.459,0,0.688,0c0.548,0,0.548-0.85,0-0.85c-0.229,0-0.459,0-0.688,0
				C46.723,53.096,46.723,53.946,47.272,53.946L47.272,53.946z"/>
		</g>
	</g>
	<g>
		<g>
			<path style="&st0;" d="M46.928,51.882c0.548,0,0.548-0.85,0-0.85C46.379,51.032,46.379,51.882,46.928,51.882L46.928,51.882z"/>
		</g>
	</g>
	<g>
		<g>
			<path style="&st0;" d="M47.616,51.882c0.548,0,0.548-0.85,0-0.85C47.068,51.032,47.068,51.882,47.616,51.882L47.616,51.882z"/>
		</g>
	</g>
	<g>
		<g>
			<path style="&st0;" d="M48.992,53.946c0.548,0,0.548-0.85,0-0.85S48.444,53.946,48.992,53.946L48.992,53.946z"/>
		</g>
	</g>
	<g>
		<g>
			<path style="&st0;" d="M109.561,49.178c-0.433-0.601-1.057-0.572-1.409,0.09c-0.396,0.742-0.488,1.627-0.744,2.42
				c-0.169,0.523,0.652,0.746,0.82,0.226c0.155-0.48,0.263-0.974,0.397-1.46c0.063-0.229,0.129-0.462,0.224-0.68
				c0.033-0.076,0.072-0.165,0.126-0.229c-0.129,0.154-0.27-0.106-0.148,0.062C109.144,50.048,109.882,49.624,109.561,49.178
				L109.561,49.178z"/>
		</g>
	</g>
	<g>
		<g>
			<path style="&st0;" d="M111.235,48.146c-0.946,1.289-1.695,2.679-2.107,4.23c-0.141,0.531,0.679,0.756,0.82,0.226
				c0.394-1.483,1.117-2.796,2.021-4.027C112.294,48.133,111.556,47.709,111.235,48.146L111.235,48.146z"/>
		</g>
	</g>
	<g>
		<g>
			<path style="&st0;" d="M113.299,47.114c-0.688,1.376-1.376,2.752-2.064,4.128c-0.244,0.489,0.489,0.92,0.734,0.429
				c0.688-1.376,1.376-2.752,2.064-4.128C114.278,47.054,113.544,46.624,113.299,47.114L113.299,47.114z"/>
		</g>
	</g>
	<g>
		<g>
			<path style="&st0;" d="M110.914,50.162c0.813,0.022,1.593,0.322,2.408,0.344c0.549,0.015,0.547-0.835,0-0.85
				c-0.813-0.022-1.593-0.322-2.408-0.344C110.365,49.296,110.367,50.147,110.914,50.162L110.914,50.162z"/>
		</g>
	</g>
	<g>
		<g>
			<path style="&st0;" d="M114.828,49.072c1.02,0.483,2.185,0.726,3.311,0.746c0.549,0.01,0.548-0.841,0-0.85
				c-0.967-0.017-2.003-0.213-2.882-0.63C114.764,48.104,114.332,48.837,114.828,49.072L114.828,49.072z"/>
		</g>
	</g>
	<g>
		<g>
			<path style="&st0;" d="M116.418,46.722c0.548,0,0.548-0.85,0-0.85S115.87,46.722,116.418,46.722L116.418,46.722z"/>
		</g>
	</g>
	<g>
		<g>
			<path style="&st0;" d="M117.794,44.314c0.548,0,0.548-0.85,0-0.85S117.246,44.314,117.794,44.314L117.794,44.314z"/>
		</g>
	</g>
	<g>
		<g>
			<path style="&st0;" d="M118.87,39.804c-0.852,0.873-1.551,1.881-2.408,2.752c-0.385,0.391,0.216,0.993,0.601,0.601
				c0.857-0.871,1.556-1.879,2.408-2.752C119.854,40.013,119.253,39.411,118.87,39.804L118.87,39.804z"/>
		</g>
	</g>
	<g>
		<g>
			<path style="&st0;" d="M115.73,45.346c1.261,0,2.523,0,3.784,0c0.548,0,0.548-0.85,0-0.85c-1.261,0-2.523,0-3.784,0
				C115.182,44.495,115.182,45.346,115.73,45.346L115.73,45.346z"/>
		</g>
	</g>
	<g>
		<g>
			<path style="&st0;" d="M115.386,48.442c1.537-0.044,3.056-0.609,4.343-1.434c0.46-0.295,0.034-1.031-0.429-0.734
				c-1.161,0.745-2.523,1.278-3.914,1.318C114.839,47.607,114.838,48.458,115.386,48.442L115.386,48.442z"/>
		</g>
	</g>
	<g>
		<g>
			<path style="&st0;" d="M118.115,43.071c0.222,0.482,0.285,0.981,0.286,1.505c0.001,0.548,0.852,0.548,0.85,0
				c-0.001-0.682-0.116-1.312-0.402-1.935C118.62,42.144,117.888,42.577,118.115,43.071L118.115,43.071z"/>
		</g>
	</g>
	<g>
		<g>
			<path style="&st0;" d="M119.104,39.529c0.233,0.775,0.048,1.381-0.301,2.08c-0.244,0.489,0.49,0.92,0.734,0.429
				c0.45-0.902,0.687-1.739,0.387-2.736C119.767,38.78,118.946,39.003,119.104,39.529L119.104,39.529z"/>
		</g>
	</g>
	<g>
		<g>
			<path style="&st0;" d="M68.714,17.81c1.483-0.281,3.001-0.344,4.472-0.688c0.534-0.125,0.307-0.945-0.226-0.82
				c-1.47,0.344-2.989,0.407-4.472,0.688C67.949,17.092,68.178,17.911,68.714,17.81L68.714,17.81z"/>
		</g>
	</g>
	<g>
		<g>
			<path style="&st0;" d="M68.257,18.857c2.243-0.001,4.489-0.037,6.649-0.703c0.522-0.161,0.299-0.982-0.226-0.82
				c-2.09,0.644-4.255,0.672-6.423,0.673C67.708,18.007,67.708,18.857,68.257,18.857L68.257,18.857z"/>
		</g>
	</g>
	<g>
		<g>
			<path style="&st0;" d="M68.601,19.545c2.114-0.001,4.212-0.037,6.305-0.359c0.541-0.083,0.31-0.903-0.226-0.82
				c-2.015,0.311-4.045,0.328-6.079,0.329C68.052,18.695,68.052,19.545,68.601,19.545L68.601,19.545z"/>
		</g>
	</g>
	<g>
		<g>
			<path style="&st0;" d="M111.833,16.09c2.118,0.307,4.054-0.032,6.074-0.688c0.519-0.169,0.297-0.99-0.226-0.82
				c-1.853,0.602-3.672,0.97-5.622,0.688C111.523,15.192,111.292,16.011,111.833,16.09L111.833,16.09z"/>
		</g>
	</g>
	<g>
		<g>
			<path style="&st0;" d="M112.978,14.729c1.113-0.026,2.161-0.354,3.209-0.703c0.518-0.172,0.296-0.994-0.226-0.82
				c-0.974,0.324-1.948,0.649-2.983,0.673C112.431,13.891,112.429,14.742,112.978,14.729L112.978,14.729z"/>
		</g>
	</g>
	<g>
		<g>
			<path style="&st0;" d="M114.01,13.353c0.548,0,0.548-0.85,0-0.85S113.462,13.353,114.01,13.353L114.01,13.353z"/>
		</g>
	</g>
</g>
</svg>
