<?xml version="1.0" encoding="utf-8"?>
<!-- Generator: Adobe Illustrator 17.0.0, SVG Export Plug-In . SVG Version: 6.00 Build 0)  -->
<!DOCTYPE svg PUBLIC "-//W3C//DTD SVG 1.1//EN" "http://www.w3.org/Graphics/SVG/1.1/DTD/svg11.dtd" [
	<!ENTITY st0 "fill:#3D3D3D;">
]>
<svg version="1.1" id="Calque_1" xmlns="http://www.w3.org/2000/svg" xmlns:xlink="http://www.w3.org/1999/xlink" x="0px" y="0px"
	 width="166px" height="167px" viewBox="0 0 166 167" style="enable-background:new 0 0 166 167;" xml:space="preserve">
<g>
	<g>
		<g>
			<path style="&st0;" d="M32.401,61.142c-0.021,15.089-0.422,30.183,1.678,45.169c0.19,1.353,2.238,0.775,2.05-0.565
				c-2.072-14.787-1.623-29.717-1.602-44.604C34.529,59.771,32.403,59.771,32.401,61.142L32.401,61.142z"/>
		</g>
	</g>
	<g>
		<g>
			<path style="&st0;" d="M33.464,63.262c21.443-2.096,43.007-1.599,64.521-1.584c1.371,0.001,1.371-2.125,0-2.126
				c-21.514-0.015-43.078-0.512-64.521,1.584C32.112,61.268,32.099,63.395,33.464,63.262L33.464,63.262z"/>
		</g>
	</g>
	<g>
		<g>
			<path style="&st0;" d="M95.828,61.142c1.672,19.664,2.699,39.407,2.734,59.145c0.002,1.371,2.128,1.371,2.126,0
				c-0.035-19.738-1.062-39.481-2.734-59.145C97.839,59.787,95.712,59.776,95.828,61.142L95.828,61.142z"/>
		</g>
	</g>
	<g>
		<g>
			<path style="&st0;" d="M100.172,120.281c-20.605,2.251-42.715,4.732-63.144,0.038c-1.334-0.307-1.901,1.743-0.565,2.05
				c20.646,4.744,42.888,2.313,63.71,0.038C101.519,122.259,101.534,120.132,100.172,120.281L100.172,120.281z"/>
		</g>
	</g>
	<g>
		<g>
			<path style="&st0;" d="M32.401,104.973c-0.473,5.282,0.091,10.417,1.132,15.597c0.27,1.344,2.319,0.773,2.05-0.565
				c-1.004-5-1.511-9.94-1.056-15.032C34.649,103.607,32.522,103.619,32.401,104.973L32.401,104.973z"/>
		</g>
	</g>
	<g>
		<g>
			<path style="&st0;" d="M59.974,71.207C47.808,73.463,40.699,84.036,42.41,96.156c1.849,13.093,14.637,20.365,27.089,18.682
				c12.167-1.645,22.841-9.483,19.768-22.9c-3.066-13.383-17.372-20.876-30.104-21.297c-1.372-0.045-1.367,2.081,0,2.126
				c11.477,0.38,22.951,6.361,27.338,17.441c4.633,11.703-4.199,20.029-15.092,22.207c-12.155,2.431-24.096-3.468-26.804-16.015
				c-2.418-11.199,4.993-21.115,15.934-23.143C61.886,73.007,61.314,70.959,59.974,71.207L59.974,71.207z"/>
		</g>
	</g>
	<g>
		<g>
			<path style="&st0;" d="M86.502,66.944c-0.182,0-0.365,0-0.547,0c-1.371,0-1.371,2.126,0,2.126c0.182,0,0.365,0,0.547,0
				C87.873,69.07,87.873,66.944,86.502,66.944L86.502,66.944z"/>
		</g>
	</g>
	<g>
		<g>
			<path style="&st0;" d="M86.502,69.599c1.371,0,1.371-2.126,0-2.126S85.131,69.599,86.502,69.599L86.502,69.599z"/>
		</g>
	</g>
	<g>
		<g>
			<path style="&st0;" d="M87.42,69.072c0.025-0.045,0.197-0.298,0.016-0.067c0.025-0.03,0.053-0.059,0.082-0.085
				c-0.161,0.16-0.362,0.241-0.603,0.243c-0.179-0.048-0.358-0.097-0.537-0.145c0.005,0.003,0.011,0.006,0.016,0.009
				c-0.127-0.127-0.254-0.254-0.381-0.381c-0.166-0.315-0.177-0.611-0.033-0.887c-0.097,0.187,0.174-0.189-0.015,0.013
				c-0.149,0.16-0.284,0.234-0.508,0.37c-0.279,0.168-0.578,0.305-0.879,0.425c-0.212,0.085-0.345,0.158-0.513,0.314
				c0.179-0.166,0.458-0.319,0.845-0.179c0.156,0.091,0.313,0.182,0.469,0.273c0.283,0.275,0.292,0.712,0.264,0.849
				c0.01-0.049,0.027-0.097,0.042-0.145c0.103-0.323-0.049,0.079,0.075-0.193c0.145-0.319,0.317-0.627,0.498-0.927
				c0.09-0.149,0.187-0.293,0.287-0.436c0.158-0.224-0.139,0.167,0.023-0.031c0.043-0.053,0.089-0.102,0.136-0.151
				c0.057-0.06,0.224-0.178-0.048,0.021c0.088-0.065-0.312,0.072-0.359,0.076c-0.263-0.148-0.526-0.297-0.789-0.445
				c-0.071-0.192-0.09-0.232-0.059-0.121c-0.077-0.295-0.015-0.095-0.013,0.006c0.009,0.477,0.318,0.894,0.78,1.025
				c0.314,0.089,0.624,0.185,0.93,0.303c0.044,0.017,0.157,0.091,0.203,0.118c-0.112-0.067-0.161-0.196-0.202-0.313
				c-0.054-0.198-0.036-0.383,0.052-0.555c0.121-0.224,0.054-0.073-0.022,0.001c-0.023,0.022-0.244,0.19-0.066,0.058
				c-0.082,0.061-0.167,0.119-0.251,0.177c-0.817,0.567-1.56,1.116-1.933,2.071c-0.211,0.54,0.228,1.166,0.742,1.308
				c0.603,0.166,1.097-0.203,1.308-0.742c-0.077,0.198,0.07-0.089,0.081-0.107c-0.086,0.13,0.162-0.154,0.196-0.186
				c0.168-0.158,0.255-0.213,0.5-0.384c0.45-0.314,0.929-0.609,1.244-1.069c1.065-1.551-1.111-2.415-2.217-2.73
				c0.26,0.342,0.52,0.683,0.78,1.025c-0.019-1.029-0.834-1.956-1.904-1.396c-0.596,0.312-1,1-1.33,1.559
				c-0.296,0.5-0.666,1.113-0.75,1.694c-0.188,1.29,1.116,1.86,2.033,1.007c-0.156,0.091-0.313,0.182-0.469,0.273
				c1.028-0.411,2.799-1.099,2.866-2.441c0.038-0.758-0.701-1.251-1.398-1.102c-0.467,0.1-0.811,0.531-1.027,0.926
				C84.925,69.202,86.761,70.274,87.42,69.072L87.42,69.072z"/>
		</g>
	</g>
	<g>
		<g>
			<path style="&st0;" d="M88.658,69.064c-0.478-8.007,1.908-22.05,10.82-24.538c9.528-2.66,10.491,14.345,12.791,20.068
				c0.351,0.874,1.821,1.143,2.05,0c1.375-6.865,3.203-16.638,11.287-18.268c-0.449-0.342-0.897-0.683-1.346-1.025
				c0.676,17.632-13.816,34.57-4.229,51.76c0.489,0.877,1.623,0.548,1.943-0.254c2.433-6.097,5.896-11.86,9.735-17.173
				c0.805-1.113-1.041-2.173-1.836-1.073c-3.957,5.475-7.443,11.4-9.949,17.681c0.648-0.085,1.295-0.169,1.943-0.254
				c-9.194-16.486,5.173-33.639,4.519-50.687c-0.028-0.724-0.654-1.164-1.346-1.025c-8.92,1.799-11.242,12.116-12.772,19.753
				c0.683,0,1.367,0,2.05,0c-2.876-7.156-3.121-22.733-14.083-21.786c-11.177,0.966-14.233,17.963-13.704,26.821
				C86.614,70.426,88.74,70.434,88.658,69.064L88.658,69.064z"/>
		</g>
	</g>
	<g>
		<g>
			<path style="&st0;" d="M131.954,71.949c-0.927,2.953-1.092,6.512-0.547,9.543c0.242,1.348,2.291,0.775,2.05-0.565
				c-0.477-2.655-0.262-5.837,0.547-8.412C134.416,71.203,132.363,70.646,131.954,71.949L131.954,71.949z"/>
		</g>
	</g>
	<g>
		<g>
			<path style="&st0;" d="M132.968,72.094c5.666-2.541,11.951-2.973,18.054-3.551c-0.342-0.26-0.683-0.52-1.025-0.78
				c0.416,1.55,2.55,12.728,0.297,13.126c-5.481,0.969-11.687,0.858-17.033-0.703c-1.319-0.385-1.878,1.666-0.565,2.05
				c6.139,1.793,12.906,1.632,19.156,0.528c0.358-0.063,0.647-0.411,0.742-0.742c1.334-4.652,0.692-10.208-0.547-14.823
				c-0.114-0.424-0.563-0.824-1.025-0.78c-6.504,0.617-13.094,1.136-19.127,3.842C130.646,70.818,131.728,72.65,132.968,72.094
				L132.968,72.094z"/>
		</g>
	</g>
	<g>
		<g>
			<path style="&st0;" d="M154.479,62.19c-4.937,6.582-4.362,15.509-3.426,23.244c0.07,0.575,0.431,1.063,1.063,1.063
				c1.276,0,2.552,0,3.827,0c0.608,0,1.026-0.485,1.063-1.063c0.497-7.74,0.546-15.483,0.547-23.236c0-1.371-2.126-1.371-2.126,0
				c-0.001,7.753-0.05,15.496-0.547,23.236c0.354-0.354,0.709-0.709,1.063-1.063c-1.276,0-2.552,0-3.827,0
				c0.354,0.354,0.709,0.709,1.063,1.063c-0.894-7.388-1.584-15.879,3.136-22.171C157.138,62.165,155.291,61.108,154.479,62.19
				L154.479,62.19z"/>
		</g>
	</g>
	<g>
		<g>
			<path style="&st0;" d="M33.494,104.445c0.001,4.764,0.042,9.516,0.547,14.258c0.144,1.349,2.271,1.363,2.126,0
				c-0.505-4.742-0.546-9.494-0.547-14.258C35.62,103.074,33.494,103.074,33.494,104.445L33.494,104.445z"/>
		</g>
	</g>
	<g>
		<g>
			<path style="&st0;" d="M39.41,67.197c-0.811-4.728-2.481-10.112-7.05-12.449c-3.188-1.631-7.961,0.468-9.781,3.3
				c-5.939,9.24,0.32,21.366-2.169,31.328c0.436-0.247,0.872-0.495,1.308-0.742c-2.45-0.854-5.085-1.337-7.401-2.533
				c-0.599-0.309-1.382-0.057-1.562,0.635c-1.412,5.433-0.479,9.994,1.748,15.077c0.549,1.253,2.38,0.17,1.836-1.073
				c-1.977-4.515-2.804-8.549-1.533-13.439c-0.521,0.212-1.041,0.424-1.562,0.635c2.493,1.288,5.27,1.828,7.909,2.748
				c0.538,0.188,1.174-0.208,1.308-0.742c1.645-6.581-0.098-13.949-0.166-20.638c-0.039-3.814,0.087-9.003,3.505-11.467
				c7.187-5.18,10.633,4.514,11.561,9.926C37.591,69.111,39.64,68.537,39.41,67.197L39.41,67.197z"/>
		</g>
	</g>
	<g>
		<g>
			<path style="&st0;" d="M11.562,110.782c0.388-3.138,1.679-9.804,5.832-10.156c4.406-0.373,4.212,8.211,4.071,10.684
				c0.354-0.354,0.709-0.709,1.063-1.063c-3.901-0.442-7.882,0.633-11.747,0.038c-1.341-0.206-1.917,1.842-0.565,2.05
				c4.074,0.627,8.213-0.426,12.312,0.038c0.6,0.068,1.033-0.536,1.063-1.063c0.245-4.295-0.115-12.31-5.908-12.81
				c-5.726-0.494-7.753,8.289-8.247,12.282C9.268,112.14,11.396,112.124,11.562,110.782L11.562,110.782z"/>
		</g>
	</g>
	<g>
		<g>
			<path style="&st0;" d="M12.717,111.838c0.001,1.706,0.059,3.398,0.585,5.035c0.417,1.3,2.47,0.744,2.05-0.565
				c-0.471-1.466-0.508-2.944-0.509-4.47C14.842,110.467,12.716,110.467,12.717,111.838L12.717,111.838z"/>
		</g>
	</g>
	<g>
		<g>
			<path style="&st0;" d="M18.731,111.838c0.001,1.706,0.059,3.398,0.585,5.035c0.417,1.3,2.47,0.744,2.05-0.565
				c-0.471-1.466-0.508-2.944-0.509-4.47C20.856,110.467,18.73,110.467,18.731,111.838L18.731,111.838z"/>
		</g>
	</g>
	<g>
		<g>
			<path style="&st0;" d="M135.418,74.966c0.809,1.58,1.867,3.072,3.107,4.343c0.384,0.393,0.984-0.209,0.601-0.601
				c-1.193-1.222-2.196-2.651-2.974-4.171C135.902,74.049,135.168,74.479,135.418,74.966L135.418,74.966z"/>
		</g>
	</g>
	<g>
		<g>
			<path style="&st0;" d="M136.026,73.142c1.825,2.433,3.649,4.865,5.474,7.298c0.325,0.433,1.064,0.01,0.734-0.429
				c-1.825-2.433-3.649-4.865-5.474-7.298C136.435,72.279,135.696,72.702,136.026,73.142L136.026,73.142z"/>
		</g>
	</g>
	<g>
		<g>
			<path style="&st0;" d="M139.675,73.75c1.206,2.411,2.436,4.818,4.324,6.776c0.381,0.395,0.982-0.207,0.601-0.601
				c-1.837-1.905-3.018-4.26-4.191-6.604C140.164,72.83,139.43,73.261,139.675,73.75L139.675,73.75z"/>
		</g>
	</g>
	<g>
		<g>
			<path style="&st0;" d="M135.544,78.615c1.204-2.316,2.97-4.166,4.799-5.996c0.388-0.388-0.213-0.99-0.601-0.601
				c-1.88,1.881-3.696,3.789-4.932,6.168C134.557,78.672,135.291,79.102,135.544,78.615L135.544,78.615z"/>
		</g>
	</g>
	<g>
		<g>
			<path style="&st0;" d="M139.126,78.701c1.5-1.499,3.022-2.991,4.779-4.191c0.45-0.307,0.025-1.045-0.429-0.734
				c-1.818,1.242-3.399,2.772-4.952,4.324C138.137,78.488,138.738,79.089,139.126,78.701L139.126,78.701z"/>
		</g>
	</g>
	<g>
		<g>
			<path style="&st0;" d="M143.297,79.376c1.054-0.543,1.986-1.282,3.041-1.825c0.488-0.251,0.057-0.985-0.429-0.734
				c-1.054,0.543-1.986,1.282-3.041,1.825C142.38,78.893,142.811,79.626,143.297,79.376L143.297,79.376z"/>
		</g>
	</g>
	<g>
		<g>
			<path style="&st0;" d="M147.34,78.218c0.548,0,0.548-0.85,0-0.85C146.792,77.367,146.792,78.218,147.34,78.218L147.34,78.218z"/>
		</g>
	</g>
	<g>
		<g>
			<path style="&st0;" d="M155.64,69.519c-1.124,0.788-1.433,2.56-1.74,3.791c-0.608,2.443-0.872,5.011-0.903,7.524
				c-0.007,0.549,0.844,0.548,0.85,0c0.026-2.066,0.25-4.106,0.625-6.138c0.221-1.2,0.503-3.675,1.598-4.442
				C156.515,69.941,156.09,69.203,155.64,69.519L155.64,69.519z"/>
		</g>
	</g>
	<g>
		<g>
			<path style="&st0;" d="M154.228,73.04c0.554,3.593,0.592,7.207,0.593,10.834c0,0.548,0.851,0.548,0.85,0
				c-0.001-3.706-0.058-7.39-0.623-11.06C154.965,72.273,154.146,72.504,154.228,73.04L154.228,73.04z"/>
		</g>
	</g>
	<g>
		<g>
			<path style="&st0;" d="M34.401,103.944c0.001,5.486,0.047,10.959,0.608,16.421c0.056,0.54,0.906,0.545,0.85,0
				c-0.561-5.462-0.607-10.935-0.608-16.421C35.251,103.396,34.401,103.396,34.401,103.944L34.401,103.944z"/>
		</g>
	</g>
	<g>
		<g>
			<path style="&st0;" d="M36.849,100.79c-0.944,4.854-1.177,9.948,1.622,14.248c2.5,3.839,7.289,5.198,11.559,5.752
				c0.543,0.07,0.536-0.781,0-0.85c-4.459-0.579-8.682-2.04-11.237-5.964c-2.442-3.75-1.931-8.817-1.125-12.96
				C37.773,100.481,36.954,100.252,36.849,100.79L36.849,100.79z"/>
		</g>
	</g>
	<g>
		<g>
			<path style="&st0;" d="M36.453,117.438c1.327-3.861,3.194-7.438,5.431-10.846c0.302-0.46-0.435-0.886-0.734-0.429
				c-2.276,3.469-4.167,7.122-5.517,11.049C35.454,117.731,36.275,117.953,36.453,117.438L36.453,117.438z"/>
		</g>
	</g>
	<g>
		<g>
			<path style="&st0;" d="M36.043,108.019c0.548,0,0.548-0.85,0-0.85C35.494,107.168,35.494,108.019,36.043,108.019L36.043,108.019z
				"/>
		</g>
	</g>
	<g>
		<g>
			<path style="&st0;" d="M36.651,100.721c0.548,0,0.548-0.85,0-0.85C36.102,99.87,36.102,100.721,36.651,100.721L36.651,100.721z"
				/>
		</g>
	</g>
	<g>
		<g>
			<path style="&st0;" d="M40.667,114.498c1.985-2.599,4.316-4.904,6.624-7.212c0.388-0.388-0.213-0.989-0.601-0.601
				c-2.361,2.362-4.726,4.725-6.757,7.384C39.6,114.505,40.339,114.928,40.667,114.498L40.667,114.498z"/>
		</g>
	</g>
	<g>
		<g>
			<path style="&st0;" d="M40.908,115.925c0.548,0,0.548-0.85,0-0.85S40.36,115.925,40.908,115.925L40.908,115.925z"/>
		</g>
	</g>
	<g>
		<g>
			<path style="&st0;" d="M45.165,110.451c0.548,0,0.548-0.85,0-0.85C44.617,109.601,44.617,110.451,45.165,110.451L45.165,110.451z
				"/>
		</g>
	</g>
	<g>
		<g>
			<path style="&st0;" d="M48.447,99.294c0.704,1.346,1.847,2.49,3.193,3.193c0.485,0.254,0.915-0.48,0.429-0.734
				c-1.228-0.642-2.247-1.661-2.888-2.888C48.928,98.378,48.194,98.808,48.447,99.294L48.447,99.294z"/>
		</g>
	</g>
	<g>
		<g>
			<path style="&st0;" d="M15.859,102.926c-0.627,0.114-0.722,1.028-0.784,1.523c-0.131,1.042-0.136,2.095-0.136,3.144
				c0,0.548,0.85,0.548,0.85,0c0-0.499-0.099-3.776,0.296-3.847C16.625,103.648,16.396,102.829,15.859,102.926L15.859,102.926z"/>
		</g>
	</g>
	<g>
		<g>
			<path style="&st0;" d="M12.932,104.37c0.548,0,0.548-0.85,0-0.85C12.383,103.519,12.383,104.37,12.932,104.37L12.932,104.37z"/>
		</g>
	</g>
	<g>
		<g>
			<path style="&st0;" d="M14.756,103.153c0.548,0,0.548-0.85,0-0.85C14.208,102.303,14.208,103.153,14.756,103.153L14.756,103.153z
				"/>
		</g>
	</g>
	<g>
		<g>
			<path style="&st0;" d="M17.189,102.545c0.548,0,0.548-0.85,0-0.85C16.64,101.695,16.64,102.545,17.189,102.545L17.189,102.545z"
				/>
		</g>
	</g>
	<g>
		<g>
			<path style="&st0;" d="M17.797,101.937c0.548,0,0.548-0.85,0-0.85S17.249,101.937,17.797,101.937L17.797,101.937z"/>
		</g>
	</g>
	<g>
		<g>
			<path style="&st0;" d="M17.189,103.761c0.548,0,0.548-0.85,0-0.85C16.64,102.911,16.64,103.761,17.189,103.761L17.189,103.761z"
				/>
		</g>
	</g>
	<g>
		<g>
			<path style="&st0;" d="M15.973,107.411c1.051,0.031,1.983,0.577,3.041,0.608c0.549,0.016,0.547-0.834,0-0.85
				c-1.051-0.031-1.983-0.577-3.041-0.608C15.424,106.544,15.425,107.395,15.973,107.411L15.973,107.411z"/>
		</g>
	</g>
	<g>
		<g>
			<path style="&st0;" d="M15.15,107.352c1.593,0.771,3.291,1.309,4.967,1.867c0.522,0.174,0.744-0.647,0.226-0.82
				c-1.605-0.535-3.238-1.043-4.764-1.782C15.088,106.38,14.656,107.114,15.15,107.352L15.15,107.352z"/>
		</g>
	</g>
	<g>
		<g>
			<path style="&st0;" d="M17.582,103.703c1.005,0.503,2.129,0.977,2.955,1.758c0.398,0.376,1.001-0.224,0.601-0.601
				c-0.885-0.837-2.05-1.352-3.127-1.891C17.523,102.725,17.092,103.458,17.582,103.703L17.582,103.703z"/>
		</g>
	</g>
	<g>
		<g>
			<path style="&st0;" d="M18.105,102.421c0.885,0.837,2.05,1.352,3.127,1.891c0.489,0.245,0.92-0.489,0.429-0.734
				c-1.005-0.503-2.129-0.977-2.955-1.758C18.308,101.443,17.705,102.043,18.105,102.421L18.105,102.421z"/>
		</g>
	</g>
	<g>
		<g>
			<path style="&st0;" d="M13.847,104.245c0.845,0.876,1.401,1.908,2.519,2.499c0.484,0.256,0.914-0.478,0.429-0.734
				c-1.044-0.552-1.557-1.547-2.347-2.366C14.067,103.248,13.467,103.85,13.847,104.245L13.847,104.245z"/>
		</g>
	</g>
	<g>
		<g>
			<path style="&st0;" d="M22.054,112.276c0.548,0,0.548-0.85,0-0.85S21.506,112.276,22.054,112.276L22.054,112.276z"/>
		</g>
	</g>
	<g>
		<g>
			<path style="&st0;" d="M45.052,119.559c7.189,1.029,15.628,0.974,22.729-0.608c0.535-0.119,0.308-0.939-0.226-0.82
				c-6.907,1.539-15.271,1.611-22.277,0.608C44.742,118.662,44.511,119.482,45.052,119.559L45.052,119.559z"/>
		</g>
	</g>
	<g>
		<g>
			<path style="&st0;" d="M39.391,112.76c2.824,2.856,5.397,5.962,8.515,8.515c0.421,0.344,1.026-0.254,0.601-0.601
				c-3.118-2.552-5.691-5.659-8.515-8.515C39.606,111.768,39.005,112.37,39.391,112.76L39.391,112.76z"/>
		</g>
	</g>
	<g>
		<g>
			<path style="&st0;" d="M45.559,114.651c2.906,1.809,5.108,4.44,7.146,7.146c0.326,0.432,1.064,0.009,0.734-0.429
				c-2.128-2.825-4.417-5.562-7.451-7.451C45.521,113.626,45.095,114.362,45.559,114.651L45.559,114.651z"/>
		</g>
	</g>
	<g>
		<g>
			<path style="&st0;" d="M49.122,115.801c1.608,1.638,2.92,3.483,4.191,5.388c0.303,0.454,1.04,0.028,0.734-0.429
				c-1.311-1.965-2.664-3.87-4.324-5.56C49.339,114.807,48.738,115.409,49.122,115.801L49.122,115.801z"/>
		</g>
	</g>
	<g>
		<g>
			<path style="&st0;" d="M40.102,102.841c0.658-2.012,1.167-4.069,1.825-6.082c0.171-0.523-0.65-0.745-0.82-0.226
				c-0.658,2.012-1.167,4.069-1.825,6.082C39.111,103.138,39.932,103.36,40.102,102.841L40.102,102.841z"/>
		</g>
	</g>
	<g>
		<g>
			<path style="&st0;" d="M37.259,97.071c0.548,0,0.548-0.85,0-0.85S36.711,97.071,37.259,97.071L37.259,97.071z"/>
		</g>
	</g>
	<g>
		<g>
			<path style="&st0;" d="M36.41,90.779c1.283-2.605,2.366-5.302,3.649-7.906c0.241-0.49-0.492-0.921-0.734-0.429
				c-1.283,2.605-2.366,5.302-3.649,7.906C35.434,90.84,36.167,91.271,36.41,90.779L36.41,90.779z"/>
		</g>
	</g>
	<g>
		<g>
			<path style="&st0;" d="M35.22,82.417c2.211,1.703,4.602,4.052,5.929,6.537c0.258,0.484,0.993,0.054,0.734-0.429
				c-1.404-2.628-3.904-5.047-6.234-6.843C35.215,81.348,34.792,82.087,35.22,82.417L35.22,82.417z"/>
		</g>
	</g>
	<g>
		<g>
			<path style="&st0;" d="M37.457,92.502c0.557,1.793,0.659,3.681,1.216,5.474c0.162,0.522,0.983,0.299,0.82-0.226
				c-0.557-1.793-0.659-3.681-1.216-5.474C38.115,91.754,37.294,91.977,37.457,92.502L37.457,92.502z"/>
		</g>
	</g>
	<g>
		<g>
			<path style="&st0;" d="M37.566,105.461c0.915,0.936,1.534,2.102,2.433,3.041c0.38,0.397,0.98-0.205,0.601-0.601
				c-0.898-0.937-1.517-2.105-2.433-3.041C37.784,104.468,37.183,105.069,37.566,105.461L37.566,105.461z"/>
		</g>
	</g>
	<g>
		<g>
			<path style="&st0;" d="M38.261,115.867c1.052,0.536,1.744,1.229,2.28,2.28c0.249,0.489,0.983,0.058,0.734-0.429
				c-0.597-1.17-1.415-1.989-2.585-2.585C38.202,114.884,37.772,115.618,38.261,115.867L38.261,115.867z"/>
		</g>
	</g>
	<g>
		<g>
			<path style="&st0;" d="M35.321,119.559c4.391,0.715,8.787,1.296,13.22,1.685c2.854,0.25,5.715,0.323,8.579,0.305
				c5.034-0.031-3.732-1.813-5.152-2.202c-0.53-0.145-0.754,0.675-0.226,0.82c2.983,0.817,5.524,1.514,8.628,1.232
				c0.538-0.049,0.552-0.884,0-0.85c-8.323,0.508-16.617-0.473-24.822-1.809C35.011,118.652,34.781,119.471,35.321,119.559
				L35.321,119.559z"/>
		</g>
	</g>
	<g>
		<g>
			<path style="&st0;" d="M56.113,116.533c0.548,0,0.548-0.85,0-0.85S55.564,116.533,56.113,116.533L56.113,116.533z"/>
		</g>
	</g>
	<g>
		<g>
			<path style="&st0;" d="M60.978,118.358c0.211,0.017,0.339,0.22,0.492,0.346c0.216,0.178,0.451,0.24,0.725,0.262
				c0.547,0.043,0.543-0.808,0-0.85c-0.211-0.017-0.339-0.22-0.492-0.346c-0.216-0.178-0.451-0.24-0.725-0.262
				C60.431,117.464,60.435,118.315,60.978,118.358L60.978,118.358z"/>
		</g>
	</g>
	<g>
		<g>
			<path style="&st0;" d="M62.194,111.06c0.548,0,0.548-0.85,0-0.85C61.646,110.209,61.646,111.06,62.194,111.06L62.194,111.06z"/>
		</g>
	</g>
	<g>
		<g>
			<path style="&st0;" d="M61.13,77.803c-1.632,0.327-2.788,1.77-2.494,3.473c0.33,1.912,2.073,3.001,3.963,2.685
				c1.684-0.282,3.054-1.344,2.684-3.187c-0.387-1.928-2.478-2.972-4.268-3.05c-0.194-0.009-0.193,0.292,0,0.301
				c1.642,0.072,3.219,0.89,3.867,2.465c0.67,1.63-0.577,2.797-2.074,3.133c-1.739,0.39-3.429-0.463-3.848-2.231
				c-0.38-1.602,0.714-2.99,2.25-3.298C61.4,78.055,61.32,77.765,61.13,77.803L61.13,77.803z"/>
		</g>
	</g>
	<g>
		<g>
			<path style="&st0;" d="M76.13,83.803c-1.632,0.327-2.788,1.77-2.494,3.473c0.33,1.912,2.073,3.001,3.963,2.685
				c1.684-0.282,3.054-1.344,2.684-3.187c-0.387-1.928-2.478-2.972-4.268-3.05c-0.194-0.009-0.193,0.292,0,0.301
				c1.642,0.072,3.219,0.89,3.867,2.465c0.67,1.63-0.577,2.797-2.074,3.133c-1.739,0.39-3.429-0.463-3.848-2.231
				c-0.38-1.602,0.714-2.99,2.25-3.298C76.4,84.055,76.32,83.765,76.13,83.803L76.13,83.803z"/>
		</g>
	</g>
	<g>
		<g>
			<path style="&st0;" d="M77.13,97.803c-1.632,0.327-2.788,1.77-2.494,3.473c0.33,1.912,2.073,3.001,3.963,2.685
				c1.684-0.282,3.054-1.344,2.684-3.187c-0.387-1.928-2.478-2.972-4.268-3.05c-0.194-0.009-0.193,0.292,0,0.301
				c1.642,0.072,3.219,0.89,3.867,2.465c0.67,1.63-0.577,2.797-2.074,3.133c-1.739,0.39-3.429-0.463-3.848-2.231
				c-0.38-1.602,0.714-2.99,2.25-3.298C77.4,98.055,77.32,97.765,77.13,97.803L77.13,97.803z"/>
		</g>
	</g>
	<g>
		<g>
			<path style="&st0;" d="M60.13,99.803c-1.632,0.327-2.788,1.77-2.494,3.473c0.33,1.912,2.073,3.001,3.963,2.685
				c1.684-0.282,3.054-1.344,2.684-3.187c-0.387-1.928-2.478-2.972-4.268-3.05c-0.194-0.009-0.193,0.292,0,0.301
				c1.642,0.072,3.219,0.89,3.867,2.465c0.67,1.63-0.577,2.797-2.074,3.133c-1.739,0.39-3.429-0.463-3.848-2.231
				c-0.38-1.602,0.714-2.99,2.25-3.298C60.4,100.055,60.32,99.765,60.13,99.803L60.13,99.803z"/>
		</g>
	</g>
	<g>
		<g>
			<path style="&st0;" d="M51.13,86.803c-1.632,0.327-2.788,1.77-2.494,3.473c0.33,1.912,2.073,3.001,3.963,2.685
				c1.684-0.282,3.054-1.344,2.684-3.187c-0.387-1.928-2.478-2.972-4.268-3.05c-0.194-0.009-0.193,0.292,0,0.301
				c1.642,0.072,3.219,0.89,3.867,2.465c0.67,1.63-0.577,2.797-2.074,3.133c-1.739,0.39-3.429-0.463-3.848-2.231
				c-0.38-1.602,0.714-2.99,2.25-3.298C51.4,87.055,51.32,86.765,51.13,86.803L51.13,86.803z"/>
		</g>
	</g>
	<g>
		<g>
			<path style="&st0;" d="M65.235,93.148c0.194,0,0.194-0.301,0-0.301C65.041,92.847,65.041,93.148,65.235,93.148L65.235,93.148z"/>
		</g>
	</g>
	<g>
		<g>
			<path style="&st0;" d="M65.235,92.539c0.937,0.046,1.461,1.176,2.232,1.552c0.298,0.145,0.261-0.224,0.184-0.38
				c-0.451-0.918-1.113-1.766-1.678-2.614c-0.079-0.119-0.285-0.082-0.28,0.076c0.025,0.903,0.399,2.002,1.424,2.156
				c0.668,0.1,0.923-0.469,0.68-1.015c-0.018,0.069-0.036,0.137-0.054,0.206c0.237-0.163,0.616-0.581,0.109-0.682
				c-0.57-0.113-1.276,0.112-1.821,0.255c-0.345,0.09-1.182,0.235-1.352,0.62c-0.219,0.497,0.98,0.435,1.164,0.436
				c-0.05-0.05-0.1-0.1-0.15-0.15c0.079,1.06,1.607,0.657,1.586-0.231c-0.006-0.261-0.091-0.509-0.273-0.704
				c-0.273-0.293-0.37-0.264-0.331-0.644c0.02-0.201-0.01-0.447-0.268-0.41c-0.55,0.078-1.015,1.48-1.168,1.903
				c-0.234,0.648-0.099,1.321,0.681,0.824c-0.075-0.043-0.151-0.087-0.226-0.13c0.057,2.797,2.723-1.643,1.453-1.411
				c-0.477,0.087-1.097,0.322-1.513-0.071c-0.112-0.106-0.316-0.203-0.343,0.039c-0.067,0.594-0.073,1.186-0.163,1.782
				c-0.139,0.914,0.553,1.025,1.324,1.028c0.095,0,0.174-0.097,0.145-0.19c-0.146-0.467-0.196-0.917-0.198-1.403
				c-0.001-0.272-0.048-0.543-0.228-0.757c-0.264-0.314-1.724-1.526-1.857-0.679c-0.083,0.531,0.343,1.565,0.78,1.883
				c0.167,0.122,0.281-0.087,0.292-0.22c0.028-0.337-0.009-0.673,0.071-1.005c-0.039,0.163-0.688-0.284-0.723-0.317
				c-0.01,0.079-0.02,0.157-0.03,0.236c0.113-0.074,0.673-0.495,0.685-0.323c0.014,0.2,0.006,0.395,0.04,0.594
				c0.088,0.513,0.538,0.79,0.984,0.961c0.181,0.07,0.259-0.221,0.08-0.29c-0.496-0.191-0.776-0.481-0.801-1.013
				c-0.007-0.157,0.028-0.351-0.056-0.495c-0.22-0.376-0.903,0.188-1.084,0.306c-0.079,0.051-0.104,0.167-0.03,0.236
				c0.249,0.236,0.969,0.722,1.017,0.046c0.009-0.121-0.09-0.249-0.221-0.213c-0.219,0.06-0.201,0.493-0.214,0.653
				c-0.008,0.127-0.014,0.255-0.016,0.382c-0.013,0.441,0.128,0.182,0.051,0.071c-0.141-0.204-0.244-0.44-0.338-0.667
				c-0.092-0.223-0.171-0.462-0.193-0.704c-0.02-0.224,0.692,0.252,0.837,0.341c0.443,0.273,0.651,0.545,0.653,1.06
				c0.002,0.484,0.063,0.934,0.208,1.398c0.048-0.063,0.097-0.127,0.145-0.19c-0.576-0.002-1.123-0.063-1.002-0.86
				c0.037-0.244,0.066-0.49,0.093-0.735c0.03-0.281,0.046-0.564,0.046-0.847c0,0.023-0.353-0.03-0.083,0.178
				c0.168,0.129,0.377,0.2,0.587,0.221c0.318,0.032,0.747,0.023,1.043-0.11c0.267-0.12-0.049,0.538-0.092,0.627
				c-0.143,0.298-0.33,0.581-0.552,0.826c-0.39,0.432-0.49,0.073-0.499-0.366c-0.002-0.11-0.127-0.193-0.226-0.13
				c-0.311,0.198-0.413,0.195-0.329-0.182c0.079-0.357,0.242-0.698,0.404-1.022c0.137-0.274,0.293-0.541,0.473-0.788
				c0.037-0.051,0.08-0.097,0.123-0.143c0.101-0.104-0.011,0.058-0.057-0.085c0.044,0.134-0.044,0.357-0.075,0.486
				c-0.017,0.071,0.012,0.129,0.069,0.17c0.396,0.287,0.84,0.745,0.427,1.215c-0.24,0.273-0.773,0.358-0.809-0.128
				c-0.006-0.082-0.064-0.15-0.15-0.15c-0.253-0.002-0.509-0.003-0.759-0.047c-0.173-0.031-0.179,0.058-0.052-0.024
				c0.29-0.189,0.663-0.278,0.992-0.37c0.408-0.115,0.827-0.206,1.247-0.259c0.149-0.019,0.299-0.029,0.449-0.023
				c0.195,0.007,0.038,0.021-0.128,0.136c-0.073,0.05-0.089,0.126-0.054,0.206c0.265,0.597-0.343,0.651-0.748,0.44
				c-0.616-0.321-0.779-1.105-0.797-1.732c-0.093,0.025-0.187,0.051-0.28,0.076c0.518,0.778,1.046,1.552,1.53,2.352
				c0.052,0.086,0.101,0.173,0.148,0.262c0.075,0.142,0.227-0.03,0.183-0.056c-0.124-0.076-0.233-0.19-0.341-0.286
				c-0.535-0.474-1.232-1.244-1.998-1.282C65.041,92.229,65.042,92.53,65.235,92.539L65.235,92.539z"/>
		</g>
	</g>
</g>
</svg>
