<?xml version="1.0" encoding="utf-8"?>
<!-- Generator: Adobe Illustrator 17.0.0, SVG Export Plug-In . SVG Version: 6.00 Build 0)  -->
<!DOCTYPE svg PUBLIC "-//W3C//DTD SVG 1.1//EN" "http://www.w3.org/Graphics/SVG/1.1/DTD/svg11.dtd" [
	<!ENTITY st0 "fill:#3D3D3D;">
]>
<svg version="1.1" id="Calque_1" xmlns="http://www.w3.org/2000/svg" xmlns:xlink="http://www.w3.org/1999/xlink" x="0px" y="0px"
	 width="166px" height="167px" viewBox="0 0 166 167" style="enable-background:new 0 0 166 167;" xml:space="preserve">
<g>
	<g>
		<g>
			<path style="&st0;" d="M25.125,81.013c0.897,13.539,0.608,27.188,0.608,40.748c0,1.371,2.126,1.371,2.126,0
				c0-13.561,0.289-27.209-0.608-40.748C27.161,79.652,25.035,79.643,25.125,81.013L25.125,81.013z"/>
		</g>
	</g>
	<g>
		<g>
			<path style="&st0;" d="M26.188,80.859c29.942-3.009,59.909-6.558,90.052-4.865c1.37,0.077,1.363-2.049,0-2.126
				c-30.143-1.693-60.11,1.857-90.052,4.865C24.838,78.869,24.825,80.996,26.188,80.859L26.188,80.859z"/>
		</g>
	</g>
	<g>
		<g>
			<path style="&st0;" d="M115.178,74.931c0.596,15.537,0.719,31.103,3.079,46.505c0.207,1.352,2.255,0.776,2.05-0.565
				c-2.33-15.209-2.414-30.598-3.003-45.939C117.251,73.564,115.125,73.559,115.178,74.931L115.178,74.931z"/>
		</g>
	</g>
	<g>
		<g>
			<path style="&st0;" d="M26.797,122.824c30.741,3.116,62.241,5.526,92.767-0.646c1.343-0.272,0.773-2.321-0.565-2.05
				c-30.323,6.131-61.67,3.665-92.202,0.57C25.433,120.56,25.446,122.687,26.797,122.824L26.797,122.824z"/>
		</g>
	</g>
	<g>
		<g>
			<path style="&st0;" d="M35.465,84.662c0,2.838,0,5.676,0,8.515c0,1.371,2.126,1.371,2.126,0c0-2.838,0-5.676,0-8.515
				C37.591,83.291,35.465,83.291,35.465,84.662L35.465,84.662z"/>
		</g>
	</g>
	<g>
		<g>
			<path style="&st0;" d="M36.528,85.725c13.556-1.743,27.18-2.709,40.824-3.442c7.129-0.383,14.262-0.695,21.393-1.037
				c3.117-0.149,6.784-1.512,7.09,2.65c0.197,2.68,0.178,5.379,0.18,8.064c0.001,1.371,2.127,1.371,2.126,0
				c-0.003-4.165-0.061-8.317-0.646-12.446c-0.063-0.444-0.6-0.802-1.025-0.78c-23.342,1.211-46.735,1.881-69.941,4.865
				C35.187,83.771,35.17,85.899,36.528,85.725L36.528,85.725z"/>
		</g>
	</g>
	<g>
		<g>
			<path style="&st0;" d="M34.703,95.456c23.506,0.632,47.154,1.821,70.549-1.216c1.34-0.174,1.357-2.302,0-2.126
				c-23.396,3.038-47.043,1.849-70.549,1.216C33.331,93.293,33.335,95.419,34.703,95.456L34.703,95.456z"/>
		</g>
	</g>
	<g>
		<g>
			<path style="&st0;" d="M48.845,101.691c0,3.244,0,6.487,0,9.731c0,1.371,2.126,1.371,2.126,0c0-3.244,0-6.487,0-9.731
				C50.971,100.32,48.845,100.32,48.845,101.691L48.845,101.691z"/>
		</g>
	</g>
	<g>
		<g>
			<path style="&st0;" d="M47.8,101.274c-3.488,1.38-6.978,2.668-9.985,4.973c-0.638,0.489-0.722,1.362,0,1.836
				c3.515,2.307,7.222,4.213,11.201,5.581c1.3,0.447,1.854-1.607,0.565-2.05c-3.809-1.309-7.332-3.16-10.693-5.366
				c0,0.612,0,1.224,0,1.836c2.865-2.195,6.152-3.442,9.477-4.758C49.625,102.826,49.077,100.769,47.8,101.274L47.8,101.274z"/>
		</g>
	</g>
	<g>
		<g>
			<path style="&st0;" d="M53.71,101.083c0.043,3.373,0.603,6.712,1.254,10.014c0.265,1.344,2.314,0.774,2.05-0.565
				c-0.615-3.121-1.137-6.261-1.178-9.448C55.818,99.713,53.692,99.711,53.71,101.083L53.71,101.083z"/>
		</g>
	</g>
	<g>
		<g>
			<path style="&st0;" d="M54.49,102.108c3.615,1.283,6.821,3.393,10.085,5.366c-0.072-0.557-0.143-1.113-0.215-1.67
				c-2.5,2.42-5.439,4.456-8.654,5.808c-1.244,0.523-0.698,2.582,0.565,2.05c3.568-1.501,6.81-3.663,9.592-6.355
				c0.499-0.483,0.363-1.32-0.215-1.67c-3.429-2.073-6.796-4.233-10.593-5.581C53.76,99.598,53.208,101.653,54.49,102.108
				L54.49,102.108z"/>
		</g>
	</g>
	<g>
		<g>
			<path style="&st0;" d="M73.925,99.938c-2.098,2.984-3.051,6.624-4.364,9.985c-0.26,0.665,0.392,1.332,1.025,1.346
				c3.28,0.068,6.466,1.094,9.731,1.216c1.372,0.051,1.367-2.075,0-2.126c-3.263-0.122-6.451-1.149-9.731-1.216
				c0.342,0.449,0.683,0.897,1.025,1.346c1.251-3.2,2.154-6.637,4.15-9.477C76.551,99.886,74.707,98.826,73.925,99.938
				L73.925,99.938z"/>
		</g>
	</g>
	<g>
		<g>
			<path style="&st0;" d="M74.426,101.365c1.416,4.001,3.739,7.496,6.355,10.808c0.849,1.075,2.343-0.44,1.503-1.503
				c-2.376-3.008-4.523-6.237-5.808-9.87C76.022,99.517,73.968,100.069,74.426,101.365L74.426,101.365z"/>
		</g>
	</g>
	<g>
		<g>
			<path style="&st0;" d="M86.073,102.108c3.667-0.52,7.367,0.013,10.99,0.608c-0.247-0.436-0.495-0.872-0.742-1.308
				c-0.731,3.125-2.629,5.578-4.592,8.046c-0.844,1.061,0.65,2.576,1.503,1.503c2.185-2.746,4.325-5.503,5.139-8.984
				c0.121-0.517-0.155-1.211-0.742-1.308c-4.031-0.662-8.047-1.186-12.121-0.608C84.155,100.249,84.733,102.298,86.073,102.108
				L86.073,102.108z"/>
		</g>
	</g>
	<g>
		<g>
			<path style="&st0;" d="M84.264,101.619c2.026,4.014,4.32,7.914,7.464,11.162c0.955,0.987,2.457-0.518,1.503-1.503
				c-3.019-3.119-5.187-6.88-7.132-10.732C85.482,99.322,83.648,100.399,84.264,101.619L84.264,101.619z"/>
		</g>
	</g>
	<g>
		<g>
			<path style="&st0;" d="M117.6,81.764c3.06-3.194,5.382-6.656,10.196-6.987c-0.354-0.354-0.709-0.709-1.063-1.063
				c-0.295,14.12-9.687,31.194,1.528,43.324c0.382,0.413,1.122,0.414,1.503,0c8.604-9.343,11.454-23.885,11.065-36.205
				c-0.331-10.48-4.597-22.722-16.682-23.387c-1.37-0.075-1.363,2.051,0,2.126c12.192,0.672,14.662,14.54,14.594,24.372
				c-0.074,10.739-3.019,23.488-10.48,31.591c0.501,0,1.002,0,1.503,0c-10.513-11.371-1.183-28.48-0.905-41.821
				c0.011-0.55-0.493-1.102-1.063-1.063c-5.532,0.381-8.077,3.829-11.699,7.61C115.149,81.25,116.65,82.756,117.6,81.764
				L117.6,81.764z"/>
		</g>
	</g>
	<g>
		<g>
			<path style="&st0;" d="M121.259,46.954c0.042,4.019,1.089,11.087,5.82,12.377c5.939,1.619,6.521-9.816,6.645-12.985
				c0.023-0.579-0.501-1.063-1.063-1.063c-3.446,0-6.893,0-10.339,0c-1.371,0-1.371,2.126,0,2.126c3.446,0,6.893,0,10.339,0
				c-0.354-0.354-0.709-0.709-1.063-1.063c-0.068,1.737-0.347,11.919-4.15,10.882c-1.335-0.364-2.181-2.072-2.714-3.2
				c-1.027-2.175-1.324-4.699-1.349-7.074C123.371,45.584,121.245,45.583,121.259,46.954L121.259,46.954z"/>
		</g>
	</g>
	<g>
		<g>
			<path style="&st0;" d="M125.555,41.806c-0.646,2.065-0.645,4.221-0.646,6.364c0,1.371,2.126,1.371,2.126,0
				c0.001-1.961-0.021-3.91,0.57-5.799C128.015,41.059,125.962,40.502,125.555,41.806L125.555,41.806z"/>
		</g>
	</g>
	<g>
		<g>
			<path style="&st0;" d="M129.166,42.089c-0.001,2.162-0.076,4.293-0.57,6.407c-0.312,1.334,1.738,1.9,2.05,0.565
				c0.537-2.297,0.645-4.622,0.646-6.973C131.292,40.718,129.166,40.718,129.166,42.089L129.166,42.089z"/>
		</g>
	</g>
	<g>
		<g>
			<path style="&st0;" d="M30.845,101.463c-0.624,5.055-1.151,10.117-0.608,15.205c0.058,0.539,0.909,0.545,0.85,0
				c-0.543-5.087-0.016-10.15,0.608-15.205C31.763,100.919,30.911,100.926,30.845,101.463L30.845,101.463z"/>
		</g>
	</g>
	<g>
		<g>
			<path style="&st0;" d="M34.919,118.917c0.837,0.037,1.586,0.571,2.433,0.608c0.549,0.024,0.546-0.826,0-0.85
				c-0.837-0.037-1.586-0.571-2.433-0.608C34.371,118.042,34.373,118.893,34.919,118.917L34.919,118.917z"/>
		</g>
	</g>
	<g>
		<g>
			<path style="&st0;" d="M42.826,107.362c0.355,0.024,0.704,0.472,0.916,0.712c0.507,0.574,0.857,1.3,1.107,2.017
				c0.18,0.514,1.001,0.293,0.82-0.226c-0.41-1.175-1.364-3.252-2.843-3.353C42.278,106.474,42.282,107.324,42.826,107.362
				L42.826,107.362z"/>
		</g>
	</g>
	<g>
		<g>
			<path style="&st0;" d="M45.441,106.328c0.049,1.397,0.661,2.635,1.274,3.864c0.245,0.491,0.978,0.06,0.734-0.429
				c-0.543-1.088-1.115-2.195-1.158-3.434C46.273,105.781,45.422,105.78,45.441,106.328L45.441,106.328z"/>
		</g>
	</g>
	<g>
		<g>
			<path style="&st0;" d="M45.559,105.412c0.543-0.504,1.273-0.681,1.341-1.517c0.044-0.547-0.807-0.543-0.85,0
				c-0.018,0.22-0.299,0.323-0.462,0.425c-0.227,0.142-0.434,0.309-0.63,0.491C44.555,105.185,45.158,105.785,45.559,105.412
				L45.559,105.412z"/>
		</g>
	</g>
	<g>
		<g>
			<path style="&st0;" d="M45.258,109.186c0.548,0,0.548-0.85,0-0.85C44.71,108.336,44.71,109.186,45.258,109.186L45.258,109.186z"
				/>
		</g>
	</g>
	<g>
		<g>
			<path style="&st0;" d="M47.083,109.186c0.548,0,0.548-0.85,0-0.85C46.535,108.336,46.535,109.186,47.083,109.186L47.083,109.186z
				"/>
		</g>
	</g>
	<g>
		<g>
			<path style="&st0;" d="M56.997,103.895c0,1.419,0,2.838,0,4.257c0,0.548,0.85,0.548,0.85,0c0-1.419,0-2.838,0-4.257
				C57.847,103.347,56.997,103.347,56.997,103.895L56.997,103.895z"/>
		</g>
	</g>
	<g>
		<g>
			<path style="&st0;" d="M57.422,107.97c0.548,0,0.548-0.85,0-0.85C56.874,107.119,56.874,107.97,57.422,107.97L57.422,107.97z"/>
		</g>
	</g>
	<g>
		<g>
			<path style="&st0;" d="M51.34,106.753c0.548,0,0.548-0.85,0-0.85S50.792,106.753,51.34,106.753L51.34,106.753z"/>
		</g>
	</g>
	<g>
		<g>
			<path style="&st0;" d="M38.158,89.794c-1.517,6.036,7.22,5.074,10.749,4.796c0.543-0.043,0.547-0.894,0-0.85
				c-2.879,0.227-11.213,1.388-9.929-3.719C39.112,89.488,38.292,89.263,38.158,89.794L38.158,89.794z"/>
		</g>
	</g>
	<g>
		<g>
			<path style="&st0;" d="M34.552,87.868c-1.503,2.53-1.273,5.901-1.274,8.729c0,0.548,0.85,0.548,0.85,0
				c0.001-2.676-0.259-5.914,1.158-8.3C35.567,87.825,34.832,87.397,34.552,87.868L34.552,87.868z"/>
		</g>
	</g>
	<g>
		<g>
			<path style="&st0;" d="M39.177,97.022c0.548,0,0.548-0.85,0-0.85C38.628,96.172,38.628,97.022,39.177,97.022L39.177,97.022z"/>
		</g>
	</g>
	<g>
		<g>
			<path style="&st0;" d="M32.794,104.811c-2.296,1.816-4.832,5.165-4.99,8.207c-0.028,0.548,0.822,0.546,0.85,0
				c0.145-2.798,2.647-5.949,4.741-7.606C33.825,105.072,33.219,104.475,32.794,104.811L32.794,104.811z"/>
		</g>
	</g>
	<g>
		<g>
			<path style="&st0;" d="M33.095,111.619c0.548,0,0.548-0.85,0-0.85C32.546,110.768,32.546,111.619,33.095,111.619L33.095,111.619z
				"/>
		</g>
	</g>
	<g>
		<g>
			<path style="&st0;" d="M33.703,114.052c0.548,0,0.548-0.85,0-0.85C33.155,113.201,33.155,114.052,33.703,114.052L33.703,114.052z
				"/>
		</g>
	</g>
	<g>
		<g>
			<path style="&st0;" d="M37.66,113.934c-1.742,1.716-3.728,3.158-5.474,4.865c-0.393,0.384,0.209,0.985,0.601,0.601
				c1.746-1.708,3.732-3.15,5.474-4.865C38.652,114.15,38.051,113.549,37.66,113.934L37.66,113.934z"/>
		</g>
	</g>
	<g>
		<g>
			<path style="&st0;" d="M43.741,112.109c-1.825,1.825-3.649,3.649-5.474,5.474c-0.388,0.388,0.213,0.989,0.601,0.601
				c1.825-1.825,3.649-3.649,5.474-5.474C44.731,112.323,44.13,111.721,43.741,112.109L43.741,112.109z"/>
		</g>
	</g>
	<g>
		<g>
			<path style="&st0;" d="M48.54,114.02c-1.635,2.152-3.499,4.087-5.407,5.996c-0.388,0.388,0.213,0.989,0.601,0.601
				c1.961-1.962,3.86-3.956,5.54-6.168C49.607,114.012,48.868,113.589,48.54,114.02L48.54,114.02z"/>
		</g>
	</g>
	<g>
		<g>
			<path style="&st0;" d="M30.361,112.711c2.963,2.337,6.16,4.353,9.123,6.69c0.426,0.336,1.032-0.262,0.601-0.601
				c-2.963-2.337-6.16-4.353-9.123-6.69C30.537,111.774,29.931,112.371,30.361,112.711L30.361,112.711z"/>
		</g>
	</g>
	<g>
		<g>
			<path style="&st0;" d="M33.402,109.67c2.307,2.308,4.639,4.613,6.624,7.212c0.328,0.43,1.067,0.007,0.734-0.429
				c-2.031-2.659-4.395-5.022-6.757-7.384C33.616,108.68,33.014,109.282,33.402,109.67L33.402,109.67z"/>
		</g>
	</g>
	<g>
		<g>
			<path style="&st0;" d="M33.944,104.718c1.747,2.975,3.118,6.148,4.865,9.123c0.277,0.472,1.013,0.045,0.734-0.429
				c-1.747-2.975-3.118-6.148-4.865-9.123C34.401,103.817,33.666,104.244,33.944,104.718L33.944,104.718z"/>
		</g>
	</g>
	<g>
		<g>
			<path style="&st0;" d="M30.86,94.278c1.282,3.074,3.188,5.782,4.908,8.616c0.284,0.468,1.02,0.041,0.734-0.429
				c-1.679-2.766-3.571-5.413-4.823-8.413C31.472,93.553,30.649,93.772,30.86,94.278L30.86,94.278z"/>
		</g>
	</g>
	<g>
		<g>
			<path style="&st0;" d="M42.105,92.75c6.088,1.373,12.744,1.78,18.967,1.84c0.549,0.005,0.548-0.845,0-0.85
				c-6.141-0.059-12.739-0.456-18.741-1.809C41.797,91.809,41.57,92.629,42.105,92.75L42.105,92.75z"/>
		</g>
	</g>
	<g>
		<g>
			<path style="&st0;" d="M75.059,109.186c0.608,0,1.216,0,1.825,0c0.548,0,0.548-0.85,0-0.85c-0.608,0-1.216,0-1.825,0
				C74.511,108.336,74.511,109.186,75.059,109.186L75.059,109.186z"/>
		</g>
	</g>
	<g>
		<g>
			<path style="&st0;" d="M75.059,106.145c0.211,0.017,0.339,0.22,0.492,0.346c0.216,0.178,0.451,0.24,0.725,0.262
				c0.547,0.043,0.543-0.808,0-0.85c-0.211-0.017-0.339-0.22-0.492-0.346c-0.216-0.178-0.451-0.24-0.725-0.262
				C74.512,105.252,74.517,106.102,75.059,106.145L75.059,106.145z"/>
		</g>
	</g>
	<g>
		<g>
			<path style="&st0;" d="M71.523,111.604c2.984-0.552,5.985-0.592,9.01-0.593c0.548,0,0.548-0.851,0-0.85
				c-3.101,0.001-6.179,0.058-9.236,0.623C70.759,110.883,70.987,111.703,71.523,111.604L71.523,111.604z"/>
		</g>
	</g>
	<g>
		<g>
			<path style="&st0;" d="M72.514,110.995c3.866,0.593,7.766,0.622,11.669,0.623c0.548,0,0.548-0.85,0-0.85
				c-3.824-0.001-7.654-0.012-11.442-0.593C72.204,110.093,71.973,110.913,72.514,110.995L72.514,110.995z"/>
		</g>
	</g>
	<g>
		<g>
			<path style="&st0;" d="M89.048,99.455c3.041,0,6.082,0,9.123,0c0.548,0,0.548-0.85,0-0.85c-3.041,0-6.082,0-9.123,0
				C88.499,98.605,88.499,99.455,89.048,99.455L89.048,99.455z"/>
		</g>
	</g>
	<g>
		<g>
			<path style="&st0;" d="M88.553,100.656c2.79-0.565,5.542-1.161,8.402-1.201c0.548-0.008,0.549-0.858,0-0.85
				c-2.936,0.042-5.761,0.651-8.628,1.232C87.789,99.945,88.017,100.765,88.553,100.656L88.553,100.656z"/>
		</g>
	</g>
	<g>
		<g>
			<path style="&st0;" d="M72.627,111.619c2.838,0,5.676,0,8.515,0c0.548,0,0.548-0.85,0-0.85c-2.838,0-5.676,0-8.515,0
				C72.078,110.768,72.078,111.619,72.627,111.619L72.627,111.619z"/>
		</g>
	</g>
	<g>
		<g>
			<path style="&st0;" d="M73.843,112.227c2.635,0,5.271,0,7.906,0c0.548,0,0.548-0.85,0-0.85c-2.635,0-5.271,0-7.906,0
				C73.295,111.377,73.295,112.227,73.843,112.227L73.843,112.227z"/>
		</g>
	</g>
	<g>
		<g>
			<path style="&st0;" d="M52.755,102.184c0.637,3.188,1.165,6.358,1.201,9.618c0.006,0.548,0.856,0.549,0.85,0
				c-0.037-3.339-0.58-6.578-1.232-9.844C53.468,101.42,52.648,101.648,52.755,102.184L52.755,102.184z"/>
		</g>
	</g>
	<g>
		<g>
			<path style="&st0;" d="M50.307,104.504c0,3.041,0,6.082,0,9.123c0,0.548,0.85,0.548,0.85,0c0-3.041,0-6.082,0-9.123
				C51.157,103.955,50.307,103.955,50.307,104.504L50.307,104.504z"/>
		</g>
	</g>
	<g>
		<g>
			<path style="&st0;" d="M56.42,113.385c3.471-1.753,6.76-3.739,9.817-6.148c0.43-0.339-0.176-0.937-0.601-0.601
				c-2.998,2.363-6.242,4.297-9.645,6.015C55.502,112.898,55.932,113.632,56.42,113.385L56.42,113.385z"/>
		</g>
	</g>
	<g>
		<g>
			<path style="&st0;" d="M85.894,101.661c-3.454,1.146,3.161,7.494,4.07,8.617c0.345,0.427,0.943-0.179,0.601-0.601
				c-0.614-0.759-6.012-6.675-4.445-7.196C86.638,102.309,86.416,101.488,85.894,101.661L85.894,101.661z"/>
		</g>
	</g>
	<g>
		<g>
			<path style="&st0;" d="M84.989,103.4c1.197,2.99,2.4,5.991,4.3,8.616c0.318,0.44,1.056,0.016,0.734-0.429
				c-1.858-2.568-3.043-5.488-4.214-8.413C85.607,102.672,84.785,102.891,84.989,103.4L84.989,103.4z"/>
		</g>
	</g>
	<g>
		<g>
			<path style="&st0;" d="M127.602,49.654c-0.589,1.904-0.589,3.795,0,5.7c0.162,0.522,0.983,0.299,0.82-0.226
				c-0.548-1.772-0.548-3.476,0-5.248C128.585,49.355,127.764,49.132,127.602,49.654L127.602,49.654z"/>
		</g>
	</g>
	<g>
		<g>
			<path style="&st0;" d="M125.58,48.976c0.548,0,0.548-0.85,0-0.85S125.031,48.976,125.58,48.976L125.58,48.976z"/>
		</g>
	</g>
	<g>
		<g>
			<path style="&st0;" d="M124.971,52.017c0.548,0,0.548-0.85,0-0.85S124.423,52.017,124.971,52.017L124.971,52.017z"/>
		</g>
	</g>
	<g>
		<g>
			<path style="&st0;" d="M126.402,53.175c1.077-0.539,2.242-1.054,3.127-1.891c0.399-0.377-0.203-0.978-0.601-0.601
				c-0.826,0.781-1.95,1.255-2.955,1.758C125.483,52.686,125.914,53.42,126.402,53.175L126.402,53.175z"/>
		</g>
	</g>
	<g>
		<g>
			<path style="&st0;" d="M126.301,50.785c1.783-0.606,3.396-1.439,4.967-2.476c0.455-0.301,0.03-1.037-0.429-0.734
				c-1.509,0.996-3.049,1.807-4.764,2.39C125.559,50.141,125.78,50.962,126.301,50.785L126.301,50.785z"/>
		</g>
	</g>
	<g>
		<g>
			<path style="&st0;" d="M126.188,47.76c1.397-0.049,2.635-0.661,3.864-1.274c0.491-0.245,0.06-0.978-0.429-0.734
				c-1.088,0.543-2.195,1.115-3.434,1.158C125.641,46.928,125.639,47.779,126.188,47.76L126.188,47.76z"/>
		</g>
	</g>
	<g>
		<g>
			<path style="&st0;" d="M128.012,53.233c0.828-0.002,1.503-0.157,2.125-0.733c0.403-0.373-0.199-0.973-0.601-0.601
				c-0.454,0.42-0.93,0.482-1.524,0.484C127.464,52.384,127.464,53.234,128.012,53.233L128.012,53.233z"/>
		</g>
	</g>
	<g>
		<g>
			<path style="&st0;" d="M128.921,55.541c0.68-0.62,1.734-0.579,2.433-1.216c0.406-0.37-0.197-0.97-0.601-0.601
				c-0.68,0.62-1.734,0.579-2.433,1.216C127.914,55.31,128.517,55.91,128.921,55.541L128.921,55.541z"/>
		</g>
	</g>
</g>
</svg>
