<?xml version="1.0" encoding="utf-8"?>
<!-- Generator: Adobe Illustrator 17.0.0, SVG Export Plug-In . SVG Version: 6.00 Build 0)  -->
<!DOCTYPE svg PUBLIC "-//W3C//DTD SVG 1.1//EN" "http://www.w3.org/Graphics/SVG/1.1/DTD/svg11.dtd" [
	<!ENTITY st0 "fill:#3D3D3D;">
]>
<svg version="1.1" id="Calque_1" xmlns="http://www.w3.org/2000/svg" xmlns:xlink="http://www.w3.org/1999/xlink" x="0px" y="0px"
	 width="166px" height="167px" viewBox="0 0 166 167" style="enable-background:new 0 0 166 167;" xml:space="preserve">
<g>
	<g>
		<g>
			<g>
				<path style="&st0;" d="M39.728,101.761c-0.581,1.86-0.748,3.897-0.964,5.828c-0.117,1.047,1.519,1.035,1.634,0
					c0.2-1.79,0.367-3.669,0.906-5.394C41.619,101.187,40.041,100.759,39.728,101.761L39.728,101.761z"/>
			</g>
		</g>
		<g>
			<g>
				<path style="&st0;" d="M43.899,101.868c-0.156-0.156-0.312-0.312-0.468-0.468c-0.746-0.746-1.902,0.41-1.156,1.156
					c0.156,0.156,0.312,0.312,0.468,0.468C43.489,103.77,44.645,102.614,43.899,101.868L43.899,101.868z"/>
			</g>
		</g>
		<g>
			<g>
				<path style="&st0;" d="M40.298,101.364c18.354,4.273,37.652,3.388,56.077,0c1.036-0.19,0.596-1.766-0.435-1.576
					c-18.117,3.331-37.16,4.201-55.208,0C39.707,99.549,39.272,101.125,40.298,101.364L40.298,101.364z"/>
			</g>
		</g>
		<g>
			<g>
				<path style="&st0;" d="M95.34,101.043c0,1.87,0,3.741,0,5.611c0,1.054,1.634,1.054,1.634,0c0-1.87,0-3.741,0-5.611
					C96.975,99.989,95.34,99.989,95.34,101.043L95.34,101.043z"/>
			</g>
		</g>
		<g>
			<g>
				<path style="&st0;" d="M39.831,109.313c18.965,4.136,40.7,6.772,59.077-1.018c0.968-0.41,0.134-1.818-0.825-1.411
					c-17.897,7.586-39.377,4.874-57.818,0.853C39.238,107.513,38.801,109.088,39.831,109.313L39.831,109.313z"/>
			</g>
		</g>
		<g>
			<g>
				<path style="&st0;" d="M43.671,101.511c3.228-26.033,41.7-22.79,47.958-0.25c0.282,1.014,1.859,0.583,1.576-0.435
					c-6.794-24.471-47.726-27.079-51.169,0.685C41.907,102.555,43.543,102.543,43.671,101.511L43.671,101.511z"/>
			</g>
		</g>
		<g>
			<g>
				<path style="&st0;" d="M74.432,97.156c0.617,0.248,1.227,0.511,1.833,0.785c0.235,0.106,0.47,0.214,0.703,0.326
					c0.121,0.058,0.517,0.326,0.207,0.065c-0.07-0.12-0.14-0.24-0.21-0.361c0,0.001,0.001,0.002,0.001,0.003
					c0.19-0.335,0.381-0.67,0.571-1.005c-0.001,0-0.003,0.001-0.004,0.001c0.145,0,0.29,0,0.435,0
					c-0.119-0.021-0.399-0.152-0.387-0.147c-0.531-0.224-1.057-0.458-1.584-0.692c-0.407-0.181-0.875-0.123-1.118,0.293
					c-0.206,0.352-0.114,0.937,0.293,1.118c0.619,0.275,1.238,0.548,1.862,0.81c0.321,0.135,0.575,0.265,0.937,0.194
					c0.399-0.078,0.733-0.615,0.571-1.005c-0.226-0.544-0.789-0.708-1.29-0.937c-0.787-0.36-1.583-0.7-2.386-1.023
					c-0.414-0.166-0.897,0.178-1.005,0.571C73.733,96.617,74.019,96.99,74.432,97.156L74.432,97.156z"/>
			</g>
		</g>
		<g>
			<g>
				<path style="&st0;" d="M76.757,97.715c2.946-4.148,5.798-8.363,8.779-12.487c1.521-2.103,3.106-4.156,4.805-6.118
					c0.576-0.665,1.438-1.17,1.503-2.096c0.04-0.576-0.549-0.868-1.035-0.788c-1.013,0.167-2.663,1.32-2.773,2.418
					c-0.058,0.581,0.562,0.86,1.035,0.788c0.097-0.015,0.193-0.03,0.29-0.044c-0.345-0.263-0.69-0.525-1.035-0.788
					c0.127,1.018,1.322,1.272,2.209,1.176c0.454-0.049,0.802-0.335,0.817-0.817c0.06-1.91-1.471-2.059-2.894-1.615
					c-1.003,0.313-0.574,1.891,0.435,1.576c0.275,0.013,0.55,0.026,0.825,0.039c0.272-0.272,0.545-0.545,0.817-0.817
					c-0.191,0.153-0.383,0.305-0.574,0.458c-0.071-0.568-0.465-0.875-1.035-0.788c-0.097,0.015-0.193,0.03-0.29,0.044
					c0.345,0.263,0.69,0.525,1.035,0.788c-0.028,0.277,1.16-0.774,1.573-0.842c-0.345-0.263-0.69-0.525-1.035-0.788
					c-0.036,0.506-2.622,2.841-3.053,3.378c-1.316,1.637-2.548,3.343-3.779,5.044c-2.732,3.779-5.332,7.652-8.032,11.454
					C74.734,97.752,76.153,98.567,76.757,97.715L76.757,97.715z"/>
			</g>
		</g>
		<g>
			<g>
				<path style="&st0;" d="M55.891,89.592c0.877-0.611,1.965-1.213,2.514-2.164c0.216-0.375,0.101-0.907-0.293-1.118
					c-1.079-0.577-2.567,0.486-3.514,0.935c0.373,0.098,0.745,0.195,1.118,0.293c-1.613-3.796-3.468-7.483-5.403-11.123
					c-0.94-1.769-1.929-3.51-2.963-5.225c-0.393-0.653-0.814-1.288-1.242-1.919c-0.773-1.139-1.805-0.623-1.156,0.857
					c0.423,0.963,1.831,0.131,1.411-0.825c-0.35-0.798-0.582-1.833-1.581-1.886c-0.346-0.018-0.714,0.261-0.788,0.6
					c-0.455,2.081,2.888,5.569,3.878,7.336c2.362,4.214,4.541,8.564,6.431,13.01c0.185,0.434,0.757,0.464,1.118,0.293
					c1.189,0.106,1.81-0.206,1.864-0.935c-0.098-0.373-0.195-0.745-0.293-1.118c-0.527,0.655-1.169,1.18-1.928,1.577
					C54.208,88.778,55.023,90.196,55.891,89.592L55.891,89.592z"/>
			</g>
		</g>
		<g>
			<g>
				<path style="&st0;" d="M43.092,69.193c0.614-0.874,1.696-1.413,2.078-2.447c0.524-1.418-1.68-1.661-2.536-1.631
					c-1.13,0.04-1.347,1.459-1.371,2.327c-0.027,0.956,0.578,2.347,1.702,1.449c-0.455-0.12-0.911-0.24-1.366-0.361
					c0.361,1.749,6.073-0.089,3.704-2.665c-0.187-0.203-0.532-0.299-0.795-0.21c-0.658,0.222-3.379,0.941-2.471,2.225
					c0.219,0.31,0.5,0.464,0.837,0.615c0.162,0.073,0.319,0.151,0.472,0.243c0.101,0.061,0.101,0.148,0.095,0.042
					c0.033,0.553,0.494,0.899,1.035,0.788c1.102-0.227,1.066-1.797,1.068-2.658c0.001-0.413-0.373-0.86-0.817-0.817
					c-1.014,0.097-4.012,0.233-3.221,2.034c0.189,0.43,0.665,0.722,1.028,0.987c0.31,0.226,0.869,0.642,0.937,0.819
					c0.374,0.973,1.955,0.551,1.576-0.435c-0.327-0.851-1.06-1.337-1.769-1.855c-0.147-0.107-0.169-0.123-0.311-0.259
					c-0.159-0.152,0.065,0.124-0.029-0.035c0.133,0.226,0.084,0.572-0.142,0.724c0.438-0.295,1.383-0.294,1.93-0.346
					c-0.272-0.272-0.545-0.545-0.817-0.817c0,0.231-0.005,0.462-0.017,0.693c-0.005,0.094-0.014,0.188-0.024,0.282
					c-0.06,0.416-0.181,0.181,0.174,0.108c0.345,0.263,0.69,0.525,1.035,0.788c-0.049-0.821-0.589-1.328-1.298-1.661
					c-0.121-0.057-0.243-0.109-0.363-0.167c-0.039-0.019-0.077-0.04-0.115-0.062c0.315,0.18,0.287,0.793,0.006,1.006
					c0.452-0.344,1.111-0.488,1.637-0.666c-0.265-0.07-0.53-0.14-0.795-0.21c0.028,0.03,0.094,0.146,0.09,0.13
					c-0.054-0.183,0.068-0.226-0.023-0.122c-0.154,0.175-0.392,0.274-0.6,0.371c-0.217,0.1-0.472,0.151-0.705,0.2
					c-0.281,0.058,0.085,0.002-0.16,0.018c-0.349,0.022,0.313-0.07,0.427,0.48c-0.137-0.662-0.927-0.711-1.366-0.361
					c1.016-0.812,1.254,0.738,1.106,0.107c0.031,0.134-0.015-0.188-0.014-0.172c-0.012-0.198-0.01-0.409,0.018-0.606
					c0.026-0.183,0.071-0.375,0.141-0.5c-0.105,0.187-0.723,0.079-0.423,0.199c0.255,0.102,0.64,0.037,0.913,0.058
					c0.047,0.004,0.224,0.035,0.26,0.052c-0.404-0.195-0.097-0.769-0.254-0.52c-0.118,0.186-0.326,0.347-0.483,0.499
					c-0.498,0.481-0.992,0.947-1.392,1.516C41.073,69.233,42.491,70.048,43.092,69.193L43.092,69.193z"/>
			</g>
		</g>
		<g>
			<g>
				<path style="&st0;" d="M67.418,88.272c0.367,0.103,0.735,0.21,1.078,0.378c0.124,0.061,0.242,0.134,0.355,0.213
					c-0.176-0.122,0.179,0.246,0.005,0.001c0.099,0.139-0.001-0.041-0.01-0.128c-0.005-0.051,0.006-0.034,0.055-0.145
					c-0.088,0.2,0.03-0.009-0.017,0.044c-0.046,0.053-0.288,0.241-0.081,0.089c-0.131,0.097-0.277,0.174-0.425,0.242
					c-0.08,0.037,0.162-0.058-0.059,0.018c-0.062,0.021-0.126,0.039-0.19,0.054c-0.198,0.047,0.213-0.011,0.038-0.004
					c-0.083-0.002-0.032,0.006,0.154,0.024c-0.424-0.068,0.229,1.466,0.453,1.091c-0.138,0.232-0.076,0.099,0.014,0.025
					c-0.202,0.166,0.134-0.077,0.195-0.114c0.899-0.547,0.078-1.961-0.825-1.411c-0.307,0.187-0.582,0.384-0.795,0.675
					c-0.377,0.516,0.019,1.1,0.508,1.306c0.483,0.203,1.237-0.171,1.635-0.413c0.632-0.383,1.129-1.045,0.924-1.818
					c-0.279-1.049-1.678-1.452-2.576-1.703C66.836,86.411,66.404,87.988,67.418,88.272L67.418,88.272z"/>
			</g>
		</g>
		<g>
			<g>
				<path style="&st0;" d="M70.294,83.96c0.951-4.997,1.398-10.095,1.432-15.18c0.007-1.054-1.627-1.054-1.634,0
					c-0.033,4.939-0.45,9.891-1.374,14.745C68.522,84.555,70.097,84.995,70.294,83.96L70.294,83.96z"/>
			</g>
		</g>
		<g>
			<g>
				<path style="&st0;" d="M68.453,88.886c0.55-7.258,1.276-14.63,2.776-21.759c0.216-1.028-1.359-1.466-1.576-0.435
					c-1.53,7.268-2.274,14.797-2.835,22.194C66.738,89.938,68.373,89.93,68.453,88.886L68.453,88.886z"/>
			</g>
		</g>
		<g>
			<g>
				<path style="&st0;" d="M68.103,66.792c1.87,0,3.741,0,5.611,0c1.054,0,1.054-1.634,0-1.634c-2.026,0-4.052,0-6.079,0
					c-1.06,0-1.047,1.582,0,1.634c0.745,0.037,1.5,0.229,2.236,0.344c0.767,0.12,1.818,0.433,2.592,0.212
					c1.147-0.327,0.611-1.418-0.063-1.903c-1.226-0.881-2.401-0.801-3.83-0.755c-1.051,0.034-1.055,1.669,0,1.634
					c0.771-0.025,1.485-0.145,2.242,0.074c0.548,0.457,0.997,0.242,1.347-0.646c-0.081,0.004-0.162,0.004-0.242,0
					c-0.306-0.007-0.615-0.05-0.917-0.091c-1.114-0.15-2.241-0.448-3.364-0.505c0,0.545,0,1.09,0,1.634c2.026,0,4.052,0,6.079,0
					c1.054,0,1.054-1.634,0-1.634c-1.87,0-3.741,0-5.611,0C67.049,65.158,67.049,66.792,68.103,66.792L68.103,66.792z"/>
			</g>
		</g>
		<g>
			<g>
				<path style="&st0;" d="M89.199,80.24c9.419,4.662,17.39,11.632,26.185,17.3c0.669,0.431,1.297-0.275,1.201-0.923
					c-0.18-0.849,0.062-1.519,0.725-2.01c-0.428-0.33-0.856-0.66-1.284-0.99c-0.856,1.162-0.514,2.089-2.1,1.933
					c0.193,0.465,0.385,0.93,0.578,1.395c0.137-0.272,0.275-0.544,0.412-0.816c-0.938,0.482-0.111,1.892,0.825,1.411
					c2.333-1.2,0.205-3.81-2.393-1.751c-0.623,0.494-0.039,1.335,0.578,1.395c3.029,0.297,1.981-0.666,3.511-2.743
					c0.551-0.749-0.68-1.688-1.284-0.99c-1.238,1.432-1.434,1.661-1.145,3.601c0.4-0.308,0.8-0.615,1.201-0.923
					c-8.795-5.668-16.766-12.639-26.185-17.301C89.083,78.363,88.254,79.773,89.199,80.24L89.199,80.24z"/>
			</g>
		</g>
		<g>
			<g>
				<path style="&st0;" d="M114.338,97.073c0.476-0.211,1.061-0.472,1.481-0.648c0.125-0.053,0.251-0.104,0.378-0.153
					c0.16-0.062,0.279-0.024-0.023-0.032c-0.137-0.037-0.275-0.074-0.412-0.112c0.001,0.001,0.002,0.001,0.003,0.002
					c-0.125-0.308-0.25-0.615-0.376-0.923c0,0.001-0.001,0.003-0.001,0.004c0.07-0.12,0.14-0.24,0.21-0.361
					c0.197-0.222,0.066-0.057-0.084,0.025c-0.159,0.087-0.32,0.17-0.481,0.254c-0.349,0.18-0.701,0.356-1.052,0.532
					c-0.943,0.471-0.115,1.881,0.825,1.411c0.388-0.194,0.775-0.388,1.16-0.587c0.389-0.201,0.858-0.387,1-0.844
					c0.117-0.379-0.086-0.704-0.376-0.923c-0.324-0.244-0.734-0.064-1.055,0.067c-0.68,0.277-1.351,0.577-2.022,0.875
					c-0.407,0.181-0.499,0.766-0.293,1.118C113.464,97.196,113.931,97.254,114.338,97.073L114.338,97.073z"/>
			</g>
		</g>
		<g>
			<g>
				<path style="&st0;" d="M115.439,96.945c5.191-6.671,9.849-13.668,13.688-21.207c0.477-0.937-0.933-1.764-1.411-0.825
					c-3.773,7.41-8.328,14.317-13.432,20.876C113.644,96.611,114.792,97.777,115.439,96.945L115.439,96.945z"/>
			</g>
		</g>
		<g>
			<g>
				<path style="&st0;" d="M129.127,75.271c0.203-0.391,0.744-0.915,0.546-1.4c-0.387-0.946-1.242-0.502-1.936-0.268
					c0.308,0.125,0.615,0.25,0.923,0.376c0.035,0.079,0.001,0.235-0.077,0.317c-0.052,0.054-0.062,0.04,0.087,0.002
					c0.044-0.01,0.089-0.019,0.133-0.026c-0.115,0.014-0.131,0.017-0.047,0.009c0.044-0.004,0.088-0.006,0.132-0.007
					c-0.263-0.345-0.525-0.69-0.788-1.035c-0.198,0.53-0.396,1.06-0.564,1.6c-0.1,0.32-0.164,0.631,0.007,0.946
					c0.17,0.313,0.583,0.481,0.923,0.376c0.956-0.298,1.094-2.165,0.533-2.815c-0.69-0.799-1.841,0.362-1.156,1.156
					c-0.012-0.014-0.163-0.32-0.13-0.2c0.033,0.119-0.009-0.218-0.01,0.01c0,0.056-0.035,0.295,0.003,0.045
					c-0.011,0.072-0.027,0.144-0.043,0.215c-0.026,0.114-0.059,0.226-0.095,0.337c-0.088,0.268,0.028-0.025,0.107-0.115
					c0.12-0.07,0.24-0.14,0.361-0.21c-0.001,0-0.003,0.001-0.004,0.001c0.308,0.125,0.615,0.25,0.923,0.376
					c-0.001-0.001-0.001-0.003-0.002-0.004c0.037,0.137,0.074,0.275,0.112,0.412c0.005,0.131-0.044,0.239,0,0.069
					c0.028-0.105,0.062-0.209,0.095-0.312c0.157-0.489,0.338-0.971,0.517-1.452c0.188-0.502-0.292-1.039-0.788-1.035
					c-0.411,0.004-0.821,0.098-1.185,0.291c-0.729,0.389-0.752,1.205-0.456,1.874c0.14,0.317,0.607,0.482,0.923,0.376
					c0.206-0.069,0.411-0.141,0.615-0.215c0.049-0.018,0.098-0.035,0.148-0.052c0.227-0.079,0.044,0.066-0.266-0.036
					c-0.19-0.19-0.381-0.381-0.571-0.571c0.001,0.003,0.003,0.007,0.004,0.01c0-0.145,0-0.29,0-0.435
					c0.071-0.293,0.006-0.068-0.084,0.061c-0.113,0.16-0.21,0.33-0.301,0.504C127.231,75.38,128.641,76.207,129.127,75.271
					L129.127,75.271z"/>
			</g>
		</g>
		<g>
			<g>
				<path style="&st0;" d="M128.421,76.611c4.508-0.458,9.502,0.298,13.615,2.226c0.948,0.445,1.779-0.964,0.825-1.411
					c-4.358-2.044-9.646-2.936-14.44-2.449C127.383,75.082,127.372,76.718,128.421,76.611L128.421,76.611z"/>
			</g>
		</g>
		<g>
			<g>
				<path style="&st0;" d="M142.128,79.752c0.293,0.947,0.857,1.948,2.03,1.626c1.489-0.409,1.477-2.01,1.929-3.142
					c0.1-0.251-0.014-0.621-0.21-0.795c-0.007-0.007-0.015-0.013-0.022-0.02c-0.364-0.323-0.789-0.288-1.156,0
					c-0.746,0.586-2.483,2.574-1.869,3.595c0.203,0.338,0.553,0.439,0.923,0.376c0.192-0.033,0.341-0.12,0.51-0.216
					c-0.4-0.163-0.8-0.326-1.201-0.488c0.017,0.081,0.035,0.162,0.052,0.243c0.101,0.475,0.586,0.631,1.005,0.571
					c0.701-0.1,1.087-0.998,1.372-1.553c0.279-0.542-0.061-1.23-0.706-1.23c-0.468,0-0.935,0-1.403,0
					c-0.382,0-0.667,0.253-0.788,0.6c-0.114,0.324-0.348,0.595-0.468,0.935c-0.325,0.927,0.994,1.346,1.494,0.63
					c2.638-3.785,4.664-7.957,6.546-12.157c0.427-0.953-0.981-1.785-1.411-0.825c-1.882,4.2-3.908,8.372-6.546,12.157
					c0.498,0.21,0.996,0.42,1.494,0.63c0.114-0.324,0.348-0.595,0.468-0.935c-0.263,0.2-0.525,0.4-0.788,0.6
					c0.468,0,0.935,0,1.403,0c-0.235-0.41-0.47-0.82-0.706-1.23c-0.055,0.108-0.37,0.799-0.395,0.802
					c0.335,0.19,0.67,0.381,1.005,0.571c-0.017-0.081-0.035-0.162-0.052-0.243c-0.112-0.526-0.763-0.737-1.201-0.488
					c-0.04,0.017-0.08,0.034-0.119,0.051c0.308,0.125,0.615,0.25,0.923,0.376c-0.008,0.514,0.061,0.585,0.207,0.212
					c0.164-0.291,0.369-0.562,0.563-0.833c0.241-0.337,0.512-0.732,0.844-0.993c-0.385,0-0.771,0-1.156,0
					c-0.149-0.742-0.236-0.89-0.263-0.445c0.158,0.883-0.086,1.278-0.733,1.185C143.394,78.314,141.816,78.742,142.128,79.752
					L142.128,79.752z"/>
			</g>
		</g>
		<g>
			<g>
				<path style="&st0;" d="M149.609,68.062c0.161,0.767,0.642,2.378,1.775,1.683c0.822-0.504,0.759-2.017,0.765-2.835
					c-0.08,0.193-0.16,0.385-0.239,0.578c0.411-0.419,0.543-1.093-0.049-1.451c-0.433-0.262-0.874-0.016-1.241,0.222
					c-0.762,0.493-1.523,1.071-2.145,1.734c-0.294,0.314-0.54,0.663-0.562,1.105c-0.017,0.337,0.189,0.613,0.447,0.799
					c0.083,0.06,0.184,0.093,0.281,0.124c0.54,0.174,0.102,0.011-0.031-0.054c0.688,0.339,2.82,1.401,3.044-0.034
					c-0.535-0.072-1.07-0.145-1.605-0.217c0.066,0.787,0.879,1.125,1.471,0.597c0.31-0.276,0.511-0.757,0.694-1.12
					c0.21-0.416,0.457-0.867,0.497-1.339c0.072-0.858-0.958-1.075-1.488-0.587c0.193-0.08,0.385-0.16,0.578-0.239
					c-0.854,0.031-1.825,0.358-2.318,1.104c-0.311,0.47-0.037,1.125,0.485,1.282c0.469,0.141,0.932-0.152,1.31-0.395
					c0.882-0.569,0.063-1.985-0.825-1.411c-0.089,0.06-0.181,0.117-0.274,0.171c-0.219,0.131-0.022-0.014,0.224,0.06
					c0.163,0.125,0.326,0.25,0.488,0.376c0.505,0.719-0.304,0.971,0.051,0.725c0.11-0.076,0.232-0.138,0.357-0.184
					c0.166-0.061,0.327-0.085,0.502-0.091c0.169-0.006,1.028-0.373,0.29-0.082c-0.145,0-0.29,0-0.435,0
					c0.004,0.001,0.009,0.002,0.013,0.002c-0.163-0.125-0.326-0.25-0.488-0.376c-0.034-0.127-0.068-0.254-0.102-0.381
					c0.028-0.167,0.031-0.205,0.009-0.112c-0.02,0.077-0.052,0.152-0.081,0.227c0.065-0.165-0.042,0.091-0.046,0.099
					c-0.05,0.111-0.104,0.22-0.158,0.328c-0.093,0.188-0.193,0.372-0.297,0.554c-0.048,0.084-0.099,0.166-0.152,0.247
					c-0.055,0.078-0.044,0.065,0.035-0.04c-0.107,0.111-0.014,0.062,0.279-0.149c0.21,0.027,0.42,0.055,0.63,0.082
					c-0.004-0.002-0.007-0.005-0.011-0.007c0.125,0.163,0.25,0.326,0.376,0.488c0.007,0.057,0.013,0.115,0.02,0.172
					c-0.072-0.855-1.454-1.187-1.605-0.217c0.124-0.281,0.313-0.437,0.567-0.47c0.181-0.002-0.076-0.022-0.107-0.03
					c-0.167-0.043-0.329-0.106-0.49-0.168c-0.198-0.076-0.41-0.176-0.613-0.275c-0.167-0.081-0.304-0.121-0.491-0.127
					c0.409,0.013,0.648,0.611,0.593,0.792c-0.098,0.322,0.122-0.121-0.031,0.073c0.069-0.087,0.146-0.168,0.224-0.248
					c0.383-0.396,0.81-0.729,1.181-1.002c0.191-0.141,0.387-0.277,0.586-0.406c0.069-0.045,0.139-0.087,0.211-0.127
					c0.021-0.011,0.042-0.022,0.063-0.033c-0.209,0.105-0.42,0.159-0.726-0.026c-0.125-0.163-0.25-0.326-0.376-0.488
					c0.001,0.002,0.001,0.005,0.002,0.007c0-0.145,0-0.29,0-0.435c0.027-0.105,0.28-0.403,0.085-0.204
					c-0.293,0.299-0.236,0.707-0.251,1.089c-0.01,0.265-0.034,0.528-0.082,0.788c-0.019,0.106-0.047,0.209-0.077,0.312
					c0.007-0.013,0.015-0.026,0.022-0.039c-0.107,0.182-0.003,0.116,0.315-0.201c0.145,0,0.29,0,0.435,0
					c0.374,0.066,0.368,0.419,0.244,0.054c-0.078-0.23-0.125-0.471-0.174-0.708C150.968,66.597,149.393,67.034,149.609,68.062
					L149.609,68.062z"/>
			</g>
		</g>
		<g>
			<g>
				<path style="&st0;" d="M151.185,67.595c0.922-2.718,1.85-5.26,1.9-8.166c0.015-0.905-1.441-1.139-1.605-0.217
					c-0.478,2.685-1.309,5.283-1.87,7.949C150.134,67.305,150.66,67.45,151.185,67.595c0.5-2.539,0.929-5.105,0.964-7.699
					c0.015-1.055-1.62-1.053-1.634,0c-0.034,2.451-0.433,4.864-0.906,7.264C149.407,68.187,150.967,68.629,151.185,67.595
					c0.562-2.666,1.392-5.264,1.87-7.949c-0.535-0.072-1.07-0.145-1.605-0.217c-0.047,2.756-0.968,5.159-1.841,7.732
					C149.27,68.161,150.849,68.587,151.185,67.595L151.185,67.595z"/>
			</g>
		</g>
		<g>
			<g>
				<path style="&st0;" d="M152.735,60.246c2.015,0.201,4.052,0.446,6.079,0.468c1.056,0.011,1.051-1.601,0-1.634
					c-1.875-0.059-3.731-0.444-5.611-0.468c0,0.545,0,1.09,0,1.634c1.181-0.087,2.355-0.108,3.534,0.013
					c0.318,0.033,0.632,0.097,0.943,0.171c0.422,0.101,0.265,0.172-0.027-0.211c0.163-0.4,0.326-0.8,0.488-1.201
					c0.404-0.143,0.351,0.01-0.045-0.145c-0.419-0.163-0.817-0.4-1.207-0.619c-0.92-0.516-1.744,0.896-0.825,1.411
					c0.567,0.318,1.783,1.187,2.512,0.928c0.444-0.158,0.831-0.75,0.488-1.201c-0.346-0.454-0.907-0.543-1.441-0.644
					c-1.453-0.276-2.952-0.247-4.42-0.139c-1.04,0.077-1.065,1.621,0,1.634c1.88,0.024,3.736,0.408,5.611,0.468
					c0-0.545,0-1.09,0-1.634c-2.027-0.021-4.063-0.267-6.079-0.468C151.686,58.507,151.696,60.142,152.735,60.246L152.735,60.246z"
					/>
			</g>
		</g>
		<g>
			<g>
				<path style="&st0;" d="M151.332,69.13c1.63-0.054,3.319-0.447,4.926-0.029c1.021,0.265,1.448-1.29,0.435-1.576
					c-1.602-0.453-3.238-0.494-4.893-0.497c0,0.545,0,1.09,0,1.634c2.026,0,4.052,0,6.079,0c-0.137-0.508-0.275-1.015-0.412-1.523
					c-0.7,0.383-2.521-0.489-3.328-0.579c0.072,0.535,0.145,1.07,0.217,1.605c1.804-0.31,3.593,0.406,5.394,0.497
					c0.485,0.024,0.764-0.394,0.817-0.817c0.156-1.247,0.312-2.494,0.468-3.741c0.12-0.958-1.33-1.044-1.605-0.217
					c-0.369,1.106-0.497,1.829-0.497,3.023c0,1.054,1.629,1.054,1.634,0c0.005-0.916,0.165-1.714,0.438-2.588
					c0.316-1.011-1.251-1.431-1.576-0.435c-0.224,0.687-0.414,1.369-0.497,2.088c0.545,0,1.09,0,1.634,0
					c0.001-0.237-0.053-1.571,0.063-1.632c-0.41-0.235-0.82-0.47-1.23-0.706c-0.065,0.561-0.264,1.118-0.438,1.653
					c0.525,0.145,1.051,0.29,1.576,0.435c0.154-0.721,0.306-1.442,0.455-2.164c0.075-0.361,0.447-1.125,0-0.601
					c-0.465-0.193-0.93-0.385-1.395-0.578c-0.003,1.267-0.329,2.619,0.509,3.704c0.644,0.833,1.792-0.333,1.156-1.156
					c-0.419-0.542-0.032-1.903-0.03-2.548c0.002-0.673-0.918-1.136-1.395-0.578c-0.672,0.785-0.675,2.546-0.876,3.486
					c-0.22,1.031,1.248,1.438,1.576,0.435c0.224-0.687,0.414-1.369,0.497-2.088c0.076-0.656-0.738-0.964-1.23-0.706
					c-0.989,0.521-0.869,2.097-0.872,3.044c-0.004,1.079,1.517,1.02,1.634,0c0.065-0.561,0.264-1.118,0.438-1.653
					c-0.525-0.145-1.051-0.29-1.576-0.435c-0.319,1.021-0.491,1.955-0.497,3.023c0.545,0,1.09,0,1.634,0
					c0-0.993,0.13-1.664,0.438-2.588c-0.535-0.072-1.07-0.145-1.605-0.217c-0.156,1.247-0.312,2.494-0.468,3.741
					c0.272-0.272,0.545-0.545,0.817-0.817c-2.007-0.101-3.809-0.785-5.828-0.438c-0.983,0.169-0.622,1.512,0.217,1.605
					c1.305,0.145,2.879,1.052,4.153,0.356c0.723-0.395,0.386-1.523-0.412-1.523c-2.026,0-4.052,0-6.079,0
					c-1.054,0-1.054,1.633,0,1.634c1.509,0.003,2.996,0.025,4.459,0.438c0.145-0.525,0.29-1.051,0.435-1.576
					c-1.772-0.46-3.567-0.088-5.361-0.029C150.281,67.53,150.278,69.165,151.332,69.13L151.332,69.13z"/>
			</g>
		</g>
		<g>
			<g>
				<path style="&st0;" d="M41.68,66.03c-5.127,7.548-9.622,15.508-14.963,22.911c-0.618,0.857,0.801,1.671,1.411,0.825
					c5.341-7.404,9.836-15.364,14.963-22.911C43.686,65.98,42.269,65.164,41.68,66.03L41.68,66.03z"/>
			</g>
		</g>
		<g>
			<g>
				<path style="&st0;" d="M26.809,88.669c-0.018-0.088-0.065-0.431-0.024-0.116c-0.01-0.075-0.016-0.15-0.02-0.225
					c-0.002-0.033-0.001-0.067,0-0.1c-0.003,0.102-0.061,0.417-0.351,0.556c-0.137,0.037-0.275,0.074-0.412,0.112
					c-0.284,0.026-0.449-0.143-0.537-0.261c0.071,0.096,0.127,0.203,0.184,0.308c0.228,0.416,0.414,0.857,0.602,1.292
					c0.115,0.266,0.441,0.389,0.706,0.405c-0.055-0.007-0.111-0.015-0.166-0.022c-0.12-0.07-0.24-0.14-0.361-0.21
					c0.003,0.003,0.006,0.006,0.01,0.009c-0.08-0.193-0.16-0.385-0.239-0.578c0,0.004,0,0.008,0,0.012
					c0.037-0.137,0.074-0.275,0.112-0.412c0.214-0.343,0.312-0.269,0.069-0.143c-0.06,0.031-0.121,0.058-0.182,0.086
					c0.162-0.073-0.073,0.029-0.087,0.035c-0.141,0.056-0.285,0.105-0.43,0.149c-0.06,0.018-0.121,0.033-0.182,0.048
					c-0.017,0.003-0.034,0.007-0.052,0.01c0.16-0.042,0.316-0.015,0.467,0.079c0.098,0.098,0.195,0.195,0.293,0.293
					c-0.003-0.004-0.006-0.009-0.009-0.013c0.037,0.137,0.074,0.275,0.112,0.412c-0.059,0.158-0.119,0.316-0.178,0.474
					c0.301-0.329,0.325-0.83,0-1.156c-0.138-0.139-0.272-0.282-0.404-0.427c-0.074-0.081-0.28-0.322-0.276-0.316
					c-0.047-0.061-0.09-0.126-0.131-0.191c-0.011-0.019-0.022-0.038-0.033-0.057c0.065,0.131,0.076,0.272,0.032,0.423
					c-0.07,0.12-0.14,0.24-0.21,0.361c-0.04,0.031-0.079,0.062-0.119,0.093c-0.137,0.037-0.275,0.074-0.412,0.112
					c0.453-0.051,0.882-0.242,1.334-0.322c-0.066,0.01-0.055,0.011,0.035,0.003c0.216-0.012-0.152-0.046,0.009-0.007
					c-0.217-0.072-0.36-0.219-0.429-0.438c-0.093-0.291,0.041-0.448-0.024-0.257c0.085-0.247-0.02-0.003-0.066,0.064
					c-0.052,0.07-0.044,0.061,0.022-0.028c-0.037,0.047-0.077,0.091-0.116,0.136c-0.117,0.133-0.242,0.259-0.367,0.384
					c-0.746,0.746,0.41,1.902,1.156,1.156c0.383-0.383,0.735-0.774,0.947-1.278c0.362-0.86-0.556-1.429-1.292-1.354
					c-0.913,0.094-2.574,0.451-1.937,1.724c0.258,0.517,0.721,0.968,1.126,1.375c0-0.385,0-0.771,0-1.156
					c-0.405,0.442-0.419,1.364,0.327,1.492c0.412,0.071,0.786-0.043,1.17-0.184c0.364-0.134,0.81-0.279,1.096-0.559
					c0.581-0.568,0.13-1.411-0.612-1.456c0.235,0.135,0.47,0.27,0.706,0.405c-0.293-0.679-1.121-3.001-2.261-1.892
					c-0.411,0.4-0.266,1.091-0.168,1.587C25.437,90.137,27.012,89.698,26.809,88.669L26.809,88.669z"/>
			</g>
		</g>
		<g>
			<g>
				<path style="&st0;" d="M24.003,80.72c-1.403-4.676-2.805-9.352-4.208-14.027c-0.525,0.145-1.051,0.29-1.576,0.435
					c2.285,6.827,4.652,13.624,6.546,20.574c0.277,1.016,1.854,0.584,1.576-0.435c-1.894-6.95-4.261-13.746-6.546-20.574
					c-0.332-0.991-1.881-0.582-1.576,0.435c1.403,4.676,2.805,9.352,4.208,14.027C22.729,82.162,24.307,81.732,24.003,80.72
					L24.003,80.72z"/>
			</g>
		</g>
		<g>
			<g>
				<path style="&st0;" d="M17.954,67.378c0.034-0.813,1.206-1.486,1.681-2.109c0.354-0.464,0.183-1.16-0.322-1.43
					c-0.626-0.334-1.513-0.155-2.176-0.084c0.235,0.135,0.47,0.27,0.706,0.405c-0.262-0.466-0.81-0.712-1.308-0.437
					c-0.359,0.198-0.516,0.589-0.645,0.955c-0.135,0.383-0.213,0.789-0.293,1.186c-0.036,0.177-0.069,0.354-0.102,0.531
					c-0.024,0.126-0.157,0.481,0.008,0.144c0.308-0.125,0.615-0.25,0.923-0.376c-0.001,0-0.002-0.001-0.004-0.001
					c0.19,0.19,0.381,0.381,0.571,0.571c0.009,0.06,0.018,0.119,0.026,0.179c-0.41,0.235-0.82,0.47-1.23,0.706
					c0.714,0.355,2.806,1.414,3.071-0.021c-0.525,0-1.051,0-1.576,0c0.08,0.596,0.838,0.808,1.303,0.532
					c0.363-0.215,0.644-0.561,0.905-0.886c0.313-0.391,0.63-0.802,0.805-1.277c0.179-0.483-0.036-1.152-0.604-1.245
					c0.065,0.498,0.13,0.996,0.195,1.494c0.449-0.257,0.728-0.864,0.41-1.338c-0.274-0.408-0.697-0.598-1.137-0.777
					c-0.431-0.176-0.875-0.317-1.32-0.453c-0.206-0.063-0.412-0.124-0.618-0.186c-0.326-0.099-0.263-0.148-0.011,0.078
					c0.07,0.265,0.14,0.53,0.21,0.795c0-0.002,0.001-0.004,0.001-0.005c-0.19,0.19-0.381,0.381-0.571,0.571
					c-0.061,0.008-0.122,0.017-0.183,0.025c-0.272-0.272-0.545-0.545-0.817-0.817c0.075,0.792,0.269,4.414,2.017,3.403
					c0.592-0.343,0.833-1.158,0.991-1.783c0.258-1.022-1.318-1.456-1.576-0.435c-0.03,0.117-0.065,0.233-0.101,0.348
					c-0.034,0.108-0.073,0.215-0.114,0.321c-0.073,0.191,0.074-0.161-0.011,0.022c-0.023,0.051-0.05,0.1-0.078,0.149
					c-0.079,0.142,0.049-0.033,0.228-0.104c0.245-0.097,0.535,0.043,0.675,0.238c-0.013-0.018-0.091-0.196-0.041-0.066
					c-0.251-0.652-0.291-1.406-0.357-2.092c-0.04-0.426-0.341-0.841-0.817-0.817c-0.381,0.019-0.717,0.223-0.824,0.61
					c-0.074,0.269-0.003,0.604,0.21,0.795c0.393,0.352,1.065,0.44,1.554,0.591c0.345,0.107,0.688,0.222,1.024,0.353
					c0.029,0.011,0.207,0.098,0.287,0.141c0.048,0.026,0.199,0.161,0.038,0.017c-0.265-0.237-0.196-0.823,0.103-0.994
					c-0.569,0.326-0.527,1.376,0.195,1.494c-0.398-0.21-0.569-0.485-0.515-0.825c0.05-0.186-0.027,0.042-0.047,0.077
					c-0.101,0.183-0.226,0.354-0.349,0.522c-0.11,0.151-0.237,0.291-0.363,0.429c-0.061,0.067-0.125,0.13-0.191,0.193
					c-0.019,0.017-0.038,0.034-0.057,0.051c0.15-0.134,0.34-0.167,0.57-0.099c0.163,0.125,0.326,0.25,0.488,0.376
					c0.022,0.047,0.043,0.094,0.065,0.142c-0.108-0.801-1.435-0.766-1.576,0c0.124-0.674,0.949-0.368,0.414-0.513
					c-0.196-0.053-0.387-0.131-0.575-0.207c-0.173-0.07-0.342-0.153-0.508-0.236c-0.531-0.264-1.248,0.05-1.23,0.706
					c0.002,0.086,0.018,0.171,0.032,0.256c0.047,0.287,0.32,0.481,0.571,0.571c0.001,0,0.002,0.001,0.004,0.001
					c0.324,0.116,0.772-0.067,0.923-0.376c0.189-0.384,0.214-0.854,0.3-1.268c0.056-0.271,0.12-0.541,0.196-0.807
					c0.009-0.03,0.121-0.349,0.06-0.204c0.018-0.04,0.038-0.078,0.06-0.115c-0.224,0.401-1.341-0.414-1.098,0.017
					c0.129,0.229,0.432,0.434,0.706,0.405c0.325-0.035,0.65-0.065,0.977-0.084c0.132-0.007,0.264-0.007,0.397-0.005
					c0.294,0.005-0.08-0.035,0.12,0.013c-0.14-0.268-0.279-0.537-0.419-0.805c0.058-0.124,0.062-0.146,0.013-0.065
					c0.112-0.169-0.035,0.023-0.058,0.047c-0.131,0.137-0.273,0.263-0.411,0.393c-0.719,0.678-1.393,1.46-1.436,2.494
					C16.275,68.432,17.91,68.428,17.954,67.378L17.954,67.378z"/>
			</g>
		</g>
		<g>
			<g>
				<path style="&st0;" d="M6.739,56.045c-1.721,2.036-1.535,4.902-2.08,7.374c0.525,0,1.051,0,1.576,0
					c-0.449-1.898,0.413-3.948,0.497-5.861c-0.508,0.137-1.015,0.275-1.523,0.412c0.705,1.452-1.576,4.809,0.293,5.904
					c2.934,1.719,6.733,1.826,9.819,3.273c0.21-0.498,0.42-0.996,0.63-1.494c-2.573-0.964-5.329-1.38-7.754-2.723
					c-0.21,0.498-0.42,0.996-0.63,1.494c2.683,0.866,5.344,1.389,8.166,1.432c1.055,0.016,1.053-1.618,0-1.634
					c-2.68-0.041-5.189-0.553-7.732-1.374c-0.888-0.287-1.435,1.047-0.63,1.494c2.553,1.415,5.436,1.873,8.144,2.888
					c0.866,0.325,1.465-1.102,0.63-1.494c-2.773-1.3-5.794-1.865-8.684-2.84c-1.621-0.547-0.738-2.233-0.53-3.51
					c0.133-0.817,0.045-1.505-0.312-2.241c-0.376-0.775-1.49-0.344-1.523,0.412c-0.091,2.09-0.933,4.205-0.438,6.296
					c0.183,0.775,1.402,0.789,1.576,0c0.457-2.071,0.224-4.954,1.66-6.653C8.571,56.401,7.421,55.239,6.739,56.045L6.739,56.045z"/>
			</g>
		</g>
		<g>
			<g>
				<path style="&st0;" d="M20.262,62.451c0.625-1.72,1.363-3.382,1.87-5.143c-0.525-0.145-1.051-0.29-1.576-0.435
					c-0.55,2.422-1.42,4.711-2.338,7.014c-0.391,0.98,1.191,1.401,1.576,0.435c0.918-2.303,1.788-4.592,2.338-7.014
					c-0.535-0.072-1.07-0.145-1.605-0.217c-0.173,2.446-1.375,4.577-2.309,6.796c0.535,0.072,1.07,0.145,1.605,0.217
					c0.112-2.353,0.803-5.405,0.014-7.712c-0.713-2.087-3.104-4.034-4.334-5.792c-0.308,0.4-0.615,0.8-0.923,1.201
					c1.466,0.312,4.228,1.677,5.123,2.897c0.614,0.839,1.902,0.129,1.411-0.825c-1.177-2.289-3.429-2.788-5.271-4.374
					c-0.33,0.428-0.66,0.856-0.99,1.284c1.914,1.019,3.697,2.254,5.611,3.273c0.275-0.47,0.55-0.941,0.825-1.411
					c-2.782-1.387-5.545-2.735-8.612-3.355c-1.029-0.208-1.467,1.367-0.435,1.576c2.928,0.592,5.563,1.865,8.221,3.191
					c0.937,0.467,1.76-0.913,0.825-1.411c-1.914-1.019-3.697-2.254-5.611-3.273c-0.789-0.42-1.721,0.655-0.99,1.284
					c1.659,1.428,3.959,1.988,5.016,4.043c0.47-0.275,0.941-0.55,1.411-0.825c-1.215-1.659-4.104-3.224-6.099-3.649
					c-0.64-0.136-1.366,0.567-0.923,1.201c1.253,1.792,2.871,3.372,4.052,5.195c1.11,1.713,0.132,5.64,0.045,7.484
					c-0.048,1.003,1.276,0.999,1.605,0.217c1.004-2.386,2.181-4.608,2.367-7.231c0.065-0.924-1.403-1.11-1.605-0.217
					c-0.55,2.422-1.42,4.711-2.338,7.014c-0.391,0.98,1.191,1.401,1.576,0.435c0.918-2.303,1.788-4.592,2.338-7.014
					c0.233-1.025-1.284-1.45-1.576-0.435c-0.507,1.762-1.245,3.424-1.87,5.143C18.325,63.01,19.905,63.434,20.262,62.451
					L20.262,62.451z"/>
			</g>
		</g>
		<g>
			<g>
				<path style="&st0;" d="M8.135,59.429c-0.036-1.874-0.423-3.886,0.356-5.666c-0.498-0.21-0.996-0.42-1.494-0.63
					c-0.431,1.724-0.856,3.451-1.403,5.143c-0.248,0.767,0.823,1.405,1.366,0.795c0.832-0.935,2.266-2.973,1.531-4.263
					c-0.282-0.495-1.151-0.57-1.411,0c-0.852,1.866-1.032,3.829-1.485,5.806c-0.235,1.026,1.341,1.462,1.576,0.435
					c0.417-1.82,0.536-3.698,1.32-5.416c-0.47,0-0.941,0-1.411,0C7.06,55.6,6.723,56.455,6.572,56.744
					c-0.213,0.408-0.461,0.827-0.768,1.172c0.455,0.265,0.911,0.53,1.366,0.795c0.546-1.692,0.971-3.419,1.403-5.143
					c0.217-0.867-1.111-1.504-1.494-0.63c-0.922,2.107-0.622,4.26-0.579,6.491C6.52,60.481,8.155,60.483,8.135,59.429L8.135,59.429z
					"/>
			</g>
		</g>
		<g>
			<g>
				<path style="&st0;" d="M48.694,111.743c0.632,0.944,1.322,1.833,2.518,1.983c1.734,0.217,2.95-2.176,3.57-3.386
					c0.479-0.936-0.931-1.763-1.411-0.825c-0.362,0.706-1.137,2.605-2.158,2.576c-0.422-0.012-0.898-0.862-1.106-1.173
					C49.522,110.047,48.105,110.864,48.694,111.743L48.694,111.743z"/>
			</g>
		</g>
		<g>
			<g>
				<path style="&st0;" d="M80.489,112.678c0.5,1.126,1.498,2.78,2.975,2.11c1.275-0.578,1.608-2.497,1.792-3.708
					c0.157-1.031-1.418-1.474-1.576-0.435c-0.128,0.839-0.255,1.98-0.867,2.631c-0.075,0.08,0.028,0.063-0.126-0.08
					c-0.372-0.346-0.585-0.89-0.786-1.344C81.474,110.891,80.066,111.723,80.489,112.678L80.489,112.678z"/>
			</g>
		</g>
	</g>
	<g>
		<g>
			<path style="&st0;" d="M36.108,105.465c0.57,0.538,1.301,0.866,1.87,1.403c0.306,0.289,0.77-0.172,0.462-0.462
				c-0.57-0.538-1.301-0.866-1.87-1.403C36.264,104.713,35.8,105.175,36.108,105.465L36.108,105.465z"/>
		</g>
	</g>
	<g>
		<g>
			<path style="&st0;" d="M36.524,101.19c1.54,2.966,3.92,5.267,6.663,7.131c0.35,0.238,0.676-0.329,0.33-0.565
				c-2.655-1.804-4.939-4.026-6.429-6.896C36.894,100.486,36.33,100.817,36.524,101.19L36.524,101.19z"/>
		</g>
	</g>
	<g>
		<g>
			<path style="&st0;" d="M39.285,96.349c0.153,4.522,3.451,7.944,7.176,10.101c0.366,0.212,0.695-0.353,0.33-0.565
				c-3.516-2.037-6.707-5.248-6.852-9.537C39.925,95.929,39.271,95.928,39.285,96.349L39.285,96.349z"/>
		</g>
	</g>
	<g>
		<g>
			<path style="&st0;" d="M36.621,102.593c1.218-2.045,2.327-4.157,3.741-6.079c0.25-0.34-0.318-0.666-0.565-0.33
				c-1.413,1.921-2.523,4.033-3.741,6.079C35.84,102.626,36.406,102.955,36.621,102.593L36.621,102.593z"/>
		</g>
	</g>
	<g>
		<g>
			<path style="&st0;" d="M36.153,105.398c2.005-3.424,4.629-6.417,7.832-8.767c0.336-0.247,0.011-0.814-0.33-0.565
				c-3.296,2.418-6.002,5.477-8.066,9.001C35.375,105.433,35.941,105.762,36.153,105.398L36.153,105.398z"/>
		</g>
	</g>
	<g>
		<g>
			<path style="&st0;" d="M39.427,104.931c1.51-2.433,3.547-4.466,5.56-6.48c0.298-0.298-0.164-0.761-0.462-0.462
				c-2.053,2.054-4.123,4.132-5.662,6.612C38.639,104.96,39.205,105.288,39.427,104.931L39.427,104.931z"/>
		</g>
	</g>
	<g>
		<g>
			<path style="&st0;" d="M41.297,106.801c2.583-3.545,5.751-6.583,9.234-9.234c0.331-0.252,0.006-0.82-0.33-0.565
				c-3.578,2.723-6.816,5.828-9.469,9.469C40.484,106.813,41.051,107.138,41.297,106.801L41.297,106.801z"/>
		</g>
	</g>
	<g>
		<g>
			<path style="&st0;" d="M45.973,107.736c0.923-1.351,2.069-2.521,3.222-3.674c0.298-0.298-0.164-0.761-0.462-0.462
				c-1.193,1.193-2.37,2.409-3.324,3.807C45.17,107.756,45.736,108.082,45.973,107.736L45.973,107.736z"/>
		</g>
	</g>
	<g>
		<g>
			<path style="&st0;" d="M31.899,111.076c1.006,1.03,1.8,2.243,2.805,3.273c0.295,0.302,0.757-0.161,0.462-0.462
				c-1.006-1.03-1.8-2.243-2.805-3.273C32.067,110.311,31.605,110.774,31.899,111.076L31.899,111.076z"/>
		</g>
	</g>
	<g>
		<g>
			<path style="&st0;" d="M33.251,110.074c1.554,2.016,3.567,3.484,5.728,4.793c0.362,0.219,0.69-0.346,0.33-0.565
				c-2.055-1.245-4.014-2.639-5.494-4.559C33.562,109.415,32.994,109.74,33.251,110.074L33.251,110.074z"/>
		</g>
	</g>
	<g>
		<g>
			<path style="&st0;" d="M37.577,112.062c1.946,0.973,3.853,1.982,5.611,3.273c0.34,0.25,0.666-0.318,0.33-0.565
				c-1.757-1.291-3.665-2.3-5.611-3.273C37.531,111.309,37.199,111.873,37.577,112.062L37.577,112.062z"/>
		</g>
	</g>
	<g>
		<g>
			<path style="&st0;" d="M39.848,111.076c2.623,2.073,5.418,3.845,8.483,5.195c0.382,0.168,0.715-0.395,0.33-0.565
				c-3.01-1.326-5.772-3.054-8.35-5.092C39.984,110.355,39.518,110.814,39.848,111.076L39.848,111.076z"/>
		</g>
	</g>
	<g>
		<g>
			<path style="&st0;" d="M31.828,113.465c1.723-1.077,3.45-2.15,5.143-3.273c0.349-0.232,0.022-0.798-0.33-0.565
				c-1.693,1.123-3.421,2.196-5.143,3.273C31.141,113.123,31.469,113.689,31.828,113.465L31.828,113.465z"/>
		</g>
	</g>
	<g>
		<g>
			<path style="&st0;" d="M36.504,112.062c1.451-0.966,2.898-1.849,4.598-2.305c0.407-0.109,0.234-0.74-0.174-0.63
				c-1.753,0.47-3.255,1.373-4.754,2.371C35.825,111.73,36.152,112.296,36.504,112.062L36.504,112.062z"/>
		</g>
	</g>
	<g>
		<g>
			<path style="&st0;" d="M41.246,113.413c0.876-0.852,1.93-1.486,2.805-2.338c0.303-0.294-0.16-0.756-0.462-0.462
				c-0.876,0.852-1.93,1.486-2.805,2.338C40.481,113.246,40.944,113.708,41.246,113.413L41.246,113.413z"/>
		</g>
	</g>
	<g>
		<g>
			<path style="&st0;" d="M44.92,114.867c1.579-1.062,3.097-2.212,4.676-3.273c0.348-0.234,0.021-0.8-0.33-0.565
				c-1.579,1.062-3.097,2.212-4.676,3.273C44.242,114.537,44.569,115.103,44.92,114.867L44.92,114.867z"/>
		</g>
	</g>
	<g>
		<g>
			<path style="&st0;" d="M46.389,117.154c2.014-2.013,4.047-4.05,6.48-5.56c0.357-0.222,0.029-0.788-0.33-0.565
				c-2.48,1.539-4.559,3.609-6.612,5.662C45.628,116.99,46.091,117.452,46.389,117.154L46.389,117.154z"/>
		</g>
	</g>
	<g>
		<g>
			<path style="&st0;" d="M52.402,115.335c1.87-1.403,3.741-2.805,5.611-4.208c0.333-0.25,0.008-0.818-0.33-0.565
				c-1.87,1.403-3.741,2.805-5.611,4.208C51.739,115.02,52.064,115.588,52.402,115.335L52.402,115.335z"/>
		</g>
	</g>
	<g>
		<g>
			<path style="&st0;" d="M58.079,114.816c0.312-0.312,0.623-0.623,0.935-0.935c0.298-0.298-0.164-0.761-0.462-0.462
				c-0.312,0.312-0.623,0.623-0.935,0.935C57.318,114.652,57.78,115.115,58.079,114.816L58.079,114.816z"/>
		</g>
	</g>
</g>
</svg>
