<?xml version="1.0" encoding="utf-8"?>
<!-- Generator: Adobe Illustrator 17.0.0, SVG Export Plug-In . SVG Version: 6.00 Build 0)  -->
<!DOCTYPE svg PUBLIC "-//W3C//DTD SVG 1.1//EN" "http://www.w3.org/Graphics/SVG/1.1/DTD/svg11.dtd" [
	<!ENTITY st0 "fill:#3D3D3D;">
]>
<svg version="1.1" id="Calque_1" xmlns="http://www.w3.org/2000/svg" xmlns:xlink="http://www.w3.org/1999/xlink" x="0px" y="0px"
	 width="166px" height="167px" viewBox="0 0 166 167" style="enable-background:new 0 0 166 167;" xml:space="preserve">
<g>
	<g>
		<g>
			<g>
				<path style="&st0;" d="M74.888,53.02c0.419,3.864,3.622,5.736,7.304,4.839c1.254-0.306,0.722-2.236-0.532-1.931
					c-2.309,0.563-4.493-0.355-4.769-2.908C76.753,51.75,74.749,51.737,74.888,53.02L74.888,53.02z"/>
			</g>
		</g>
		<g>
			<g>
				<path style="&st0;" d="M77.219,54.162c1.381-0.665,3.045-1.38,4.611-1.054c1.665,0.347,1.824,2.435,1.845,3.795
					c0.02,1.29,2.023,1.292,2.002,0c-0.034-2.158-0.552-4.684-2.807-5.554c-2.208-0.852-4.662,0.121-6.663,1.084
					C75.045,52.993,76.061,54.72,77.219,54.162L77.219,54.162z"/>
			</g>
		</g>
		<g>
			<g>
				<path style="&st0;" d="M81.845,51.938c-0.195-10.545,0.315-21.086,0.119-31.63c-0.024-1.29-2.026-1.292-2.002,0
					c0.195,10.545-0.315,21.086-0.119,31.63C79.867,53.228,81.869,53.23,81.845,51.938L81.845,51.938z"/>
			</g>
		</g>
		<g>
			<g>
				<path style="&st0;" d="M80.418,23.505c5.546,0,5.546-8.6,0-8.6C74.872,14.906,74.872,23.505,80.418,23.505L80.418,23.505z"/>
			</g>
		</g>
	</g>
	<g>
		<g>
			<path style="&st0;" d="M73.586,63.636c-7.051-0.082-10.135,8.15-11.798,13.733c-3.147,10.568-3.499,22.229-2.703,33.15
				c0.466,6.386,1.073,18.212,7.115,22.289c4.534,3.059,10.772,2.761,15.987,2.58c6.345-0.22,12.692-1.358,19.047-1.156
				c0.566,0.018,0.894-0.452,0.955-0.955c2.573-21.326,10.426-84.647-29.605-68.777c-1.13,0.448-0.638,2.295,0.507,1.841
				c7.27-2.882,15.673-4.378,21.735,1.687c5.335,5.338,6.676,14.162,7.415,21.308c0.89,8.609,0.518,17.348-0.117,25.96
				c-0.291,3.95-0.691,7.892-1.125,11.829c-0.196,1.774-0.406,3.546-0.618,5.317c0.035-0.295-5.161,0.076-5.835,0.127
				c-4.959,0.371-9.899,0.879-14.875,0.979c-4.424,0.089-10.767,0.215-13.721-3.7c-4.05-5.369-4.56-13.921-5.027-20.325
				c-0.638-8.74-0.19-17.662,1.427-26.274c1.053-5.603,2.949-14.873,8.941-17.353c0.731-0.303,1.514-0.361,2.295-0.352
				C74.817,65.559,74.816,63.65,73.586,63.636L73.586,63.636z"/>
		</g>
	</g>
	<g>
		<g>
			<path style="&st0;" d="M68.344,81.333c7.136-0.417,7.754,15.85,8.199,20.298c0.469,4.688,0.706,9.398,0.963,14.101
				c0.102,1.858,0.208,3.716,0.333,5.573c0.053,0.787,0.119,1.574,0.188,2.36c0.295,3.369-3.972,1.928-6.434,1.496
				c-1.204-0.211-1.719,1.628-0.507,1.841c3.224,0.566,5.575,0.875,8.599-0.512c0.27-0.124,0.51-0.526,0.473-0.824
				c-1.23-9.86-1.033-19.841-2.372-29.704c-0.684-5.038-2.08-16.968-9.441-16.538C67.12,79.496,67.113,81.405,68.344,81.333
				L68.344,81.333z"/>
		</g>
	</g>
	<g>
		<g>
			<path style="&st0;" d="M67.015,81.21c1.649,14.446,1.349,29.058,3.404,43.464c0.173,1.215,2.013,0.696,1.841-0.507
				c-2.03-14.234-1.707-28.682-3.336-42.956C68.786,80.001,66.875,79.988,67.015,81.21L67.015,81.21z"/>
		</g>
	</g>
	<g>
		<g>
			<path style="&st0;" d="M71.339,121.219c2.247,0,4.493,0,6.74,0c1.231,0,1.231-1.909,0-1.909c-2.247,0-4.493,0-6.74,0
				C70.108,119.31,70.108,121.219,71.339,121.219L71.339,121.219z"/>
		</g>
	</g>
	<g>
		<g>
			<path style="&st0;" d="M72.342,116.199c1.921-0.454,3.74-1.23,5.47-2.174c1.081-0.59,0.117-2.238-0.964-1.648
				c-1.593,0.869-3.245,1.563-5.014,1.981C70.637,114.642,71.145,116.482,72.342,116.199L72.342,116.199z"/>
		</g>
	</g>
	<g>
		<g>
			<path style="&st0;" d="M72.195,109.04c1.765-0.794,3.477-1.699,5.242-2.493c1.121-0.504,0.15-2.149-0.964-1.648
				c-1.765,0.794-3.477,1.699-5.242,2.493C70.111,107.896,71.082,109.54,72.195,109.04L72.195,109.04z"/>
		</g>
	</g>
	<g>
		<g>
			<path style="&st0;" d="M73.211,102.523c1.462-0.059,2.701-0.896,3.67-1.941c0.835-0.901-0.511-2.255-1.35-1.35
				c-0.606,0.653-1.384,1.345-2.321,1.382C71.985,100.663,71.98,102.572,73.211,102.523L73.211,102.523z"/>
		</g>
	</g>
	<g>
		<g>
			<path style="&st0;" d="M72.837,97.537c0.647-0.049,1.227-0.389,1.872-0.415c1.227-0.05,1.231-1.959,0-1.909
				c-0.372,0.015-0.737,0.075-1.097,0.171c-0.152,0.041-0.302,0.093-0.452,0.141c-0.053,0.017-0.457,0.113-0.323,0.103
				c-0.519,0.039-0.955,0.405-0.955,0.955C71.882,97.073,72.317,97.576,72.837,97.537L72.837,97.537z"/>
		</g>
	</g>
	<g>
		<g>
			<path style="&st0;" d="M71.265,90.194c0.726-0.722,2.136-0.551,3.069-0.551c1.231-0.001,1.231-1.91,0-1.909
				c-1.519,0.001-3.264-0.039-4.419,1.111C69.042,89.713,70.392,91.063,71.265,90.194L71.265,90.194z"/>
		</g>
	</g>
	<g>
		<g>
			<path style="&st0;" d="M87.186,81.715c7.939,1.077,7.191,16.695,7.273,22.322c0.065,4.402-0.102,8.806-0.267,13.204
				c-0.068,1.803-0.137,3.606-0.187,5.41c-0.036,1.324,0.32,1.151-0.441,1.051c-2.236-0.293-4.437-0.398-6.619-1.033
				c-1.185-0.345-1.687,1.497-0.507,1.841c2.773,0.808,5.639,0.907,8.491,1.281c0.519,0.068,0.952-0.486,0.955-0.955
				c0.053-9.57,0.901-19.099,0.135-28.667c-0.433-5.402-1.407-15.356-8.324-16.294C86.49,79.711,85.971,81.55,87.186,81.715
				L87.186,81.715z"/>
		</g>
	</g>
	<g>
		<g>
			<path style="&st0;" d="M85.736,81.21c-1.198,14.011-1.37,28.374,0,42.379c0.119,1.214,2.029,1.225,1.909,0
				c-1.37-14.005-1.198-28.368,0-42.379C87.75,79.982,85.84,79.993,85.736,81.21L85.736,81.21z"/>
		</g>
	</g>
	<g>
		<g>
			<path style="&st0;" d="M90.641,118.187c0-0.138,0-0.277,0-0.415c0-1.231-1.909-1.231-1.909,0c0,0.138,0,0.277,0,0.415
				C88.732,119.418,90.641,119.418,90.641,118.187L90.641,118.187z"/>
		</g>
	</g>
	<g>
		<g>
			<path style="&st0;" d="M90.435,113.741c1.231,0,1.231-1.909,0-1.909C89.204,111.832,89.204,113.741,90.435,113.741
				L90.435,113.741z"/>
		</g>
	</g>
	<g>
		<g>
			<path style="&st0;" d="M91.39,107.8c0-0.138,0-0.277,0-0.415c0-1.231-1.909-1.231-1.909,0c0,0.138,0,0.277,0,0.415
				C89.481,109.031,91.39,109.031,91.39,107.8L91.39,107.8z"/>
		</g>
	</g>
	<g>
		<g>
			<path style="&st0;" d="M91.39,102.815c0.001-0.347-0.063,0.078-0.001-0.09c-0.082,0.14-0.164,0.281-0.245,0.421
				c-0.494,0.156-0.605,0.225-0.333,0.208c1.231-0.006,1.231-1.915,0-1.909c-0.872,0.004-1.325,0.515-1.329,1.37
				C89.476,104.046,91.385,104.045,91.39,102.815L91.39,102.815z"/>
		</g>
	</g>
	<g>
		<g>
			<path style="&st0;" d="M91.184,97.952c1.231,0,1.231-1.909,0-1.909C89.953,96.043,89.953,97.952,91.184,97.952L91.184,97.952z"/>
		</g>
	</g>
	<g>
		<g>
			<path style="&st0;" d="M91.184,92.136c1.231,0,1.231-1.909,0-1.909C89.953,90.227,89.953,92.136,91.184,92.136L91.184,92.136z"/>
		</g>
	</g>
	<g>
		<g>
			<path style="&st0;" d="M86.894,59.027c0.284,1.012,0.34,2.024,0.34,3.07c0.001,1.231,1.91,1.231,1.909,0
				c-0.001-1.209-0.08-2.409-0.409-3.578C88.402,57.337,86.56,57.84,86.894,59.027L86.894,59.027z"/>
		</g>
	</g>
	<g>
		<g>
			<path style="&st0;" d="M74.709,57.651c4.249-0.001,8.496-0.021,12.731-0.415c1.215-0.113,1.226-2.023,0-1.909
				c-4.234,0.395-8.481,0.415-12.731,0.415C73.478,55.742,73.478,57.651,74.709,57.651L74.709,57.651z"/>
		</g>
	</g>
	<g>
		<g>
			<path style="&st0;" d="M74.634,55.384c-1.093,2.484-1.911,5.024-2.343,7.707c-0.194,1.204,1.646,1.72,1.841,0.507
				c0.404-2.51,1.127-4.923,2.15-7.251C76.773,55.231,75.128,54.259,74.634,55.384L74.634,55.384z"/>
		</g>
	</g>
	<g>
		<g>
			<g>
				<path style="&st0;" d="M129.054,108.8c1.932,0.9,3.942-1.627,4.795-3.042c0.432-0.717-0.688-1.368-1.118-0.654
					c-0.393,0.653-0.862,1.225-1.415,1.748c-0.291,0.276-1.137,1.048-1.607,0.829C128.956,107.331,128.297,108.447,129.054,108.8
					L129.054,108.8z"/>
			</g>
		</g>
		<g>
			<g>
				<path style="&st0;" d="M128.862,108.345c-1.133-1.332-2.035-2.832-3.42-3.934c-0.646-0.514-1.57,0.396-0.916,0.916
					c1.384,1.101,2.287,2.603,3.42,3.934C128.488,109.898,129.399,108.977,128.862,108.345L128.862,108.345z"/>
			</g>
		</g>
		<g>
			<g>
				<path style="&st0;" d="M124.077,88.899c1.126-1.986,2.022-4.091,2.932-6.182c0.33-0.758-0.786-1.418-1.118-0.654
					c-0.909,2.091-1.805,4.196-2.932,6.182C122.546,88.972,123.665,89.625,124.077,88.899L124.077,88.899z"/>
			</g>
		</g>
		<g>
			<g>
				<path style="&st0;" d="M129.054,83.511c0.799,0.46,1.681,0.898,2.312,1.585c0.567,0.616,1.48-0.302,0.916-0.916
					c-0.706-0.767-1.681-1.274-2.574-1.787C128.982,81.976,128.33,83.095,129.054,83.511L129.054,83.511z"/>
			</g>
		</g>
		<g>
			<g>
				<path style="&st0;" d="M124.165,103.183c-0.032-4.849-0.53-9.578-1.978-14.221c-0.248-0.795-1.498-0.455-1.249,0.344
					c1.412,4.531,1.9,9.146,1.931,13.877C122.876,104.018,124.171,104.018,124.165,103.183L124.165,103.183z"/>
			</g>
		</g>
		<g>
			<g>
				<path style="&st0;" d="M121.402,88.575c-1.55-1.167-3.236-2.158-5.041-2.875c-0.777-0.309-1.111,0.945-0.344,1.249
					c1.693,0.672,3.28,1.652,4.731,2.745C121.416,90.196,122.06,89.07,121.402,88.575L121.402,88.575z"/>
			</g>
		</g>
		<g>
			<g>
				<path style="&st0;" d="M120.067,109.261c1.194-1.413,2.108-3.032,3.033-4.627c0.42-0.724-0.7-1.376-1.118-0.654
					c-0.867,1.494-1.711,3.04-2.83,4.365C118.615,108.978,119.527,109.899,120.067,109.261L120.067,109.261z"/>
			</g>
		</g>
		<g>
			<g>
				<path style="&st0;" d="M119.292,107.616c-2.819-1.116-5.168-2.849-6.942-5.322c-0.482-0.672-1.606-0.026-1.118,0.654
					c1.988,2.771,4.555,4.666,7.716,5.917C119.726,109.173,120.06,107.92,119.292,107.616L119.292,107.616z"/>
			</g>
		</g>
		<g>
			<g>
				<path style="&st0;" d="M110.784,92.964c1.303-1.499,2.606-2.997,3.909-4.496c0.545-0.627-0.367-1.547-0.916-0.916
					c-1.303,1.499-2.606,2.997-3.909,4.496C109.322,92.675,110.235,93.595,110.784,92.964L110.784,92.964z"/>
			</g>
		</g>
		<g>
			<g>
				<path style="&st0;" d="M112.928,101.497c-0.037-2.951-0.551-5.805-1.489-8.602c-0.264-0.788-1.515-0.45-1.249,0.344
					c0.902,2.69,1.407,5.416,1.443,8.257C111.643,102.332,112.938,102.333,112.928,101.497L112.928,101.497z"/>
			</g>
		</g>
		<g>
			<g>
				<path style="&st0;" d="M118.791,105.431c0.833-6.888-0.529-13.432-3.997-19.434c-0.418-0.723-1.537-0.071-1.118,0.654
					c3.364,5.822,4.626,12.112,3.82,18.78C117.395,106.259,118.692,106.249,118.791,105.431L118.791,105.431z"/>
			</g>
		</g>
		<g>
			<g>
				<path style="&st0;" d="M106.976,111.939c1.587-3.02,3.299-5.972,4.886-8.991c0.388-0.739-0.73-1.393-1.118-0.654
					c-1.587,3.02-3.299,5.972-4.886,8.991C105.469,112.024,106.587,112.679,106.976,111.939L106.976,111.939z"/>
			</g>
		</g>
		<g>
			<g>
				<path style="&st0;" d="M110.326,90.734c-0.888-0.08-2.006-1.195-2.652-1.716c-0.98-0.79-1.917-1.65-2.753-2.59
					c-0.556-0.626-1.469,0.294-0.916,0.916c1.009,1.135,2.162,2.152,3.366,3.075c0.846,0.649,1.847,1.511,2.955,1.61
					C111.158,92.104,111.151,90.808,110.326,90.734L110.326,90.734z"/>
			</g>
		</g>
		<g>
			<g>
				<path style="&st0;" d="M105.11,108.241c-0.488-8.342-1.097-16.649-2.466-24.899c-0.137-0.823-1.385-0.473-1.249,0.344
					c1.351,8.138,1.939,16.328,2.42,24.554C103.863,109.071,105.159,109.075,105.11,108.241L105.11,108.241z"/>
			</g>
		</g>
		<g>
			<g>
				<path style="&st0;" d="M127.562,105.041c0.896-2.632,1.456-5.254,1.489-8.04c0.01-0.836-1.286-0.835-1.295,0
					c-0.031,2.675-0.583,5.172-1.443,7.695C126.043,105.49,127.295,105.827,127.562,105.041L127.562,105.041z"/>
			</g>
		</g>
		<g>
			<g>
				<path style="&st0;" d="M126.608,99.249c0.032-1.368,0.476-2.773-0.023-4.106c-0.29-0.775-1.543-0.439-1.249,0.344
					c0.45,1.201,0.006,2.524-0.023,3.762C125.293,100.085,126.589,100.083,126.608,99.249L126.608,99.249z"/>
			</g>
		</g>
		<g>
			<g>
				<path style="&st0;" d="M120.722,99.983c0.466-2.111,0.967-4.181,1-6.354c0.013-0.836-1.282-0.834-1.295,0
					c-0.032,2.056-0.513,4.013-0.954,6.009C119.293,100.453,120.542,100.799,120.722,99.983L120.722,99.983z"/>
			</g>
		</g>
		<g>
			<g>
				<path style="&st0;" d="M119.68,104.072c1.066-1.841,2.022-3.688,2.508-5.774c0.19-0.813-1.059-1.158-1.249-0.344
					c-0.462,1.98-1.366,3.718-2.378,5.465C118.142,104.142,119.261,104.794,119.68,104.072L119.68,104.072z"/>
			</g>
		</g>
		<g>
			<g>
				<path style="&st0;" d="M119.64,102.517c0.489,0.562,0.977,1.124,1.466,1.686c0.549,0.631,1.461-0.289,0.916-0.916
					c-0.489-0.562-0.977-1.124-1.466-1.686C120.006,100.97,119.094,101.89,119.64,102.517L119.64,102.517z"/>
			</g>
		</g>
		<g>
			<g>
				<path style="&st0;" d="M114.164,100.7c0.911,1.542,2.02,2.953,2.932,4.496c0.424,0.718,1.544,0.067,1.118-0.654
					c-0.911-1.542-2.02-2.953-2.932-4.496C114.858,99.328,113.738,99.979,114.164,100.7L114.164,100.7z"/>
			</g>
		</g>
		<g>
			<g>
				<path style="&st0;" d="M112.93,103.742c0.593,0.331,1.354,0.514,1.823,1.023c0.568,0.615,1.481-0.303,0.916-0.916
					c-0.564-0.611-1.377-0.83-2.085-1.225C112.854,102.216,112.201,103.335,112.93,103.742L112.93,103.742z"/>
			</g>
		</g>
		<g>
			<g>
				<path style="&st0;" d="M115.859,101.497c0.04-0.584,0.447-1.081,0.489-1.686c0.057-0.834-1.239-0.829-1.295,0
					c-0.04,0.584-0.447,1.081-0.489,1.686C114.507,102.331,115.803,102.326,115.859,101.497L115.859,101.497z"/>
			</g>
		</g>
		<g>
			<g>
				<path style="&st0;" d="M114.393,99.811c0-0.187,0-0.375,0-0.562c0-0.835-1.295-0.835-1.295,0c0,0.187,0,0.375,0,0.562
					C113.098,100.646,114.393,100.646,114.393,99.811L114.393,99.811z"/>
			</g>
		</g>
		<g>
			<g>
				<path style="&st0;" d="M129.322,108.241c0.402-8.054-0.365-16.201-3.436-23.717c-0.207-0.506-1.039-0.285-0.829,0.229
					c3.042,7.449,3.804,15.505,3.405,23.488C128.434,108.795,129.295,108.792,129.322,108.241L129.322,108.241z"/>
			</g>
		</g>
		<g>
			<g>
				<path style="&st0;" d="M129.196,105.173c3.315-2.712,4.452-6.838,4.523-10.981c0.01-0.555-0.85-0.554-0.86,0
					c-0.068,3.937-1.122,7.796-4.271,10.373C128.159,104.916,128.771,105.521,129.196,105.173L129.196,105.173z"/>
			</g>
		</g>
		<g>
			<g>
				<path style="&st0;" d="M128.588,102.363c0.918,1.056,1.805,1.839,3.121,2.358c0.516,0.204,0.738-0.628,0.229-0.829
					c-1.167-0.46-1.932-1.207-2.742-2.137C128.832,101.336,128.226,101.947,128.588,102.363L128.588,102.363z"/>
			</g>
		</g>
		<g>
			<g>
				<path style="&st0;" d="M129.077,98.429c1.67,1.873,3.635,3.314,6.053,4.044c0.532,0.161,0.758-0.669,0.229-0.829
					c-2.28-0.689-4.1-2.058-5.673-3.823C129.315,97.406,128.709,98.017,129.077,98.429L129.077,98.429z"/>
			</g>
		</g>
		<g>
			<g>
				<path style="&st0;" d="M129.565,93.934c1.629,1.873,3.257,3.746,4.886,5.62c0.365,0.419,0.97-0.192,0.608-0.608
					c-1.629-1.873-3.257-3.746-4.886-5.62C129.809,92.906,129.203,93.517,129.565,93.934L129.565,93.934z"/>
			</g>
		</g>
		<g>
			<g>
				<path style="&st0;" d="M107.768,101.35c1.157,0.452,2.242,1.025,3.317,1.643c0.482,0.277,0.915-0.466,0.434-0.743
					c-1.141-0.656-2.296-1.25-3.523-1.729C107.48,100.318,107.258,101.15,107.768,101.35L107.768,101.35z"/>
			</g>
		</g>
		<g>
			<g>
				<path style="&st0;" d="M105.223,103.554c1.059,0.609,2.025,1.262,2.845,2.181c0.37,0.415,0.976-0.196,0.608-0.608
					c-0.865-0.971-1.899-1.671-3.019-2.315C105.175,102.535,104.742,103.278,105.223,103.554L105.223,103.554z"/>
			</g>
		</g>
		<g>
			<g>
				<path style="&st0;" d="M104.389,104.421c0.388-1.313,0.877-2.577,1.422-3.831c0.219-0.503-0.522-0.942-0.743-0.434
					c-0.575,1.322-1.1,2.652-1.509,4.036C103.402,104.726,104.232,104.952,104.389,104.421L104.389,104.421z"/>
			</g>
		</g>
		<g>
			<g>
				<path style="&st0;" d="M104.463,100.459c0.835,0,0.835-1.295,0-1.295C103.627,99.163,103.627,100.459,104.463,100.459
					L104.463,100.459z"/>
			</g>
		</g>
		<g>
			<g>
				<path style="&st0;" d="M104.951,97.087c0.835,0,0.835-1.295,0-1.295S104.116,97.087,104.951,97.087L104.951,97.087z"/>
			</g>
		</g>
		<g>
			<g>
				<path style="&st0;" d="M135.748,112.021c-1.136-12.28-0.969-24.841-3.502-36.951c-0.171-0.817-1.42-0.471-1.249,0.344
					c2.508,11.99,2.33,24.446,3.456,36.606C134.529,112.845,135.825,112.853,135.748,112.021L135.748,112.021z"/>
			</g>
		</g>
		<g>
			<g>
				<path style="&st0;" d="M135.448,113.364c26.934,1.196,19.499-48.225-3.999-38.746c-0.764,0.308-0.431,1.562,0.344,1.249
					c21.706-8.756,28.684,37.314,3.655,36.202C134.613,112.032,134.616,113.327,135.448,113.364L135.448,113.364z"/>
			</g>
		</g>
		<g>
			<g>
				<path style="&st0;" d="M139.492,106.826c4.964-2.93,8.749-7.103,10.982-12.433c0.214-0.511-0.618-0.732-0.829-0.229
					c-2.142,5.112-5.831,9.112-10.587,11.919C138.581,106.365,139.013,107.108,139.492,106.826L139.492,106.826z"/>
			</g>
		</g>
		<g>
			<g>
				<path style="&st0;" d="M135.215,108.609c6.657-1.241,12.288-5.151,15.216-11.33c0.236-0.498-0.505-0.935-0.743-0.434
					c-2.844,6-8.242,9.73-14.702,10.935C134.441,107.881,134.673,108.71,135.215,108.609L135.215,108.609z"/>
			</g>
		</g>
		<g>
			<g>
				<path style="&st0;" d="M136.606,111.392c8.115-2.012,13.624-8.913,14.579-17.113c0.064-0.55-0.797-0.544-0.86,0
					c-0.911,7.822-6.228,14.37-13.948,16.284C135.839,110.696,136.068,111.525,136.606,111.392L136.606,111.392z"/>
			</g>
		</g>
		<g>
			<g>
				<path style="&st0;" d="M137.753,105.434c5.904-3.269,11.06-8.695,11.693-15.678c0.05-0.552-0.81-0.548-0.86,0
					c-0.605,6.671-5.655,11.828-11.267,14.936C136.833,104.96,137.267,105.703,137.753,105.434L137.753,105.434z"/>
			</g>
		</g>
		<g>
			<g>
				<path style="&st0;" d="M140.342,107.629c-1.378-3.017-3.238-5.702-5.218-8.349c-0.328-0.438-1.075-0.011-0.743,0.434
					c1.98,2.647,3.84,5.332,5.218,8.349C139.83,108.567,140.571,108.13,140.342,107.629L140.342,107.629z"/>
			</g>
		</g>
		<g>
			<g>
				<path style="&st0;" d="M143.473,103.454c-1.447-2.481-3.268-4.661-5.285-6.697c-0.391-0.394-0.999,0.214-0.608,0.608
					c1.966,1.984,3.74,4.104,5.151,6.523C143.01,104.367,143.753,103.934,143.473,103.454L143.473,103.454z"/>
			</g>
		</g>
		<g>
			<g>
				<path style="&st0;" d="M147.3,101.367c-1.821-3.21-4.093-6.165-7.025-8.436c-0.433-0.335-1.046,0.269-0.608,0.608
					c2.879,2.23,5.102,5.109,6.89,8.262C146.831,102.283,147.574,101.85,147.3,101.367L147.3,101.367z"/>
			</g>
		</g>
		<g>
			<g>
				<path style="&st0;" d="M151.474,97.888c-2.398-3.971-5.817-6.972-10.346-8.199c-0.536-0.145-0.763,0.684-0.229,0.829
					c4.32,1.17,7.545,4.017,9.832,7.804C151.018,98.796,151.762,98.364,151.474,97.888L151.474,97.888z"/>
			</g>
		</g>
		<g>
			<g>
				<path style="&st0;" d="M144.169,107.281c-1.041-2.366-2.433-4.499-4.242-6.349c-0.388-0.397-0.996,0.212-0.608,0.608
					c1.761,1.8,3.095,3.875,4.107,6.175C143.649,108.222,144.39,107.784,144.169,107.281L144.169,107.281z"/>
			</g>
		</g>
		<g>
			<g>
				<path style="&st0;" d="M138.661,107.15c-0.385-2.884-1.09-5.654-2.494-8.218c-0.266-0.486-1.009-0.053-0.743,0.434
					c1.33,2.429,2.012,5.054,2.376,7.784C137.874,107.692,138.734,107.699,138.661,107.15L138.661,107.15z"/>
			</g>
		</g>
		<g>
			<g>
				<path style="&st0;" d="M137.927,109.194c3.736,3.448,7.346-0.712,9.372-3.914c0.298-0.47-0.447-0.901-0.743-0.434
					c-1.671,2.64-4.765,6.745-8.022,3.74C138.129,108.21,137.519,108.817,137.927,109.194L137.927,109.194z"/>
			</g>
		</g>
		<g>
			<g>
				<path style="&st0;" d="M138.187,107.89c-1.683-2.043-3.135-4.231-4.455-6.523c-0.277-0.48-1.02-0.047-0.743,0.434
					c1.357,2.355,2.861,4.597,4.59,6.697C137.932,108.926,138.537,108.314,138.187,107.89L138.187,107.89z"/>
			</g>
		</g>
		<g>
			<g>
				<path style="&st0;" d="M141.362,104.101c0.555,0,0.555-0.86,0-0.86S140.808,104.101,141.362,104.101L141.362,104.101z"/>
			</g>
		</g>
		<g>
			<g>
				<path style="&st0;" d="M144.908,99.383c-1.074-2.862-2.173-5.706-3.522-8.452c-0.245-0.498-0.986-0.062-0.743,0.434
					c1.316,2.679,2.388,5.455,3.436,8.247C144.271,100.125,145.103,99.903,144.908,99.383L144.908,99.383z"/>
			</g>
		</g>
		<g>
			<g>
				<path style="&st0;" d="M150.474,97.643c-0.738-4.686-2.416-8.953-4.914-12.974c-0.292-0.47-1.036-0.038-0.743,0.434
					c2.458,3.956,4.102,8.164,4.827,12.769C149.731,98.418,150.559,98.185,150.474,97.643L150.474,97.643z"/>
			</g>
		</g>
		<g>
			<g>
				<path style="&st0;" d="M149.43,93.121c-1.507-5.302-4.582-9.784-9.243-12.781c-0.468-0.301-0.899,0.444-0.434,0.743
					c4.479,2.88,7.401,7.179,8.847,12.267C148.752,93.882,149.582,93.655,149.43,93.121L149.43,93.121z"/>
			</g>
		</g>
		<g>
			<g>
				<path style="&st0;" d="M130.992,89.707c-0.443-2.296-1.808-4.278-3.589-5.756c-0.423-0.351-1.035,0.254-0.608,0.608
					c1.681,1.394,2.95,3.209,3.368,5.376C130.268,90.479,131.097,90.248,130.992,89.707L130.992,89.707z"/>
			</g>
		</g>
		<g>
			<g>
				<path style="&st0;" d="M128.708,85.322c0.507-0.243,0.968-0.289,1.522-0.289c0.555-0.001,0.555-0.861,0-0.86
					c-0.713,0.001-1.309,0.097-1.956,0.407C127.773,84.818,128.21,85.56,128.708,85.322L128.708,85.322z"/>
			</g>
		</g>
		<g>
			<g>
				<path style="&st0;" d="M130.23,88.511c0.555,0,0.555-0.86,0-0.86S129.675,88.511,130.23,88.511L130.23,88.511z"/>
			</g>
		</g>
	</g>
	<g>
		<g>
			<g>
				<path style="&st0;" d="M60.94,131.059c-0.631,2.509-0.631,5.089,0,7.598c0.244,0.968,1.737,0.557,1.493-0.412
					c-0.564-2.243-0.564-4.532,0-6.775C62.678,130.502,61.184,130.091,60.94,131.059L60.94,131.059z"/>
			</g>
		</g>
		<g>
			<g>
				<path style="&st0;" d="M61.139,138.999c5.265,6.387,15.964,6.748,23.498,6.272c7.45-0.471,17.561-2.712,21.135-10.125
					c0.432-0.895-0.904-1.681-1.337-0.782c-3.521,7.301-13.676,8.971-20.897,9.427c-6.825,0.431-16.588-0.167-21.305-5.888
					C61.599,137.133,60.509,138.235,61.139,138.999L61.139,138.999z"/>
			</g>
		</g>
		<g>
			<g>
				<path style="&st0;" d="M101.066,129.965c1.64,1.531,2.583,3.556,2.442,5.818c-0.062,0.998,1.487,0.992,1.549,0
					c0.164-2.641-0.982-5.125-2.896-6.913C101.433,128.189,100.335,129.282,101.066,129.965L101.066,129.965z"/>
			</g>
		</g>
		<g>
			<g>
				<path style="&st0;" d="M70.386,145.228c0.461,1.271,1.299,3.339,2.943,3.339c1.866,0,2.15-2.866,2.274-4.161
					c0.095-0.994-1.455-0.985-1.549,0c-0.067,0.705-0.18,1.398-0.418,2.067c-0.054,0.152-0.141,0.322-0.245,0.447
					c-0.117,0.139-0.075,0.099-0.143,0.099c-0.048,0-0.383-0.313-0.512-0.487c-0.382-0.514-0.639-1.117-0.856-1.715
					C71.541,143.885,70.044,144.287,70.386,145.228L70.386,145.228z"/>
			</g>
		</g>
		<g>
			<g>
				<path style="&st0;" d="M96.13,144.797c0.105,0.242,0.251,0.807,0.423,1.151c0.355,0.709,1.022,1.222,1.703,1.59
					c0.395,0.214,0.811,0.076,1.06-0.278c0.466-0.662,0.746-1.339,0.784-2.152c0.037-0.782-0.248-1.563-0.268-2.346
					c-0.025-0.997-1.574-0.999-1.549,0c0.015,0.598,0.114,1.181,0.218,1.769c0.135,0.766-0.082,1.32-0.523,1.947
					c0.353-0.093,0.706-0.185,1.06-0.278c-1.022-0.552-1.152-1.222-1.57-2.186C97.071,143.101,95.737,143.891,96.13,144.797
					L96.13,144.797z"/>
			</g>
		</g>
		<g>
			<g>
				<path style="&st0;" d="M65.56,135.834c-0.086,0.961-0.173,1.926-0.193,2.891c-0.002,0.103,0.07,0.179,0.161,0.212
					c2.757,0.98,5.53,1.911,8.287,2.891c0.267,0.095,0.382-0.329,0.117-0.423c-2.171-0.772-4.353-1.514-6.53-2.271
					c-0.175-0.061-1.596-0.414-1.591-0.676c0.007-0.361,0.038-0.722,0.062-1.082c0.035-0.514,0.079-1.027,0.125-1.54
					C66.024,135.552,65.585,135.554,65.56,135.834L65.56,135.834z"/>
			</g>
		</g>
		<g>
			<g>
				<path style="&st0;" d="M63.124,132.434c6.127,2.293,12.301,4.465,18.912,4.494c6.953,0.031,13.581-3.225,19.559-6.42
					c0.881-0.471,0.099-1.808-0.782-1.337c-5.92,3.163-11.976,5.927-18.777,6.208c-6.344,0.263-12.668-2.256-18.5-4.438
					C62.598,130.59,62.197,132.088,63.124,132.434L63.124,132.434z"/>
			</g>
		</g>
	</g>
	<g>
		<g>
			<g>
				<path style="&st0;" d="M14.292,130.165c1.965-2.301,4.479-2.671,7.281-1.754c1.49,0.487,2.123-1.853,0.644-2.337
					c-3.56-1.165-7.148-0.54-9.639,2.377C11.57,129.633,13.276,131.356,14.292,130.165L14.292,130.165z"/>
			</g>
		</g>
		<g>
			<g>
				<path style="&st0;" d="M45.959,115.603c2.884,0.463,5.831,0.956,8.7,0.167c2.705-0.743,4.941-2.956,6.967-4.767
					c1.168-1.044-0.553-2.752-1.714-1.714c-1.783,1.594-3.595,3.346-5.898,4.144c-2.305,0.798-5.094,0.205-7.411-0.167
					C45.075,113.02,44.419,115.356,45.959,115.603L45.959,115.603z"/>
			</g>
		</g>
		<g>
			<g>
				<path style="&st0;" d="M40.075,93.397c0.327-1.882,0.796-4.151,2.56-5.215c1.907-1.15,4.533,0.597,6.069,1.627
					c0.521,0.349,1.006-0.491,0.489-0.837c-1.812-1.215-4.519-2.838-6.772-1.759c-2.218,1.062-2.895,3.705-3.282,5.927
					C39.034,93.75,39.968,94.012,40.075,93.397L40.075,93.397z"/>
			</g>
		</g>
		<g>
			<g>
				<path style="&st0;" d="M19.18,120.367c0.883,1.081,1.92,2.021,2.803,3.102c0.396,0.485,1.078-0.206,0.686-0.686
					c-0.883-1.081-1.92-2.021-2.803-3.102C19.47,119.197,18.788,119.887,19.18,120.367L19.18,120.367z"/>
			</g>
		</g>
		<g>
			<g>
				<path style="&st0;" d="M21.048,123.081c1.595,1.299,3.344,2.37,5.236,3.178c0.568,0.243,1.063-0.592,0.489-0.837
					c-1.811-0.774-3.512-1.782-5.04-3.026C21.254,122.005,20.563,122.686,21.048,123.081L21.048,123.081z"/>
			</g>
		</g>
		<g>
			<g>
				<path style="&st0;" d="M16.476,120.83c2.974,1.653,5.901,3.388,8.875,5.041c0.547,0.304,1.036-0.533,0.489-0.837
					c-2.974-1.653-5.901-3.388-8.875-5.041C16.418,119.689,15.929,120.527,16.476,120.83L16.476,120.83z"/>
			</g>
		</g>
		<g>
			<g>
				<path style="&st0;" d="M15.19,123.206c4.037,0.831,8.091,1.579,12.144,2.327c0.611,0.113,0.872-0.822,0.258-0.935
					c-4.053-0.748-8.107-1.496-12.144-2.327C14.838,122.145,14.578,123.08,15.19,123.206L15.19,123.206z"/>
			</g>
		</g>
		<g>
			<g>
				<path style="&st0;" d="M19.767,125.871c2.09-1.019,4.275-1.787,6.423-2.666c0.571-0.233,0.321-1.172-0.258-0.935
					c-2.226,0.91-4.49,1.708-6.655,2.763C18.716,125.308,19.208,126.144,19.767,125.871L19.767,125.871z"/>
			</g>
		</g>
		<g>
			<g>
				<path style="&st0;" d="M26.405,128.898c1.426-1.227,2.512-2.764,4.106-3.802c-0.196-0.254-0.392-0.508-0.587-0.761
					c-1.025,0.89-1.866,1.952-2.411,3.2c-0.115,0.262-0.047,0.649,0.29,0.712c0.618,0.117,1.072-0.057,1.544-0.458
					c0.469-0.398,0.995-1.619,1.725-1.481c0.611,0.115,0.872-0.819,0.258-0.935c-0.618-0.117-1.072,0.057-1.544,0.458
					c-0.469,0.398-0.995,1.619-1.725,1.481c0.097,0.237,0.193,0.475,0.29,0.712c0.516-1.179,1.29-2.162,2.26-3.004
					c0.417-0.362-0.128-1.06-0.587-0.761c-1.667,1.086-2.811,2.671-4.302,3.954C25.244,128.621,25.933,129.303,26.405,128.898
					L26.405,128.898z"/>
			</g>
		</g>
		<g>
			<g>
				<path style="&st0;" d="M47.063,104.901c-0.034,3.641-0.456,7.252-0.934,10.858c-0.082,0.618,0.889,0.61,0.97,0
					c0.478-3.606,0.9-7.216,0.934-10.858C48.038,104.276,47.069,104.276,47.063,104.901L47.063,104.901z"/>
			</g>
		</g>
		<g>
			<g>
				<path style="&st0;" d="M51.734,100.248c-0.034,4.403-0.543,8.735-1.384,13.055c-0.119,0.611,0.815,0.871,0.935,0.258
					c0.858-4.404,1.383-8.823,1.419-13.313C52.708,99.622,51.739,99.623,51.734,100.248L51.734,100.248z"/>
			</g>
		</g>
		<g>
			<g>
				<g>
					<path style="&st0;" d="M59.185,88.815c-3.642-4.418-7.943-10.152-13.809-11.637c-4.368-1.106-7.483,2.803-9.399,6.106
						c-3.487,6.009-4.091,11.319-3.573,18.016c0.342,4.418,0.01,8.83-4.777,10.608c-6.374,2.367-11.599-3.793-12.821-9.284
						c-0.254-1.14-1.999-0.656-1.746,0.481c1.447,6.503,6.459,11.378,13.342,10.886c5.834-0.417,7.88-5.53,7.908-10.61
						c0.016-2.992-0.553-5.951-0.481-8.947c0.107-4.48,3.08-10.145,5.977-13.511c5.919-6.876,14.709,5.059,18.099,9.171
						C58.648,90.997,59.921,89.709,59.185,88.815L59.185,88.815z"/>
				</g>
			</g>
			<g>
				<g>
					<path style="&st0;" d="M13.028,102.04c-0.952,9.201-0.527,18.451-0.498,27.682c0.004,1.167,1.814,1.168,1.811,0
						c-0.03-9.231-0.454-18.48,0.498-27.682C14.958,100.879,13.147,100.89,13.028,102.04L13.028,102.04z"/>
				</g>
			</g>
			<g>
				<g>
					<path style="&st0;" d="M20.444,127.611c2.829,1.785,5.633,3.884,7.779,6.469c0.747,0.899,2.02-0.389,1.28-1.28
						c-2.235-2.692-5.2-4.893-8.146-6.752C20.367,125.423,19.459,126.99,20.444,127.611L20.444,127.611z"/>
				</g>
			</g>
			<g>
				<g>
					<path style="&st0;" d="M29.006,132.014c3.414-3.444,5.595-7.816,6.237-12.622c0.154-1.155-1.658-1.14-1.811,0
						c-0.576,4.309-2.66,8.268-5.707,11.341C26.903,131.563,28.183,132.844,29.006,132.014L29.006,132.014z"/>
				</g>
			</g>
			<g>
				<g>
					<path style="&st0;" d="M34.835,121.537c2.487,0.05,4.925,0.695,7.224,1.62c1.084,0.436,1.55-1.316,0.481-1.746
						c-2.448-0.985-5.059-1.632-7.706-1.685C33.667,119.703,33.669,121.514,34.835,121.537L34.835,121.537z"/>
				</g>
			</g>
			<g>
				<g>
					<path style="&st0;" d="M40.766,122.653c2.977-1.63,4.77-5.164,5.393-8.391c0.22-1.141-1.525-1.627-1.746-0.481
						c-0.536,2.78-1.979,5.895-4.561,7.309C38.828,121.651,39.742,123.214,40.766,122.653L40.766,122.653z"/>
				</g>
			</g>
			<g>
				<g>
					<path style="&st0;" d="M50.591,113.529c2.206-0.391,4.245-1.152,6.005-2.559c0.912-0.729-0.378-2.002-1.28-1.28
						c-1.5,1.2-3.341,1.763-5.206,2.094C48.962,111.987,49.45,113.732,50.591,113.529L50.591,113.529z"/>
				</g>
			</g>
		</g>
	</g>
</g>
</svg>
