<?xml version="1.0" encoding="utf-8"?>
<!-- Generator: Adobe Illustrator 17.0.0, SVG Export Plug-In . SVG Version: 6.00 Build 0)  -->
<!DOCTYPE svg PUBLIC "-//W3C//DTD SVG 1.1//EN" "http://www.w3.org/Graphics/SVG/1.1/DTD/svg11.dtd" [
	<!ENTITY st0 "fill:#3D3D3D;">
]>
<svg version="1.1" id="Calque_1" xmlns="http://www.w3.org/2000/svg" xmlns:xlink="http://www.w3.org/1999/xlink" x="0px" y="0px"
	 width="166px" height="167px" viewBox="0 0 166 167" style="enable-background:new 0 0 166 167;" xml:space="preserve">
<g>
	<g>
		<g>
			<path style="&st0;" d="M57.296,70.046c1.814,12.212,2.5,24.597,1.708,36.925c-0.035,0.548,0.815,0.544,0.85,0
				c0.797-12.407,0.088-24.861-1.738-37.151C58.035,69.279,57.216,69.51,57.296,70.046L57.296,70.046z"/>
		</g>
	</g>
	<g>
		<g>
			<path style="&st0;" d="M59.542,109.104c4.332-0.706,8.266,0.899,11.731,3.403c0.445,0.322,0.869-0.416,0.429-0.734
				c-3.676-2.656-7.821-4.233-12.386-3.488C58.775,108.372,59.005,109.191,59.542,109.104L59.542,109.104z"/>
		</g>
	</g>
	<g>
		<g>
			<path style="&st0;" d="M57.145,114.162c3.598-3.599,7.134-7.237,10.336-11.197c0.341-0.422-0.256-1.028-0.601-0.601
				c-3.202,3.961-6.738,7.599-10.336,11.197C56.156,113.949,56.757,114.55,57.145,114.162L57.145,114.162z"/>
		</g>
	</g>
	<g>
		<g>
			<path style="&st0;" d="M57.212,108.908c2.833-3.762,5.78-7.436,8.613-11.197c0.33-0.438-0.409-0.861-0.734-0.429
				c-2.833,3.762-5.78,7.436-8.613,11.197C56.147,108.917,56.886,109.34,57.212,108.908L57.212,108.908z"/>
		</g>
	</g>
	<g>
		<g>
			<path style="&st0;" d="M58.006,100.381c2.663-2.762,4.394-6.16,6.096-9.561c0.245-0.489-0.489-0.92-0.734-0.429
				c-1.668,3.334-3.35,6.679-5.963,9.389C57.025,100.174,57.625,100.776,58.006,100.381L58.006,100.381z"/>
		</g>
	</g>
	<g>
		<g>
			<path style="&st0;" d="M57.059,90.111c2.622-1.792,5.11-4.1,6.225-7.145c0.189-0.516-0.633-0.737-0.82-0.226
				c-1.032,2.817-3.414,4.983-5.834,6.637C56.18,89.684,56.605,90.421,57.059,90.111L57.059,90.111z"/>
		</g>
	</g>
	<g>
		<g>
			<path style="&st0;" d="M57.92,82.359c3.359-2.593,5.972-5.858,7.905-9.627c0.25-0.487-0.484-0.917-0.734-0.429
				c-1.86,3.628-4.363,6.824-7.6,9.322C57.064,81.955,57.486,82.694,57.92,82.359L57.92,82.359z"/>
		</g>
	</g>
	<g>
		<g>
			<path style="&st0;" d="M65.894,95.773c0.113,5.522,1.618,10.927,4.365,15.719c0.273,0.476,1.008,0.047,0.734-0.429
				c-2.674-4.664-4.139-9.913-4.249-15.29C66.733,95.226,65.883,95.225,65.894,95.773L65.894,95.773z"/>
		</g>
	</g>
	<g>
		<g>
			<path style="&st0;" d="M72.843,102.017c0.875,1.856,1.056,3.982,1.68,5.928c0.167,0.52,0.988,0.298,0.82-0.226
				c-0.649-2.024-0.854-4.199-1.766-6.131C73.343,101.092,72.61,101.524,72.843,102.017L72.843,102.017z"/>
		</g>
	</g>
	<g>
		<g>
			<path style="&st0;" d="M24.975,110.841c3.183,0.051,6.298,0.795,9.475,0.861c0.549,0.011,0.548-0.839,0-0.85
				c-3.177-0.066-6.292-0.811-9.475-0.861C24.426,109.982,24.427,110.833,24.975,110.841L24.975,110.841z"/>
		</g>
	</g>
	<g>
		<g>
			<path style="&st0;" d="M29.842,109.254c-2.696,2.747-5.097,5.905-6.139,9.662c-0.147,0.529,0.674,0.754,0.82,0.226
				c1.004-3.62,3.324-6.642,5.92-9.287C30.828,109.464,30.227,108.862,29.842,109.254L29.842,109.254z"/>
		</g>
	</g>
	<g>
		<g>
			<path style="&st0;" d="M30.637,117.954c-1.521,2.998-3.306,5.819-5.168,8.613c-0.305,0.458,0.432,0.883,0.734,0.429
				c1.862-2.794,3.647-5.616,5.168-8.613C31.619,117.895,30.885,117.465,30.637,117.954L30.637,117.954z"/>
		</g>
	</g>
	<g>
		<g>
			<path style="&st0;" d="M31.498,126.567c-0.861,1.723-1.723,3.445-2.584,5.168c-0.244,0.489,0.489,0.92,0.734,0.429
				c0.861-1.723,1.723-3.445,2.584-5.168C32.477,126.507,31.744,126.077,31.498,126.567L31.498,126.567z"/>
		</g>
	</g>
	<g>
		<g>
			<path style="&st0;" d="M31.498,133.458c-0.768,1.493-1.816,2.813-2.584,4.307c-0.25,0.487,0.483,0.917,0.734,0.429
				c0.768-1.493,1.816-2.813,2.584-4.307C32.483,133.4,31.749,132.97,31.498,133.458L31.498,133.458z"/>
		</g>
	</g>
	<g>
		<g>
			<path style="&st0;" d="M29.281,127.207c0.711,0.017,1.353,0.184,2.009,0.446c0.473,0.189,0.92,0.391,1.437,0.415
				c0.548,0.025,0.546-0.825,0-0.85c-0.476-0.022-0.93-0.272-1.364-0.446c-0.669-0.268-1.362-0.398-2.081-0.415
				C28.733,126.344,28.734,127.194,29.281,127.207L29.281,127.207z"/>
		</g>
	</g>
	<g>
		<g>
			<path style="&st0;" d="M31.865,120.316c0.548,0,0.548-0.85,0-0.85S31.317,120.316,31.865,120.316L31.865,120.316z"/>
		</g>
	</g>
	<g>
		<g>
			<path style="&st0;" d="M31.865,113.425c0.548,0,0.548-0.85,0-0.85S31.317,113.425,31.865,113.425L31.865,113.425z"/>
		</g>
	</g>
	<g>
		<g>
			<path style="&st0;" d="M48.446,105.615c2.242-1.52,4.204-3.324,6.115-5.235c0.388-0.388-0.213-0.989-0.601-0.601
				c-1.86,1.859-3.76,3.622-5.943,5.102C47.565,105.187,47.99,105.924,48.446,105.615L48.446,105.615z"/>
		</g>
	</g>
	<g>
		<g>
			<path style="&st0;" d="M47.67,99.519c0.287-0.287,0.574-0.574,0.861-0.861c0.388-0.388-0.213-0.989-0.601-0.601
				c-0.287,0.287-0.574,0.574-0.861,0.861C46.681,99.306,47.282,99.907,47.67,99.519L47.67,99.519z"/>
		</g>
	</g>
	<g>
		<g>
			<path style="&st0;" d="M46.723,97.863c0.935-0.485,1.782-1.117,2.526-1.861c0.52-0.52,1.076-1.188,1.13-1.952
				c0.039-0.548-0.812-0.544-0.85,0c-0.04,0.573-0.649,1.118-1.025,1.494c-0.644,0.644-1.404,1.167-2.21,1.584
				C45.807,97.381,46.237,98.115,46.723,97.863L46.723,97.863z"/>
		</g>
	</g>
	<g>
		<g>
			<path style="&st0;" d="M45.948,93.49c1.596-1.62,3.008-3.437,4.373-5.254c0.33-0.439-0.409-0.862-0.734-0.429
				c-1.321,1.759-2.695,3.514-4.24,5.082C44.961,93.279,45.562,93.881,45.948,93.49L45.948,93.49z"/>
		</g>
	</g>
	<g>
		<g>
			<path style="&st0;" d="M47.069,88.322c1.855,1.88,3.518,3.969,5.168,6.029c0.343,0.428,0.94-0.178,0.601-0.601
				c-1.65-2.06-3.313-4.149-5.168-6.029C47.285,87.33,46.684,87.931,47.069,88.322L47.069,88.322z"/>
		</g>
	</g>
	<g>
		<g>
			<path style="&st0;" d="M48.725,94.265c1.14,2.226,2.626,4.325,4.373,6.115c0.384,0.393,0.984-0.209,0.601-0.601
				c-1.7-1.741-3.131-3.778-4.24-5.943C49.209,93.348,48.476,93.778,48.725,94.265L48.725,94.265z"/>
		</g>
	</g>
	<g>
		<g>
			<path style="&st0;" d="M47.93,99.519c1.807,1.808,3.889,3.662,5.102,5.943c0.257,0.484,0.991,0.055,0.734-0.429
				c-1.248-2.349-3.376-4.257-5.235-6.115C48.144,98.53,47.542,99.131,47.93,99.519L47.93,99.519z"/>
		</g>
	</g>
	<g>
		<g>
			<path style="&st0;" d="M32.36,149.823c-1.029,2.159-1.724,4.706-1.781,7.105c-0.013,0.549,0.838,0.547,0.85,0
				c0.052-2.231,0.706-4.665,1.665-6.676C33.329,149.76,32.596,149.329,32.36,149.823L32.36,149.823z"/>
		</g>
	</g>
	<g>
		<g>
			<path style="&st0;" d="M34.024,151.761c-0.001,0.885-0.104,1.614-0.737,2.283c-0.376,0.398,0.224,1.001,0.601,0.601
				c0.789-0.835,0.985-1.768,0.986-2.885C34.875,151.212,34.025,151.212,34.024,151.761L34.024,151.761z"/>
		</g>
	</g>
	<g>
		<g>
			<path style="&st0;" d="M75.369,148.315c0.068,1.946,0.927,3.672,1.781,5.383c0.245,0.491,0.978,0.06,0.734-0.429
				c-0.784-1.571-1.602-3.164-1.665-4.953C76.2,147.769,75.35,147.767,75.369,148.315L75.369,148.315z"/>
		</g>
	</g>
	<g>
		<g>
			<path style="&st0;" d="M37.895,156.493c12.729-0.084,25.304-1.762,37.899-3.445c0.535-0.072,0.542-0.923,0-0.85
				c-12.595,1.683-25.171,3.362-37.899,3.445C37.347,155.646,37.346,156.496,37.895,156.493L37.895,156.493z"/>
		</g>
	</g>
	<g>
		<g>
			<path style="&st0;" d="M70.411,151.267c2.596,1.113,5.218,2.196,7.752,3.445c0.49,0.242,0.921-0.492,0.429-0.734
				c-2.534-1.249-5.156-2.332-7.752-3.445C70.342,150.319,69.909,151.051,70.411,151.267L70.411,151.267z"/>
		</g>
	</g>
	<g>
		<g>
			<path style="&st0;" d="M78.803,86.299c0-1.148,0-2.297,0-3.445c0-0.548-0.85-0.548-0.85,0c0,1.148,0,2.297,0,3.445
				C77.953,86.847,78.803,86.847,78.803,86.299L78.803,86.299z"/>
		</g>
	</g>
	<g>
		<g>
			<path style="&st0;" d="M68.042,108.257c1.558,0.046,2.755,0.977,4.092,1.665c0.487,0.25,0.917-0.484,0.429-0.734
				c-1.492-0.767-2.786-1.729-4.521-1.781C67.493,107.391,67.495,108.241,68.042,108.257L68.042,108.257z"/>
		</g>
	</g>
	<g>
		<g>
			<path style="&st0;" d="M92.611,102.551c-1.011,2.925-2.434,5.688-3.445,8.613c-0.18,0.52,0.642,0.741,0.82,0.226
				c1.011-2.925,2.434-5.688,3.445-8.613C93.611,102.257,92.789,102.036,92.611,102.551L92.611,102.551z"/>
		</g>
	</g>
	<g>
		<g>
			<path style="&st0;" d="M89.081,108.047c0.97-1.841,2.476-3.327,3.445-5.168c0.255-0.485-0.479-0.915-0.734-0.429
				c-0.97,1.841-2.476,3.327-3.445,5.168C88.092,108.102,88.826,108.532,89.081,108.047L89.081,108.047z"/>
		</g>
	</g>
	<g>
		<g>
			<path style="&st0;" d="M89.081,103.74c0.999-1.998,1.907-4.014,2.627-6.131c0.177-0.521-0.645-0.742-0.82-0.226
				c-0.696,2.047-1.576,3.996-2.541,5.928C88.103,103.8,88.836,104.231,89.081,103.74L89.081,103.74z"/>
		</g>
	</g>
	<g>
		<g>
			<path style="&st0;" d="M88.153,98.658c0.29-0.305,0.531-0.638,0.754-0.995c0.17-0.273,0.311-0.584,0.668-0.603
				c0.545-0.03,0.548-0.88,0-0.85c-1.097,0.06-1.365,1.154-2.023,1.847C87.175,98.454,87.775,99.056,88.153,98.658L88.153,98.658z"
				/>
		</g>
	</g>
	<g>
		<g>
			<path style="&st0;" d="M89.275,96.074c1.605,1.604,3.226,3.304,5.254,4.373c0.485,0.256,0.914-0.478,0.429-0.734
				c-1.965-1.036-3.527-2.686-5.082-4.24C89.488,95.085,88.887,95.686,89.275,96.074L89.275,96.074z"/>
		</g>
	</g>
	<g>
		<g>
			<path style="&st0;" d="M88.347,100.295c1.755,2.631,3.549,5.215,6.182,7.043c0.452,0.314,0.876-0.424,0.429-0.734
				c-2.506-1.74-4.207-4.235-5.877-6.738C88.779,99.412,88.042,99.837,88.347,100.295L88.347,100.295z"/>
		</g>
	</g>
	<g>
		<g>
			<path style="&st0;" d="M92.908,108.242c3.117,1.015,6.302,1.684,9.588,1.738c0.549,0.009,0.548-0.841,0-0.85
				c-3.211-0.052-6.318-0.716-9.362-1.707C92.611,107.252,92.389,108.073,92.908,108.242L92.908,108.242z"/>
		</g>
	</g>
	<g>
		<g>
			<path style="&st0;" d="M115.716,110.717c0.916-0.915,1.798-1.566,3.145-1.598c0.547-0.013,0.549-0.864,0-0.85
				c-1.576,0.038-2.665,0.768-3.746,1.847C114.727,110.503,115.328,111.105,115.716,110.717L115.716,110.717z"/>
		</g>
	</g>
	<g>
		<g>
			<g>
				<g>
					<path style="&st0;" d="M121.474,108.646c1.508-1.587,2.874-3.29,4.641-4.609c4.16-3.105,2.182,3.436,1.929,4.941
						c-0.653,3.887-1.595,7.711-2.146,11.617c-0.845,5.985-0.072,11.578,4.07,16.158c0.299,0.331,0.898,0.329,1.198,0
						c9.157-10.04,16.578-46.172-4.476-47.482c-1.091-0.068-1.085,1.626,0,1.694c14.395,0.896,12.353,22.169,9.848,31.63
						c-0.752,2.84-1.847,5.577-3.204,8.18c-0.555,1.064-1.219,2.064-1.909,3.043c-0.691,1.611-1.33,1.516-1.917-0.283
						c-1.009-1.377-1.488-3.063-1.893-4.694c-2.124-8.554,2.601-17.975,2.829-26.609c0.011-0.432-0.395-0.886-0.847-0.847
						c-4.397,0.381-6.414,3.003-9.322,6.063C119.524,108.239,120.72,109.439,121.474,108.646L121.474,108.646z"/>
				</g>
			</g>
			<g>
				<g>
					<path style="&st0;" d="M124.389,80.91c0.033,3.202,0.868,8.834,4.637,9.862c4.732,1.29,5.196-7.821,5.295-10.346
						c0.018-0.462-0.399-0.847-0.847-0.847c-2.746,0-5.492,0-8.238,0c-1.092,0-1.092,1.694,0,1.694c2.746,0,5.492,0,8.238,0
						c-0.282-0.282-0.565-0.565-0.847-0.847c-0.054,1.384-0.276,9.497-3.306,8.671c-1.063-0.29-1.738-1.651-2.163-2.55
						c-0.818-1.733-1.055-3.744-1.075-5.636C126.072,79.818,124.378,79.817,124.389,80.91L124.389,80.91z"/>
				</g>
			</g>
			<g>
				<g>
					<path style="&st0;" d="M127.811,76.808c-0.515,1.646-0.514,3.363-0.515,5.071c0,1.092,1.694,1.092,1.694,0
						c0.001-1.562-0.017-3.115,0.454-4.621C129.772,76.213,128.136,75.769,127.811,76.808L127.811,76.808z"/>
				</g>
			</g>
			<g>
				<g>
					<path style="&st0;" d="M130.689,77.033c-0.001,1.723-0.06,3.421-0.454,5.105c-0.248,1.063,1.385,1.514,1.633,0.45
						c0.428-1.83,0.514-3.683,0.515-5.556C132.383,75.94,130.689,75.941,130.689,77.033L130.689,77.033z"/>
				</g>
			</g>
			<g>
				<g>
					<path style="&st0;" d="M129.443,83.061c-0.47,1.517-0.47,3.024,0,4.541c0.129,0.416,0.783,0.238,0.653-0.18
						c-0.437-1.412-0.437-2.769,0-4.181C130.226,82.822,129.572,82.645,129.443,83.061L129.443,83.061z"/>
				</g>
			</g>
			<g>
				<g>
					<path style="&st0;" d="M127.831,82.52c0.437,0,0.437-0.678,0-0.678S127.394,82.52,127.831,82.52L127.831,82.52z"/>
				</g>
			</g>
			<g>
				<g>
					<path style="&st0;" d="M127.347,84.943c0.437,0,0.437-0.678,0-0.678S126.91,84.943,127.347,84.943L127.347,84.943z"/>
				</g>
			</g>
			<g>
				<g>
					<path style="&st0;" d="M128.487,85.866c0.858-0.429,1.786-0.84,2.492-1.507c0.318-0.301-0.162-0.779-0.479-0.479
						c-0.658,0.622-1.554,1-2.354,1.401C127.754,85.477,128.097,86.061,128.487,85.866L128.487,85.866z"/>
				</g>
			</g>
			<g>
				<g>
					<path style="&st0;" d="M128.406,83.962c1.42-0.483,2.706-1.147,3.958-1.973c0.363-0.239,0.024-0.827-0.342-0.585
						c-1.203,0.794-2.429,1.439-3.796,1.904C127.815,83.449,127.991,84.103,128.406,83.962L128.406,83.962z"/>
				</g>
			</g>
			<g>
				<g>
					<path style="&st0;" d="M128.316,81.551c1.113-0.039,2.1-0.527,3.079-1.015c0.391-0.195,0.048-0.78-0.342-0.585
						c-0.867,0.433-1.749,0.888-2.737,0.923C127.88,80.889,127.879,81.566,128.316,81.551L128.316,81.551z"/>
				</g>
			</g>
			<g>
				<g>
					<path style="&st0;" d="M129.77,85.913c0.663-0.002,1.193-0.127,1.693-0.584c0.324-0.295-0.157-0.773-0.479-0.479
						c-0.365,0.332-0.74,0.384-1.214,0.385C129.333,85.236,129.333,85.914,129.77,85.913L129.77,85.913z"/>
				</g>
			</g>
			<g>
				<g>
					<path style="&st0;" d="M130.494,87.752c0.548-0.489,1.377-0.468,1.938-0.969c0.327-0.292-0.154-0.769-0.479-0.479
						c-0.548,0.489-1.377,0.468-1.938,0.969C129.688,87.564,130.169,88.042,130.494,87.752L130.494,87.752z"/>
				</g>
			</g>
			<g>
				<g>
					<path style="&st0;" d="M45.889,40.135c14.989-0.061,29.948-1.411,44.942-0.991c1.545,0.043,1.541-2.351,0-2.394
						c-14.994-0.419-29.953,0.931-44.942,0.991C44.345,37.747,44.345,40.142,45.889,40.135L45.889,40.135z"/>
				</g>
			</g>
			<g>
				<g>
					<path style="&st0;" d="M43.704,39.434c-1.417,28.293,2.253,56.5,4.445,84.656c0.119,1.529,2.514,1.541,2.394,0
						c-2.192-28.157-5.862-56.363-4.445-84.656C46.176,37.89,43.781,37.897,43.704,39.434L43.704,39.434z"/>
				</g>
			</g>
			<g>
				<g>
					<path style="&st0;" d="M74.882,123.271c8.213-0.148,16.353,0.508,24.55,0.79c7.986,0.275,15.808-0.876,23.576-2.649
						c1.505-0.343,0.867-2.652-0.637-2.309c-8.01,1.828-15.936,2.804-24.149,2.522c-7.796-0.268-15.528-0.889-23.34-0.748
						C73.34,120.904,73.337,123.299,74.882,123.271L74.882,123.271z"/>
				</g>
			</g>
			<g>
				<g>
					<path style="&st0;" d="M90.622,37.947c-0.848,7.08-1.491,15.773,3.172,21.787c6.255,8.066,17.917,7.566,27.005,6.43
						c1.511-0.189,1.53-2.586,0-2.394c-8.498,1.063-20.034,1.905-25.568-6.13c-3.804-5.523-2.965-13.421-2.215-19.692
						C93.199,36.416,90.803,36.434,90.622,37.947L90.622,37.947z"/>
				</g>
			</g>
			<g>
				<g>
					<path style="&st0;" d="M118.614,64.966c0.632,18.486-0.443,37.333,2.922,55.61c0.279,1.517,2.587,0.873,2.309-0.637
						c-3.324-18.052-2.211-36.713-2.836-54.973C120.956,63.426,118.561,63.421,118.614,64.966L118.614,64.966z"/>
				</g>
			</g>
			<g>
				<g>
					<path style="&st0;" d="M47.226,98.695c-2.138-0.19-4.472-0.05-6.111,1.499c-1.609,1.52-1.494,4.009-1.126,5.993
						c0.199,1.073,1.832,0.617,1.633-0.45c-0.288-1.551-0.386-3.329,0.853-4.499c1.183-1.117,3.273-0.981,4.751-0.849
						C48.314,100.486,48.305,98.791,47.226,98.695L47.226,98.695z"/>
				</g>
			</g>
			<g>
				<g>
					<path style="&st0;" d="M47.292,115.602c-2.112,1.006-4.274,1-5.176-1.469c-0.372-1.017-2.009-0.578-1.633,0.45
						c1.304,3.57,4.494,3.992,7.664,2.482C49.133,116.595,48.273,115.135,47.292,115.602L47.292,115.602z"/>
				</g>
			</g>
			<g>
				<g>
					<path style="&st0;" d="M41.031,105.146c-6.421-1.942-12.996-1.439-19.217,0.988c-1.006,0.392-0.569,2.031,0.45,1.633
						c5.949-2.321,12.163-2.849,18.317-0.988C41.629,107.096,42.073,105.461,41.031,105.146L41.031,105.146z"/>
				</g>
			</g>
			<g>
				<g>
					<path style="&st0;" d="M21.686,106.95c0,16.632,0.021,33.271,0.988,49.881c0.063,1.086,1.757,1.092,1.694,0
						c-0.966-16.61-0.987-33.248-0.988-49.881C23.379,105.858,21.686,105.858,21.686,106.95L21.686,106.95z"/>
				</g>
			</g>
			<g>
				<g>
					<path style="&st0;" d="M23.52,158.665c17.432,0.969,35.009,0.615,52.35-1.482c1.07-0.129,1.083-1.825,0-1.694
						c-17.341,2.096-34.917,2.45-52.35,1.482C22.428,156.911,22.434,158.605,23.52,158.665L23.52,158.665z"/>
				</g>
			</g>
			<g>
				<g>
					<path style="&st0;" d="M41.3,113.017c-2.742,0.006-5.419,0.085-8.127,0.524c-0.366,0.059-0.623,0.471-0.622,0.817
						c0.031,11.414,0.557,22.819,1.561,34.189c0.095,1.079,1.79,1.089,1.694,0c-0.583-6.609-0.994-13.226-1.268-19.855
						c-0.125-3.026-0.196-6.053-0.251-9.081c-0.035-1.952-0.936-4.499,2.106-4.793c1.622-0.157,3.281-0.103,4.907-0.107
						C42.392,114.709,42.392,113.015,41.3,113.017L41.3,113.017z"/>
				</g>
			</g>
			<g>
				<g>
					<path style="&st0;" d="M34.464,150.382c10.754-0.139,21.574-2.516,32.291-0.636c1.068,0.187,1.525-1.445,0.45-1.633
						c-10.89-1.91-21.815,0.435-32.741,0.576C33.373,148.702,33.371,150.396,34.464,150.382L34.464,150.382z"/>
				</g>
			</g>
			<g>
				<g>
					<path style="&st0;" d="M67.334,148.435c0.858-10.336-0.93-20.523-2.157-30.754c-0.585-4.88-0.897-9.766-0.806-14.681
						c0.042-2.271-2.471-4.099-2.079-6.794c0.909-6.258,20.567-2.543,10.511,9.159c-0.708,0.824,0.485,2.028,1.198,1.198
						c3.047-3.546,5.123-8.102,1.695-12.101c-2.671-3.116-8.056-4.023-11.745-2.527c-4.667,1.893-3.564,7.072-1.679,10.619
						c1.439,2.707,0.56,8.388,0.826,11.463c0.317,3.67,0.835,7.324,1.314,10.975c1.023,7.8,1.883,15.574,1.23,23.444
						C65.549,149.524,67.244,149.515,67.334,148.435L67.334,148.435z"/>
				</g>
			</g>
			<g>
				<g>
					<path style="&st0;" d="M71.566,104.975c2.084,17.357,5.319,34.822,3.457,52.35c-0.115,1.086,1.58,1.075,1.694,0
						c1.862-17.528-1.373-34.993-3.457-52.35C73.132,103.904,71.436,103.891,71.566,104.975L71.566,104.975z"/>
				</g>
			</g>
			<g>
				<g>
					<path style="&st0;" d="M67.369,149.528c0.941,0.816,2.212,1.324,3.32,1.861c1.433,0.694,2.921,1.397,4.462,1.814
						c1.056,0.286,1.504-1.348,0.45-1.633c-1.408-0.381-2.744-1.018-4.057-1.643c-0.951-0.452-2.173-0.899-2.977-1.596
						C67.746,147.618,66.542,148.811,67.369,149.528L67.369,149.528z"/>
				</g>
			</g>
			<g>
				<g>
					<path style="&st0;" d="M67.541,146.697c2.341,1.672,5.197,2.529,8.061,2.061c1.076-0.176,0.618-1.808-0.45-1.633
						c-2.408,0.393-4.815-0.504-6.755-1.89C67.505,144.598,66.66,146.068,67.541,146.697L67.541,146.697z"/>
				</g>
			</g>
			<g>
				<g>
					<path style="&st0;" d="M68.035,143.734c2.147,1.025,4.469,1.561,6.848,1.597c1.093,0.017,1.091-1.677,0-1.694
						c-2.069-0.032-4.122-0.473-5.993-1.366C67.909,141.803,67.049,143.263,68.035,143.734L68.035,143.734z"/>
				</g>
			</g>
			<g>
				<g>
					<path style="&st0;" d="M67.645,147.672c1.498,3.784,4.355,6.816,8.493,7.506c1.068,0.178,1.526-1.454,0.45-1.633
						c-3.533-0.589-6.018-3.058-7.31-6.323C68.882,146.219,67.243,146.656,67.645,147.672L67.645,147.672z"/>
				</g>
			</g>
			<g>
				<g>
					<path style="&st0;" d="M66.627,147.941c0.054,3.209,1.082,6.326,3.877,8.139c0.919,0.597,1.768-0.871,0.855-1.463
						c-2.274-1.476-2.994-4.099-3.038-6.677C68.303,146.85,66.609,146.848,66.627,147.941L66.627,147.941z"/>
				</g>
			</g>
			<g>
				<g>
					<path style="&st0;" d="M24.442,158.056c4.569-2.331,7.461-5.52,9.766-10.069c0.493-0.972-0.969-1.83-1.463-0.855
						c-2.181,4.303-4.832,7.254-9.159,9.462C22.613,157.09,23.471,158.551,24.442,158.056L24.442,158.056z"/>
				</g>
			</g>
			<g>
				<g>
					<path style="&st0;" d="M32.021,157.43c2.349-2.457,2.368-5.194,2.796-8.389c0.145-1.08-1.551-1.066-1.694,0
						c-0.362,2.703-0.304,5.103-2.3,7.191C30.069,157.021,31.265,158.22,32.021,157.43L32.021,157.43z"/>
				</g>
			</g>
			<g>
				<g>
					<path style="&st0;" d="M33.372,147.454c-1.252,1.047-2.518,1.95-4.114,2.365c-1.359,0.354-2.866,0.239-4.256,0.238
						c-1.092-0.001-1.092,1.693,0,1.694c1.708,0.001,3.418,0.037,5.082-0.396c1.71-0.445,3.157-1.592,4.485-2.703
						C35.408,147.95,34.203,146.758,33.372,147.454L33.372,147.454z"/>
				</g>
			</g>
			<g>
				<g>
					<path style="&st0;" d="M25.271,148.264c3.179,0.941,5.687,1.894,8.925,0.606c1.002-0.399,0.566-2.038-0.45-1.633
						c-2.942,1.171-5.156,0.243-8.024-0.606C24.671,146.32,24.226,147.955,25.271,148.264L25.271,148.264z"/>
				</g>
			</g>
			<g>
				<g>
					<path style="&st0;" d="M22.428,106.561c3.13,3.989,7.467,6.475,12.024,8.528c0.987,0.445,1.85-1.014,0.855-1.463
						c-4.434-1.998-8.633-4.379-11.681-8.263C22.951,104.505,21.761,105.712,22.428,106.561L22.428,106.561z"/>
				</g>
			</g>
			<g>
				<g>
					<path style="&st0;" d="M23.415,111.994c2.99,2.788,6.984,3.622,10.97,3.211c1.076-0.111,1.086-1.806,0-1.694
						c-3.529,0.363-7.1-0.223-9.772-2.715C23.815,110.052,22.615,111.247,23.415,111.994L23.415,111.994z"/>
				</g>
			</g>
			<g>
				<g>
					<path style="&st0;" d="M24.283,115.669c3.445,1.064,6.937,0.846,10.036-1.073c0.926-0.574,0.077-2.04-0.855-1.463
						c-2.737,1.695-5.7,1.839-8.731,0.902C23.687,113.712,23.243,115.347,24.283,115.669L24.283,115.669z"/>
				</g>
			</g>
			<g>
				<g>
					<path style="&st0;" d="M29.587,106.95c0.105,3.324,2.121,5.931,4.864,7.645c0.929,0.581,1.779-0.885,0.855-1.463
						c-2.222-1.389-3.94-3.472-4.025-6.183C31.247,105.86,29.553,105.857,29.587,106.95L29.587,106.95z"/>
				</g>
			</g>
			<g>
				<g>
					<path style="&st0;" d="M67.712,100.596c-1.037-1.582-2.069-3.883-0.673-5.525c1.134-1.334,3.097-1.684,4.764-1.546
						c1.58,0.131,3.24,0.943,3.666,2.515c0.727,2.68-2.015,5.632-3.656,7.348c-0.755,0.789,0.442,1.989,1.198,1.198
						c2.021-2.113,4.416-4.967,4.23-8.102c-0.125-2.107-1.642-3.583-3.544-4.268c-3.608-1.3-9.078,0.409-9.034,4.883
						c0.015,1.567,0.744,3.07,1.586,4.352C66.846,102.36,68.313,101.513,67.712,100.596L67.712,100.596z"/>
				</g>
			</g>
			<g>
				<g>
					<path style="&st0;" d="M74.742,101.518c-0.027-2.889-0.518-6.13-2.729-8.206c-1.438-1.35-3.541-1.758-5.381-1.068
						c-1.856,0.695-3.175,2.368-3.539,4.299c-0.534,2.829,0.993,5.501,2.795,7.549c0.723,0.822,1.916-0.381,1.198-1.198
						c-2.089-2.375-4.044-7.331-0.003-9.017c4.546-1.897,5.937,4.574,5.965,7.641C73.058,102.609,74.752,102.61,74.742,101.518
						L74.742,101.518z"/>
				</g>
			</g>
			<g>
				<g>
					<path style="&st0;" d="M65.328,100.755c0.658-2.914,3.149-8.616,7.194-6.818c4.295,1.909,0.732,7.774-1.201,9.945
						c-0.724,0.813,0.47,2.015,1.198,1.198c2.797-3.142,6.103-9.688,1.02-12.524c-1.749-0.976-3.883-0.632-5.514,0.401
						c-2.492,1.578-3.708,4.597-4.329,7.348C63.454,101.368,65.088,101.82,65.328,100.755L65.328,100.755z"/>
				</g>
			</g>
			<g>
				<g>
					<path style="&st0;" d="M64.017,121.063c-5.04,0.462-10.08,0.509-14.989,1.873c-1.486,0.413-0.854,2.723,0.637,2.309
						c4.701-1.306,9.528-1.345,14.353-1.787C65.542,123.317,65.555,120.922,64.017,121.063L64.017,121.063z"/>
				</g>
			</g>
			<g>
				<g>
					<g>
						<path style="&st0;" d="M94.411,49.751c1.128-0.571,3.11-1.696,2.922-3.242c-0.235-1.928-2.97-1.927-4.398-1.889
							c-1.015,0.027-1.018,1.604,0,1.578c0.749-0.02,1.499-0.016,2.23,0.165c0.188,0.047,0.351,0.113,0.517,0.211
							c0.078,0.046,0.102,0.165,0.083,0.015c0.079,0.65-1.552,1.497-2.15,1.8C92.707,48.849,93.506,50.21,94.411,49.751
							L94.411,49.751z"/>
					</g>
				</g>
				<g>
					<g>
						<path style="&st0;" d="M95.434,40.276c-1.233-0.51-2.793-0.35-4.095-0.318c-0.879,0.022-0.881,1.387,0,1.365
							c1.188-0.029,2.609-0.196,3.732,0.269C95.884,41.929,96.235,40.607,95.434,40.276L95.434,40.276z"/>
					</g>
				</g>
				<g>
					<g>
						<path style="&st0;" d="M94.213,41.516c1.248,3.834,1.005,7.927,1.448,11.892c0.167-0.219,0.334-0.439,0.501-0.658
							c-1.469,0.379-3.009,0.113-4.504,0.092c-0.881-0.013-0.88,1.353,0,1.365c1.627,0.023,3.268,0.272,4.867-0.141
							c0.269-0.069,0.534-0.364,0.501-0.658c-0.456-4.086-0.21-8.303-1.496-12.255C95.258,40.319,93.94,40.676,94.213,41.516
							L94.213,41.516z"/>
					</g>
				</g>
				<g>
					<g>
						<path style="&st0;" d="M95.91,43.915c0.934,0.179,1.866,0.175,2.81,0.248c0.481,0.037,1.062,0.071,1.165,0.579
							c0.08,0.396,0.114,0.823,0.034,1.221c-0.105,0.516-0.621,0.771-1.043,0.997c-0.734,0.394-1.493,0.73-2.213,1.154
							c-0.757,0.447-0.071,1.627,0.689,1.179c1.391-0.821,3.549-1.327,3.918-3.143c0.123-0.604,0.156-2.521-0.521-2.808
							c-1.482-0.627-2.935-0.447-4.477-0.743C95.413,42.434,95.046,43.749,95.91,43.915L95.91,43.915z"/>
					</g>
				</g>
				<g>
					<g>
						<path style="&st0;" d="M101.288,44.795c1.724-1.916,3.565-3.846,5.907-4.913c0.047-0.021,0.094-0.042,0.141-0.062
							c-0.165,0.071-0.008,0.005,0.022-0.007c0.089-0.035,0.18-0.068,0.271-0.099c0.183-0.063,0.37-0.115,0.559-0.157
							c0.081-0.018,0.163-0.033,0.245-0.046c0.148-0.024-0.169,0.02-0.023,0.002c0.039-0.005,0.078-0.008,0.117-0.012
							c0.161-0.015,0.322-0.017,0.483-0.008c0.06,0.003,0.318,0.034,0.063,0c0.068,0.009,0.135,0.022,0.201,0.036
							c0.14,0.029,0.277,0.073,0.41,0.124c0.007,0.003-0.124-0.059,0.043,0.023c0.057,0.028,0.113,0.06,0.168,0.092
							c0.055,0.033,0.108,0.068,0.161,0.104c0.175,0.121-0.098-0.087,0.065,0.051c0.1,0.084,0.192,0.176,0.28,0.273
							c0.045,0.049,0.088,0.1,0.129,0.152c0.082,0.102-0.103-0.136-0.024-0.031c0.027,0.036,0.053,0.074,0.079,0.111
							c0.17,0.245,0.307,0.512,0.425,0.785c-0.094-0.218,0.01,0.03,0.029,0.082c0.027,0.072,0.052,0.145,0.077,0.218
							c0.055,0.163,0.101,0.329,0.144,0.496c0.041,0.16,0.075,0.321,0.106,0.483c0.016,0.083,0.03,0.166,0.043,0.25
							c0.007,0.042,0.013,0.084,0.019,0.127c0.029,0.197-0.011-0.093,0.004,0.032c0.095,0.751,0.104,1.512,0.059,2.267
							c-0.011,0.188-0.027,0.376-0.045,0.564c-0.009,0.094-0.02,0.189-0.031,0.283c-0.006,0.047-0.011,0.094-0.017,0.141
							c-0.016,0.124,0.021-0.146-0.008,0.054c-0.056,0.392-0.129,0.781-0.215,1.167c-0.167,0.748-0.394,1.483-0.688,2.19
							c0.082-0.197-0.032,0.072-0.053,0.118c-0.035,0.079-0.072,0.157-0.109,0.235c-0.079,0.165-0.163,0.327-0.252,0.487
							c-0.161,0.291-0.341,0.571-0.539,0.838c-0.085,0.114,0.101-0.128,0.014-0.018c-0.023,0.03-0.047,0.059-0.071,0.088
							c-0.047,0.057-0.095,0.113-0.144,0.169c-0.103,0.116-0.212,0.226-0.326,0.332c-0.051,0.047-0.103,0.092-0.156,0.137
							c-0.167,0.14,0.085-0.059-0.048,0.039c-0.114,0.084-0.235,0.16-0.359,0.229c-0.056,0.031-0.113,0.059-0.171,0.087
							c-0.15,0.071,0.159-0.059-0.041,0.016c-0.127,0.048-0.258,0.084-0.39,0.111c-0.189,0.039-0.024,0.007-0.035,0.009
							c-0.063,0.007-0.126,0.011-0.188,0.013c-0.098,0.003-0.523-0.041-0.27-0.004c-0.231-0.034-0.455-0.102-0.67-0.189
							c0.215,0.087-0.147-0.076-0.218-0.115c-0.134-0.073-0.263-0.156-0.389-0.243c-0.061-0.042-0.12-0.086-0.18-0.131
							c0.162,0.122-0.045-0.039-0.079-0.067c-0.127-0.106-0.248-0.218-0.367-0.333c-0.284-0.274-0.544-0.572-0.79-0.88
							c-0.073-0.092-0.18-0.234-0.316-0.425c-0.135-0.189-0.264-0.381-0.39-0.575c-0.298-0.459-0.572-0.933-0.833-1.414
							c-0.624-1.149-1.158-2.346-1.645-3.559c-0.138-0.345-0.45-0.584-0.84-0.477c-0.328,0.09-0.616,0.494-0.477,0.84
							c1.014,2.528,2.182,5.173,4.064,7.19c1.025,1.099,2.402,1.961,3.955,1.683c1.299-0.232,2.284-1.34,2.934-2.413
							c0.797-1.315,1.269-2.842,1.531-4.349c0.461-2.644,0.566-6.507-1.87-8.283c-1.244-0.907-2.857-0.616-4.171-0.051
							c-2.344,1.01-4.294,3.002-5.989,4.849c-0.097,0.106-0.193,0.212-0.289,0.319C99.736,44.482,100.698,45.45,101.288,44.795
							L101.288,44.795z"/>
					</g>
				</g>
				<g>
					<g>
						<path style="&st0;" d="M106.734,43.903c-1.722-0.635-4.397,0.279-5.982,0.926c-0.321,0.131-0.181,0.66,0.145,0.527
							c0.925-0.378,1.88-0.636,2.86-0.83c0.837-0.166,1.995-0.405,2.832-0.097C106.92,44.552,107.062,44.024,106.734,43.903
							L106.734,43.903z"/>
					</g>
				</g>
				<g>
					<g>
						<path style="&st0;" d="M104.348,44.713c-1.432,0.036-2.863,0.071-4.295,0.107c-0.879,0.022-0.881,1.387,0,1.365
							c1.432-0.036,2.863-0.071,4.295-0.107C105.227,46.057,105.229,44.691,104.348,44.713L104.348,44.713z"/>
					</g>
				</g>
				<g>
					<g>
						<path style="&st0;" d="M106.379,43.776c0.002,1.196-0.338,2.327-0.684,3.461c-0.103,0.338,0.424,0.481,0.527,0.145
							c0.361-1.181,0.705-2.361,0.703-3.606C106.925,43.424,106.378,43.424,106.379,43.776L106.379,43.776z"/>
					</g>
				</g>
				<g>
					<g>
						<path style="&st0;" d="M106.3,45.074c-0.521,0.013-1.041,0.026-1.562,0.039c-0.352,0.009-0.352,0.555,0,0.546
							c0.521-0.013,1.041-0.026,1.562-0.039C106.652,45.612,106.653,45.066,106.3,45.074L106.3,45.074z"/>
					</g>
				</g>
				<g>
					<g>
						<path style="&st0;" d="M106.671,44.83c0.352,0,0.352-0.546,0-0.546C106.319,44.284,106.319,44.83,106.671,44.83L106.671,44.83
							z"/>
					</g>
				</g>
				<g>
					<g>
						<path style="&st0;" d="M108.223,43.855c-1.301,0.032-2.603,0.065-3.904,0.097c-0.352,0.009-0.352,0.555,0,0.546
							c1.301-0.032,2.603-0.065,3.904-0.097C108.575,44.392,108.576,43.846,108.223,43.855L108.223,43.855z"/>
					</g>
				</g>
				<g>
					<g>
						<path style="&st0;" d="M107.944,45.436c-1.181-0.334-2.378-0.342-3.596-0.313c-0.352,0.009-0.352,0.555,0,0.546
							c1.169-0.028,2.316-0.028,3.451,0.293C108.139,46.058,108.283,45.531,107.944,45.436L107.944,45.436z"/>
					</g>
				</g>
				<g>
					<g>
						<path style="&st0;" d="M106.096,47.073c-1.946-1.293-4.51-1.835-6.823-1.824c-0.352,0.002-0.352,0.548,0,0.546
							c2.213-0.01,4.685,0.512,6.548,1.75C106.115,47.74,106.388,47.267,106.096,47.073L106.096,47.073z"/>
					</g>
				</g>
				<g>
					<g>
						<path style="&st0;" d="M96.668,43.835c-0.762-1.366-1.949-2.443-3.07-3.51c-0.255-0.243-0.642,0.143-0.386,0.386
							c1.087,1.035,2.245,2.075,2.985,3.399C96.368,44.418,96.84,44.143,96.668,43.835L96.668,43.835z"/>
					</g>
				</g>
				<g>
					<g>
						<path style="&st0;" d="M96.585,44.325c-1.273-0.631-2.313-1.633-3.586-2.264c-0.314-0.156-0.591,0.315-0.276,0.472
							c1.273,0.631,2.313,1.633,3.586,2.264C96.624,44.953,96.9,44.482,96.585,44.325L96.585,44.325z"/>
					</g>
				</g>
				<g>
					<g>
						<path style="&st0;" d="M96.067,44.97c-0.744-0.708-1.521-1.3-2.451-1.748c-0.316-0.152-0.593,0.319-0.276,0.472
							c0.888,0.428,1.629,0.986,2.34,1.663C95.936,45.599,96.322,45.214,96.067,44.97L96.067,44.97z"/>
					</g>
				</g>
				<g>
					<g>
						<path style="&st0;" d="M96.041,46.104c-1.097-0.539-2.061-1.4-2.943-2.236c-0.255-0.242-0.642,0.143-0.386,0.386
							c0.912,0.865,1.919,1.764,3.053,2.321C96.08,46.73,96.357,46.259,96.041,46.104L96.041,46.104z"/>
					</g>
				</g>
				<g>
					<g>
						<path style="&st0;" d="M96.673,47.853c-1.143-0.55-2.031-1.369-2.943-2.236c-0.255-0.243-0.642,0.143-0.386,0.386
							c0.945,0.898,1.869,1.751,3.053,2.321C96.713,48.476,96.99,48.005,96.673,47.853L96.673,47.853z"/>
					</g>
				</g>
			</g>
			<g>
				<g>
					<g>
						<path style="&st0;" d="M53.985,66.453c-0.253-4.109-0.35-8.206-0.219-12.321c0.08-2.501,0.336-4.991,0.679-7.468
							c0.43-3.11,1.143,0.274,1.549,1.376c1.7,4.614,5.881,17.554-2.348,18.074c-0.434,0.027-0.437,0.705,0,0.678
							c10.568-0.668,3.467-18.181,1.28-23.228c-0.116-0.268-0.565-0.192-0.619,0.081c-1.485,7.521-1.469,15.182-1,22.808
							C53.334,66.887,54.012,66.89,53.985,66.453L53.985,66.453z"/>
					</g>
				</g>
				<g>
					<g>
						<path style="&st0;" d="M54.14,63.829c1.25,0,2.476,0.002,3.628-0.54c0.395-0.186,0.051-0.77-0.342-0.585
							c-1.03,0.485-2.173,0.447-3.286,0.448C53.703,63.151,53.703,63.829,54.14,63.829L54.14,63.829z"/>
					</g>
				</g>
				<g>
					<g>
						<path style="&st0;" d="M54.14,61.359c1.097-0.001,2.126-0.071,3.134-0.54c0.396-0.184,0.052-0.768-0.342-0.585
							c-0.89,0.414-1.828,0.447-2.792,0.448C53.703,60.682,53.703,61.36,54.14,61.359L54.14,61.359z"/>
					</g>
				</g>
				<g>
					<g>
						<path style="&st0;" d="M54.14,58.396c0.988,0,1.975,0,2.963,0c0.437,0,0.437-0.678,0-0.678c-0.988,0-1.975,0-2.963,0
							C53.703,57.718,53.703,58.396,54.14,58.396L54.14,58.396z"/>
					</g>
				</g>
				<g>
					<g>
						<path style="&st0;" d="M54.05,55.915c1.487,0.466,3.068,0.529,4.281-0.581c0.323-0.296-0.158-0.773-0.479-0.479
							c-1.028,0.941-2.384,0.795-3.621,0.407C53.812,55.13,53.635,55.784,54.05,55.915L54.05,55.915z"/>
					</g>
				</g>
				<g>
					<g>
						<path style="&st0;" d="M54.634,53.951c1.176-0.029,1.921-0.794,2.709-1.581c0.309-0.309-0.17-0.788-0.479-0.479
							c-0.642,0.642-1.26,1.359-2.23,1.382C54.198,53.284,54.197,53.962,54.634,53.951L54.634,53.951z"/>
					</g>
				</g>
				<g>
					<g>
						<path style="&st0;" d="M53.886,50.889c0.311-0.277,0.744-0.363,1.134-0.473c0.436-0.123,0.857-0.269,1.267-0.462
							c0.395-0.186,0.051-0.77-0.342-0.585c-0.818,0.386-1.845,0.423-2.538,1.041C53.08,50.701,53.561,51.179,53.886,50.889
							L53.886,50.889z"/>
					</g>
				</g>
			</g>
			<g>
				<g>
					<g>
						<path style="&st0;" d="M63.546,66.453c-0.253-4.109-0.35-8.206-0.219-12.321c0.08-2.501,0.336-4.991,0.679-7.468
							c0.43-3.11,1.143,0.274,1.549,1.376c1.7,4.614,5.881,17.554-2.348,18.074c-0.434,0.027-0.437,0.705,0,0.678
							c10.568-0.668,3.467-18.181,1.28-23.228c-0.116-0.268-0.565-0.192-0.619,0.081c-1.485,7.521-1.469,15.182-1,22.808
							C62.895,66.887,63.573,66.89,63.546,66.453L63.546,66.453z"/>
					</g>
				</g>
				<g>
					<g>
						<path style="&st0;" d="M63.701,63.829c1.25,0,2.476,0.002,3.628-0.54c0.395-0.186,0.051-0.77-0.342-0.585
							c-1.03,0.485-2.173,0.447-3.286,0.448C63.265,63.151,63.264,63.829,63.701,63.829L63.701,63.829z"/>
					</g>
				</g>
				<g>
					<g>
						<path style="&st0;" d="M63.701,61.359c1.097-0.001,2.126-0.071,3.134-0.54c0.396-0.184,0.052-0.768-0.342-0.585
							c-0.89,0.414-1.828,0.447-2.792,0.448C63.265,60.682,63.264,61.36,63.701,61.359L63.701,61.359z"/>
					</g>
				</g>
				<g>
					<g>
						<path style="&st0;" d="M63.701,58.396c0.988,0,1.975,0,2.963,0c0.437,0,0.437-0.678,0-0.678c-0.988,0-1.975,0-2.963,0
							C63.265,57.718,63.265,58.396,63.701,58.396L63.701,58.396z"/>
					</g>
				</g>
				<g>
					<g>
						<path style="&st0;" d="M63.611,55.915c1.487,0.466,3.068,0.529,4.281-0.581c0.323-0.296-0.158-0.773-0.479-0.479
							c-1.028,0.941-2.384,0.795-3.621,0.407C63.373,55.13,63.196,55.784,63.611,55.915L63.611,55.915z"/>
					</g>
				</g>
				<g>
					<g>
						<path style="&st0;" d="M64.195,53.951c1.176-0.029,1.921-0.794,2.709-1.581c0.309-0.309-0.17-0.788-0.479-0.479
							c-0.642,0.642-1.26,1.359-2.23,1.382C63.759,53.284,63.758,53.962,64.195,53.951L64.195,53.951z"/>
					</g>
				</g>
				<g>
					<g>
						<path style="&st0;" d="M63.447,50.889c0.311-0.277,0.744-0.363,1.134-0.473c0.436-0.123,0.857-0.269,1.267-0.462
							c0.395-0.186,0.051-0.77-0.342-0.585c-0.818,0.386-1.845,0.423-2.538,1.041C62.641,50.701,63.122,51.179,63.447,50.889
							L63.447,50.889z"/>
					</g>
				</g>
			</g>
		</g>
		<g>
			<g>
				<path style="&st0;" d="M45.654,44.995c0.229,0,0.458,0,0.686,0c0.437,0,0.437-0.678,0-0.678c-0.229,0-0.458,0-0.686,0
					C45.217,44.317,45.217,44.995,45.654,44.995L45.654,44.995z"/>
			</g>
		</g>
		<g>
			<g>
				<path style="&st0;" d="M48.072,57.099c2.048,8.88,4.057,17.762,5.49,26.766c0.069,0.431,0.721,0.247,0.653-0.18
					c-1.433-9.004-3.442-17.886-5.49-26.766C48.627,56.494,47.974,56.674,48.072,57.099L48.072,57.099z"/>
			</g>
		</g>
		<g>
			<g>
				<g>
					<path style="&st0;" d="M48.909,34.783c0-0.008,0.001-0.016,0.001-0.023c-0.203,0.203-0.407,0.407-0.61,0.61
						c0.001,0,0.002,0,0.003,0c-0.196-0.149-0.392-0.298-0.588-0.448c0.365,1.479,0.288,3.05,0.745,4.519
						c0.233,0.748,1.41,0.429,1.176-0.324c-0.457-1.47-0.379-3.04-0.745-4.519c-0.06-0.242-0.327-0.476-0.588-0.448
						c-0.001,0-0.002,0-0.003,0c-0.343,0.037-0.593,0.25-0.61,0.61c0,0.008-0.001,0.016-0.001,0.023
						C47.652,35.57,48.872,35.566,48.909,34.783L48.909,34.783z"/>
				</g>
			</g>
			<g>
				<g>
					<path style="&st0;" d="M48.461,35.746c2.056-0.615,4.266-0.721,6.369-1.124c-0.25-0.142-0.5-0.284-0.75-0.426
						c0.427,1.645,0.962,3.259,1.499,4.87c0.247,0.742,1.425,0.424,1.176-0.324c-0.537-1.612-1.072-3.226-1.499-4.87
						c-0.088-0.34-0.428-0.488-0.75-0.426c-2.103,0.403-4.313,0.509-6.369,1.124C47.385,34.795,47.706,35.972,48.461,35.746
						L48.461,35.746z"/>
				</g>
			</g>
			<g>
				<g>
					<path style="&st0;" d="M80.658,33.284c0.024,1.475,0.411,2.864,0.771,4.283c0.193,0.762,1.37,0.439,1.176-0.324
						c-0.333-1.314-0.705-2.594-0.728-3.959C81.865,32.499,80.645,32.498,80.658,33.284L80.658,33.284z"/>
				</g>
			</g>
			<g>
				<g>
					<path style="&st0;" d="M81.338,33.537c2.058-0.514,4.168-1.072,6.299-1.115c0.337-0.007,0.338-0.531,0-0.524
						c-2.179,0.043-4.336,0.608-6.439,1.133C80.871,33.114,81.01,33.619,81.338,33.537L81.338,33.537z"/>
				</g>
			</g>
			<g>
				<g>
					<path style="&st0;" d="M88.151,34.034c0.024,0.213,0.057,0.391,0.142,0.589c0.07,0.165,0.212,0.356,0.233,0.535
						c0.088,0.772,1.309,0.781,1.22,0c-0.024-0.213-0.057-0.391-0.142-0.589c-0.07-0.165-0.212-0.356-0.233-0.535
						C89.282,33.262,88.062,33.253,88.151,34.034L88.151,34.034z"/>
				</g>
			</g>
			<g>
				<g>
					<path style="&st0;" d="M87.423,32.697c0.318,1.36,0.341,2.783,0.749,4.121c0.229,0.75,1.406,0.43,1.176-0.324
						c-0.409-1.337-0.431-2.761-0.749-4.121C88.42,31.607,87.244,31.932,87.423,32.697L87.423,32.697z"/>
				</g>
			</g>
			<g>
				<g>
					<path style="&st0;" d="M51.897,33.527c-2.202-3.083-4.047-6.512-3.47-10.42c0.365-2.471,2.565-4.833,5.195-4.363
						c1.491,0.267,2.13,1.847,2.443,3.125c0.122,0.498-0.091,5.606-0.749,5.018c-1.86-1.663-3.069-3.91-3.221-6.402
						c-0.232-3.808,2.902-7.184,6.261-8.442c5.366-2.011,7.216,3.455,7.053,7.738c-0.07,1.827-0.487,3.631-0.906,5.403
						c-0.399,1.687-2.186-5.502-2.176-5.415c-0.278-2.356,0.334-4.677,1.282-6.806c0.512-1.148,3.944-6.301,5.484-3.682
						c1.558,2.651,2.142,5.778,2.399,8.789c0.106,1.241-1.003,6.218-0.949,6.362c-1.029-2.72-0.623-5.683,0.597-8.244
						c0.797-1.408,1.894-2.523,3.29-3.344c2.929-1.996,3.202,2.06,3.506,3.372c0.458,1.982-1.098,11.845-1.835,5.138
						c-0.335-3.044,1.154-5.909,3.02-8.173c6.39-7.753,5.561,6.493,4.97,10.12c-0.092,0.565-1.369,6.031-0.433,2.066
						c0.487-2.062,1.505-3.98,2.414-5.879c0.372-0.777,0.022,6.003,0.049,5.81c-0.34,2.477-1.148,4.869-2.107,7.165
						c-0.13,0.312,0.377,0.446,0.505,0.139c1.953-4.677,2.874-9.63,2.257-14.681c-0.028-0.227-0.365-0.397-0.488-0.132
						c-1.644,3.53-3.084,6.688-3.773,10.553c-0.06,0.336,0.382,0.453,0.505,0.139c2.454-6.231,2.55-12.456,0.749-18.872
						c-0.047-0.168-0.235-0.235-0.385-0.157c-6.248,3.298-9.26,9.179-6.864,16.031c0.069,0.197,0.37,0.281,0.479,0.063
						c2.372-4.764,1.901-9.175,0.026-14.064c-0.048-0.125-0.178-0.235-0.322-0.183c-6.48,2.332-8.549,8.292-6.177,14.559
						c0.088,0.231,0.432,0.267,0.505,0c1.73-6.328,1.063-12.508-2.274-18.185c-0.074-0.126-0.233-0.162-0.358-0.094
						c-7.094,3.863-8.305,12.498-4.215,19.091c0.118,0.19,0.419,0.161,0.479-0.063c1.444-5.378,2.706-18.503-6.923-14.894
						c-7.483,2.805-7.455,11.373-2.132,16.133c0.142,0.127,0.388,0.085,0.438-0.116c0.863-3.459,1.067-11.477-4.816-9.241
						c-6.535,2.483-2.341,11.717,0.216,15.298C51.639,34.064,52.094,33.802,51.897,33.527L51.897,33.527z"/>
				</g>
			</g>
			<g>
				<g>
					<path style="&st0;" d="M50.06,36.282c-0.002-0.169,0.019-0.45-0.169-0.538c-0.245-0.114-0.383,0.084-0.448,0.29
						c-0.17,0.54-0.268,1.181-0.282,1.747c-0.008,0.338,0.516,0.337,0.524,0c0.007-0.286,0.061-0.573,0.107-0.854
						c0.028-0.168,0.06-0.336,0.095-0.503c0.029-0.138,0.163-0.328,0.004-0.227c-0.088,0-0.176,0-0.264,0
						c-0.081-0.159-0.113-0.184-0.094-0.075c0.003,0.054,0.004,0.107,0.004,0.161C49.539,36.619,50.063,36.62,50.06,36.282
						L50.06,36.282z"/>
				</g>
			</g>
			<g>
				<g>
					<path style="&st0;" d="M50.669,35.463c-0.343,1.104-0.406,2.268-0.749,3.372c-0.1,0.323,0.405,0.461,0.505,0.139
						c0.343-1.104,0.406-2.268,0.749-3.372C51.275,35.278,50.769,35.141,50.669,35.463L50.669,35.463z"/>
				</g>
			</g>
			<g>
				<g>
					<path style="&st0;" d="M51.819,36.149c-0.401,0.801-0.829,1.547-1.458,2.195c-0.235,0.243,0.135,0.613,0.37,0.37
						c0.658-0.679,1.119-1.46,1.54-2.301C52.422,36.113,51.971,35.847,51.819,36.149L51.819,36.149z"/>
				</g>
			</g>
			<g>
				<g>
					<path style="&st0;" d="M49.423,38.042c0.788,0.048,1.445,0.733,2.116,1.088c0.298,0.158,0.563-0.294,0.264-0.452
						c-0.779-0.412-1.46-1.104-2.38-1.16C49.085,37.498,49.087,38.022,49.423,38.042L49.423,38.042z"/>
				</g>
			</g>
			<g>
				<g>
					<path style="&st0;" d="M48.979,36.16c1.199,0.424,2.257,1.146,3.309,1.847c0.282,0.188,0.544-0.266,0.264-0.452
						c-1.092-0.728-2.189-1.459-3.434-1.9C48.799,35.541,48.663,36.048,48.979,36.16L48.979,36.16z"/>
				</g>
			</g>
			<g>
				<g>
					<path style="&st0;" d="M50.789,35.759c1.158,0.735,2.508,1.133,3.879,1.16c0.338,0.007,0.337-0.517,0-0.524
						c-1.281-0.025-2.533-0.401-3.614-1.088C50.768,35.125,50.505,35.578,50.789,35.759L50.789,35.759z"/>
				</g>
			</g>
			<g>
				<g>
					<path style="&st0;" d="M81.416,35.29c0.427,0.767,1.582,1.567,2.474,1.628c0.337,0.023,0.335-0.501,0-0.524
						c-0.342-0.023-0.705-0.265-0.992-0.433c-0.397-0.232-0.803-0.528-1.03-0.936C81.704,34.73,81.252,34.994,81.416,35.29
						L81.416,35.29z"/>
				</g>
			</g>
			<g>
				<g>
					<path style="&st0;" d="M81.268,34.296c0.533,0.052,1.198,0.553,1.657,0.803c0.334,0.182,0.664,0.371,0.99,0.568
						c0.112,0.068,0.222,0.138,0.331,0.21c0.042,0.028,0.084,0.057,0.125,0.086c0.263,0.186-0.376-0.223,0.199-0.308
						c-0.333,0.049-0.191,0.554,0.139,0.505c0.268-0.04,0.253-0.353,0.105-0.508c-0.276-0.289-0.707-0.484-1.047-0.681
						c-0.491-0.285-0.992-0.553-1.5-0.807c-0.306-0.153-0.652-0.358-1-0.392C80.932,33.739,80.935,34.263,81.268,34.296
						L81.268,34.296z"/>
				</g>
			</g>
			<g>
				<g>
					<path style="&st0;" d="M82.54,33.152c-0.424,0.8-1.075,1.448-1.499,2.248c-0.158,0.298,0.294,0.563,0.452,0.264
						c0.424-0.8,1.075-1.448,1.499-2.248C83.151,33.118,82.699,32.854,82.54,33.152L82.54,33.152z"/>
				</g>
			</g>
			<g>
				<g>
					<path style="&st0;" d="M84.039,33.152c-0.294,0.441-1.924,2.533-0.523,2.642c0.337,0.026,0.335-0.498,0-0.524
						c-0.151-0.012,0.216-0.656,0.282-0.771c0.212-0.372,0.457-0.726,0.694-1.082C84.679,33.135,84.225,32.873,84.039,33.152
						L84.039,33.152z"/>
				</g>
			</g>
			<g>
				<g>
					<path style="&st0;" d="M84.752,34.408c-0.025,0.412-0.372,1.18-0.862,1.237c-0.331,0.038-0.335,0.563,0,0.524
						c0.802-0.093,1.341-1.023,1.386-1.761C85.297,34.071,84.773,34.073,84.752,34.408L84.752,34.408z"/>
				</g>
			</g>
			<g>
				<g>
					<path style="&st0;" d="M81.828,35.718c0.759-0.742,1.769-1.35,2.289-2.301c0.162-0.297-0.29-0.561-0.452-0.264
						c-0.494,0.903-1.485,1.489-2.207,2.195C81.215,35.584,81.586,35.954,81.828,35.718L81.828,35.718z"/>
				</g>
			</g>
			<g>
				<g>
					<path style="&st0;" d="M81.268,33.921c0.338,0,0.338-0.524,0-0.524S80.93,33.921,81.268,33.921L81.268,33.921z"/>
				</g>
			</g>
		</g>
	</g>
</g>
</svg>
