<?xml version="1.0" encoding="UTF-8" standalone="no"?>
<!DOCTYPE svg PUBLIC "-//W3C//DTD SVG 1.1//EN" "http://www.w3.org/Graphics/SVG/1.1/DTD/svg11.dtd">
<svg width="100%" height="100%" viewBox="0 0 166 167" version="1.1" xmlns="http://www.w3.org/2000/svg" xmlns:xlink="http://www.w3.org/1999/xlink" xml:space="preserve" xmlns:serif="http://www.serif.com/" style="fill-rule:evenodd;clip-rule:evenodd;stroke-linejoin:round;stroke-miterlimit:2;">
    <g>
        <g>
            <g>
                <g>
                    <path d="M96.152,123.46C96.298,123.315 96.423,123.148 96.63,123.115C97.008,123.055 97.213,122.589 97.12,122.252C97.01,121.853 96.634,121.703 96.257,121.762C95.808,121.833 95.471,122.159 95.16,122.467C94.517,123.105 95.509,124.097 96.152,123.46Z" style="fill:rgb(61,61,61);fill-rule:nonzero;"/>
                </g>
            </g>
            <g>
                <g>
                    <path d="M69.846,62.854C69.845,62.723 69.849,62.575 69.812,62.449C69.673,61.976 68.994,61.722 68.639,62.139C68.213,62.641 68.342,63.731 68.307,64.342C68.255,65.244 68.188,66.15 68.18,67.054C68.172,67.959 69.575,67.958 69.583,67.054C69.59,66.307 69.644,65.558 69.684,64.813C69.708,64.37 69.733,63.927 69.762,63.484C69.773,63.304 69.786,63.124 69.8,62.944C69.829,62.577 69.816,62.914 69.632,63.131C69.241,63.028 68.85,62.925 68.459,62.821C68.381,62.555 68.442,62.736 68.443,62.853C68.448,63.759 69.851,63.759 69.846,62.854Z" style="fill:rgb(61,61,61);fill-rule:nonzero;"/>
                </g>
            </g>
            <g>
                <g>
                    <path d="M69.331,63.531C73.647,61.933 78.353,61.761 82.87,62.481C83.755,62.622 84.135,61.27 83.243,61.128C78.481,60.369 73.517,60.49 68.958,62.178C68.117,62.489 68.481,63.845 69.331,63.531Z" style="fill:rgb(61,61,61);fill-rule:nonzero;"/>
                </g>
            </g>
            <g>
                <g>
                    <path d="M82.905,62.778C83.374,63.993 83.649,65.224 83.667,66.529C83.68,67.433 85.083,67.434 85.07,66.529C85.05,65.105 84.77,63.733 84.257,62.405C83.936,61.57 82.579,61.933 82.905,62.778Z" style="fill:rgb(61,61,61);fill-rule:nonzero;"/>
                </g>
            </g>
            <g>
                <g>
                    <path d="M83.844,66.352C79.238,66.133 74.712,66.386 70.271,67.69C69.405,67.944 69.774,69.298 70.644,69.043C74.971,67.773 79.363,67.542 83.844,67.756C84.749,67.798 84.745,66.395 83.844,66.352Z" style="fill:rgb(61,61,61);fill-rule:nonzero;"/>
                </g>
            </g>
            <g>
                <g>
                    <path d="M111.463,34.56C108.945,41.917 109.639,52.418 108.822,57.893C108.274,61.563 106.502,68.182 102.963,62.182C100.855,58.608 100.597,55.654 100.499,51.705C100.385,47.128 100.992,39.777 97.138,36.41C93.864,33.549 89.985,37.521 89.589,40.769C89.116,44.651 89.874,48.508 89.708,52.395C89.649,53.771 87.287,50.139 86.758,49.264C85.741,47.583 84.91,45.788 83.946,44.076C81.841,40.339 77.703,37.413 74.212,41.496C70.397,45.958 71.962,54.989 72.644,60.229C72.758,61.113 74.163,61.125 74.046,60.229C73.556,56.46 71.66,37.437 79.776,41.275C84.751,43.627 84.66,51.821 89.79,54.535C90.176,54.739 90.714,54.573 90.821,54.116C91.756,50.117 90.641,45.841 90.869,41.773C91.057,38.415 94.741,34.892 97.201,38.615C98.415,40.452 98.596,43.165 98.804,45.266C99.5,52.298 97.974,60.747 104.139,65.974C109.121,70.197 110.563,55.448 110.723,53.512C111.062,49.393 110.838,42.153 112.382,36.41" style="fill:rgb(61,61,61);fill-rule:nonzero;"/>
                    <path d="M112.382,36.41C112.554,35.773 112.747,35.154 112.965,34.56" style="fill:rgb(61,61,61);fill-rule:nonzero;"/>
                </g>
            </g>
            <g>
                <g>
                    <path d="M78.483,61.188C77.753,58.161 77.365,55.005 77.537,51.892C77.634,50.137 78.158,47.443 80.491,47.876C81.968,48.151 82.892,49.868 83.541,51.05C85.054,53.803 86.92,61.879 91.427,58.363C92.14,57.807 91.139,56.821 90.435,57.371C87.848,59.389 86.164,53.326 85.409,51.671C84.465,49.602 82.929,46.587 80.3,46.427C73.843,46.035 76.292,58.085 77.13,61.56C77.342,62.44 78.695,62.067 78.483,61.188Z" style="fill:rgb(61,61,61);fill-rule:nonzero;"/>
                </g>
            </g>
            <g>
                <g>
                    <path d="M90.435,57.371C90.405,57.393 90.376,57.416 90.348,57.441C89.722,57.969 90.523,58.921 91.198,58.543C92.231,57.964 93.056,56.59 93.664,55.634C95.377,52.943 95.886,49.71 95.569,46.581C95.479,45.69 94.075,45.681 94.166,46.581C94.452,49.403 94.039,52.057 92.672,54.555C92.204,55.41 90.978,57.058 90.489,57.332C90.772,57.699 91.056,58.067 91.339,58.434C91.367,58.41 91.396,58.387 91.426,58.364C92.138,57.804 91.138,56.818 90.435,57.371Z" style="fill:rgb(61,61,61);fill-rule:nonzero;"/>
                </g>
            </g>
            <g>
                <g>
                    <path d="M93.642,47.367C93.491,51.679 93.546,55.951 94.433,60.188C94.835,62.106 95.605,63.887 96.569,65.579C97.085,66.485 99.417,68.2 99.417,68.891C99.417,69.223 99.635,69.458 99.932,69.567C102.35,70.455 105.194,70.546 107.731,70.38C108.629,70.321 108.635,68.918 107.731,68.977C106.729,69.043 100.82,68.794 100.82,68.629C100.82,67.332 98.471,65.872 97.78,64.871C94.449,60.043 94.849,52.952 95.045,47.367C95.077,46.462 93.674,46.465 93.642,47.367Z" style="fill:rgb(61,61,61);fill-rule:nonzero;"/>
                </g>
            </g>
            <g>
                <g>
                    <path d="M115.655,37.553C115.102,39.644 114.898,41.909 114.753,43.649C114.134,51.073 115.724,66.251 106.757,69.001C105.894,69.267 106.262,70.621 107.13,70.355C114.093,68.22 114.931,59.441 115.655,53.299C116.009,50.293 115.453,43.005 116.798,38.051" style="fill:rgb(61,61,61);fill-rule:nonzero;"/>
                </g>
            </g>
            <g>
                <g>
                    <path d="M72.979,58.628C74.019,58.868 75.044,58.868 76.085,58.628C76.438,58.547 76.288,58.006 75.936,58.087C74.991,58.305 74.074,58.305 73.129,58.087C72.776,58.005 72.627,58.546 72.979,58.628Z" style="fill:rgb(61,61,61);fill-rule:nonzero;"/>
                </g>
            </g>
            <g>
                <g>
                    <path d="M73.304,53.572C73.887,54.375 74.881,54.721 75.838,54.44C76.185,54.338 76.037,53.797 75.689,53.899C74.989,54.104 74.225,53.889 73.789,53.289C73.578,52.999 73.091,53.278 73.304,53.572Z" style="fill:rgb(61,61,61);fill-rule:nonzero;"/>
                </g>
            </g>
            <g>
                <g>
                    <path d="M72.912,48.499C73.975,49.268 75.185,49.736 76.503,49.769C76.865,49.778 76.864,49.217 76.503,49.208C75.28,49.178 74.179,48.725 73.196,48.015C72.902,47.802 72.622,48.289 72.912,48.499Z" style="fill:rgb(61,61,61);fill-rule:nonzero;"/>
                </g>
            </g>
            <g>
                <g>
                    <path d="M75.237,41.358C75.043,43.974 76.114,46.215 78.029,47.962C78.296,48.205 78.694,47.81 78.426,47.565C76.609,45.908 75.614,43.842 75.798,41.358C75.825,40.997 75.263,41 75.237,41.358Z" style="fill:rgb(61,61,61);fill-rule:nonzero;"/>
                </g>
            </g>
            <g>
                <g>
                    <path d="M80.913,43.255C80.694,44.67 80.657,46.088 80.657,47.518C80.657,47.88 81.218,47.88 81.218,47.518C81.218,46.141 81.243,44.768 81.454,43.404C81.509,43.05 80.968,42.898 80.913,43.255Z" style="fill:rgb(61,61,61);fill-rule:nonzero;"/>
                </g>
            </g>
            <g>
                <g>
                    <path d="M84.855,49.414C84.588,50.233 84.37,51.086 84.352,51.952C84.345,52.314 84.906,52.313 84.913,51.952C84.929,51.136 85.144,50.335 85.396,49.563C85.509,49.218 84.967,49.071 84.855,49.414Z" style="fill:rgb(61,61,61);fill-rule:nonzero;"/>
                </g>
            </g>
            <g>
                <g>
                    <path d="M88.332,52.796C87.431,54.223 86.998,55.959 87.839,57.514C88.011,57.832 88.496,57.549 88.324,57.231C87.579,55.854 88.028,54.329 88.817,53.08C89.011,52.772 88.525,52.49 88.332,52.796Z" style="fill:rgb(61,61,61);fill-rule:nonzero;"/>
                </g>
            </g>
            <g>
                <g>
                    <path d="M90.768,53.012C91.076,54.097 91.957,54.437 93.009,54.45C93.371,54.455 93.371,53.893 93.009,53.889C92.216,53.879 91.545,53.698 91.309,52.863C91.21,52.515 90.669,52.663 90.768,53.012Z" style="fill:rgb(61,61,61);fill-rule:nonzero;"/>
                </g>
            </g>
            <g>
                <g>
                    <path d="M90.303,48.152C90.882,48.95 91.792,49.218 92.688,49.513C93.033,49.626 93.179,49.084 92.837,48.972C92.104,48.731 91.265,48.527 90.787,47.869C90.577,47.579 90.09,47.858 90.303,48.152Z" style="fill:rgb(61,61,61);fill-rule:nonzero;"/>
                </g>
            </g>
            <g>
                <g>
                    <path d="M91.743,38.402C91.816,41.306 93.03,43.908 95.028,45.991C95.279,46.253 95.675,45.855 95.425,45.594C93.528,43.617 92.374,41.159 92.305,38.402C92.295,38.041 91.734,38.04 91.743,38.402Z" style="fill:rgb(61,61,61);fill-rule:nonzero;"/>
                </g>
            </g>
            <g>
                <g>
                    <path d="M95.25,46.36C95.779,44.404 96.948,42.8 98.57,41.601C98.858,41.388 98.578,40.901 98.287,41.116C96.544,42.404 95.278,44.107 94.709,46.211C94.615,46.561 95.156,46.709 95.25,46.36Z" style="fill:rgb(61,61,61);fill-rule:nonzero;"/>
                </g>
            </g>
            <g>
                <g>
                    <path d="M95.425,49.44C96.324,48.354 97.451,47.582 98.75,47.049C99.08,46.913 98.936,46.37 98.601,46.508C97.21,47.079 95.992,47.879 95.028,49.044C94.799,49.32 95.194,49.719 95.425,49.44Z" style="fill:rgb(61,61,61);fill-rule:nonzero;"/>
                </g>
            </g>
            <g>
                <g>
                    <path d="M94.686,57.077C95.977,56.057 97.352,55.159 98.817,54.411C99.139,54.246 98.855,53.762 98.534,53.926C97.024,54.696 95.618,55.63 94.289,56.68C94.005,56.905 94.405,57.299 94.686,57.077Z" style="fill:rgb(61,61,61);fill-rule:nonzero;"/>
                </g>
            </g>
            <g>
                <g>
                    <path d="M96.947,64.165C97.979,62.42 99.49,61.318 101.46,60.845C101.812,60.761 101.663,60.219 101.311,60.304C99.205,60.81 97.564,62.019 96.462,63.882C96.277,64.194 96.763,64.476 96.947,64.165Z" style="fill:rgb(61,61,61);fill-rule:nonzero;"/>
                </g>
            </g>
            <g>
                <g>
                    <path d="M103.404,64.318C101.915,65.894 101.647,67.756 102.867,69.585C103.067,69.884 103.553,69.604 103.352,69.302C102.272,67.683 102.482,66.111 103.801,64.715C104.049,64.452 103.653,64.054 103.404,64.318Z" style="fill:rgb(61,61,61);fill-rule:nonzero;"/>
                </g>
            </g>
            <g>
                <g>
                    <path d="M107.895,63.773C108.954,64.536 110.076,64.751 111.314,64.294C111.65,64.17 111.505,63.627 111.165,63.753C110.056,64.163 109.125,63.97 108.179,63.289C107.884,63.076 107.605,63.564 107.895,63.773Z" style="fill:rgb(61,61,61);fill-rule:nonzero;"/>
                </g>
            </g>
            <g>
                <g>
                    <path d="M110.113,57.121C111.206,57.629 112.259,57.629 113.353,57.121C113.681,56.969 113.396,56.485 113.07,56.636C112.175,57.051 111.292,57.051 110.397,56.636C110.07,56.485 109.785,56.969 110.113,57.121Z" style="fill:rgb(61,61,61);fill-rule:nonzero;"/>
                </g>
            </g>
            <g>
                <g>
                    <path d="M111.098,49.238C112.399,49.975 113.758,50 114.887,48.948C115.152,48.701 114.755,48.305 114.49,48.551C113.547,49.43 112.454,49.361 111.381,48.753C111.066,48.574 110.783,49.059 111.098,49.238Z" style="fill:rgb(61,61,61);fill-rule:nonzero;"/>
                </g>
            </g>
            <g>
                <g>
                    <path d="M111.452,39.88C111.494,41.392 112.718,42.353 114.122,42.614C114.476,42.68 114.627,42.139 114.271,42.073C113.124,41.86 112.048,41.147 112.013,39.88C112.003,39.519 111.442,39.518 111.452,39.88Z" style="fill:rgb(61,61,61);fill-rule:nonzero;"/>
                </g>
            </g>
            <g>
                <g>
                    <path d="M48.664,127.126C49.2,127.126 49.749,127.106 50.247,127.334C50.573,127.484 50.859,127 50.53,126.849C49.931,126.574 49.313,126.565 48.664,126.564C48.302,126.564 48.302,127.126 48.664,127.126Z" style="fill:rgb(61,61,61);fill-rule:nonzero;"/>
                </g>
            </g>
            <g>
                <g>
                    <g>
                        <path d="M49.458,128.658C58.781,132.116 68.294,134.53 78.291,134.386C88.225,134.242 97.714,130.803 106.393,126.196C107.521,125.597 106.521,123.888 105.394,124.486C96.373,129.274 86.997,132.28 76.733,132.428C67.542,132.561 58.517,129.914 49.984,126.749C48.784,126.304 48.271,128.218 49.458,128.658Z" style="fill:rgb(61,61,61);fill-rule:nonzero;"/>
                    </g>
                </g>
                <g>
                    <g>
                        <g>
                            <path d="M55.663,127.425C51.353,116.538 52.658,102.935 54.849,91.72C57.257,79.393 64.835,68.042 78.527,67.526C92.443,67.001 97.657,81.635 100.313,92.666C102.887,103.358 104.334,115.128 103.067,126.114C102.921,127.381 104.902,127.367 105.047,126.114C106.525,113.304 104.433,99.43 100.9,87.114C97.725,76.047 91.203,65.79 78.527,65.546C66.307,65.311 57.382,75.457 54.137,86.268C50.383,98.779 48.85,115.564 53.754,127.951C54.218,129.124 56.133,128.614 55.663,127.425Z" style="fill:rgb(61,61,61);fill-rule:nonzero;"/>
                        </g>
                    </g>
                    <g>
                        <g>
                            <path d="M68.958,79.502C59.193,81.989 63.584,97.38 63.718,104.327C63.724,104.649 63.929,104.907 64.233,105.003C71.642,107.355 80.448,109.145 87.967,106.315C88.806,105.999 88.443,104.643 87.594,104.962C83.042,106.675 78.26,106.446 73.52,105.795C71.451,105.511 69.416,105.012 67.397,104.492C64.842,103.834 65.113,103.116 64.916,100.78C64.436,95.111 61.707,82.795 69.331,80.853C70.208,80.632 69.836,79.278 68.958,79.502Z" style="fill:rgb(61,61,61);fill-rule:nonzero;"/>
                        </g>
                    </g>
                    <g>
                        <g>
                            <path d="M66.969,81.38C73.062,79.402 79.242,79.485 84.54,83.409C85.268,83.948 85.967,82.73 85.248,82.197C79.677,78.07 73.013,77.943 66.596,80.026C65.739,80.305 66.106,81.66 66.969,81.38Z" style="fill:rgb(61,61,61);fill-rule:nonzero;"/>
                        </g>
                    </g>
                    <g>
                        <g>
                            <path d="M88.65,105.206C91.907,97.996 90.626,90.625 86.55,84.024C86.076,83.256 84.862,83.96 85.338,84.732C89.127,90.868 90.493,97.736 87.438,104.498C87.069,105.316 88.278,106.03 88.65,105.206Z" style="fill:rgb(61,61,61);fill-rule:nonzero;"/>
                        </g>
                    </g>
                    <g>
                        <g>
                            <path d="M83.763,83.157C84.761,84.889 85.842,86.573 86.65,88.407C87.014,89.233 88.223,88.519 87.862,87.699C87.053,85.865 85.973,84.182 84.975,82.449C84.523,81.666 83.311,82.372 83.763,83.157Z" style="fill:rgb(61,61,61);fill-rule:nonzero;"/>
                        </g>
                    </g>
                    <g>
                        <g>
                            <path d="M56.096,112.353C60.52,113.666 65.077,114.189 69.669,114.478C70.573,114.535 70.567,113.131 69.669,113.075C65.199,112.793 60.774,112.278 56.469,111C55.6,110.742 55.231,112.097 56.096,112.353Z" style="fill:rgb(61,61,61);fill-rule:nonzero;"/>
                        </g>
                    </g>
                    <g>
                        <g>
                            <path d="M55.319,111.414C55.553,115.365 54.992,119.477 56.157,123.318C57.298,127.082 60.831,128.367 64.42,128.653C65.323,128.725 65.316,127.321 64.42,127.25C55.367,126.528 57.117,118.096 56.722,111.415C56.669,110.515 55.265,110.51 55.319,111.414Z" style="fill:rgb(61,61,61);fill-rule:nonzero;"/>
                        </g>
                    </g>
                    <g>
                        <g>
                            <path d="M69.493,114.039C70.133,119.156 69.042,123.98 65.914,128.122C65.368,128.845 66.588,129.542 67.126,128.83C70.386,124.514 71.565,119.378 70.897,114.039C70.786,113.154 69.381,113.143 69.493,114.039Z" style="fill:rgb(61,61,61);fill-rule:nonzero;"/>
                        </g>
                    </g>
                    <g>
                        <g>
                            <path d="M64.234,128.365C65.067,128.642 65.898,128.893 66.783,128.915C67.688,128.938 67.686,127.534 66.783,127.512C66.029,127.493 65.317,127.248 64.607,127.012C63.746,126.726 63.379,128.081 64.234,128.365Z" style="fill:rgb(61,61,61);fill-rule:nonzero;"/>
                        </g>
                    </g>
                    <g>
                        <g>
                            <path d="M81.219,113.953C86.273,113.581 91.041,112.072 95.485,109.657C96.28,109.225 95.572,108.014 94.777,108.445C90.549,110.742 86.027,112.195 81.219,112.549C80.323,112.616 80.316,114.02 81.219,113.953Z" style="fill:rgb(61,61,61);fill-rule:nonzero;"/>
                        </g>
                    </g>
                    <g>
                        <g>
                            <path d="M80.805,113.963C81.888,118.243 83.108,122.489 83.955,126.825C84.128,127.713 85.481,127.336 85.308,126.452C84.461,122.116 83.241,117.87 82.158,113.59C81.936,112.714 80.583,113.086 80.805,113.963Z" style="fill:rgb(61,61,61);fill-rule:nonzero;"/>
                        </g>
                    </g>
                    <g>
                        <g>
                            <path d="M84.632,127.603C89.084,128.038 93.073,126.4 96.153,123.198C96.78,122.546 95.789,121.553 95.161,122.206C92.312,125.168 88.74,126.602 84.633,126.2C83.731,126.112 83.74,127.516 84.632,127.603Z" style="fill:rgb(61,61,61);fill-rule:nonzero;"/>
                        </g>
                    </g>
                    <g>
                        <g>
                            <path d="M94.192,110.288C95.233,114.283 95.973,118.316 96.267,122.438C96.331,123.335 97.735,123.341 97.67,122.438C97.367,118.194 96.618,114.03 95.545,109.915C95.317,109.04 93.964,109.412 94.192,110.288Z" style="fill:rgb(61,61,61);fill-rule:nonzero;"/>
                        </g>
                    </g>
                    <g>
                        <g>
                            <path d="M57.705,115.783C58.69,116.029 59.676,116.276 60.661,116.522C61.012,116.61 61.161,116.069 60.81,115.981C59.825,115.735 58.839,115.488 57.854,115.242C57.503,115.154 57.354,115.696 57.705,115.783Z" style="fill:rgb(61,61,61);fill-rule:nonzero;"/>
                        </g>
                    </g>
                    <g>
                        <g>
                            <path d="M57.212,115.044C58.859,115.502 60.503,115.775 62.214,115.793C62.576,115.797 62.576,115.235 62.214,115.232C60.554,115.215 58.958,114.947 57.361,114.503C57.012,114.406 56.864,114.947 57.212,115.044Z" style="fill:rgb(61,61,61);fill-rule:nonzero;"/>
                        </g>
                    </g>
                    <g>
                        <g>
                            <path d="M58.198,114.551C59.757,114.808 61.32,115.033 62.879,115.29C63.233,115.348 63.385,114.808 63.028,114.749C61.469,114.492 59.906,114.267 58.347,114.01C57.993,113.952 57.841,114.493 58.198,114.551Z" style="fill:rgb(61,61,61);fill-rule:nonzero;"/>
                        </g>
                    </g>
                    <g>
                        <g>
                            <path d="M66.122,114.527C66.571,118.647 66.578,122.712 65.639,126.77C65.558,127.122 66.099,127.272 66.18,126.919C67.128,122.821 67.137,118.694 66.683,114.526C66.644,114.171 66.082,114.168 66.122,114.527Z" style="fill:rgb(61,61,61);fill-rule:nonzero;"/>
                        </g>
                    </g>
                    <g>
                        <g>
                            <path d="M71.305,95.483C71.059,97.093 71.059,98.703 71.305,100.313C71.36,100.67 71.9,100.518 71.846,100.164C71.616,98.661 71.616,97.136 71.846,95.632C71.9,95.278 71.36,95.126 71.305,95.483Z" style="fill:rgb(61,61,61);fill-rule:nonzero;"/>
                        </g>
                    </g>
                    <g>
                        <g>
                            <path d="M71.131,100.437C72.633,101.66 74.253,102.455 76.182,102.726C76.536,102.776 76.688,102.235 76.331,102.185C74.505,101.928 72.953,101.201 71.528,100.04C71.25,99.813 70.85,100.208 71.131,100.437Z" style="fill:rgb(61,61,61);fill-rule:nonzero;"/>
                        </g>
                    </g>
                    <g>
                        <g>
                            <path d="M78.578,103.437C80.401,104.697 82.41,105.403 84.632,105.446C84.994,105.453 84.993,104.892 84.632,104.885C82.503,104.843 80.604,104.158 78.861,102.952C78.563,102.746 78.283,103.233 78.578,103.437Z" style="fill:rgb(61,61,61);fill-rule:nonzero;"/>
                        </g>
                    </g>
                    <g>
                        <g>
                            <path d="M82.587,102.726C83.956,103.247 85.39,103.458 86.85,103.475C87.212,103.479 87.212,102.918 86.85,102.914C85.436,102.897 84.061,102.689 82.736,102.185C82.398,102.056 82.252,102.599 82.587,102.726Z" style="fill:rgb(61,61,61);fill-rule:nonzero;"/>
                        </g>
                    </g>
                    <g>
                        <g>
                            <path d="M84.312,101.494C85.439,101.775 86.507,101.944 87.664,101.74C88.02,101.677 87.869,101.136 87.515,101.199C86.465,101.384 85.482,101.207 84.462,100.953C84.11,100.866 83.961,101.407 84.312,101.494Z" style="fill:rgb(61,61,61);fill-rule:nonzero;"/>
                        </g>
                    </g>
                    <g>
                        <g>
                            <path d="M84.312,99.77C85.709,100.224 87.103,100.501 88.575,100.519C88.937,100.523 88.937,99.962 88.575,99.958C87.152,99.941 85.811,99.668 84.461,99.229C84.116,99.116 83.969,99.658 84.312,99.77Z" style="fill:rgb(61,61,61);fill-rule:nonzero;"/>
                        </g>
                    </g>
                    <g>
                        <g>
                            <path d="M86.283,98.045C87.084,98.296 87.932,98.343 88.747,98.538C89.099,98.622 89.248,98.081 88.896,97.997C88.081,97.803 87.233,97.755 86.432,97.504C86.086,97.396 85.939,97.938 86.283,98.045Z" style="fill:rgb(61,61,61);fill-rule:nonzero;"/>
                        </g>
                    </g>
                    <g>
                        <g>
                            <path d="M86.462,96.547C85.136,97.358 83.922,98.331 82.71,99.301C82.427,99.527 82.827,99.921 83.107,99.698C84.282,98.758 85.46,97.818 86.746,97.032C87.053,96.843 86.772,96.358 86.462,96.547Z" style="fill:rgb(61,61,61);fill-rule:nonzero;"/>
                        </g>
                    </g>
                    <g>
                        <g>
                            <path d="M85.23,99.257C83.835,99.973 82.593,100.911 81.478,102.011C81.22,102.265 81.617,102.662 81.875,102.408C82.957,101.34 84.159,100.437 85.514,99.742C85.836,99.576 85.552,99.092 85.23,99.257Z" style="fill:rgb(61,61,61);fill-rule:nonzero;"/>
                        </g>
                    </g>
                    <g>
                        <g>
                            <path d="M80.303,102.944C82.376,103.937 84.551,104.419 86.85,104.214C87.208,104.182 87.211,103.621 86.85,103.653C84.652,103.849 82.571,103.411 80.586,102.46C80.262,102.304 79.977,102.788 80.303,102.944Z" style="fill:rgb(61,61,61);fill-rule:nonzero;"/>
                        </g>
                    </g>
                    <g>
                        <g>
                            <path d="M80.616,103.465C82.515,103.906 84.425,103.975 86.357,103.721C86.711,103.675 86.715,103.113 86.357,103.16C84.474,103.407 82.62,103.355 80.765,102.924C80.413,102.842 80.264,103.383 80.616,103.465Z" style="fill:rgb(61,61,61);fill-rule:nonzero;"/>
                        </g>
                    </g>
                    <g>
                        <g>
                            <path d="M86.036,99.277C86.871,99.549 87.781,99.772 88.649,99.523C88.996,99.423 88.848,98.882 88.5,98.982C87.73,99.203 86.924,98.976 86.186,98.736C85.84,98.623 85.694,99.165 86.036,99.277Z" style="fill:rgb(61,61,61);fill-rule:nonzero;"/>
                        </g>
                    </g>
                    <g>
                        <g>
                            <path d="M85.869,93.975C86.575,95.152 87.286,96.332 87.812,97.603C87.948,97.933 88.491,97.788 88.353,97.454C87.808,96.135 87.086,94.913 86.354,93.692C86.167,93.381 85.682,93.663 85.869,93.975Z" style="fill:rgb(61,61,61);fill-rule:nonzero;"/>
                        </g>
                    </g>
                    <g>
                        <g>
                            <path d="M91.26,113.616C92.497,116.938 93.174,120.338 93.221,123.889C93.226,124.251 93.787,124.251 93.782,123.889C93.734,120.291 93.056,116.839 91.801,113.467C91.676,113.131 91.134,113.276 91.26,113.616Z" style="fill:rgb(61,61,61);fill-rule:nonzero;"/>
                        </g>
                    </g>
                    <g>
                        <g>
                            <path d="M83.259,117.233C84.505,117.956 85.86,118.444 87.268,118.739C87.621,118.813 87.771,118.272 87.417,118.198C86.055,117.912 84.748,117.448 83.542,116.748C83.229,116.566 82.947,117.052 83.259,117.233Z" style="fill:rgb(61,61,61);fill-rule:nonzero;"/>
                        </g>
                    </g>
                    <g>
                        <g>
                            <path d="M84.245,115.755C84.9,116.07 85.595,116.293 86.283,116.522C86.627,116.637 86.774,116.095 86.432,115.981C85.79,115.767 85.139,115.564 84.528,115.27C84.203,115.114 83.919,115.598 84.245,115.755Z" style="fill:rgb(61,61,61);fill-rule:nonzero;"/>
                        </g>
                    </g>
                    <g>
                        <g>
                            <path d="M85.969,115.262C86.69,115.726 87.465,116.019 88.328,116.039C88.69,116.048 88.689,115.486 88.328,115.478C87.561,115.46 86.892,115.188 86.252,114.777C85.947,114.581 85.666,115.067 85.969,115.262Z" style="fill:rgb(61,61,61);fill-rule:nonzero;"/>
                        </g>
                    </g>
                    <g>
                        <g>
                            <path d="M87.637,114.726C88.025,115.083 88.486,115.345 88.869,115.711C89.13,115.961 89.528,115.565 89.266,115.314C88.883,114.947 88.421,114.685 88.034,114.329C87.768,114.084 87.37,114.48 87.637,114.726Z" style="fill:rgb(61,61,61);fill-rule:nonzero;"/>
                        </g>
                    </g>
                    <g>
                        <g>
                            <path d="M84.352,115.759C84.332,116.505 84.125,117.229 84.106,117.976C84.096,118.338 84.658,118.337 84.667,117.976C84.687,117.23 84.894,116.506 84.913,115.759C84.923,115.397 84.362,115.398 84.352,115.759Z" style="fill:rgb(61,61,61);fill-rule:nonzero;"/>
                        </g>
                    </g>
                    <g>
                        <g>
                            <path d="M86.115,117.342C85.652,118.338 85.585,119.357 85.584,120.44C85.584,120.802 86.145,120.802 86.145,120.44C86.146,119.467 86.182,118.523 86.599,117.625C86.751,117.299 86.268,117.014 86.115,117.342Z" style="fill:rgb(61,61,61);fill-rule:nonzero;"/>
                        </g>
                    </g>
                    <g>
                        <g>
                            <path d="M86.569,121.672C86.568,122.135 86.553,122.578 86.361,123.009C86.215,123.336 86.698,123.622 86.846,123.292C87.082,122.764 87.129,122.246 87.131,121.672C87.131,121.31 86.57,121.31 86.569,121.672Z" style="fill:rgb(61,61,61);fill-rule:nonzero;"/>
                        </g>
                    </g>
                </g>
            </g>
            <g>
                <g>
                    <g>
                        <path d="M58.726,78.249C56.72,75.348 50.978,66.365 46.307,70.152C43.96,72.055 42.238,75.892 42.029,78.874C41.907,80.623 42.075,82.352 42.187,84.098C42.278,85.51 42.214,86.813 41.901,88.208C39.443,88.174 36.985,88.141 34.528,88.107C33.904,87.049 33.506,85.919 33.335,84.716C33.147,83.831 31.795,84.207 31.982,85.089C33.133,90.508 40.306,95.878 43.254,88.58C44.73,84.927 42.929,80.472 44.051,76.616C45.215,72.62 47.932,69.166 52.008,72.349C54.254,74.104 55.913,76.641 57.514,78.956C58.025,79.696 59.242,78.996 58.726,78.249Z" style="fill:rgb(61,61,61);fill-rule:nonzero;"/>
                    </g>
                </g>
                <g>
                    <g>
                        <path d="M31.957,84.378C31.461,90.23 31.677,96.1 31.695,101.965C31.698,102.87 33.101,102.87 33.098,101.965C33.081,96.1 32.865,90.23 33.36,84.378C33.437,83.476 32.033,83.483 31.957,84.378Z" style="fill:rgb(61,61,61);fill-rule:nonzero;"/>
                    </g>
                </g>
                <g>
                    <g>
                        <path d="M33.002,102.056C33.929,100.741 35.215,100.487 36.672,101.066C37.514,101.4 37.875,100.043 37.045,99.713C34.97,98.888 33.058,99.55 31.79,101.348C31.268,102.09 32.485,102.79 33.002,102.056Z" style="fill:rgb(61,61,61);fill-rule:nonzero;"/>
                    </g>
                </g>
                <g>
                    <g>
                        <path d="M35.98,100.733C37.44,101.842 38.885,103.166 39.928,104.681C40.437,105.421 41.654,104.72 41.14,103.973C39.95,102.244 38.353,100.786 36.689,99.522C35.967,98.974 35.269,100.193 35.98,100.733Z" style="fill:rgb(61,61,61);fill-rule:nonzero;"/>
                    </g>
                </g>
                <g>
                    <g>
                        <path d="M40.767,103.511C42.681,101.18 43.787,98.392 44.122,95.403C44.223,94.505 42.818,94.514 42.719,95.403C42.429,97.989 41.431,100.502 39.775,102.519C39.206,103.212 40.193,104.211 40.767,103.511Z" style="fill:rgb(61,61,61);fill-rule:nonzero;"/>
                    </g>
                </g>
                <g>
                    <g>
                        <path d="M43.683,96.892C44.927,96.922 46.152,97.306 47.266,97.846C48.076,98.239 48.788,97.029 47.974,96.634C46.631,95.983 45.184,95.525 43.683,95.488C42.778,95.467 42.78,96.87 43.683,96.892Z" style="fill:rgb(61,61,61);fill-rule:nonzero;"/>
                    </g>
                </g>
                <g>
                    <g>
                        <path d="M46.925,97.583C48.665,96.43 49.553,94.162 49.872,92.176C50.014,91.291 48.663,90.912 48.519,91.803C48.263,93.393 47.634,95.432 46.217,96.371C45.466,96.869 46.168,98.085 46.925,97.583Z" style="fill:rgb(61,61,61);fill-rule:nonzero;"/>
                    </g>
                </g>
                <g>
                    <g>
                        <path d="M49.534,92.929C50.757,93.19 51.92,93.619 53.041,94.171C53.85,94.569 54.561,93.359 53.749,92.959C52.521,92.356 51.247,91.861 49.907,91.576C49.025,91.388 48.649,92.741 49.534,92.929Z" style="fill:rgb(61,61,61);fill-rule:nonzero;"/>
                    </g>
                </g>
                <g>
                    <g>
                        <path d="M46.471,78.88C46.627,77.788 46.819,76.509 47.631,75.691C48.598,74.717 50.153,75.91 50.929,76.54C51.207,76.766 51.607,76.371 51.326,76.143C50.426,75.414 49.037,74.363 47.799,74.924C46.424,75.547 46.118,77.411 45.929,78.73C45.879,79.084 46.42,79.237 46.471,78.88Z" style="fill:rgb(61,61,61);fill-rule:nonzero;"/>
                    </g>
                </g>
                <g>
                    <g>
                        <path d="M35.365,95.945C35.828,96.624 36.38,97.237 36.843,97.916C37.046,98.213 37.532,97.933 37.328,97.633C36.865,96.954 36.313,96.341 35.85,95.662C35.647,95.365 35.16,95.646 35.365,95.945Z" style="fill:rgb(61,61,61);fill-rule:nonzero;"/>
                    </g>
                </g>
                <g>
                    <g>
                        <path d="M36.394,97.727C37.212,98.53 38.14,99.217 39.161,99.742C39.482,99.907 39.766,99.423 39.444,99.257C38.463,98.753 37.577,98.102 36.791,97.33C36.533,97.076 36.136,97.473 36.394,97.727Z" style="fill:rgb(61,61,61);fill-rule:nonzero;"/>
                    </g>
                </g>
                <g>
                    <g>
                        <path d="M33.987,96.293C35.558,97.345 37.097,98.444 38.668,99.496C38.97,99.698 39.25,99.212 38.951,99.011C37.38,97.959 35.841,96.86 34.27,95.808C33.969,95.606 33.688,96.092 33.987,96.293Z" style="fill:rgb(61,61,61);fill-rule:nonzero;"/>
                    </g>
                </g>
                <g>
                    <g>
                        <path d="M33.315,97.799C35.442,98.326 37.581,98.802 39.72,99.277C40.073,99.355 40.222,98.814 39.869,98.736C37.73,98.261 35.591,97.785 33.464,97.258C33.113,97.171 32.964,97.712 33.315,97.799Z" style="fill:rgb(61,61,61);fill-rule:nonzero;"/>
                    </g>
                </g>
                <g>
                    <g>
                        <path d="M35.749,99.495C36.861,98.841 38.043,98.34 39.198,97.77C39.523,97.61 39.238,97.126 38.915,97.285C37.76,97.854 36.578,98.356 35.466,99.01C35.154,99.194 35.436,99.679 35.749,99.495Z" style="fill:rgb(61,61,61);fill-rule:nonzero;"/>
                    </g>
                </g>
                <g>
                    <g>
                        <path d="M39.255,101.422C40.03,100.622 40.584,99.652 41.472,98.958C41.34,98.826 41.207,98.693 41.075,98.561C40.494,99.164 40.054,99.868 39.771,100.656C39.721,100.797 39.826,100.968 39.967,101.001C40.345,101.091 40.631,100.925 40.871,100.64C41.047,100.431 41.362,99.691 41.691,99.77C42.043,99.854 42.192,99.313 41.84,99.229C41.462,99.139 41.176,99.305 40.936,99.59C40.76,99.799 40.445,100.539 40.116,100.46C40.181,100.575 40.247,100.69 40.312,100.805C40.561,100.109 40.96,99.489 41.472,98.958C41.73,98.69 41.353,98.344 41.075,98.561C40.187,99.255 39.633,100.224 38.858,101.025C38.606,101.285 39.002,101.683 39.255,101.422Z" style="fill:rgb(61,61,61);fill-rule:nonzero;"/>
                    </g>
                </g>
                <g>
                    <g>
                        <path d="M50.108,86.196C50.09,88.505 49.868,90.801 49.615,93.094C49.575,93.453 50.137,93.45 50.176,93.094C50.428,90.801 50.651,88.505 50.669,86.196C50.672,85.834 50.111,85.834 50.108,86.196Z" style="fill:rgb(61,61,61);fill-rule:nonzero;"/>
                    </g>
                </g>
                <g>
                    <g>
                        <path d="M52.572,83.24C52.554,86.03 52.288,88.787 51.843,91.542C51.786,91.896 52.327,92.048 52.384,91.691C52.837,88.889 53.115,86.08 53.133,83.24C53.135,82.877 52.574,82.878 52.572,83.24Z" style="fill:rgb(61,61,61);fill-rule:nonzero;"/>
                    </g>
                </g>
                <g>
                    <g>
                        <path d="M51.941,91.394C53.1,91.147 54.162,90.673 55.021,89.844C55.282,89.592 54.884,89.196 54.624,89.447C53.832,90.211 52.858,90.626 51.792,90.853C51.438,90.928 51.589,91.469 51.941,91.394Z" style="fill:rgb(61,61,61);fill-rule:nonzero;"/>
                    </g>
                </g>
            </g>
            <g>
                <g>
                    <path d="M54.326,86.584C54.813,85.778 55.342,85.088 56.007,84.424C56.263,84.168 55.866,83.771 55.61,84.027C54.912,84.726 54.353,85.454 53.842,86.301C53.654,86.611 54.14,86.893 54.326,86.584Z" style="fill:rgb(61,61,61);fill-rule:nonzero;"/>
                </g>
            </g>
            <g>
                <g>
                    <g>
                        <path d="M100.09,84.349C103.273,81.23 105.899,82.062 108.324,85.398C109.929,87.605 111.075,90.109 112.637,92.344C113.151,93.08 114.368,92.379 113.849,91.636C110.259,86.5 106.29,76.311 99.098,83.357C98.45,83.991 99.443,84.983 100.09,84.349Z" style="fill:rgb(61,61,61);fill-rule:nonzero;"/>
                    </g>
                </g>
                <g>
                    <g>
                        <path d="M112.193,91.642C115.894,91.207 116.732,86.947 117.317,83.912C117.686,82 117.908,80.025 118.588,78.19C119.5,75.729 121.61,77.95 122.722,79.1C123.352,79.751 124.343,78.758 123.714,78.108C121.145,75.452 118.231,74.443 116.96,78.64C116.081,81.543 116.27,89.76 112.194,90.239C111.306,90.343 111.295,91.747 112.193,91.642Z" style="fill:rgb(61,61,61);fill-rule:nonzero;"/>
                    </g>
                </g>
                <g>
                    <g>
                        <path d="M123.328,79.729C121.385,89.024 121.385,99.051 124.115,108.188C124.373,109.053 125.728,108.684 125.468,107.815C122.815,98.938 122.792,89.136 124.681,80.102C124.866,79.219 123.513,78.844 123.328,79.729Z" style="fill:rgb(61,61,61);fill-rule:nonzero;"/>
                    </g>
                </g>
                <g>
                    <g>
                        <path d="M102.481,98.467C106.087,98.003 108.74,99.372 110.911,102.244C111.708,103.298 111.646,103.474 112.61,104.209C112.82,104.369 113.103,104.301 113.318,104.209C115.567,103.249 117.688,102.044 119.896,100.996C120.404,100.755 120.297,100.052 119.896,99.784C119.634,99.609 119.371,99.434 119.109,99.259C118.539,98.879 117.74,99.645 118.149,100.219C119.934,102.721 121.78,105.081 124.033,107.186C124.693,107.803 125.688,106.813 125.025,106.194C122.862,104.174 121.08,101.922 119.36,99.511C119.04,99.831 118.72,100.151 118.4,100.471C118.662,100.646 118.925,100.821 119.187,100.996L119.187,99.784C117.373,100.645 115.616,101.615 113.807,102.486C112.519,103.105 111.311,100.451 110.408,99.5C108.348,97.331 105.326,96.698 102.48,97.064C101.596,97.177 101.585,98.582 102.481,98.467Z" style="fill:rgb(61,61,61);fill-rule:nonzero;"/>
                    </g>
                </g>
                <g>
                    <g>
                        <path d="M101.953,85.727C104.516,84.649 106.353,86.091 107.274,88.487C107.402,88.821 107.945,88.676 107.815,88.338C106.789,85.67 104.667,83.981 101.804,85.186C101.475,85.324 101.619,85.868 101.953,85.727Z" style="fill:rgb(61,61,61);fill-rule:nonzero;"/>
                    </g>
                </g>
                <g>
                    <g>
                        <path d="M103.114,84.12C103.647,84.96 103.913,85.938 104.346,86.83C104.504,87.156 104.988,86.871 104.831,86.547C104.398,85.655 104.132,84.678 103.599,83.837C103.405,83.532 102.919,83.814 103.114,84.12Z" style="fill:rgb(61,61,61);fill-rule:nonzero;"/>
                    </g>
                </g>
                <g>
                    <g>
                        <path d="M105.577,84.613C106.153,85.452 106.875,86.17 107.592,86.887C107.848,87.143 108.245,86.746 107.989,86.49C107.307,85.808 106.61,85.127 106.062,84.33C105.859,84.033 105.372,84.314 105.577,84.613Z" style="fill:rgb(61,61,61);fill-rule:nonzero;"/>
                    </g>
                </g>
                <g>
                    <g>
                        <path d="M109.761,89.433C110.123,89.433 110.123,88.872 109.761,88.872C109.4,88.872 109.4,89.433 109.761,89.433Z" style="fill:rgb(61,61,61);fill-rule:nonzero;"/>
                    </g>
                </g>
                <g>
                    <g>
                        <path d="M119.616,87.216C120.517,87.202 121.229,86.93 121.975,86.439C122.276,86.241 121.995,85.755 121.692,85.954C121.028,86.391 120.421,86.643 119.616,86.655C119.254,86.66 119.254,87.221 119.616,87.216Z" style="fill:rgb(61,61,61);fill-rule:nonzero;"/>
                    </g>
                </g>
                <g>
                    <g>
                        <path d="M119.37,84.998C119.732,84.998 119.732,84.437 119.37,84.437C119.008,84.437 119.008,84.998 119.37,84.998Z" style="fill:rgb(61,61,61);fill-rule:nonzero;"/>
                    </g>
                </g>
                <g>
                    <g>
                        <path d="M120.882,79.79C120.91,79.503 121.104,79.211 121.293,79.003C121.535,78.735 121.139,78.337 120.896,78.606C120.598,78.936 120.365,79.342 120.321,79.79C120.286,80.151 120.847,80.147 120.882,79.79Z" style="fill:rgb(61,61,61);fill-rule:nonzero;"/>
                    </g>
                </g>
                <g>
                    <g>
                        <path d="M120.823,80.209C120.57,81.867 120.128,83.486 119.838,85.136C119.776,85.49 120.317,85.641 120.379,85.285C120.669,83.634 121.111,82.016 121.364,80.358C121.419,80.004 120.878,79.852 120.823,80.209Z" style="fill:rgb(61,61,61);fill-rule:nonzero;"/>
                    </g>
                </g>
            </g>
            <g>
                <g>
                    <path d="M69.827,64.098C69.936,64.882 70.168,65.734 70.889,66.167C71.53,66.552 72.335,66.285 72.949,65.99C73.275,65.833 72.99,65.349 72.666,65.505C72.176,65.741 71.597,65.937 71.093,65.634C70.563,65.316 70.444,64.497 70.368,63.948C70.319,63.592 69.778,63.744 69.827,64.098Z" style="fill:rgb(61,61,61);fill-rule:nonzero;"/>
                </g>
            </g>
            <g>
                <g>
                    <path d="M70.418,65.526C71.066,65.322 71.741,65.238 72.389,65.033C72.733,64.925 72.586,64.383 72.24,64.492C71.592,64.696 70.917,64.78 70.269,64.985C69.925,65.093 70.072,65.635 70.418,65.526Z" style="fill:rgb(61,61,61);fill-rule:nonzero;"/>
                </g>
            </g>
            <g>
                <g>
                    <path d="M70.486,63.527C70.913,63.314 71.338,63.099 71.823,63.073C72.183,63.054 72.185,62.492 71.823,62.512C71.233,62.544 70.724,62.784 70.203,63.043C69.878,63.203 70.163,63.687 70.486,63.527Z" style="fill:rgb(61,61,61);fill-rule:nonzero;"/>
                </g>
            </g>
            <g>
                <g>
                    <path d="M70.486,65.498C70.979,65.252 71.471,65.005 71.964,64.759C72.288,64.597 72.003,64.113 71.681,64.274C71.188,64.52 70.696,64.767 70.203,65.013C69.879,65.175 70.163,65.659 70.486,65.498Z" style="fill:rgb(61,61,61);fill-rule:nonzero;"/>
                </g>
            </g>
            <g>
                <g>
                    <path d="M70.172,67.004C71.57,66.768 72.962,66.501 74.36,66.265C74.716,66.205 74.565,65.664 74.211,65.724C72.813,65.96 71.421,66.227 70.023,66.463C69.667,66.523 69.818,67.064 70.172,67.004Z" style="fill:rgb(61,61,61);fill-rule:nonzero;"/>
                </g>
            </g>
            <g>
                <g>
                    <path d="M71.329,65.536C73.937,65.33 76.436,65.578 78.892,66.511C79.231,66.64 79.376,66.097 79.041,65.97C76.535,65.017 73.992,64.764 71.329,64.975C70.971,65.003 70.968,65.564 71.329,65.536Z" style="fill:rgb(61,61,61);fill-rule:nonzero;"/>
                </g>
            </g>
            <g>
                <g>
                    <g>
                        <path d="M46.666,126.9C45.859,130.108 45.859,133.406 46.666,136.613C46.977,137.851 48.887,137.325 48.575,136.087C47.853,133.219 47.853,130.294 48.575,127.426C48.887,126.188 46.978,125.663 46.666,126.9Z" style="fill:rgb(61,61,61);fill-rule:nonzero;"/>
                    </g>
                </g>
                <g>
                    <g>
                        <path d="M46.921,137.051C53.963,145.742 70.16,145.596 80.137,145.117C90.23,144.633 106.775,142.635 111.736,132.126C112.278,130.978 110.571,129.973 110.026,131.127C105.376,140.978 89.527,142.567 80.137,143.138C70.709,143.711 54.955,143.839 48.321,135.652C47.517,134.658 46.125,136.068 46.921,137.051Z" style="fill:rgb(61,61,61);fill-rule:nonzero;"/>
                    </g>
                </g>
                <g>
                    <g>
                        <path d="M105.718,125.501C107.815,127.459 109.02,130.047 108.84,132.938C108.761,134.214 110.741,134.206 110.82,132.938C111.03,129.561 109.565,126.386 107.118,124.101C106.186,123.231 104.783,124.628 105.718,125.501Z" style="fill:rgb(61,61,61);fill-rule:nonzero;"/>
                    </g>
                </g>
                <g>
                    <g>
                        <path d="M58.741,145.014C59.331,146.638 60.402,149.283 62.504,149.283C64.89,149.283 65.253,145.619 65.411,143.963C65.532,142.692 63.551,142.704 63.431,143.963C63.345,144.864 63.201,145.75 62.896,146.605C62.827,146.8 62.715,147.017 62.583,147.176C62.434,147.354 62.487,147.303 62.4,147.303C62.339,147.303 61.91,146.903 61.745,146.68C61.257,146.023 60.928,145.251 60.65,144.487C60.218,143.297 58.304,143.81 58.741,145.014Z" style="fill:rgb(61,61,61);fill-rule:nonzero;"/>
                    </g>
                </g>
                <g>
                    <g>
                        <path d="M91.651,144.463C91.785,144.772 91.971,145.495 92.192,145.935C92.646,146.842 93.498,147.498 94.369,147.968C94.875,148.241 95.405,148.065 95.723,147.613C96.318,146.767 96.676,145.901 96.726,144.863C96.774,143.863 96.409,142.865 96.383,141.864C96.351,140.59 94.371,140.586 94.403,141.864C94.422,142.629 94.549,143.374 94.682,144.126C94.855,145.105 94.577,145.813 94.013,146.615C94.464,146.497 94.916,146.378 95.367,146.26C94.06,145.554 93.894,144.697 93.36,143.465C92.854,142.294 91.149,143.304 91.651,144.463Z" style="fill:rgb(61,61,61);fill-rule:nonzero;"/>
                    </g>
                </g>
                <g>
                    <g>
                        <path d="M52.572,133.004C52.462,134.233 52.35,135.466 52.326,136.699C52.323,136.83 52.415,136.928 52.532,136.97C56.056,138.222 59.602,139.413 63.125,140.665C63.467,140.787 63.613,140.244 63.274,140.124C60.498,139.137 57.709,138.188 54.927,137.22C54.703,137.142 52.887,136.69 52.894,136.356C52.903,135.895 52.943,135.433 52.974,134.972C53.019,134.315 53.075,133.659 53.134,133.003C53.165,132.644 52.604,132.647 52.572,133.004Z" style="fill:rgb(61,61,61);fill-rule:nonzero;"/>
                    </g>
                </g>
                <g>
                    <g>
                        <path d="M49.458,128.658C58.781,132.116 68.294,134.53 78.291,134.386C88.225,134.242 97.714,130.803 106.393,126.196C107.521,125.597 106.521,123.888 105.394,124.486C96.373,129.274 86.997,132.28 76.733,132.428C67.542,132.561 58.517,129.914 49.984,126.749C48.784,126.304 48.271,128.218 49.458,128.658Z" style="fill:rgb(61,61,61);fill-rule:nonzero;"/>
                    </g>
                </g>
            </g>
            <g>
                <g>
                    <path d="M49.671,135.007C50.197,134.499 50.76,134.088 51.184,133.481C51.392,133.184 50.905,132.903 50.699,133.198C50.305,133.762 49.762,134.138 49.274,134.61C49.014,134.862 49.411,135.259 49.671,135.007Z" style="fill:rgb(61,61,61);fill-rule:nonzero;"/>
                </g>
            </g>
            <g>
                <g>
                    <path d="M49.181,130.844C49.643,130.402 50.188,130.062 50.65,129.62C50.912,129.369 50.514,128.973 50.253,129.223C49.791,129.665 49.246,130.005 48.784,130.447C48.523,130.698 48.92,131.094 49.181,130.844Z" style="fill:rgb(61,61,61);fill-rule:nonzero;"/>
                </g>
            </g>
            <g>
                <g>
                    <path d="M49.058,127.978C50.505,127.473 51.816,126.847 53.391,127.009C53.366,126.825 53.341,126.642 53.316,126.458C51.448,126.909 49.539,127.175 47.684,127.682C47.756,127.853 47.828,128.024 47.9,128.195C49,127.428 50.268,126.997 51.506,126.509C51.717,126.426 51.805,126.124 51.573,125.996C50.981,125.671 48.836,125.953 48.495,126.586C48.369,126.82 48.633,127.135 48.879,126.97C49.776,126.368 50.725,126.251 51.75,126.019C52.06,125.949 51.991,125.459 51.675,125.468C49.986,125.518 48.958,126.357 47.803,127.509C47.547,127.765 47.943,128.162 48.2,127.906C49.236,126.873 50.14,126.074 51.675,126.029C51.65,125.845 51.625,125.662 51.6,125.478C50.527,125.721 49.525,125.861 48.594,126.486C48.722,126.614 48.85,126.742 48.978,126.87C49.138,126.572 51,126.323 51.288,126.481C51.31,126.31 51.333,126.139 51.355,125.968C50.074,126.473 48.753,126.916 47.615,127.71C47.362,127.887 47.51,128.311 47.831,128.223C49.686,127.716 51.595,127.45 53.463,126.999C53.792,126.92 53.686,126.478 53.388,126.448C51.76,126.281 50.408,126.914 48.906,127.438C48.569,127.555 48.715,128.097 49.058,127.978Z" style="fill:rgb(61,61,61);fill-rule:nonzero;"/>
                </g>
            </g>
            <g>
                <g>
                    <path d="M48.957,131.7C49.513,134.472 51.334,136.486 54.05,137.283C54.398,137.385 54.546,136.844 54.199,136.742C51.66,135.997 50.016,134.133 49.498,131.551C49.427,131.196 48.886,131.347 48.957,131.7Z" style="fill:rgb(61,61,61);fill-rule:nonzero;"/>
                </g>
            </g>
            <g>
                <g>
                    <path d="M50.037,138.018C51.165,137.611 52.245,136.817 53.099,135.987C53.359,135.734 52.962,135.338 52.702,135.59C51.924,136.347 50.919,137.105 49.887,137.477C49.55,137.598 49.696,138.141 50.037,138.018Z" style="fill:rgb(61,61,61);fill-rule:nonzero;"/>
                </g>
            </g>
            <g>
                <g>
                    <path d="M51.573,139.704C52.789,138.954 53.808,137.972 54.813,136.967C55.069,136.711 54.672,136.314 54.416,136.57C53.444,137.541 52.465,138.495 51.289,139.22C50.983,139.408 51.264,139.894 51.573,139.704Z" style="fill:rgb(61,61,61);fill-rule:nonzero;"/>
                </g>
            </g>
            <g>
                <g>
                    <path d="M54.814,139.66C55.467,139.007 56.12,138.354 56.773,137.701C57.029,137.445 56.632,137.048 56.376,137.304C55.723,137.957 55.07,138.61 54.417,139.263C54.161,139.519 54.557,139.916 54.814,139.66Z" style="fill:rgb(61,61,61);fill-rule:nonzero;"/>
                </g>
            </g>
            <g>
                <g>
                    <path d="M57.752,141.374C57.933,141.195 58.098,140.998 58.363,140.956C58.72,140.9 58.568,140.359 58.214,140.415C57.856,140.471 57.604,140.731 57.356,140.977C57.098,141.232 57.495,141.629 57.752,141.374Z" style="fill:rgb(61,61,61);fill-rule:nonzero;"/>
                </g>
            </g>
            <g>
                <g>
                    <path d="M60.812,141.446C61.933,141.139 62.884,140.386 63.428,139.358C63.597,139.038 63.113,138.755 62.943,139.075C62.464,139.979 61.65,140.635 60.662,140.905C60.314,141 60.462,141.542 60.812,141.446Z" style="fill:rgb(61,61,61);fill-rule:nonzero;"/>
                </g>
            </g>
            <g>
                <g>
                    <path d="M51.233,135.252C55.291,139.125 60.581,141.572 66.049,142.67C66.402,142.741 66.553,142.2 66.198,142.129C60.821,141.049 55.621,138.665 51.629,134.855C51.369,134.605 50.971,135.002 51.233,135.252Z" style="fill:rgb(61,61,61);fill-rule:nonzero;"/>
                </g>
            </g>
            <g>
                <g>
                    <path d="M49.576,136.03C53.465,138.502 57.861,139.662 62.451,139.741C62.813,139.747 62.813,139.186 62.451,139.18C57.951,139.102 53.672,137.968 49.859,135.545C49.553,135.351 49.272,135.837 49.576,136.03Z" style="fill:rgb(61,61,61);fill-rule:nonzero;"/>
                </g>
            </g>
            <g>
                <g>
                    <path d="M51.63,137.456C53.111,136.001 54.785,134.786 56.471,133.582C56.763,133.374 56.483,132.886 56.188,133.097C54.464,134.329 52.749,135.571 51.234,137.059C50.975,137.313 51.372,137.709 51.63,137.456Z" style="fill:rgb(61,61,61);fill-rule:nonzero;"/>
                </g>
            </g>
            <g>
                <g>
                    <path d="M51.432,134.355C53.386,134.129 55.355,134.092 57.309,133.865C57.664,133.824 57.668,133.262 57.309,133.304C55.355,133.53 53.386,133.567 51.432,133.794C51.077,133.835 51.073,134.396 51.432,134.355Z" style="fill:rgb(61,61,61);fill-rule:nonzero;"/>
                </g>
            </g>
            <g>
                <g>
                    <path d="M50.556,132.847C52.119,133.947 53.795,134.843 55.453,135.785C55.768,135.964 56.051,135.479 55.736,135.3C54.077,134.358 52.401,133.461 50.839,132.362C50.542,132.154 50.262,132.641 50.556,132.847Z" style="fill:rgb(61,61,61);fill-rule:nonzero;"/>
                </g>
            </g>
            <g>
                <g>
                    <path d="M53.739,138.724C56.987,140.18 60.373,141.173 63.846,141.936C64.199,142.013 64.349,141.472 63.995,141.395C60.57,140.643 57.228,139.677 54.022,138.24C53.695,138.093 53.409,138.576 53.739,138.724Z" style="fill:rgb(61,61,61);fill-rule:nonzero;"/>
                </g>
            </g>
            <g>
                <g>
                    <path d="M61.642,141.936C65.369,142.895 69.145,143.402 72.981,143.66C73.342,143.684 73.34,143.123 72.981,143.099C69.197,142.844 65.467,142.34 61.791,141.395C61.44,141.304 61.292,141.846 61.642,141.936Z" style="fill:rgb(61,61,61);fill-rule:nonzero;"/>
                </g>
            </g>
            <g>
                <g>
                    <path d="M62.866,141.446C68.122,143.27 74.334,143.375 79.837,143.415C80.199,143.418 80.199,142.856 79.837,142.854C74.354,142.815 68.238,142.717 63.015,140.905C62.673,140.786 62.527,141.328 62.866,141.446Z" style="fill:rgb(61,61,61);fill-rule:nonzero;"/>
                </g>
            </g>
            <g>
                <g>
                    <path d="M58.778,115.01C59.14,115.01 59.14,114.449 58.778,114.449C58.416,114.449 58.416,115.01 58.778,115.01Z" style="fill:rgb(61,61,61);fill-rule:nonzero;"/>
                </g>
            </g>
            <g>
                <g>
                    <path d="M58.536,114.587C57.694,116.04 57.356,117.561 57.773,119.211C57.862,119.562 58.403,119.413 58.314,119.062C57.933,117.555 58.253,116.195 59.02,114.871C59.202,114.557 58.717,114.274 58.536,114.587Z" style="fill:rgb(61,61,61);fill-rule:nonzero;"/>
                </g>
            </g>
        </g>
    </g>
</svg>
