<?xml version="1.0" encoding="utf-8"?>
<!-- Generator: Adobe Illustrator 17.0.0, SVG Export Plug-In . SVG Version: 6.00 Build 0)  -->
<!DOCTYPE svg PUBLIC "-//W3C//DTD SVG 1.1//EN" "http://www.w3.org/Graphics/SVG/1.1/DTD/svg11.dtd" [
	<!ENTITY st0 "fill:#3D3D3D;">
]>
<svg version="1.1" id="Calque_1" xmlns="http://www.w3.org/2000/svg" xmlns:xlink="http://www.w3.org/1999/xlink" x="0px" y="0px"
	 width="166px" height="167px" viewBox="0 0 166 167" style="enable-background:new 0 0 166 167;" xml:space="preserve">
<g>
	<g>
		<g>
			<path style="&st0;" d="M96.152,123.46c0.146-0.145,0.271-0.312,0.478-0.345c0.378-0.06,0.583-0.526,0.49-0.863
				c-0.11-0.399-0.486-0.549-0.863-0.49c-0.449,0.071-0.786,0.397-1.097,0.705C94.517,123.105,95.509,124.097,96.152,123.46
				L96.152,123.46z"/>
		</g>
	</g>
	<g>
		<g>
			<path style="&st0;" d="M69.846,62.854c-0.001-0.131,0.003-0.279-0.034-0.405c-0.139-0.473-0.818-0.727-1.173-0.31
				c-0.426,0.502-0.297,1.592-0.332,2.203c-0.052,0.902-0.119,1.808-0.127,2.712c-0.008,0.905,1.395,0.904,1.403,0
				c0.007-0.747,0.061-1.496,0.101-2.241c0.024-0.443,0.049-0.886,0.078-1.329c0.011-0.18,0.024-0.36,0.038-0.54
				c0.029-0.367,0.016-0.03-0.168,0.187c-0.391-0.103-0.782-0.206-1.173-0.31c-0.078-0.266-0.017-0.085-0.016,0.032
				C68.448,63.759,69.851,63.759,69.846,62.854L69.846,62.854z"/>
		</g>
	</g>
	<g>
		<g>
			<path style="&st0;" d="M69.331,63.531c4.316-1.598,9.022-1.77,13.539-1.05c0.885,0.141,1.265-1.211,0.373-1.353
				c-4.762-0.759-9.726-0.638-14.285,1.05C68.117,62.489,68.481,63.845,69.331,63.531L69.331,63.531z"/>
		</g>
	</g>
	<g>
		<g>
			<path style="&st0;" d="M82.905,62.778c0.469,1.215,0.744,2.446,0.762,3.751c0.013,0.904,1.416,0.905,1.403,0
				c-0.02-1.424-0.3-2.796-0.813-4.124C83.936,61.57,82.579,61.933,82.905,62.778L82.905,62.778z"/>
		</g>
	</g>
	<g>
		<g>
			<path style="&st0;" d="M83.844,66.352c-4.606-0.219-9.132,0.034-13.573,1.338c-0.866,0.254-0.497,1.608,0.373,1.353
				c4.327-1.27,8.719-1.501,13.2-1.287C84.749,67.798,84.745,66.395,83.844,66.352L83.844,66.352z"/>
		</g>
	</g>
	<g>
		<g>
			<path style="&st0;" d="M74.046,60.229c-0.49-3.769-2.386-22.792,5.73-18.954c4.975,2.352,4.884,10.546,10.014,13.26
				c0.386,0.204,0.924,0.038,1.031-0.419c0.935-3.999-0.18-8.275,0.048-12.343c0.188-3.358,3.872-6.881,6.332-3.158
				c1.214,1.837,1.395,4.55,1.603,6.651c0.696,7.032-0.83,15.481,5.335,20.708c4.982,4.223,6.424-10.526,6.584-12.462
				c0.614-7.456-0.618-25.138,10.133-25.654c0.901-0.043,0.905-1.446,0-1.403c-13.336,0.64-10.714,22.595-12.034,31.438
				c-0.548,3.67-2.32,10.289-5.859,4.289c-2.108-3.574-2.366-6.528-2.464-10.477c-0.114-4.577,0.493-11.928-3.361-15.295
				c-3.274-2.861-7.153,1.111-7.549,4.359c-0.473,3.882,0.285,7.739,0.119,11.626c-0.059,1.376-2.421-2.256-2.95-3.131
				c-1.017-1.681-1.848-3.476-2.812-5.188c-2.105-3.737-6.243-6.663-9.734-2.58c-3.815,4.462-2.25,13.493-1.568,18.733
				C72.758,61.113,74.163,61.125,74.046,60.229L74.046,60.229z"/>
		</g>
	</g>
	<g>
		<g>
			<path style="&st0;" d="M78.483,61.188c-0.73-3.027-1.118-6.183-0.946-9.296c0.097-1.755,0.621-4.449,2.954-4.016
				c1.477,0.275,2.401,1.992,3.05,3.174c1.513,2.753,3.379,10.829,7.886,7.313c0.713-0.556-0.288-1.542-0.992-0.992
				c-2.587,2.018-4.271-4.045-5.026-5.7c-0.944-2.069-2.48-5.084-5.109-5.244c-6.457-0.392-4.008,11.658-3.17,15.133
				C77.342,62.44,78.695,62.067,78.483,61.188L78.483,61.188z"/>
		</g>
	</g>
	<g>
		<g>
			<path style="&st0;" d="M90.435,57.371c-0.03,0.022-0.059,0.045-0.087,0.07c-0.626,0.528,0.175,1.48,0.85,1.102
				c1.033-0.579,1.858-1.953,2.466-2.909c1.713-2.691,2.222-5.924,1.905-9.053c-0.09-0.891-1.494-0.9-1.403,0
				c0.286,2.822-0.127,5.476-1.494,7.974c-0.468,0.855-1.694,2.503-2.183,2.777c0.283,0.367,0.567,0.735,0.85,1.102
				c0.028-0.024,0.057-0.047,0.087-0.07C92.138,57.804,91.138,56.818,90.435,57.371L90.435,57.371z"/>
		</g>
	</g>
	<g>
		<g>
			<path style="&st0;" d="M93.642,47.367c-0.151,4.312-0.096,8.584,0.791,12.821c0.402,1.918,1.172,3.699,2.136,5.391
				c0.516,0.906,2.848,2.621,2.848,3.312c0,0.332,0.218,0.567,0.515,0.676c2.418,0.888,5.262,0.979,7.799,0.813
				c0.898-0.059,0.904-1.462,0-1.403c-1.002,0.066-6.911-0.183-6.911-0.348c0-1.297-2.349-2.757-3.04-3.758
				c-3.331-4.828-2.931-11.919-2.735-17.504C95.077,46.462,93.674,46.465,93.642,47.367L93.642,47.367z"/>
		</g>
	</g>
	<g>
		<g>
			<path style="&st0;" d="M107.13,70.355c6.963-2.135,7.801-10.914,8.525-17.056c0.574-4.871-1.242-20.988,6.513-20.193
				c0.9,0.092,0.891-1.312,0-1.403c-6.262-0.642-7.038,7.423-7.415,11.946c-0.619,7.424,0.971,22.602-7.996,25.352
				C105.894,69.267,106.262,70.621,107.13,70.355L107.13,70.355z"/>
		</g>
	</g>
	<g>
		<g>
			<path style="&st0;" d="M120.039,33.426c0.442-0.414,1.01-0.569,1.604-0.582c0.903-0.02,0.905-1.423,0-1.403
				c-0.971,0.022-1.88,0.323-2.596,0.993C118.385,33.054,119.379,34.044,120.039,33.426L120.039,33.426z"/>
		</g>
	</g>
	<g>
		<g>
			<path style="&st0;" d="M121.466,24.531c0.019,3.152,0.243,6.298,0.262,9.45c0.006,0.905,1.409,0.905,1.403,0
				c-0.019-3.152-0.243-6.298-0.262-9.45C122.863,23.626,121.46,23.626,121.466,24.531L121.466,24.531z"/>
		</g>
	</g>
	<g>
		<g>
			<path style="&st0;" d="M122.259,25.661c0.644-0.285,1.584-0.167,2.271-0.167c0.905,0,0.905-1.403,0-1.403
				c-0.984,0-2.062-0.048-2.979,0.358C120.725,24.816,121.44,26.025,122.259,25.661L122.259,25.661z"/>
		</g>
	</g>
	<g>
		<g>
			<path style="&st0;" d="M124.091,25.318c-0.272,3.583-0.506,7.168-0.525,10.762c-0.005,0.905,1.398,0.905,1.403,0
				c0.019-3.594,0.253-7.179,0.525-10.762C125.562,24.415,124.159,24.422,124.091,25.318L124.091,25.318z"/>
		</g>
	</g>
	<g>
		<g>
			<path style="&st0;" d="M122.955,35.207c0.088,0,0.175,0,0.262,0c0.905,0,0.905-1.403,0-1.403c-0.087,0-0.175,0-0.262,0
				C122.05,33.804,122.05,35.207,122.955,35.207L122.955,35.207z"/>
		</g>
	</g>
	<g>
		<g>
			<path style="&st0;" d="M125.026,27.389c3.016-3.407,6.501-6.267,9.975-9.187c-0.399-0.165-0.798-0.331-1.198-0.496
				c0.671,7.515-1.455,15.004-0.237,22.498c0.344-0.264,0.687-0.528,1.031-0.792c-3.469-2.463-6.768-5.15-10.237-7.612
				c-0.74-0.525-1.439,0.692-0.708,1.212c3.469,2.463,6.768,5.15,10.237,7.612c0.56,0.398,1.118-0.255,1.031-0.792
				c-1.195-7.357,0.946-14.741,0.288-22.125c-0.056-0.628-0.713-0.904-1.198-0.496c-3.474,2.92-6.959,5.78-9.975,9.187
				C123.436,27.072,124.425,28.068,125.026,27.389L125.026,27.389z"/>
		</g>
	</g>
	<g>
		<g>
			<path style="&st0;" d="M72.979,58.628c1.04,0.24,2.065,0.24,3.106,0c0.353-0.081,0.203-0.622-0.149-0.541
				c-0.945,0.218-1.862,0.218-2.807,0C72.776,58.005,72.627,58.546,72.979,58.628L72.979,58.628z"/>
		</g>
	</g>
	<g>
		<g>
			<path style="&st0;" d="M73.304,53.572c0.583,0.803,1.577,1.149,2.534,0.868c0.347-0.102,0.199-0.643-0.149-0.541
				c-0.7,0.205-1.464-0.01-1.9-0.61C73.578,52.999,73.091,53.278,73.304,53.572L73.304,53.572z"/>
		</g>
	</g>
	<g>
		<g>
			<path style="&st0;" d="M72.912,48.499c1.063,0.769,2.273,1.237,3.591,1.27c0.362,0.009,0.361-0.552,0-0.561
				c-1.223-0.03-2.324-0.483-3.307-1.193C72.902,47.802,72.622,48.289,72.912,48.499L72.912,48.499z"/>
		</g>
	</g>
	<g>
		<g>
			<path style="&st0;" d="M75.237,41.358c-0.194,2.616,0.877,4.857,2.792,6.604c0.267,0.243,0.665-0.152,0.397-0.397
				c-1.817-1.657-2.812-3.723-2.628-6.207C75.825,40.997,75.263,41,75.237,41.358L75.237,41.358z"/>
		</g>
	</g>
	<g>
		<g>
			<path style="&st0;" d="M80.913,43.255c-0.219,1.415-0.256,2.833-0.256,4.263c0,0.362,0.561,0.362,0.561,0
				c0-1.377,0.025-2.75,0.236-4.114C81.509,43.05,80.968,42.898,80.913,43.255L80.913,43.255z"/>
		</g>
	</g>
	<g>
		<g>
			<path style="&st0;" d="M84.855,49.414c-0.267,0.819-0.485,1.672-0.503,2.538c-0.007,0.362,0.554,0.361,0.561,0
				c0.016-0.816,0.231-1.617,0.483-2.389C85.509,49.218,84.967,49.071,84.855,49.414L84.855,49.414z"/>
		</g>
	</g>
	<g>
		<g>
			<path style="&st0;" d="M88.332,52.796c-0.901,1.427-1.334,3.163-0.493,4.718c0.172,0.318,0.657,0.035,0.485-0.283
				c-0.745-1.377-0.296-2.902,0.493-4.151C89.011,52.772,88.525,52.49,88.332,52.796L88.332,52.796z"/>
		</g>
	</g>
	<g>
		<g>
			<path style="&st0;" d="M90.768,53.012c0.308,1.085,1.189,1.425,2.241,1.438c0.362,0.005,0.362-0.557,0-0.561
				c-0.793-0.01-1.464-0.191-1.7-1.026C91.21,52.515,90.669,52.663,90.768,53.012L90.768,53.012z"/>
		</g>
	</g>
	<g>
		<g>
			<path style="&st0;" d="M90.303,48.152c0.579,0.798,1.489,1.066,2.385,1.361c0.345,0.113,0.491-0.429,0.149-0.541
				c-0.733-0.241-1.572-0.445-2.05-1.103C90.577,47.579,90.09,47.858,90.303,48.152L90.303,48.152z"/>
		</g>
	</g>
	<g>
		<g>
			<path style="&st0;" d="M91.743,38.402c0.073,2.904,1.287,5.506,3.285,7.589c0.251,0.262,0.647-0.136,0.397-0.397
				c-1.897-1.977-3.051-4.435-3.12-7.192C92.295,38.041,91.734,38.04,91.743,38.402L91.743,38.402z"/>
		</g>
	</g>
	<g>
		<g>
			<path style="&st0;" d="M95.25,46.36c0.529-1.956,1.698-3.56,3.32-4.759c0.288-0.213,0.008-0.7-0.283-0.485
				c-1.743,1.288-3.009,2.991-3.578,5.095C94.615,46.561,95.156,46.709,95.25,46.36L95.25,46.36z"/>
		</g>
	</g>
	<g>
		<g>
			<path style="&st0;" d="M95.425,49.44c0.899-1.086,2.026-1.858,3.325-2.391c0.33-0.136,0.186-0.679-0.149-0.541
				c-1.391,0.571-2.609,1.371-3.573,2.536C94.799,49.32,95.194,49.719,95.425,49.44L95.425,49.44z"/>
		</g>
	</g>
	<g>
		<g>
			<path style="&st0;" d="M94.686,57.077c1.291-1.02,2.666-1.918,4.131-2.666c0.322-0.165,0.038-0.649-0.283-0.485
				c-1.51,0.77-2.916,1.704-4.245,2.754C94.005,56.905,94.405,57.299,94.686,57.077L94.686,57.077z"/>
		</g>
	</g>
	<g>
		<g>
			<path style="&st0;" d="M96.947,64.165c1.032-1.745,2.543-2.847,4.513-3.32c0.352-0.084,0.203-0.626-0.149-0.541
				c-2.106,0.506-3.747,1.715-4.849,3.578C96.277,64.194,96.763,64.476,96.947,64.165L96.947,64.165z"/>
		</g>
	</g>
	<g>
		<g>
			<path style="&st0;" d="M103.404,64.318c-1.489,1.576-1.757,3.438-0.537,5.267c0.2,0.299,0.686,0.019,0.485-0.283
				c-1.08-1.619-0.87-3.191,0.449-4.587C104.049,64.452,103.653,64.054,103.404,64.318L103.404,64.318z"/>
		</g>
	</g>
	<g>
		<g>
			<path style="&st0;" d="M107.895,63.773c1.059,0.763,2.181,0.978,3.419,0.521c0.336-0.124,0.191-0.667-0.149-0.541
				c-1.109,0.41-2.04,0.217-2.986-0.464C107.884,63.076,107.605,63.564,107.895,63.773L107.895,63.773z"/>
		</g>
	</g>
	<g>
		<g>
			<path style="&st0;" d="M110.113,57.121c1.093,0.508,2.146,0.508,3.24,0c0.328-0.152,0.043-0.636-0.283-0.485
				c-0.895,0.415-1.778,0.415-2.673,0C110.07,56.485,109.785,56.969,110.113,57.121L110.113,57.121z"/>
		</g>
	</g>
	<g>
		<g>
			<path style="&st0;" d="M111.098,49.238c1.301,0.737,2.66,0.762,3.789-0.29c0.265-0.247-0.132-0.643-0.397-0.397
				c-0.943,0.879-2.036,0.81-3.109,0.202C111.066,48.574,110.783,49.059,111.098,49.238L111.098,49.238z"/>
		</g>
	</g>
	<g>
		<g>
			<path style="&st0;" d="M111.452,39.88c0.042,1.512,1.266,2.473,2.67,2.734c0.354,0.066,0.505-0.475,0.149-0.541
				c-1.147-0.213-2.223-0.926-2.258-2.193C112.003,39.519,111.442,39.518,111.452,39.88L111.452,39.88z"/>
		</g>
	</g>
	<g>
		<g>
			<path style="&st0;" d="M112.694,35.274c0.567,1.585,1.839,2.608,3.399,3.152c0.343,0.12,0.489-0.423,0.149-0.541
				c-1.361-0.475-2.51-1.372-3.007-2.76C113.114,34.787,112.571,34.932,112.694,35.274L112.694,35.274z"/>
		</g>
	</g>
	<g>
		<g>
			<path style="&st0;" d="M114.901,30.272c0.026,1.549,0.513,3.061,1.864,3.938c0.305,0.198,0.586-0.288,0.283-0.485
				c-1.179-0.765-1.563-2.114-1.586-3.453C115.456,29.911,114.895,29.91,114.901,30.272L114.901,30.272z"/>
		</g>
	</g>
	<g>
		<g>
			<path style="&st0;" d="M118.35,27.808c-0.209,1.704-0.015,3.37,0.503,5.002c0.109,0.344,0.651,0.197,0.541-0.149
				c-0.504-1.588-0.686-3.197-0.483-4.853C118.955,27.45,118.393,27.454,118.35,27.808L118.35,27.808z"/>
		</g>
	</g>
	<g>
		<g>
			<path style="&st0;" d="M123.699,29.775c3.016-2.262,6.022-4.536,8.926-6.942c0.279-0.231-0.12-0.626-0.397-0.397
				c-2.867,2.375-5.834,4.621-8.812,6.854C123.13,29.505,123.409,29.993,123.699,29.775L123.699,29.775z"/>
		</g>
	</g>
	<g>
		<g>
			<path style="&st0;" d="M127.395,30.022c1.268-0.746,2.625-1.319,3.942-1.971c0.324-0.161,0.04-0.645-0.283-0.485
				c-1.317,0.652-2.673,1.225-3.942,1.971C126.8,29.72,127.082,30.206,127.395,30.022L127.395,30.022z"/>
		</g>
	</g>
	<g>
		<g>
			<path style="&st0;" d="M124.155,32.485c1.912,0.923,3.927,1.485,5.98,1.999c0.351,0.088,0.5-0.453,0.149-0.541
				c-2.006-0.502-3.976-1.041-5.846-1.943C124.114,31.844,123.829,32.328,124.155,32.485L124.155,32.485z"/>
		</g>
	</g>
	<g>
		<g>
			<path style="&st0;" d="M125.387,31.253c2.189,0.955,4.416,1.708,6.793,2.009c0.358,0.045,0.354-0.516,0-0.561
				c-2.273-0.288-4.418-1.02-6.51-1.933C125.342,30.626,125.056,31.109,125.387,31.253L125.387,31.253z"/>
		</g>
	</g>
	<g>
		<g>
			<path style="&st0;" d="M125.741,26.33c-0.236,2.046-0.246,4.102-0.246,6.159c0,0.362,0.561,0.362,0.561,0
				c0-2.057,0.01-4.113,0.246-6.159C126.343,25.971,125.782,25.975,125.741,26.33L125.741,26.33z"/>
		</g>
	</g>
	<g>
		<g>
			<path style="&st0;" d="M128.451,24.852c0,2.468-0.019,4.931-0.246,7.391c-0.033,0.36,0.528,0.357,0.561,0
				c0.227-2.459,0.246-4.923,0.246-7.391C129.012,24.49,128.451,24.49,128.451,24.852L128.451,24.852z"/>
		</g>
	</g>
	<g>
		<g>
			<path style="&st0;" d="M129.436,24.359c0,3.285,0,6.57,0,9.854c0,0.362,0.561,0.362,0.561,0c0-3.285,0-6.57,0-9.854
				C129.997,23.998,129.436,23.998,129.436,24.359L129.436,24.359z"/>
		</g>
	</g>
	<g>
		<g>
			<path style="&st0;" d="M128.683,27.021c0.728-0.702,1.613-1.149,2.586-1.406c0.35-0.092,0.201-0.634-0.149-0.541
				c-1.064,0.281-2.038,0.783-2.834,1.55C128.025,26.876,128.423,27.273,128.683,27.021L128.683,27.021z"/>
		</g>
	</g>
	<g>
		<g>
			<path style="&st0;" d="M126.686,32.267c1.893,0.477,3.773,1.001,5.666,1.478c0.351,0.089,0.5-0.453,0.149-0.541
				c-1.893-0.477-3.773-1.001-5.666-1.478C126.484,31.637,126.335,32.179,126.686,32.267L126.686,32.267z"/>
		</g>
	</g>
	<g>
		<g>
			<path style="&st0;" d="M125.823,33.18c1.718,1.923,3.729,3.459,5.969,4.725c0.316,0.178,0.598-0.307,0.283-0.485
				c-2.199-1.242-4.171-2.75-5.856-4.637C125.978,32.513,125.583,32.912,125.823,33.18L125.823,33.18z"/>
		</g>
	</g>
	<g>
		<g>
			<path style="&st0;" d="M48.664,127.126c0.536,0,1.085-0.02,1.583,0.208c0.326,0.15,0.612-0.334,0.283-0.485
				c-0.599-0.275-1.217-0.284-1.866-0.285C48.302,126.564,48.302,127.126,48.664,127.126L48.664,127.126z"/>
		</g>
	</g>
	<g>
		<g>
			<g>
				<path style="&st0;" d="M49.458,128.658c9.323,3.458,18.836,5.872,28.833,5.728c9.934-0.144,19.423-3.583,28.102-8.19
					c1.128-0.599,0.128-2.308-0.999-1.71c-9.021,4.788-18.397,7.794-28.661,7.942c-9.191,0.133-18.216-2.514-26.749-5.679
					C48.784,126.304,48.271,128.218,49.458,128.658L49.458,128.658z"/>
			</g>
		</g>
		<g>
			<g>
				<g>
					<path style="&st0;" d="M55.663,127.425c-4.31-10.887-3.005-24.49-0.814-35.705c2.408-12.327,9.986-23.678,23.678-24.194
						c13.916-0.525,19.13,14.109,21.786,25.14c2.574,10.692,4.021,22.462,2.754,33.448c-0.146,1.267,1.835,1.253,1.98,0
						c1.478-12.81-0.614-26.684-4.147-39c-3.175-11.067-9.697-21.324-22.373-21.568c-12.22-0.235-21.145,9.911-24.39,20.722
						c-3.754,12.511-5.287,29.296-0.383,41.683C54.218,129.124,56.133,128.614,55.663,127.425L55.663,127.425z"/>
				</g>
			</g>
			<g>
				<g>
					<path style="&st0;" d="M68.958,79.502c-9.765,2.487-5.374,17.878-5.24,24.825c0.006,0.322,0.211,0.58,0.515,0.676
						c7.409,2.352,16.215,4.142,23.734,1.312c0.839-0.316,0.476-1.672-0.373-1.353c-4.552,1.713-9.334,1.484-14.074,0.833
						c-2.069-0.284-4.104-0.783-6.123-1.303c-2.555-0.658-2.284-1.376-2.481-3.712c-0.48-5.669-3.209-17.985,4.415-19.927
						C70.208,80.632,69.836,79.278,68.958,79.502L68.958,79.502z"/>
				</g>
			</g>
			<g>
				<g>
					<path style="&st0;" d="M66.969,81.38c6.093-1.978,12.273-1.895,17.571,2.029c0.728,0.539,1.427-0.679,0.708-1.212
						c-5.571-4.127-12.235-4.254-18.652-2.171C65.739,80.305,66.106,81.66,66.969,81.38L66.969,81.38z"/>
				</g>
			</g>
			<g>
				<g>
					<path style="&st0;" d="M88.65,105.206c3.257-7.21,1.976-14.581-2.1-21.182c-0.474-0.768-1.688-0.064-1.212,0.708
						c3.789,6.136,5.155,13.004,2.1,19.766C87.069,105.316,88.278,106.03,88.65,105.206L88.65,105.206z"/>
				</g>
			</g>
			<g>
				<g>
					<path style="&st0;" d="M83.763,83.157c0.998,1.732,2.079,3.416,2.887,5.25c0.364,0.826,1.573,0.112,1.212-0.708
						c-0.809-1.834-1.889-3.517-2.887-5.25C84.523,81.666,83.311,82.372,83.763,83.157L83.763,83.157z"/>
				</g>
			</g>
			<g>
				<g>
					<path style="&st0;" d="M56.096,112.353c4.424,1.313,8.981,1.836,13.573,2.125c0.904,0.057,0.898-1.347,0-1.403
						c-4.47-0.282-8.895-0.797-13.2-2.075C55.6,110.742,55.231,112.097,56.096,112.353L56.096,112.353z"/>
				</g>
			</g>
			<g>
				<g>
					<path style="&st0;" d="M55.319,111.414c0.234,3.951-0.327,8.063,0.838,11.904c1.141,3.764,4.674,5.049,8.263,5.335
						c0.903,0.072,0.896-1.332,0-1.403c-9.053-0.722-7.303-9.154-7.698-15.835C56.669,110.515,55.265,110.51,55.319,111.414
						L55.319,111.414z"/>
				</g>
			</g>
			<g>
				<g>
					<path style="&st0;" d="M69.493,114.039c0.64,5.117-0.451,9.941-3.579,14.083c-0.546,0.723,0.674,1.42,1.212,0.708
						c3.26-4.316,4.439-9.452,3.771-14.791C70.786,113.154,69.381,113.143,69.493,114.039L69.493,114.039z"/>
				</g>
			</g>
			<g>
				<g>
					<path style="&st0;" d="M64.234,128.365c0.833,0.277,1.664,0.528,2.549,0.55c0.905,0.023,0.903-1.381,0-1.403
						c-0.754-0.019-1.466-0.264-2.176-0.5C63.746,126.726,63.379,128.081,64.234,128.365L64.234,128.365z"/>
				</g>
			</g>
			<g>
				<g>
					<path style="&st0;" d="M81.219,113.953c5.054-0.372,9.822-1.881,14.266-4.296c0.795-0.432,0.087-1.643-0.708-1.212
						c-4.228,2.297-8.75,3.75-13.558,4.104C80.323,112.616,80.316,114.02,81.219,113.953L81.219,113.953z"/>
				</g>
			</g>
			<g>
				<g>
					<path style="&st0;" d="M80.805,113.963c1.083,4.28,2.303,8.526,3.15,12.862c0.173,0.888,1.526,0.511,1.353-0.373
						c-0.847-4.336-2.067-8.582-3.15-12.862C81.936,112.714,80.583,113.086,80.805,113.963L80.805,113.963z"/>
				</g>
			</g>
			<g>
				<g>
					<path style="&st0;" d="M84.632,127.603c4.452,0.435,8.441-1.203,11.521-4.405c0.627-0.652-0.364-1.645-0.992-0.992
						c-2.849,2.962-6.421,4.396-10.528,3.994C83.731,126.112,83.74,127.516,84.632,127.603L84.632,127.603z"/>
				</g>
			</g>
			<g>
				<g>
					<path style="&st0;" d="M94.192,110.288c1.041,3.995,1.781,8.028,2.075,12.15c0.064,0.897,1.468,0.903,1.403,0
						c-0.303-4.244-1.052-8.408-2.125-12.523C95.317,109.04,93.964,109.412,94.192,110.288L94.192,110.288z"/>
				</g>
			</g>
			<g>
				<g>
					<path style="&st0;" d="M57.705,115.783c0.985,0.246,1.971,0.493,2.956,0.739c0.351,0.088,0.5-0.453,0.149-0.541
						c-0.985-0.246-1.971-0.493-2.956-0.739C57.503,115.154,57.354,115.696,57.705,115.783L57.705,115.783z"/>
				</g>
			</g>
			<g>
				<g>
					<path style="&st0;" d="M57.212,115.044c1.647,0.458,3.291,0.731,5.002,0.749c0.362,0.004,0.362-0.558,0-0.561
						c-1.66-0.017-3.256-0.285-4.853-0.729C57.012,114.406,56.864,114.947,57.212,115.044L57.212,115.044z"/>
				</g>
			</g>
			<g>
				<g>
					<path style="&st0;" d="M58.198,114.551c1.559,0.257,3.122,0.482,4.681,0.739c0.354,0.058,0.506-0.482,0.149-0.541
						c-1.559-0.257-3.122-0.482-4.681-0.739C57.993,113.952,57.841,114.493,58.198,114.551L58.198,114.551z"/>
				</g>
			</g>
			<g>
				<g>
					<path style="&st0;" d="M66.122,114.527c0.449,4.12,0.456,8.185-0.483,12.243c-0.081,0.352,0.46,0.502,0.541,0.149
						c0.948-4.098,0.957-8.225,0.503-12.393C66.644,114.171,66.082,114.168,66.122,114.527L66.122,114.527z"/>
				</g>
			</g>
			<g>
				<g>
					<path style="&st0;" d="M71.305,95.483c-0.246,1.61-0.246,3.22,0,4.83c0.055,0.357,0.595,0.205,0.541-0.149
						c-0.23-1.503-0.23-3.028,0-4.532C71.9,95.278,71.36,95.126,71.305,95.483L71.305,95.483z"/>
				</g>
			</g>
			<g>
				<g>
					<path style="&st0;" d="M71.131,100.437c1.502,1.223,3.122,2.018,5.051,2.289c0.354,0.05,0.506-0.491,0.149-0.541
						c-1.826-0.257-3.378-0.984-4.803-2.145C71.25,99.813,70.85,100.208,71.131,100.437L71.131,100.437z"/>
				</g>
			</g>
			<g>
				<g>
					<path style="&st0;" d="M78.578,103.437c1.823,1.26,3.832,1.966,6.054,2.009c0.362,0.007,0.361-0.554,0-0.561
						c-2.129-0.042-4.028-0.727-5.771-1.933C78.563,102.746,78.283,103.233,78.578,103.437L78.578,103.437z"/>
				</g>
			</g>
			<g>
				<g>
					<path style="&st0;" d="M82.587,102.726c1.369,0.521,2.803,0.732,4.263,0.749c0.362,0.004,0.362-0.557,0-0.561
						c-1.414-0.017-2.789-0.225-4.114-0.729C82.398,102.056,82.252,102.599,82.587,102.726L82.587,102.726z"/>
				</g>
			</g>
			<g>
				<g>
					<path style="&st0;" d="M84.312,101.494c1.127,0.281,2.195,0.45,3.352,0.246c0.356-0.063,0.205-0.604-0.149-0.541
						c-1.05,0.185-2.033,0.008-3.053-0.246C84.11,100.866,83.961,101.407,84.312,101.494L84.312,101.494z"/>
				</g>
			</g>
			<g>
				<g>
					<path style="&st0;" d="M84.312,99.77c1.397,0.454,2.791,0.731,4.263,0.749c0.362,0.004,0.362-0.557,0-0.561
						c-1.423-0.017-2.764-0.29-4.114-0.729C84.116,99.116,83.969,99.658,84.312,99.77L84.312,99.77z"/>
				</g>
			</g>
			<g>
				<g>
					<path style="&st0;" d="M86.283,98.045c0.801,0.251,1.649,0.298,2.464,0.493c0.352,0.084,0.501-0.457,0.149-0.541
						c-0.815-0.194-1.663-0.242-2.464-0.493C86.086,97.396,85.939,97.938,86.283,98.045L86.283,98.045z"/>
				</g>
			</g>
			<g>
				<g>
					<path style="&st0;" d="M86.462,96.547c-1.326,0.811-2.54,1.784-3.752,2.754c-0.283,0.226,0.117,0.62,0.397,0.397
						c1.175-0.94,2.353-1.88,3.639-2.666C87.053,96.843,86.772,96.358,86.462,96.547L86.462,96.547z"/>
				</g>
			</g>
			<g>
				<g>
					<path style="&st0;" d="M85.23,99.257c-1.395,0.716-2.637,1.654-3.752,2.754c-0.258,0.254,0.139,0.651,0.397,0.397
						c1.082-1.068,2.284-1.971,3.639-2.666C85.836,99.576,85.552,99.092,85.23,99.257L85.23,99.257z"/>
				</g>
			</g>
			<g>
				<g>
					<path style="&st0;" d="M80.303,102.944c2.073,0.993,4.248,1.475,6.547,1.27c0.358-0.032,0.361-0.593,0-0.561
						c-2.198,0.196-4.279-0.242-6.264-1.193C80.262,102.304,79.977,102.788,80.303,102.944L80.303,102.944z"/>
				</g>
			</g>
			<g>
				<g>
					<path style="&st0;" d="M80.616,103.465c1.899,0.441,3.809,0.51,5.741,0.256c0.354-0.046,0.358-0.608,0-0.561
						c-1.883,0.247-3.737,0.195-5.592-0.236C80.413,102.842,80.264,103.383,80.616,103.465L80.616,103.465z"/>
				</g>
			</g>
			<g>
				<g>
					<path style="&st0;" d="M86.036,99.277c0.835,0.272,1.745,0.495,2.613,0.246c0.347-0.1,0.199-0.641-0.149-0.541
						c-0.77,0.221-1.576-0.006-2.314-0.246C85.84,98.623,85.694,99.165,86.036,99.277L86.036,99.277z"/>
				</g>
			</g>
			<g>
				<g>
					<path style="&st0;" d="M85.869,93.975c0.706,1.177,1.417,2.357,1.943,3.628c0.136,0.33,0.679,0.185,0.541-0.149
						c-0.545-1.319-1.267-2.541-1.999-3.762C86.167,93.381,85.682,93.663,85.869,93.975L85.869,93.975z"/>
				</g>
			</g>
			<g>
				<g>
					<path style="&st0;" d="M91.26,113.616c1.237,3.322,1.914,6.722,1.961,10.273c0.005,0.362,0.566,0.362,0.561,0
						c-0.048-3.598-0.726-7.05-1.981-10.422C91.676,113.131,91.134,113.276,91.26,113.616L91.26,113.616z"/>
				</g>
			</g>
			<g>
				<g>
					<path style="&st0;" d="M83.259,117.233c1.246,0.723,2.601,1.211,4.009,1.506c0.353,0.074,0.503-0.467,0.149-0.541
						c-1.362-0.286-2.669-0.75-3.875-1.45C83.229,116.566,82.947,117.052,83.259,117.233L83.259,117.233z"/>
				</g>
			</g>
			<g>
				<g>
					<path style="&st0;" d="M84.245,115.755c0.655,0.315,1.35,0.538,2.038,0.767c0.344,0.115,0.491-0.427,0.149-0.541
						c-0.642-0.214-1.293-0.417-1.904-0.711C84.203,115.114,83.919,115.598,84.245,115.755L84.245,115.755z"/>
				</g>
			</g>
			<g>
				<g>
					<path style="&st0;" d="M85.969,115.262c0.721,0.464,1.496,0.757,2.359,0.777c0.362,0.009,0.361-0.553,0-0.561
						c-0.767-0.018-1.436-0.29-2.076-0.701C85.947,114.581,85.666,115.067,85.969,115.262L85.969,115.262z"/>
				</g>
			</g>
			<g>
				<g>
					<path style="&st0;" d="M87.637,114.726c0.388,0.357,0.849,0.619,1.232,0.985c0.261,0.25,0.659-0.146,0.397-0.397
						c-0.383-0.367-0.845-0.629-1.232-0.985C87.768,114.084,87.37,114.48,87.637,114.726L87.637,114.726z"/>
				</g>
			</g>
			<g>
				<g>
					<path style="&st0;" d="M84.352,115.759c-0.02,0.746-0.227,1.47-0.246,2.217c-0.01,0.362,0.552,0.361,0.561,0
						c0.02-0.746,0.227-1.47,0.246-2.217C84.923,115.397,84.362,115.398,84.352,115.759L84.352,115.759z"/>
				</g>
			</g>
			<g>
				<g>
					<path style="&st0;" d="M86.115,117.342c-0.463,0.996-0.53,2.015-0.531,3.098c0,0.362,0.561,0.362,0.561,0
						c0.001-0.973,0.037-1.917,0.454-2.815C86.751,117.299,86.268,117.014,86.115,117.342L86.115,117.342z"/>
				</g>
			</g>
			<g>
				<g>
					<path style="&st0;" d="M86.569,121.672c-0.001,0.463-0.016,0.906-0.208,1.337c-0.146,0.327,0.337,0.613,0.485,0.283
						c0.236-0.528,0.283-1.046,0.285-1.62C87.131,121.31,86.57,121.31,86.569,121.672L86.569,121.672z"/>
				</g>
			</g>
		</g>
	</g>
	<g>
		<g>
			<g>
				<path style="&st0;" d="M58.726,78.249c-2.006-2.901-7.748-11.884-12.419-8.097c-2.347,1.903-4.069,5.74-4.278,8.722
					c-0.122,1.749,0.046,3.478,0.158,5.224c0.091,1.412,0.027,2.715-0.286,4.11c-2.458-0.034-4.916-0.067-7.373-0.101
					c-0.624-1.058-1.022-2.188-1.193-3.391c-0.188-0.885-1.54-0.509-1.353,0.373c1.151,5.419,8.324,10.789,11.272,3.491
					c1.476-3.653-0.325-8.108,0.797-11.964c1.164-3.996,3.881-7.45,7.957-4.267c2.246,1.755,3.905,4.292,5.506,6.607
					C58.025,79.696,59.242,78.996,58.726,78.249L58.726,78.249z"/>
			</g>
		</g>
		<g>
			<g>
				<path style="&st0;" d="M31.957,84.378c-0.496,5.852-0.28,11.722-0.262,17.587c0.003,0.905,1.406,0.905,1.403,0
					C33.081,96.1,32.865,90.23,33.36,84.378C33.437,83.476,32.033,83.483,31.957,84.378L31.957,84.378z"/>
			</g>
		</g>
		<g>
			<g>
				<path style="&st0;" d="M33.002,102.056c0.927-1.315,2.213-1.569,3.67-0.99c0.842,0.334,1.203-1.023,0.373-1.353
					c-2.075-0.825-3.987-0.163-5.255,1.635C31.268,102.09,32.485,102.79,33.002,102.056L33.002,102.056z"/>
			</g>
		</g>
		<g>
			<g>
				<path style="&st0;" d="M35.98,100.733c1.46,1.109,2.905,2.433,3.948,3.948c0.509,0.74,1.726,0.039,1.212-0.708
					c-1.19-1.729-2.787-3.187-4.451-4.451C35.967,98.974,35.269,100.193,35.98,100.733L35.98,100.733z"/>
			</g>
		</g>
		<g>
			<g>
				<path style="&st0;" d="M40.767,103.511c1.914-2.331,3.02-5.119,3.355-8.108c0.101-0.898-1.304-0.889-1.403,0
					c-0.29,2.586-1.288,5.099-2.944,7.116C39.206,103.212,40.193,104.211,40.767,103.511L40.767,103.511z"/>
			</g>
		</g>
		<g>
			<g>
				<path style="&st0;" d="M43.683,96.892c1.244,0.03,2.469,0.414,3.583,0.954c0.81,0.393,1.522-0.817,0.708-1.212
					c-1.343-0.651-2.79-1.109-4.291-1.146C42.778,95.467,42.78,96.87,43.683,96.892L43.683,96.892z"/>
			</g>
		</g>
		<g>
			<g>
				<path style="&st0;" d="M46.925,97.583c1.74-1.153,2.628-3.421,2.947-5.407c0.142-0.885-1.209-1.264-1.353-0.373
					c-0.256,1.59-0.885,3.629-2.302,4.568C45.466,96.869,46.168,98.085,46.925,97.583L46.925,97.583z"/>
			</g>
		</g>
		<g>
			<g>
				<path style="&st0;" d="M49.534,92.929c1.223,0.261,2.386,0.69,3.507,1.242c0.809,0.398,1.52-0.812,0.708-1.212
					c-1.228-0.603-2.502-1.098-3.842-1.383C49.025,91.388,48.649,92.741,49.534,92.929L49.534,92.929z"/>
			</g>
		</g>
		<g>
			<g>
				<path style="&st0;" d="M46.471,78.88c0.156-1.092,0.348-2.371,1.16-3.189c0.967-0.974,2.522,0.219,3.298,0.849
					c0.278,0.226,0.678-0.169,0.397-0.397c-0.9-0.729-2.289-1.78-3.527-1.219c-1.375,0.623-1.681,2.487-1.87,3.806
					C45.879,79.084,46.42,79.237,46.471,78.88L46.471,78.88z"/>
			</g>
		</g>
		<g>
			<g>
				<path style="&st0;" d="M35.365,95.945c0.463,0.679,1.015,1.292,1.478,1.971c0.203,0.297,0.689,0.017,0.485-0.283
					c-0.463-0.679-1.015-1.292-1.478-1.971C35.647,95.365,35.16,95.646,35.365,95.945L35.365,95.945z"/>
			</g>
		</g>
		<g>
			<g>
				<path style="&st0;" d="M36.394,97.727c0.818,0.803,1.746,1.49,2.767,2.015c0.321,0.165,0.605-0.319,0.283-0.485
					c-0.981-0.504-1.867-1.155-2.653-1.927C36.533,97.076,36.136,97.473,36.394,97.727L36.394,97.727z"/>
			</g>
		</g>
		<g>
			<g>
				<path style="&st0;" d="M33.987,96.293c1.571,1.052,3.11,2.151,4.681,3.203c0.302,0.202,0.582-0.284,0.283-0.485
					c-1.571-1.052-3.11-2.151-4.681-3.203C33.969,95.606,33.688,96.092,33.987,96.293L33.987,96.293z"/>
			</g>
		</g>
		<g>
			<g>
				<path style="&st0;" d="M33.315,97.799c2.127,0.527,4.266,1.003,6.405,1.478c0.353,0.078,0.502-0.463,0.149-0.541
					c-2.139-0.475-4.278-0.951-6.405-1.478C33.113,97.171,32.964,97.712,33.315,97.799L33.315,97.799z"/>
			</g>
		</g>
		<g>
			<g>
				<path style="&st0;" d="M35.749,99.495c1.112-0.654,2.294-1.155,3.449-1.725c0.325-0.16,0.04-0.644-0.283-0.485
					c-1.155,0.569-2.337,1.071-3.449,1.725C35.154,99.194,35.436,99.679,35.749,99.495L35.749,99.495z"/>
			</g>
		</g>
		<g>
			<g>
				<path style="&st0;" d="M39.255,101.422c0.775-0.8,1.329-1.77,2.217-2.464c-0.132-0.132-0.265-0.265-0.397-0.397
					c-0.581,0.603-1.021,1.307-1.304,2.095c-0.05,0.141,0.055,0.312,0.196,0.345c0.378,0.09,0.664-0.076,0.904-0.361
					c0.176-0.209,0.491-0.949,0.82-0.87c0.352,0.084,0.501-0.457,0.149-0.541c-0.378-0.09-0.664,0.076-0.904,0.361
					c-0.176,0.209-0.491,0.949-0.82,0.87c0.065,0.115,0.131,0.23,0.196,0.345c0.249-0.696,0.648-1.316,1.16-1.847
					c0.258-0.268-0.119-0.614-0.397-0.397c-0.888,0.694-1.442,1.663-2.217,2.464C38.606,101.285,39.002,101.683,39.255,101.422
					L39.255,101.422z"/>
			</g>
		</g>
		<g>
			<g>
				<path style="&st0;" d="M50.108,86.196c-0.018,2.309-0.24,4.605-0.493,6.898c-0.04,0.359,0.522,0.356,0.561,0
					c0.252-2.293,0.475-4.589,0.493-6.898C50.672,85.834,50.111,85.834,50.108,86.196L50.108,86.196z"/>
			</g>
		</g>
		<g>
			<g>
				<path style="&st0;" d="M52.572,83.24c-0.018,2.79-0.284,5.547-0.729,8.302c-0.057,0.354,0.484,0.506,0.541,0.149
					c0.453-2.802,0.731-5.611,0.749-8.451C53.135,82.877,52.574,82.878,52.572,83.24L52.572,83.24z"/>
			</g>
		</g>
		<g>
			<g>
				<path style="&st0;" d="M51.941,91.394c1.159-0.247,2.221-0.721,3.08-1.55c0.261-0.252-0.137-0.648-0.397-0.397
					c-0.792,0.764-1.766,1.179-2.832,1.406C51.438,90.928,51.589,91.469,51.941,91.394L51.941,91.394z"/>
			</g>
		</g>
	</g>
	<g>
		<g>
			<path style="&st0;" d="M54.326,86.584c0.487-0.806,1.016-1.496,1.681-2.16c0.256-0.256-0.141-0.653-0.397-0.397
				c-0.698,0.699-1.257,1.427-1.768,2.274C53.654,86.611,54.14,86.893,54.326,86.584L54.326,86.584z"/>
		</g>
	</g>
	<g>
		<g>
			<g>
				<path style="&st0;" d="M100.09,84.349c3.183-3.119,5.809-2.287,8.234,1.049c1.605,2.207,2.751,4.711,4.313,6.946
					c0.514,0.736,1.731,0.035,1.212-0.708c-3.59-5.136-7.559-15.325-14.751-8.279C98.45,83.991,99.443,84.983,100.09,84.349
					L100.09,84.349z"/>
			</g>
		</g>
		<g>
			<g>
				<path style="&st0;" d="M112.193,91.642c3.701-0.435,4.539-4.695,5.124-7.73c0.369-1.912,0.591-3.887,1.271-5.722
					c0.912-2.461,3.022-0.24,4.134,0.91c0.63,0.651,1.621-0.342,0.992-0.992c-2.569-2.656-5.483-3.665-6.754,0.532
					c-0.879,2.903-0.69,11.12-4.766,11.599C111.306,90.343,111.295,91.747,112.193,91.642L112.193,91.642z"/>
			</g>
		</g>
		<g>
			<g>
				<path style="&st0;" d="M123.328,79.729c-1.943,9.295-1.943,19.322,0.787,28.459c0.258,0.865,1.613,0.496,1.353-0.373
					c-2.653-8.877-2.676-18.679-0.787-27.713C124.866,79.219,123.513,78.844,123.328,79.729L123.328,79.729z"/>
			</g>
		</g>
		<g>
			<g>
				<path style="&st0;" d="M102.481,98.467c3.606-0.464,6.259,0.905,8.43,3.777c0.797,1.054,0.735,1.23,1.699,1.965
					c0.21,0.16,0.493,0.092,0.708,0c2.249-0.96,4.37-2.165,6.578-3.213c0.508-0.241,0.401-0.944,0-1.212
					c-0.262-0.175-0.525-0.35-0.787-0.525c-0.57-0.38-1.369,0.386-0.96,0.96c1.785,2.502,3.631,4.862,5.884,6.967
					c0.66,0.617,1.655-0.373,0.992-0.992c-2.163-2.02-3.945-4.272-5.665-6.683c-0.32,0.32-0.64,0.64-0.96,0.96
					c0.262,0.175,0.525,0.35,0.787,0.525c0-0.404,0-0.808,0-1.212c-1.814,0.861-3.571,1.831-5.38,2.702
					c-1.288,0.619-2.496-2.035-3.399-2.986c-2.06-2.169-5.082-2.802-7.928-2.436C101.596,97.177,101.585,98.582,102.481,98.467
					L102.481,98.467z"/>
			</g>
		</g>
		<g>
			<g>
				<path style="&st0;" d="M101.953,85.727c2.563-1.078,4.4,0.364,5.321,2.76c0.128,0.334,0.671,0.189,0.541-0.149
					c-1.026-2.668-3.148-4.357-6.011-3.152C101.475,85.324,101.619,85.868,101.953,85.727L101.953,85.727z"/>
			</g>
		</g>
		<g>
			<g>
				<path style="&st0;" d="M103.114,84.12c0.533,0.84,0.799,1.818,1.232,2.71c0.158,0.326,0.642,0.041,0.485-0.283
					c-0.433-0.892-0.699-1.869-1.232-2.71C103.405,83.532,102.919,83.814,103.114,84.12L103.114,84.12z"/>
			</g>
		</g>
		<g>
			<g>
				<path style="&st0;" d="M105.577,84.613c0.576,0.839,1.298,1.557,2.015,2.274c0.256,0.256,0.653-0.141,0.397-0.397
					c-0.682-0.682-1.379-1.363-1.927-2.16C105.859,84.033,105.372,84.314,105.577,84.613L105.577,84.613z"/>
			</g>
		</g>
		<g>
			<g>
				<path style="&st0;" d="M109.761,89.433c0.362,0,0.362-0.561,0-0.561C109.4,88.872,109.4,89.433,109.761,89.433L109.761,89.433z"
					/>
			</g>
		</g>
		<g>
			<g>
				<path style="&st0;" d="M119.616,87.216c0.901-0.014,1.613-0.286,2.359-0.777c0.301-0.198,0.02-0.684-0.283-0.485
					c-0.664,0.437-1.271,0.689-2.076,0.701C119.254,86.66,119.254,87.221,119.616,87.216L119.616,87.216z"/>
			</g>
		</g>
		<g>
			<g>
				<path style="&st0;" d="M119.37,84.998c0.362,0,0.362-0.561,0-0.561C119.008,84.437,119.008,84.998,119.37,84.998L119.37,84.998z
					"/>
			</g>
		</g>
		<g>
			<g>
				<path style="&st0;" d="M120.882,79.79c0.028-0.287,0.222-0.579,0.411-0.787c0.242-0.268-0.154-0.666-0.397-0.397
					c-0.298,0.33-0.531,0.736-0.575,1.184C120.286,80.151,120.847,80.147,120.882,79.79L120.882,79.79z"/>
			</g>
		</g>
		<g>
			<g>
				<path style="&st0;" d="M120.823,80.209c-0.253,1.658-0.695,3.277-0.985,4.927c-0.062,0.354,0.479,0.505,0.541,0.149
					c0.29-1.651,0.732-3.269,0.985-4.927C121.419,80.004,120.878,79.852,120.823,80.209L120.823,80.209z"/>
			</g>
		</g>
	</g>
	<g>
		<g>
			<path style="&st0;" d="M69.827,64.098c0.109,0.784,0.341,1.636,1.062,2.069c0.641,0.385,1.446,0.118,2.06-0.177
				c0.326-0.157,0.041-0.641-0.283-0.485c-0.49,0.236-1.069,0.432-1.573,0.129c-0.53-0.318-0.649-1.137-0.725-1.686
				C70.319,63.592,69.778,63.744,69.827,64.098L69.827,64.098z"/>
		</g>
	</g>
	<g>
		<g>
			<path style="&st0;" d="M70.418,65.526c0.648-0.204,1.323-0.288,1.971-0.493c0.344-0.108,0.197-0.65-0.149-0.541
				c-0.648,0.204-1.323,0.288-1.971,0.493C69.925,65.093,70.072,65.635,70.418,65.526L70.418,65.526z"/>
		</g>
	</g>
	<g>
		<g>
			<path style="&st0;" d="M70.486,63.527c0.427-0.213,0.852-0.428,1.337-0.454c0.36-0.019,0.362-0.581,0-0.561
				c-0.59,0.032-1.099,0.272-1.62,0.531C69.878,63.203,70.163,63.687,70.486,63.527L70.486,63.527z"/>
		</g>
	</g>
	<g>
		<g>
			<path style="&st0;" d="M70.486,65.498c0.493-0.246,0.985-0.493,1.478-0.739c0.324-0.162,0.039-0.646-0.283-0.485
				c-0.493,0.246-0.985,0.493-1.478,0.739C69.879,65.175,70.163,65.659,70.486,65.498L70.486,65.498z"/>
		</g>
	</g>
	<g>
		<g>
			<path style="&st0;" d="M70.172,67.004c1.398-0.236,2.79-0.503,4.188-0.739c0.356-0.06,0.205-0.601-0.149-0.541
				c-1.398,0.236-2.79,0.503-4.188,0.739C69.667,66.523,69.818,67.064,70.172,67.004L70.172,67.004z"/>
		</g>
	</g>
	<g>
		<g>
			<path style="&st0;" d="M71.329,65.536c2.608-0.206,5.107,0.042,7.563,0.975c0.339,0.129,0.484-0.414,0.149-0.541
				c-2.506-0.953-5.049-1.206-7.712-0.995C70.971,65.003,70.968,65.564,71.329,65.536L71.329,65.536z"/>
		</g>
	</g>
	<g>
		<g>
			<g>
				<path style="&st0;" d="M46.666,126.9c-0.807,3.208-0.807,6.506,0,9.713c0.311,1.238,2.221,0.712,1.909-0.526
					c-0.722-2.868-0.722-5.793,0-8.661C48.887,126.188,46.978,125.663,46.666,126.9L46.666,126.9z"/>
			</g>
		</g>
		<g>
			<g>
				<path style="&st0;" d="M46.921,137.051c7.042,8.691,23.239,8.545,33.216,8.066c10.093-0.484,26.638-2.482,31.599-12.991
					c0.542-1.148-1.165-2.153-1.71-0.999c-4.65,9.851-20.499,11.44-29.889,12.011c-9.428,0.573-25.182,0.701-31.816-7.486
					C47.517,134.658,46.125,136.068,46.921,137.051L46.921,137.051z"/>
			</g>
		</g>
		<g>
			<g>
				<path style="&st0;" d="M105.718,125.501c2.097,1.958,3.302,4.546,3.122,7.437c-0.079,1.276,1.901,1.268,1.98,0
					c0.21-3.377-1.255-6.552-3.702-8.837C106.186,123.231,104.783,124.628,105.718,125.501L105.718,125.501z"/>
			</g>
		</g>
		<g>
			<g>
				<path style="&st0;" d="M58.741,145.014c0.59,1.624,1.661,4.269,3.763,4.269c2.386,0,2.749-3.664,2.907-5.32
					c0.121-1.271-1.86-1.259-1.98,0c-0.086,0.901-0.23,1.787-0.535,2.642c-0.069,0.195-0.181,0.412-0.313,0.571
					c-0.149,0.178-0.096,0.127-0.183,0.127c-0.061,0-0.49-0.4-0.655-0.623c-0.488-0.657-0.817-1.429-1.095-2.193
					C60.218,143.297,58.304,143.81,58.741,145.014L58.741,145.014z"/>
			</g>
		</g>
		<g>
			<g>
				<path style="&st0;" d="M91.651,144.463c0.134,0.309,0.32,1.032,0.541,1.472c0.454,0.907,1.306,1.563,2.177,2.033
					c0.506,0.273,1.036,0.097,1.354-0.355c0.595-0.846,0.953-1.712,1.003-2.75c0.048-1-0.317-1.998-0.343-2.999
					c-0.032-1.274-2.012-1.278-1.98,0c0.019,0.765,0.146,1.51,0.279,2.262c0.173,0.979-0.105,1.687-0.669,2.489
					c0.451-0.118,0.903-0.237,1.354-0.355c-1.307-0.706-1.473-1.563-2.007-2.795C92.854,142.294,91.149,143.304,91.651,144.463
					L91.651,144.463z"/>
			</g>
		</g>
		<g>
			<g>
				<path style="&st0;" d="M52.572,133.004c-0.11,1.229-0.222,2.462-0.246,3.695c-0.003,0.131,0.089,0.229,0.206,0.271
					c3.524,1.252,7.07,2.443,10.593,3.695c0.342,0.122,0.488-0.421,0.149-0.541c-2.776-0.987-5.565-1.936-8.347-2.904
					c-0.224-0.078-2.04-0.53-2.033-0.864c0.009-0.461,0.049-0.923,0.08-1.384c0.045-0.657,0.101-1.313,0.16-1.969
					C53.165,132.644,52.604,132.647,52.572,133.004L52.572,133.004z"/>
			</g>
		</g>
		<g>
			<g>
				<path style="&st0;" d="M49.458,128.658c9.323,3.458,18.836,5.872,28.833,5.728c9.934-0.144,19.423-3.583,28.102-8.19
					c1.128-0.599,0.128-2.308-0.999-1.71c-9.021,4.788-18.397,7.794-28.661,7.942c-9.191,0.133-18.216-2.514-26.749-5.679
					C48.784,126.304,48.271,128.218,49.458,128.658L49.458,128.658z"/>
			</g>
		</g>
	</g>
	<g>
		<g>
			<path style="&st0;" d="M49.671,135.007c0.526-0.508,1.089-0.919,1.513-1.526c0.208-0.297-0.279-0.578-0.485-0.283
				c-0.394,0.564-0.937,0.94-1.425,1.412C49.014,134.862,49.411,135.259,49.671,135.007L49.671,135.007z"/>
		</g>
	</g>
	<g>
		<g>
			<path style="&st0;" d="M49.181,130.844c0.462-0.442,1.007-0.782,1.469-1.224c0.262-0.251-0.136-0.647-0.397-0.397
				c-0.462,0.442-1.007,0.782-1.469,1.224C48.523,130.698,48.92,131.094,49.181,130.844L49.181,130.844z"/>
		</g>
	</g>
	<g>
		<g>
			<path style="&st0;" d="M49.058,127.978c1.447-0.505,2.758-1.131,4.333-0.969c-0.025-0.184-0.05-0.367-0.075-0.551
				c-1.868,0.451-3.777,0.717-5.632,1.224c0.072,0.171,0.144,0.342,0.216,0.513c1.1-0.767,2.368-1.198,3.606-1.686
				c0.211-0.083,0.299-0.385,0.067-0.513c-0.592-0.325-2.737-0.043-3.078,0.59c-0.126,0.234,0.138,0.549,0.384,0.384
				c0.897-0.602,1.846-0.719,2.871-0.951c0.31-0.07,0.241-0.56-0.075-0.551c-1.689,0.05-2.717,0.889-3.872,2.041
				c-0.256,0.256,0.14,0.653,0.397,0.397c1.036-1.033,1.94-1.832,3.475-1.877c-0.025-0.184-0.05-0.367-0.075-0.551
				c-1.073,0.243-2.075,0.383-3.006,1.008c0.128,0.128,0.256,0.256,0.384,0.384c0.16-0.298,2.022-0.547,2.31-0.389
				c0.022-0.171,0.045-0.342,0.067-0.513c-1.281,0.505-2.602,0.948-3.74,1.742c-0.253,0.177-0.105,0.601,0.216,0.513
				c1.855-0.507,3.764-0.773,5.632-1.224c0.329-0.079,0.223-0.521-0.075-0.551c-1.628-0.167-2.98,0.466-4.482,0.99
				C48.569,127.555,48.715,128.097,49.058,127.978L49.058,127.978z"/>
		</g>
	</g>
	<g>
		<g>
			<path style="&st0;" d="M48.957,131.7c0.556,2.772,2.377,4.786,5.093,5.583c0.348,0.102,0.496-0.439,0.149-0.541
				c-2.539-0.745-4.183-2.609-4.701-5.191C49.427,131.196,48.886,131.347,48.957,131.7L48.957,131.7z"/>
		</g>
	</g>
	<g>
		<g>
			<path style="&st0;" d="M50.037,138.018c1.128-0.407,2.208-1.201,3.062-2.031c0.26-0.253-0.137-0.649-0.397-0.397
				c-0.778,0.757-1.783,1.515-2.815,1.887C49.55,137.598,49.696,138.141,50.037,138.018L50.037,138.018z"/>
		</g>
	</g>
	<g>
		<g>
			<path style="&st0;" d="M51.573,139.704c1.216-0.75,2.235-1.732,3.24-2.737c0.256-0.256-0.141-0.653-0.397-0.397
				c-0.972,0.971-1.951,1.925-3.127,2.65C50.983,139.408,51.264,139.894,51.573,139.704L51.573,139.704z"/>
		</g>
	</g>
	<g>
		<g>
			<path style="&st0;" d="M54.814,139.66c0.653-0.653,1.306-1.306,1.959-1.959c0.256-0.256-0.141-0.653-0.397-0.397
				c-0.653,0.653-1.306,1.306-1.959,1.959C54.161,139.519,54.557,139.916,54.814,139.66L54.814,139.66z"/>
		</g>
	</g>
	<g>
		<g>
			<path style="&st0;" d="M57.752,141.374c0.181-0.179,0.346-0.376,0.611-0.418c0.357-0.056,0.205-0.597-0.149-0.541
				c-0.358,0.056-0.61,0.316-0.858,0.562C57.098,141.232,57.495,141.629,57.752,141.374L57.752,141.374z"/>
		</g>
	</g>
	<g>
		<g>
			<path style="&st0;" d="M60.812,141.446c1.121-0.307,2.072-1.06,2.616-2.088c0.169-0.32-0.315-0.603-0.485-0.283
				c-0.479,0.904-1.293,1.56-2.281,1.83C60.314,141,60.462,141.542,60.812,141.446L60.812,141.446z"/>
		</g>
	</g>
	<g>
		<g>
			<path style="&st0;" d="M51.233,135.252c4.058,3.873,9.348,6.32,14.816,7.418c0.353,0.071,0.504-0.47,0.149-0.541
				c-5.377-1.08-10.577-3.464-14.569-7.274C51.369,134.605,50.971,135.002,51.233,135.252L51.233,135.252z"/>
		</g>
	</g>
	<g>
		<g>
			<path style="&st0;" d="M49.576,136.03c3.889,2.472,8.285,3.632,12.875,3.711c0.362,0.006,0.362-0.555,0-0.561
				c-4.5-0.078-8.779-1.212-12.592-3.635C49.553,135.351,49.272,135.837,49.576,136.03L49.576,136.03z"/>
		</g>
	</g>
	<g>
		<g>
			<path style="&st0;" d="M51.63,137.456c1.481-1.455,3.155-2.67,4.841-3.874c0.292-0.208,0.012-0.696-0.283-0.485
				c-1.724,1.232-3.439,2.474-4.954,3.962C50.975,137.313,51.372,137.709,51.63,137.456L51.63,137.456z"/>
		</g>
	</g>
	<g>
		<g>
			<path style="&st0;" d="M51.432,134.355c1.954-0.226,3.923-0.263,5.877-0.49c0.355-0.041,0.359-0.603,0-0.561
				c-1.954,0.226-3.923,0.263-5.877,0.49C51.077,133.835,51.073,134.396,51.432,134.355L51.432,134.355z"/>
		</g>
	</g>
	<g>
		<g>
			<path style="&st0;" d="M50.556,132.847c1.563,1.1,3.239,1.996,4.897,2.938c0.315,0.179,0.598-0.306,0.283-0.485
				c-1.659-0.942-3.335-1.839-4.897-2.938C50.542,132.154,50.262,132.641,50.556,132.847L50.556,132.847z"/>
		</g>
	</g>
	<g>
		<g>
			<path style="&st0;" d="M53.739,138.724c3.248,1.456,6.634,2.449,10.107,3.212c0.353,0.077,0.503-0.464,0.149-0.541
				c-3.425-0.752-6.767-1.718-9.973-3.155C53.695,138.093,53.409,138.576,53.739,138.724L53.739,138.724z"/>
		</g>
	</g>
	<g>
		<g>
			<path style="&st0;" d="M61.642,141.936c3.727,0.959,7.503,1.466,11.339,1.724c0.361,0.024,0.359-0.537,0-0.561
				c-3.784-0.255-7.514-0.759-11.19-1.704C61.44,141.304,61.292,141.846,61.642,141.936L61.642,141.936z"/>
		</g>
	</g>
	<g>
		<g>
			<path style="&st0;" d="M62.866,141.446c5.256,1.824,11.468,1.929,16.971,1.969c0.362,0.003,0.362-0.559,0-0.561
				c-5.483-0.039-11.599-0.137-16.822-1.949C62.673,140.786,62.527,141.328,62.866,141.446L62.866,141.446z"/>
		</g>
	</g>
	<g>
		<g>
			<path style="&st0;" d="M58.778,115.01c0.362,0,0.362-0.561,0-0.561S58.416,115.01,58.778,115.01L58.778,115.01z"/>
		</g>
	</g>
	<g>
		<g>
			<path style="&st0;" d="M58.536,114.587c-0.842,1.453-1.18,2.974-0.763,4.624c0.089,0.351,0.63,0.202,0.541-0.149
				c-0.381-1.507-0.061-2.867,0.706-4.191C59.202,114.557,58.717,114.274,58.536,114.587L58.536,114.587z"/>
		</g>
	</g>
</g>
</svg>
