<?xml version="1.0" encoding="utf-8"?>
<!-- Generator: Adobe Illustrator 17.0.0, SVG Export Plug-In . SVG Version: 6.00 Build 0)  -->
<!DOCTYPE svg PUBLIC "-//W3C//DTD SVG 1.1//EN" "http://www.w3.org/Graphics/SVG/1.1/DTD/svg11.dtd" [
	<!ENTITY st0 "fill:#3D3D3D;">
]>
<svg version="1.1" id="Calque_1" xmlns="http://www.w3.org/2000/svg" xmlns:xlink="http://www.w3.org/1999/xlink" x="0px" y="0px"
	 width="166px" height="167px" viewBox="0 0 166 167" style="enable-background:new 0 0 166 167;" xml:space="preserve">
<g>
	<g>
		<g>
			<g>
				<path style="&st0;" d="M102.739,76.419c11.075-10.522,17.085,6.161,22.546,13.758c0.738,1.026,2.455,0.04,1.709-0.999
					c-6.382-8.879-13.177-26.013-25.654-14.159C100.413,75.9,101.814,77.297,102.739,76.419L102.739,76.419z"/>
			</g>
		</g>
		<g>
			<g>
				<path style="&st0;" d="M124.285,88.866c6.305-0.721,7.78-7.932,8.807-13.104c0.658-3.314,0.987-6.868,2.324-10.001
					c1.8-4.218,5.611-0.381,7.635,1.652c0.901,0.905,2.3-0.494,1.399-1.399c-4.382-4.401-9.298-6.27-11.509,0.818
					c-1.64,5.26-1.264,19.21-8.656,20.055C123.032,87.03,123.018,89.011,124.285,88.866L124.285,88.866z"/>
			</g>
		</g>
		<g>
			<g>
				<path style="&st0;" d="M144.186,68.702c-3.494,15.734-3.509,33.265,1.39,48.706c0.384,1.212,2.295,0.694,1.908-0.526
					c-4.785-15.08-4.805-32.278-1.39-47.654C146.371,67.985,144.463,67.457,144.186,68.702L144.186,68.702z"/>
			</g>
		</g>
		<g>
			<g>
				<path style="&st0;" d="M102.704,99.835c4.361-0.653,8.645,0.477,12.601,2.271c3.752,1.702,5.526,4.429,8.28,7.183
					c3.359,3.359,10.797-2.811,14.176-4.348c0.718-0.327,0.566-1.342,0-1.709c-0.463-0.3-0.927-0.6-1.39-0.901
					c-0.802-0.519-1.946,0.542-1.354,1.354c3.121,4.279,6.379,8.378,10.351,11.907c0.95,0.844,2.355-0.55,1.399-1.399
					c-3.851-3.422-7.01-7.351-10.041-11.507c-0.451,0.451-0.903,0.903-1.354,1.354c0.463,0.3,0.927,0.6,1.39,0.901
					c0-0.57,0-1.139,0-1.709c-1.156,0.526-10.13,5.872-10.969,5.25c-2.226-1.649-3.712-4.338-6.048-6.078
					c-4.855-3.617-11.602-5.37-17.567-4.478C100.919,98.115,101.456,100.022,102.704,99.835L102.704,99.835z"/>
			</g>
		</g>
		<g>
			<g>
				<path style="&st0;" d="M106.202,78.941c4.458-1.822,7.745,0.536,9.404,4.73c0.229,0.579,1.174,0.327,0.942-0.26
					c-1.846-4.664-5.619-7.451-10.605-5.412C105.368,78.234,105.619,79.18,106.202,78.941L106.202,78.941z"/>
			</g>
		</g>
		<g>
			<g>
				<path style="&st0;" d="M108.261,76.181c0.938,1.437,1.411,3.12,2.175,4.649c0.281,0.564,1.124,0.069,0.843-0.493
					c-0.763-1.528-1.237-3.211-2.175-4.649C108.762,75.163,107.915,75.652,108.261,76.181L108.261,76.181z"/>
			</g>
		</g>
		<g>
			<g>
				<path style="&st0;" d="M112.611,77.026c1.019,1.445,2.293,2.674,3.556,3.902c0.452,0.439,1.143-0.251,0.691-0.691
					c-1.201-1.167-2.435-2.331-3.403-3.705C113.094,76.023,112.247,76.51,112.611,77.026L112.611,77.026z"/>
			</g>
		</g>
		<g>
			<g>
				<path style="&st0;" d="M119.992,85.298c0.63,0,0.63-0.977,0-0.977S119.362,85.298,119.992,85.298L119.992,85.298z"/>
			</g>
		</g>
		<g>
			<g>
				<path style="&st0;" d="M137.391,81.494c1.579-0.021,2.843-0.489,4.161-1.335c0.528-0.339,0.039-1.185-0.493-0.843
					c-1.175,0.754-2.256,1.183-3.668,1.201C136.762,80.526,136.761,81.503,137.391,81.494L137.391,81.494z"/>
			</g>
		</g>
		<g>
			<g>
				<path style="&st0;" d="M136.956,77.691c0.63,0,0.63-0.977,0-0.977C136.326,76.714,136.326,77.691,136.956,77.691L136.956,77.691
					z"/>
			</g>
		</g>
		<g>
			<g>
				<path style="&st0;" d="M139.62,68.75c0.03-0.483,0.403-1.01,0.727-1.345c0.438-0.453-0.252-1.144-0.691-0.691
					c-0.516,0.534-0.965,1.28-1.013,2.036C138.603,69.379,139.58,69.376,139.62,68.75L139.62,68.75z"/>
			</g>
		</g>
		<g>
			<g>
				<path style="&st0;" d="M139.53,69.466c-0.447,2.846-1.227,5.62-1.74,8.452c-0.112,0.616,0.83,0.879,0.942,0.26
					c0.513-2.832,1.293-5.607,1.74-8.452C140.569,69.109,139.628,68.845,139.53,69.466L139.53,69.466z"/>
			</g>
		</g>
	</g>
	<g>
		<g>
			<g>
				<path style="&st0;" d="M25.495,104.986c12.749-0.584,25.453-0.142,38.203-0.059c12.664,0.082,25.157-1.289,37.597-3.606
					c0.452-0.084,0.695-0.54,0.727-0.955c0.57-7.389,0.683-15.488,0.349-22.922c-0.191-4.246-2.121-6.977-6.31-7.952
					c-3.488-0.811-7.31-0.494-10.843-0.397c-6.524,0.181-13.034,0.824-19.524,1.48c-13.541,1.369-27.052,3.048-40.685,3.04
					c-0.545,0-0.983,0.451-0.99,0.99c-0.137,9.956,0.134,19.906,0.433,29.857c0.039,1.304,1.84,1.242,1.98,0
					c0.017-0.156,0.035-0.312,0.052-0.467c0.142-1.268-1.839-1.254-1.98,0c-0.017,0.156-0.035,0.312-0.052,0.467
					c0.66,0,1.32,0,1.98,0c-0.16-5.314-0.311-10.628-0.409-15.944c-0.049-2.652-0.065-5.305-0.072-7.957
					c-0.011-4.498,0.054-4.926,4.553-5.027c10.542-0.235,21.05-1.488,31.526-2.598c9.741-1.032,19.537-2.058,29.346-1.928
					c5.419,0.072,8.789,1.418,9.047,7.167c0.288,6.416-0.499,12.881-0.341,19.314c0.071,2.878-0.301,2.111-3.081,2.608
					c-2.317,0.414-4.644,0.768-6.973,1.11c-4.859,0.713-9.753,1.17-14.654,1.465c-16.598,0.998-33.259-0.428-49.881,0.332
					C24.224,103.065,24.218,105.045,25.495,104.986z"/>
			</g>
		</g>
		<g>
			<g>
				<path style="&st0;" d="M41.034,79.245c-5.074,1.607-9.287,6.693-7.12,12.165c2.258,5.702,10.888,5.978,15.442,3.314
					c4.057-2.373,5.076-7.751,2.908-11.719c-3.002-5.495-10.013-4.164-14.6-1.847c-0.379,0.191-0.046,0.758,0.332,0.568
					c4.362-2.203,10.217-3.381,13.468,1.236c2.271,3.226,1.436,7.71-1.299,10.335c-3.896,3.738-12.056,3.203-15.159-1.231
					c-3.483-4.976,1.549-10.714,6.204-12.189C41.611,79.752,41.439,79.117,41.034,79.245L41.034,79.245z"/>
			</g>
		</g>
		<g>
			<g>
				<path style="&st0;" d="M78.916,79.245c-5.074,1.607-9.287,6.693-7.12,12.165c2.258,5.702,10.888,5.978,15.442,3.314
					c4.057-2.373,5.076-7.751,2.908-11.719c-3.002-5.495-10.013-4.164-14.6-1.847c-0.379,0.191-0.046,0.758,0.332,0.568
					c4.362-2.203,10.217-3.381,13.468,1.236c2.271,3.226,1.436,7.71-1.299,10.335c-3.896,3.738-12.056,3.203-15.159-1.231
					c-3.483-4.976,1.549-10.714,6.204-12.189C79.494,79.752,79.322,79.117,78.916,79.245L78.916,79.245z"/>
			</g>
		</g>
		<g>
			<g>
				<path style="&st0;" d="M27.157,84.735c0.001,5.649,0.036,11.292,0.47,16.927c0.032,0.42,0.69,0.423,0.657,0
					c-0.434-5.636-0.469-11.278-0.47-16.927C27.814,84.311,27.157,84.311,27.157,84.735L27.157,84.735z"/>
			</g>
		</g>
		<g>
			<g>
				<path style="&st0;" d="M31.433,76.105c-1.941,2.94-3.702,5.994-5.642,8.934c-0.234,0.355,0.335,0.684,0.568,0.332
					c1.941-2.94,3.702-5.994,5.642-8.934C32.235,76.082,31.666,75.753,31.433,76.105L31.433,76.105z"/>
			</g>
		</g>
		<g>
			<g>
				<path style="&st0;" d="M30.963,80.337c-1.467,2.877-3.235,5.587-4.702,8.464c-0.192,0.377,0.375,0.71,0.568,0.332
					c1.467-2.877,3.235-5.587,4.702-8.464C31.723,80.292,31.156,79.959,30.963,80.337L30.963,80.337z"/>
			</g>
		</g>
		<g>
			<g>
				<path style="&st0;" d="M27.672,80.669c1.523,1.997,3.293,3.767,5.29,5.29c0.337,0.257,0.664-0.314,0.332-0.568
					c-1.901-1.449-3.605-3.154-5.054-5.054C27.986,80.004,27.415,80.331,27.672,80.669L27.672,80.669z"/>
			</g>
		</g>
		<g>
			<g>
				<path style="&st0;" d="M28.612,84.43c0.47,0.94,0.94,1.881,1.411,2.821c0.19,0.379,0.757,0.046,0.568-0.332
					c-0.47-0.94-0.94-1.881-1.411-2.821C28.99,83.719,28.423,84.052,28.612,84.43L28.612,84.43z"/>
			</g>
		</g>
		<g>
			<g>
				<path style="&st0;" d="M30.544,92.49c0.662,0.693,1.165,1.546,1.655,2.364c0.344,0.574,0.997,1.419,1.07,2.106
					c0.044,0.417,0.702,0.421,0.657,0c-0.083-0.781-0.666-1.585-1.046-2.244c-0.54-0.934-1.122-1.906-1.871-2.69
					C30.716,91.718,30.251,92.184,30.544,92.49L30.544,92.49z"/>
			</g>
		</g>
		<g>
			<g>
				<path style="&st0;" d="M27.299,99.006c1.433-2.18,2.682-4.479,4.232-6.583c0.252-0.342-0.319-0.669-0.568-0.332
					c-1.55,2.104-2.798,4.403-4.232,6.583C26.498,99.03,27.067,99.359,27.299,99.006L27.299,99.006z"/>
			</g>
		</g>
		<g>
			<g>
				<path style="&st0;" d="M27.299,95.245c1.067-2.169,1.957-4.419,2.854-6.661c0.158-0.394-0.478-0.563-0.634-0.175
					c-0.876,2.19-1.746,4.386-2.788,6.504C26.545,95.292,27.112,95.625,27.299,95.245L27.299,95.245z"/>
			</g>
		</g>
		<g>
			<g>
				<path style="&st0;" d="M38.067,82.151c-4.369,4.161-4.726,9.132,0,13.16c0.321,0.273,0.788-0.189,0.465-0.465
					c-4.438-3.783-4.108-8.318,0-12.23C38.84,82.323,38.374,81.859,38.067,82.151L38.067,82.151z"/>
			</g>
		</g>
		<g>
			<g>
				<path style="&st0;" d="M36.605,83.158c-1.705,3.011-3.105,6.575-1.581,9.938c1.615,3.563,6.477,4.136,9.858,4.192
					c0.424,0.007,0.424-0.65,0-0.657c-3.273-0.054-7.064-0.521-9.059-3.453c-1.998-2.938-0.168-7.008,1.349-9.688
					C37.382,83.12,36.814,82.789,36.605,83.158L36.605,83.158z"/>
			</g>
		</g>
		<g>
			<g>
				<path style="&st0;" d="M38.067,81.681c-3.144,3.327-3.796,7.212-1.462,11.213c0.213,0.366,0.782,0.035,0.568-0.332
					c-2.177-3.731-1.574-7.313,1.359-10.416C38.823,81.838,38.359,81.372,38.067,81.681L38.067,81.681z"/>
			</g>
		</g>
		<g>
			<g>
				<path style="&st0;" d="M78.267,81.114c-5.547,0.731-7.074,5.863-5.959,10.76c0.094,0.413,0.728,0.238,0.634-0.175
					c-1.004-4.411,0.214-9.254,5.325-9.928C78.681,81.717,78.686,81.059,78.267,81.114L78.267,81.114z"/>
			</g>
		</g>
		<g>
			<g>
				<path style="&st0;" d="M78.649,81.126c-3.016,0.798-6.081,3.259-6.471,6.547c-0.548,4.618,3.638,7.213,7.412,8.663
					c0.396,0.152,0.566-0.484,0.175-0.634c-3.605-1.386-7.745-3.939-6.848-8.402c0.566-2.817,3.283-4.845,5.908-5.54
					C79.234,81.652,79.06,81.018,78.649,81.126L78.649,81.126z"/>
			</g>
		</g>
		<g>
			<g>
				<path style="&st0;" d="M79.041,79.749c-4.097,2.569-7.258,6.8-6.029,11.832c1.232,5.041,6.943,6.268,11.367,5.707
					c0.415-0.053,0.42-0.711,0-0.657c-4.42,0.56-9.191-0.53-10.733-5.225c-1.504-4.58,2.144-8.844,5.726-11.09
					C79.731,80.092,79.401,79.523,79.041,79.749L79.041,79.749z"/>
			</g>
		</g>
		<g>
			<g>
				<path style="&st0;" d="M80.235,96.806c2.942-0.558,5.648-1.852,8.464-2.821c-0.084-0.2-0.169-0.401-0.253-0.601
					c-2.064,1.195-4.294,1.923-6.504,2.788c0.084,0.2,0.169,0.401,0.253,0.601c2.639-1.803,5.001-3.974,6.701-6.701
					c0.225-0.361-0.344-0.691-0.568-0.332c-1.641,2.632-3.917,4.725-6.465,6.465c-0.289,0.197-0.114,0.744,0.253,0.601
					c2.266-0.887,4.545-1.629,6.661-2.854c0.317-0.183,0.105-0.724-0.253-0.601c-2.816,0.97-5.522,2.263-8.464,2.821
					C79.644,96.251,79.821,96.885,80.235,96.806L80.235,96.806z"/>
			</g>
		</g>
		<g>
			<g>
				<path style="&st0;" d="M88.797,89.271c-1.078,2.016-3.143,3.866-5.054,5.054c-0.359,0.223-0.029,0.792,0.332,0.568
					c2.018-1.255,4.154-3.164,5.29-5.29C89.565,89.229,88.997,88.897,88.797,89.271L88.797,89.271z"/>
			</g>
		</g>
		<g>
			<g>
				<path style="&st0;" d="M80.235,96.806c2.099-0.558,3.976-1.573,5.721-2.854c0.338-0.248,0.01-0.819-0.332-0.568
					c-1.699,1.248-3.517,2.244-5.564,2.788C79.651,96.281,79.825,96.915,80.235,96.806L80.235,96.806z"/>
			</g>
		</g>
	</g>
	<g>
		<g>
			<path style="&st0;" d="M39.396,103.824c-0.555,2.258-1.005,4.539-1.461,6.819c-0.249,1.247,1.659,1.778,1.909,0.526
				c0.456-2.279,0.906-4.561,1.461-6.818C41.61,103.111,39.701,102.585,39.396,103.824L39.396,103.824z"/>
		</g>
	</g>
	<g>
		<g>
			<path style="&st0;" d="M90.515,111.409c1.277,0,1.277-1.98,0-1.98S89.239,111.409,90.515,111.409L90.515,111.409z"/>
		</g>
	</g>
	<g>
		<g>
			<path style="&st0;" d="M38.403,111.896c1.277,0,1.277-1.98,0-1.98C37.126,109.916,37.126,111.896,38.403,111.896L38.403,111.896z
				"/>
		</g>
	</g>
	<g>
		<g>
			<path style="&st0;" d="M84.303,102.639c1.541,3.004,3.633,5.601,5.999,7.993c0.899,0.909,2.298-0.492,1.4-1.4
				c-2.255-2.279-4.221-4.731-5.69-7.592C85.43,100.503,83.721,101.505,84.303,102.639L84.303,102.639z"/>
		</g>
	</g>
	<g>
		<g>
			<path style="&st0;" d="M26.714,115.305c16.088-0.316,32.172-0.815,48.234-1.811c7.962-0.494,15.912-1.155,23.847-1.975
				c1.136-0.118,4.517-1.161,5.2,0.497c0.64,1.553,1.084,3.186,1.526,4.803c0.952,3.484,1.614,7.265,1.087,10.87
				c-0.182,1.248,1.725,1.786,1.909,0.526c0.911-6.232-0.884-13.148-3.509-18.783c-0.131-0.282-0.543-0.526-0.855-0.49
				c-25.702,2.969-51.587,3.875-77.439,4.383C25.439,113.35,25.436,115.33,26.714,115.305L26.714,115.305z"/>
		</g>
	</g>
	<g>
		<g>
			<path style="&st0;" d="M23.776,115.289c0.002,5.31,0.042,10.61,1.009,15.848c0.232,1.254,2.14,0.722,1.909-0.526
				c-0.935-5.061-0.937-10.193-0.939-15.322C25.755,114.012,23.775,114.012,23.776,115.289L23.776,115.289z"/>
		</g>
	</g>
	<g>
		<g>
			<path style="&st0;" d="M25.964,133.316c27.168,4.334,54.582-0.009,81.598-3.374c1.25-0.156,1.265-2.137,0-1.98
				c-26.806,3.338-54.111,7.746-81.072,3.445C25.241,131.207,24.705,133.115,25.964,133.316L25.964,133.316z"/>
		</g>
	</g>
	<g>
		<g>
			<path style="&st0;" d="M37.4,111.659c0,0.459,0,0.917,0,1.376c0,1.277,1.98,1.277,1.98,0c0-0.459,0-0.917,0-1.376
				C39.38,110.382,37.4,110.382,37.4,111.659L37.4,111.659z"/>
		</g>
	</g>
	<g>
		<g>
			<path style="&st0;" d="M38.734,134.666c1.277,0,1.277-1.98,0-1.98C37.457,132.686,37.457,134.666,38.734,134.666L38.734,134.666z
				"/>
		</g>
	</g>
	<g>
		<g>
			<path style="&st0;" d="M22.953,84.525c-1.78,1.396-4.132,3.59-3.706,6.146c0.444,2.667,2.954,4.011,5.27,4.885
				c0.514,0.194,0.734-0.628,0.226-0.82c-1.923-0.726-3.995-1.763-4.609-3.89c-0.674-2.335,1.835-4.477,3.42-5.72
				C23.985,84.788,23.379,84.191,22.953,84.525L22.953,84.525z"/>
		</g>
	</g>
	<g>
		<g>
			<path style="&st0;" d="M25.086,85.448c-2.013-0.279-3.833-0.035-5.73,0.688c-0.179,0.068-0.312,0.207-0.312,0.41
				c0.002,2.424,0.065,4.854,1.09,7.095c0.228,0.498,0.961,0.066,0.734-0.429c-0.957-2.091-0.972-4.409-0.974-6.666
				c-0.104,0.137-0.208,0.273-0.312,0.41c1.731-0.66,3.427-0.945,5.278-0.688C25.396,86.342,25.628,85.523,25.086,85.448
				L25.086,85.448z"/>
		</g>
	</g>
	<g>
		<g>
			<path style="&st0;" d="M20.287,93.449c1.638,0.779,3.352,1.042,5.144,0.731c0.54-0.094,0.31-0.913-0.226-0.82
				c-1.548,0.269-3.073,0.027-4.489-0.645C20.223,92.481,19.791,93.214,20.287,93.449L20.287,93.449z"/>
		</g>
	</g>
	<g>
		<g>
			<path style="&st0;" d="M22.795,86.739c0.172-0.252,0.341-0.497,0.545-0.725c0.306-0.341-1.208-1.013-1.248-0.316
				c-0.037,0.63-0.219,1.267-0.361,1.879c-0.378,1.634-0.852,3.244-1.223,4.879c-0.303,1.335,1.747,1.902,2.05,0.565
				c0.541-2.384,1.344-4.726,1.644-7.159c0.1-0.808-0.092-1.583-0.921-1.887c-1.027-0.377-1.873,1.03-2.323,1.691
				C20.185,86.802,22.028,87.864,22.795,86.739L22.795,86.739z"/>
		</g>
	</g>
	<g>
		<g>
			<path style="&st0;" d="M20.438,92.802c0.697,0.694,1.429,1.517,2.26,2.059c0.878,0.573,2.048-0.572,1.454-1.454
				c-0.375-0.557-1.026-0.985-1.523-1.42c-0.436-0.381-1.073-0.43-1.503,0c-0.389,0.389-0.436,1.121,0,1.503
				c0.33,0.289,0.66,0.579,0.988,0.87c0.139,0.123,0.508,0.574,0.202,0.119c0.485-0.485,0.97-0.97,1.454-1.454
				c0.424,0.276,0.114,0.082,0.002-0.017c-0.175-0.154-0.348-0.31-0.521-0.467c-0.445-0.405-0.884-0.818-1.311-1.243
				C20.969,90.331,19.465,91.834,20.438,92.802L20.438,92.802z"/>
		</g>
	</g>
	<g>
		<g>
			<path style="&st0;" d="M24.973,115.818c0.298-0.034,0.52-0.081,0.795-0.199c0.1-0.043,0.604-0.187,0.238-0.145
				c0.575-0.066,1.063-0.434,1.063-1.063c0-0.529-0.486-1.129-1.063-1.063c-0.298,0.034-0.52,0.082-0.795,0.199
				c-0.1,0.043-0.604,0.187-0.238,0.145c-0.575,0.066-1.063,0.434-1.063,1.063C23.91,115.284,24.396,115.884,24.973,115.818
				L24.973,115.818z"/>
		</g>
	</g>
	<g>
		<g>
			<path style="&st0;" d="M29.723,118.77c-0.444,2.973-0.358,6.079-0.015,9.057c0.062,0.538,0.913,0.544,0.85,0
				c-0.333-2.894-0.447-5.941-0.015-8.831C30.624,118.46,29.804,118.229,29.723,118.77L29.723,118.77z"/>
		</g>
	</g>
	<g>
		<g>
			<path style="&st0;" d="M35.294,129.285c1.384,0.025,2.744,0.319,4.128,0.344c0.549,0.01,0.548-0.84,0-0.85
				c-1.384-0.025-2.744-0.319-4.128-0.344C34.745,128.424,34.746,129.275,35.294,129.285L35.294,129.285z"/>
		</g>
	</g>
	<g>
		<g>
			<path style="&st0;" d="M43.527,103.532c-0.777,1.151-1.759,2.21-2.408,3.44c-0.256,0.485,0.478,0.914,0.734,0.429
				c0.649-1.231,1.631-2.29,2.408-3.44C44.569,103.505,43.832,103.08,43.527,103.532L43.527,103.532z"/>
		</g>
	</g>
	<g>
		<g>
			<path style="&st0;" d="M47.807,103.723c-2.489,1.495-4.496,3.89-6.001,6.345c-0.287,0.469,0.448,0.896,0.734,0.429
				c1.427-2.328,3.335-4.621,5.696-6.04C48.706,104.176,48.279,103.44,47.807,103.723L47.807,103.723z"/>
		</g>
	</g>
	<g>
		<g>
			<path style="&st0;" d="M49.786,104.822c-2.118,1.783-4.223,3.734-5.915,5.934c-0.334,0.435,0.405,0.857,0.734,0.429
				c1.644-2.137,3.726-4.031,5.782-5.762C50.807,105.07,50.202,104.471,49.786,104.822L49.786,104.822z"/>
		</g>
	</g>
	<g>
		<g>
			<path style="&st0;" d="M52.882,103.79c-2.752,2.408-5.504,4.816-8.256,7.224c-0.413,0.362,0.191,0.961,0.601,0.601
				c2.752-2.408,5.504-4.816,8.256-7.224C53.896,104.03,53.292,103.431,52.882,103.79L52.882,103.79z"/>
		</g>
	</g>
	<g>
		<g>
			<path style="&st0;" d="M55.29,103.79c-2.408,2.408-4.816,4.816-7.224,7.224c-0.388,0.388,0.213,0.989,0.601,0.601
				c2.408-2.408,4.816-4.816,7.224-7.224C56.279,104.003,55.678,103.402,55.29,103.79L55.29,103.79z"/>
		</g>
	</g>
	<g>
		<g>
			<path style="&st0;" d="M59.074,104.134c-1.78,1.78-3.576,3.539-5.504,5.16c-0.42,0.353,0.185,0.952,0.601,0.601
				c1.928-1.621,3.724-3.38,5.504-5.16C60.063,104.347,59.462,103.746,59.074,104.134L59.074,104.134z"/>
		</g>
	</g>
	<g>
		<g>
			<path style="&st0;" d="M41.271,110.306c2.058,0.961,4.421,1.637,6.638,2.107c0.535,0.113,0.762-0.706,0.226-0.82
				c-2.14-0.453-4.448-1.093-6.435-2.021C41.207,109.341,40.775,110.074,41.271,110.306L41.271,110.306z"/>
		</g>
	</g>
	<g>
		<g>
			<path style="&st0;" d="M40.153,111.96c1.085,1.065,2.288,1.82,3.854,1.485c0.536-0.115,0.309-0.934-0.226-0.82
				c-1.248,0.267-2.179-0.435-3.026-1.267C40.363,110.974,39.761,111.575,40.153,111.96L40.153,111.96z"/>
		</g>
	</g>
	<g>
		<g>
			<path style="&st0;" d="M42.991,109.618c2.536,1.755,5.367,2.794,8.358,3.483c0.534,0.123,0.76-0.697,0.226-0.82
				c-2.92-0.673-5.678-1.684-8.155-3.397C42.968,108.571,42.544,109.308,42.991,109.618L42.991,109.618z"/>
		</g>
	</g>
	<g>
		<g>
			<path style="&st0;" d="M44.367,108.242c4.027,1.785,8.222,3.087,12.486,4.171c0.532,0.135,0.757-0.685,0.226-0.82
				c-4.191-1.065-8.324-2.33-12.283-4.085C44.3,107.287,43.867,108.02,44.367,108.242L44.367,108.242z"/>
		</g>
	</g>
	<g>
		<g>
			<path style="&st0;" d="M48.597,108.629c3.991,1.662,7.982,3.324,12.04,4.816c0.516,0.19,0.736-0.632,0.226-0.82
				c-4.058-1.492-8.05-3.154-12.04-4.816C48.317,107.598,48.099,108.421,48.597,108.629L48.597,108.629z"/>
		</g>
	</g>
	<g>
		<g>
			<path style="&st0;" d="M53.757,107.253c3.617,1.412,7.354,2.478,11.008,3.784c0.518,0.185,0.739-0.637,0.226-0.82
				c-3.654-1.307-7.392-2.372-11.008-3.784C53.472,106.233,53.252,107.056,53.757,107.253L53.757,107.253z"/>
		</g>
	</g>
	<g>
		<g>
			<path style="&st0;" d="M56.752,106.178c4.014,1.813,8.077,3.509,12.142,5.203c0.506,0.211,0.725-0.612,0.226-0.82
				c-3.997-1.666-7.992-3.335-11.939-5.117C56.685,105.22,56.253,105.952,56.752,106.178L56.752,106.178z"/>
		</g>
	</g>
	<g>
		<g>
			<path style="&st0;" d="M51.936,108.586c3.554,2.041,7.473,3.085,11.567,3.154c0.549,0.009,0.548-0.841,0-0.85
				c-3.954-0.067-7.705-1.067-11.138-3.038C51.888,107.578,51.46,108.313,51.936,108.586L51.936,108.586z"/>
		</g>
	</g>
	<g>
		<g>
			<path style="&st0;" d="M70.383,107.612c4.751-0.364,9.496-0.742,14.218-1.391c0.541-0.074,0.31-0.894-0.226-0.82
				c-4.646,0.639-9.317,1.003-13.991,1.361C69.84,106.803,69.836,107.654,70.383,107.612L70.383,107.612z"/>
		</g>
	</g>
	<g>
		<g>
			<path style="&st0;" d="M79.671,104.516c2.836-0.027,5.613-0.385,8.369-1.047c0.533-0.128,0.307-0.948-0.226-0.82
				c-2.682,0.645-5.385,0.99-8.143,1.017C79.123,103.671,79.123,104.521,79.671,104.516L79.671,104.516z"/>
		</g>
	</g>
	<g>
		<g>
			<path style="&st0;" d="M84.831,108.3c0.548,0,0.548-0.85,0-0.85S84.283,108.3,84.831,108.3L84.831,108.3z"/>
		</g>
	</g>
	<g>
		<g>
			<path style="&st0;" d="M83.568,108.285c2.098-0.373,4.102-1.037,5.95-2.107c0.474-0.275,0.046-1.01-0.429-0.734
				c-1.787,1.035-3.72,1.661-5.747,2.021C82.803,107.561,83.032,108.38,83.568,108.285L83.568,108.285z"/>
		</g>
	</g>
	<g>
		<g>
			<path style="&st0;" d="M79.671,104.172c1.261,0,2.523,0,3.784,0c0.548,0,0.548-0.85,0-0.85c-1.261,0-2.523,0-3.784,0
				C79.123,103.321,79.123,104.172,79.671,104.172L79.671,104.172z"/>
		</g>
	</g>
	<g>
		<g>
			<path style="&st0;" d="M55.821,103.681c-3.493,1.078-6.808,2.548-10.078,4.171c-0.491,0.244-0.06,0.977,0.429,0.734
				c3.203-1.59,6.454-3.029,9.875-4.085C56.57,104.339,56.347,103.518,55.821,103.681L55.821,103.681z"/>
		</g>
	</g>
	<g>
		<g>
			<path style="&st0;" d="M41.029,105.533c3.618,1.473,7.161,3.198,10.563,5.117c0.478,0.27,0.907-0.465,0.429-0.734
				c-3.467-1.957-7.079-3.702-10.766-5.203C40.747,104.506,40.528,105.329,41.029,105.533L41.029,105.533z"/>
		</g>
	</g>
	<g>
		<g>
			<path style="&st0;" d="M50.904,106.178c3.081,1.676,6.313,3.022,9.734,3.827c0.533,0.125,0.76-0.694,0.226-0.82
				c-3.35-0.788-6.512-2.099-9.531-3.741C50.851,105.181,50.422,105.916,50.904,106.178L50.904,106.178z"/>
		</g>
	</g>
	<g>
		<g>
			<path style="&st0;" d="M60.192,106.866c1.421,1.031,3.051,1.721,4.472,2.752c0.445,0.323,0.868-0.416,0.429-0.734
				c-1.421-1.031-3.051-1.721-4.472-2.752C60.176,105.809,59.753,106.547,60.192,106.866L60.192,106.866z"/>
		</g>
	</g>
	<g>
		<g>
			<path style="&st0;" d="M27.511,115.466c5.238,2.237,10.98,3.738,16.614,4.515c0.536,0.074,0.767-0.745,0.226-0.82
				c-5.552-0.766-11.248-2.224-16.411-4.429C27.442,114.519,27.008,115.251,27.511,115.466L27.511,115.466z"/>
		</g>
	</g>
	<g>
		<g>
			<path style="&st0;" d="M28.457,118.84c4.024,3.127,8.631,5.482,13.604,6.646c0.533,0.125,0.76-0.695,0.226-0.82
				c-4.822-1.128-9.324-3.393-13.229-6.427C28.631,117.906,28.024,118.504,28.457,118.84L28.457,118.84z"/>
		</g>
	</g>
	<g>
		<g>
			<path style="&st0;" d="M28.543,122.69c3.776,2.32,7.84,3.745,12.255,4.186c0.546,0.055,0.54-0.796,0-0.85
				c-4.266-0.427-8.178-1.828-11.826-4.07C28.503,121.668,28.077,122.404,28.543,122.69L28.543,122.69z"/>
		</g>
	</g>
	<g>
		<g>
			<path style="&st0;" d="M33.273,115.486c-2.078,1.75-4.087,3.727-4.926,6.38c-0.166,0.524,0.655,0.747,0.82,0.226
				c0.792-2.504,2.75-4.357,4.707-6.005C34.294,115.734,33.689,115.136,33.273,115.486L33.273,115.486z"/>
		</g>
	</g>
	<g>
		<g>
			<path style="&st0;" d="M35.681,114.798c-2.533,2.623-4.969,6.16-5.614,9.82c-0.094,0.536,0.725,0.765,0.82,0.226
				c0.617-3.505,2.971-6.935,5.395-9.445C36.663,115.005,36.063,114.403,35.681,114.798L35.681,114.798z"/>
		</g>
	</g>
	<g>
		<g>
			<path style="&st0;" d="M37.335,117.98c-2.345,3.089-4.091,6.494-5.547,10.078c-0.207,0.508,0.616,0.727,0.82,0.226
				c1.429-3.516,3.162-6.845,5.461-9.875C38.401,117.973,37.662,117.55,37.335,117.98L37.335,117.98z"/>
		</g>
	</g>
	<g>
		<g>
			<path style="&st0;" d="M42.151,116.604c-1.313,2.13-2.5,4.34-3.72,6.523c-0.666,1.192-1.334,2.383-2.013,3.568
				c-0.255,0.445-0.828,1.953-1.326,2.173c0.208,0.085,0.416,0.169,0.625,0.254c-0.004-0.011-0.008-0.021-0.013-0.032
				c-0.197-0.505-1.019-0.286-0.82,0.226c0.004,0.011,0.008,0.021,0.013,0.032c0.107,0.275,0.356,0.373,0.625,0.254
				c1.196-0.53,2.255-3.57,2.844-4.618c1.494-2.655,2.921-5.357,4.52-7.951C43.174,116.565,42.438,116.139,42.151,116.604
				L42.151,116.604z"/>
		</g>
	</g>
	<g>
		<g>
			<path style="&st0;" d="M44.903,116.604c-2.126,4.278-4.098,8.615-5.547,13.174c-0.167,0.524,0.655,0.747,0.82,0.226
				c1.426-4.488,3.368-8.76,5.461-12.971C45.88,116.544,45.147,116.113,44.903,116.604L44.903,116.604z"/>
		</g>
	</g>
	<g>
		<g>
			<path style="&st0;" d="M42.862,129.973c2.407,0.023,4.809,0.291,7.111,1.017c0.524,0.165,0.747-0.656,0.226-0.82
				c-2.37-0.748-4.859-1.024-7.337-1.047C42.313,129.117,42.314,129.968,42.862,129.973L42.862,129.973z"/>
		</g>
	</g>
	<g>
		<g>
			<path style="&st0;" d="M37.049,72.137c0.876-2.189,1.751-4.378,2.627-6.568c0.204-0.51-0.619-0.729-0.82-0.226
				c-0.876,2.189-1.751,4.378-2.627,6.568C36.025,72.42,36.848,72.639,37.049,72.137L37.049,72.137z"/>
		</g>
	</g>
	<g>
		<g>
			<path style="&st0;" d="M39.051,65.823c5.452,2.936,12.049,2.269,17.959,1.476c7.664-1.029,15.136-3.174,22.651-4.936
				c0.534-0.125,0.307-0.945-0.226-0.82c-6.092,1.428-12.137,3.026-18.283,4.213c-6.765,1.306-15.293,2.767-21.671-0.667
				C38.998,64.829,38.568,65.563,39.051,65.823L39.051,65.823z"/>
		</g>
	</g>
	<g>
		<g>
			<path style="&st0;" d="M79.618,63.044c1.171,2.429,1.827,5.611,3.99,7.399c0.419,0.347,1.024-0.252,0.601-0.601
				c-2.096-1.733-2.719-4.868-3.857-7.227C80.114,62.121,79.381,62.552,79.618,63.044L79.618,63.044z"/>
		</g>
	</g>
	<g>
		<g>
			<g>
				<path style="&st0;" d="M58.314,67.053c1.429-10.331,3.547-20.55,4.976-30.88c0.173-1.248-1.735-1.786-1.909-0.526
					c-1.429,10.331-3.547,20.55-4.976,30.88C56.233,67.775,58.14,68.313,58.314,67.053L58.314,67.053z"/>
			</g>
		</g>
		<g>
			<g>
				<path style="&st0;" d="M61.972,39.001c5.484,0,5.484-8.504,0-8.504S56.488,39.001,61.972,39.001L61.972,39.001z"/>
			</g>
		</g>
	</g>
	<g>
		<g>
			<g>
				<path style="&st0;" d="M69.314,64.053c1.621-10.061,7.355-18.82,8.976-28.88c0.201-1.249-1.707-1.784-1.909-0.526
					c-1.621,10.061-7.355,18.82-8.976,28.88C67.204,64.775,69.112,65.311,69.314,64.053L69.314,64.053z"/>
			</g>
		</g>
		<g>
			<g>
				<path style="&st0;" d="M76.972,38.001c5.484,0,5.484-8.504,0-8.504S71.488,38.001,76.972,38.001L76.972,38.001z"/>
			</g>
		</g>
	</g>
</g>
</svg>
