<?xml version="1.0" encoding="utf-8"?>
<!-- Generator: Adobe Illustrator 17.0.0, SVG Export Plug-In . SVG Version: 6.00 Build 0)  -->
<!DOCTYPE svg PUBLIC "-//W3C//DTD SVG 1.1//EN" "http://www.w3.org/Graphics/SVG/1.1/DTD/svg11.dtd" [
	<!ENTITY st0 "fill:#3D3D3D;">
]>
<svg version="1.1" id="Calque_1" xmlns="http://www.w3.org/2000/svg" xmlns:xlink="http://www.w3.org/1999/xlink" x="0px" y="0px"
	 width="166px" height="167px" viewBox="0 0 166 167" style="enable-background:new 0 0 166 167;" xml:space="preserve">
<g>
	<g>
		<g>
			<g>
				<path style="&st0;" d="M50.711,109.467c-0.807,3.208-0.807,6.506,0,9.713c0.311,1.238,2.221,0.712,1.909-0.526
					c-0.722-2.868-0.722-5.793,0-8.661C52.932,108.755,51.022,108.23,50.711,109.467L50.711,109.467z"/>
			</g>
		</g>
		<g>
			<g>
				<path style="&st0;" d="M50.965,119.617c7.042,8.691,23.239,8.545,33.216,8.066c10.093-0.484,26.638-2.482,31.599-12.991
					c0.542-1.148-1.165-2.153-1.71-0.999c-4.65,9.851-20.499,11.44-29.889,12.011c-9.428,0.573-25.182,0.701-31.816-7.486
					C51.561,117.225,50.169,118.635,50.965,119.617L50.965,119.617z"/>
			</g>
		</g>
		<g>
			<g>
				<path style="&st0;" d="M109.763,108.068c2.097,1.958,3.302,4.546,3.122,7.437c-0.079,1.276,1.901,1.268,1.98,0
					c0.21-3.377-1.255-6.552-3.702-8.837C110.231,105.798,108.828,107.195,109.763,108.068L109.763,108.068z"/>
			</g>
		</g>
		<g>
			<g>
				<path style="&st0;" d="M62.785,127.58c0.59,1.624,1.661,4.269,3.763,4.269c2.386,0,2.749-3.664,2.907-5.32
					c0.121-1.271-1.86-1.259-1.98,0c-0.086,0.901-0.23,1.787-0.535,2.642c-0.069,0.195-0.181,0.412-0.313,0.571
					c-0.149,0.178-0.096,0.127-0.183,0.127c-0.061,0-0.49-0.4-0.655-0.623c-0.488-0.657-0.817-1.429-1.095-2.193
					C64.262,125.864,62.349,126.377,62.785,127.58L62.785,127.58z"/>
			</g>
		</g>
		<g>
			<g>
				<path style="&st0;" d="M95.696,127.029c0.134,0.309,0.32,1.032,0.541,1.472c0.454,0.907,1.306,1.563,2.177,2.033
					c0.506,0.273,1.036,0.097,1.354-0.355c0.595-0.846,0.953-1.712,1.003-2.75c0.048-1-0.317-1.998-0.343-2.999
					c-0.032-1.274-2.012-1.278-1.98,0c0.019,0.765,0.146,1.51,0.279,2.262c0.173,0.979-0.105,1.687-0.669,2.489
					c0.451-0.118,0.903-0.237,1.354-0.355c-1.307-0.706-1.473-1.563-2.007-2.795C96.899,124.861,95.194,125.87,95.696,127.029
					L95.696,127.029z"/>
			</g>
		</g>
		<g>
			<g>
				<path style="&st0;" d="M56.616,115.571c-0.11,1.229-0.222,2.462-0.246,3.695c-0.003,0.131,0.089,0.229,0.206,0.271
					c3.524,1.252,7.07,2.443,10.593,3.695c0.342,0.122,0.488-0.421,0.149-0.541c-2.776-0.987-5.565-1.936-8.347-2.904
					c-0.224-0.078-2.04-0.53-2.033-0.864c0.009-0.461,0.049-0.923,0.08-1.384c0.045-0.657,0.101-1.313,0.16-1.969
					C57.21,115.21,56.648,115.213,56.616,115.571L56.616,115.571z"/>
			</g>
		</g>
		<g>
			<g>
				<path style="&st0;" d="M53.502,111.225c9.323,3.458,18.836,5.872,28.833,5.728c9.934-0.144,19.423-3.583,28.102-8.19
					c1.128-0.599,0.128-2.308-0.999-1.71c-9.021,4.788-18.397,7.794-28.661,7.942c-9.191,0.133-18.216-2.514-26.749-5.679
					C52.829,108.871,52.316,110.785,53.502,111.225L53.502,111.225z"/>
			</g>
		</g>
	</g>
	<g>
		<g>
			<path style="&st0;" d="M53.002,114.267c0.556,2.772,2.377,4.786,5.093,5.583c0.348,0.102,0.496-0.44,0.149-0.541
				c-2.539-0.745-4.183-2.609-4.701-5.191C53.472,113.763,52.931,113.913,53.002,114.267L53.002,114.267z"/>
		</g>
	</g>
	<g>
		<g>
			<path style="&st0;" d="M54.082,120.584c1.128-0.407,2.208-1.201,3.062-2.031c0.26-0.253-0.137-0.649-0.397-0.397
				c-0.778,0.757-1.783,1.515-2.815,1.887C53.595,120.165,53.741,120.708,54.082,120.584L54.082,120.584z"/>
		</g>
	</g>
	<g>
		<g>
			<path style="&st0;" d="M55.618,122.27c1.216-0.75,2.235-1.732,3.24-2.737c0.256-0.256-0.141-0.653-0.397-0.397
				c-0.972,0.971-1.951,1.925-3.127,2.65C55.027,121.975,55.309,122.461,55.618,122.27L55.618,122.27z"/>
		</g>
	</g>
	<g>
		<g>
			<path style="&st0;" d="M58.858,122.226c0.653-0.653,1.306-1.306,1.959-1.959c0.256-0.256-0.141-0.653-0.397-0.397
				c-0.653,0.653-1.306,1.306-1.959,1.959C58.205,122.086,58.602,122.483,58.858,122.226L58.858,122.226z"/>
		</g>
	</g>
	<g>
		<g>
			<path style="&st0;" d="M61.797,123.94c0.181-0.179,0.346-0.376,0.611-0.418c0.357-0.056,0.205-0.597-0.149-0.541
				c-0.358,0.056-0.61,0.316-0.858,0.562C61.142,123.799,61.539,124.195,61.797,123.94L61.797,123.94z"/>
		</g>
	</g>
	<g>
		<g>
			<path style="&st0;" d="M64.856,124.013c1.121-0.307,2.072-1.06,2.616-2.088c0.169-0.32-0.315-0.603-0.485-0.283
				c-0.479,0.904-1.293,1.56-2.281,1.83C64.358,123.567,64.507,124.108,64.856,124.013L64.856,124.013z"/>
		</g>
	</g>
	<g>
		<g>
			<path style="&st0;" d="M55.278,117.819c4.058,3.873,9.348,6.32,14.816,7.418c0.353,0.071,0.504-0.47,0.149-0.541
				c-5.377-1.08-10.577-3.464-14.569-7.274C55.413,117.172,55.016,117.568,55.278,117.819L55.278,117.819z"/>
		</g>
	</g>
	<g>
		<g>
			<path style="&st0;" d="M53.621,118.597c3.889,2.472,8.285,3.632,12.875,3.711c0.362,0.006,0.362-0.555,0-0.561
				c-4.5-0.078-8.779-1.212-12.592-3.635C53.598,117.918,53.316,118.404,53.621,118.597L53.621,118.597z"/>
		</g>
	</g>
	<g>
		<g>
			<path style="&st0;" d="M55.675,120.023c1.481-1.455,3.155-2.67,4.841-3.874c0.292-0.208,0.012-0.696-0.283-0.485
				c-1.724,1.232-3.439,2.474-4.954,3.962C55.019,119.88,55.417,120.276,55.675,120.023L55.675,120.023z"/>
		</g>
	</g>
	<g>
		<g>
			<path style="&st0;" d="M57.784,121.291c3.248,1.456,6.634,2.449,10.107,3.212c0.353,0.077,0.503-0.464,0.149-0.541
				c-3.425-0.752-6.767-1.718-9.973-3.155C57.739,120.659,57.454,121.143,57.784,121.291L57.784,121.291z"/>
		</g>
	</g>
	<g>
		<g>
			<path style="&st0;" d="M65.687,124.502c3.727,0.959,7.503,1.466,11.339,1.724c0.361,0.024,0.359-0.537,0-0.561
				c-3.784-0.255-7.514-0.759-11.19-1.704C65.485,123.871,65.336,124.412,65.687,124.502L65.687,124.502z"/>
		</g>
	</g>
	<g>
		<g>
			<path style="&st0;" d="M66.911,124.013c5.256,1.824,11.468,1.929,16.971,1.969c0.362,0.003,0.362-0.559,0-0.561
				c-5.483-0.039-11.599-0.137-16.822-1.949C66.717,123.352,66.571,123.895,66.911,124.013L66.911,124.013z"/>
		</g>
	</g>
	<g>
		<g>
			<path style="&st0;" d="M56.474,110.338c0.599-14.195,5.434-38.422,23.609-39.52c18.491-1.117,23.709,24.874,24.282,38.304
				c0.054,1.272,2.034,1.277,1.98,0c-0.648-15.175-6.211-39.862-25.589-40.297c-19.841-0.445-25.638,26.712-26.262,41.513
				C54.44,111.615,56.42,111.61,56.474,110.338L56.474,110.338z"/>
		</g>
	</g>
	<g>
		<g>
			<path style="&st0;" d="M62.556,112.162c0.237-10.367,2.669-31.575,17.103-31.624c14.05-0.048,18.713,21.33,19.84,31.624
				c0.137,1.255,2.119,1.268,1.98,0c-1.33-12.144-6.362-32.78-21.82-33.604c-15.71-0.837-18.835,22.746-19.083,33.604
				C60.546,113.44,62.526,113.437,62.556,112.162L62.556,112.162z"/>
		</g>
	</g>
	<g>
		<g>
			<path style="&st0;" d="M80.073,63.853c-1.277,3.49,0.869,6.517,4.341,7.3c1.243,0.28,1.772-1.628,0.526-1.909
				c-2.483-0.56-3.876-2.355-2.958-4.864C82.422,63.177,80.508,62.664,80.073,63.853L80.073,63.853z"/>
		</g>
	</g>
	<g>
		<g>
			<path style="&st0;" d="M81.636,65.714c1.551,0.015,3.191,0.128,4.521,1.006c1.435,0.947,0.673,2.994,0.098,4.195
				c-0.549,1.146,1.158,2.15,1.71,0.999c0.907-1.894,1.61-4.328,0.074-6.113c-1.539-1.79-4.197-2.045-6.403-2.067
				C80.358,63.722,80.36,65.701,81.636,65.714L81.636,65.714z"/>
		</g>
	</g>
	<g>
		<g>
			<path style="&st0;" d="M86.748,65.832c4.455-9.43,9.533-18.547,13.988-27.976c0.542-1.148-1.164-2.153-1.71-0.999
				c-4.455,9.43-9.533,18.547-13.988,27.976C84.496,65.98,86.203,66.986,86.748,65.832L86.748,65.832z"/>
		</g>
	</g>
	<g>
		<g>
			<path style="&st0;" d="M94.907,74.093c0.609-0.343,0.9-1.008,1.451-1.376c1.114-0.743,3.497,1.417,4.239,1.984
				c-0.163-0.285-0.327-0.57-0.49-0.855c-0.073,0.894-1.205,1.64-1.812,2.19c-0.776,0.703-1.408,1.437-1.802,2.412
				c-0.479,1.185,1.437,1.694,1.909,0.526c0.676-1.673,2.776-2.358,3.462-4.081c0.272-0.683,0.373-1.413-0.268-1.902
				c-0.945-0.721-1.91-1.41-2.997-1.901c-1.046-0.472-2.202-0.67-3.241-0.083c-0.577,0.326-1.007,1.126-1.451,1.376
				C92.796,73.01,93.793,74.721,94.907,74.093L94.907,74.093z"/>
		</g>
	</g>
	<g>
		<g>
			<path style="&st0;" d="M99.973,71.506c5.173-6.363,10.041-12.951,14.751-19.662c0.735-1.048-0.982-2.036-1.71-0.999
				c-4.613,6.573-9.375,13.029-14.442,19.262C97.775,71.087,99.167,72.497,99.973,71.506L99.973,71.506z"/>
		</g>
	</g>
	<g>
		<g>
			<path style="&st0;" d="M99.881,40.391c5.484,0,5.484-8.504,0-8.504S94.397,40.391,99.881,40.391L99.881,40.391z"/>
		</g>
	</g>
	<g>
		<g>
			<path style="&st0;" d="M114.478,56.204c5.484,0,5.484-8.504,0-8.504S108.994,56.204,114.478,56.204L114.478,56.204z"/>
		</g>
	</g>
	<g>
		<g>
			<path style="&st0;" d="M57.308,108.785c1.919,0,1.919-2.976,0-2.976S55.389,108.785,57.308,108.785L57.308,108.785z"/>
		</g>
	</g>
	<g>
		<g>
			<path style="&st0;" d="M58.525,102.095c1.919,0,1.919-2.976,0-2.976C56.605,99.119,56.605,102.095,58.525,102.095L58.525,102.095
				z"/>
		</g>
	</g>
	<g>
		<g>
			<path style="&st0;" d="M60.957,94.797c1.919,0,1.919-2.976,0-2.976S59.038,94.797,60.957,94.797L60.957,94.797z"/>
		</g>
	</g>
	<g>
		<g>
			<path style="&st0;" d="M63.39,87.499c1.919,0,1.919-2.976,0-2.976S61.471,87.499,63.39,87.499L63.39,87.499z"/>
		</g>
	</g>
	<g>
		<g>
			<path style="&st0;" d="M68.256,81.417c1.919,0,1.919-2.976,0-2.976C66.336,78.44,66.336,81.417,68.256,81.417L68.256,81.417z"/>
		</g>
	</g>
	<g>
		<g>
			<path style="&st0;" d="M74.337,77.768c1.919,0,1.919-2.976,0-2.976C72.418,74.791,72.418,77.768,74.337,77.768L74.337,77.768z"/>
		</g>
	</g>
	<g>
		<g>
			<path style="&st0;" d="M81.028,76.551c1.919,0,1.919-2.976,0-2.976C79.108,73.575,79.108,76.551,81.028,76.551L81.028,76.551z"/>
		</g>
	</g>
	<g>
		<g>
			<path style="&st0;" d="M87.273,75.227c-0.203,0.203-0.405,0.405-0.608,0.608c-0.573,0.573-0.573,1.531,0,2.105
				c0.573,0.573,1.531,0.573,2.105,0c0.203-0.203,0.405-0.405,0.608-0.608c0.573-0.573,0.573-1.531,0-2.105
				C88.805,74.654,87.847,74.654,87.273,75.227L87.273,75.227z"/>
		</g>
	</g>
	<g>
		<g>
			<path style="&st0;" d="M92.583,82.633c1.919,0,1.919-2.976,0-2.976S90.664,82.633,92.583,82.633L92.583,82.633z"/>
		</g>
	</g>
	<g>
		<g>
			<path style="&st0;" d="M95.624,88.715c1.919,0,1.919-2.976,0-2.976C93.705,85.739,93.705,88.715,95.624,88.715L95.624,88.715z"/>
		</g>
	</g>
	<g>
		<g>
			<path style="&st0;" d="M98.665,94.797c1.919,0,1.919-2.976,0-2.976C96.745,91.82,96.745,94.797,98.665,94.797L98.665,94.797z"/>
		</g>
	</g>
	<g>
		<g>
			<path style="&st0;" d="M101.098,102.095c1.919,0,1.919-2.976,0-2.976S99.178,102.095,101.098,102.095L101.098,102.095z"/>
		</g>
	</g>
	<g>
		<g>
			<path style="&st0;" d="M102.922,108.177c1.919,0,1.919-2.976,0-2.976S101.003,108.177,102.922,108.177L102.922,108.177z"/>
		</g>
	</g>
	<g>
		<g>
			<path style="&st0;" d="M65.102,113.789c3.287,0.65,6.59,1.232,9.731,2.433c0.513,0.196,0.733-0.626,0.226-0.82
				c-3.141-1.2-6.444-1.783-9.731-2.433C64.792,112.863,64.564,113.682,65.102,113.789L65.102,113.789z"/>
		</g>
	</g>
	<g>
		<g>
			<path style="&st0;" d="M63.176,110.705c5.446,2.904,11.074,4.204,17.244,3.707c0.543-0.044,0.547-0.894,0-0.85
				c-6.019,0.485-11.492-0.753-16.815-3.591C63.121,109.713,62.692,110.447,63.176,110.705L63.176,110.705z"/>
		</g>
	</g>
	<g>
		<g>
			<path style="&st0;" d="M62.481,106.989c3.83,3.085,8.128,4.881,13.073,4.99c0.549,0.012,0.548-0.838,0-0.85
				c-4.707-0.104-8.827-1.805-12.471-4.741C62.66,106.047,62.054,106.645,62.481,106.989L62.481,106.989z"/>
		</g>
	</g>
	<g>
		<g>
			<path style="&st0;" d="M66.672,96.743c-3.018,5.158-3.637,10.937-2.476,16.749c0.107,0.538,0.927,0.309,0.82-0.226
				c-1.117-5.587-0.514-11.131,2.39-16.093C67.684,96.698,66.949,96.27,66.672,96.743L66.672,96.743z"/>
		</g>
	</g>
	<g>
		<g>
			<path style="&st0;" d="M67.237,96.845c-2.298,5.465-2.942,10.929-1.216,16.647c0.158,0.524,0.979,0.3,0.82-0.226
				c-1.685-5.584-1.019-10.879,1.216-16.195C68.27,96.565,67.447,96.347,67.237,96.845L67.237,96.845z"/>
		</g>
	</g>
	<g>
		<g>
			<path style="&st0;" d="M72.754,92.486c-4.246,6.37-5.951,13.468-4.3,21.006c0.117,0.536,0.937,0.308,0.82-0.226
				c-1.605-7.327,0.093-14.167,4.214-20.351C73.793,92.457,73.056,92.032,72.754,92.486L72.754,92.486z"/>
		</g>
	</g>
	<g>
		<g>
			<path style="&st0;" d="M73.319,104.143c-0.545,3.523-0.644,7.049,0,10.565c0.099,0.539,0.918,0.31,0.82-0.226
				c-0.616-3.361-0.521-6.746,0-10.113C74.222,103.833,73.403,103.602,73.319,104.143L73.319,104.143z"/>
		</g>
	</g>
	<g>
		<g>
			<path style="&st0;" d="M71.792,110.14c3.991,1.268,8.098,1.797,12.277,1.84c0.549,0.006,0.548-0.845,0-0.85
				c-4.104-0.042-8.133-0.565-12.051-1.809C71.494,109.153,71.271,109.974,71.792,110.14L71.792,110.14z"/>
		</g>
	</g>
</g>
</svg>
