<?xml version="1.0" encoding="utf-8"?>
<!-- Generator: Adobe Illustrator 17.0.0, SVG Export Plug-In . SVG Version: 6.00 Build 0)  -->
<!DOCTYPE svg PUBLIC "-//W3C//DTD SVG 1.1//EN" "http://www.w3.org/Graphics/SVG/1.1/DTD/svg11.dtd" [
	<!ENTITY st0 "fill:#3D3D3D;">
]>
<svg version="1.1" id="Calque_1" xmlns="http://www.w3.org/2000/svg" xmlns:xlink="http://www.w3.org/1999/xlink" x="0px" y="0px"
	 width="166px" height="167px" viewBox="0 0 166 167" style="enable-background:new 0 0 166 167;" xml:space="preserve">
<g>
	<g>
		<g>
			<path style="&st0;" d="M99.719,94.909c0.146-0.145,0.271-0.312,0.478-0.345c0.378-0.06,0.583-0.526,0.49-0.863
				c-0.11-0.399-0.486-0.549-0.863-0.49c-0.449,0.071-0.786,0.397-1.097,0.705C98.083,94.554,99.076,95.546,99.719,94.909
				L99.719,94.909z"/>
		</g>
	</g>
	<g>
		<g>
			<path style="&st0;" d="M52.231,98.575c0.536,0,1.085-0.02,1.583,0.208c0.326,0.15,0.612-0.334,0.283-0.485
				c-0.599-0.275-1.217-0.284-1.866-0.285C51.869,98.013,51.869,98.574,52.231,98.575L52.231,98.575z"/>
		</g>
	</g>
	<g>
		<g>
			<g>
				<path style="&st0;" d="M53.024,100.107c9.323,3.458,18.836,5.872,28.833,5.728c9.934-0.144,19.423-3.583,28.102-8.19
					c1.128-0.599,0.128-2.308-0.999-1.71c-9.021,4.788-18.397,7.794-28.661,7.942c-9.191,0.133-18.216-2.514-26.749-5.679
					C52.351,97.753,51.838,99.667,53.024,100.107L53.024,100.107z"/>
			</g>
		</g>
		<g>
			<g>
				<g>
					<path style="&st0;" d="M59.229,98.874c-4.31-10.887-3.005-24.49-0.814-35.705c2.408-12.327,9.986-23.678,23.678-24.194
						c13.916-0.525,19.13,14.109,21.786,25.14c2.574,10.692,4.021,22.462,2.754,33.448c-0.146,1.267,1.835,1.253,1.98,0
						c1.478-12.81-0.614-26.684-4.147-39c-3.175-11.067-9.697-21.324-22.373-21.568c-12.22-0.235-21.145,9.911-24.39,20.722
						c-3.754,12.511-5.287,29.296-0.383,41.683C57.784,100.573,59.7,100.063,59.229,98.874L59.229,98.874z"/>
				</g>
			</g>
			<g>
				<g>
					<path style="&st0;" d="M72.525,50.951c-9.765,2.487-5.374,17.878-5.24,24.825c0.006,0.322,0.211,0.58,0.515,0.676
						c7.409,2.352,16.215,4.142,23.734,1.312c0.839-0.316,0.476-1.672-0.373-1.353c-4.552,1.713-9.334,1.484-14.074,0.833
						c-2.069-0.284-4.104-0.783-6.123-1.303c-2.555-0.658-2.284-1.376-2.481-3.712c-0.48-5.669-3.209-17.985,4.415-19.927
						C73.774,52.08,73.402,50.727,72.525,50.951L72.525,50.951z"/>
				</g>
			</g>
			<g>
				<g>
					<path style="&st0;" d="M70.536,52.829c6.093-1.978,12.273-1.895,17.571,2.029c0.728,0.539,1.427-0.679,0.708-1.212
						c-5.571-4.127-12.235-4.254-18.652-2.171C69.306,51.754,69.672,53.109,70.536,52.829L70.536,52.829z"/>
				</g>
			</g>
			<g>
				<g>
					<path style="&st0;" d="M92.216,76.655c3.257-7.21,1.976-14.581-2.1-21.182c-0.474-0.768-1.688-0.064-1.212,0.708
						c3.789,6.136,5.155,13.004,2.1,19.766C90.635,76.765,91.844,77.479,92.216,76.655L92.216,76.655z"/>
				</g>
			</g>
			<g>
				<g>
					<path style="&st0;" d="M87.33,54.606c0.998,1.732,2.079,3.416,2.887,5.25c0.364,0.826,1.573,0.112,1.212-0.708
						c-0.809-1.834-1.889-3.517-2.887-5.25C88.09,53.114,86.877,53.821,87.33,54.606L87.33,54.606z"/>
				</g>
			</g>
			<g>
				<g>
					<path style="&st0;" d="M59.663,83.802c4.424,1.313,8.981,1.836,13.573,2.125c0.904,0.057,0.898-1.347,0-1.403
						c-4.47-0.282-8.895-0.797-13.2-2.075C59.166,82.191,58.798,83.545,59.663,83.802L59.663,83.802z"/>
				</g>
			</g>
			<g>
				<g>
					<path style="&st0;" d="M58.886,82.863c0.234,3.951-0.327,8.063,0.838,11.904c1.141,3.764,4.674,5.049,8.263,5.335
						c0.903,0.072,0.896-1.332,0-1.403c-9.053-0.722-7.303-9.154-7.698-15.835C60.235,81.964,58.832,81.959,58.886,82.863
						L58.886,82.863z"/>
				</g>
			</g>
			<g>
				<g>
					<path style="&st0;" d="M73.06,85.488c0.64,5.117-0.451,9.941-3.579,14.083c-0.546,0.723,0.674,1.42,1.212,0.708
						c3.26-4.316,4.439-9.452,3.771-14.791C74.352,84.603,72.948,84.592,73.06,85.488L73.06,85.488z"/>
				</g>
			</g>
			<g>
				<g>
					<path style="&st0;" d="M67.8,99.814c0.833,0.277,1.664,0.528,2.549,0.55c0.905,0.023,0.903-1.381,0-1.403
						c-0.754-0.019-1.466-0.264-2.176-0.5C67.312,98.175,66.946,99.53,67.8,99.814L67.8,99.814z"/>
				</g>
			</g>
			<g>
				<g>
					<path style="&st0;" d="M84.786,85.402c5.054-0.372,9.822-1.881,14.266-4.296c0.795-0.432,0.087-1.643-0.708-1.212
						c-4.228,2.297-8.75,3.75-13.558,4.104C83.889,84.065,83.883,85.469,84.786,85.402L84.786,85.402z"/>
				</g>
			</g>
			<g>
				<g>
					<path style="&st0;" d="M84.372,85.412c1.083,4.28,2.303,8.526,3.15,12.862c0.173,0.888,1.526,0.511,1.353-0.373
						c-0.847-4.336-2.067-8.582-3.15-12.862C85.503,84.162,84.15,84.535,84.372,85.412L84.372,85.412z"/>
				</g>
			</g>
			<g>
				<g>
					<path style="&st0;" d="M88.198,99.052c4.452,0.435,8.441-1.203,11.521-4.405c0.627-0.652-0.364-1.645-0.992-0.992
						c-2.849,2.962-6.421,4.396-10.528,3.994C87.298,97.561,87.306,98.964,88.198,99.052L88.198,99.052z"/>
				</g>
			</g>
			<g>
				<g>
					<path style="&st0;" d="M97.759,81.737c1.041,3.995,1.781,8.028,2.075,12.15c0.064,0.897,1.468,0.903,1.403,0
						c-0.303-4.244-1.052-8.408-2.125-12.523C98.884,80.489,97.53,80.861,97.759,81.737L97.759,81.737z"/>
				</g>
			</g>
			<g>
				<g>
					<path style="&st0;" d="M61.272,87.232c0.985,0.246,1.971,0.493,2.956,0.739c0.351,0.088,0.5-0.453,0.149-0.541
						c-0.985-0.246-1.971-0.493-2.956-0.739C61.07,86.603,60.921,87.144,61.272,87.232L61.272,87.232z"/>
				</g>
			</g>
			<g>
				<g>
					<path style="&st0;" d="M60.779,86.493c1.647,0.458,3.291,0.731,5.002,0.749c0.362,0.004,0.362-0.558,0-0.561
						c-1.66-0.017-3.256-0.285-4.853-0.729C60.579,85.855,60.431,86.396,60.779,86.493L60.779,86.493z"/>
				</g>
			</g>
			<g>
				<g>
					<path style="&st0;" d="M61.764,86c1.559,0.257,3.122,0.482,4.681,0.739c0.354,0.058,0.506-0.482,0.149-0.541
						c-1.559-0.257-3.122-0.482-4.681-0.739C61.56,85.401,61.408,85.942,61.764,86L61.764,86z"/>
				</g>
			</g>
			<g>
				<g>
					<path style="&st0;" d="M69.688,85.976c0.449,4.12,0.456,8.185-0.483,12.243c-0.081,0.352,0.46,0.502,0.541,0.149
						c0.948-4.098,0.957-8.225,0.503-12.393C70.211,85.62,69.649,85.617,69.688,85.976L69.688,85.976z"/>
				</g>
			</g>
			<g>
				<g>
					<path style="&st0;" d="M74.872,66.932c-0.246,1.61-0.246,3.22,0,4.83c0.055,0.357,0.595,0.205,0.541-0.149
						c-0.23-1.503-0.23-3.028,0-4.532C75.467,66.727,74.926,66.575,74.872,66.932L74.872,66.932z"/>
				</g>
			</g>
			<g>
				<g>
					<path style="&st0;" d="M74.698,71.886c1.502,1.223,3.122,2.018,5.051,2.289c0.354,0.05,0.506-0.491,0.149-0.541
						c-1.826-0.257-3.378-0.984-4.803-2.145C74.816,71.262,74.417,71.657,74.698,71.886L74.698,71.886z"/>
				</g>
			</g>
			<g>
				<g>
					<path style="&st0;" d="M82.145,74.886c1.823,1.26,3.832,1.966,6.054,2.009c0.362,0.007,0.361-0.554,0-0.561
						c-2.129-0.042-4.028-0.727-5.771-1.933C82.13,74.195,81.85,74.682,82.145,74.886L82.145,74.886z"/>
				</g>
			</g>
			<g>
				<g>
					<path style="&st0;" d="M86.154,74.175c1.369,0.521,2.803,0.732,4.263,0.749c0.362,0.004,0.362-0.557,0-0.561
						c-1.414-0.017-2.789-0.225-4.114-0.729C85.964,73.505,85.819,74.048,86.154,74.175L86.154,74.175z"/>
				</g>
			</g>
			<g>
				<g>
					<path style="&st0;" d="M87.878,72.943c1.127,0.281,2.195,0.45,3.352,0.246c0.356-0.063,0.205-0.604-0.149-0.541
						c-1.05,0.185-2.033,0.008-3.053-0.246C87.676,72.315,87.527,72.856,87.878,72.943L87.878,72.943z"/>
				</g>
			</g>
			<g>
				<g>
					<path style="&st0;" d="M87.878,71.219c1.397,0.454,2.791,0.731,4.263,0.749c0.362,0.004,0.362-0.557,0-0.561
						c-1.423-0.017-2.764-0.29-4.114-0.729C87.682,70.565,87.536,71.107,87.878,71.219L87.878,71.219z"/>
				</g>
			</g>
			<g>
				<g>
					<path style="&st0;" d="M89.849,69.494c0.801,0.251,1.649,0.298,2.464,0.493c0.352,0.084,0.501-0.457,0.149-0.541
						c-0.815-0.194-1.663-0.242-2.464-0.493C89.652,68.845,89.505,69.386,89.849,69.494L89.849,69.494z"/>
				</g>
			</g>
			<g>
				<g>
					<path style="&st0;" d="M90.029,67.996c-1.326,0.811-2.54,1.784-3.752,2.754c-0.283,0.226,0.117,0.62,0.397,0.397
						c1.175-0.94,2.353-1.88,3.639-2.666C90.62,68.292,90.338,67.807,90.029,67.996L90.029,67.996z"/>
				</g>
			</g>
			<g>
				<g>
					<path style="&st0;" d="M88.797,70.706c-1.395,0.716-2.637,1.654-3.752,2.754c-0.258,0.255,0.139,0.651,0.397,0.397
						c1.082-1.068,2.284-1.971,3.639-2.666C89.402,71.025,89.118,70.541,88.797,70.706L88.797,70.706z"/>
				</g>
			</g>
			<g>
				<g>
					<path style="&st0;" d="M83.87,74.393c2.073,0.993,4.248,1.475,6.547,1.27c0.358-0.032,0.361-0.593,0-0.561
						c-2.198,0.196-4.279-0.242-6.264-1.193C83.828,73.753,83.543,74.237,83.87,74.393L83.87,74.393z"/>
				</g>
			</g>
			<g>
				<g>
					<path style="&st0;" d="M84.183,74.914c1.899,0.441,3.809,0.51,5.741,0.256c0.354-0.046,0.358-0.608,0-0.561
						c-1.883,0.247-3.737,0.195-5.592-0.236C83.98,74.291,83.831,74.832,84.183,74.914L84.183,74.914z"/>
				</g>
			</g>
			<g>
				<g>
					<path style="&st0;" d="M89.603,70.726c0.835,0.272,1.745,0.495,2.613,0.246c0.347-0.1,0.199-0.641-0.149-0.541
						c-0.77,0.221-1.576-0.006-2.314-0.246C89.407,70.072,89.26,70.614,89.603,70.726L89.603,70.726z"/>
				</g>
			</g>
			<g>
				<g>
					<path style="&st0;" d="M89.435,65.424c0.706,1.177,1.417,2.357,1.943,3.628c0.136,0.33,0.679,0.185,0.541-0.149
						c-0.545-1.319-1.267-2.541-1.999-3.762C89.734,64.83,89.249,65.112,89.435,65.424L89.435,65.424z"/>
				</g>
			</g>
			<g>
				<g>
					<path style="&st0;" d="M94.827,85.065c1.237,3.322,1.914,6.722,1.961,10.273c0.005,0.362,0.566,0.362,0.561,0
						c-0.048-3.598-0.726-7.05-1.981-10.422C95.243,84.58,94.7,84.725,94.827,85.065L94.827,85.065z"/>
				</g>
			</g>
			<g>
				<g>
					<path style="&st0;" d="M86.826,88.682c1.246,0.723,2.601,1.211,4.009,1.506c0.353,0.074,0.503-0.467,0.149-0.541
						c-1.362-0.286-2.669-0.75-3.875-1.45C86.796,88.015,86.513,88.5,86.826,88.682L86.826,88.682z"/>
				</g>
			</g>
			<g>
				<g>
					<path style="&st0;" d="M87.811,87.204c0.655,0.315,1.35,0.538,2.038,0.767c0.344,0.115,0.491-0.427,0.149-0.541
						c-0.642-0.214-1.293-0.417-1.904-0.711C87.77,86.563,87.485,87.047,87.811,87.204L87.811,87.204z"/>
				</g>
			</g>
			<g>
				<g>
					<path style="&st0;" d="M89.536,86.711c0.721,0.464,1.496,0.757,2.359,0.777c0.362,0.009,0.361-0.553,0-0.561
						c-0.767-0.018-1.436-0.29-2.076-0.701C89.514,86.03,89.233,86.516,89.536,86.711L89.536,86.711z"/>
				</g>
			</g>
			<g>
				<g>
					<path style="&st0;" d="M91.204,86.175c0.388,0.357,0.849,0.619,1.232,0.985c0.261,0.25,0.659-0.146,0.397-0.397
						c-0.383-0.367-0.845-0.629-1.232-0.985C91.335,85.533,90.937,85.929,91.204,86.175L91.204,86.175z"/>
				</g>
			</g>
			<g>
				<g>
					<path style="&st0;" d="M87.919,87.208c-0.02,0.746-0.227,1.47-0.246,2.217c-0.009,0.362,0.552,0.361,0.561,0
						c0.02-0.746,0.227-1.47,0.246-2.217C88.49,86.846,87.928,86.847,87.919,87.208L87.919,87.208z"/>
				</g>
			</g>
			<g>
				<g>
					<path style="&st0;" d="M89.682,88.791c-0.463,0.996-0.53,2.015-0.531,3.098c0,0.362,0.561,0.362,0.561,0
						c0.001-0.973,0.037-1.917,0.454-2.815C90.318,88.748,89.834,88.463,89.682,88.791L89.682,88.791z"/>
				</g>
			</g>
			<g>
				<g>
					<path style="&st0;" d="M90.136,93.121c-0.001,0.463-0.016,0.906-0.208,1.337c-0.146,0.327,0.337,0.613,0.485,0.283
						c0.236-0.528,0.283-1.046,0.285-1.62C90.698,92.759,90.137,92.759,90.136,93.121L90.136,93.121z"/>
				</g>
			</g>
		</g>
	</g>
	<g>
		<g>
			<path style="&st0;" d="M57.893,58.033c0.487-0.806,1.016-1.496,1.681-2.16c0.256-0.256-0.141-0.653-0.397-0.397
				c-0.698,0.699-1.257,1.427-1.768,2.274C57.221,58.06,57.706,58.342,57.893,58.033L57.893,58.033z"/>
		</g>
	</g>
	<g>
		<g>
			<path style="&st0;" d="M50.233,98.349c-0.807,3.208-0.807,6.506,0,9.713c0.311,1.238,2.221,0.712,1.909-0.526
				c-0.722-2.868-0.722-5.793,0-8.661C52.454,97.637,50.544,97.112,50.233,98.349L50.233,98.349z"/>
		</g>
	</g>
	<g>
		<g>
			<path style="&st0;" d="M50.487,108.5c7.042,8.691,23.239,8.545,33.216,8.066c10.093-0.484,26.638-2.482,31.599-12.991
				c0.542-1.148-1.165-2.153-1.71-0.999c-4.65,9.851-20.499,11.44-29.889,12.011c-9.428,0.573-25.182,0.701-31.816-7.486
				C51.083,106.107,49.691,107.517,50.487,108.5L50.487,108.5z"/>
		</g>
	</g>
	<g>
		<g>
			<path style="&st0;" d="M109.285,96.95c2.097,1.958,3.302,4.546,3.122,7.437c-0.079,1.276,1.901,1.268,1.98,0
				c0.21-3.377-1.255-6.552-3.702-8.837C109.753,94.68,108.35,96.077,109.285,96.95L109.285,96.95z"/>
		</g>
	</g>
	<g>
		<g>
			<path style="&st0;" d="M95.218,115.911c0.134,0.309,0.32,1.032,0.541,1.472c0.454,0.907,1.306,1.563,2.177,2.033
				c0.506,0.273,1.036,0.097,1.354-0.355c0.595-0.846,0.953-1.712,1.003-2.75c0.048-1-0.317-1.998-0.343-2.999
				c-0.032-1.274-2.012-1.278-1.98,0c0.019,0.765,0.146,1.51,0.279,2.262c0.173,0.979-0.105,1.687-0.669,2.489
				c0.451-0.118,0.903-0.237,1.354-0.355c-1.307-0.706-1.473-1.563-2.007-2.795C96.421,113.743,94.716,114.753,95.218,115.911
				L95.218,115.911z"/>
		</g>
	</g>
	<g>
		<g>
			<path style="&st0;" d="M56.138,104.453c-0.11,1.229-0.222,2.462-0.246,3.695c-0.003,0.131,0.089,0.229,0.206,0.271
				c3.524,1.252,7.07,2.443,10.593,3.695c0.342,0.122,0.488-0.421,0.149-0.541c-2.776-0.987-5.565-1.936-8.347-2.904
				c-0.224-0.078-2.04-0.53-2.033-0.864c0.009-0.461,0.049-0.923,0.08-1.384c0.045-0.657,0.101-1.313,0.16-1.969
				C56.732,104.093,56.17,104.096,56.138,104.453L56.138,104.453z"/>
		</g>
	</g>
	<g>
		<g>
			<path style="&st0;" d="M53.024,100.107c9.323,3.458,18.836,5.872,28.833,5.728c9.934-0.144,19.423-3.583,28.102-8.19
				c1.128-0.599,0.128-2.308-0.999-1.71c-9.021,4.788-18.397,7.794-28.661,7.942c-9.191,0.133-18.216-2.514-26.749-5.679
				C52.351,97.753,51.838,99.667,53.024,100.107L53.024,100.107z"/>
		</g>
	</g>
	<g>
		<g>
			<path style="&st0;" d="M53.238,106.456c0.526-0.508,1.089-0.919,1.513-1.526c0.208-0.297-0.279-0.578-0.485-0.283
				c-0.394,0.564-0.937,0.94-1.425,1.412C52.58,106.311,52.978,106.708,53.238,106.456L53.238,106.456z"/>
		</g>
	</g>
	<g>
		<g>
			<path style="&st0;" d="M52.748,102.293c0.462-0.442,1.007-0.782,1.469-1.224c0.262-0.251-0.136-0.647-0.397-0.397
				c-0.462,0.442-1.007,0.782-1.469,1.224C52.089,102.147,52.487,102.543,52.748,102.293L52.748,102.293z"/>
		</g>
	</g>
	<g>
		<g>
			<path style="&st0;" d="M52.624,99.427c1.447-0.505,2.758-1.131,4.333-0.969c-0.025-0.184-0.05-0.367-0.075-0.551
				c-1.868,0.451-3.777,0.717-5.632,1.224c0.072,0.171,0.144,0.342,0.216,0.513c1.1-0.767,2.368-1.198,3.606-1.686
				c0.211-0.083,0.299-0.385,0.067-0.513c-0.592-0.325-2.737-0.043-3.078,0.59c-0.126,0.234,0.138,0.549,0.384,0.384
				c0.897-0.602,1.846-0.719,2.871-0.951c0.31-0.07,0.241-0.56-0.075-0.551c-1.689,0.05-2.717,0.889-3.872,2.041
				c-0.256,0.256,0.14,0.653,0.397,0.397c1.036-1.033,1.94-1.832,3.475-1.877c-0.025-0.184-0.05-0.367-0.075-0.551
				c-1.073,0.243-2.075,0.383-3.006,1.008c0.128,0.128,0.256,0.256,0.384,0.384c0.16-0.298,2.022-0.547,2.31-0.389
				c0.022-0.171,0.045-0.342,0.067-0.513c-1.281,0.505-2.602,0.948-3.74,1.742c-0.253,0.177-0.105,0.601,0.216,0.513
				c1.855-0.507,3.764-0.773,5.632-1.224c0.329-0.079,0.223-0.521-0.075-0.551c-1.628-0.167-2.98,0.466-4.482,0.99
				C52.136,99.004,52.282,99.546,52.624,99.427L52.624,99.427z"/>
		</g>
	</g>
	<g>
		<g>
			<path style="&st0;" d="M52.524,103.149c0.556,2.772,2.377,4.786,5.093,5.583c0.348,0.102,0.496-0.44,0.149-0.541
				c-2.539-0.745-4.183-2.609-4.701-5.191C52.994,102.645,52.453,102.795,52.524,103.149L52.524,103.149z"/>
		</g>
	</g>
	<g>
		<g>
			<path style="&st0;" d="M53.604,109.467c1.128-0.407,2.208-1.201,3.062-2.031c0.26-0.253-0.137-0.649-0.397-0.397
				c-0.778,0.757-1.783,1.515-2.815,1.887C53.117,109.047,53.263,109.59,53.604,109.467L53.604,109.467z"/>
		</g>
	</g>
	<g>
		<g>
			<path style="&st0;" d="M55.14,111.152c1.216-0.75,2.235-1.732,3.24-2.737c0.256-0.256-0.141-0.653-0.397-0.397
				c-0.972,0.971-1.951,1.925-3.127,2.65C54.549,110.857,54.831,111.343,55.14,111.152L55.14,111.152z"/>
		</g>
	</g>
	<g>
		<g>
			<path style="&st0;" d="M58.38,111.109c0.653-0.653,1.306-1.306,1.959-1.959c0.256-0.256-0.141-0.653-0.397-0.397
				c-0.653,0.653-1.306,1.306-1.959,1.959C57.727,110.968,58.124,111.365,58.38,111.109L58.38,111.109z"/>
		</g>
	</g>
	<g>
		<g>
			<path style="&st0;" d="M61.319,112.823c0.181-0.179,0.346-0.376,0.611-0.418c0.357-0.056,0.205-0.597-0.149-0.541
				c-0.358,0.056-0.61,0.316-0.858,0.562C60.664,112.681,61.061,113.078,61.319,112.823L61.319,112.823z"/>
		</g>
	</g>
	<g>
		<g>
			<path style="&st0;" d="M64.378,112.895c1.121-0.307,2.072-1.06,2.616-2.088c0.169-0.32-0.315-0.603-0.485-0.283
				c-0.479,0.904-1.293,1.56-2.281,1.83C63.88,112.449,64.029,112.991,64.378,112.895L64.378,112.895z"/>
		</g>
	</g>
	<g>
		<g>
			<path style="&st0;" d="M54.8,106.701c4.058,3.873,9.348,6.32,14.816,7.418c0.353,0.071,0.504-0.47,0.149-0.541
				c-5.377-1.08-10.577-3.464-14.569-7.274C54.935,106.054,54.538,106.451,54.8,106.701L54.8,106.701z"/>
		</g>
	</g>
	<g>
		<g>
			<path style="&st0;" d="M53.143,107.479c3.889,2.472,8.285,3.632,12.875,3.711c0.362,0.006,0.362-0.555,0-0.561
				c-4.5-0.078-8.779-1.212-12.592-3.635C53.12,106.8,52.838,107.286,53.143,107.479L53.143,107.479z"/>
		</g>
	</g>
	<g>
		<g>
			<path style="&st0;" d="M55.197,108.905c1.481-1.455,3.155-2.67,4.841-3.874c0.292-0.208,0.012-0.696-0.283-0.485
				c-1.724,1.232-3.439,2.474-4.954,3.962C54.541,108.762,54.939,109.158,55.197,108.905L55.197,108.905z"/>
		</g>
	</g>
	<g>
		<g>
			<path style="&st0;" d="M54.998,105.804c1.954-0.226,3.923-0.263,5.877-0.49c0.355-0.041,0.359-0.603,0-0.561
				c-1.954,0.226-3.923,0.263-5.877,0.49C54.643,105.283,54.639,105.845,54.998,105.804L54.998,105.804z"/>
		</g>
	</g>
	<g>
		<g>
			<path style="&st0;" d="M54.122,104.296c1.563,1.1,3.239,1.996,4.897,2.938c0.315,0.179,0.598-0.306,0.283-0.485
				c-1.659-0.942-3.335-1.839-4.897-2.938C54.109,103.603,53.829,104.09,54.122,104.296L54.122,104.296z"/>
		</g>
	</g>
	<g>
		<g>
			<path style="&st0;" d="M57.306,110.173c3.248,1.456,6.634,2.449,10.107,3.212c0.353,0.077,0.503-0.464,0.149-0.541
				c-3.425-0.752-6.767-1.718-9.973-3.155C57.261,109.542,56.976,110.025,57.306,110.173L57.306,110.173z"/>
		</g>
	</g>
	<g>
		<g>
			<path style="&st0;" d="M65.208,113.385c3.727,0.959,7.503,1.466,11.339,1.724c0.361,0.024,0.359-0.537,0-0.561
				c-3.784-0.255-7.514-0.759-11.19-1.704C65.007,112.753,64.858,113.295,65.208,113.385L65.208,113.385z"/>
		</g>
	</g>
	<g>
		<g>
			<path style="&st0;" d="M66.433,112.895c5.256,1.824,11.468,1.929,16.971,1.969c0.362,0.003,0.362-0.559,0-0.561
				c-5.483-0.039-11.599-0.137-16.822-1.949C66.239,112.235,66.093,112.777,66.433,112.895L66.433,112.895z"/>
		</g>
	</g>
	<g>
		<g>
			<path style="&st0;" d="M62.345,86.459c0.362,0,0.362-0.561,0-0.561S61.983,86.459,62.345,86.459L62.345,86.459z"/>
		</g>
	</g>
	<g>
		<g>
			<path style="&st0;" d="M62.102,86.036c-0.842,1.453-1.18,2.974-0.763,4.624c0.089,0.351,0.63,0.202,0.541-0.149
				c-0.381-1.507-0.061-2.867,0.706-4.191C62.769,86.006,62.284,85.723,62.102,86.036L62.102,86.036z"/>
		</g>
	</g>
	<g>
		<g>
			<path style="&st0;" d="M80.595,32.735c-1.277,3.49,0.869,6.517,4.341,7.3c1.243,0.28,1.772-1.628,0.526-1.909
				c-2.483-0.56-3.876-2.355-2.958-4.864C82.944,32.059,81.03,31.546,80.595,32.735L80.595,32.735z"/>
		</g>
	</g>
	<g>
		<g>
			<path style="&st0;" d="M82.158,34.596c1.551,0.015,3.191,0.128,4.521,1.006c1.435,0.947,0.673,2.994,0.098,4.195
				c-0.549,1.146,1.158,2.15,1.71,0.999c0.907-1.894,1.61-4.328,0.074-6.113c-1.539-1.79-4.197-2.045-6.403-2.067
				C80.88,32.604,80.882,34.584,82.158,34.596L82.158,34.596z"/>
		</g>
	</g>
	<g>
		<g>
			<path style="&st0;" d="M87.27,34.714c4.455-9.43,9.533-18.547,13.988-27.976c0.542-1.148-1.164-2.153-1.71-0.999
				c-4.455,9.43-9.533,18.547-13.988,27.976C85.018,34.862,86.725,35.868,87.27,34.714L87.27,34.714z"/>
		</g>
	</g>
	<g>
		<g>
			<path style="&st0;" d="M95.429,42.976c0.609-0.343,0.9-1.008,1.451-1.376c1.114-0.743,3.497,1.417,4.239,1.984
				c-0.163-0.285-0.327-0.57-0.49-0.855c-0.073,0.894-1.205,1.64-1.812,2.19c-0.776,0.703-1.408,1.437-1.802,2.412
				c-0.479,1.185,1.437,1.694,1.909,0.526c0.676-1.673,2.776-2.358,3.462-4.081c0.272-0.683,0.373-1.413-0.268-1.902
				c-0.945-0.721-1.91-1.41-2.997-1.901c-1.046-0.472-2.202-0.67-3.241-0.083c-0.577,0.326-1.007,1.126-1.451,1.376
				C93.318,41.892,94.315,43.603,95.429,42.976L95.429,42.976z"/>
		</g>
	</g>
	<g>
		<g>
			<path style="&st0;" d="M100.495,40.388c5.173-6.363,10.041-12.951,14.751-19.662c0.735-1.048-0.982-2.036-1.71-0.999
				c-4.613,6.573-9.375,13.029-14.442,19.262C98.297,39.969,99.689,41.379,100.495,40.388L100.495,40.388z"/>
		</g>
	</g>
	<g>
		<g>
			<path style="&st0;" d="M100.403,9.273c5.484,0,5.484-8.504,0-8.504S94.919,9.273,100.403,9.273L100.403,9.273z"/>
		</g>
	</g>
	<g>
		<g>
			<path style="&st0;" d="M115.403,23.273c5.484,0,5.484-8.504,0-8.504S109.919,23.273,115.403,23.273L115.403,23.273z"/>
		</g>
	</g>
	<g>
		<g>
			<g>
				<path style="&st0;" d="M62.307,116.462c0.59,1.624,1.661,4.269,3.763,4.269c2.386,0,2.749-3.664,2.907-5.32
					c0.121-1.271-1.86-1.259-1.98,0c-0.086,0.901-0.23,1.787-0.535,2.642c-0.069,0.195-0.181,0.412-0.313,0.571
					c-0.149,0.178-0.096,0.127-0.183,0.127c-0.061,0-0.49-0.4-0.655-0.623c-0.488-0.657-0.817-1.429-1.095-2.193
					C63.784,114.746,61.871,115.259,62.307,116.462L62.307,116.462z"/>
			</g>
		</g>
		<g>
			<g>
				<path style="&st0;" d="M73.95,119.41c0.866-1.536,0.91-3.549,1.076-5.264c0.107-1.1-1.608-1.089-1.713,0
					c-0.136,1.398-0.136,3.147-0.843,4.399C71.927,119.509,73.407,120.373,73.95,119.41L73.95,119.41z"/>
			</g>
		</g>
		<g>
			<g>
				<path style="&st0;" d="M72.542,117.617c-4.955,0.971-10.041,0.021-15.038-0.029c0.286,0.286,0.571,0.571,0.857,0.857
					c-0.251-1.898,0.28-3.756,0.535-5.627c0.147-1.08-1.503-1.546-1.652-0.455c-0.274,2.011-0.866,4.041-0.597,6.082
					c0.062,0.467,0.343,0.851,0.857,0.857c5.17,0.052,10.365,0.973,15.493-0.032C74.081,119.057,73.621,117.405,72.542,117.617
					L72.542,117.617z"/>
			</g>
		</g>
		<g>
			<g>
				<path style="&st0;" d="M69.363,119.443c-0.546,1.699-0.501,3.489-1.408,5.068c0.247-0.141,0.493-0.283,0.74-0.424
					c-1.189,0.13-2.587,0.353-3.257-0.842c-0.634-1.129-0.913-2.501-1.433-3.691c-0.442-1.01-1.917-0.137-1.479,0.865
					c0.848,1.94,1.106,4.599,3.429,5.315c0.806,0.249,2.991,0.492,3.48-0.359c0.994-1.729,0.985-3.622,1.581-5.477
					C71.354,118.844,69.699,118.396,69.363,119.443L69.363,119.443z"/>
			</g>
		</g>
		<g>
			<g>
				<path style="&st0;" d="M67.553,125.99c1.805,2.07,3.525,4.236,4.691,6.794c0.026,0.058,0.179,0.415,0.082,0.182
					c0.045,0.107,0.087,0.214,0.128,0.322c0.085,0.22,0.161,0.443,0.23,0.668c0.119,0.383,0.209,0.775,0.267,1.172
					c-0.046-0.316-0.002,0.001,0.005,0.075c0.008,0.083,0.013,0.167,0.017,0.251c0.008,0.172,0.006,0.344-0.004,0.515
					c-0.004,0.075-0.012,0.15-0.02,0.225c-0.017,0.154,0.034-0.234,0.011-0.082c-0.005,0.036-0.012,0.071-0.018,0.107
					c-0.026,0.15-0.064,0.297-0.109,0.442c-0.02,0.065-0.043,0.129-0.067,0.192c-0.087,0.233,0.077-0.167-0.004,0.01
					c-0.059,0.129-0.128,0.252-0.203,0.372c-0.034,0.055-0.071,0.108-0.109,0.16c-0.111,0.156,0.15-0.183-0.004,0.004
					c-0.089,0.108-0.186,0.209-0.288,0.305c-0.047,0.045-0.096,0.087-0.146,0.13c-0.175,0.148,0.014-0.007-0.007,0.009
					c-0.116,0.087-0.238,0.166-0.362,0.24c-0.118,0.071-0.24,0.134-0.364,0.194c-0.063,0.031-0.128,0.059-0.192,0.087
					c0.306-0.133,0.013-0.008-0.062,0.02c-0.293,0.11-0.595,0.194-0.899,0.262c-0.154,0.034-0.309,0.063-0.464,0.088
					c-0.075,0.012-0.378,0.053-0.051,0.01c-0.095,0.013-0.19,0.023-0.285,0.033c-0.721,0.074-1.449,0.069-2.171,0.017
					c-0.182-0.013-0.365-0.03-0.546-0.05c-0.092-0.01-0.184-0.021-0.275-0.032c-0.06-0.008-0.236-0.032,0.043,0.006
					c-0.062-0.008-0.123-0.017-0.185-0.026c-0.389-0.057-0.776-0.129-1.161-0.212c-0.778-0.167-1.545-0.387-2.296-0.65
					c-0.179-0.063-0.357-0.129-0.534-0.197c-0.088-0.034-0.176-0.069-0.263-0.104c-0.044-0.018-0.087-0.036-0.13-0.053
					c-0.14-0.058,0.204,0.087-0.011-0.005c-0.353-0.151-0.7-0.316-1.041-0.492c-0.643-0.331-1.262-0.71-1.84-1.146
					c-0.167-0.126,0.157,0.126-0.052-0.042c-0.063-0.05-0.125-0.102-0.186-0.153c-0.13-0.11-0.256-0.224-0.38-0.341
					c-0.225-0.214-0.436-0.443-0.63-0.685c-0.094-0.117,0.136,0.179,0.046,0.06c-0.021-0.028-0.042-0.057-0.063-0.085
					c-0.041-0.056-0.081-0.114-0.12-0.172c-0.082-0.122-0.158-0.249-0.229-0.379c-0.049-0.09-0.234-0.507-0.098-0.182
					c-0.054-0.128-0.099-0.26-0.137-0.394c-0.035-0.121-0.062-0.245-0.083-0.369c-0.032-0.192,0.027,0.254,0.003,0.01
					c-0.007-0.073-0.011-0.146-0.012-0.219c-0.003-0.127,0.003-0.253,0.016-0.379c0.019-0.195-0.042,0.25,0.001,0.005
					c0.013-0.075,0.03-0.15,0.048-0.224c0.033-0.131,0.075-0.26,0.123-0.386c0.07-0.185-0.097,0.211,0.01-0.022
					c0.035-0.077,0.074-0.152,0.114-0.227c0.072-0.135,0.154-0.264,0.24-0.391c0.045-0.067,0.093-0.131,0.141-0.196
					c-0.188,0.25,0.027-0.029,0.077-0.088c0.188-0.221,0.394-0.426,0.608-0.621c0.124-0.113,0.252-0.221,0.382-0.326
					c0.027-0.022,0.054-0.044,0.082-0.065c0.149-0.118-0.158,0.12-0.004,0.004c0.073-0.055,0.147-0.109,0.221-0.163
					c0.689-0.496,1.434-0.912,2.194-1.288c0.996-0.492,1.718-0.777,2.795-1.163c1.273-0.456,2.571-0.841,3.877-1.189
					c1.067-0.284,0.614-1.937-0.455-1.652c-2.82,0.751-5.683,1.661-8.22,3.133c-1.412,0.819-2.931,1.944-3.59,3.496
					c-1.214,2.859,0.956,5.303,3.254,6.748c2.676,1.682,6.004,2.622,9.159,2.658c2.619,0.03,5.892-0.82,6.527-3.766
					c0.371-1.722-0.206-3.48-0.928-5.029c-1.197-2.569-3.03-4.85-4.881-6.972C68.037,123.944,66.831,125.161,67.553,125.99
					L67.553,125.99z"/>
			</g>
		</g>
		<g>
			<g>
				<path style="&st0;" d="M67.748,132.875c1.078-2.099,0.353-5.531-0.234-7.676c-0.116-0.426-0.778-0.245-0.661,0.182
					c0.359,1.315,0.536,2.653,0.61,4.013c0.053,0.97,0.151,2.244-0.307,3.136C66.954,132.921,67.546,133.268,67.748,132.875
					L67.748,132.875z"/>
			</g>
		</g>
		<g>
			<g>
				<path style="&st0;" d="M67.128,129.633c0.173-1.789,0.346-3.578,0.519-5.367c0.106-1.1-1.608-1.09-1.713,0
					c-0.173,1.789-0.346,3.578-0.519,5.367C65.308,130.733,67.022,130.723,67.128,129.633L67.128,129.633z"/>
			</g>
		</g>
		<g>
			<g>
				<path style="&st0;" d="M67.94,132.406c-1.456-0.175-2.795-0.764-4.124-1.353c-0.4-0.178-0.749,0.413-0.346,0.592
					c1.447,0.642,2.885,1.257,4.469,1.447C68.378,133.144,68.373,132.458,67.94,132.406L67.94,132.406z"/>
			</g>
		</g>
		<g>
			<g>
				<path style="&st0;" d="M66.378,132.072c0.063-0.65,0.126-1.301,0.189-1.951c0.043-0.44-0.643-0.436-0.685,0
					c-0.063,0.65-0.126,1.301-0.189,1.951C65.65,132.512,66.336,132.508,66.378,132.072L66.378,132.072z"/>
			</g>
		</g>
		<g>
			<g>
				<path style="&st0;" d="M66.964,132.997c0.442,0,0.442-0.685,0-0.685C66.522,132.312,66.522,132.997,66.964,132.997
					L66.964,132.997z"/>
			</g>
		</g>
		<g>
			<g>
				<path style="&st0;" d="M67.606,134.653c0.157-1.626,0.314-3.252,0.472-4.879c0.043-0.44-0.643-0.436-0.685,0
					c-0.157,1.626-0.314,3.252-0.472,4.879C66.878,135.093,67.564,135.089,67.606,134.653L67.606,134.653z"/>
			</g>
		</g>
		<g>
			<g>
				<path style="&st0;" d="M65.689,134.068c0.596-1.421,0.777-2.914,0.925-4.435c0.043-0.44-0.643-0.436-0.685,0
					c-0.142,1.463-0.328,2.888-0.9,4.253C64.857,134.293,65.521,134.469,65.689,134.068L65.689,134.068z"/>
			</g>
		</g>
		<g>
			<g>
				<path style="&st0;" d="M63.885,131.591c1.93-2.248,3.003-5.389,3.342-8.3c0.051-0.439-0.635-0.434-0.685,0
					c-0.317,2.727-1.336,5.712-3.141,7.816C63.115,131.44,63.597,131.927,63.885,131.591L63.885,131.591z"/>
			</g>
		</g>
		<g>
			<g>
				<path style="&st0;" d="M69.336,120.318c1.849-0.76,3.386-2.077,4.914-3.335c0.341-0.281-0.146-0.763-0.485-0.485
					c-1.429,1.177-2.881,2.447-4.612,3.159C68.751,119.822,68.927,120.486,69.336,120.318L69.336,120.318z"/>
			</g>
		</g>
		<g>
			<g>
				<path style="&st0;" d="M68.806,120.089c0.975-1.492,2.389-2.631,3.365-4.124c0.243-0.371-0.351-0.714-0.592-0.346
					c-0.975,1.492-2.389,2.631-3.365,4.124C67.972,120.114,68.565,120.457,68.806,120.089L68.806,120.089z"/>
			</g>
		</g>
		<g>
			<g>
				<path style="&st0;" d="M68.089,119.353c0.995-0.82,1.845-1.704,2.542-2.795c0.239-0.374-0.355-0.717-0.592-0.346
					c-0.667,1.043-1.485,1.873-2.435,2.656C67.263,119.149,67.751,119.631,68.089,119.353L68.089,119.353z"/>
			</g>
		</g>
		<g>
			<g>
				<path style="&st0;" d="M66.673,119.141c0.832-1.28,2.07-2.353,3.24-3.32c0.341-0.282-0.147-0.764-0.485-0.485
					c-1.22,1.008-2.48,2.125-3.347,3.459C65.84,119.167,66.433,119.51,66.673,119.141L66.673,119.141z"/>
			</g>
		</g>
		<g>
			<g>
				<path style="&st0;" d="M64.398,119.663c0.856-1.34,2.025-2.318,3.24-3.32c0.341-0.281-0.146-0.763-0.485-0.485
					c-1.264,1.041-2.458,2.067-3.347,3.459C63.568,119.691,64.161,120.034,64.398,119.663L64.398,119.663z"/>
			</g>
		</g>
	</g>
	<g>
		<g>
			<path style="&st0;" d="M71.1,117.629c-1.27-0.78-2.843-1.719-4.348-1.93c-0.432-0.061-0.618,0.6-0.182,0.661
				c1.457,0.204,2.951,1.103,4.184,1.861C71.132,118.453,71.476,117.86,71.1,117.629L71.1,117.629z"/>
		</g>
	</g>
	<g>
		<g>
			<path style="&st0;" d="M65.958,117.132c-1.348-0.819-2.866-1.401-4.348-1.93c-0.417-0.149-0.595,0.513-0.182,0.661
				c1.43,0.51,2.884,1.071,4.184,1.861C65.991,117.954,66.335,117.361,65.958,117.132L65.958,117.132z"/>
		</g>
	</g>
	<g>
		<g>
			<path style="&st0;" d="M63.019,116.848c-1.637-1.025-3.233-1.789-5.174-2.013c-0.439-0.051-0.434,0.635,0,0.685
				c1.807,0.209,3.309,0.969,4.828,1.92C63.049,117.675,63.392,117.082,63.019,116.848L63.019,116.848z"/>
		</g>
	</g>
	<g>
		<g>
			<g>
				<path style="&st0;" d="M98.239,117.1c-0.978,7.084,3.38,12.38,3.521,19.342c0.021,1.055,1.659,1.057,1.638,0
					c-0.135-6.699-4.506-12.19-3.579-18.906C99.961,116.503,98.383,116.058,98.239,117.1L98.239,117.1z"/>
			</g>
		</g>
		<g>
			<g>
				<path style="&st0;" d="M101.939,136.991c-0.009,0.542-0.289,1.4,0.338,1.725c0.715,0.371,1.157-0.268,1.6-0.714
					c-0.429-0.055-0.857-0.11-1.286-0.166c0.079,0.118,0.112,0.149,0.148,0.279c-0.037-0.135,0.105-0.278,0.015-0.182
					c0.106-0.112-0.053,0.032-0.101,0.058c-0.155,0.083,0.177-0.064,0.061-0.025c0.346,0.263,0.691,0.526,1.037,0.79
					c-0.05-0.683-0.1-1.367-0.178-2.048c-0.043-0.379-0.059-0.877-0.466-1.071c-0.405-0.193-0.879-0.114-1.12,0.294
					c-0.225,0.38-0.08,0.955-0.017,1.356c0.073,0.47,0.196,1.051,0.566,1.381c0.785,0.701,1.947-0.453,1.158-1.158
					c-0.135-0.121,0.096,0.155,0.023,0.033c-0.107-0.179,0.053,0.167-0.022-0.054c-0.059-0.171-0.095-0.351-0.127-0.529
					c-0.011-0.058-0.056-0.374-0.02-0.102c-0.01-0.077-0.018-0.155-0.026-0.232c-0.006-0.058-0.01-0.117-0.013-0.176
					c-0.011-0.22,0.09-0.03-0.108,0.306c-0.373,0.098-0.747,0.196-1.12,0.294c0.001,0,0.002,0.001,0.002,0.001
					c-0.098-0.098-0.196-0.196-0.294-0.294c-0.141-0.282-0.071-0.173-0.052-0.046c-0.046-0.301,0.016,0.153,0.023,0.225
					c0.064,0.605,0.108,1.212,0.152,1.818c0.037,0.499,0.5,0.973,1.037,0.79c1.121-0.384,1.524-1.539,0.855-2.536
					c-0.291-0.433-0.896-0.558-1.286-0.166c-0.124,0.124-0.246,0.25-0.366,0.378c-0.189,0.2-0.265,0.138,0.131,0.003
					c0.21,0.028,0.421,0.055,0.631,0.083c-0.004-0.002-0.008-0.004-0.011-0.006c0.125,0.163,0.251,0.326,0.376,0.489
					c0.088,0.27,0.028,0.099,0.05-0.071c0.031-0.242,0.044-0.485,0.048-0.729C103.593,135.934,101.956,135.936,101.939,136.991
					L101.939,136.991z"/>
			</g>
		</g>
		<g>
			<g>
				<path style="&st0;" d="M101.987,135.186c-3.309,1.662-7.61,1.788-11.105,0.695c-1.011-0.316-1.44,1.265-0.435,1.579
					c3.931,1.23,8.663,1,12.367-0.86C103.758,136.126,102.928,134.713,101.987,135.186L101.987,135.186z"/>
			</g>
		</g>
		<g>
			<g>
				<path style="&st0;" d="M90.474,134.726c-0.48-0.783-0.526-0.939-1.219-1.385c-0.25-0.161-0.574-0.135-0.827,0
					c-1.563,0.839-0.848,2.796-0.74,4.192c0.044,0.571,0.678,1.083,1.232,0.707c0.909-0.617,1.089-3.453,0.774-4.404
					c-0.15-0.452-0.55-0.655-1.007-0.572c-0.359,0.065-0.523,0.31-0.708,0.598c0.471,0,0.943,0,1.414,0
					c-0.05-0.094-0.101-0.188-0.151-0.283c-0.315-0.589-1.073-0.466-1.414,0c-0.39,0.534-0.318,1.401-0.327,2.029
					c-0.007,0.515,0.531,0.954,1.037,0.79c0.361-0.117,0.723-0.235,1.084-0.352c0.35-0.114,0.6-0.412,0.601-0.79
					c0.001-0.405,0.003-0.811,0.004-1.216c0.004-1.082-1.52-1.022-1.638,0c-0.608,5.283-0.564,10.618-0.42,15.926
					c0.029,1.054,1.666,1.057,1.638,0c-0.144-5.308-0.189-10.643,0.42-15.926c-0.546,0-1.092,0-1.638,0
					c0.189,0.51,0.027,0.769-0.488,0.779c0.346,0.263,0.691,0.526,1.037,0.79c0.004-0.293-0.059-0.981,0.103-1.203
					c-0.471,0-0.943,0-1.414,0c0.05,0.094,0.101,0.188,0.151,0.283c0.302,0.564,1.096,0.497,1.414,0
					c-0.09,0.052-0.181,0.103-0.271,0.155c-0.336-0.191-0.672-0.381-1.007-0.572c0.253,0.764-0.652,2.982-0.021,2.554
					c0.411,0.236,0.821,0.471,1.232,0.707c-0.039-0.497-0.531-2.412-0.266-1.981C89.611,136.451,91.028,135.629,90.474,134.726
					L90.474,134.726z"/>
			</g>
		</g>
		<g>
			<g>
				<path style="&st0;" d="M89.153,150.338c-0.377-0.778-0.904-2.074-1.992-1.597c-0.825,0.361-0.351,1.831-0.201,2.43
					c0.062,0.248,0.134,0.493,0.207,0.738c0.133,0.449,0.13-0.289,0.06,0.328c-0.053,0.47,0.366,0.893,0.826,0.893
					c0.624,0,0.891-0.641,1.114-1.118c0.412-0.88,1.507-2.911,0.633-3.799c-0.252-0.256-0.624-0.354-0.972-0.264
					c0.37-0.096,0.478,0.039,0.129-0.069c-0.185-0.058-0.373-0.106-0.562-0.15c-0.888-0.206-2.022-0.024-1.814,1.161
					c0.526-0.145,1.053-0.29,1.579-0.435c-0.3-0.77-1.36-0.907-1.637-0.029c-0.14,0.445-0.107,0.991-0.111,1.451
					c-0.005,0.483-0.026,1.015,0.092,1.487c0.228,0.915,1.397,0.748,1.647-0.042c-0.191,0.191-0.381,0.381-0.572,0.572
					c0.876-0.346,1.458-1.066,1.58-2.003c0.065-0.499-0.407-0.934-0.879-0.929c-0.554,0.006-0.855,0.513-1.081,0.945
					c-0.49,0.934,0.924,1.762,1.414,0.827c0.266-0.507,0.204-0.14-0.304-0.134c-0.193-0.08-0.386-0.16-0.579-0.24
					c-0.172-0.172-0.17-0.658-0.234-0.454c-0.026,0.082-0.097,0.178-0.153,0.244c-0.126,0.149-0.227,0.149-0.395,0.247
					c-0.123,0.073-0.221,0.171-0.294,0.294c-0.135,0.292-0.105,0.264,0.091-0.085c0.193-0.08,0.386-0.16,0.579-0.24
					c-0.004,0-0.007,0-0.011-0.001c0.193,0.08,0.386,0.16,0.579,0.24c0.263,0.332,0.209,0.439,0.174,0.242
					c0.044,0.248,0.001-0.091-0.002-0.139c-0.014-0.24-0.015-0.48-0.015-0.721c-0.001-0.25,0.006-0.499,0.016-0.749
					c0.005-0.115,0.013-0.229,0.023-0.343c0.011-0.104,0.01-0.092-0.005,0.037c0.055-0.218-0.057-0.089-0.336,0.39
					c-0.276,0-0.551,0-0.827,0c-0.113-0.144-0.227-0.289-0.34-0.433c0.383,0.984,1.763,0.612,1.579-0.435
					c0.172,0.979-0.984,0.769-0.34,0.822c0.123,0.01,0.261,0.061,0.382,0.091c0.19,0.048,0.378,0.107,0.564,0.17
					c0.14,0.047,0.306,0.041,0.447,0.004c-0.364,0.094-0.737-0.337-0.75-0.525c0.015,0.219-0.011,0.204-0.085,0.49
					c-0.125,0.482-0.306,0.955-0.503,1.411c-0.085,0.195-0.175,0.387-0.27,0.577c-0.04,0.079-0.082,0.157-0.126,0.234
					c-0.105,0.185,0.222-0.174,0.357-0.206c0.266,0.07,0.531,0.14,0.797,0.211c0.076,0.179,0.153,0.358,0.229,0.537
					c-0.025,0.161-0.027,0.193-0.007,0.095c0.059-0.259,0.032-0.444-0.048-0.694c-0.149-0.468-0.277-0.943-0.382-1.422
					c-0.031-0.139-0.06-0.282-0.074-0.422c-0.006-0.06-0.008-0.119-0.007-0.179c-0.048,0.458-0.448,0.603-1.201,0.434
					c0.274,0.232,0.444,0.769,0.597,1.085C88.2,152.114,89.612,151.284,89.153,150.338L89.153,150.338z"/>
			</g>
		</g>
		<g>
			<g>
				<path style="&st0;" d="M87.806,151.3c0.323,3.417,0.589,6.728,1.618,10.025c0.317,1.015,1.785,0.594,1.579-0.435
					c-0.651-3.25-1.007-6.546-1.589-9.808c-0.526,0.145-1.053,0.29-1.579,0.435c0.57,3.04,1.203,6.07,2.133,9.023
					c0.316,1.004,1.897,0.575,1.579-0.435c-0.93-2.953-1.563-5.983-2.133-9.023c-0.195-1.04-1.763-0.595-1.579,0.435
					c0.582,3.262,0.938,6.557,1.589,9.808c0.526-0.145,1.053-0.29,1.579-0.435c-0.984-3.153-1.25-6.321-1.559-9.59
					C89.345,150.258,87.706,150.249,87.806,151.3L87.806,151.3z"/>
			</g>
		</g>
		<g>
			<g>
				<path style="&st0;" d="M89.634,160.436c-1.623,0.268-3.303,0.493-4.877,0.978c-1.006,0.31-0.587,1.858,0.435,1.579
					c1.477-0.403,3.043-0.413,4.516-0.86c-0.21-0.499-0.421-0.998-0.631-1.497c-0.816,0.37-1.685,0.685-2.581,0.793
					c-0.214,0.026-0.43,0.03-0.645,0.027c-0.252-0.003-0.251-0.079-0.075,0.035c0.135,0.236,0.27,0.471,0.406,0.707
					c0-0.003,0-0.006,0.001-0.009c-0.2,0.263-0.401,0.526-0.601,0.79c-0.232,0.068-0.144,0.022,0.099,0.083
					c0.426,0.107,0.836,0.276,1.241,0.443c0.977,0.403,1.398-1.183,0.435-1.579c-0.598-0.247-1.53-0.724-2.211-0.526
					c-0.373,0.109-0.57,0.418-0.601,0.79c0,0.003,0,0.006-0.001,0.009c-0.024,0.29,0.176,0.558,0.406,0.707
					c0.418,0.271,1.082,0.202,1.547,0.162c1.197-0.105,2.321-0.524,3.407-1.016c0.855-0.388,0.244-1.762-0.631-1.497
					c-1.473,0.447-3.039,0.457-4.516,0.86c0.145,0.526,0.29,1.053,0.435,1.579c1.575-0.485,3.254-0.709,4.877-0.978
					C91.11,161.843,90.667,160.265,89.634,160.436L89.634,160.436z"/>
			</g>
		</g>
	</g>
	<g>
		<g>
			<path style="&st0;" d="M87.344,150.147c-2.822,1.092-5.747,1.757-8.678,2.479c-1.025,0.253-0.59,1.832,0.435,1.579
				c2.93-0.722,5.856-1.387,8.678-2.479C88.754,151.349,88.331,149.765,87.344,150.147L87.344,150.147z"/>
		</g>
	</g>
	<g>
		<g>
			<path style="&st0;" d="M78.797,153.002c-0.996,2.307-0.71,5.418-0.732,7.887c0.536-0.073,1.072-0.145,1.609-0.218
				c0.01,0.061,0.019,0.121,0.029,0.182c0-1.056-1.638-1.056-1.638,0c0,0.094,0.006,0.113,0.029,0.254
				c0.156,0.934,1.601,0.679,1.609-0.218c0.008-0.969,0.033-1.937,0.071-2.905c0.05-1.265-0.075-2.968,0.437-4.155
				C80.625,152.87,79.215,152.035,78.797,153.002L78.797,153.002z"/>
		</g>
	</g>
	<g>
		<g>
			<path style="&st0;" d="M79.703,161.473c0.001-3.046,0.035-6.075,0.591-9.08c0.191-1.032-1.387-1.473-1.579-0.435
				c-0.583,3.15-0.648,6.32-0.649,9.515C78.065,162.529,79.703,162.529,79.703,161.473L79.703,161.473z"/>
		</g>
	</g>
	<g>
		<g>
			<path style="&st0;" d="M79.286,153.585c2.917,0.667,5.919,0.648,8.895,0.649c1.056,0,1.056-1.637,0-1.638
				c-2.827-0.001-5.689,0.043-8.46-0.591C78.694,151.771,78.257,153.35,79.286,153.585L79.286,153.585z"/>
		</g>
	</g>
</g>
</svg>
