<?xml version="1.0" encoding="utf-8"?>
<!-- Generator: Adobe Illustrator 17.0.0, SVG Export Plug-In . SVG Version: 6.00 Build 0)  -->
<!DOCTYPE svg PUBLIC "-//W3C//DTD SVG 1.1//EN" "http://www.w3.org/Graphics/SVG/1.1/DTD/svg11.dtd" [
	<!ENTITY st0 "fill:#3D3D3D;">
]>
<svg version="1.1" id="Calque_1" xmlns="http://www.w3.org/2000/svg" xmlns:xlink="http://www.w3.org/1999/xlink" x="0px" y="0px"
	 width="166px" height="167px" viewBox="0 0 166 167" style="enable-background:new 0 0 166 167;" xml:space="preserve">
<g>
	<g>
		<g>
			<path style="&st0;" d="M15.498,129.688c15.057-1.103,30.135-1.89,45.227-2.299c7.639-0.207,15.281-0.28,22.923-0.229
				c5.386,0.036,10.908,0.764,16.212-0.243c0.352-0.067,0.601-0.447,0.6-0.788c-0.041-9.594-0.684-19.164-1.418-28.726
				c-0.389-5.064-0.813-10.124-1.205-15.188c-0.164-2.114-0.314-4.229-0.458-6.345c-0.154-2.257-0.482-2.412,1.274-3.73
				c0.623-0.468,0.46-1.505-0.412-1.523c-28.065-0.565-56.713-4.974-84.456,1.213c-0.352,0.079-0.6,0.438-0.6,0.788
				c0.018,18.742,0.361,37.542,1.497,56.252c0.064,1.047,1.698,1.053,1.634,0c-0.607-10.005-0.894-20.028-1.135-30.047
				c-0.126-5.232-0.218-10.465-0.286-15.697c-0.027-2.07-0.046-4.14-0.06-6.21c-0.008-1.096-0.011-2.191-0.014-3.287
				c-0.002-0.781,3.906-1.156,4.361-1.242c25.968-4.894,52.9-0.662,79.06-0.135c-0.137-0.508-0.275-1.015-0.412-1.523
				c-2.894,2.171-2.245,2.78-1.978,6.694c0.416,6.089,0.941,12.17,1.422,18.254c0.5,6.314,0.946,12.632,1.257,18.958
				c0.162,3.299,0.249,6.601,0.29,9.904c0.016,1.272,0.38,0.844-1.118,1.128c-1.301,0.247-2.655,0.082-3.972,0.041
				c-26.067-0.808-52.236,0.44-78.23,2.344C14.454,128.13,14.446,129.765,15.498,129.688L15.498,129.688z"/>
		</g>
	</g>
	<g>
		<g>
			<path style="&st0;" d="M80.531,77.75c3.813,2.099,5.69,5.666,6.758,9.761c0.468,1.795,1.904,6.489-0.504,7.403
				c-1.209,0.459-2.668-0.968-3.754-1.361c-0.993-0.36-1.417,1.22-0.434,1.576c2.9,1.051,3.57,2.116,6.707,0.385
				c0.248-0.137,0.409-0.424,0.405-0.705c-0.099-7.013-1.716-14.816-8.352-18.469C80.432,75.831,79.608,77.242,80.531,77.75
				L80.531,77.75z"/>
		</g>
	</g>
	<g>
		<g>
			<path style="&st0;" d="M80.127,77.512c0.5,5.604,1.394,11.136,2.834,16.579c0.269,1.018,1.846,0.586,1.576-0.434
				c-1.403-5.302-2.288-10.682-2.776-16.144C81.668,76.471,80.033,76.462,80.127,77.512L80.127,77.512z"/>
		</g>
	</g>
	<g>
		<g>
			<path style="&st0;" d="M85.151,91.287c1.487,0,1.487-2.306,0-2.306C83.664,88.981,83.664,91.287,85.151,91.287L85.151,91.287z"/>
		</g>
	</g>
	<g>
		<g>
			<path style="&st0;" d="M85.151,88.482c1.487,0,1.487-2.306,0-2.306C83.664,86.176,83.664,88.482,85.151,88.482L85.151,88.482z"/>
		</g>
	</g>
	<g>
		<g>
			<path style="&st0;" d="M84.901,83.122c0-0.156,0-0.312,0-0.467c0-1.487-2.306-1.487-2.306,0c0,0.156,0,0.312,0,0.467
				C82.596,84.609,84.901,84.609,84.901,83.122L84.901,83.122z"/>
		</g>
	</g>
	<g>
		<g>
			<path style="&st0;" d="M70.441,107.898c0.001,2.459,0.06,4.894,0.509,7.319c0.27,1.461,2.492,0.84,2.224-0.613
				c-0.41-2.217-0.425-4.458-0.426-6.706C72.747,106.411,70.441,106.411,70.441,107.898L70.441,107.898z"/>
		</g>
	</g>
	<g>
		<g>
			<path style="&st0;" d="M72.529,109.182c6.441-0.853,12.949-0.987,19.383-1.899c-0.335-0.19-0.67-0.38-1.005-0.571
				c0.844,2.758,0.859,5.244,0,7.98c-0.316,1.008,1.261,1.436,1.576,0.434c0.943-3.003,0.921-5.84,0-8.849
				c-0.143-0.467-0.554-0.635-1.005-0.571c-6.289,0.892-12.653,1.007-18.949,1.841C71.5,107.684,71.487,109.32,72.529,109.182
				L72.529,109.182z"/>
		</g>
	</g>
	<g>
		<g>
			<path style="&st0;" d="M73.464,115.727c6.233,0,12.466,0,18.699,0c1.054,0,1.054-1.634,0-1.634c-6.233,0-12.466,0-18.699,0
				C72.41,114.093,72.41,115.727,73.464,115.727L73.464,115.727z"/>
		</g>
	</g>
	<g>
		<g>
			<path style="&st0;" d="M71.995,112.329c1.09-0.219,2.202-1.993,2.964-2.763c-0.561,0.567,1.284,3.088,1.534,4.009
				c0.071,0.261,0.4,0.22,0.487,0c0.338-0.851,0.589-1.712,0.841-2.592c0.544-1.892,0.901-0.13,1.502,0.782
				c0.092,0.14,0.272,0.164,0.397,0.051c1.486-1.347,1.052-1.438,2.447,0c0.089,0.092,0.271,0.105,0.357,0
				c0.43-0.523,0.84-2.255,1.556-1.759c0.131,0.091,0.337,0.001,0.371-0.151c0.112-0.506,1.271,1.247,1.455,1.443
				c0.107,0.113,0.325,0.093,0.397-0.051c0.623-1.247,0.629-0.989,1.592-0.456c0.658,0.364,2.865-0.326,3.332-0.354
				c0.324-0.019,0.326-0.524,0-0.505c-1.479,0.087-3.203,0.863-3.989-0.81c-0.068-0.145-0.294-0.165-0.397-0.051
				c-0.503,0.553-1.018,1.154-1.448,0.111c-0.049-0.119-0.17-0.228-0.311-0.176c-1.511,0.555-0.488,0.68-1.675,0.025
				c-0.092-0.051-0.234-0.049-0.306,0.04c-0.559,0.679-0.464,0.456-0.541,1.347c-0.042,0.487-1.274-1.178-1.439-1.347
				c-0.113-0.116-0.317-0.089-0.397,0.051c-1.05,1.831-1.288,1.641-2.368,0c-0.128-0.194-0.381-0.143-0.462,0.06
				c-0.375,0.945-1.341,3.107-1.021,3.851c-0.549-1.278-1.398-2.505-1.764-3.851c-0.05-0.183-0.288-0.246-0.422-0.111
				c-0.942,0.945-2.578,2.117-3.015,3.413c-0.066,0.195,0.135,0.346,0.311,0.311c0.048-0.01,0.097-0.019,0.145-0.029
				C72.448,112.752,72.313,112.265,71.995,112.329L71.995,112.329z"/>
		</g>
	</g>
	<g>
		<g>
			<path style="&st0;" d="M37.47,76.763c-10.798,4.879-19.161,17.143-15.907,29.244c3.287,12.22,20.009,14.507,29.918,9.746
				c9.569-4.598,11.72-16.736,8.57-25.978c-3.719-10.912-14.415-14.771-24.708-10.47c-0.383,0.16-0.215,0.793,0.174,0.63
				c9.88-4.129,19.483-0.73,23.642,9.318c3.608,8.716,1.502,19.777-6.604,25.14c-9.958,6.588-27.273,2.926-30.571-9.338
				C18.903,93.6,27.872,81.813,37.8,77.327C38.183,77.154,37.851,76.59,37.47,76.763L37.47,76.763z"/>
		</g>
	</g>
	<g>
		<g>
			<path style="&st0;" d="M27.793,84.057c0.068,7.275,0.963,14.456,2.349,21.59c0.08,0.414,0.71,0.238,0.63-0.174
				c-1.375-7.078-2.258-14.202-2.326-21.417C28.443,83.635,27.789,83.635,27.793,84.057L27.793,84.057z"/>
		</g>
	</g>
	<g>
		<g>
			<path style="&st0;" d="M32.468,82.654c1.365,10.659,2.385,21.363,4.686,31.875c0.09,0.412,0.72,0.237,0.63-0.174
				c-2.288-10.454-3.305-21.101-4.663-31.701C33.069,82.242,32.414,82.237,32.468,82.654L32.468,82.654z"/>
		</g>
	</g>
	<g>
		<g>
			<path style="&st0;" d="M40.415,78.915c0.541,11.953,2.111,23.842,4.219,35.614c0.074,0.414,0.704,0.238,0.63-0.174
				c-2.098-11.716-3.657-23.544-4.196-35.441C41.049,78.495,40.396,78.493,40.415,78.915L40.415,78.915z"/>
		</g>
	</g>
	<g>
		<g>
			<path style="&st0;" d="M49.764,81.252c0.918,11.296,1.532,22.607,3.751,33.745c0.082,0.413,0.712,0.238,0.63-0.174
				c-2.208-11.081-2.815-22.334-3.728-33.571C50.384,80.835,49.73,80.832,49.764,81.252L49.764,81.252z"/>
		</g>
	</g>
	<g>
		<g>
			<path style="&st0;" d="M25.783,94.2c11.396,0.191,21.778-4.473,32.81-6.556c0.414-0.078,0.238-0.708-0.174-0.63
				c-10.978,2.073-21.287,6.723-32.636,6.533C25.361,93.54,25.361,94.193,25.783,94.2L25.783,94.2z"/>
		</g>
	</g>
	<g>
		<g>
			<path style="&st0;" d="M30.457,101.212c11.961,0.163,22.822-5.361,34.593-6.545c0.415-0.042,0.419-0.696,0-0.654
				c-11.768,1.183-22.635,6.707-34.593,6.545C30.035,100.553,30.036,101.207,30.457,101.212L30.457,101.212z"/>
		</g>
	</g>
	<g>
		<g>
			<path style="&st0;" d="M31.392,109.159c11.29,0.661,21.756-3.149,32.342-6.556c0.4-0.129,0.229-0.76-0.174-0.63
				c-10.524,3.387-20.931,7.191-32.168,6.533C30.971,108.481,30.973,109.135,31.392,109.159L31.392,109.159z"/>
		</g>
	</g>
	<g>
		<g>
			<path style="&st0;" d="M41.959,100.116c0.877-1.79,0.246-1.511,1.357-0.401c-0.23-0.23-1.406,0.079-2.162,0.337
				c-0.116,0.04-0.238,0.152-0.26,0.28c0.168-0.985,0.671,0.88,0.412-1.322c-0.075-0.637-0.12-1.277-0.163-1.917
				c-0.173-2.632-0.609,1.475,1.353,0.246c-0.369,0.231,0.788-2.661,1.127-3.537c1.941-5.004,4.443-9.765,6.315-14.8
				c0.129-0.348-0.435-0.583-0.597-0.252c-2.824,5.765-5.121,11.718-7.045,17.842c-0.127,0.403,0.504,0.574,0.63,0.174
				c0.96-3.054,2.007-6.069,3.155-9.057c0.752-1.957,1.598-3.876,2.46-5.787c0.61-1.352,0.695-2.83-0.257-0.432
				c-2.257,5.682-5.289,11.055-6.923,16.973c-0.051,0.185,0.1,0.441,0.315,0.414c1.378-0.172,1.789-1.217,1.217-2.362
				c-0.121-0.241-0.431-0.18-0.564,0c-0.732,0.986-1.076,1.069-1.435,2.415c-0.093,0.349,0.436,0.595,0.597,0.252
				c0.423-0.9,0.935-3.838-0.49-4.033c-0.193-0.026-0.329,0.045-0.402,0.228c-0.548,1.372-0.08,3.786,0.281,5.207
				c0.076,0.298,0.575,0.327,0.63,0c0.023-0.135,1.986-0.595,2.341-0.766c0.278-0.134,0.162-0.509-0.078-0.597
				c0.458,0.169-0.425-1.433-0.43-1.443c-0.05-0.095-0.174-0.17-0.282-0.162c-1.005,0.079-1.286,1.393-1.667,2.17
				C41.209,100.163,41.773,100.494,41.959,100.116L41.959,100.116z"/>
		</g>
	</g>
	<g>
		<g>
			<path style="&st0;" d="M47.754,91.396c0.422,0,0.422-0.654,0-0.654S47.332,91.396,47.754,91.396L47.754,91.396z"/>
		</g>
	</g>
	<g>
		<g>
			<path style="&st0;" d="M48.688,88.123c0.422,0,0.422-0.654,0-0.654C48.267,87.47,48.267,88.123,48.688,88.123L48.688,88.123z"/>
		</g>
	</g>
	<g>
		<g>
			<path style="&st0;" d="M48.134,84.839c1.87,0.467,3.74,0.935,5.61,1.402c0.409,0.102,0.583-0.528,0.174-0.63
				c-1.87-0.467-3.74-0.935-5.61-1.402C47.899,84.107,47.725,84.737,48.134,84.839L48.134,84.839z"/>
		</g>
	</g>
	<g>
		<g>
			<path style="&st0;" d="M46.819,93.265c0.422,0,0.422-0.654,0-0.654C46.397,92.612,46.397,93.265,46.819,93.265L46.819,93.265z"/>
		</g>
	</g>
	<g>
		<g>
			<path style="&st0;" d="M69.486,64.478c-0.688,1.552-0.579,3.424-0.579,5.087c0,1.054,1.634,1.054,1.634,0
				c0-1.317-0.191-3.028,0.356-4.262C71.32,64.349,69.913,63.516,69.486,64.478L69.486,64.478z"/>
		</g>
	</g>
	<g>
		<g>
			<path style="&st0;" d="M70.877,66.146c4.622-1.379,9.518-0.962,14.274-1.373c-0.263-0.2-0.525-0.4-0.788-0.6
				c0.41,1.766,0.041,3.608-0.029,5.392c-0.041,1.054,1.593,1.05,1.634,0c0.076-1.949,0.418-3.899-0.029-5.827
				c-0.076-0.33-0.441-0.63-0.788-0.6c-4.905,0.424-9.94,0.009-14.709,1.432C69.435,64.871,69.864,66.448,70.877,66.146
				L70.877,66.146z"/>
		</g>
	</g>
	<g>
		<g>
			<path style="&st0;" d="M73.785,64.173c0.272-1.262,0.221-2.549,0.46-3.813c0.15-0.796,0.339-0.88,1.097-0.954
				c0.39-0.038,0.837-0.045,1.204,0.115c0.564,0.246,0.834,0.937,1.081,1.451c0.397,0.826,0.763,1.659,1.209,2.461
				c0.513,0.921,1.924,0.097,1.411-0.825c-0.947-1.701-1.479-4.272-3.654-4.77c-0.73-0.167-3.003-0.246-3.366,0.563
				c-0.787,1.752-0.622,3.502-1.017,5.337C71.988,64.766,73.563,65.203,73.785,64.173L73.785,64.173z"/>
		</g>
	</g>
	<g>
		<g>
			<path style="&st0;" d="M74.977,57.768c-1.154-1.091-2.266-2.228-3.283-3.448c-0.687-0.824-1.351-1.726-1.931-2.776
				c-0.111-0.2-0.215-0.404-0.313-0.611c-0.046-0.097-0.09-0.196-0.134-0.294c-0.075-0.172,0.072,0.174,0.002,0.003
				c-0.026-0.063-0.05-0.126-0.074-0.189c-0.137-0.359-0.247-0.729-0.321-1.106c-0.016-0.082-0.029-0.164-0.042-0.247
				c0.045,0.304,0.004,0.01-0.003-0.062c-0.015-0.164-0.018-0.328-0.013-0.493c0.002-0.072,0.007-0.144,0.013-0.216
				c0.022-0.253-0.029,0.167,0.002-0.027c0.023-0.145,0.057-0.288,0.099-0.428c0.019-0.063,0.041-0.125,0.063-0.187
				c0.083-0.225-0.072,0.156,0.005-0.015c0.058-0.127,0.126-0.248,0.2-0.366c0.034-0.054,0.071-0.107,0.108-0.159
				c0.108-0.15-0.141,0.17,0.01-0.012c0.09-0.108,0.188-0.209,0.29-0.306c0.109-0.103,0.352-0.29,0.165-0.149
				c0.118-0.089,0.242-0.171,0.369-0.248c0.121-0.073,0.245-0.14,0.372-0.204c0.065-0.032,0.13-0.063,0.196-0.093
				c0.23-0.105-0.16,0.062,0.077-0.032c0.618-0.246,1.273-0.395,1.931-0.49c0.163-0.024-0.212,0.028-0.048,0.006
				c0.043-0.005,0.085-0.01,0.128-0.016c0.086-0.01,0.172-0.019,0.258-0.027c0.19-0.018,0.38-0.031,0.571-0.041
				c0.377-0.019,0.756-0.021,1.133-0.012c0.389,0.01,0.777,0.036,1.164,0.073c0.188,0.018,0.376,0.04,0.564,0.064
				c0.175,0.023-0.204-0.028-0.029-0.004c0.047,0.007,0.094,0.014,0.141,0.02c0.11,0.016,0.219,0.034,0.329,0.052
				c0.777,0.129,1.546,0.312,2.3,0.543c0.366,0.112,0.729,0.239,1.086,0.377c0.084,0.033,0.168,0.066,0.251,0.1
				c0.192,0.079-0.155-0.068,0.092,0.04c0.174,0.076,0.346,0.156,0.517,0.24c0.316,0.154,0.624,0.324,0.924,0.507
				c0.138,0.084,0.273,0.173,0.406,0.264c0.065,0.045,0.129,0.091,0.193,0.137c0.227,0.165-0.048-0.042,0.081,0.06
				c0.241,0.191,0.469,0.398,0.681,0.621c0.096,0.101,0.187,0.207,0.275,0.316c0.089,0.111-0.13-0.171-0.044-0.058
				c0.02,0.027,0.04,0.054,0.06,0.082c0.046,0.063,0.089,0.128,0.131,0.193c0.07,0.11,0.134,0.223,0.193,0.34
				c0.029,0.057,0.055,0.115,0.081,0.174c-0.129-0.294-0.017-0.034,0.009,0.04c0.041,0.118,0.074,0.239,0.101,0.361
				c0.013,0.061,0.024,0.122,0.033,0.184c-0.051-0.331-0.009-0.051-0.003,0.032c0.008,0.127,0.006,0.254-0.002,0.381
				c-0.005,0.077-0.041,0.332,0.005,0.009c-0.011,0.077-0.026,0.153-0.042,0.229c-0.029,0.135-0.069,0.268-0.114,0.398
				c-0.023,0.067-0.129,0.321-0.01,0.041c-0.034,0.081-0.072,0.16-0.112,0.238c-0.071,0.142-0.152,0.28-0.237,0.414
				c-0.045,0.071-0.093,0.141-0.141,0.209c-0.025,0.035-0.051,0.07-0.076,0.105c-0.13,0.177,0.082-0.102-0.008,0.011
				c-0.255,0.322-0.544,0.618-0.845,0.897c-0.524,0.485-0.68,0.593-1.236,0.978c-0.596,0.413-1.22,0.783-1.856,1.131
				c-1.629,0.891-3.291,1.587-5.016,2.23c-0.978,0.364-0.555,1.944,0.434,1.576c2.682-0.999,5.417-2.141,7.729-3.86
				c1.316-0.978,2.663-2.243,3.057-3.9c0.693-2.91-2.041-4.987-4.383-6.007c-2.927-1.275-6.327-1.819-9.489-1.272
				c-1.303,0.225-2.64,0.724-3.592,1.673c-1.036,1.034-1.308,2.444-1.088,3.849c0.226,1.448,0.998,2.814,1.812,4.009
				c1.33,1.952,2.98,3.68,4.692,5.298C74.587,59.647,75.744,58.493,74.977,57.768L74.977,57.768z"/>
		</g>
	</g>
	<g>
		<g>
			<path style="&st0;" d="M74.084,51.247c-0.809,2.035,0.208,5.273,0.935,7.186c0.148,0.39,0.78,0.221,0.63-0.174
				c-0.425-1.118-0.705-2.269-0.908-3.447c-0.175-1.015-0.422-2.398-0.027-3.392C74.87,51.029,74.238,50.86,74.084,51.247
				L74.084,51.247z"/>
		</g>
	</g>
	<g>
		<g>
			<path style="&st0;" d="M74.985,54.139c0,1.714,0,3.428,0,5.142c0,1.054,1.634,1.054,1.634,0c0-1.714,0-3.428,0-5.142
				C76.619,53.085,74.985,53.085,74.985,54.139L74.985,54.139z"/>
		</g>
	</g>
	<g>
		<g>
			<path style="&st0;" d="M73.932,51.661c1.431,0.033,2.775,0.476,4.12,0.923c0.401,0.133,0.572-0.498,0.174-0.63
				c-1.403-0.467-2.804-0.912-4.294-0.947C73.51,50.997,73.511,51.651,73.932,51.661L73.932,51.661z"/>
		</g>
	</g>
	<g>
		<g>
			<path style="&st0;" d="M75.475,51.801c0,0.623,0,1.247,0,1.87c0,0.422,0.654,0.422,0.654,0c0-0.623,0-1.247,0-1.87
				C76.128,51.38,75.475,51.38,75.475,51.801L75.475,51.801z"/>
		</g>
	</g>
	<g>
		<g>
			<path style="&st0;" d="M74.867,51.661c0.422,0,0.422-0.654,0-0.654C74.445,51.007,74.445,51.661,74.867,51.661L74.867,51.661z"/>
		</g>
	</g>
	<g>
		<g>
			<path style="&st0;" d="M74.072,49.464c0,1.558,0,3.116,0,4.675c0,0.422,0.654,0.422,0.654,0c0-1.558,0-3.116,0-4.675
				C74.726,49.043,74.072,49.043,74.072,49.464L74.072,49.464z"/>
		</g>
	</g>
	<g>
		<g>
			<path style="&st0;" d="M75.954,49.845c-0.435,1.403-0.478,2.836-0.479,4.294c0,0.422,0.653,0.421,0.654,0
				c0.001-1.4,0.038-2.772,0.456-4.12C76.709,49.615,76.078,49.443,75.954,49.845L75.954,49.845z"/>
		</g>
	</g>
	<g>
		<g>
			<path style="&st0;" d="M77.857,52.104c-1.606,2.291-2.326,5.343-2.382,8.112c-0.009,0.422,0.645,0.421,0.654,0
				c0.054-2.649,0.757-5.591,2.293-7.782C78.664,52.088,78.097,51.762,77.857,52.104L77.857,52.104z"/>
		</g>
	</g>
	<g>
		<g>
			<path style="&st0;" d="M88.096,65.825c0.001,1.458,0.044,2.891,0.479,4.294c0.124,0.401,0.755,0.23,0.63-0.174
				c-0.418-1.348-0.455-2.72-0.456-4.12C88.75,65.404,88.096,65.404,88.096,65.825L88.096,65.825z"/>
		</g>
	</g>
	<g>
		<g>
			<path style="&st0;" d="M88.51,66.141c1.463-0.307,3.119-0.511,4.453,0.316c1.329,0.823,1.339,2.682,1.21,4.044
				c-0.04,0.42,0.614,0.416,0.654,0c0.148-1.56,0.033-3.476-1.363-4.485c-1.484-1.072-3.438-0.859-5.127-0.505
				C87.924,65.597,88.099,66.227,88.51,66.141L88.51,66.141z"/>
		</g>
	</g>
	<g>
		<g>
			<path style="&st0;" d="M89.358,70.36c1.87,0,3.74,0,5.61,0c0.422,0,0.422-0.654,0-0.654c-1.87,0-3.74,0-5.61,0
				C88.937,69.706,88.937,70.36,89.358,70.36L89.358,70.36z"/>
		</g>
	</g>
	<g>
		<g>
			<path style="&st0;" d="M99.175,114.324c17.617,2.255,35.306-0.418,52.824-2.337c-0.235-0.41-0.47-0.82-0.705-1.229
				c-0.467,1.091-0.935,2.182-1.402,3.272c0.508,0.137,1.015,0.275,1.523,0.412c0.816-6.395,0.004-12.96-0.584-19.341
				c-0.371-4.032-0.759-8.061-1.044-12.099c-0.117-1.654-1.29-8.669,0.289-9.458c0.745-0.372,0.37-1.526-0.412-1.523
				c-17.47,0.078-34.878,2.286-52.356,1.87c-0.429-0.01-0.838,0.38-0.817,0.817c0.623,12.933,1.247,25.867,1.87,38.8
				c0.051,1.049,1.685,1.054,1.634,0c-0.535-11.094-1.069-22.188-1.604-33.283c-0.084-1.742-0.168-3.484-0.252-5.226
				c0.059,1.221,11.594,0.44,13.481,0.37c12.687-0.472,25.343-1.657,38.045-1.713c-0.137-0.508-0.275-1.015-0.412-1.523
				c-0.312,0.156-0.623,0.312-0.935,0.467c-0.257,0.129-0.398,0.43-0.405,0.705c-0.352,13.651,3.604,27.552,1.87,41.137
				c-0.101,0.791,1.21,1.143,1.523,0.412c0.467-1.091,0.935-2.182,1.402-3.272c0.213-0.497-0.016-1.305-0.705-1.229
				c-17.518,1.919-35.207,4.593-52.824,2.337C98.132,112.557,98.145,114.192,99.175,114.324z"/>
		</g>
	</g>
	<g>
		<g>
			<path style="&st0;" d="M102.12,80.317c-0.028,1.769-0.377,3.474,0.012,5.229c0.091,0.411,0.721,0.237,0.63-0.174
				c-0.375-1.692-0.015-3.35,0.012-5.055C102.781,79.895,102.127,79.896,102.12,80.317L102.12,80.317z"/>
		</g>
	</g>
	<g>
		<g>
			<path style="&st0;" d="M102.447,80.176c12.315-0.129,24.616-2.715,36.93-1.402c0.419,0.045,0.415-0.609,0-0.654
				c-12.314-1.313-24.615,1.273-36.93,1.402C102.026,79.527,102.026,80.181,102.447,80.176L102.447,80.176z"/>
		</g>
	</g>
	<g>
		<g>
			<path style="&st0;" d="M139.05,78.915c0.026,1.659,0.474,3.428,0.012,5.055c-0.115,0.406,0.515,0.579,0.63,0.174
				c0.482-1.697,0.039-3.501,0.012-5.229C139.697,78.493,139.044,78.493,139.05,78.915L139.05,78.915z"/>
		</g>
	</g>
	<g>
		<g>
			<path style="&st0;" d="M102.447,85.318c12.286,0.523,24.637,0.993,36.93,0.467c0.42-0.018,0.422-0.672,0-0.654
				c-12.293,0.526-24.644,0.056-36.93-0.467C102.026,84.647,102.027,85.301,102.447,85.318L102.447,85.318z"/>
		</g>
	</g>
	<g>
		<g>
			<path style="&st0;" d="M102.12,92.471c0,1.107,0,2.214,0,3.321c0,0.422,0.654,0.422,0.654,0c0-0.172,0-0.344,0-0.516
				c0-0.422-0.654-0.422-0.654,0c0,0.172,0,0.344,0,0.516c0,0.422,0.654,0.422,0.654,0c0-1.107,0-2.214,0-3.321
				C102.774,92.05,102.12,92.05,102.12,92.471L102.12,92.471z"/>
		</g>
	</g>
	<g>
		<g>
			<path style="&st0;" d="M102.447,96.07c12.21,0.544,24.761,0.852,36.93-0.467c0.414-0.045,0.419-0.699,0-0.654
				c-12.169,1.32-24.72,1.011-36.93,0.467C102.026,95.398,102.027,96.052,102.447,96.07L102.447,96.07z"/>
		</g>
	</g>
	<g>
		<g>
			<path style="&st0;" d="M102.447,92.798c12.269-1.22,24.633-1.097,36.93-1.87c0.419-0.026,0.421-0.68,0-0.654
				c-12.297,0.773-24.661,0.649-36.93,1.87C102.032,92.186,102.028,92.84,102.447,92.798L102.447,92.798z"/>
		</g>
	</g>
	<g>
		<g>
			<path style="&st0;" d="M102.447,104.485c12.173-1.477,24.661-2.709,36.93-2.805c0.421-0.003,0.422-0.657,0-0.654
				c-12.269,0.096-24.757,1.328-36.93,2.805C102.034,103.881,102.029,104.535,102.447,104.485L102.447,104.485z"/>
		</g>
	</g>
	<g>
		<g>
			<path style="&st0;" d="M139.05,101.353c0.026,1.801,0.509,3.758,0.012,5.523c-0.114,0.407,0.516,0.579,0.63,0.174
				c0.517-1.835,0.039-3.826,0.012-5.696C139.698,100.932,139.044,100.931,139.05,101.353L139.05,101.353z"/>
		</g>
	</g>
	<g>
		<g>
			<path style="&st0;" d="M102.762,105.647c0.039-0.271,0.078-0.542,0.123-0.812c0.011-0.064,0.022-0.127,0.034-0.191
				c0.038-0.196,0.057-0.016-0.11,0.059c-0.149-0.039-0.298-0.078-0.447-0.117c-0.091-0.149-0.033-0.123-0.036,0.022
				c-0.003,0.13-0.011,0.261-0.018,0.391c-0.02,0.356-0.045,0.712-0.069,1.068c-0.051,0.765-0.115,1.532-0.119,2.298
				c-0.002,0.422,0.652,0.421,0.654,0c0.004-0.803,0.072-1.606,0.126-2.407c0.025-0.37,0.051-0.739,0.07-1.109
				c0.009-0.176,0.055-0.433-0.043-0.593c-0.101-0.164-0.282-0.191-0.447-0.117c-0.33,0.147-0.311,1.072-0.348,1.335
				C102.073,105.885,102.703,106.063,102.762,105.647L102.762,105.647z"/>
		</g>
	</g>
	<g>
		<g>
			<path style="&st0;" d="M102.534,108.68c12.202-1.644,24.593-1.637,36.843-2.793c0.416-0.039,0.42-0.693,0-0.654
				c-12.309,1.161-24.756,1.165-37.017,2.816C101.944,108.106,102.122,108.736,102.534,108.68L102.534,108.68z"/>
		</g>
	</g>
	<g>
		<g>
			<path style="&st0;" d="M139.05,90.134c0,1.247,0,2.493,0,3.74c0,0.422,0.654,0.422,0.654,0c0-1.247,0-2.493,0-3.74
				C139.704,89.712,139.05,89.712,139.05,90.134L139.05,90.134z"/>
		</g>
	</g>
	<g>
		<g>
			<path style="&st0;" d="M137.335,67.695c-0.001-0.011-0.001-0.022-0.002-0.033c-0.014-0.249-0.266-0.404-0.492-0.282
				c-0.385,0.209-0.317,1.423-0.355,1.765c-0.118,1.068-0.255,2.15-0.273,3.225c-0.003,0.178,0.151,0.327,0.327,0.327
				c2.026,0,4.051,0,6.077,0c0.422,0,0.422-0.654,0-0.654c-2.026,0-4.051,0-6.077,0c0.109,0.109,0.218,0.218,0.327,0.327
				c0.013-0.831,0.112-1.662,0.195-2.488c0.046-0.464,0.098-0.927,0.151-1.39c0.042-0.365,0.249-0.705-0.043-0.547
				c-0.164-0.094-0.328-0.188-0.492-0.282c0.001,0.011,0.001,0.022,0.002,0.033C136.705,68.114,137.359,68.117,137.335,67.695
				L137.335,67.695z"/>
		</g>
	</g>
	<g>
		<g>
			<path style="&st0;" d="M142.291,68.63c0,1.247,0,2.493,0,3.74c0,0.422,0.654,0.422,0.654,0c0-1.247,0-2.493,0-3.74
				C142.945,68.209,142.291,68.209,142.291,68.63L142.291,68.63z"/>
		</g>
	</g>
	<g>
		<g>
			<path style="&st0;" d="M137.008,68.022c1.121,0.025,2.256,0.23,3.364,0.382c0.651,0.09,1.302,0.186,1.951,0.288
				c0.241,0.038,0.482,0.078,0.722,0.121c0.086,0.015,0.172,0.032,0.258,0.049c0.591,0.116-0.736-0.526,0.25-0.558
				c-0.42,0.014-0.422,0.667,0,0.654c0.059-0.002,0.116-0.008,0.174-0.019c0.148-0.029,0.23-0.178,0.24-0.315
				c0-0.003,0-0.006,0.001-0.009c0.008-0.105-0.066-0.237-0.162-0.282c-0.854-0.403-2.077-0.39-2.997-0.521
				c-1.252-0.178-2.534-0.414-3.8-0.442C136.587,67.359,136.588,68.013,137.008,68.022L137.008,68.022z"/>
		</g>
	</g>
	<g>
		<g>
			<path style="&st0;" d="M91.543,65.912c1.355-4.146,3.216-7.995,5.554-11.668c1.292-2.031,2.862-3.841,4.565-5.529
				c0.561-0.556,2.176,3.986,2.465,4.655c1.3,3.006,4.348,7.351,8.235,6.651c8.888-1.6,7.757-14.119,3.923-19.604
				c-0.16-0.229-0.511-0.207-0.597,0.078c-2.097,6.888,0.195,12.682,5.694,17.147c0.143,0.116,0.32,0.13,0.462,0
				c5.661-5.175,8.58-12.906,4.726-20.03c-0.148-0.274-0.499-0.165-0.597,0.078c-2.575,6.347-2.039,15.268,6.743,15.081
				c8.722-0.186,8.853-9.731,6.009-15.626c-0.09-0.186-0.379-0.214-0.513-0.066c-4.719,5.196-5.66,13.042,1.116,17.006
				c6.833,3.998,8.535-4.53,7.844-9.382c-0.038-0.27-0.381-0.278-0.546-0.144c-7.179,5.816-7.567,15.525-8.043,24.072
				c-0.023,0.421,0.63,0.419,0.654,0c0.232-4.161,0.51-8.292,1.348-12.384c0.452-2.206,1.252-4.282,2.259-6.292
				c0.927-1.851,3.844-6.251,3.987-1.865c0.24,7.344-6.736,7.477-10.333,2.556c-1.579-2.16-1.826-4.883-1.255-7.421
				c0.408-1.813,1.527-3.414,2.662-4.837c0.962-1.206,2.1,4.842,2.143,5.288c0.49,5.06-3.666,8.645-8.482,8.427
				c-6.484-0.293-7.212-7.232-5.766-12.121c0.995-3.363,1.945,3.827,1.958,4.006c0.194,2.661-0.769,5.301-1.897,7.65
				c-0.543,1.131-3.216,6.193-5.253,4.539c-3.008-2.442-4.692-5.939-5.149-9.727c-0.155-1.286-0.075-6.402,1.416-3.928
				c0.828,1.373,1.271,2.925,1.599,4.478c0.671,3.177-0.098,6.584-1.789,9.303c-5.822,9.361-12.48-3.716-13.923-8.795
				c-0.07-0.248-0.364-0.304-0.546-0.144c-5.498,4.816-9.056,11.497-11.303,18.375C90.782,66.14,91.413,66.311,91.543,65.912
				L91.543,65.912z"/>
		</g>
	</g>
	<g>
		<g>
			<path style="&st0;" d="M19.332,110.734c0.047,4.071,0.634,8.067,1.42,12.054c0.081,0.413,0.711,0.238,0.63-0.174
				c-0.774-3.928-1.35-7.87-1.396-11.88C19.981,110.313,19.327,110.312,19.332,110.734L19.332,110.734z"/>
		</g>
	</g>
	<g>
		<g>
			<path style="&st0;" d="M18.868,123.016c3.804,0.752,7.627,1.427,11.263,2.816c0.394,0.151,0.563-0.481,0.174-0.63
				c-3.636-1.389-7.459-2.063-11.263-2.816C18.63,122.305,18.455,122.935,18.868,123.016L18.868,123.016z"/>
		</g>
	</g>
	<g>
		<g>
			<path style="&st0;" d="M16.561,122.162c1.554,2.94,4.247,4.964,7.157,6.453c0.374,0.192,0.705-0.372,0.33-0.564
				c-2.817-1.441-5.417-3.37-6.922-6.218C16.928,121.459,16.364,121.79,16.561,122.162L16.561,122.162z"/>
		</g>
	</g>
	<g>
		<g>
			<path style="&st0;" d="M15.348,118.089c2.745,0.739,5.151,2.211,7.665,3.487c0.375,0.19,0.706-0.374,0.33-0.564
				c-2.567-1.302-5.021-2.798-7.822-3.553C15.114,117.348,14.942,117.979,15.348,118.089L15.348,118.089z"/>
		</g>
	</g>
	<g>
		<g>
			<path style="&st0;" d="M16.052,112.457c2.565,0.885,4.939,2.249,6.895,4.14c0.303,0.293,0.766-0.169,0.462-0.462
				c-2.038-1.969-4.512-3.386-7.184-4.308C15.826,111.689,15.656,112.32,16.052,112.457L16.052,112.457z"/>
		</g>
	</g>
	<g>
		<g>
			<path style="&st0;" d="M21.489,111.977c-2.656,3.946-5.558,7.727-7.744,11.967c-0.193,0.374,0.371,0.705,0.564,0.33
				c2.185-4.241,5.087-8.021,7.744-11.967C22.289,111.956,21.723,111.629,21.489,111.977L21.489,111.977z"/>
		</g>
	</g>
	<g>
		<g>
			<path style="&st0;" d="M25.763,116.838c-2.25,2.323-3.908,5.127-5.683,7.81c-0.233,0.353,0.333,0.68,0.564,0.33
				c1.745-2.636,3.369-5.394,5.581-7.677C26.519,116.998,26.057,116.535,25.763,116.838L25.763,116.838z"/>
		</g>
	</g>
	<g>
		<g>
			<path style="&st0;" d="M31.395,120.358c-0.895,0.895-1.822,1.78-2.605,2.777c-0.29,0.369-0.803,1.214,0.021,1.3
				c0.419,0.044,0.415-0.61,0-0.654c0.34,0.036,0.101,0.355,0.278,0.053c0.073-0.124,0.165-0.24,0.253-0.352
				c0.215-0.274,0.452-0.531,0.687-0.787c0.59-0.644,1.211-1.258,1.828-1.876C32.156,120.522,31.693,120.06,31.395,120.358
				L31.395,120.358z"/>
		</g>
	</g>
	<g>
		<g>
			<path style="&st0;" d="M38.435,118.95c-1.117,1.132-2.17,2.333-3.035,3.67c-0.381,0.589-1.05,1.667-0.536,2.358
				c0.249,0.334,0.816,0.009,0.564-0.33c-0.418-0.561,0.583-1.782,0.887-2.225c0.746-1.089,1.657-2.073,2.582-3.01
				C39.193,119.112,38.731,118.65,38.435,118.95L38.435,118.95z"/>
		</g>
	</g>
	<g>
		<g>
			<path style="&st0;" d="M44.066,119.654c-0.765,0.782-1.448,1.635-2.055,2.545c-0.373,0.559-0.802,1.221-0.857,1.91
				c-0.033,0.421,0.621,0.417,0.654,0c0.05-0.627,0.57-1.284,0.905-1.787c0.529-0.793,1.149-1.526,1.815-2.206
				C44.823,119.815,44.362,119.353,44.066,119.654L44.066,119.654z"/>
		</g>
	</g>
	<g>
		<g>
			<path style="&st0;" d="M51.106,118.246c-1.667,1.62-3.639,2.888-5.566,4.173c-0.349,0.233-0.022,0.799,0.33,0.564
				c1.972-1.315,3.991-2.616,5.698-4.275C51.871,118.414,51.408,117.952,51.106,118.246L51.106,118.246z"/>
		</g>
	</g>
	<g>
		<g>
			<path style="&st0;" d="M30.218,120.916c8.941-0.048,17.841-0.72,26.75-1.408c0.417-0.032,0.421-0.686,0-0.654
				c-8.91,0.688-17.809,1.36-26.75,1.408C29.797,120.265,29.797,120.918,30.218,120.916L30.218,120.916z"/>
		</g>
	</g>
	<g>
		<g>
			<path style="&st0;" d="M24.587,124.436c6.741,0.637,13.344-0.09,19.798-2.124c0.401-0.126,0.229-0.757-0.174-0.63
				c-6.392,2.014-12.953,2.731-19.624,2.1C24.167,123.743,24.171,124.397,24.587,124.436L24.587,124.436z"/>
		</g>
	</g>
	<g>
		<g>
			<path style="&st0;" d="M15.812,71.312c-1.295,18.119-0.019,36.2,2.112,54.205c0.049,0.413,0.703,0.418,0.654,0
				c-2.131-18.005-3.407-36.086-2.112-54.205C16.496,70.891,15.842,70.894,15.812,71.312L15.812,71.312z"/>
		</g>
	</g>
	<g>
		<g>
			<path style="&st0;" d="M15.108,80.464c0.745,15.049,2.095,30.056,3.52,45.053c0.04,0.416,0.694,0.42,0.654,0
				c-1.425-14.998-2.775-30.004-3.52-45.053C15.741,80.044,15.087,80.042,15.108,80.464L15.108,80.464z"/>
		</g>
	</g>
	<g>
		<g>
			<path style="&st0;" d="M73.699,63.286c-1.656,0.873-2.98,2.261-4.29,3.571c-0.298,0.298,0.164,0.76,0.462,0.462
				c1.272-1.272,2.55-2.621,4.158-3.469C74.402,63.654,74.071,63.09,73.699,63.286L73.699,63.286z"/>
		</g>
	</g>
	<g>
		<g>
			<path style="&st0;" d="M74.285,63.404c-0.793,1.505-2.023,2.719-2.816,4.224c-0.196,0.373,0.368,0.703,0.564,0.33
				c0.793-1.505,2.023-2.719,2.816-4.224C75.046,63.361,74.482,63.031,74.285,63.404L74.285,63.404z"/>
		</g>
	</g>
	<g>
		<g>
			<path style="&st0;" d="M75.04,64.042c-0.869,0.869-1.6,1.783-2.163,2.882c-0.192,0.374,0.372,0.705,0.564,0.33
				c0.538-1.051,1.23-1.919,2.061-2.75C75.801,64.205,75.339,63.743,75.04,64.042L75.04,64.042z"/>
		</g>
	</g>
	<g>
		<g>
			<path style="&st0;" d="M76.397,64.108c-0.677,1.295-1.738,2.424-2.765,3.454c-0.298,0.299,0.164,0.761,0.462,0.462
				c1.062-1.066,2.166-2.244,2.867-3.586C77.157,64.064,76.593,63.734,76.397,64.108L76.397,64.108z"/>
		</g>
	</g>
	<g>
		<g>
			<path style="&st0;" d="M78.509,63.404c-0.692,1.352-1.701,2.389-2.765,3.454c-0.298,0.298,0.164,0.761,0.462,0.462
				c1.103-1.103,2.15-2.185,2.867-3.586C79.265,63.359,78.701,63.028,78.509,63.404L78.509,63.404z"/>
		</g>
	</g>
	<g>
		<g>
			<path style="&st0;" d="M72.291,65.963c1.321,0.645,2.897,1.386,4.389,1.453c0.422,0.019,0.42-0.635,0-0.654
				c-1.361-0.061-2.86-0.778-4.059-1.363C72.243,65.214,71.912,65.778,72.291,65.963L72.291,65.963z"/>
		</g>
	</g>
	<g>
		<g>
			<path style="&st0;" d="M77.218,65.963c1.358,0.655,2.843,1.074,4.302,1.441c0.409,0.103,0.582-0.527,0.174-0.63
				c-1.401-0.353-2.841-0.746-4.146-1.375C77.171,65.216,76.839,65.78,77.218,65.963L77.218,65.963z"/>
		</g>
	</g>
	<g>
		<g>
			<path style="&st0;" d="M80.034,65.963c1.64,0.819,3.237,1.416,5.093,1.453c0.422,0.008,0.421-0.645,0-0.654
				c-1.745-0.034-3.222-0.594-4.763-1.363C79.988,65.211,79.657,65.774,80.034,65.963L80.034,65.963z"/>
		</g>
	</g>
	<g>
		<g>
			<path style="&st0;" d="M75.185,65.292c5.415,2.177,11.201,2.745,16.982,2.124c0.415-0.045,0.419-0.699,0-0.654
				c-5.721,0.615-11.448,0.055-16.808-2.1C74.967,64.504,74.799,65.137,75.185,65.292L75.185,65.292z"/>
		</g>
	</g>
	<g>
		<g>
			<path style="&st0;" d="M98.891,76.153c-1.866,5.101-0.921,11.619-0.628,16.894c0.382,6.882,1.082,13.764,2.036,20.59
				c0.058,0.416,0.688,0.238,0.63-0.174c-0.946-6.773-1.59-13.591-2.012-20.416c-0.32-5.175-1.221-11.732,0.604-16.72
				C99.666,75.93,99.035,75.761,98.891,76.153L98.891,76.153z"/>
		</g>
	</g>
	<g>
		<g>
			<path style="&st0;" d="M98.879,76.944c0.067,11.328,1.146,22.678,2.828,33.877c0.062,0.416,0.692,0.238,0.63-0.174
				c-1.673-11.138-2.738-22.435-2.804-33.703C99.53,76.522,98.877,76.522,98.879,76.944L98.879,76.944z"/>
		</g>
	</g>
	<g>
		<g>
			<path style="&st0;" d="M98.175,79.056c-0.034,1.745-0.594,3.222-1.363,4.763c-0.188,0.376,0.376,0.707,0.564,0.33
				c0.819-1.64,1.416-3.237,1.453-5.093C98.837,78.634,98.184,78.635,98.175,79.056L98.175,79.056z"/>
		</g>
	</g>
	<g>
		<g>
			<path style="&st0;" d="M97.471,83.983c-0.047,2.436-0.761,4.818-2.067,6.875c-0.227,0.357,0.339,0.685,0.564,0.33
				c1.366-2.151,2.107-4.657,2.156-7.205C98.133,83.562,97.48,83.562,97.471,83.983L97.471,83.983z"/>
		</g>
	</g>
	<g>
		<g>
			<path style="&st0;" d="M98.22,89.45c-1.265,2.718-1.472,5.642-2.145,8.526c-0.096,0.41,0.534,0.584,0.63,0.174
				c0.659-2.823,0.84-5.708,2.079-8.369C98.961,89.4,98.398,89.068,98.22,89.45L98.22,89.45z"/>
		</g>
	</g>
	<g>
		<g>
			<path style="&st0;" d="M98.175,95.951c-0.058,1.895-0.663,3.726-0.704,5.632c-0.009,0.422,0.645,0.421,0.654,0
				c0.04-1.906,0.645-3.735,0.704-5.632C98.842,95.529,98.188,95.53,98.175,95.951L98.175,95.951z"/>
		</g>
	</g>
	<g>
		<g>
			<path style="&st0;" d="M100.332,102.121c-0.554,1.175-0.747,2.395-0.749,3.685c0,0.422,0.653,0.421,0.654,0
				c0.001-1.169,0.156-2.288,0.659-3.355C101.075,102.072,100.512,101.74,100.332,102.121L100.332,102.121z"/>
		</g>
	</g>
	<g>
		<g>
			<path style="&st0;" d="M100.383,108.391c-0.748,0.821-0.799,1.992-0.8,3.047c0,0.422,0.653,0.421,0.654,0
				c0.001-0.862-0.008-1.908,0.608-2.585C101.128,108.542,100.667,108.079,100.383,108.391L100.383,108.391z"/>
		</g>
	</g>
	<g>
		<g>
			<path style="&st0;" d="M101.087,110.261c0.794,0.617,2.062,0.58,3.014,0.616c1.667,0.062,3.443-0.044,5.048-0.532
				c0.402-0.122,0.231-0.753-0.174-0.63c-1.211,0.368-2.478,0.465-3.737,0.509c-0.996,0.035-2.845,0.232-3.689-0.425
				C101.221,109.543,100.754,110.002,101.087,110.261L101.087,110.261z"/>
		</g>
	</g>
	<g>
		<g>
			<path style="&st0;" d="M109.062,109.653c0.422,0,0.422-0.654,0-0.654S108.64,109.653,109.062,109.653L109.062,109.653z"/>
		</g>
	</g>
	<g>
		<g>
			<path style="&st0;" d="M103.43,108.999c-1.072,0.05-2.063,0.983-2.981,1.453c-0.375,0.192-0.045,0.756,0.33,0.564
				c0.507-0.259,0.993-0.551,1.478-0.85c0.355-0.219,0.743-0.493,1.173-0.514C103.85,109.633,103.851,108.979,103.43,108.999
				L103.43,108.999z"/>
		</g>
	</g>
	<g>
		<g>
			<path style="&st0;" d="M103.103,109.326c0.043,0.979,0.661,1.844,0.704,2.816c0.019,0.42,0.672,0.422,0.654,0
				c-0.043-0.979-0.661-1.844-0.704-2.816C103.738,108.906,103.084,108.904,103.103,109.326L103.103,109.326z"/>
		</g>
	</g>
	<g>
		<g>
			<path style="&st0;" d="M107.423,110.503c-0.881,0.832-2.086,1.277-3.289,1.312c-0.421,0.012-0.422,0.666,0,0.654
				c1.377-0.04,2.743-0.552,3.751-1.504C108.192,110.675,107.729,110.214,107.423,110.503L107.423,110.503z"/>
		</g>
	</g>
	<g>
		<g>
			<path style="&st0;" d="M107.654,111.765c7.176-0.049,14.331-0.667,21.206-2.828c0.401-0.126,0.23-0.757-0.174-0.63
				c-6.817,2.142-13.917,2.756-21.032,2.804C107.232,111.114,107.232,111.767,107.654,111.765L107.654,111.765z"/>
		</g>
	</g>
	<g>
		<g>
			<path style="&st0;" d="M137.055,68.075c1.593,0.73,3.371,0.748,5.093,0.749c0.422,0,0.421-0.653,0-0.654
				c-1.593-0.001-3.285,0.018-4.763-0.659C137.005,67.336,136.672,67.899,137.055,68.075L137.055,68.075z"/>
		</g>
	</g>
	<g>
		<g>
			<path style="&st0;" d="M138.301,67.792c-0.025,1.313-0.853,1.974-1.95,2.534c-0.376,0.191-0.045,0.755,0.33,0.564
				c1.313-0.669,2.245-1.55,2.274-3.098C138.963,67.371,138.309,67.371,138.301,67.792L138.301,67.792z"/>
		</g>
	</g>
	<g>
		<g>
			<path style="&st0;" d="M138.628,68.119c0.422,0,0.422-0.654,0-0.654S138.206,68.119,138.628,68.119L138.628,68.119z"/>
		</g>
	</g>
	<g>
		<g>
			<path style="&st0;" d="M146.045,76.944c0.045,10.165,0.736,20.287,2.124,30.357c0.057,0.416,0.687,0.238,0.63-0.174
				c-1.38-10.012-2.055-20.078-2.1-30.183C146.696,76.522,146.043,76.522,146.045,76.944L146.045,76.944z"/>
		</g>
	</g>
	<g>
		<g>
			<path style="&st0;" d="M84.8,79.056c0.05,4.579,0.732,9.096,2.124,13.462c0.128,0.4,0.759,0.229,0.63-0.174
				c-1.374-4.31-2.05-8.767-2.1-13.288C85.449,78.634,84.796,78.634,84.8,79.056L84.8,79.056z"/>
		</g>
	</g>
</g>
</svg>
