<?xml version="1.0" encoding="utf-8"?>
<!-- Generator: Adobe Illustrator 17.0.0, SVG Export Plug-In . SVG Version: 6.00 Build 0)  -->
<!DOCTYPE svg PUBLIC "-//W3C//DTD SVG 1.1//EN" "http://www.w3.org/Graphics/SVG/1.1/DTD/svg11.dtd" [
	<!ENTITY st0 "fill:#3D3D3D;">
]>
<svg version="1.1" id="Calque_1" xmlns="http://www.w3.org/2000/svg" xmlns:xlink="http://www.w3.org/1999/xlink" x="0px" y="0px"
	 width="166px" height="167px" viewBox="0 0 166 167" style="enable-background:new 0 0 166 167;" xml:space="preserve">
<g>
	<g>
		<g>
			<path style="&st0;" d="M25.167,97.931c12.749-0.584,25.453-0.142,38.203-0.059c12.664,0.082,25.157-1.289,37.597-3.606
				c0.452-0.084,0.695-0.54,0.727-0.955c0.57-7.389,0.683-15.488,0.349-22.922c-0.191-4.246-2.121-6.977-6.31-7.952
				c-3.488-0.811-7.31-0.494-10.843-0.397c-6.524,0.181-13.034,0.824-19.524,1.48c-13.541,1.369-27.052,3.048-40.685,3.04
				c-0.545,0-0.983,0.451-0.99,0.99c-0.137,9.956,0.134,19.906,0.433,29.857c0.039,1.304,1.84,1.242,1.98,0
				c0.017-0.156,0.035-0.312,0.052-0.467c0.142-1.268-1.839-1.254-1.98,0c-0.017,0.156-0.035,0.312-0.052,0.467
				c0.66,0,1.32,0,1.98,0c-0.16-5.314-0.311-10.628-0.409-15.944c-0.049-2.652-0.065-5.305-0.072-7.957
				c-0.011-4.498,0.054-4.926,4.553-5.027c10.542-0.235,21.05-1.488,31.526-2.598c9.741-1.032,19.537-2.058,29.346-1.928
				c5.419,0.072,8.789,1.418,9.047,7.167c0.288,6.416-0.499,12.881-0.341,19.314c0.071,2.878-0.301,2.111-3.081,2.608
				c-2.317,0.414-4.644,0.768-6.973,1.11c-4.859,0.713-9.753,1.17-14.654,1.464c-16.598,0.998-33.259-0.428-49.881,0.332
				C23.896,96.009,23.89,97.989,25.167,97.931z"/>
		</g>
	</g>
	<g>
		<g>
			<path style="&st0;" d="M34.139,96.886c-0.6,0.677-0.693,1.551-0.694,2.422c-0.001,0.987,1.529,0.987,1.531,0
				c0-0.408-0.045-1.011,0.246-1.34C35.873,97.232,34.795,96.146,34.139,96.886L34.139,96.886z"/>
		</g>
	</g>
	<g>
		<g>
			<path style="&st0;" d="M34.007,100.516c4.775,1.465,9.723,1.333,14.513,0c0.95-0.264,0.546-1.741-0.407-1.476
				c-4.546,1.265-9.167,1.39-13.699,0C33.467,98.75,33.066,100.228,34.007,100.516L34.007,100.516z"/>
		</g>
	</g>
	<g>
		<g>
			<path style="&st0;" d="M48.99,96.689c-0.622-0.202-1.638-0.423-1.869,0.453c-0.165,0.626,0.262,1.326,0.457,1.899
				c0.316,0.929,1.795,0.53,1.476-0.407c-0.134-0.393-0.298-0.777-0.424-1.172c-0.013-0.043-0.025-0.087-0.034-0.132
				c0.079,0.343-0.902,0.687-0.514,0.687c-0.17,0,0.119,0.032,0.132,0.035c0.125,0.031,0.247,0.073,0.369,0.113
				C49.524,98.471,49.924,96.993,48.99,96.689L48.99,96.689z"/>
		</g>
	</g>
	<g>
		<g>
			<path style="&st0;" d="M82.17,96.192c-0.759,0.017-1.465,0.255-1.857,0.946c-0.362,0.637-0.318,1.464-0.318,2.171
				c0,0.987,1.53,0.987,1.531,0c0-0.441-0.025-0.898,0.087-1.327c0.026-0.099,0.066-0.155,0.09-0.171
				c0.128-0.088,0.307-0.084,0.468-0.087C83.156,97.7,83.158,96.169,82.17,96.192L82.17,96.192z"/>
		</g>
	</g>
	<g>
		<g>
			<path style="&st0;" d="M86.135,99.576c2.089-0.478,4.248-0.442,6.379-0.443c0.987,0,0.987-1.531,0-1.531
				c-2.271,0.001-4.561-0.011-6.786,0.498C84.766,98.32,85.174,99.795,86.135,99.576L86.135,99.576z"/>
		</g>
	</g>
	<g>
		<g>
			<path style="&st0;" d="M90.809,96.487c-0.195,5.126-6.257,2.985-9.193,1.69c-0.894-0.394-1.674,0.924-0.773,1.322
				c4.118,1.816,11.245,3.58,11.496-3.012C92.377,95.499,90.846,95.503,90.809,96.487L90.809,96.487z"/>
		</g>
	</g>
	<g>
		<g>
			<path style="&st0;" d="M34.363,98.75c-0.862,2.318-0.95,4.693-0.952,7.14c0,0.424,0.657,0.424,0.657,0
				c0.002-2.384,0.088-4.706,0.929-6.966C35.145,98.527,34.51,98.357,34.363,98.75L34.363,98.75z"/>
		</g>
	</g>
	<g>
		<g>
			<path style="&st0;" d="M33.74,105.279c3.929,0.409,7.828,0.456,11.755,0c0.416-0.048,0.421-0.706,0-0.657
				c-3.927,0.456-7.826,0.409-11.755,0C33.318,104.578,33.322,105.236,33.74,105.279L33.74,105.279z"/>
		</g>
	</g>
	<g>
		<g>
			<path style="&st0;" d="M36.474,106.678c3.092,0.443,6.148,0.003,9.109-0.94c0.402-0.128,0.23-0.763-0.175-0.634
				c-2.836,0.904-5.792,1.365-8.759,0.94C36.234,105.985,36.055,106.618,36.474,106.678L36.474,106.678z"/>
		</g>
	</g>
	<g>
		<g>
			<path style="&st0;" d="M47.529,97.514c0.495,3.209,1.454,6.291,2.351,9.404c0.117,0.407,0.752,0.234,0.634-0.175
				c-0.897-3.113-1.856-6.195-2.351-9.404C48.098,96.922,47.465,97.1,47.529,97.514L47.529,97.514z"/>
		</g>
	</g>
	<g>
		<g>
			<path style="&st0;" d="M44.72,107.115c0.846-0.394,1.738-0.425,2.655-0.425c0.424,0,0.424-0.658,0-0.657
				c-1.045,0.001-2.027,0.068-2.987,0.515C44.004,106.726,44.338,107.292,44.72,107.115L44.72,107.115z"/>
		</g>
	</g>
	<g>
		<g>
			<path style="&st0;" d="M81.383,97.34c-0.498,2.997-0.922,5.977-0.952,9.021c-0.004,0.424,0.653,0.424,0.657,0
				c0.03-2.983,0.44-5.908,0.929-8.846C82.086,97.1,81.452,96.922,81.383,97.34L81.383,97.34z"/>
		</g>
	</g>
	<g>
		<g>
			<path style="&st0;" d="M84.608,106.678c2.129-0.487,4.324-0.458,6.495-0.458c0.424,0,0.424-0.658,0-0.657
				c-2.231,0.001-4.483-0.018-6.67,0.482C84.02,106.138,84.196,106.772,84.608,106.678L84.608,106.678z"/>
		</g>
	</g>
	<g>
		<g>
			<path style="&st0;" d="M91.727,97.985c0.44,2.2,0.875,4.403,1.411,6.583c0.101,0.412,0.735,0.237,0.634-0.175
				c-0.536-2.18-0.97-4.382-1.411-6.583C92.278,97.394,91.644,97.571,91.727,97.985L91.727,97.985z"/>
		</g>
	</g>
	<g>
		<g>
			<path style="&st0;" d="M86.872,101.517c0.627,0,1.254,0,1.881,0c0.424,0,0.424-0.657,0-0.657c-0.627,0-1.254,0-1.881,0
				C86.448,100.86,86.448,101.517,86.872,101.517L86.872,101.517z"/>
		</g>
	</g>
	<g>
		<g>
			<path style="&st0;" d="M85.932,103.868c0.424,0,0.424-0.657,0-0.657S85.508,103.868,85.932,103.868L85.932,103.868z"/>
		</g>
	</g>
	<g>
		<g>
			<path style="&st0;" d="M82.64,102.928c1.785,0.217,3.601,0.141,5.377-0.129c0.995-0.151,2.408-0.228,3.252-0.856
				c0.336-0.25,0.009-0.821-0.332-0.568c-0.86,0.64-2.458,0.705-3.465,0.839c-1.601,0.214-3.229,0.251-4.833,0.057
				C82.22,102.219,82.225,102.878,82.64,102.928L82.64,102.928z"/>
		</g>
	</g>
	<g>
		<g>
			<path style="&st0;" d="M85.461,104.809c0.513-0.048,0.912-0.424,1.411-0.47c0.418-0.039,0.422-0.697,0-0.657
				c-0.513,0.048-0.912,0.424-1.411,0.47C85.043,104.19,85.039,104.848,85.461,104.809L85.461,104.809z"/>
		</g>
	</g>
	<g>
		<g>
			<path style="&st0;" d="M79.961,97.897c0,2.664,0,5.329,0,7.993c0,0.193,0.151,0.31,0.329,0.329
				c3.979,0.407,8.289-0.221,11.921-1.926c0.384-0.18,0.05-0.747-0.332-0.568c-2.775,1.302-5.871,1.824-8.914,1.951
				c-0.68,0.028-1.358-0.008-2.036-0.049c-0.534-0.033-0.311-1.912-0.311-2.174c0-1.852,0-3.704,0-5.556
				C80.618,97.473,79.961,97.473,79.961,97.897L79.961,97.897z"/>
		</g>
	</g>
	<g>
		<g>
			<path style="&st0;" d="M90.775,97.427c0.033,2.565,0.457,5.1,0.952,7.611c0.082,0.416,0.716,0.239,0.634-0.175
				c-0.484-2.455-0.896-4.928-0.929-7.436C91.427,97.003,90.77,97.003,90.775,97.427L90.775,97.427z"/>
		</g>
	</g>
	<g>
		<g>
			<path style="&st0;" d="M33.423,98.28c-0.41,2.844-0.479,5.68-0.482,8.551c0,0.153,0.102,0.27,0.241,0.317
				c4.843,1.632,11.047,2.367,15.77-0.033c0.378-0.192,0.045-0.759-0.332-0.568c-2.992,1.521-6.493,1.504-9.76,1.209
				c-1.166-0.105-5.262-0.262-5.26-2.134c0.003-2.408,0.113-4.78,0.457-7.167C34.116,98.04,33.483,97.862,33.423,98.28L33.423,98.28
				z"/>
		</g>
	</g>
	<g>
		<g>
			<path style="&st0;" d="M114.158,129.608c-0.549-4.076-0.89-8.172-1.204-12.272c-0.23-3.009-1.171-6.877-0.207-9.771
				c0.196-0.588-0.33-1.293-0.955-1.253c-31.066,1.969-62.251,2.401-93.37,1.912c-0.54-0.008-0.99,0.457-0.99,0.99
				c0,3.608-0.583,7.221-0.614,10.849c-0.036,4.218,0.446,8.421,0.446,12.629c0,0.526,0.45,1.008,0.99,0.99
				c31.631-1.039,63.385-0.173,94.948-2.821c1.263-0.106,1.273-2.087,0-1.98c-17.103,1.435-34.29,1.731-51.443,2.009
				c-8.635,0.14-17.271,0.242-25.906,0.389c-3.997,0.068-7.994,0.153-11.991,0.255c-0.712,0.018-4.618-0.392-4.618,0.688
				c0-1.992-0.23-4.005-0.32-5.997c-0.18-4-0.179-8.008,0.064-12.004c0.081-1.327,0.424-2.636,0.424-3.962
				c-0.155-0.915,0.048-0.925,0.61-0.03c1.08,0.016,2.161,0.031,3.241,0.044c9.725,0.126,19.451,0.119,29.175,0.032
				c19.795-0.177,39.596-0.762,59.353-2.014c-0.318-0.418-0.636-0.835-0.955-1.253c-0.925,2.775-0.189,5.836,0.02,8.722
				c0.348,4.804,0.748,9.6,1.391,14.374C112.418,131.394,114.326,130.855,114.158,129.608z"/>
		</g>
	</g>
	<g>
		<g>
			<path style="&st0;" d="M35.446,61.222c0-0.01,0.001-0.019,0.001-0.029c-0.255,0.255-0.51,0.51-0.765,0.765
				c0.001,0,0.003,0,0.004,0c-0.246-0.187-0.492-0.375-0.738-0.562c0.459,1.857,0.361,3.828,0.935,5.672
				c0.292,0.939,1.77,0.538,1.476-0.407c-0.574-1.844-0.476-3.815-0.935-5.672c-0.075-0.303-0.411-0.597-0.738-0.562
				c-0.001,0-0.003,0-0.004,0c-0.431,0.046-0.744,0.314-0.765,0.765c0,0.01-0.001,0.019-0.001,0.029
				C33.869,62.209,35.4,62.205,35.446,61.222L35.446,61.222z"/>
		</g>
	</g>
	<g>
		<g>
			<path style="&st0;" d="M34.884,62.43c2.58-0.772,5.353-0.905,7.993-1.411c-0.314-0.178-0.628-0.356-0.941-0.535
				c0.536,2.064,1.207,4.09,1.881,6.113c0.31,0.932,1.789,0.532,1.476-0.407c-0.674-2.023-1.345-4.048-1.881-6.113
				c-0.111-0.427-0.537-0.612-0.941-0.535c-2.64,0.505-5.413,0.638-7.993,1.411C33.533,61.236,33.936,62.714,34.884,62.43
				L34.884,62.43z"/>
		</g>
	</g>
	<g>
		<g>
			<path style="&st0;" d="M38.999,67.181c1.834-0.424,3.682-0.458,5.555-0.458c0.424,0,0.424-0.658,0-0.657
				c-1.931,0.001-3.841,0.045-5.73,0.482C38.412,66.643,38.587,67.277,38.999,67.181L38.999,67.181z"/>
		</g>
	</g>
	<g>
		<g>
			<path style="&st0;" d="M75.292,59.341c0.031,1.851,0.516,3.594,0.968,5.376c0.243,0.956,1.719,0.55,1.476-0.407
				c-0.418-1.649-0.885-3.255-0.913-4.969C76.807,58.355,75.276,58.353,75.292,59.341L75.292,59.341z"/>
		</g>
	</g>
	<g>
		<g>
			<path style="&st0;" d="M76.145,59.658c2.583-0.645,5.231-1.346,7.906-1.399c0.423-0.008,0.424-0.666,0-0.657
				c-2.735,0.054-5.441,0.763-8.081,1.422C75.559,59.127,75.733,59.761,76.145,59.658L76.145,59.658z"/>
		</g>
	</g>
	<g>
		<g>
			<path style="&st0;" d="M84.696,60.282c0.027,0.293,0.084,0.541,0.206,0.809c0.082,0.182,0.245,0.398,0.264,0.601
				c0.091,0.974,1.622,0.983,1.531,0c-0.027-0.293-0.084-0.541-0.206-0.809c-0.082-0.182-0.245-0.398-0.264-0.601
				C86.136,59.307,84.604,59.299,84.696,60.282L84.696,60.282z"/>
		</g>
	</g>
	<g>
		<g>
			<path style="&st0;" d="M83.783,58.604c0.4,1.707,0.428,3.493,0.94,5.172c0.288,0.941,1.765,0.54,1.476-0.407
				c-0.513-1.679-0.541-3.465-0.94-5.172C85.034,57.236,83.558,57.644,83.783,58.604L83.783,58.604z"/>
		</g>
	</g>
	<g>
		<g>
			<path style="&st0;" d="M39.196,59.645c-2.785-3.854-5.171-8.305-4.329-13.206c0.508-2.956,3.11-5.852,6.304-5.391
				c4.324,0.625,3.486,7.122,2.903,9.949c-0.278,1.349-2.712-2.142-2.939-2.475c-0.94-1.38-1.464-2.989-1.659-4.635
				c-0.583-4.92,3.291-9.452,7.642-11.143c6.543-2.543,9.192,3.744,9.057,9.205c-0.053,2.126-0.481,4.232-0.936,6.302
				c-0.843,3.839-2.404-2.624-2.711-4.006c-1.378-6.206,1.325-12.59,6.586-16.002c1.91-1.239,3.855,6.652,4.138,7.831
				c0.964,4.021,0.628,8.268-0.251,12.257c-0.418,1.898-1.347-5.958-1.101-3.705c-0.181-1.658,0.175-3.317,0.625-4.9
				c0.801-2.816,6.86-9.983,8.698-4.453c1.206,3.628,1.225,7.317,0.267,10.985c-1.417,5.43-1.938-2.416-1.936-2.381
				c-0.142-2.187,0.561-4.346,1.428-6.314c1.323-3.001,3.988-5.179,6.695-6.856c1.941-1.202,2.522,9.688,2.517,10.764
				c-0.015,3.451-0.825,6.798-1.919,10.042c0.643-1.908,1.733-5.063,2.773-7.317c0.133-0.288,1.46-2.604,1.449-2.688
				c0.199,1.541,0.097,3.121,0.022,4.665c-0.201,4.131-1.381,8.272-2.985,12.059c-0.163,0.386,0.403,0.721,0.568,0.332
				c2.475-5.845,3.684-12.174,2.866-18.504c-0.036-0.283-0.458-0.5-0.613-0.166c-2.05,4.419-3.897,8.401-4.735,13.244
				c-0.073,0.422,0.476,0.566,0.634,0.175c3.119-7.738,3.234-15.709,0.94-23.685c-0.061-0.212-0.294-0.294-0.483-0.196
				c-7.813,4.043-11.681,11.613-8.615,20.12c0.089,0.248,0.461,0.352,0.601,0.079c3.025-5.897,2.383-11.623,0.033-17.651
				c-0.062-0.158-0.222-0.293-0.404-0.23c-8.111,2.823-10.778,10.49-7.753,18.272c0.113,0.29,0.54,0.336,0.634,0
				c2.212-7.867,1.358-15.785-2.854-22.823c-0.095-0.158-0.29-0.202-0.45-0.118c-8.91,4.711-10.461,15.81-5.29,23.96
				c0.15,0.236,0.524,0.204,0.601-0.079c1.823-6.713,3.349-23.369-8.748-18.668c-9.263,3.6-9.368,14.253-2.616,20.223
				c0.179,0.158,0.485,0.107,0.549-0.145c1.089-4.261,1.291-14.591-6.105-11.57c-8.046,3.287-2.973,14.598,0.332,19.172
				C38.874,60.317,39.445,59.99,39.196,59.645L39.196,59.645z"/>
		</g>
	</g>
	<g>
		<g>
			<path style="&st0;" d="M40.705,72.19c-5.074,1.607-9.287,6.693-7.12,12.165c2.258,5.702,10.888,5.978,15.442,3.314
				c4.057-2.373,5.076-7.751,2.908-11.719c-3.002-5.495-10.013-4.164-14.6-1.847c-0.379,0.191-0.046,0.758,0.332,0.568
				c4.362-2.203,10.217-3.381,13.468,1.236c2.271,3.226,1.436,7.71-1.299,10.335c-3.896,3.738-12.056,3.203-15.159-1.231
				c-3.483-4.976,1.549-10.714,6.204-12.189C41.283,72.696,41.111,72.061,40.705,72.19L40.705,72.19z"/>
		</g>
	</g>
	<g>
		<g>
			<path style="&st0;" d="M78.588,72.19c-5.074,1.607-9.287,6.693-7.12,12.165c2.258,5.702,10.888,5.978,15.442,3.314
				c4.057-2.373,5.076-7.751,2.908-11.719c-3.002-5.495-10.013-4.164-14.6-1.847c-0.379,0.191-0.046,0.758,0.332,0.568
				c4.362-2.203,10.217-3.381,13.468,1.236c2.271,3.226,1.436,7.71-1.299,10.335c-3.896,3.738-12.056,3.203-15.159-1.231
				c-3.483-4.976,1.549-10.714,6.204-12.189C79.166,72.696,78.993,72.061,78.588,72.19L78.588,72.19z"/>
		</g>
	</g>
	<g>
		<g>
			<path style="&st0;" d="M25.81,128.319c14.641-0.556,29.307,0.17,43.951,0.236c7.768,0.035,15.539-0.121,23.286-0.709
				c4.649-0.353,10.043-0.421,14.25-2.561c0.092-0.047,0.177-0.178,0.163-0.284c-0.537-4.108-1.195-8.2-1.861-12.288
				c-0.024-0.15-0.182-0.231-0.317-0.241c-27.102-2.045-54.238,2.606-81.353,1.554c-0.231-0.009-0.435,0.294-0.284,0.495
				c2.668,3.557,1.179,9.231,1.848,13.557c0.065,0.418,0.698,0.24,0.634-0.175c-0.545-3.524-0.448-7.161-0.458-10.716
				c-0.003-0.915,0.152-0.854-0.266-1.411c-1.512-2.016,0.054-1.03,2.069-0.986c7.922,0.174,15.859-0.2,23.77-0.559
				c16.777-0.763,33.625-2.102,50.426-1.335c0.753,0.034,3.262-0.22,3.386,0.544c0.192,1.184,0.38,2.368,0.567,3.552
				c0.258,1.634,0.507,3.27,0.75,4.907c0.414,2.778,0.411,3.435-2.441,3.958c-8.596,1.576-17.448,1.845-26.165,1.998
				c-17.317,0.303-34.644-0.85-51.956-0.193C25.387,127.677,25.386,128.335,25.81,128.319L25.81,128.319z"/>
		</g>
	</g>
	<g>
		<g>
			<g>
				<g>
					<path style="&st0;" d="M117.929,127.456c0.071-0.01,0.152-0.03,0.224-0.022c-0.208-0.363-0.416-0.725-0.624-1.088
						c-0.001,0.001-0.001,0.003-0.002,0.004c0.144-0.111,0.288-0.221,0.432-0.332c-0.639,0.259-1.434,0.312-2.107,0.444
						c-0.785,0.154-1.572,0.321-2.364,0.439c-0.919,0.137-0.527,1.529,0.384,1.394c0.896-0.133,1.786-0.325,2.675-0.5
						c0.538-0.106,1.924-0.138,2.23-0.719c0.274-0.521-0.078-1.028-0.624-1.088c-0.072-0.008-0.153,0.013-0.224,0.022
						C117.02,126.133,117.008,127.58,117.929,127.456L117.929,127.456z"/>
				</g>
			</g>
			<g>
				<g>
					<path style="&st0;" d="M118.626,126.926c1.074-4.888,0.547-9.976-0.905-14.73c-0.272-0.889-1.667-0.51-1.394,0.384
						c1.376,4.505,1.924,9.325,0.905,13.962C117.033,127.45,118.426,127.836,118.626,126.926L118.626,126.926z"/>
				</g>
			</g>
			<g>
				<g>
					<path style="&st0;" d="M110.859,112.522c0.842,4.475,1.233,8.939,0.562,13.463c-0.135,0.912,1.258,1.304,1.394,0.384
						c0.71-4.79,0.329-9.494-0.562-14.232C112.08,111.222,110.687,111.611,110.859,112.522L110.859,112.522z"/>
				</g>
			</g>
			<g>
				<g>
					<path style="&st0;" d="M120.012,122.798c5.518-0.049,13.944,0.158,18.387-3.729c4.331-3.788,1.311-7.992-2.926-9.898
						c-3.307-1.488-7.082-2.127-9.941-4.483c-0.872-0.175-0.82-0.317,0.156-0.424c1.177-0.317,2.431-0.358,3.64-0.458
						c1.879-0.156,3.78-0.209,5.643-0.518c3.386-0.562,10.157-3.828,6.41-8.368c-3.326-4.03-11.118-2.369-15.52-1.876
						c-3.176,0.355-5.991,0.785-9.121,0.006c-1.297-0.323-7.229-1.67-6.213-3.945c0.787-1.764,4.333-2.718,5.897-3.263
						c8.757-3.048,32.607-2.931,31.312-16.949c-0.085-0.92-1.531-0.928-1.446,0c0.965,10.444-15.599,12.368-22.99,13.739
						c-1.836,0.341-17.978,3.573-13.869,8.433c5.038,5.958,14.648,3.461,21.179,2.968c2.268-0.171,4.56-0.193,6.8,0.238
						c4.29,0.824,4.12,5.399,0.148,6.958c-4.344,1.705-9.348,0.417-13.697,2.111c-0.396,0.154-0.728,0.648-0.432,1.062
						c3.463,4.831,10.455,4.284,14.69,8.055c5.115,4.554-5.274,7.611-8.021,8.127c-3.307,0.621-6.73,0.738-10.087,0.768
						C119.08,121.36,119.079,122.806,120.012,122.798L120.012,122.798z"/>
				</g>
			</g>
			<g>
				<g>
					<path style="&st0;" d="M118.209,118.407c3.249,0.322,16.195,1.084,14.96-5.085c-0.539-2.69-3.209-3.801-5.554-4.593
						c-1.922-0.649-8.887-1.431-7.068-4.572c0.468-0.808-0.781-1.536-1.248-0.73c-2.913,5.027,5.923,5.958,8.863,7.021
						c1.438,0.52,3.026,1.323,3.535,2.868c0.662,2.013-2.001,2.835-3.398,3.207c-3.195,0.851-6.818,0.762-10.09,0.438
						C117.282,116.869,117.29,118.316,118.209,118.407L118.209,118.407z"/>
				</g>
			</g>
			<g>
				<g>
					<path style="&st0;" d="M119.3,103.427c-0.13,0.204-0.006,0.126,0.373-0.235c0.272,0.354,0.544,0.708,0.816,1.062
						c2.03-3.534,6.554-5.224,10.394-5.36c0.929-0.033,0.933-1.479,0-1.446c-4.353,0.155-9.353,2.092-11.642,6.076
						c-0.29,0.505,0.197,1.306,0.816,1.062c0.23-0.091,0.368-0.218,0.491-0.429C121.018,103.35,119.768,102.622,119.3,103.427
						L119.3,103.427z"/>
				</g>
			</g>
			<g>
				<g>
					<path style="&st0;" d="M129.962,98.122c-6.143,1.073-12.863,2.1-18.739-0.604c-1.208-0.556-2.15-2.496-3.51-2.306
						c-0.539,0.075-1.454-6.221-1.506-6.885c-0.073-0.923-1.519-0.93-1.446,0c0.215,2.73,0.711,5.571,1.984,8.021
						c0.162,0.312,0.503,0.376,0.816,0.332c0.376-0.052,2.507,1.835,2.932,2.086c1.529,0.902,3.475,1.393,5.21,1.611
						c4.929,0.619,9.784-0.012,14.644-0.861C131.263,99.355,130.873,97.962,129.962,98.122L129.962,98.122z"/>
				</g>
			</g>
			<g>
				<g>
					<path style="&st0;" d="M106.293,89.323c1.397-8.925,15.647-10.162,22.879-11.482c4.886-0.892,14.709-2.742,12.994-9.733
						c-0.222-0.905-1.616-0.521-1.394,0.384c1.848,7.534-14.253,8.1-18.917,9.213c-6.205,1.481-15.782,3.733-16.956,11.233
						C104.756,89.85,106.149,90.242,106.293,89.323L106.293,89.323z"/>
				</g>
			</g>
			<g>
				<g>
					<path style="&st0;" d="M141.931,71.418c0.535-0.759,0.71-1.707,0.604-2.62c-0.046-0.391-0.294-0.723-0.723-0.723
						c-0.359,0-0.769,0.331-0.723,0.723c0.08,0.69,0,1.314-0.407,1.89C140.144,71.452,141.398,72.173,141.931,71.418L141.931,71.418
						z"/>
				</g>
			</g>
			<g>
				<g>
					<path style="&st0;" d="M149.505,66.458c-3.219,0.428-6.461,0.646-9.68,1.075c-0.91,0.121-0.922,1.568,0,1.446
						c3.219-0.428,6.461-0.646,9.68-1.075C150.415,67.783,150.427,66.336,149.505,66.458L149.505,66.458z"/>
				</g>
			</g>
			<g>
				<g>
					<path style="&st0;" d="M149.704,67.716c0.279-0.984,0.032-2.111-0.105-3.1c-0.054-0.391-0.547-0.599-0.889-0.505
						c-0.417,0.115-0.559,0.499-0.505,0.889c0.1,0.723,0.308,1.615,0.105,2.332C148.055,68.23,149.45,68.611,149.704,67.716
						L149.704,67.716z"/>
				</g>
			</g>
			<g>
				<g>
					<path style="&st0;" d="M148.137,63.917c-3.617,0.787-7.243,1.534-10.908,2.065c-0.92,0.133-0.527,1.526,0.384,1.394
						c3.665-0.53,7.291-1.278,10.908-2.065C149.432,65.113,149.045,63.72,148.137,63.917L148.137,63.917z"/>
				</g>
			</g>
			<g>
				<g>
					<path style="&st0;" d="M139.912,67.602c-0.012-0.089-0.025-0.179-0.037-0.268c-0.054-0.391-0.547-0.599-0.889-0.505
						c-0.416,0.115-0.559,0.499-0.505,0.889c0.012,0.089,0.025,0.179,0.037,0.268c0.054,0.391,0.547,0.599,0.889,0.505
						C139.823,68.377,139.966,67.992,139.912,67.602L139.912,67.602z"/>
				</g>
			</g>
			<g>
				<g>
					<path style="&st0;" d="M147.27,65.617c3.088-3.608,5.551-7.617,8.071-11.63c0.284-0.452-0.082-1.114-0.624-1.088
						c-7.695,0.367-14.989,3.629-22.731,3.437c-0.65-0.016-0.93,0.789-0.511,1.234c3.006,3.19,6.216,6.175,9.222,9.365
						c0.64,0.68,1.661-0.344,1.022-1.022c-3.006-3.19-6.216-6.175-9.222-9.365c-0.17,0.411-0.341,0.823-0.511,1.234
						c7.753,0.192,15.034-3.07,22.731-3.437c-0.208-0.363-0.416-0.725-0.624-1.088c-2.454,3.907-4.836,7.822-7.845,11.338
						C145.645,65.299,146.663,66.326,147.27,65.617L147.27,65.617z"/>
				</g>
			</g>
			<g>
				<g>
					<path style="&st0;" d="M122.242,122.029c-0.367-0.955-0.501-1.921-0.41-2.94c0.033-0.372-0.545-0.368-0.578,0
						c-0.096,1.067,0.046,2.093,0.43,3.094C121.817,122.527,122.376,122.377,122.242,122.029L122.242,122.029z"/>
				</g>
			</g>
			<g>
				<g>
					<path style="&st0;" d="M127.067,120.653c-0.665-0.353-1.049-1.079-0.936-1.831c0.055-0.365-0.502-0.521-0.558-0.154
						c-0.151,1.004,0.291,2.001,1.202,2.484C127.104,121.327,127.397,120.828,127.067,120.653L127.067,120.653z"/>
				</g>
			</g>
			<g>
				<g>
					<path style="&st0;" d="M132.475,120.466c-0.869-0.903-1.471-1.973-1.673-3.217c-0.059-0.367-0.617-0.211-0.558,0.154
						c0.216,1.336,0.89,2.504,1.821,3.472C132.325,121.144,132.734,120.735,132.475,120.466L132.475,120.466z"/>
				</g>
			</g>
			<g>
				<g>
					<path style="&st0;" d="M138.883,116.898c-2.478,0.526-4.713-0.189-6.64-1.781c-0.285-0.236-0.697,0.171-0.409,0.409
						c2.097,1.732,4.512,2.501,7.203,1.93C139.402,117.378,139.247,116.821,138.883,116.898L138.883,116.898z"/>
				</g>
			</g>
			<g>
				<g>
					<path style="&st0;" d="M136.067,111.396c-1.387,0.417-2.807,0.647-4.239,0.846c-0.368,0.051-0.211,0.608,0.154,0.558
						c1.432-0.2,2.852-0.429,4.239-0.846C136.577,111.846,136.425,111.288,136.067,111.396L136.067,111.396z"/>
				</g>
			</g>
			<g>
				<g>
					<path style="&st0;" d="M129.153,108.277c-0.754,0.368-1.543,0.691-2.375,0.824c-0.367,0.059-0.211,0.616,0.154,0.558
						c0.88-0.14,1.717-0.493,2.513-0.882C129.78,108.613,129.487,108.114,129.153,108.277L129.153,108.277z"/>
				</g>
			</g>
			<g>
				<g>
					<path style="&st0;" d="M125.085,105.293c-1.167,0.988-2.667,1.625-4.174,1.058c-0.35-0.132-0.499,0.428-0.154,0.558
						c1.702,0.641,3.421-0.093,4.737-1.207C125.779,105.46,125.367,105.053,125.085,105.293L125.085,105.293z"/>
				</g>
			</g>
			<g>
				<g>
					<path style="&st0;" d="M125.016,102.704c-0.924-0.127-1.207-0.788-1.335-1.634c-0.056-0.368-0.613-0.211-0.558,0.154
						c0.156,1.031,0.628,1.886,1.739,2.038C125.227,103.312,125.384,102.755,125.016,102.704L125.016,102.704z"/>
				</g>
			</g>
			<g>
				<g>
					<path style="&st0;" d="M130.183,102.536c-0.77-0.409-1.103-1.24-1.468-1.984c-0.164-0.335-0.663-0.042-0.499,0.292
						c0.412,0.84,0.81,1.732,1.676,2.191C130.221,103.21,130.513,102.711,130.183,102.536L130.183,102.536z"/>
				</g>
			</g>
			<g>
				<g>
					<path style="&st0;" d="M139.632,99.623c-2.858,0.321-5.534-0.507-7.851-2.179c-0.303-0.219-0.591,0.283-0.292,0.499
						c2.39,1.724,5.196,2.589,8.143,2.258C139.998,100.161,140.002,99.582,139.632,99.623L139.632,99.623z"/>
				</g>
			</g>
			<g>
				<g>
					<path style="&st0;" d="M131.313,98.265c2.032-0.859,3.598-2.394,4.642-4.323c0.177-0.328-0.322-0.62-0.499-0.292
						c-1.003,1.854-2.484,3.292-4.434,4.116C130.679,97.911,130.974,98.409,131.313,98.265L131.313,98.265z"/>
				</g>
			</g>
			<g>
				<g>
					<path style="&st0;" d="M128.32,98.389c1.049-1.148,1.712-2.497,2.098-3.997c0.093-0.361-0.465-0.515-0.558-0.154
						c-0.361,1.404-0.966,2.666-1.95,3.742C127.66,98.254,128.068,98.665,128.32,98.389L128.32,98.389z"/>
				</g>
			</g>
			<g>
				<g>
					<path style="&st0;" d="M120.676,100.169c0.882-1.506,1.627-3.079,2.2-4.728c0.123-0.353-0.436-0.504-0.558-0.154
						c-0.556,1.603-1.284,3.127-2.141,4.59C119.988,100.2,120.488,100.491,120.676,100.169L120.676,100.169z"/>
				</g>
			</g>
			<g>
				<g>
					<path style="&st0;" d="M113.026,98.98c1.753-1.4,2.718-3.243,2.939-5.471c0.037-0.371-0.542-0.367-0.578,0
						c-0.206,2.075-1.144,3.764-2.77,5.062C112.325,98.804,112.737,99.21,113.026,98.98L113.026,98.98z"/>
				</g>
			</g>
			<g>
				<g>
					<path style="&st0;" d="M111.134,91.602c-1.221,1.533-2.808,2.034-4.608,1.158c-0.334-0.163-0.627,0.336-0.292,0.499
						c2.028,0.987,3.913,0.505,5.308-1.248C111.773,91.722,111.366,91.31,111.134,91.602L111.134,91.602z"/>
				</g>
			</g>
			<g>
				<g>
					<path style="&st0;" d="M111.919,86.937c-0.806-0.84-1.139-1.764-0.883-2.917c0.081-0.363-0.477-0.518-0.558-0.154
						c-0.301,1.359,0.079,2.485,1.032,3.48C111.768,87.615,112.177,87.206,111.919,86.937L111.919,86.937z"/>
				</g>
			</g>
			<g>
				<g>
					<path style="&st0;" d="M118.437,83.788c-0.573-0.881-0.702-1.789-0.391-2.794c0.111-0.357-0.448-0.509-0.558-0.154
						c-0.354,1.144-0.204,2.235,0.449,3.24C118.14,84.391,118.641,84.101,118.437,83.788L118.437,83.788z"/>
				</g>
			</g>
			<g>
				<g>
					<path style="&st0;" d="M126.342,81.662c-0.793-1.038-1.021-2.143-0.239-3.263c0.214-0.307-0.287-0.595-0.499-0.292
						c-0.89,1.275-0.676,2.649,0.239,3.847C126.065,82.246,126.568,81.958,126.342,81.662L126.342,81.662z"/>
				</g>
			</g>
			<g>
				<g>
					<path style="&st0;" d="M135.324,79.721c-1.298,0.14-2.196-0.793-2.585-1.952c-0.118-0.352-0.677-0.201-0.558,0.154
						c0.465,1.383,1.586,2.544,3.143,2.376C135.691,80.26,135.694,79.681,135.324,79.721L135.324,79.721z"/>
				</g>
			</g>
			<g>
				<g>
					<path style="&st0;" d="M140.003,77.809c-1.526-0.319-2.602-1.358-3.299-2.715c-0.171-0.332-0.669-0.039-0.499,0.292
						c0.761,1.48,1.984,2.634,3.645,2.981C140.213,78.443,140.367,77.886,140.003,77.809L140.003,77.809z"/>
				</g>
			</g>
			<g>
				<g>
					<path style="&st0;" d="M144.639,74.837c-1.407,0.171-2.837-0.029-3.812-1.15c-0.245-0.282-0.652,0.129-0.409,0.409
						c1.066,1.226,2.669,1.508,4.22,1.32C145.004,75.371,145.008,74.792,144.639,74.837L144.639,74.837z"/>
				</g>
			</g>
			<g>
				<g>
					<path style="&st0;" d="M146.586,70.977c-1.635,0.436-3.28,0.481-4.944,0.197c-0.365-0.062-0.521,0.495-0.154,0.558
						c1.767,0.302,3.516,0.265,5.252-0.197C147.1,71.439,146.947,70.881,146.586,70.977L146.586,70.977z"/>
				</g>
			</g>
			<g>
				<g>
					<path style="&st0;" d="M144.453,66.619c1.868-3.378,3.751-6.746,5.779-10.03c0.197-0.318-0.304-0.608-0.499-0.292
						c-2.029,3.285-3.911,6.653-5.779,10.03C143.773,66.654,144.272,66.945,144.453,66.619L144.453,66.619z"/>
				</g>
			</g>
			<g>
				<g>
					<path style="&st0;" d="M143.706,62.814c0.58-1.401,0.973-2.866,1.451-4.302c0.118-0.355-0.441-0.506-0.558-0.154
						c-0.478,1.437-0.871,2.902-1.451,4.302C143.005,63.005,143.565,63.153,143.706,62.814L143.706,62.814z"/>
				</g>
			</g>
			<g>
				<g>
					<path style="&st0;" d="M141.582,65.958c-1.189-1.777-2.025-3.709-2.822-5.685c-0.138-0.341-0.697-0.192-0.558,0.154
						c0.815,2.02,1.664,4.006,2.88,5.823C141.289,66.558,141.79,66.269,141.582,65.958L141.582,65.958z"/>
				</g>
			</g>
			<g>
				<g>
					<path style="&st0;" d="M142.664,64.526c-1.244-2.028-2.305-4.133-2.927-6.439c-0.097-0.36-0.655-0.207-0.558,0.154
						c0.635,2.354,1.715,4.505,2.985,6.577C142.36,65.135,142.86,64.845,142.664,64.526L142.664,64.526z"/>
				</g>
			</g>
			<g>
				<g>
					<path style="&st0;" d="M147.044,63.225c-2.054,0.531-4.151,0.834-6.25,1.126c-0.368,0.051-0.211,0.608,0.154,0.558
						c2.099-0.293,4.196-0.595,6.25-1.126C147.559,63.689,147.406,63.132,147.044,63.225L147.044,63.225z"/>
				</g>
			</g>
			<g>
				<g>
					<path style="&st0;" d="M148.168,60.25c-2.518,0.351-5.03,0.72-7.507,1.301c-0.363,0.085-0.209,0.643,0.154,0.558
						c2.477-0.582,4.989-0.95,7.507-1.301C148.69,60.756,148.532,60.199,148.168,60.25L148.168,60.25z"/>
				</g>
			</g>
			<g>
				<g>
					<path style="&st0;" d="M148.531,59.174c-3.352,0.467-6.704,0.933-10.056,1.4c-0.368,0.051-0.211,0.608,0.154,0.558
						c3.352-0.467,6.704-0.933,10.056-1.4C149.053,59.68,148.895,59.123,148.531,59.174L148.531,59.174z"/>
				</g>
			</g>
			<g>
				<g>
					<path style="&st0;" d="M146.518,61.206c0.672-0.928,1.025-1.99,1.163-3.121c0.045-0.37-0.534-0.365-0.578,0
						c-0.125,1.028-0.476,1.989-1.084,2.83C145.8,61.217,146.302,61.505,146.518,61.206L146.518,61.206z"/>
				</g>
			</g>
			<g>
				<g>
					<path style="&st0;" d="M141.513,63.478c-0.756-1.864-1.558-3.708-2.313-5.572c-0.138-0.341-0.698-0.192-0.558,0.154
						c0.756,1.864,1.558,3.708,2.313,5.572C141.093,63.972,141.653,63.824,141.513,63.478L141.513,63.478z"/>
				</g>
			</g>
			<g>
				<g>
					<path style="&st0;" d="M140.479,64.199c-2.143-1.434-3.951-3.219-5.513-5.265c-0.223-0.292-0.726-0.005-0.499,0.292
						c1.624,2.128,3.492,3.981,5.72,5.472C140.498,64.907,140.788,64.405,140.479,64.199L140.479,64.199z"/>
				</g>
			</g>
			<g>
				<g>
					<path style="&st0;" d="M116.601,125.638c-0.626,0.001-1.357-0.037-1.812-0.527c-0.396-0.426-0.209-1.147-0.054-1.628
						c0.115-0.356-0.444-0.507-0.558-0.154c-0.221,0.686-0.339,1.519,0.149,2.124c0.538,0.667,1.476,0.764,2.274,0.763
						C116.974,126.216,116.974,125.637,116.601,125.638L116.601,125.638z"/>
				</g>
			</g>
			<g>
				<g>
					<path style="&st0;" d="M115.588,125.928c0.117-0.69,0.106-1.392,0.223-2.081c0.062-0.365-0.495-0.521-0.558-0.154
						c-0.117,0.69-0.106,1.392-0.223,2.081C114.968,126.139,115.525,126.295,115.588,125.928L115.588,125.928z"/>
				</g>
			</g>
			<g>
				<g>
					<path style="&st0;" d="M117.599,125.648c0.182-0.541,0.352-1.078,0.303-1.655c-0.031-0.369-0.61-0.372-0.578,0
						c0.045,0.527-0.117,1.008-0.283,1.502C116.922,125.849,117.481,125.999,117.599,125.648L117.599,125.648z"/>
				</g>
			</g>
			<g>
				<g>
					<path style="&st0;" d="M115.588,125.928c0.181-0.538,0.363-1.076,0.544-1.613c0.12-0.354-0.439-0.505-0.558-0.154
						c-0.181,0.538-0.363,1.076-0.544,1.613C114.91,126.128,115.469,126.279,115.588,125.928L115.588,125.928z"/>
				</g>
			</g>
			<g>
				<g>
					<path style="&st0;" d="M114.124,126.312c0.042-1.46,0.117-2.919,0.159-4.379c0.011-0.373-0.568-0.372-0.578,0
						c-0.042,1.46-0.117,2.919-0.159,4.379C113.536,126.685,114.114,126.684,114.124,126.312L114.124,126.312z"/>
				</g>
			</g>
		</g>
		<g>
			<g>
				<path style="&st0;" d="M111.192,115.207c-0.34-0.922-0.08-1.333,0.83-1.658c1.043-0.372,2.195-0.475,3.285-0.627
					c0.92-0.128,0.527-1.521-0.384-1.394c-2.254,0.314-6.337,0.772-5.124,4.063C110.117,116.458,111.515,116.083,111.192,115.207
					L111.192,115.207z"/>
			</g>
		</g>
	</g>
	<g>
		<g>
			<path style="&st0;" d="M26.828,77.679c0.001,5.649,0.036,11.292,0.47,16.927c0.032,0.42,0.69,0.423,0.657,0
				c-0.434-5.636-0.469-11.278-0.47-16.927C27.486,77.255,26.828,77.255,26.828,77.679L26.828,77.679z"/>
		</g>
	</g>
	<g>
		<g>
			<path style="&st0;" d="M30.831,94.923c2.365,0.472,4.722,0.916,7.14,0.952c0.424,0.006,0.424-0.651,0-0.657
				c-2.359-0.035-4.659-0.468-6.966-0.929C30.592,94.206,30.416,94.84,30.831,94.923L30.831,94.923z"/>
		</g>
	</g>
	<g>
		<g>
			<path style="&st0;" d="M18.88,115.931c1.295,2.172,2.506,4.354,4.283,6.179c0.296,0.304,0.761-0.161,0.465-0.465
				c-1.739-1.785-2.914-3.923-4.18-6.046C19.231,115.235,18.662,115.566,18.88,115.931L18.88,115.931z"/>
		</g>
	</g>
	<g>
		<g>
			<path style="&st0;" d="M21.985,113.743c0.424,0,0.424-0.657,0-0.657S21.561,113.743,21.985,113.743L21.985,113.743z"/>
		</g>
	</g>
	<g>
		<g>
			<path style="&st0;" d="M23.395,111.862c0.424,0,0.424-0.657,0-0.657S22.971,111.862,23.395,111.862L23.395,111.862z"/>
		</g>
	</g>
	<g>
		<g>
			<path style="&st0;" d="M22.925,113.272c0.424,0,0.424-0.657,0-0.657S22.501,113.272,22.925,113.272L22.925,113.272z"/>
		</g>
	</g>
	<g>
		<g>
			<path style="&st0;" d="M23.112,115.599c-1.289,2.124-2.743,4.126-4.232,6.113c-0.255,0.34,0.317,0.667,0.568,0.332
				c1.489-1.986,2.943-3.989,4.232-6.113C23.9,115.567,23.331,115.237,23.112,115.599L23.112,115.599z"/>
		</g>
	</g>
	<g>
		<g>
			<path style="&st0;" d="M22.171,122.182c-0.94,1.411-1.881,2.821-2.821,4.232c-0.236,0.354,0.334,0.683,0.568,0.332
				c0.94-1.411,1.881-2.821,2.821-4.232C22.975,122.16,22.405,121.831,22.171,122.182L22.171,122.182z"/>
		</g>
	</g>
	<g>
		<g>
			<path style="&st0;" d="M22.641,125.003c-1.075,1.646-1.943,3.416-2.821,5.172c-0.189,0.378,0.378,0.711,0.568,0.332
				c0.878-1.756,1.746-3.526,2.821-5.172C23.442,124.979,22.872,124.649,22.641,125.003L22.641,125.003z"/>
		</g>
	</g>
	<g>
		<g>
			<path style="&st0;" d="M24.336,129.729c0.424,0,0.424-0.657,0-0.657S23.912,129.729,24.336,129.729L24.336,129.729z"/>
		</g>
	</g>
	<g>
		<g>
			<path style="&st0;" d="M28.097,130.199c0.424,0,0.424-0.657,0-0.657S27.673,130.199,28.097,130.199L28.097,130.199z"/>
		</g>
	</g>
	<g>
		<g>
			<path style="&st0;" d="M31.389,129.259c0.424,0,0.424-0.657,0-0.657C30.965,128.602,30.965,129.259,31.389,129.259
				L31.389,129.259z"/>
		</g>
	</g>
	<g>
		<g>
			<path style="&st0;" d="M22.687,133.865c2.06-2.033,4.326-3.836,6.583-5.642c0.331-0.265-0.137-0.727-0.465-0.465
				c-2.257,1.806-4.523,3.61-6.583,5.642C21.92,133.698,22.386,134.163,22.687,133.865L22.687,133.865z"/>
		</g>
	</g>
	<g>
		<g>
			<path style="&st0;" d="M31.621,130.573c1.371-1.347,2.926-2.373,4.635-3.24c0.378-0.192,0.045-0.759-0.332-0.568
				c-1.76,0.892-3.358,1.957-4.769,3.343C30.854,130.406,31.319,130.871,31.621,130.573L31.621,130.573z"/>
		</g>
	</g>
	<g>
		<g>
			<path style="&st0;" d="M36.727,129.684c1.167-0.77,2.357-1.397,3.683-1.848c0.399-0.136,0.228-0.771-0.175-0.634
				c-1.378,0.469-2.626,1.112-3.84,1.914C36.043,129.349,36.372,129.919,36.727,129.684L36.727,129.684z"/>
		</g>
	</g>
	<g>
		<g>
			<path style="&st0;" d="M41.263,130.199c0.513-0.048,0.912-0.424,1.411-0.47c0.418-0.039,0.422-0.697,0-0.657
				c-0.513,0.048-0.912,0.424-1.411,0.47C40.845,129.581,40.841,130.239,41.263,130.199L41.263,130.199z"/>
		</g>
	</g>
	<g>
		<g>
			<path style="&st0;" d="M45.025,131.14c0.424,0,0.424-0.657,0-0.657C44.601,130.482,44.601,131.14,45.025,131.14L45.025,131.14z"
				/>
		</g>
	</g>
	<g>
		<g>
			<path style="&st0;" d="M46.905,132.08c0.424,0,0.424-0.657,0-0.657C46.481,131.423,46.481,132.08,46.905,132.08L46.905,132.08z"
				/>
		</g>
	</g>
	<g>
		<g>
			<path style="&st0;" d="M31.105,69.049c-1.941,2.94-3.702,5.994-5.642,8.934c-0.234,0.355,0.335,0.684,0.568,0.332
				c1.941-2.94,3.702-5.994,5.642-8.934C31.907,69.026,31.337,68.697,31.105,69.049L31.105,69.049z"/>
		</g>
	</g>
	<g>
		<g>
			<path style="&st0;" d="M30.635,73.281c-1.467,2.877-3.235,5.587-4.702,8.464c-0.192,0.377,0.375,0.71,0.568,0.332
				c1.467-2.877,3.235-5.587,4.702-8.464C31.395,73.236,30.827,72.903,30.635,73.281L30.635,73.281z"/>
		</g>
	</g>
	<g>
		<g>
			<path style="&st0;" d="M27.343,73.613c1.523,1.997,3.293,3.767,5.29,5.29c0.337,0.257,0.664-0.314,0.332-0.568
				c-1.901-1.449-3.605-3.154-5.054-5.054C27.658,72.949,27.086,73.276,27.343,73.613L27.343,73.613z"/>
		</g>
	</g>
	<g>
		<g>
			<path style="&st0;" d="M28.284,77.375c0.47,0.94,0.94,1.881,1.411,2.821c0.19,0.379,0.757,0.046,0.568-0.332
				c-0.47-0.94-0.94-1.881-1.411-2.821C28.662,76.663,28.095,76.997,28.284,77.375L28.284,77.375z"/>
		</g>
	</g>
	<g>
		<g>
			<path style="&st0;" d="M30.216,85.434c0.662,0.693,1.165,1.546,1.655,2.364c0.344,0.574,0.997,1.419,1.07,2.106
				c0.044,0.417,0.702,0.421,0.657,0c-0.083-0.781-0.666-1.585-1.046-2.244c-0.54-0.934-1.122-1.906-1.871-2.69
				C30.387,84.663,29.923,85.128,30.216,85.434L30.216,85.434z"/>
		</g>
	</g>
	<g>
		<g>
			<path style="&st0;" d="M30.216,90.607c0.603,0.64,0.97,1.507,1.359,2.284c0.19,0.379,0.757,0.046,0.568-0.332
				c-0.417-0.834-0.816-1.731-1.462-2.418C30.39,89.833,29.925,90.298,30.216,90.607L30.216,90.607z"/>
		</g>
	</g>
	<g>
		<g>
			<path style="&st0;" d="M29.978,95.405c0.424,0,0.424-0.657,0-0.657S29.554,95.405,29.978,95.405L29.978,95.405z"/>
		</g>
	</g>
	<g>
		<g>
			<path style="&st0;" d="M34.494,103.235c0.793-1.031,1.792-1.865,2.789-2.689c0.273-0.225,1.075-1.009,0.218-1.097
				c-0.422-0.043-0.417,0.615,0,0.657c-0.586-0.06-0.079-0.577-0.307-0.351c-0.089,0.089-0.189,0.168-0.285,0.25
				c-0.297,0.251-0.6,0.495-0.896,0.747c-0.765,0.651-1.474,1.355-2.087,2.152C33.668,103.24,34.239,103.566,34.494,103.235
				L34.494,103.235z"/>
		</g>
	</g>
	<g>
		<g>
			<path style="&st0;" d="M34.964,105.116c0.638-0.829,1.367-1.571,2.156-2.256c0.573-0.497,1.455-1.283,2.262-1.343
				c0.42-0.031,0.423-0.689,0-0.657c-0.843,0.063-1.589,0.643-2.235,1.137c-1.041,0.797-1.953,1.751-2.751,2.788
				C34.138,105.12,34.709,105.447,34.964,105.116L34.964,105.116z"/>
		</g>
	</g>
	<g>
		<g>
			<path style="&st0;" d="M36.727,106.174c1.673-1.13,3.326-2.398,4.769-3.813c0.303-0.297-0.162-0.762-0.465-0.465
				c-1.404,1.378-3.007,2.611-4.635,3.71C36.046,105.843,36.374,106.412,36.727,106.174L36.727,106.174z"/>
		</g>
	</g>
	<g>
		<g>
			<path style="&st0;" d="M41.025,107.534c0.469-0.457,0.998-0.86,1.519-1.255c0.376-0.285,1.047-0.95,1.54-1
				c0.418-0.042,0.422-0.7,0-0.657c-0.639,0.065-1.258,0.634-1.751,0.999c-0.609,0.451-1.229,0.918-1.773,1.448
				C40.256,107.365,40.722,107.83,41.025,107.534L41.025,107.534z"/>
		</g>
	</g>
	<g>
		<g>
			<path style="&st0;" d="M37.269,107.063c0.998,0.973,2.123,1.483,3.524,1.507c0.424,0.007,0.424-0.65,0-0.657
				c-1.23-0.021-2.183-0.461-3.059-1.314C37.43,106.303,36.965,106.767,37.269,107.063L37.269,107.063z"/>
		</g>
	</g>
	<g>
		<g>
			<path style="&st0;" d="M37.884,105.737c0.841,0.3,3.16,2.106,3.237,0.153c0.017-0.424-0.641-0.423-0.657,0
				c-0.012,0.301-0.032,0.309-0.296,0.222c-0.234-0.077-0.456-0.216-0.672-0.332c-0.468-0.252-0.935-0.498-1.437-0.677
				C37.659,104.961,37.488,105.596,37.884,105.737L37.884,105.737z"/>
		</g>
	</g>
	<g>
		<g>
			<path style="&st0;" d="M36.091,103.398c0.424,0,0.424-0.657,0-0.657C35.667,102.741,35.667,103.398,36.091,103.398
				L36.091,103.398z"/>
		</g>
	</g>
	<g>
		<g>
			<path style="&st0;" d="M37.031,102.458c0.424,0,0.424-0.657,0-0.657S36.607,102.458,37.031,102.458L37.031,102.458z"/>
		</g>
	</g>
	<g>
		<g>
			<path style="&st0;" d="M38.209,101.421c0.472,0.47,0.949,0.97,1.643,1.037c0.422,0.041,0.418-0.617,0-0.657
				c-0.478-0.046-0.861-0.528-1.178-0.844C38.374,100.657,37.909,101.122,38.209,101.421L38.209,101.421z"/>
		</g>
	</g>
	<g>
		<g>
			<path style="&st0;" d="M38.912,101.517c0.424,0,0.424-0.657,0-0.657C38.488,100.86,38.488,101.517,38.912,101.517L38.912,101.517
				z"/>
		</g>
	</g>
	<g>
		<g>
			<path style="&st0;" d="M37.884,99.155c1.771,0.45,3.452,1.04,5.094,1.848c0.379,0.186,0.712-0.381,0.332-0.568
				c-1.69-0.832-3.426-1.45-5.251-1.914C37.648,98.416,37.473,99.05,37.884,99.155L37.884,99.155z"/>
		</g>
	</g>
	<g>
		<g>
			<path style="&st0;" d="M82.945,104.294c1.175,0.586,2.593,1.398,3.927,1.455c0.424,0.018,0.422-0.639,0-0.657
				c-1.212-0.052-2.527-0.833-3.596-1.366C82.898,103.538,82.565,104.105,82.945,104.294L82.945,104.294z"/>
		</g>
	</g>
	<g>
		<g>
			<path style="&st0;" d="M83.722,104.95c0.019,0.184,0.051,0.328,0.146,0.488c0.093,0.156,0.304,0.257,0.324,0.453
				c0.043,0.417,0.701,0.422,0.657,0c-0.019-0.184-0.051-0.328-0.146-0.488c-0.093-0.156-0.304-0.257-0.324-0.453
				C84.337,104.533,83.679,104.529,83.722,104.95L83.722,104.95z"/>
		</g>
	</g>
	<g>
		<g>
			<path style="&st0;" d="M83.11,104.339c1.145,0.022,2.115,0.391,3.125,0.896c0.378,0.189,0.711-0.378,0.332-0.568
				c-1.113-0.556-2.198-0.961-3.457-0.985C82.686,103.673,82.687,104.33,83.11,104.339L83.11,104.339z"/>
		</g>
	</g>
	<g>
		<g>
			<path style="&st0;" d="M84.759,102.362c0.428,0.388,0.986,0.555,1.411,0.94c0.313,0.284,0.78-0.18,0.465-0.465
				c-0.428-0.388-0.986-0.555-1.411-0.94C84.91,101.613,84.444,102.076,84.759,102.362L84.759,102.362z"/>
		</g>
	</g>
	<g>
		<g>
			<path style="&st0;" d="M83.415,100.062c0.876,0.423,1.819,0.726,2.739,1.037c0.366,0.124,1.569,0.74,1.96,0.461
				c0.143-0.102,0.219-0.287,0.118-0.45c-0.061-0.099-0.153-0.153-0.253-0.205c-0.375-0.196-0.708,0.372-0.332,0.568
				c0.116,0.06,0.104,0.11,0.017-0.03c0.039-0.15,0.079-0.3,0.118-0.45c0.127-0.091,0.185-0.026-0.014-0.077
				c-0.141-0.036-0.279-0.079-0.418-0.121c-0.397-0.12-0.791-0.252-1.183-0.385c-0.811-0.275-1.646-0.543-2.419-0.916
				C83.367,99.311,83.033,99.878,83.415,100.062L83.415,100.062z"/>
		</g>
	</g>
	<g>
		<g>
			<path style="&st0;" d="M83.493,97.274c1.453,0.485,2.86,1.012,4.153,1.848c0.357,0.231,0.686-0.338,0.332-0.568
				c-1.341-0.867-2.804-1.411-4.31-1.914C83.265,96.505,83.093,97.14,83.493,97.274L83.493,97.274z"/>
		</g>
	</g>
	<g>
		<g>
			<path style="&st0;" d="M83.415,103.353c1.075,0.523,2.217,0.888,3.291,1.411c0.38,0.185,0.713-0.382,0.332-0.568
				c-1.075-0.523-2.217-0.888-3.291-1.411C83.367,102.601,83.034,103.168,83.415,103.353L83.415,103.353z"/>
		</g>
	</g>
	<g>
		<g>
			<path style="&st0;" d="M79.587,105.653c1.344,1.212,0.867,2.404,2.671,1.965c0.281-0.068,0.318-0.46,0.079-0.601
				c-0.612-0.36-1.269-0.581-1.881-0.94c-0.084,0.2-0.169,0.401-0.253,0.601c1.754,0.531,3.533,0.875,5.347,0.47
				c0.318-0.071,0.311-0.559,0-0.634c-1.267-0.306-2.488,0.308-3.762,0c-0.029,0.215-0.058,0.43-0.087,0.646
				c2.299,0.297,4.595,0.417,6.912,0.458c0.597,0.011,2.505-0.269,2.986,0.128c-0.441-0.363-0.585-0.427-1.252-0.567
				c-0.655-0.138-2.521-0.624-2.392,0.593c0.02,0.193,0.198,0.399,0.416,0.317c2.064-0.779,4.163,0.206,5.369-2.032
				c0.076-0.141,0.046-0.279-0.051-0.398c-0.231-0.285-0.455-0.595-0.727-0.845c-0.223-0.205-0.535-0.051-0.561,0.232
				c-0.039,0.416,0.853,1.523,0.824,1.553c-0.299,0.301,0.166,0.766,0.465,0.465c0.621-0.627-0.685-1.44-0.631-2.018
				c-0.187,0.077-0.374,0.155-0.561,0.232c1.329,1.221-1.552,1.766-2.444,1.788c-0.385,0.009-2.083,0.542-0.944,0.574
				c0.908,0.026,2.024,0.673,2.922,0.415c0.148-0.043,0.231-0.168,0.241-0.317c0.023-0.324-0.368-0.765-0.697-0.765
				c-3.305-0.002-6.592-0.047-9.874-0.47c-0.372-0.048-0.441,0.56-0.087,0.646c1.267,0.306,2.488-0.308,3.762,0
				c0-0.211,0-0.423,0-0.634c-1.702,0.38-3.36,0.025-4.997-0.47c-0.361-0.109-0.572,0.413-0.253,0.601
				c0.612,0.36,1.269,0.581,1.881,0.94c0.026-0.2,0.052-0.401,0.079-0.601c-0.804,0.195-1.382-1.211-2.031-1.796
				C79.738,104.905,79.271,105.368,79.587,105.653L79.587,105.653z"/>
		</g>
	</g>
	<g>
		<g>
			<path style="&st0;" d="M31.06,108.242c0.002,0.075,0.007,0.168,0.055,0.23c0.098,0.127,0.209,0.181,0.371,0.151
				c0.336-0.062,0.408-0.76,0.3-1.005c-0.132-0.297-0.484-0.173-0.626,0.026c-0.284,0.398-0.406,0.997-0.558,1.45
				c-0.135,0.403,0.5,0.575,0.634,0.175c0.109-0.326,0.221-0.65,0.344-0.971c0.027-0.071,0.056-0.14,0.088-0.209
				c0.013-0.029,0.028-0.057,0.043-0.084c0.121-0.18-0.056-0.242-0.532-0.186c0.007,0.089,0.001,0.06-0.019,0.161
				c-0.008,0.044-0.019,0.087-0.03,0.13c-0.049,0.186-0.043-0.08,0.183-0.121c0.124,0.05,0.247,0.101,0.371,0.151
				c0.027,0.139,0.039,0.173,0.035,0.102C31.707,107.818,31.05,107.817,31.06,108.242L31.06,108.242z"/>
		</g>
	</g>
	<g>
		<g>
			<path style="&st0;" d="M18.528,112.287c0.872,0.597,1.653,1.322,2.402,2.064c0.619,0.613,1.295,1.276,1.712,2.049
				c0.201,0.373,0.769,0.041,0.568-0.332c-0.445-0.825-1.162-1.523-1.815-2.182c-0.78-0.788-1.619-1.54-2.535-2.167
				C18.508,111.479,18.18,112.049,18.528,112.287L18.528,112.287z"/>
		</g>
	</g>
	<g>
		<g>
			<path style="&st0;" d="M19.872,118.348c1.072,1.091,1.988,2.597,3.358,3.343c0.372,0.203,0.704-0.365,0.332-0.568
				c-1.309-0.713-2.198-2.195-3.225-3.24C20.039,117.581,19.574,118.046,19.872,118.348L19.872,118.348z"/>
		</g>
	</g>
	<g>
		<g>
			<path style="&st0;" d="M17.567,122.513c1.327-3.094,2.635-6.246,4.702-8.934c0.258-0.336-0.313-0.663-0.568-0.332
				c-2.067,2.687-3.375,5.839-4.702,8.934C16.834,122.567,17.4,122.902,17.567,122.513L17.567,122.513z"/>
		</g>
	</g>
	<g>
		<g>
			<path style="&st0;" d="M19.447,120.633c0.427-0.877,0.729-1.816,1.116-2.711c0.187-0.432,0.383-0.867,0.636-1.266
				c0.033-0.051,0.067-0.097,0.107-0.143c0.118-0.136-0.073,0.106-0.187-0.087c0.11,0.187,0.065,0.545,0.067,0.75
				c0.004,0.424,0.661,0.424,0.657,0c-0.003-0.329,0.046-1.255-0.452-1.333c-0.476-0.074-0.735,0.418-0.932,0.773
				c-0.65,1.173-0.995,2.484-1.58,3.686C18.695,120.68,19.262,121.014,19.447,120.633L19.447,120.633z"/>
		</g>
	</g>
	<g>
		<g>
			<path style="&st0;" d="M20.388,122.984c0.271-0.559,0.47-1.152,0.7-1.728c0.127-0.317,0.263-0.63,0.424-0.931
				c0.061-0.114,0.129-0.227,0.216-0.324c0.003-0.003-0.144-0.147-0.059,0.083c0.145,0.395,0.78,0.224,0.634-0.175
				c-0.299-0.816-0.927-0.636-1.312,0.003c-0.514,0.852-0.737,1.849-1.169,2.74C19.636,123.032,20.203,123.365,20.388,122.984
				L20.388,122.984z"/>
		</g>
	</g>
	<g>
		<g>
			<path style="&st0;" d="M20.858,127.686c0.529-1.057,1.017-2.349,1.829-3.225c0.288-0.31-0.176-0.776-0.465-0.465
				c-0.857,0.925-1.374,2.243-1.932,3.358C20.101,127.732,20.668,128.065,20.858,127.686L20.858,127.686z"/>
		</g>
	</g>
	<g>
		<g>
			<path style="&st0;" d="M22.687,129.633c0.314-0.314,1.44-1.685,1.835-1.007c0.213,0.366,0.781,0.035,0.568-0.332
				c-0.79-1.358-2.206,0.213-2.867,0.874C21.922,129.468,22.387,129.933,22.687,129.633L22.687,129.633z"/>
		</g>
	</g>
	<g>
		<g>
			<path style="&st0;" d="M27.157,130.67c0.658-0.039,1.204-0.449,1.881-0.47c0.423-0.013,0.424-0.671,0-0.657
				c-0.379,0.012-0.734,0.076-1.091,0.203c-0.257,0.091-0.513,0.251-0.79,0.267C26.736,130.037,26.733,130.695,27.157,130.67
				L27.157,130.67z"/>
		</g>
	</g>
	<g>
		<g>
			<path style="&st0;" d="M27.627,128.319c0.424,0,0.424-0.657,0-0.657S27.203,128.319,27.627,128.319L27.627,128.319z"/>
		</g>
	</g>
	<g>
		<g>
			<path style="&st0;" d="M26.217,125.497c0.424,0,0.424-0.657,0-0.657S25.793,125.497,26.217,125.497L26.217,125.497z"/>
		</g>
	</g>
	<g>
		<g>
			<path style="&st0;" d="M26.454,123.991c1.41,1.386,3.008,2.451,4.769,3.343c0.377,0.191,0.71-0.376,0.332-0.568
				c-1.71-0.867-3.264-1.893-4.635-3.24C26.617,123.228,26.152,123.693,26.454,123.991L26.454,123.991z"/>
		</g>
	</g>
	<g>
		<g>
			<path style="&st0;" d="M100.038,124.557c0.424,0,0.424-0.657,0-0.657S99.614,124.557,100.038,124.557L100.038,124.557z"/>
		</g>
	</g>
	<g>
		<g>
			<path style="&st0;" d="M26.545,119.056c0-0.037,0-0.075,0-0.112c0-0.424-0.657-0.424-0.657,0c0,1.605,0,3.209,0,4.814
				c0,0.424,0.657,0.424,0.657,0c0-1.605,0-3.209,0-4.814c0-0.424-0.657-0.424-0.657,0c0,0.037,0,0.075,0,0.112
				C25.888,119.48,26.545,119.48,26.545,119.056L26.545,119.056z"/>
		</g>
	</g>
	<g>
		<g>
			<path style="&st0;" d="M36.89,63.103c-0.002-0.245,0.017-0.624-0.284-0.707c-0.314-0.086-0.443,0.226-0.508,0.464
				c-0.185,0.669-0.321,1.429-0.335,2.124c-0.009,0.424,0.649,0.423,0.657,0c0.009-0.42,0.094-0.844,0.166-1.256
				c0.041-0.233,0.087-0.465,0.145-0.693c0.005-0.021,0.055-0.165,0.037-0.127c-0.347-0.212-0.528-0.226-0.543-0.04
				c0.007,0.078,0.006,0.157,0.007,0.236C36.236,63.526,36.893,63.527,36.89,63.103L36.89,63.103z"/>
		</g>
	</g>
	<g>
		<g>
			<path style="&st0;" d="M37.655,62.075c-0.431,1.386-0.51,2.846-0.94,4.232c-0.126,0.406,0.509,0.578,0.634,0.175
				c0.431-1.386,0.51-2.846,0.94-4.232C38.415,61.844,37.78,61.671,37.655,62.075L37.655,62.075z"/>
		</g>
	</g>
	<g>
		<g>
			<path style="&st0;" d="M39.098,62.937c-0.503,1.004-1.04,1.944-1.829,2.755c-0.296,0.304,0.169,0.769,0.465,0.465
				c0.827-0.851,1.404-1.833,1.932-2.888C39.855,62.891,39.288,62.558,39.098,62.937L39.098,62.937z"/>
		</g>
	</g>
	<g>
		<g>
			<path style="&st0;" d="M36.091,65.312c0.988,0.053,1.815,0.923,2.655,1.366c0.375,0.197,0.707-0.37,0.332-0.568
				c-0.976-0.513-1.834-1.393-2.987-1.455C35.667,64.632,35.669,65.289,36.091,65.312L36.091,65.312z"/>
		</g>
	</g>
	<g>
		<g>
			<path style="&st0;" d="M35.533,62.949c1.505,0.533,2.833,1.438,4.153,2.318c0.354,0.236,0.683-0.334,0.332-0.568
				c-1.371-0.913-2.747-1.831-4.31-2.384C35.307,62.174,35.136,62.809,35.533,62.949L35.533,62.949z"/>
		</g>
	</g>
	<g>
		<g>
			<path style="&st0;" d="M37.806,62.446c1.453,0.923,3.148,1.422,4.868,1.455c0.424,0.008,0.423-0.649,0-0.657
				c-1.608-0.031-3.178-0.504-4.536-1.366C37.778,61.65,37.449,62.22,37.806,62.446L37.806,62.446z"/>
		</g>
	</g>
	<g>
		<g>
			<path style="&st0;" d="M76.244,61.858c0.341,0.617,0.94,1.049,1.529,1.411c0.459,0.282,1.027,0.597,1.577,0.633
				c0.424,0.027,0.421-0.631,0-0.657c-0.428-0.027-0.887-0.333-1.245-0.543c-0.497-0.291-1.009-0.662-1.293-1.175
				C76.607,61.155,76.039,61.487,76.244,61.858L76.244,61.858z"/>
		</g>
	</g>
	<g>
		<g>
			<path style="&st0;" d="M76.058,60.61c0.669,0.065,1.503,0.694,2.08,1.008c0.419,0.228,0.834,0.466,1.242,0.713
				c0.14,0.085,0.278,0.173,0.416,0.263c0.053,0.035,0.105,0.071,0.157,0.108c0.33,0.233-0.472-0.28,0.25-0.387
				c-0.418,0.062-0.24,0.696,0.175,0.634c0.337-0.05,0.317-0.443,0.132-0.637c-0.346-0.362-0.887-0.607-1.314-0.854
				c-0.616-0.358-1.245-0.695-1.883-1.013c-0.384-0.192-0.819-0.45-1.254-0.492C75.636,59.912,75.639,60.57,76.058,60.61
				L76.058,60.61z"/>
		</g>
	</g>
	<g>
		<g>
			<path style="&st0;" d="M77.654,59.175c-0.529,1.005-1.351,1.816-1.881,2.821c-0.197,0.375,0.37,0.707,0.568,0.332
				c0.529-1.005,1.351-1.816,1.881-2.821C78.42,59.132,77.852,58.8,77.654,59.175L77.654,59.175z"/>
		</g>
	</g>
	<g>
		<g>
			<path style="&st0;" d="M79.535,59.175c-0.365,0.548-2.417,3.192-0.657,3.316c0.423,0.03,0.42-0.628,0-0.657
				c-0.183-0.013,0.265-0.812,0.322-0.914c0.273-0.487,0.593-0.949,0.902-1.413C80.339,59.153,79.769,58.824,79.535,59.175
				L79.535,59.175z"/>
		</g>
	</g>
	<g>
		<g>
			<path style="&st0;" d="M80.431,60.752c-0.025,0.508-0.473,1.495-1.082,1.552c-0.418,0.039-0.422,0.697,0,0.657
				c0.999-0.094,1.695-1.301,1.739-2.21C81.109,60.328,80.451,60.33,80.431,60.752L80.431,60.752z"/>
		</g>
	</g>
	<g>
		<g>
			<path style="&st0;" d="M26.971,91.951c1.433-2.18,2.682-4.479,4.232-6.583c0.252-0.342-0.319-0.669-0.568-0.332
				c-1.55,2.104-2.798,4.403-4.232,6.583C26.169,91.974,26.739,92.303,26.971,91.951L26.971,91.951z"/>
		</g>
	</g>
	<g>
		<g>
			<path style="&st0;" d="M26.971,88.189c1.067-2.169,1.957-4.419,2.854-6.661c0.158-0.394-0.478-0.563-0.634-0.175
				c-0.876,2.19-1.746,4.386-2.788,6.504C26.217,88.236,26.783,88.569,26.971,88.189L26.971,88.189z"/>
		</g>
	</g>
	<g>
		<g>
			<path style="&st0;" d="M27.07,92.572c1.94,0.62,3.952,1.018,5.943,1.433c1.406,0.293,3.082,0.379,4.421,0.914
				c0-0.211,0-0.423,0-0.634c-0.006,0.002-0.013,0.003-0.019,0.005c-0.412,0.099-0.237,0.733,0.175,0.634
				c0.006-0.002,0.013-0.003,0.019-0.005c0.346-0.083,0.279-0.523,0-0.634c-1.198-0.479-2.699-0.561-3.957-0.818
				c-2.145-0.438-4.318-0.861-6.406-1.528C26.839,91.808,26.667,92.443,27.07,92.572L27.07,92.572z"/>
		</g>
	</g>
	<g>
		<g>
			<path style="&st0;" d="M34.514,90.658c3.187,1.848,6.226,3.951,8.867,6.531c0.303,0.296,0.769-0.168,0.465-0.465
				c-2.68-2.619-5.766-4.759-9-6.634C34.479,89.877,34.148,90.445,34.514,90.658L34.514,90.658z"/>
		</g>
	</g>
	<g>
		<g>
			<path style="&st0;" d="M36.865,90.188c4.666,2.115,9.071,4.738,13.636,7.053c0.377,0.191,0.71-0.376,0.332-0.568
				c-4.565-2.315-8.97-4.938-13.636-7.053C36.814,89.446,36.48,90.013,36.865,90.188L36.865,90.188z"/>
		</g>
	</g>
	<g>
		<g>
			<path style="&st0;" d="M45.799,93.009c1.964,0.972,4.413,1.737,6.046,3.24c0.311,0.286,0.778-0.177,0.465-0.465
				c-1.687-1.552-4.153-2.34-6.179-3.343C45.752,92.254,45.419,92.821,45.799,93.009L45.799,93.009z"/>
		</g>
	</g>
	<g>
		<g>
			<path style="&st0;" d="M45.19,93.479c1.981-1.313,3.999-2.671,6.113-3.762c0.377-0.194,0.044-0.762-0.332-0.568
				c-2.114,1.091-4.132,2.449-6.113,3.762C44.507,93.145,44.836,93.714,45.19,93.479L45.19,93.479z"/>
		</g>
	</g>
	<g>
		<g>
			<path style="&st0;" d="M50.197,95.405c0.424,0,0.424-0.657,0-0.657S49.773,95.405,50.197,95.405L50.197,95.405z"/>
		</g>
	</g>
	<g>
		<g>
			<path style="&st0;" d="M37.739,75.095c-4.369,4.161-4.726,9.132,0,13.16c0.321,0.273,0.788-0.189,0.465-0.465
				c-4.438-3.783-4.108-8.318,0-12.23C38.512,75.267,38.046,74.803,37.739,75.095L37.739,75.095z"/>
		</g>
	</g>
	<g>
		<g>
			<path style="&st0;" d="M36.277,76.102c-1.705,3.011-3.105,6.575-1.581,9.938c1.615,3.563,6.477,4.136,9.858,4.192
				c0.424,0.007,0.424-0.65,0-0.657c-3.273-0.054-7.064-0.521-9.059-3.453c-1.998-2.938-0.168-7.008,1.349-9.688
				C37.054,76.065,36.486,75.733,36.277,76.102L36.277,76.102z"/>
		</g>
	</g>
	<g>
		<g>
			<path style="&st0;" d="M37.739,74.625c-3.144,3.327-3.796,7.212-1.462,11.213c0.213,0.366,0.782,0.035,0.568-0.332
				c-2.177-3.731-1.574-7.313,1.359-10.416C38.495,74.782,38.031,74.316,37.739,74.625L37.739,74.625z"/>
		</g>
	</g>
	<g>
		<g>
			<path style="&st0;" d="M77.938,74.059c-5.547,0.731-7.074,5.863-5.959,10.76c0.094,0.413,0.728,0.238,0.634-0.175
				c-1.004-4.411,0.214-9.254,5.325-9.928C78.352,74.662,78.358,74.003,77.938,74.059L77.938,74.059z"/>
		</g>
	</g>
	<g>
		<g>
			<path style="&st0;" d="M78.321,74.07c-3.016,0.798-6.081,3.259-6.471,6.547c-0.548,4.618,3.638,7.213,7.412,8.663
				c0.396,0.152,0.566-0.484,0.175-0.634c-3.605-1.386-7.745-3.939-6.848-8.402c0.566-2.817,3.283-4.845,5.908-5.54
				C78.905,74.596,78.731,73.962,78.321,74.07L78.321,74.07z"/>
		</g>
	</g>
	<g>
		<g>
			<path style="&st0;" d="M78.713,72.693c-4.097,2.569-7.258,6.8-6.029,11.832c1.232,5.041,6.943,6.268,11.367,5.707
				c0.415-0.053,0.42-0.711,0-0.657c-4.42,0.56-9.191-0.53-10.733-5.225c-1.504-4.58,2.144-8.844,5.726-11.09
				C79.403,73.036,79.073,72.467,78.713,72.693L78.713,72.693z"/>
		</g>
	</g>
	<g>
		<g>
			<path style="&st0;" d="M79.906,89.751c2.942-0.558,5.648-1.852,8.464-2.821c-0.084-0.2-0.169-0.401-0.253-0.601
				c-2.064,1.195-4.294,1.923-6.504,2.788c0.084,0.2,0.169,0.401,0.253,0.601c2.639-1.803,5.001-3.974,6.701-6.701
				c0.225-0.361-0.344-0.691-0.568-0.332c-1.641,2.632-3.917,4.725-6.465,6.465c-0.289,0.197-0.114,0.744,0.253,0.601
				c2.266-0.887,4.545-1.629,6.661-2.854c0.317-0.183,0.105-0.724-0.253-0.601c-2.816,0.97-5.522,2.263-8.464,2.821
				C79.315,89.196,79.492,89.829,79.906,89.751L79.906,89.751z"/>
		</g>
	</g>
	<g>
		<g>
			<path style="&st0;" d="M88.469,82.215c-1.078,2.016-3.143,3.866-5.054,5.054c-0.359,0.223-0.029,0.792,0.332,0.568
				c2.018-1.255,4.154-3.164,5.29-5.29C89.236,82.173,88.669,81.841,88.469,82.215L88.469,82.215z"/>
		</g>
	</g>
	<g>
		<g>
			<path style="&st0;" d="M79.906,89.751c2.099-0.558,3.976-1.573,5.721-2.854c0.338-0.248,0.01-0.819-0.332-0.568
				c-1.699,1.248-3.517,2.244-5.564,2.788C79.322,89.226,79.496,89.86,79.906,89.751L79.906,89.751z"/>
		</g>
	</g>
	<g>
		<g>
			<path style="&st0;" d="M76.76,62.395c0.951-0.931,2.224-1.693,2.873-2.888c0.202-0.373-0.365-0.705-0.568-0.332
				c-0.615,1.134-1.865,1.869-2.77,2.755C75.992,62.227,76.457,62.692,76.76,62.395L76.76,62.395z"/>
		</g>
	</g>
	<g>
		<g>
			<path style="&st0;" d="M76.058,60.14c0.424,0,0.424-0.657,0-0.657C75.634,59.483,75.634,60.14,76.058,60.14L76.058,60.14z"/>
		</g>
	</g>
</g>
</svg>
