<?xml version="1.0" encoding="utf-8"?>
<!-- Generator: Adobe Illustrator 17.0.0, SVG Export Plug-In . SVG Version: 6.00 Build 0)  -->
<!DOCTYPE svg PUBLIC "-//W3C//DTD SVG 1.1//EN" "http://www.w3.org/Graphics/SVG/1.1/DTD/svg11.dtd" [
	<!ENTITY st0 "fill:#3D3D3D;">
]>
<svg version="1.1" id="Calque_1" xmlns="http://www.w3.org/2000/svg" xmlns:xlink="http://www.w3.org/1999/xlink" x="0px" y="0px"
	 width="166px" height="167px" viewBox="0 0 166 167" style="enable-background:new 0 0 166 167;" xml:space="preserve">
<g>
	<g>
		<g>
			<g>
				<path style="&st0;" d="M11.548,119.911c2.015-2.36,4.592-2.739,7.465-1.799c1.528,0.5,2.177-1.9,0.661-2.396
					c-3.65-1.194-7.329-0.553-9.883,2.438C8.756,119.365,10.505,121.132,11.548,119.911L11.548,119.911z"/>
			</g>
		</g>
		<g>
			<g>
				<path style="&st0;" d="M44.016,104.981c3.069,0.444,5.853,0.407,8.729-0.822c3.153-1.348,5.666-4.311,8.148-6.567
					c1.188-1.08-0.574-2.832-1.757-1.757c-4.5,4.089-7.91,7.698-14.459,6.75C43.109,102.357,42.435,104.752,44.016,104.981
					L44.016,104.981z"/>
			</g>
		</g>
		<g>
			<g>
				<path style="&st0;" d="M37.982,82.212c0.336-1.93,0.816-4.256,2.625-5.347c1.955-1.179,4.648,0.612,6.223,1.668
					c0.534,0.358,1.031-0.503,0.502-0.858c-1.858-1.246-4.633-2.91-6.944-1.804c-2.274,1.089-2.968,3.798-3.365,6.077
					C36.915,82.575,37.873,82.843,37.982,82.212L37.982,82.212z"/>
			</g>
		</g>
		<g>
			<g>
				<path style="&st0;" d="M16.559,109.865c0.905,1.108,1.968,2.072,2.873,3.181c0.406,0.497,1.105-0.211,0.703-0.703
					c-0.905-1.108-1.968-2.072-2.873-3.181C16.856,108.665,16.157,109.373,16.559,109.865L16.559,109.865z"/>
			</g>
		</g>
		<g>
			<g>
				<path style="&st0;" d="M18.474,112.648c1.635,1.331,3.429,2.43,5.369,3.258c0.583,0.249,1.09-0.607,0.502-0.858
					c-1.857-0.793-3.601-1.827-5.167-3.103C18.685,111.544,17.977,112.243,18.474,112.648L18.474,112.648z"/>
			</g>
		</g>
		<g>
			<g>
				<path style="&st0;" d="M13.786,110.34c3.049,1.695,6.05,3.473,9.099,5.169c0.561,0.312,1.062-0.547,0.502-0.858
					c-3.049-1.695-6.05-3.473-9.099-5.169C13.727,109.17,13.226,110.029,13.786,110.34L13.786,110.34z"/>
			</g>
		</g>
		<g>
			<g>
				<path style="&st0;" d="M12.468,112.776c4.14,0.852,8.296,1.619,12.452,2.386c0.627,0.116,0.894-0.842,0.264-0.959
					c-4.156-0.767-8.312-1.534-12.452-2.385C12.107,111.689,11.84,112.647,12.468,112.776L12.468,112.776z"/>
			</g>
		</g>
		<g>
			<g>
				<path style="&st0;" d="M17.161,115.509c2.142-1.044,4.383-1.833,6.586-2.733c0.585-0.239,0.329-1.201-0.264-0.959
					c-2.283,0.933-4.604,1.751-6.823,2.833C16.083,114.931,16.587,115.788,17.161,115.509L17.161,115.509z"/>
			</g>
		</g>
		<g>
			<g>
				<path style="&st0;" d="M23.966,118.612c1.462-1.258,2.575-2.834,4.21-3.898c-0.201-0.26-0.402-0.52-0.602-0.781
					c-1.051,0.912-1.913,2.002-2.472,3.281c-0.118,0.269-0.049,0.665,0.297,0.73c0.633,0.119,1.099-0.058,1.583-0.469
					c0.48-0.408,1.02-1.66,1.769-1.519c0.626,0.118,0.894-0.84,0.264-0.959c-0.633-0.119-1.099,0.058-1.583,0.469
					c-0.48,0.408-1.02,1.66-1.769,1.519c0.099,0.243,0.198,0.487,0.297,0.73c0.529-1.209,1.323-2.217,2.317-3.08
					c0.428-0.371-0.131-1.087-0.602-0.781c-1.71,1.113-2.882,2.739-4.411,4.054C22.777,118.328,23.483,119.027,23.966,118.612
					L23.966,118.612z"/>
			</g>
		</g>
		<g>
			<g>
				<path style="&st0;" d="M45.148,94.008c-0.035,3.733-0.468,7.435-0.958,11.132c-0.084,0.634,0.911,0.626,0.994,0
					c0.49-3.697,0.923-7.399,0.958-11.132C46.148,93.366,45.153,93.367,45.148,94.008L45.148,94.008z"/>
			</g>
		</g>
		<g>
			<g>
				<path style="&st0;" d="M49.937,89.237c-0.035,4.514-0.556,8.956-1.419,13.386c-0.122,0.626,0.836,0.893,0.959,0.264
					c0.879-4.515,1.418-9.046,1.454-13.65C50.936,88.595,49.942,88.596,49.937,89.237L49.937,89.237z"/>
			</g>
		</g>
		<g>
			<g>
				<g>
					<path style="&st0;" d="M57.576,77.515c-6.059-7.353-15.814-18.28-23.308-6.519c-3.668,5.757-4.804,11.621-4.233,18.252
						c0.339,3.942,0.682,8.499-2.928,11.105c-6.633,4.787-13.687-2.635-15.032-8.677c-0.26-1.168-2.05-0.673-1.79,0.493
						c1.484,6.668,6.623,11.666,13.679,11.161c5.982-0.427,8.079-5.67,8.108-10.879c0.017-3.067-0.567-6.102-0.493-9.174
						c0.108-4.525,3.095-10.206,5.953-13.66c6.099-7.37,15.157,4.872,18.732,9.21C57.025,79.752,58.33,78.431,57.576,77.515
						L57.576,77.515z"/>
				</g>
			</g>
			<g>
				<g>
					<path style="&st0;" d="M10.251,91.074c-0.976,9.434-0.541,18.917-0.51,28.382c0.004,1.197,1.86,1.197,1.856,0
						c-0.03-9.465-0.466-18.948,0.51-28.382C12.23,89.884,10.373,89.896,10.251,91.074L10.251,91.074z"/>
				</g>
			</g>
			<g>
				<g>
					<path style="&st0;" d="M17.854,117.292c2.9,1.83,5.776,3.982,7.976,6.633c0.765,0.922,2.071-0.399,1.313-1.313
						c-2.291-2.76-5.331-5.017-8.352-6.923C17.776,115.049,16.845,116.655,17.854,117.292L17.854,117.292z"/>
				</g>
			</g>
			<g>
				<g>
					<path style="&st0;" d="M26.633,121.807c3.501-3.531,5.737-8.013,6.395-12.941c0.158-1.184-1.7-1.168-1.856,0
						c-0.59,4.418-2.727,8.478-5.851,11.628C24.477,121.345,25.789,122.658,26.633,121.807L26.633,121.807z"/>
				</g>
			</g>
			<g>
				<g>
					<path style="&st0;" d="M32.61,111.065c2.55,0.051,5.05,0.713,7.407,1.661c1.111,0.447,1.589-1.349,0.493-1.79
						c-2.51-1.01-5.187-1.673-7.901-1.728C31.412,109.184,31.415,111.041,32.61,111.065L32.61,111.065z"/>
				</g>
			</g>
			<g>
				<g>
					<path style="&st0;" d="M38.691,112.209c3.052-1.671,4.891-5.295,5.529-8.603c0.226-1.169-1.563-1.668-1.79-0.493
						c-0.55,2.851-2.029,6.044-4.676,7.494C36.704,111.181,37.641,112.784,38.691,112.209L38.691,112.209z"/>
				</g>
			</g>
			<g>
				<g>
					<path style="&st0;" d="M48.765,102.854c2.262-0.401,4.353-1.181,6.156-2.624c0.935-0.748-0.388-2.052-1.313-1.313
						c-1.538,1.23-3.425,1.808-5.337,2.147C47.094,101.273,47.594,103.062,48.765,102.854L48.765,102.854z"/>
				</g>
			</g>
		</g>
	</g>
	<g>
		<g>
			<path style="&st0;" d="M60.532,119.174c0.486,2.42,2.076,4.179,4.447,4.875c0.304,0.089,0.433-0.384,0.13-0.473
				c-2.217-0.651-3.653-2.278-4.105-4.533C60.942,118.734,60.47,118.866,60.532,119.174L60.532,119.174z"/>
		</g>
	</g>
	<g>
		<g>
			<path style="&st0;" d="M61.475,124.691c0.985-0.355,1.928-1.048,2.674-1.774c0.227-0.221-0.12-0.567-0.347-0.347
				c-0.68,0.661-1.557,1.323-2.458,1.648C61.05,124.325,61.177,124.798,61.475,124.691L61.475,124.691z"/>
		</g>
	</g>
	<g>
		<g>
			<path style="&st0;" d="M53.182,126.857c1.489-0.919,2.738-2.122,3.969-3.353c0.314-0.314-0.172-0.8-0.486-0.486
				c-1.191,1.19-2.39,2.358-3.83,3.246C52.458,126.496,52.803,127.091,53.182,126.857L53.182,126.857z"/>
		</g>
	</g>
	<g>
		<g>
			<path style="&st0;" d="M57.151,126.804c0.8-0.8,1.6-1.6,2.4-2.4c0.314-0.314-0.172-0.8-0.486-0.486c-0.8,0.8-1.6,1.6-2.4,2.4
				C56.351,126.631,56.837,127.118,57.151,126.804L57.151,126.804z"/>
		</g>
	</g>
	<g>
		<g>
			<path style="&st0;" d="M60.751,128.904c0.219-0.217,0.428-0.468,0.748-0.512c0.438-0.06,0.251-0.722-0.183-0.663
				c-0.436,0.059-0.753,0.392-1.052,0.688C59.95,128.73,60.436,129.216,60.751,128.904L60.751,128.904z"/>
		</g>
	</g>
	<g>
		<g>
			<path style="&st0;" d="M64.499,128.992c1.372-0.374,2.54-1.299,3.205-2.558c0.207-0.392-0.386-0.739-0.594-0.347
				c-0.585,1.107-1.585,1.912-2.794,2.242C63.889,128.445,64.07,129.109,64.499,128.992L64.499,128.992z"/>
		</g>
	</g>
	<g>
		<g>
			<path style="&st0;" d="M52.765,121.404c4.971,4.745,11.451,7.742,18.15,9.088c0.433,0.087,0.617-0.576,0.183-0.663
				c-6.587-1.323-12.957-4.243-17.847-8.911C52.931,120.612,52.444,121.098,52.765,121.404L52.765,121.404z"/>
		</g>
	</g>
	<g>
		<g>
			<path style="&st0;" d="M50.735,122.358c4.764,3.028,10.149,4.449,15.772,4.547c0.444,0.008,0.443-0.68,0-0.688
				c-5.513-0.095-10.755-1.485-15.425-4.453C50.707,121.526,50.362,122.121,50.735,122.358L50.735,122.358z"/>
		</g>
	</g>
	<g>
		<g>
			<path style="&st0;" d="M62.866,124.2c1.293-1.27,2.755-2.331,4.227-3.383c0.255-0.182,0.01-0.607-0.247-0.423
				c-1.505,1.076-3.003,2.16-4.326,3.459C62.293,124.075,62.64,124.422,62.866,124.2L62.866,124.2z"/>
		</g>
	</g>
	<g>
		<g>
			<path style="&st0;" d="M55.835,125.658c3.979,1.784,8.127,3,12.381,3.934c0.432,0.095,0.616-0.568,0.183-0.663
				c-4.195-0.921-8.29-2.105-12.217-3.865C55.781,124.884,55.431,125.477,55.835,125.658L55.835,125.658z"/>
		</g>
	</g>
	<g>
		<g>
			<path style="&st0;" d="M65.516,129.592c4.566,1.174,9.192,1.796,13.89,2.112c0.443,0.03,0.44-0.658,0-0.688
				c-4.635-0.312-9.204-0.929-13.707-2.088C65.269,128.818,65.087,129.482,65.516,129.592L65.516,129.592z"/>
		</g>
	</g>
	<g>
		<g>
			<path style="&st0;" d="M67.016,128.992c6.438,2.234,14.049,2.364,20.79,2.412c0.443,0.003,0.443-0.684,0-0.688
				c-6.716-0.048-14.209-0.167-20.607-2.387C66.779,128.183,66.6,128.848,67.016,128.992L67.016,128.992z"/>
		</g>
	</g>
	<g>
		<g>
			<g>
				<path style="&st0;" d="M55.302,63.778c-0.021,13.178-0.355,26.352,1.465,39.44c0.164,1.181,1.953,0.677,1.79-0.493
					c-1.796-12.915-1.42-25.945-1.399-38.947C57.16,62.58,55.303,62.581,55.302,63.778L55.302,63.778z"/>
			</g>
		</g>
		<g>
			<g>
				<path style="&st0;" d="M56.23,65.628c18.725-1.821,37.551-1.398,56.337-1.383c1.197,0.001,1.197-1.855,0-1.856
					c-18.786-0.014-37.612-0.437-56.337,1.383C55.049,63.886,55.038,65.744,56.23,65.628L56.23,65.628z"/>
			</g>
		</g>
		<g>
			<g>
				<path style="&st0;" d="M110.684,63.778c1.457,17.171,2.353,34.408,2.387,51.643c0.002,1.197,1.859,1.197,1.856,0
					c-0.035-17.235-0.93-34.472-2.387-51.643C112.44,62.594,110.583,62.584,110.684,63.778L110.684,63.778z"/>
			</g>
		</g>
		<g>
			<g>
				<path style="&st0;" d="M114.477,115.415c-18.006,1.965-37.281,4.107-55.136,0.033c-1.165-0.266-1.66,1.524-0.493,1.79
					c18.047,4.118,37.432,2.019,55.629,0.033C115.653,117.143,115.666,115.285,114.477,115.415L114.477,115.415z"/>
			</g>
		</g>
		<g>
			<g>
				<path style="&st0;" d="M55.302,102.049c-0.413,4.612,0.079,9.095,0.988,13.619c0.236,1.173,2.025,0.675,1.79-0.493
					c-0.877-4.366-1.32-8.679-0.922-13.125C57.265,100.856,55.407,100.867,55.302,102.049L55.302,102.049z"/>
			</g>
		</g>
		<g>
			<g>
				<path style="&st0;" d="M79.377,72.566C68.717,74.577,62.55,83.777,64.05,94.405c1.62,11.473,12.935,17.781,23.807,16.238
					c10.574-1.5,19.708-8.282,17.11-19.927c-2.616-11.73-15.194-18.252-26.298-18.645c-1.198-0.042-1.194,1.814,0,1.856
					c9.965,0.352,19.824,5.443,23.779,14.989c4.164,10.053-3.183,17.489-12.637,19.546c-10.682,2.324-21.308-2.697-23.821-13.736
					c-2.239-9.837,4.291-18.561,13.881-20.371C81.046,74.134,80.547,72.345,79.377,72.566L79.377,72.566z"/>
			</g>
		</g>
		<g>
			<g>
				<path style="&st0;" d="M102.541,68.844c-0.159,0-0.318,0-0.477,0c-1.197,0-1.197,1.856,0,1.856c0.159,0,0.318,0,0.477,0
					C103.738,70.7,103.738,68.844,102.541,68.844L102.541,68.844z"/>
			</g>
		</g>
		<g>
			<g>
				<path style="&st0;" d="M102.541,71.161c1.197,0,1.197-1.856,0-1.856C101.344,69.305,101.344,71.161,102.541,71.161
					L102.541,71.161z"/>
			</g>
		</g>
		<g>
			<g>
				<path style="&st0;" d="M103.342,70.701c0.022-0.039,0.172-0.26,0.014-0.059c0.022-0.027,0.046-0.051,0.072-0.074
					c-0.14,0.139-0.316,0.21-0.526,0.213c-0.156-0.042-0.312-0.084-0.468-0.127c0.005,0.003,0.01,0.005,0.014,0.008
					c-0.111-0.111-0.222-0.222-0.333-0.333c-0.145-0.275-0.155-0.533-0.029-0.775c-0.085,0.163,0.152-0.165-0.013,0.011
					c-0.13,0.14-0.248,0.205-0.444,0.323c-0.243,0.147-0.504,0.266-0.768,0.371c-0.185,0.074-0.301,0.138-0.448,0.274
					c0.156-0.145,0.4-0.278,0.738-0.156c0.137,0.08,0.273,0.159,0.41,0.239c0.247,0.24,0.255,0.622,0.231,0.742
					c0.009-0.043,0.023-0.085,0.037-0.127c0.09-0.282-0.043,0.069,0.066-0.169c0.127-0.279,0.276-0.547,0.435-0.809
					c0.079-0.13,0.163-0.256,0.251-0.38c0.138-0.196-0.121,0.146,0.02-0.027c0.037-0.046,0.078-0.089,0.119-0.132
					c0.05-0.052,0.195-0.156-0.042,0.019c0.077-0.057-0.273,0.063-0.313,0.066c-0.23-0.13-0.459-0.259-0.689-0.389
					c-0.062-0.168-0.079-0.203-0.051-0.105c-0.067-0.258-0.013-0.083-0.011,0.006c0.008,0.417,0.278,0.78,0.681,0.895
					c0.274,0.078,0.545,0.162,0.812,0.264c0.039,0.015,0.137,0.08,0.177,0.103c-0.098-0.059-0.141-0.171-0.176-0.273
					c-0.047-0.173-0.032-0.334,0.046-0.484c0.106-0.196,0.048-0.064-0.02,0.001c-0.02,0.019-0.213,0.166-0.058,0.051
					c-0.072,0.053-0.146,0.104-0.219,0.155c-0.713,0.495-1.362,0.974-1.688,1.808c-0.184,0.472,0.199,1.018,0.648,1.142
					c0.526,0.145,0.958-0.177,1.142-0.648c-0.068,0.173,0.061-0.078,0.071-0.093c-0.075,0.113,0.141-0.135,0.171-0.163
					c0.146-0.138,0.223-0.186,0.437-0.335c0.393-0.274,0.811-0.532,1.086-0.934c0.93-1.354-0.97-2.109-1.936-2.384
					c0.227,0.298,0.454,0.597,0.681,0.895c-0.017-0.898-0.728-1.708-1.662-1.219c-0.521,0.273-0.873,0.873-1.162,1.361
					c-0.258,0.437-0.581,0.972-0.655,1.479c-0.164,1.127,0.975,1.624,1.775,0.879c-0.137,0.08-0.273,0.159-0.41,0.239
					c0.898-0.359,2.444-0.959,2.502-2.132c0.033-0.662-0.612-1.092-1.221-0.962c-0.408,0.087-0.708,0.464-0.897,0.808
					C101.164,70.815,102.767,71.751,103.342,70.701L103.342,70.701z"/>
			</g>
		</g>
		<g>
			<g>
				<path style="&st0;" d="M56.256,101.588c0.001,4.16,0.037,8.309,0.477,12.45c0.125,1.178,1.983,1.19,1.856,0
					c-0.441-4.14-0.476-8.29-0.477-12.45C58.112,100.391,56.256,100.391,56.256,101.588L56.256,101.588z"/>
			</g>
		</g>
		<g>
			<g>
				<path style="&st0;" d="M57.048,101.151c0.001,4.79,0.041,9.569,0.531,14.338c0.048,0.471,0.791,0.476,0.743,0
					c-0.49-4.769-0.53-9.548-0.531-14.338C57.79,100.672,57.048,100.672,57.048,101.151L57.048,101.151z"/>
			</g>
		</g>
		<g>
			<g>
				<path style="&st0;" d="M59.185,98.397c-0.824,4.238-1.028,8.687,1.417,12.441c2.183,3.352,6.364,4.539,10.093,5.022
					c0.474,0.062,0.468-0.682,0-0.743c-3.894-0.505-7.581-1.782-9.812-5.207c-2.132-3.274-1.686-7.699-0.982-11.316
					C59.992,98.127,59.277,97.927,59.185,98.397L59.185,98.397z"/>
			</g>
		</g>
		<g>
			<g>
				<path style="&st0;" d="M58.839,112.933c1.159-3.371,2.789-6.494,4.742-9.47c0.264-0.402-0.38-0.773-0.641-0.375
					c-1.988,3.029-3.638,6.219-4.817,9.648C57.967,113.189,58.685,113.383,58.839,112.933L58.839,112.933z"/>
			</g>
		</g>
		<g>
			<g>
				<path style="&st0;" d="M58.481,104.708c0.479,0,0.479-0.743,0-0.743C58.003,103.966,58.003,104.708,58.481,104.708
					L58.481,104.708z"/>
			</g>
		</g>
		<g>
			<g>
				<path style="&st0;" d="M59.012,98.336c0.479,0,0.479-0.743,0-0.743C58.534,97.593,58.534,98.336,59.012,98.336L59.012,98.336z"
					/>
			</g>
		</g>
		<g>
			<g>
				<path style="&st0;" d="M62.519,110.366c1.733-2.269,3.769-4.282,5.783-6.297c0.339-0.339-0.186-0.864-0.525-0.525
					c-2.062,2.062-4.127,4.126-5.9,6.448C61.587,110.372,62.233,110.741,62.519,110.366L62.519,110.366z"/>
			</g>
		</g>
		<g>
			<g>
				<path style="&st0;" d="M62.73,111.612c0.479,0,0.479-0.743,0-0.743C62.251,110.87,62.251,111.612,62.73,111.612L62.73,111.612z"
					/>
			</g>
		</g>
		<g>
			<g>
				<path style="&st0;" d="M66.447,106.833c0.479,0,0.479-0.743,0-0.743C65.968,106.09,65.968,106.833,66.447,106.833
					L66.447,106.833z"/>
			</g>
		</g>
		<g>
			<g>
				<path style="&st0;" d="M69.313,97.09c0.614,1.176,1.613,2.174,2.788,2.788c0.424,0.221,0.799-0.419,0.375-0.641
					c-1.072-0.56-1.962-1.45-2.522-2.522C69.732,96.291,69.091,96.666,69.313,97.09L69.313,97.09z"/>
			</g>
		</g>
		<g>
			<g>
				<path style="&st0;" d="M66.348,114.785c6.278,0.899,13.646,0.85,19.846-0.531c0.467-0.104,0.269-0.82-0.197-0.716
					c-6.031,1.343-13.334,1.407-19.451,0.531C66.078,114.002,65.876,114.717,66.348,114.785L66.348,114.785z"/>
			</g>
		</g>
		<g>
			<g>
				<path style="&st0;" d="M61.405,108.848c2.466,2.493,4.712,5.206,7.435,7.435c0.367,0.301,0.896-0.222,0.525-0.525
					c-2.722-2.228-4.969-4.941-7.435-7.435C61.593,107.982,61.068,108.507,61.405,108.848L61.405,108.848z"/>
			</g>
		</g>
		<g>
			<g>
				<path style="&st0;" d="M66.791,110.499c2.537,1.579,4.46,3.877,6.239,6.239c0.284,0.377,0.929,0.008,0.641-0.375
					c-1.858-2.467-3.857-4.857-6.506-6.506C66.758,109.604,66.385,110.247,66.791,110.499L66.791,110.499z"/>
			</g>
		</g>
		<g>
			<g>
				<path style="&st0;" d="M69.902,111.503c1.404,1.43,2.55,3.041,3.659,4.704c0.264,0.396,0.908,0.025,0.641-0.375
					c-1.144-1.716-2.326-3.379-3.775-4.855C70.091,110.636,69.566,111.162,69.902,111.503L69.902,111.503z"/>
			</g>
		</g>
		<g>
			<g>
				<path style="&st0;" d="M62.026,100.188c0.574-1.757,1.019-3.553,1.593-5.31c0.149-0.456-0.568-0.65-0.716-0.197
					c-0.574,1.757-1.019,3.553-1.593,5.31C61.16,100.447,61.878,100.641,62.026,100.188L62.026,100.188z"/>
			</g>
		</g>
		<g>
			<g>
				<path style="&st0;" d="M59.543,95.15c0.479,0,0.479-0.743,0-0.743C59.065,94.407,59.065,95.15,59.543,95.15L59.543,95.15z"/>
			</g>
		</g>
		<g>
			<g>
				<path style="&st0;" d="M58.802,89.655c1.12-2.274,2.066-4.629,3.186-6.904c0.211-0.428-0.43-0.804-0.641-0.375
					c-1.12,2.274-2.066,4.629-3.186,6.904C57.95,89.708,58.59,90.085,58.802,89.655L58.802,89.655z"/>
			</g>
		</g>
		<g>
			<g>
				<path style="&st0;" d="M57.763,82.354c1.931,1.487,4.018,3.538,5.177,5.708c0.226,0.422,0.867,0.047,0.641-0.375
					c-1.226-2.294-3.409-4.407-5.444-5.975C57.758,81.42,57.389,82.066,57.763,82.354L57.763,82.354z"/>
			</g>
		</g>
		<g>
			<g>
				<path style="&st0;" d="M59.717,91.16c0.486,1.565,0.576,3.214,1.062,4.779c0.142,0.456,0.858,0.261,0.716-0.197
					c-0.486-1.565-0.576-3.214-1.062-4.779C60.291,90.507,59.574,90.701,59.717,91.16L59.717,91.16z"/>
			</g>
		</g>
		<g>
			<g>
				<path style="&st0;" d="M59.812,102.476c0.799,0.817,1.339,1.836,2.124,2.655c0.332,0.346,0.856-0.179,0.525-0.525
					c-0.784-0.819-1.325-1.838-2.124-2.655C60.002,101.608,59.477,102.133,59.812,102.476L59.812,102.476z"/>
			</g>
		</g>
		<g>
			<g>
				<path style="&st0;" d="M60.418,111.561c0.918,0.469,1.522,1.073,1.991,1.991c0.218,0.426,0.859,0.051,0.641-0.375
					c-0.523-1.023-1.235-1.735-2.257-2.257C60.368,110.703,59.992,111.343,60.418,111.561L60.418,111.561z"/>
			</g>
		</g>
		<g>
			<g>
				<path style="&st0;" d="M57.852,114.785c3.834,0.624,7.673,1.132,11.543,1.471c2.492,0.218,4.99,0.282,7.49,0.267
					c4.395-0.027-3.259-1.583-4.498-1.923c-0.463-0.127-0.659,0.59-0.197,0.716c2.605,0.713,4.823,1.322,7.533,1.075
					c0.47-0.043,0.482-0.772,0-0.743c-7.267,0.443-14.509-0.413-21.674-1.58C57.581,113.993,57.38,114.708,57.852,114.785
					L57.852,114.785z"/>
			</g>
		</g>
		<g>
			<g>
				<path style="&st0;" d="M76.006,112.143c0.479,0,0.479-0.743,0-0.743S75.527,112.143,76.006,112.143L76.006,112.143z"/>
			</g>
		</g>
		<g>
			<g>
				<path style="&st0;" d="M80.254,113.736c0.204,0.017,0.324,0.233,0.481,0.343c0.182,0.127,0.362,0.17,0.581,0.188
					c0.477,0.041,0.473-0.702,0-0.743c-0.204-0.017-0.324-0.233-0.481-0.343c-0.182-0.127-0.362-0.17-0.581-0.188
					C79.777,112.953,79.781,113.696,80.254,113.736L80.254,113.736z"/>
			</g>
		</g>
		<g>
			<g>
				<path style="&st0;" d="M81.316,107.364c0.479,0,0.479-0.743,0-0.743C80.838,106.621,80.838,107.364,81.316,107.364
					L81.316,107.364z"/>
			</g>
		</g>
		<g>
			<g>
				<path style="&st0;" d="M80.387,78.325c-1.425,0.286-2.434,1.545-2.177,3.032c0.288,1.669,1.81,2.621,3.461,2.344
					c1.47-0.246,2.666-1.173,2.343-2.783c-0.338-1.684-2.164-2.595-3.727-2.663c-0.169-0.007-0.169,0.255,0,0.263
					c1.434,0.063,2.811,0.778,3.377,2.153c0.585,1.423-0.504,2.442-1.811,2.735c-1.518,0.341-2.994-0.404-3.36-1.948
					c-0.332-1.399,0.624-2.611,1.964-2.88C80.623,78.545,80.552,78.292,80.387,78.325L80.387,78.325z"/>
			</g>
		</g>
		<g>
			<g>
				<path style="&st0;" d="M93.485,83.564c-1.425,0.286-2.434,1.545-2.177,3.032c0.288,1.669,1.81,2.621,3.461,2.344
					c1.47-0.246,2.666-1.173,2.343-2.783c-0.338-1.684-2.164-2.595-3.727-2.663c-0.169-0.007-0.169,0.255,0,0.263
					c1.434,0.063,2.811,0.778,3.377,2.153c0.585,1.423-0.504,2.442-1.811,2.735c-1.518,0.341-2.994-0.404-3.36-1.948
					c-0.332-1.399,0.624-2.611,1.964-2.88C93.72,83.784,93.65,83.531,93.485,83.564L93.485,83.564z"/>
			</g>
		</g>
		<g>
			<g>
				<path style="&st0;" d="M94.358,95.789c-1.425,0.286-2.434,1.545-2.177,3.032c0.288,1.669,1.81,2.621,3.461,2.344
					c1.47-0.246,2.666-1.173,2.343-2.783c-0.338-1.684-2.164-2.595-3.727-2.663c-0.169-0.007-0.169,0.255,0,0.263
					c1.434,0.063,2.811,0.778,3.377,2.153c0.585,1.423-0.504,2.442-1.811,2.735c-1.518,0.341-2.994-0.404-3.36-1.948
					c-0.332-1.399,0.624-2.611,1.964-2.88C94.594,96.009,94.523,95.756,94.358,95.789L94.358,95.789z"/>
			</g>
		</g>
		<g>
			<g>
				<path style="&st0;" d="M79.514,97.535c-1.425,0.286-2.434,1.545-2.177,3.032c0.288,1.669,1.81,2.621,3.461,2.344
					c1.47-0.246,2.666-1.173,2.343-2.783c-0.338-1.684-2.164-2.595-3.727-2.663c-0.169-0.007-0.169,0.255,0,0.263
					c1.434,0.063,2.811,0.778,3.377,2.153c0.585,1.423-0.504,2.442-1.811,2.735c-1.518,0.341-2.994-0.404-3.36-1.948
					c-0.332-1.399,0.624-2.611,1.964-2.88C79.75,97.755,79.679,97.502,79.514,97.535L79.514,97.535z"/>
			</g>
		</g>
		<g>
			<g>
				<path style="&st0;" d="M71.655,86.184c-1.425,0.286-2.434,1.545-2.177,3.032c0.288,1.669,1.81,2.621,3.461,2.344
					c1.47-0.246,2.666-1.173,2.343-2.783c-0.338-1.684-2.164-2.595-3.727-2.663c-0.169-0.007-0.169,0.255,0,0.263
					c1.434,0.063,2.811,0.778,3.377,2.153c0.585,1.423-0.504,2.442-1.811,2.735c-1.518,0.341-2.994-0.404-3.36-1.948
					c-0.332-1.399,0.624-2.611,1.964-2.88C71.891,86.404,71.821,86.151,71.655,86.184L71.655,86.184z"/>
			</g>
		</g>
		<g>
			<g>
				<path style="&st0;" d="M83.972,91.723c0.169,0,0.169-0.263,0-0.263C83.802,91.461,83.802,91.723,83.972,91.723L83.972,91.723z"
					/>
			</g>
		</g>
		<g>
			<g>
				<path style="&st0;" d="M83.972,91.192c0.818,0.041,1.276,1.027,1.949,1.355c0.26,0.127,0.228-0.196,0.161-0.332
					c-0.394-0.802-0.972-1.542-1.465-2.283c-0.069-0.104-0.249-0.071-0.245,0.066c0.022,0.789,0.348,1.748,1.244,1.882
					c0.583,0.087,0.806-0.41,0.594-0.886c-0.016,0.06-0.031,0.12-0.047,0.18c0.207-0.143,0.538-0.507,0.095-0.595
					c-0.497-0.099-1.115,0.098-1.59,0.222c-0.302,0.079-1.032,0.205-1.18,0.541c-0.191,0.434,0.855,0.38,1.016,0.381
					c-0.044-0.044-0.088-0.088-0.131-0.131c0.069,0.925,1.403,0.573,1.385-0.201c-0.005-0.228-0.08-0.445-0.239-0.615
					c-0.239-0.255-0.323-0.23-0.289-0.563c0.018-0.175-0.008-0.39-0.234-0.358c-0.48,0.068-0.886,1.292-1.02,1.662
					c-0.205,0.566-0.087,1.153,0.594,0.719c-0.066-0.038-0.132-0.076-0.198-0.113c0.05,2.442,2.378-1.434,1.269-1.232
					c-0.416,0.076-0.958,0.281-1.321-0.062c-0.098-0.092-0.276-0.177-0.3,0.034c-0.058,0.518-0.063,1.036-0.142,1.556
					c-0.121,0.798,0.483,0.895,1.156,0.898c0.083,0,0.152-0.084,0.127-0.166c-0.127-0.408-0.171-0.801-0.173-1.225
					c-0.001-0.237-0.041-0.474-0.199-0.661c-0.231-0.274-1.506-1.332-1.622-0.593c-0.073,0.463,0.3,1.367,0.681,1.644
					c0.146,0.106,0.245-0.076,0.255-0.192c0.025-0.294-0.008-0.587,0.062-0.878c-0.034,0.142-0.601-0.248-0.631-0.277
					c-0.009,0.069-0.018,0.138-0.027,0.206c0.098-0.064,0.588-0.432,0.598-0.282c0.012,0.175,0.005,0.345,0.035,0.519
					c0.077,0.448,0.47,0.689,0.859,0.839c0.158,0.061,0.226-0.193,0.07-0.253c-0.433-0.167-0.677-0.42-0.699-0.884
					c-0.006-0.137,0.025-0.307-0.049-0.432c-0.192-0.328-0.789,0.164-0.947,0.268c-0.069,0.045-0.091,0.146-0.027,0.206
					c0.218,0.206,0.846,0.63,0.888,0.04c0.007-0.105-0.079-0.217-0.193-0.186c-0.192,0.053-0.175,0.43-0.187,0.57
					c-0.007,0.111-0.012,0.223-0.014,0.334c-0.012,0.385,0.112,0.159,0.045,0.062c-0.123-0.178-0.213-0.384-0.295-0.583
					c-0.081-0.195-0.149-0.404-0.168-0.615c-0.018-0.195,0.604,0.22,0.731,0.298c0.387,0.239,0.568,0.476,0.571,0.926
					c0.002,0.423,0.055,0.816,0.182,1.221c0.042-0.055,0.084-0.111,0.127-0.166c-0.503-0.002-0.98-0.055-0.875-0.751
					c0.032-0.213,0.058-0.428,0.081-0.642c0.026-0.246,0.04-0.492,0.04-0.739c0,0.02-0.309-0.026-0.072,0.156
					c0.147,0.113,0.329,0.174,0.513,0.193c0.278,0.028,0.652,0.02,0.911-0.096c0.233-0.105-0.043,0.47-0.08,0.547
					c-0.125,0.26-0.288,0.507-0.482,0.721c-0.341,0.377-0.428,0.064-0.436-0.32c-0.002-0.096-0.111-0.168-0.198-0.113
					c-0.272,0.173-0.361,0.17-0.288-0.159c0.069-0.311,0.211-0.609,0.353-0.893c0.12-0.239,0.256-0.472,0.413-0.688
					c0.032-0.045,0.069-0.085,0.108-0.125c0.088-0.091-0.01,0.05-0.05-0.074c0.038,0.117-0.038,0.311-0.065,0.425
					c-0.015,0.062,0.011,0.112,0.06,0.148c0.346,0.251,0.734,0.65,0.373,1.06c-0.21,0.239-0.675,0.312-0.707-0.112
					c-0.005-0.072-0.056-0.131-0.131-0.131c-0.221-0.001-0.444-0.002-0.663-0.041c-0.151-0.027-0.156,0.051-0.046-0.021
					c0.253-0.165,0.579-0.242,0.866-0.323c0.356-0.1,0.722-0.18,1.089-0.226c0.13-0.016,0.261-0.025,0.392-0.02
					c0.171,0.006,0.033,0.019-0.112,0.119c-0.064,0.044-0.078,0.11-0.047,0.18c0.232,0.522-0.299,0.569-0.653,0.384
					c-0.538-0.281-0.68-0.965-0.696-1.512c-0.082,0.022-0.163,0.044-0.245,0.066c0.452,0.679,0.914,1.355,1.336,2.054
					c0.045,0.075,0.088,0.151,0.129,0.229c0.065,0.124,0.198-0.026,0.159-0.049c-0.109-0.066-0.203-0.166-0.298-0.25
					c-0.467-0.414-1.076-1.086-1.744-1.119C83.802,90.921,83.803,91.184,83.972,91.192L83.972,91.192z"/>
			</g>
		</g>
	</g>
	<g>
		<g>
			<g>
				<path style="&st0;" d="M49.79,111.174c-0.989,3.93-0.989,7.97,0,11.899c0.381,1.516,2.721,0.873,2.339-0.645
					c-0.884-3.513-0.884-7.097,0-10.61C52.511,110.301,50.171,109.657,49.79,111.174L49.79,111.174z"/>
			</g>
		</g>
		<g>
			<g>
				<path style="&st0;" d="M50.303,123.407c8.408,10.507,27.725,10.444,39.73,9.765c11.921-0.674,30.852-3.359,36.603-15.741
					c0.501-1.078-1.099-2.022-1.603-0.937c-5.616,12.092-24.568,14.232-36.102,14.884c-11.241,0.636-29.489,0.496-37.315-9.284
					C50.868,121.159,49.563,122.482,50.303,123.407L50.303,123.407z"/>
			</g>
		</g>
		<g>
			<g>
				<path style="&st0;" d="M119.51,113.486c0.979,0.852,2.07,1.553,3.059,2.388c0.858,0.725,0.846,1.634,0.766,2.696
					c-0.117,1.561,2.309,1.55,2.425,0c0.111-1.487-0.089-2.777-1.028-3.962c-0.906-1.143-2.414-1.886-3.507-2.838
					C120.051,110.749,118.328,112.457,119.51,113.486L119.51,113.486z"/>
			</g>
		</g>
		<g>
			<g>
				<path style="&st0;" d="M62.236,133.287c0.673,1.853,1.916,5.021,4.335,5.021c2.712,0,3.1-4.389,3.276-6.232
					c0.114-1.192-1.744-1.181-1.856,0c-0.07,0.733-0.292,4.376-1.547,4.376c-0.397,0-0.849-0.636-1.047-0.904
					c-0.612-0.824-1.022-1.796-1.37-2.754C63.621,131.677,61.827,132.159,62.236,133.287L62.236,133.287z"/>
			</g>
		</g>
		<g>
			<g>
				<path style="&st0;" d="M102.524,132.544c0.254,0.587,0.37,1.219,0.662,1.803c0.536,1.07,1.537,1.834,2.565,2.389
					c0.474,0.256,0.971,0.091,1.27-0.333c0.7-0.995,1.131-2.003,1.19-3.226c0.058-1.224-0.389-2.448-0.42-3.674
					c-0.03-1.195-1.887-1.198-1.856,0c0.023,0.913,0.173,1.798,0.332,2.695c0.225,1.273-0.111,2.22-0.848,3.268
					c0.423-0.111,0.847-0.222,1.27-0.333c-1.649-0.891-1.888-1.973-2.561-3.526C103.652,130.511,102.053,131.457,102.524,132.544
					L102.524,132.544z"/>
			</g>
		</g>
		<g>
			<g>
				<path style="&st0;" d="M54.405,118.651c-0.135,1.505-0.271,3.015-0.302,4.527c-0.003,0.161,0.109,0.281,0.252,0.331
					c4.317,1.534,8.66,2.993,12.977,4.527c0.419,0.149,0.597-0.516,0.183-0.663c-3.4-1.209-6.817-2.371-10.225-3.557
					c-0.274-0.095-2.499-0.649-2.491-1.059c0.011-0.565,0.06-1.131,0.098-1.695c0.055-0.805,0.123-1.609,0.196-2.412
					C55.132,118.209,54.444,118.213,54.405,118.651L54.405,118.651z"/>
			</g>
		</g>
		<g>
			<g>
				<path style="&st0;" d="M50.666,113.052c10.068,3.766,20.28,6.543,31.081,6.755c13.121,0.257,26.251-3.091,38.868-6.284
					c1.16-0.294,0.668-2.084-0.493-1.79c-12.173,3.081-24.541,6.053-37.16,6.221c-11.012,0.147-21.579-2.868-31.801-6.692
					C50.036,110.842,49.555,112.637,50.666,113.052L50.666,113.052z"/>
			</g>
		</g>
	</g>
	<g>
		<g>
			<path style="&st0;" d="M113.854,72c1.463-0.284,2.279-0.015,2.579,1.483c0.311,1.554-0.147,3.36-0.473,4.871
				c-0.355,1.647,2.17,2.347,2.526,0.696c0.507-2.348,1.11-5.161,0.104-7.46c-0.98-2.239-3.267-2.536-5.433-2.117
				C111.501,69.795,112.204,72.32,113.854,72L113.854,72z"/>
		</g>
	</g>
	<g>
		<g>
			<path style="&st0;" d="M113.506,80.012c1.678-0.001,3.355-0.006,4.909-0.71c0.651-0.294,0.802-1.225,0.47-1.792
				c-0.388-0.663-1.142-0.764-1.792-0.47c-1.069,0.484-2.448,0.352-3.587,0.352C111.817,77.394,111.817,80.013,113.506,80.012
				L113.506,80.012z"/>
		</g>
	</g>
	<g>
		<g>
			<path style="&st0;" d="M116.291,89.923c0.57-0.268,0.679-0.212,0.936,0.219c0.647,1.087,0.399,2.783,0.28,3.96
				c-0.17,1.68,2.451,1.664,2.619,0c0.195-1.928,0.258-4.243-1.03-5.84c-1.063-1.317-2.718-1.263-4.127-0.601
				C113.441,88.379,114.772,90.637,116.291,89.923L116.291,89.923z"/>
		</g>
	</g>
	<g>
		<g>
			<path style="&st0;" d="M114.037,96.475c2.07-0.002,4.164-0.127,5.972-1.241c1.435-0.885,0.12-3.151-1.322-2.262
				c-1.411,0.87-3.041,0.882-4.649,0.883C112.348,93.856,112.348,96.476,114.037,96.475L114.037,96.475z"/>
		</g>
	</g>
	<g>
		<g>
			<path style="&st0;" d="M119.492,74.702c7.498-5.07,12.087-12.337,12.356-21.49c0.005-0.171-0.136-0.268-0.287-0.287
				c-0.286-0.149-0.573-0.298-0.859-0.447c-0.138-0.12-0.353-0.11-0.451,0.058c-2.74,4.721-3.233,12.13,4.007,12.199
				c4.51,0.043,13.664-8.974,7.538-11.77c-0.115-0.052-0.255-0.057-0.348,0.045c-5.012,5.46-5.313,13.804-0.81,19.708
				c4.48,5.873,10.17,1.43,12.943-3.428c0.116-0.203-0.036-0.411-0.248-0.432c-23.401-2.269-6.548,25.678-0.018,21.598
				c1.676-1.047,3.15-5.469,2.351-7.201c-0.531-1.152-5.501,2.202-5.889,2.454c-3.714,2.409-7.172,5.735-8.601,10.011
				c-1.797,5.379,2.677,9.72,6.701,12.44c0.163,0.11,0.364-0.008,0.422-0.172c2.846-8.054,2.306-19.52-8.652-19.749
				c-9.033-0.188-10.036,8.493-5.68,14.507c0.173,0.239,0.504,0.145,0.535-0.145c0.86-8.12-4.287-16.54-13.177-11.931
				c-0.329,0.17-0.038,0.666,0.29,0.496c7.649-3.966,12.684,2.548,12.477,9.889c-0.044,1.567-2.009-2.873-2.185-3.435
				c-0.541-1.732-0.358-3.546,0.469-5.139c2.813-5.421,11.182-4.22,14.684-0.46c2.818,3.026,2.692,7.647,1.983,11.416
				c-0.752,3.994-1.89,3.959-4.884,0.988c-2.331-2.314-3.204-5.393-2.429-8.554c0.955-3.895,4.591-6.994,7.696-9.23
				c1.128-0.812,2.335-1.514,3.567-2.155c2.386-1.24,2.295-0.424,1.794,2.126c-1.65,8.408-9.044,0.443-11.05-3.154
				c-3.49-6.259-2.617-13.509,5.645-14.177c3.759-0.304,3.329,1.037,0.866,3.704c-2.302,2.493-5.454,2.549-8.025,0.549
				c-4.2-3.266-4.848-9.962-3.604-14.699c0.365-1.39,1.065-2.572,1.829-3.758c0.654-0.401,1.308-0.802,1.961-1.203
				c0.998,1.483,0.92,2.92-0.233,4.31c-1.177,2.522-3.257,4.523-5.824,5.561c-6.991,2.828-8.561-5.088-6.23-9.846
				c0.547-1.117,0.493-0.517,0.906-0.466c1.158,0.145-0.912,7.144-1.26,8.16c-1.826,5.337-6.001,9.525-10.568,12.613
				C118.898,74.412,119.185,74.91,119.492,74.702L119.492,74.702z"/>
		</g>
	</g>
	<g>
		<g>
			<g>
				<path style="&st0;" d="M95.969,58.816c0.362,3.337,3.128,4.953,6.306,4.178c1.083-0.264,0.623-1.931-0.46-1.667
					c-1.993,0.486-3.879-0.306-4.118-2.511C97.579,57.72,95.848,57.708,95.969,58.816L95.969,58.816z"/>
			</g>
		</g>
		<g>
			<g>
				<path style="&st0;" d="M97.981,59.803c1.193-0.574,2.629-1.192,3.981-0.91c1.438,0.299,1.575,2.102,1.593,3.277
					c0.018,1.114,1.746,1.115,1.729,0c-0.029-1.863-0.476-4.044-2.423-4.796c-1.907-0.736-4.025,0.104-5.753,0.936
					C96.104,58.793,96.981,60.284,97.981,59.803L97.981,59.803z"/>
			</g>
		</g>
		<g>
			<g>
				<path style="&st0;" d="M101.976,57.882c-0.163-9.105,0.266-18.207,0.103-27.311c-0.02-1.114-1.749-1.115-1.729,0
					c0.163,9.105-0.266,18.207-0.103,27.311C100.267,58.996,101.996,58.998,101.976,57.882L101.976,57.882z"/>
			</g>
		</g>
		<g>
			<g>
				<path style="&st0;" d="M100.743,33.332c4.788,0,4.788-7.425,0-7.425S95.955,33.332,100.743,33.332L100.743,33.332z"/>
			</g>
		</g>
	</g>
</g>
</svg>
