<?xml version="1.0" encoding="utf-8"?>
<!-- Generator: Adobe Illustrator 17.0.0, SVG Export Plug-In . SVG Version: 6.00 Build 0)  -->
<!DOCTYPE svg PUBLIC "-//W3C//DTD SVG 1.1//EN" "http://www.w3.org/Graphics/SVG/1.1/DTD/svg11.dtd" [
	<!ENTITY st0 "fill:#3D3D3D;">
]>
<svg version="1.1" id="Calque_1" xmlns="http://www.w3.org/2000/svg" xmlns:xlink="http://www.w3.org/1999/xlink" x="0px" y="0px"
	 width="166px" height="167px" viewBox="0 0 166 167" style="enable-background:new 0 0 166 167;" xml:space="preserve">
<g>
	<g>
		<g>
			<path style="&st0;" d="M94.303,123.96c0.146-0.145,0.271-0.312,0.478-0.345c0.378-0.06,0.583-0.526,0.49-0.863
				c-0.11-0.399-0.486-0.549-0.863-0.49c-0.449,0.071-0.786,0.397-1.097,0.705C92.667,123.605,93.659,124.597,94.303,123.96
				L94.303,123.96z"/>
		</g>
	</g>
	<g>
		<g>
			<path style="&st0;" d="M67.997,63.354c-0.001-0.131,0.003-0.279-0.034-0.405c-0.139-0.473-0.818-0.727-1.173-0.31
				c-0.426,0.502-0.297,1.592-0.332,2.203c-0.052,0.902-0.119,1.808-0.127,2.712c-0.008,0.905,1.395,0.904,1.403,0
				c0.007-0.747,0.061-1.496,0.101-2.241c0.024-0.443,0.049-0.886,0.078-1.329c0.011-0.18,0.024-0.36,0.038-0.54
				c0.029-0.367,0.016-0.03-0.168,0.187c-0.391-0.103-0.782-0.206-1.173-0.31c-0.078-0.266-0.017-0.085-0.016,0.032
				C66.598,64.259,68.001,64.259,67.997,63.354L67.997,63.354z"/>
		</g>
	</g>
	<g>
		<g>
			<path style="&st0;" d="M67.482,64.031c4.316-1.598,9.022-1.77,13.539-1.05c0.885,0.141,1.265-1.211,0.373-1.353
				c-4.762-0.759-9.726-0.638-14.285,1.05C66.268,62.989,66.631,64.345,67.482,64.031L67.482,64.031z"/>
		</g>
	</g>
	<g>
		<g>
			<path style="&st0;" d="M81.056,63.278c0.469,1.215,0.744,2.446,0.762,3.751c0.013,0.904,1.416,0.905,1.403,0
				c-0.02-1.424-0.3-2.796-0.813-4.124C82.086,62.07,80.729,62.433,81.056,63.278L81.056,63.278z"/>
		</g>
	</g>
	<g>
		<g>
			<path style="&st0;" d="M81.994,66.852c-4.606-0.219-9.132,0.034-13.573,1.338c-0.866,0.254-0.497,1.608,0.373,1.353
				c4.327-1.27,8.719-1.501,13.2-1.287C82.899,68.298,82.895,66.895,81.994,66.852L81.994,66.852z"/>
		</g>
	</g>
	<g>
		<g>
			<path style="&st0;" d="M72.197,60.729c-0.49-3.769-2.386-22.792,5.73-18.954c4.975,2.352,4.884,10.546,10.014,13.26
				c0.386,0.204,0.924,0.038,1.031-0.419c0.935-3.999-0.18-8.275,0.048-12.343c0.188-3.358,3.872-6.881,6.332-3.158
				c1.214,1.837,1.395,4.55,1.603,6.651c0.696,7.032-0.83,15.481,5.335,20.708c4.982,4.223,6.424-10.526,6.584-12.462
				c0.614-7.456-0.618-25.138,10.133-25.654c0.901-0.043,0.905-1.446,0-1.403c-13.336,0.64-10.714,22.595-12.034,31.438
				c-0.548,3.67-2.32,10.289-5.859,4.289c-2.108-3.574-2.366-6.528-2.464-10.477c-0.114-4.577,0.493-11.928-3.361-15.295
				c-3.274-2.861-7.153,1.111-7.549,4.359c-0.473,3.882,0.285,7.739,0.119,11.626c-0.059,1.376-2.421-2.256-2.95-3.131
				c-1.017-1.681-1.848-3.476-2.812-5.188c-2.105-3.737-6.243-6.663-9.734-2.58c-3.815,4.462-2.25,13.493-1.568,18.733
				C70.908,61.613,72.313,61.625,72.197,60.729L72.197,60.729z"/>
		</g>
	</g>
	<g>
		<g>
			<path style="&st0;" d="M76.634,61.688c-0.73-3.027-1.118-6.183-0.946-9.296c0.097-1.755,0.621-4.449,2.954-4.016
				c1.477,0.275,2.401,1.992,3.05,3.174c1.513,2.753,3.379,10.829,7.886,7.313c0.713-0.556-0.288-1.542-0.992-0.992
				c-2.587,2.018-4.271-4.045-5.026-5.7c-0.944-2.069-2.48-5.084-5.109-5.244c-6.457-0.392-4.008,11.658-3.17,15.133
				C75.493,62.94,76.846,62.567,76.634,61.688L76.634,61.688z"/>
		</g>
	</g>
	<g>
		<g>
			<path style="&st0;" d="M88.586,57.871c-0.03,0.022-0.059,0.045-0.087,0.07c-0.626,0.528,0.175,1.48,0.85,1.102
				c1.033-0.579,1.858-1.953,2.466-2.909c1.713-2.691,2.222-5.924,1.905-9.053c-0.09-0.891-1.494-0.9-1.403,0
				c0.286,2.822-0.127,5.476-1.494,7.974c-0.468,0.855-1.694,2.503-2.183,2.777c0.283,0.367,0.567,0.735,0.85,1.102
				c0.028-0.024,0.057-0.047,0.087-0.07C90.289,58.304,89.288,57.318,88.586,57.871L88.586,57.871z"/>
		</g>
	</g>
	<g>
		<g>
			<path style="&st0;" d="M91.792,47.867c-0.151,4.312-0.096,8.584,0.791,12.821c0.402,1.918,1.172,3.699,2.136,5.391
				c0.516,0.906,2.848,2.621,2.848,3.312c0,0.332,0.218,0.567,0.515,0.676c2.418,0.888,5.262,0.979,7.799,0.813
				c0.898-0.059,0.904-1.462,0-1.403c-1.002,0.066-6.911-0.183-6.911-0.348c0-1.297-2.349-2.757-3.04-3.758
				C92.599,60.542,93,53.452,93.196,47.867C93.227,46.962,91.824,46.965,91.792,47.867L91.792,47.867z"/>
		</g>
	</g>
	<g>
		<g>
			<path style="&st0;" d="M105.28,70.855c6.963-2.135,7.801-10.914,8.525-17.056c0.574-4.871-1.242-20.988,6.513-20.193
				c0.9,0.092,0.891-1.312,0-1.403c-6.262-0.642-7.038,7.423-7.415,11.946c-0.619,7.424,0.971,22.602-7.996,25.352
				C104.045,69.767,104.413,71.121,105.28,70.855L105.28,70.855z"/>
		</g>
	</g>
	<g>
		<g>
			<path style="&st0;" d="M118.189,33.926c0.442-0.414,1.01-0.569,1.604-0.582c0.903-0.02,0.905-1.423,0-1.403
				c-0.971,0.022-1.88,0.323-2.596,0.993C116.535,33.554,117.529,34.544,118.189,33.926L118.189,33.926z"/>
		</g>
	</g>
	<g>
		<g>
			<path style="&st0;" d="M119.616,25.031c0.019,3.152,0.243,6.298,0.262,9.45c0.006,0.905,1.409,0.905,1.403,0
				c-0.019-3.152-0.243-6.298-0.262-9.45C121.014,24.126,119.611,24.126,119.616,25.031L119.616,25.031z"/>
		</g>
	</g>
	<g>
		<g>
			<path style="&st0;" d="M120.409,26.161c0.644-0.285,1.584-0.167,2.271-0.167c0.905,0,0.905-1.403,0-1.403
				c-0.984,0-2.062-0.048-2.979,0.358C118.875,25.316,119.59,26.525,120.409,26.161L120.409,26.161z"/>
		</g>
	</g>
	<g>
		<g>
			<path style="&st0;" d="M122.241,25.818c-0.272,3.583-0.506,7.168-0.525,10.762c-0.005,0.905,1.398,0.905,1.403,0
				c0.019-3.594,0.253-7.179,0.525-10.762C123.713,24.915,122.309,24.922,122.241,25.818L122.241,25.818z"/>
		</g>
	</g>
	<g>
		<g>
			<path style="&st0;" d="M121.105,35.707c0.088,0,0.175,0,0.262,0c0.905,0,0.905-1.403,0-1.403c-0.087,0-0.175,0-0.262,0
				C120.2,34.304,120.2,35.707,121.105,35.707L121.105,35.707z"/>
		</g>
	</g>
	<g>
		<g>
			<path style="&st0;" d="M123.176,27.889c3.016-3.407,6.501-6.267,9.975-9.187c-0.399-0.165-0.798-0.331-1.198-0.496
				c0.671,7.515-1.455,15.004-0.237,22.498c0.344-0.264,0.687-0.528,1.031-0.792c-3.469-2.463-6.768-5.15-10.237-7.612
				c-0.74-0.525-1.439,0.692-0.708,1.212c3.469,2.463,6.768,5.15,10.237,7.612c0.56,0.398,1.118-0.255,1.031-0.792
				c-1.195-7.357,0.946-14.741,0.288-22.125c-0.056-0.628-0.713-0.904-1.198-0.496c-3.474,2.92-6.959,5.78-9.975,9.187
				C121.587,27.572,122.575,28.568,123.176,27.889L123.176,27.889z"/>
		</g>
	</g>
	<g>
		<g>
			<path style="&st0;" d="M71.13,59.128c1.04,0.24,2.065,0.24,3.106,0c0.353-0.081,0.203-0.622-0.149-0.541
				c-0.945,0.218-1.862,0.218-2.807,0C70.927,58.505,70.777,59.046,71.13,59.128L71.13,59.128z"/>
		</g>
	</g>
	<g>
		<g>
			<path style="&st0;" d="M71.455,54.072c0.583,0.803,1.577,1.149,2.534,0.868c0.347-0.102,0.199-0.643-0.149-0.541
				c-0.7,0.205-1.464-0.01-1.9-0.61C71.729,53.499,71.241,53.778,71.455,54.072L71.455,54.072z"/>
		</g>
	</g>
	<g>
		<g>
			<path style="&st0;" d="M71.063,48.999c1.063,0.769,2.273,1.237,3.591,1.27c0.362,0.009,0.361-0.552,0-0.561
				c-1.223-0.03-2.324-0.483-3.307-1.193C71.052,48.302,70.772,48.789,71.063,48.999L71.063,48.999z"/>
		</g>
	</g>
	<g>
		<g>
			<path style="&st0;" d="M73.387,41.858c-0.194,2.616,0.877,4.857,2.792,6.604c0.267,0.243,0.665-0.152,0.397-0.397
				c-1.817-1.657-2.812-3.723-2.628-6.207C73.975,41.497,73.414,41.5,73.387,41.858L73.387,41.858z"/>
		</g>
	</g>
	<g>
		<g>
			<path style="&st0;" d="M79.063,43.755c-0.219,1.415-0.256,2.833-0.256,4.263c0,0.362,0.561,0.362,0.561,0
				c0-1.377,0.025-2.75,0.236-4.114C79.66,43.55,79.119,43.398,79.063,43.755L79.063,43.755z"/>
		</g>
	</g>
	<g>
		<g>
			<path style="&st0;" d="M83.005,49.914c-0.267,0.819-0.485,1.672-0.503,2.538c-0.007,0.362,0.554,0.361,0.561,0
				c0.016-0.816,0.231-1.617,0.483-2.389C83.659,49.718,83.117,49.571,83.005,49.914L83.005,49.914z"/>
		</g>
	</g>
	<g>
		<g>
			<path style="&st0;" d="M86.483,53.296c-0.901,1.427-1.334,3.163-0.493,4.718c0.172,0.318,0.657,0.035,0.485-0.283
				c-0.745-1.377-0.296-2.902,0.493-4.151C87.161,53.272,86.675,52.99,86.483,53.296L86.483,53.296z"/>
		</g>
	</g>
	<g>
		<g>
			<path style="&st0;" d="M88.918,53.512c0.308,1.085,1.189,1.425,2.241,1.438c0.362,0.005,0.362-0.557,0-0.561
				c-0.793-0.01-1.464-0.191-1.7-1.026C89.36,53.015,88.819,53.163,88.918,53.512L88.918,53.512z"/>
		</g>
	</g>
	<g>
		<g>
			<path style="&st0;" d="M88.453,48.652c0.579,0.798,1.489,1.066,2.385,1.361c0.345,0.113,0.491-0.429,0.149-0.541
				c-0.733-0.241-1.572-0.445-2.05-1.103C88.728,48.079,88.24,48.358,88.453,48.652L88.453,48.652z"/>
		</g>
	</g>
	<g>
		<g>
			<path style="&st0;" d="M89.893,38.902c0.073,2.904,1.287,5.506,3.285,7.589c0.251,0.262,0.647-0.136,0.397-0.397
				c-1.897-1.977-3.051-4.435-3.12-7.192C90.445,38.541,89.884,38.54,89.893,38.902L89.893,38.902z"/>
		</g>
	</g>
	<g>
		<g>
			<path style="&st0;" d="M93.401,46.86c0.529-1.956,1.698-3.56,3.32-4.759c0.288-0.213,0.008-0.7-0.283-0.485
				c-1.743,1.288-3.009,2.991-3.578,5.095C92.765,47.061,93.306,47.209,93.401,46.86L93.401,46.86z"/>
		</g>
	</g>
	<g>
		<g>
			<path style="&st0;" d="M93.575,49.94c0.899-1.086,2.026-1.858,3.325-2.391c0.33-0.136,0.186-0.679-0.149-0.541
				c-1.391,0.571-2.609,1.371-3.573,2.536C92.949,49.82,93.344,50.219,93.575,49.94L93.575,49.94z"/>
		</g>
	</g>
	<g>
		<g>
			<path style="&st0;" d="M92.836,57.577c1.291-1.02,2.666-1.918,4.131-2.666c0.322-0.165,0.038-0.649-0.283-0.485
				c-1.51,0.77-2.916,1.704-4.245,2.754C92.155,57.405,92.555,57.799,92.836,57.577L92.836,57.577z"/>
		</g>
	</g>
	<g>
		<g>
			<path style="&st0;" d="M95.097,64.665c1.032-1.745,2.543-2.847,4.513-3.32c0.352-0.084,0.203-0.626-0.149-0.541
				c-2.106,0.506-3.747,1.715-4.849,3.578C94.428,64.694,94.913,64.976,95.097,64.665L95.097,64.665z"/>
		</g>
	</g>
	<g>
		<g>
			<path style="&st0;" d="M101.554,64.818c-1.489,1.576-1.757,3.438-0.537,5.267c0.2,0.299,0.686,0.019,0.485-0.283
				c-1.08-1.619-0.87-3.191,0.449-4.587C102.2,64.952,101.803,64.554,101.554,64.818L101.554,64.818z"/>
		</g>
	</g>
	<g>
		<g>
			<path style="&st0;" d="M106.046,64.273c1.059,0.763,2.181,0.978,3.419,0.521c0.336-0.124,0.191-0.667-0.149-0.541
				c-1.109,0.41-2.04,0.217-2.986-0.464C106.035,63.576,105.755,64.064,106.046,64.273L106.046,64.273z"/>
		</g>
	</g>
	<g>
		<g>
			<path style="&st0;" d="M108.263,57.621c1.093,0.508,2.146,0.508,3.24,0c0.328-0.152,0.043-0.636-0.283-0.485
				c-0.895,0.415-1.778,0.415-2.673,0C108.22,56.985,107.935,57.469,108.263,57.621L108.263,57.621z"/>
		</g>
	</g>
	<g>
		<g>
			<path style="&st0;" d="M109.248,49.738c1.301,0.737,2.66,0.762,3.789-0.29c0.265-0.247-0.132-0.643-0.397-0.397
				c-0.943,0.879-2.036,0.81-3.109,0.202C109.216,49.074,108.934,49.559,109.248,49.738L109.248,49.738z"/>
		</g>
	</g>
	<g>
		<g>
			<path style="&st0;" d="M109.602,40.38c0.042,1.512,1.266,2.473,2.67,2.734c0.354,0.066,0.505-0.475,0.149-0.541
				c-1.147-0.213-2.223-0.926-2.258-2.193C110.153,40.019,109.592,40.018,109.602,40.38L109.602,40.38z"/>
		</g>
	</g>
	<g>
		<g>
			<path style="&st0;" d="M110.844,35.774c0.567,1.585,1.839,2.608,3.399,3.152c0.343,0.12,0.489-0.423,0.149-0.541
				c-1.361-0.475-2.51-1.372-3.007-2.76C111.264,35.287,110.722,35.432,110.844,35.774L110.844,35.774z"/>
		</g>
	</g>
	<g>
		<g>
			<path style="&st0;" d="M113.051,30.772c0.026,1.549,0.513,3.061,1.864,3.938c0.305,0.198,0.586-0.288,0.283-0.485
				c-1.179-0.765-1.563-2.114-1.586-3.453C113.606,30.411,113.045,30.41,113.051,30.772L113.051,30.772z"/>
		</g>
	</g>
	<g>
		<g>
			<path style="&st0;" d="M116.5,28.308c-0.209,1.704-0.015,3.37,0.503,5.002c0.109,0.344,0.651,0.197,0.541-0.149
				c-0.504-1.588-0.686-3.197-0.483-4.853C117.105,27.95,116.544,27.954,116.5,28.308L116.5,28.308z"/>
		</g>
	</g>
	<g>
		<g>
			<path style="&st0;" d="M121.85,30.275c3.016-2.262,6.022-4.536,8.926-6.942c0.279-0.231-0.12-0.626-0.397-0.397
				c-2.867,2.375-5.834,4.621-8.812,6.854C121.281,30.005,121.56,30.493,121.85,30.275L121.85,30.275z"/>
		</g>
	</g>
	<g>
		<g>
			<path style="&st0;" d="M125.545,30.522c1.268-0.746,2.625-1.319,3.942-1.971c0.324-0.161,0.04-0.645-0.283-0.485
				c-1.317,0.652-2.673,1.225-3.942,1.971C124.95,30.22,125.232,30.706,125.545,30.522L125.545,30.522z"/>
		</g>
	</g>
	<g>
		<g>
			<path style="&st0;" d="M122.305,32.985c1.912,0.923,3.927,1.485,5.98,1.999c0.351,0.088,0.5-0.453,0.149-0.541
				c-2.006-0.502-3.976-1.041-5.846-1.943C122.264,32.344,121.98,32.828,122.305,32.985L122.305,32.985z"/>
		</g>
	</g>
	<g>
		<g>
			<path style="&st0;" d="M123.537,31.753c2.189,0.955,4.416,1.708,6.793,2.009c0.358,0.045,0.354-0.516,0-0.561
				c-2.273-0.288-4.418-1.02-6.51-1.933C123.492,31.126,123.206,31.609,123.537,31.753L123.537,31.753z"/>
		</g>
	</g>
	<g>
		<g>
			<path style="&st0;" d="M123.891,26.83c-0.236,2.046-0.246,4.102-0.246,6.159c0,0.362,0.561,0.362,0.561,0
				c0-2.057,0.01-4.113,0.246-6.159C124.494,26.471,123.932,26.475,123.891,26.83L123.891,26.83z"/>
		</g>
	</g>
	<g>
		<g>
			<path style="&st0;" d="M126.601,25.352c0,2.468-0.019,4.931-0.246,7.391c-0.033,0.36,0.528,0.357,0.561,0
				c0.228-2.459,0.246-4.923,0.246-7.391C127.162,24.99,126.601,24.99,126.601,25.352L126.601,25.352z"/>
		</g>
	</g>
	<g>
		<g>
			<path style="&st0;" d="M127.586,24.859c0,3.285,0,6.57,0,9.854c0,0.362,0.561,0.362,0.561,0c0-3.285,0-6.57,0-9.854
				C128.148,24.498,127.586,24.498,127.586,24.859L127.586,24.859z"/>
		</g>
	</g>
	<g>
		<g>
			<path style="&st0;" d="M126.834,27.521c0.728-0.702,1.613-1.149,2.586-1.406c0.35-0.092,0.201-0.634-0.149-0.541
				c-1.064,0.281-2.038,0.783-2.834,1.55C126.176,27.376,126.573,27.773,126.834,27.521L126.834,27.521z"/>
		</g>
	</g>
	<g>
		<g>
			<path style="&st0;" d="M124.836,32.767c1.893,0.477,3.773,1.001,5.666,1.478c0.351,0.089,0.5-0.453,0.149-0.541
				c-1.893-0.477-3.773-1.001-5.666-1.478C124.634,32.137,124.485,32.679,124.836,32.767L124.836,32.767z"/>
		</g>
	</g>
	<g>
		<g>
			<path style="&st0;" d="M123.973,33.68c1.718,1.923,3.729,3.459,5.969,4.725c0.316,0.178,0.598-0.307,0.283-0.485
				c-2.199-1.242-4.171-2.75-5.856-4.637C124.128,33.013,123.733,33.412,123.973,33.68L123.973,33.68z"/>
		</g>
	</g>
	<g>
		<g>
			<path style="&st0;" d="M46.815,127.626c0.536,0,1.085-0.02,1.583,0.208c0.326,0.15,0.612-0.334,0.283-0.485
				c-0.599-0.275-1.217-0.284-1.866-0.285C46.453,127.064,46.453,127.626,46.815,127.626L46.815,127.626z"/>
		</g>
	</g>
	<g>
		<g>
			<g>
				<path style="&st0;" d="M47.608,129.158c9.323,3.458,18.836,5.872,28.833,5.728c9.934-0.144,19.423-3.583,28.102-8.19
					c1.128-0.599,0.128-2.308-0.999-1.71c-9.021,4.788-18.397,7.794-28.661,7.942c-9.191,0.133-18.216-2.514-26.749-5.679
					C46.935,126.804,46.422,128.718,47.608,129.158L47.608,129.158z"/>
			</g>
		</g>
		<g>
			<g>
				<g>
					<path style="&st0;" d="M53.813,127.925c-4.31-10.887-3.005-24.49-0.814-35.705c2.408-12.327,9.986-23.678,23.678-24.194
						c13.916-0.525,19.13,14.109,21.786,25.14c2.574,10.692,4.021,22.462,2.754,33.448c-0.146,1.267,1.835,1.253,1.98,0
						c1.478-12.81-0.614-26.684-4.147-39c-3.175-11.067-9.697-21.324-22.373-21.568c-12.22-0.235-21.145,9.911-24.39,20.722
						c-3.754,12.511-5.287,29.296-0.383,41.683C52.368,129.624,54.283,129.114,53.813,127.925L53.813,127.925z"/>
				</g>
			</g>
			<g>
				<g>
					<path style="&st0;" d="M67.109,80.002c-9.765,2.487-5.374,17.878-5.24,24.825c0.006,0.322,0.211,0.58,0.515,0.676
						c7.409,2.352,16.215,4.142,23.734,1.312c0.839-0.316,0.476-1.672-0.373-1.353c-4.552,1.713-9.334,1.484-14.074,0.833
						c-2.069-0.284-4.104-0.783-6.123-1.303c-2.555-0.658-2.284-1.376-2.481-3.712c-0.48-5.669-3.209-17.985,4.415-19.927
						C68.358,81.132,67.986,79.778,67.109,80.002L67.109,80.002z"/>
				</g>
			</g>
			<g>
				<g>
					<path style="&st0;" d="M65.119,81.88c6.093-1.978,12.273-1.895,17.571,2.029c0.728,0.539,1.427-0.679,0.708-1.212
						c-5.571-4.127-12.235-4.254-18.652-2.171C63.889,80.805,64.256,82.16,65.119,81.88L65.119,81.88z"/>
				</g>
			</g>
			<g>
				<g>
					<path style="&st0;" d="M86.8,105.706c3.257-7.21,1.976-14.581-2.1-21.182c-0.474-0.768-1.688-0.064-1.212,0.708
						c3.789,6.136,5.155,13.004,2.1,19.766C85.219,105.816,86.428,106.53,86.8,105.706L86.8,105.706z"/>
				</g>
			</g>
			<g>
				<g>
					<path style="&st0;" d="M81.914,83.657c0.998,1.732,2.079,3.416,2.887,5.25c0.364,0.826,1.573,0.112,1.212-0.708
						c-0.809-1.834-1.889-3.517-2.887-5.25C82.674,82.166,81.461,82.872,81.914,83.657L81.914,83.657z"/>
				</g>
			</g>
			<g>
				<g>
					<path style="&st0;" d="M54.247,112.853c4.424,1.313,8.981,1.836,13.573,2.125c0.904,0.057,0.898-1.347,0-1.403
						c-4.47-0.282-8.895-0.797-13.2-2.075C53.75,111.242,53.381,112.597,54.247,112.853L54.247,112.853z"/>
				</g>
			</g>
			<g>
				<g>
					<path style="&st0;" d="M53.469,111.914c0.234,3.951-0.327,8.063,0.838,11.904c1.141,3.764,4.674,5.049,8.263,5.335
						c0.903,0.072,0.896-1.332,0-1.403c-9.053-0.722-7.303-9.154-7.698-15.835C54.819,111.015,53.416,111.01,53.469,111.914
						L53.469,111.914z"/>
				</g>
			</g>
			<g>
				<g>
					<path style="&st0;" d="M67.644,114.539c0.64,5.117-0.451,9.941-3.579,14.083c-0.546,0.723,0.674,1.42,1.212,0.708
						c3.26-4.316,4.439-9.452,3.771-14.791C68.936,113.654,67.531,113.643,67.644,114.539L67.644,114.539z"/>
				</g>
			</g>
			<g>
				<g>
					<path style="&st0;" d="M62.384,128.865c0.833,0.277,1.664,0.528,2.549,0.55c0.905,0.023,0.903-1.381,0-1.403
						c-0.754-0.019-1.466-0.264-2.176-0.5C61.896,127.226,61.53,128.581,62.384,128.865L62.384,128.865z"/>
				</g>
			</g>
			<g>
				<g>
					<path style="&st0;" d="M79.37,114.453c5.054-0.372,9.822-1.881,14.266-4.296c0.795-0.432,0.087-1.643-0.708-1.212
						c-4.228,2.297-8.75,3.75-13.558,4.104C78.473,113.116,78.466,114.52,79.37,114.453L79.37,114.453z"/>
				</g>
			</g>
			<g>
				<g>
					<path style="&st0;" d="M78.956,114.463c1.083,4.28,2.303,8.526,3.15,12.862c0.173,0.888,1.526,0.511,1.353-0.373
						c-0.847-4.336-2.067-8.582-3.15-12.862C80.087,113.214,78.734,113.586,78.956,114.463L78.956,114.463z"/>
				</g>
			</g>
			<g>
				<g>
					<path style="&st0;" d="M82.782,128.103c4.452,0.435,8.441-1.203,11.521-4.405c0.627-0.652-0.364-1.645-0.992-0.992
						c-2.849,2.962-6.421,4.396-10.528,3.994C81.881,126.612,81.89,128.016,82.782,128.103L82.782,128.103z"/>
				</g>
			</g>
			<g>
				<g>
					<path style="&st0;" d="M92.342,110.788c1.041,3.995,1.781,8.028,2.075,12.15c0.064,0.897,1.468,0.903,1.403,0
						c-0.303-4.244-1.052-8.408-2.125-12.523C93.467,109.54,92.114,109.912,92.342,110.788L92.342,110.788z"/>
				</g>
			</g>
			<g>
				<g>
					<path style="&st0;" d="M55.855,116.283c0.985,0.246,1.971,0.493,2.956,0.739c0.351,0.088,0.5-0.453,0.149-0.541
						c-0.985-0.246-1.971-0.493-2.956-0.739C55.653,115.654,55.504,116.196,55.855,116.283L55.855,116.283z"/>
				</g>
			</g>
			<g>
				<g>
					<path style="&st0;" d="M55.363,115.544c1.647,0.458,3.291,0.731,5.002,0.749c0.362,0.004,0.362-0.558,0-0.561
						c-1.66-0.017-3.256-0.285-4.853-0.729C55.162,114.906,55.014,115.447,55.363,115.544L55.363,115.544z"/>
				</g>
			</g>
			<g>
				<g>
					<path style="&st0;" d="M56.348,115.051c1.559,0.257,3.122,0.482,4.681,0.739c0.354,0.058,0.506-0.482,0.149-0.541
						c-1.559-0.257-3.122-0.482-4.681-0.739C56.143,114.452,55.992,114.993,56.348,115.051L56.348,115.051z"/>
				</g>
			</g>
			<g>
				<g>
					<path style="&st0;" d="M64.272,115.027c0.449,4.12,0.456,8.185-0.483,12.243c-0.081,0.352,0.46,0.502,0.541,0.149
						c0.948-4.098,0.957-8.225,0.503-12.393C64.794,114.671,64.233,114.668,64.272,115.027L64.272,115.027z"/>
				</g>
			</g>
			<g>
				<g>
					<path style="&st0;" d="M69.455,95.983c-0.246,1.61-0.246,3.22,0,4.83c0.055,0.357,0.595,0.205,0.541-0.149
						c-0.23-1.503-0.23-3.028,0-4.532C70.051,95.778,69.51,95.626,69.455,95.983L69.455,95.983z"/>
				</g>
			</g>
			<g>
				<g>
					<path style="&st0;" d="M69.281,100.937c1.502,1.223,3.122,2.018,5.051,2.289c0.354,0.05,0.506-0.491,0.149-0.541
						c-1.826-0.257-3.378-0.984-4.803-2.145C69.4,100.313,69,100.708,69.281,100.937L69.281,100.937z"/>
				</g>
			</g>
			<g>
				<g>
					<path style="&st0;" d="M76.729,103.937c1.823,1.26,3.832,1.966,6.054,2.009c0.362,0.007,0.361-0.554,0-0.561
						c-2.129-0.042-4.028-0.727-5.771-1.933C76.714,103.246,76.433,103.733,76.729,103.937L76.729,103.937z"/>
				</g>
			</g>
			<g>
				<g>
					<path style="&st0;" d="M80.738,103.226c1.369,0.521,2.803,0.732,4.263,0.749c0.362,0.004,0.362-0.557,0-0.561
						c-1.414-0.017-2.789-0.225-4.114-0.729C80.548,102.556,80.403,103.099,80.738,103.226L80.738,103.226z"/>
				</g>
			</g>
			<g>
				<g>
					<path style="&st0;" d="M82.462,101.994c1.127,0.281,2.195,0.45,3.352,0.246c0.356-0.063,0.205-0.604-0.149-0.541
						c-1.05,0.185-2.033,0.008-3.053-0.246C82.26,101.366,82.111,101.907,82.462,101.994L82.462,101.994z"/>
				</g>
			</g>
			<g>
				<g>
					<path style="&st0;" d="M82.462,100.27c1.397,0.454,2.791,0.731,4.263,0.749c0.362,0.004,0.362-0.557,0-0.561
						c-1.423-0.017-2.764-0.29-4.114-0.729C82.266,99.616,82.119,100.158,82.462,100.27L82.462,100.27z"/>
				</g>
			</g>
			<g>
				<g>
					<path style="&st0;" d="M84.433,98.545c0.801,0.251,1.649,0.298,2.464,0.493c0.352,0.084,0.501-0.457,0.149-0.541
						c-0.815-0.194-1.663-0.242-2.464-0.493C84.236,97.896,84.089,98.438,84.433,98.545L84.433,98.545z"/>
				</g>
			</g>
			<g>
				<g>
					<path style="&st0;" d="M84.612,97.047c-1.326,0.811-2.54,1.784-3.752,2.754c-0.283,0.226,0.117,0.62,0.397,0.397
						c1.175-0.94,2.353-1.88,3.639-2.666C85.204,97.343,84.922,96.858,84.612,97.047L84.612,97.047z"/>
				</g>
			</g>
			<g>
				<g>
					<path style="&st0;" d="M83.381,99.757c-1.395,0.716-2.637,1.654-3.752,2.754c-0.258,0.254,0.139,0.651,0.397,0.397
						c1.082-1.068,2.284-1.971,3.639-2.666C83.986,100.076,83.702,99.592,83.381,99.757L83.381,99.757z"/>
				</g>
			</g>
			<g>
				<g>
					<path style="&st0;" d="M78.453,103.444c2.073,0.993,4.248,1.475,6.547,1.27c0.358-0.032,0.361-0.593,0-0.561
						c-2.198,0.196-4.279-0.242-6.264-1.193C78.412,102.804,78.127,103.288,78.453,103.444L78.453,103.444z"/>
				</g>
			</g>
			<g>
				<g>
					<path style="&st0;" d="M78.767,103.965c1.899,0.441,3.809,0.51,5.741,0.256c0.354-0.046,0.358-0.608,0-0.561
						c-1.883,0.247-3.737,0.195-5.592-0.236C78.564,103.342,78.414,103.883,78.767,103.965L78.767,103.965z"/>
				</g>
			</g>
			<g>
				<g>
					<path style="&st0;" d="M84.187,99.777c0.835,0.272,1.745,0.495,2.613,0.246c0.347-0.1,0.199-0.641-0.149-0.541
						c-0.77,0.221-1.576-0.006-2.314-0.246C83.991,99.123,83.844,99.665,84.187,99.777L84.187,99.777z"/>
				</g>
			</g>
			<g>
				<g>
					<path style="&st0;" d="M84.019,94.475c0.706,1.177,1.417,2.357,1.943,3.628c0.136,0.33,0.679,0.185,0.541-0.149
						c-0.545-1.319-1.267-2.541-1.999-3.762C84.318,93.881,83.832,94.163,84.019,94.475L84.019,94.475z"/>
				</g>
			</g>
			<g>
				<g>
					<path style="&st0;" d="M89.411,114.116c1.237,3.322,1.914,6.722,1.961,10.273c0.005,0.362,0.566,0.362,0.561,0
						c-0.048-3.598-0.726-7.05-1.981-10.422C89.827,113.631,89.284,113.776,89.411,114.116L89.411,114.116z"/>
				</g>
			</g>
			<g>
				<g>
					<path style="&st0;" d="M81.41,117.733c1.246,0.723,2.601,1.211,4.009,1.506c0.353,0.074,0.503-0.467,0.149-0.541
						c-1.362-0.286-2.669-0.75-3.875-1.45C81.379,117.066,81.097,117.552,81.41,117.733L81.41,117.733z"/>
				</g>
			</g>
			<g>
				<g>
					<path style="&st0;" d="M82.395,116.255c0.655,0.315,1.35,0.538,2.038,0.767c0.344,0.115,0.491-0.427,0.149-0.541
						c-0.642-0.214-1.293-0.417-1.904-0.711C82.354,115.614,82.069,116.098,82.395,116.255L82.395,116.255z"/>
				</g>
			</g>
			<g>
				<g>
					<path style="&st0;" d="M84.12,115.762c0.721,0.464,1.496,0.757,2.359,0.777c0.362,0.009,0.361-0.553,0-0.561
						c-0.767-0.018-1.436-0.29-2.076-0.701C84.097,115.081,83.816,115.567,84.12,115.762L84.12,115.762z"/>
				</g>
			</g>
			<g>
				<g>
					<path style="&st0;" d="M85.787,115.226c0.388,0.357,0.849,0.619,1.232,0.985c0.261,0.25,0.659-0.146,0.397-0.397
						c-0.383-0.367-0.845-0.629-1.232-0.985C85.919,114.584,85.521,114.98,85.787,115.226L85.787,115.226z"/>
				</g>
			</g>
			<g>
				<g>
					<path style="&st0;" d="M82.502,116.259c-0.02,0.746-0.227,1.47-0.246,2.217c-0.01,0.362,0.552,0.361,0.561,0
						c0.02-0.746,0.227-1.47,0.246-2.217C83.073,115.897,82.512,115.898,82.502,116.259L82.502,116.259z"/>
				</g>
			</g>
			<g>
				<g>
					<path style="&st0;" d="M84.265,117.842c-0.463,0.996-0.53,2.015-0.531,3.098c0,0.362,0.561,0.362,0.561,0
						c0.001-0.973,0.037-1.917,0.454-2.815C84.902,117.799,84.418,117.514,84.265,117.842L84.265,117.842z"/>
				</g>
			</g>
			<g>
				<g>
					<path style="&st0;" d="M84.72,122.172c-0.001,0.463-0.016,0.906-0.208,1.337c-0.146,0.327,0.337,0.613,0.485,0.283
						c0.236-0.528,0.283-1.046,0.285-1.62C85.282,121.81,84.72,121.81,84.72,122.172L84.72,122.172z"/>
				</g>
			</g>
		</g>
	</g>
	<g>
		<g>
			<path style="&st0;" d="M52.477,87.084c0.487-0.806,1.016-1.496,1.681-2.16c0.256-0.256-0.141-0.653-0.397-0.397
				c-0.698,0.699-1.257,1.427-1.768,2.274C51.805,87.111,52.29,87.393,52.477,87.084L52.477,87.084z"/>
		</g>
	</g>
	<g>
		<g>
			<path style="&st0;" d="M67.977,64.598c0.109,0.784,0.341,1.636,1.062,2.069c0.641,0.385,1.446,0.118,2.06-0.177
				c0.326-0.157,0.041-0.641-0.283-0.485c-0.49,0.236-1.069,0.432-1.573,0.129c-0.53-0.318-0.649-1.137-0.725-1.686
				C68.469,64.092,67.928,64.244,67.977,64.598L67.977,64.598z"/>
		</g>
	</g>
	<g>
		<g>
			<path style="&st0;" d="M68.569,66.026c0.648-0.204,1.323-0.288,1.971-0.493c0.344-0.108,0.197-0.65-0.149-0.541
				c-0.648,0.204-1.323,0.288-1.971,0.493C68.076,65.593,68.223,66.135,68.569,66.026L68.569,66.026z"/>
		</g>
	</g>
	<g>
		<g>
			<path style="&st0;" d="M68.636,64.027c0.427-0.213,0.852-0.428,1.337-0.454c0.36-0.019,0.362-0.581,0-0.561
				c-0.59,0.032-1.099,0.272-1.62,0.531C68.029,63.703,68.313,64.187,68.636,64.027L68.636,64.027z"/>
		</g>
	</g>
	<g>
		<g>
			<path style="&st0;" d="M68.636,65.998c0.493-0.246,0.985-0.493,1.478-0.739c0.324-0.162,0.039-0.646-0.283-0.485
				c-0.493,0.246-0.985,0.493-1.478,0.739C68.029,65.675,68.313,66.159,68.636,65.998L68.636,65.998z"/>
		</g>
	</g>
	<g>
		<g>
			<path style="&st0;" d="M68.322,67.504c1.398-0.236,2.79-0.503,4.188-0.739c0.356-0.06,0.205-0.601-0.149-0.541
				c-1.398,0.236-2.79,0.503-4.188,0.739C67.817,67.023,67.969,67.564,68.322,67.504L68.322,67.504z"/>
		</g>
	</g>
	<g>
		<g>
			<path style="&st0;" d="M69.48,66.036c2.608-0.206,5.107,0.042,7.563,0.975c0.339,0.129,0.484-0.414,0.149-0.541
				c-2.506-0.953-5.049-1.206-7.712-0.995C69.121,65.503,69.119,66.064,69.48,66.036L69.48,66.036z"/>
		</g>
	</g>
	<g>
		<g>
			<g>
				<path style="&st0;" d="M44.817,127.4c-0.807,3.208-0.807,6.506,0,9.713c0.311,1.238,2.221,0.712,1.909-0.526
					c-0.722-2.868-0.722-5.793,0-8.661C47.037,126.688,45.128,126.163,44.817,127.4L44.817,127.4z"/>
			</g>
		</g>
		<g>
			<g>
				<path style="&st0;" d="M45.071,137.551c7.042,8.691,23.239,8.545,33.216,8.066c10.093-0.484,26.638-2.482,31.599-12.991
					c0.542-1.148-1.165-2.153-1.71-0.999c-4.65,9.851-20.499,11.44-29.889,12.011c-9.428,0.573-25.182,0.701-31.816-7.486
					C45.667,135.158,44.275,136.568,45.071,137.551L45.071,137.551z"/>
			</g>
		</g>
		<g>
			<g>
				<path style="&st0;" d="M103.868,126.001c2.097,1.958,3.302,4.546,3.122,7.437c-0.079,1.276,1.901,1.268,1.98,0
					c0.21-3.377-1.255-6.552-3.702-8.837C104.337,123.731,102.934,125.128,103.868,126.001L103.868,126.001z"/>
			</g>
		</g>
		<g>
			<g>
				<path style="&st0;" d="M56.891,145.514c0.59,1.624,1.661,4.269,3.763,4.269c2.386,0,2.749-3.664,2.907-5.32
					c0.121-1.271-1.86-1.259-1.98,0c-0.086,0.901-0.23,1.787-0.535,2.642c-0.069,0.195-0.181,0.412-0.313,0.571
					c-0.149,0.178-0.096,0.127-0.183,0.127c-0.061,0-0.49-0.4-0.655-0.623c-0.488-0.657-0.817-1.429-1.095-2.193
					C58.368,143.797,56.454,144.31,56.891,145.514L56.891,145.514z"/>
			</g>
		</g>
		<g>
			<g>
				<path style="&st0;" d="M89.802,144.963c0.134,0.309,0.32,1.032,0.541,1.472c0.454,0.907,1.306,1.563,2.177,2.033
					c0.506,0.273,1.036,0.097,1.354-0.355c0.595-0.846,0.953-1.712,1.003-2.75c0.048-1-0.317-1.998-0.343-2.999
					c-0.032-1.274-2.012-1.278-1.98,0c0.019,0.765,0.146,1.51,0.279,2.262c0.173,0.979-0.105,1.687-0.669,2.489
					c0.451-0.118,0.903-0.237,1.354-0.355c-1.307-0.706-1.473-1.563-2.007-2.795C91.005,142.794,89.3,143.804,89.802,144.963
					L89.802,144.963z"/>
			</g>
		</g>
		<g>
			<g>
				<path style="&st0;" d="M50.722,133.504c-0.11,1.229-0.222,2.462-0.246,3.695c-0.003,0.131,0.089,0.229,0.206,0.271
					c3.524,1.252,7.07,2.443,10.593,3.695c0.342,0.122,0.488-0.421,0.149-0.541c-2.776-0.987-5.565-1.936-8.347-2.904
					c-0.224-0.078-2.04-0.53-2.033-0.864c0.009-0.461,0.049-0.923,0.08-1.384c0.045-0.657,0.101-1.313,0.16-1.969
					C51.316,133.144,50.754,133.147,50.722,133.504L50.722,133.504z"/>
			</g>
		</g>
		<g>
			<g>
				<path style="&st0;" d="M47.608,129.158c9.323,3.458,18.836,5.872,28.833,5.728c9.934-0.144,19.423-3.583,28.102-8.19
					c1.128-0.599,0.128-2.308-0.999-1.71c-9.021,4.788-18.397,7.794-28.661,7.942c-9.191,0.133-18.216-2.514-26.749-5.679
					C46.935,126.804,46.422,128.718,47.608,129.158L47.608,129.158z"/>
			</g>
		</g>
	</g>
	<g>
		<g>
			<path style="&st0;" d="M47.822,135.507c0.526-0.508,1.089-0.919,1.513-1.526c0.208-0.297-0.279-0.578-0.485-0.283
				c-0.394,0.564-0.937,0.94-1.425,1.412C47.164,135.362,47.561,135.759,47.822,135.507L47.822,135.507z"/>
		</g>
	</g>
	<g>
		<g>
			<path style="&st0;" d="M47.332,131.344c0.462-0.442,1.007-0.782,1.469-1.224c0.262-0.251-0.136-0.647-0.397-0.397
				c-0.462,0.442-1.007,0.782-1.469,1.224C46.673,131.198,47.07,131.594,47.332,131.344L47.332,131.344z"/>
		</g>
	</g>
	<g>
		<g>
			<path style="&st0;" d="M47.208,128.478c1.447-0.505,2.758-1.131,4.333-0.969c-0.025-0.184-0.05-0.367-0.075-0.551
				c-1.868,0.451-3.777,0.717-5.632,1.224c0.072,0.171,0.144,0.342,0.216,0.513c1.1-0.767,2.368-1.198,3.606-1.686
				c0.211-0.083,0.299-0.385,0.067-0.513c-0.592-0.325-2.737-0.043-3.078,0.59c-0.126,0.234,0.138,0.549,0.384,0.384
				c0.897-0.602,1.846-0.719,2.871-0.951c0.31-0.07,0.241-0.56-0.075-0.551c-1.689,0.05-2.717,0.889-3.872,2.041
				c-0.256,0.256,0.14,0.653,0.397,0.397c1.036-1.033,1.94-1.832,3.475-1.877c-0.025-0.184-0.05-0.367-0.075-0.551
				c-1.073,0.243-2.075,0.383-3.006,1.008c0.128,0.128,0.256,0.256,0.384,0.384c0.16-0.298,2.022-0.547,2.31-0.389
				c0.022-0.171,0.045-0.342,0.067-0.513c-1.281,0.505-2.602,0.948-3.74,1.742c-0.253,0.177-0.105,0.601,0.216,0.513
				c1.855-0.507,3.764-0.773,5.632-1.224c0.329-0.079,0.223-0.521-0.075-0.551c-1.628-0.167-2.98,0.466-4.482,0.99
				C46.719,128.055,46.865,128.597,47.208,128.478L47.208,128.478z"/>
		</g>
	</g>
	<g>
		<g>
			<path style="&st0;" d="M47.108,132.2c0.556,2.772,2.377,4.786,5.093,5.583c0.348,0.102,0.496-0.439,0.149-0.541
				c-2.539-0.745-4.183-2.609-4.701-5.191C47.578,131.696,47.037,131.847,47.108,132.2L47.108,132.2z"/>
		</g>
	</g>
	<g>
		<g>
			<path style="&st0;" d="M48.187,138.518c1.128-0.407,2.208-1.201,3.062-2.031c0.26-0.253-0.137-0.649-0.397-0.397
				c-0.778,0.757-1.783,1.515-2.815,1.887C47.701,138.098,47.846,138.641,48.187,138.518L48.187,138.518z"/>
		</g>
	</g>
	<g>
		<g>
			<path style="&st0;" d="M49.724,140.204c1.216-0.75,2.235-1.732,3.24-2.737c0.256-0.256-0.141-0.653-0.397-0.397
				c-0.972,0.971-1.951,1.925-3.127,2.65C49.133,139.908,49.415,140.394,49.724,140.204L49.724,140.204z"/>
		</g>
	</g>
	<g>
		<g>
			<path style="&st0;" d="M52.964,140.16c0.653-0.653,1.306-1.306,1.959-1.959c0.256-0.256-0.141-0.653-0.397-0.397
				c-0.653,0.653-1.306,1.306-1.959,1.959C52.311,140.019,52.708,140.416,52.964,140.16L52.964,140.16z"/>
		</g>
	</g>
	<g>
		<g>
			<path style="&st0;" d="M55.902,141.874c0.181-0.179,0.346-0.376,0.611-0.418c0.357-0.056,0.205-0.597-0.149-0.541
				c-0.358,0.056-0.61,0.316-0.858,0.562C55.248,141.732,55.645,142.129,55.902,141.874L55.902,141.874z"/>
		</g>
	</g>
	<g>
		<g>
			<path style="&st0;" d="M58.962,141.946c1.121-0.307,2.072-1.06,2.616-2.088c0.169-0.32-0.315-0.603-0.485-0.283
				c-0.479,0.904-1.293,1.56-2.281,1.83C58.464,141.5,58.612,142.042,58.962,141.946L58.962,141.946z"/>
		</g>
	</g>
	<g>
		<g>
			<path style="&st0;" d="M49.384,135.752c4.058,3.873,9.348,6.32,14.816,7.418c0.353,0.071,0.504-0.47,0.149-0.541
				c-5.377-1.08-10.577-3.464-14.569-7.274C49.519,135.105,49.121,135.502,49.384,135.752L49.384,135.752z"/>
		</g>
	</g>
	<g>
		<g>
			<path style="&st0;" d="M47.726,136.53c3.889,2.472,8.285,3.632,12.875,3.711c0.362,0.006,0.362-0.555,0-0.561
				c-4.5-0.078-8.779-1.212-12.592-3.635C47.703,135.851,47.422,136.337,47.726,136.53L47.726,136.53z"/>
		</g>
	</g>
	<g>
		<g>
			<path style="&st0;" d="M49.781,137.956c1.481-1.455,3.155-2.67,4.841-3.874c0.292-0.208,0.012-0.696-0.283-0.485
				c-1.724,1.232-3.439,2.474-4.954,3.962C49.125,137.813,49.522,138.209,49.781,137.956L49.781,137.956z"/>
		</g>
	</g>
	<g>
		<g>
			<path style="&st0;" d="M49.582,134.855c1.954-0.226,3.923-0.263,5.877-0.49c0.355-0.041,0.359-0.603,0-0.561
				c-1.954,0.226-3.923,0.263-5.877,0.49C49.227,134.335,49.223,134.896,49.582,134.855L49.582,134.855z"/>
		</g>
	</g>
	<g>
		<g>
			<path style="&st0;" d="M48.706,133.347c1.563,1.1,3.239,1.996,4.897,2.938c0.315,0.179,0.598-0.306,0.283-0.485
				c-1.659-0.942-3.335-1.839-4.897-2.938C48.692,132.654,48.412,133.141,48.706,133.347L48.706,133.347z"/>
		</g>
	</g>
	<g>
		<g>
			<path style="&st0;" d="M51.889,139.224c3.248,1.456,6.634,2.449,10.107,3.212c0.353,0.077,0.503-0.464,0.149-0.541
				c-3.425-0.752-6.767-1.718-9.973-3.155C51.845,138.593,51.559,139.076,51.889,139.224L51.889,139.224z"/>
		</g>
	</g>
	<g>
		<g>
			<path style="&st0;" d="M59.792,142.436c3.727,0.959,7.503,1.466,11.339,1.724c0.361,0.024,0.359-0.537,0-0.561
				c-3.784-0.255-7.514-0.759-11.19-1.704C59.591,141.804,59.442,142.346,59.792,142.436L59.792,142.436z"/>
		</g>
	</g>
	<g>
		<g>
			<path style="&st0;" d="M61.017,141.946c5.256,1.824,11.468,1.929,16.971,1.969c0.362,0.003,0.362-0.559,0-0.561
				c-5.483-0.039-11.599-0.137-16.822-1.949C60.823,141.286,60.677,141.828,61.017,141.946L61.017,141.946z"/>
		</g>
	</g>
	<g>
		<g>
			<path style="&st0;" d="M56.928,115.51c0.362,0,0.362-0.561,0-0.561S56.566,115.51,56.928,115.51L56.928,115.51z"/>
		</g>
	</g>
	<g>
		<g>
			<path style="&st0;" d="M56.686,115.087c-0.842,1.453-1.18,2.974-0.763,4.624c0.089,0.351,0.63,0.202,0.541-0.149
				c-0.381-1.507-0.061-2.867,0.706-4.191C57.352,115.057,56.867,114.774,56.686,115.087L56.686,115.087z"/>
		</g>
	</g>
</g>
</svg>
