<?xml version="1.0" encoding="utf-8"?>
<!-- Generator: Adobe Illustrator 17.0.0, SVG Export Plug-In . SVG Version: 6.00 Build 0)  -->
<!DOCTYPE svg PUBLIC "-//W3C//DTD SVG 1.1//EN" "http://www.w3.org/Graphics/SVG/1.1/DTD/svg11.dtd">
<svg version="1.1" xmlns="http://www.w3.org/2000/svg" xmlns:xlink="http://www.w3.org/1999/xlink" x="0px" y="0px" width="85.72px"
	 height="65.04px" viewBox="0 0 85.72 65.04" enable-background="new 0 0 85.72 65.04" xml:space="preserve">
<g id="Calque_1">
	<g>
		<g>
			<path fill="#4B4B4B" d="M20.392,39.607c0.081,0.777,0.43,1.508,1.246,1.732c1.175,0.323,1.938-0.686,2.002-1.732
				c0.05-0.817-0.72-1.5-1.5-1.5c-0.856,0-1.45,0.684-1.5,1.5c0.047-0.16,0.094-0.321,0.14-0.481c0.299-0.23,0.598-0.46,0.896-0.689
				c-0.013,0.003-0.026,0.007-0.039,0.01c0.385,0.05,0.771,0.101,1.156,0.151c0.199,0.336,0.399,0.673,0.598,1.009
				c-0.085-0.813-0.618-1.5-1.5-1.5C21.139,38.107,20.307,38.792,20.392,39.607L20.392,39.607z"/>
		</g>
	</g>
	<g>
		<g>
			<path fill="#4B4B4B" d="M20.997,36.672c-4.952,2.087,2.417,6.948,4.248,8.17c5.397,3.599,12.78,7.867,19.47,7.925
				c-0.133-0.982-0.266-1.964-0.399-2.946c-4.318,0.782-8.228,0.102-11.744-2.578c-0.505,0.863-1.009,1.727-1.514,2.59
				c2.595,1.179,4.908,1.102,7.703,1.445c1.917,0.236,1.894-2.767,0-3c-2.094-0.257-4.189-0.127-6.189-1.036
				c-1.785-0.811-3.046,1.423-1.514,2.59c4.169,3.177,8.991,3.798,14.056,2.88c1.707-0.309,1.247-2.932-0.399-2.946
				c-4.527-0.039-9.122-2.562-13.023-4.61c-1.946-1.021-3.825-2.166-5.652-3.385c-0.916-0.611-1.787-1.28-2.62-2
				c-1.452-1.256-0.232-0.795-1.626-0.207C23.549,38.825,22.779,35.921,20.997,36.672L20.997,36.672z"/>
		</g>
	</g>
	<g>
		<g>
			<path fill="#4B4B4B" d="M20.156,39.37c1.935,0,1.935-3,0-3S18.221,39.37,20.156,39.37L20.156,39.37z"/>
		</g>
	</g>
	<g>
		<g>
			<path fill="#4B4B4B" d="M19.908,39.37c1.935,0,1.935-3,0-3S17.973,39.37,19.908,39.37L19.908,39.37z"/>
		</g>
	</g>
	<g>
		<g>
			<g>
				<g>
					<path fill="#FECCCD" d="M22.346,37.223c-0.01-0.033-0.02-0.067-0.031-0.1c-0.836,0.486-1.671,0.973-2.507,1.459
						c1.6,1.92,2.806,4.214,4.262,6.247c0.785-0.606,1.571-1.212,2.356-1.818c-0.744-0.827-1.488-1.654-2.233-2.481
						c-0.707,0.707-1.414,1.414-2.121,2.121c11.927,12.822,37.982,16.167,45.177-3.143c0.33-0.886-0.525-1.957-1.446-1.899
						c-14.247,0.906-28.464,0.23-42.67-0.992c0,1,0,2,0,3c12.529-0.878,27.141-2.394,39.046,2.427
						c-0.221-0.836-0.441-1.671-0.662-2.507c-2.34,2.865-5.055,4.774-8.517,6.064c0.385,0.914,0.771,1.828,1.156,2.742
						c2.486-1.512,4.469-3.378,6.506-5.444c0.917-0.93,0.254-2.559-1.061-2.561c-4.174-0.004-7.131,1.7-9.744,4.905
						c-0.719,0.881-0.39,2.723,1.061,2.561c3.956-0.443,5.691-2.148,7.745-5.456c0.567-0.914-0.155-2.352-1.295-2.257
						c-4.759,0.396-7.824,2.953-9.633,7.303c-0.471,1.131,0.856,2.069,1.845,1.845c4.049-0.918,5.878-2.77,7.002-6.754
						c0.256-0.908-0.469-1.942-1.446-1.899c-4.558,0.203-7.235,2.064-8.889,6.311c-0.345,0.887,0.536,1.953,1.446,1.899
						c3.922-0.232,9.302-2.672,5.696-7.14c-4.332-5.368-9.37,2.334-10.368,5.986c-0.207,0.759,0.249,1.667,1.048,1.845
						c5.008,1.118,8.335-1.402,9.536-6.257c0.202-0.815-0.253-1.595-1.048-1.845c-3.886-1.222-8.415-0.383-8.907,4.392
						c-0.192,1.866,1.145,7.257,4.187,5.063c2.201-1.588,7.133-7.149,2.707-9.204c-4.105-1.906-8.082,2.978-9.259,6.254
						c-0.293,0.816,0.327,1.581,1.048,1.845c5.023,1.841,10.41-0.163,7.52-6.175c-0.851-1.77-2.762-3.264-4.786-3.041
						c-3.36,0.371-4.435,4.695-5.022,7.37c-0.171,0.779,0.223,1.645,1.048,1.845c5.503,1.335,9.321-2.001,8.597-7.648
						c-0.118-0.92-0.874-1.768-1.899-1.446c-4.02,1.262-6.219,3.391-7.25,7.498c-0.393,1.567,1.377,2.351,2.507,1.459
						c2.054-1.621,3.534-3.32,4.948-5.513c-0.863-0.505-1.727-1.009-2.59-1.514c-5.47,9.977-13.915,4.274-18.993-2.729
						c-0.432,0.752-0.863,1.505-1.295,2.257c7.711,0.15,15.375-0.687,23.072-0.992c-0.133-0.982-0.266-1.964-0.399-2.946
						c-5.072,1.843-9.866,4.898-9.536,10.874c0.064,1.169,1.216,1.824,2.257,1.295c1.202-0.611,2.345-1.245,3.473-1.985
						c-0.735-0.565-1.469-1.129-2.203-1.694c-0.176,0.947-0.952,1.579-1.24,2.481c-0.299,0.936,0.502,1.899,1.446,1.899
						c0.686,0,2.168-0.184,2.826-0.054c0-0.964,0-1.929,0-2.893c-4.379,1.456-7.269-1.728-9.704-4.824
						c-0.486,0.836-0.973,1.671-1.459,2.507c1.088,0.443,2.107,0.988,3.115,1.585c0-0.863,0-1.727,0-2.59
						c-3.244,1.586-5.207,0.133-7.113-2.246c-0.486,0.836-0.973,1.671-1.459,2.507c1.905,0.439,3.654,0.981,5.458,1.737
						c1.567,0.656,2.685-2.022,1.156-2.742c-1.84-0.865-3.342-2.009-4.962-3.225c-0.385,0.914-0.771,1.828-1.156,2.742
						c3.502,1.305,7.11,1.933,10.818,2.286c1.43,0.136,1.811-1.67,1.061-2.561c-2.28-2.704-2.633-2.362-6.173-1.874
						c-1.379,0.19-1.337,2.127-0.358,2.742c3.056,1.919,4.059,1.98,7.22,0.248c1.123-0.616,0.897-2.442-0.358-2.742
						c-2.944-0.703-2.882-0.917-5.621,0.647c-1.243,0.71-0.767,2.909,0.757,2.795c0.755-0.056,1.432-0.159,2.175-0.023
						c0.875,0.161,1.523-0.235,1.845-1.048c0.295-0.743,0.694-1.45,0.969-2.209c0.422-1.163-0.821-2.043-1.845-1.845
						c-1.256,0.242-3.144,1.579-3.664,2.767c-0.302,0.69-0.263,1.68,0.538,2.052c1.45,0.673,3.639-0.414,4.956-1.14
						c1.493-0.823,0.476-3.225-1.156-2.742c-0.509,0.128-1.005,0.293-1.488,0.496c0.385,0.914,0.771,1.828,1.156,2.742
						c0.434-0.316,0.748-0.576,1.034-1.034c0.643-1.029-0.215-2.175-1.295-2.257c-4.824-0.368-9.564-1.368-14.389-1.737
						c-1.931-0.147-1.916,2.854,0,3c4.824,0.368,9.564,1.368,14.389,1.737c-0.432-0.752-0.863-1.505-1.295-2.257
						c0.014-0.014,0.028-0.028,0.042-0.042c-1.27,0.923-0.552,3.392,1.156,2.742c0.483-0.203,0.98-0.368,1.488-0.496
						c-0.385-0.914-0.771-1.828-1.156-2.742c-0.549,0.302-1.277,0.45-1.865,0.657c-1.356,0.479-0.942,0.074-0.063,0.482
						c0.179,0.684,0.359,1.368,0.538,2.052c0.245-0.56,1.256-1.269,1.872-1.388c-0.615-0.615-1.23-1.23-1.845-1.845
						c-0.261,0.72-0.682,1.485-0.969,2.209c0.615-0.349,1.23-0.698,1.845-1.048c-1.021-0.188-1.925-0.163-2.973-0.085
						c0.252,0.932,0.505,1.863,0.757,2.795c1.72-0.982,1.852-0.552,0.981-1.07c0.681,0.405,1.591,0.549,2.329,0.725
						c-0.119-0.914-0.239-1.828-0.358-2.742c-1.799,0.985-2.471,0.832-4.192-0.248c-0.119,0.914-0.239,1.828-0.358,2.742
						c2.788-0.384,1.501-0.976,3.254,1.103c0.354-0.854,0.707-1.707,1.061-2.561c-3.454-0.329-6.769-0.968-10.021-2.179
						c-1.728-0.644-2.401,1.807-1.156,2.742c1.62,1.216,3.122,2.36,4.962,3.225c0.385-0.914,0.771-1.828,1.156-2.742
						c-1.804-0.756-3.553-1.298-5.458-1.737c-1.554-0.358-2.377,1.362-1.459,2.507c2.878,3.592,6.554,4.766,10.749,2.715
						c1.038-0.508,0.913-2.049,0-2.59c-1.235-0.732-2.504-1.347-3.831-1.888c-1.567-0.638-2.259,1.491-1.459,2.507
						c3.176,4.038,7.299,7.365,12.623,5.595c1.308-0.435,1.551-2.586,0-2.893c-1.385-0.274-2.093-0.054-3.624-0.054
						c0.482,0.633,0.964,1.266,1.446,1.899c0.298-0.93,1.05-1.458,1.24-2.481c0.222-1.195-1.008-2.478-2.203-1.694
						c-1.128,0.74-2.271,1.374-3.473,1.985c0.752,0.432,1.505,0.863,2.257,1.295c-0.252-4.572,3.607-6.627,7.334-7.981
						c1.515-0.551,1.387-3.017-0.399-2.946c-7.697,0.306-15.36,1.142-23.072,0.992c-1.06-0.021-1.974,1.321-1.295,2.257
						c6.494,8.956,17.521,14.863,24.174,2.729c0.934-1.704-1.545-3.135-2.59-1.514c-1.258,1.952-2.667,3.477-4.479,4.906
						c0.836,0.486,1.671,0.973,2.507,1.459c0.779-3.102,2.16-4.462,5.154-5.402c-0.633-0.482-1.266-0.964-1.899-1.446
						c0.44,3.431-1.339,5.595-4.799,4.756c0.349,0.615,0.698,1.23,1.048,1.845c0.393-1.791,1.744-7.367,4.077-4.037
						c2.435,3.476-1.645,3.013-3.884,2.192c0.349,0.615,0.698,1.23,1.048,1.845c0.647-1.802,1.625-3.03,3.279-3.974
						c3.944-2.251-0.679,3.3-0.562,3.466c-2.422-3.418,2.512-4.641,4.865-3.902c-0.349-0.615-0.698-1.23-1.048-1.845
						c-0.773,3.124-2.556,4.897-5.845,4.162c0.349,0.615,0.698,1.23,1.048,1.845c0.555-2.03,1.374-5.208,3.973-5.328
						c0.69-0.032,1.619,0.612,1.706,1.334c0.148,1.236-3.635,1.335-3.9,1.351c0.482,0.633,0.964,1.266,1.446,1.899
						c1.151-2.955,2.931-3.972,5.996-4.108c-0.482-0.633-0.964-1.266-1.446-1.899c-0.82,2.908-1.969,3.993-4.906,4.658
						c0.615,0.615,1.23,1.23,1.845,1.845c1.301-3.128,3.33-4.817,6.74-5.101c-0.432-0.752-0.863-1.505-1.295-2.257
						c-1.433,2.308-2.228,3.643-5.155,3.971c0.354,0.854,0.707,1.707,1.061,2.561c2.083-2.555,4.198-4.03,7.622-4.026
						c-0.354-0.854-0.707-1.707-1.061-2.561c-1.842,1.868-3.638,3.6-5.898,4.975c-1.407,0.856-0.485,3.353,1.156,2.742
						c3.934-1.467,7.174-3.57,9.841-6.836c0.76-0.931,0.434-2.063-0.662-2.507c-12.165-4.926-27.063-3.43-39.844-2.534
						c-1.942,0.136-1.922,2.835,0,3c14.207,1.223,28.423,1.898,42.67,0.992c-0.482-0.633-0.964-1.266-1.446-1.899
						c-6.403,17.185-29.97,12.777-40.163,1.819c-1.324-1.423-3.409,0.69-2.121,2.121c0.744,0.827,1.488,1.654,2.233,2.481
						c1.13,1.255,3.353-0.425,2.356-1.818c-1.609-2.247-2.96-4.73-4.731-6.854c-0.98-1.176-2.927,0.08-2.507,1.459
						c0.01,0.033,0.02,0.067,0.031,0.1C20.015,39.866,22.911,39.079,22.346,37.223L22.346,37.223z"/>
				</g>
			</g>
			<g>
				<g>
					<path fill="#FECCCD" d="M19.66,38.874c1.935,0,1.935-3,0-3S17.725,38.874,19.66,38.874L19.66,38.874z"/>
				</g>
			</g>
		</g>
		<g>
			<g>
				<path fill="#FECCCD" d="M23.561,44.885c1.939,2.428,4.44,4.371,7.25,5.692c1.74,0.818,3.264-1.768,1.514-2.59
					c-2.612-1.228-4.84-2.967-6.643-5.223C24.474,41.252,22.366,43.389,23.561,44.885L23.561,44.885z"/>
			</g>
		</g>
		<g>
			<g>
				<path fill="#FECCCD" d="M47.099,52.217c5.257-1.755,10.705-3.703,14.803-7.58c1.408-1.332-0.717-3.45-2.121-2.121
					c-3.708,3.508-8.726,5.222-13.479,6.809C44.476,49.933,45.259,52.831,47.099,52.217L47.099,52.217z"/>
			</g>
		</g>
	</g>
	<g>
		<g>
			<g>
				<path fill="#4B4B4B" d="M16.76,9.307c-9.467,12.611-9.077,28.067,1.344,39.951c8.974,10.234,24.481,15.801,37.496,10.627
					c14.391-5.72,22.044-24.872,15.474-38.766C63.359,4.804,41.267,0.263,25.44,5.158c-2.933,0.907-5.711,2.283-8.355,3.824
					c-1.009,0.588-0.097,2.154,0.914,1.564c15.257-8.891,36.307-7.188,48.253,6.52c11.221,12.876,3.898,33.848-10.556,40.815
					c-12.143,5.853-26.967-0.213-35.704-9.245C9.316,37.599,9.312,22.227,18.324,10.222C19.026,9.286,17.452,8.385,16.76,9.307
					L16.76,9.307z"/>
			</g>
		</g>
		<g>
			<g>
				<path fill="#4B4B4B" d="M10.609,26.522c-3.582-0.12-7.236,1.759-7.246,5.743c-0.012,4.629,5.194,6.582,8.996,6.872
					c1.166,0.089,1.157-1.723,0-1.812c-2.858-0.218-6.722-1.403-7.165-4.756c-0.414-3.135,2.881-4.32,5.415-4.236
					C11.778,28.372,11.774,26.561,10.609,26.522L10.609,26.522z"/>
			</g>
		</g>
		<g>
			<g>
				<path fill="#4B4B4B" d="M36.732,11.03c-11.762,0.439-23.411,6.886-21.15,20.309c1.94,11.519,11.936,21.755,23.647,23.283
					c13.613,1.775,31.575-7.858,29.897-23.349C67.471,15.988,50.09,8.221,36.491,11.062c-1.143,0.239-0.658,1.985,0.482,1.747
					c13.126-2.742,28.874,4.905,30.437,19.339c1.586,14.644-17.5,22.835-29.612,20.386c-9.875-1.997-17.93-10.618-20.207-20.262
					c-3.006-12.733,7.961-19.014,19.14-19.431C37.897,12.798,37.901,10.986,36.732,11.03L36.732,11.03z"/>
			</g>
		</g>
		<g>
			<g>
				<path fill="#4B4B4B" d="M20.29,37.653c15.73-0.254,31.45,0.73,47.181,0.554c1.167-0.013,1.169-1.825,0-1.812
					C51.74,36.571,36.02,35.587,20.29,35.841C19.123,35.86,19.121,37.672,20.29,37.653L20.29,37.653z"/>
			</g>
		</g>
		<g>
			<g>
				<path fill="#4B4B4B" d="M21.453,24.615c1.267,1.42,2.629,2.629,4.278,3.595c1.01,0.592,1.921-0.974,0.914-1.564
					c-1.522-0.892-2.743-2.003-3.911-3.312C21.955,22.46,20.678,23.746,21.453,24.615L21.453,24.615z"/>
			</g>
		</g>
		<g>
			<g>
				<path fill="#4B4B4B" d="M29.185,20.765c1.167,1.31,2.11,2.666,2.822,4.278c0.471,1.067,2.032,0.144,1.564-0.914
					c-0.773-1.75-1.839-3.224-3.105-4.645C29.687,18.61,28.411,19.896,29.185,20.765L29.185,20.765z"/>
			</g>
		</g>
		<g>
			<g>
				<path fill="#4B4B4B" d="M38.933,19.177c0.664,0.788,0.676,1.65,0.621,2.629c-0.066,1.168,1.746,1.161,1.812,0
					c0.084-1.499-0.163-2.737-1.151-3.91C39.46,17.001,38.185,18.29,38.933,19.177L38.933,19.177z"/>
			</g>
		</g>
		<g>
			<g>
				<path fill="#4B4B4B" d="M46.338,15.756c-0.102,1.783-0.204,3.565-0.306,5.348c-0.067,1.168,1.745,1.161,1.812,0
					c0.102-1.783,0.204-3.565,0.306-5.348C48.216,14.589,46.404,14.595,46.338,15.756L46.338,15.756z"/>
			</g>
		</g>
		<g>
			<g>
				<path fill="#4B4B4B" d="M51.875,23.945c1.282-2.096,3.697-3.277,5.512-4.858c0.882-0.769-0.404-2.045-1.281-1.281
					c-1.963,1.711-4.403,2.948-5.795,5.225C49.7,24.03,51.267,24.94,51.875,23.945L51.875,23.945z"/>
			</g>
		</g>
		<g>
			<g>
				<path fill="#4B4B4B" d="M57.845,29.843c1.514-1.276,3.552-1.987,5.348-2.761c1.07-0.461,0.147-2.021-0.914-1.564
					c-1.97,0.849-4.056,1.647-5.715,3.044C55.669,29.316,56.958,30.591,57.845,29.843L57.845,29.843z"/>
			</g>
		</g>
		<g>
			<g>
				<path fill="#4B4B4B" d="M71.82,39.672c3.951-0.056,9.563-1.222,9.994-6.032c0.416-4.648-5.507-6.528-9.048-6.794
					c-1.166-0.087-1.158,1.725,0,1.812c2.726,0.204,7.014,1.308,7.24,4.69c0.255,3.817-5.618,4.476-8.185,4.513
					C70.652,37.877,70.651,39.688,71.82,39.672L71.82,39.672z"/>
			</g>
		</g>
		<g>
			<g>
				<g>
					<path fill="#FD4F52" d="M34.792,44.072c0-0.083,0-0.165,0-0.248c0-1.919-2.976-1.919-2.976,0c0,0.083,0,0.165,0,0.248
						C31.816,45.991,34.792,45.991,34.792,44.072L34.792,44.072z"/>
				</g>
			</g>
			<g>
				<g>
					<path fill="#FD4F52" d="M43.103,45.064c0.083,0,0.165,0,0.248,0c1.919,0,1.919-2.976,0-2.976c-0.083,0-0.165,0-0.248,0
						C41.184,42.088,41.184,45.064,43.103,45.064L43.103,45.064z"/>
				</g>
			</g>
			<g>
				<g>
					<path fill="#FD4F52" d="M53.151,45.312c1.919,0,1.919-2.976,0-2.976C51.231,42.336,51.231,45.312,53.151,45.312L53.151,45.312z"/>
				</g>
			</g>
		</g>
	</g>
</g>
<g id="Calqueaiguille">
	<g id="aiguille">
		<g>
			<path class="aiguille" fill="#3D3D3D" d="M43.351,32.9c-3.333-1.936-6.45-4.057-10.214-5.079c-1.638-0.445-2.648,1.896-1.156,2.742
				c3.582,2.029,7.259,3.884,10.841,5.913c1.686,0.955,3.197-1.637,1.514-2.59c-3.582-2.03-7.259-3.884-10.841-5.913
				c-0.385,0.914-0.771,1.828-1.156,2.742c3.506,0.952,6.394,2.974,9.497,4.777C43.513,36.464,45.022,33.871,43.351,32.9
				L43.351,32.9z">
      <animateTransform attributeType="xml" attributeName="transform" type="rotate" dur="3s" additive="sum" repeatCount="indefinite"
        values="-5 44 36 ; 90 44 36 ; 110 44 36 ; 120 44 36 ; 15 44 36 ; -5 44 36" />
        </path>
		</g>
	</g>
</g>
</svg>
