<?xml version="1.0" encoding="utf-8"?>
<!-- Generator: Adobe Illustrator 17.0.0, SVG Export Plug-In . SVG Version: 6.00 Build 0)  -->
<!DOCTYPE svg PUBLIC "-//W3C//DTD SVG 1.1//EN" "http://www.w3.org/Graphics/SVG/1.1/DTD/svg11.dtd" [
	<!ENTITY st0 "fill:#4B4B4B;">
]>
<svg version="1.1" id="Calque_1" xmlns="http://www.w3.org/2000/svg" xmlns:xlink="http://www.w3.org/1999/xlink" x="0px" y="0px"
	 width="54.572px" height="62.123px" viewBox="0 0 54.572 62.123" style="enable-background:new 0 0 54.572 62.123;"
	 xml:space="preserve">
<g>
	<g>
		<path style="&st0;" d="M13.413,51.212c-1.172,0.21-1.432,1.65-1.567,2.619c-0.254,1.81-0.219,3.655-0.22,5.478
			c0,1.371,2.126,1.371,2.126,0c0-1.24,0.005-2.48,0.06-3.719c0.023-0.506,0.058-1.015,0.129-1.516
			c0.029-0.193,0.067-0.384,0.112-0.573c0.097-0.445,0.231-0.293-0.075-0.238C15.326,53.02,14.753,50.972,13.413,51.212
			L13.413,51.212z"/>
	</g>
</g>
<g>
	<g>
		<path style="&st0;" d="M12.971,53.262c9.792-3.615,23.119-5.474,27.887,6.33c0.507,1.254,2.564,0.707,2.05-0.565
			C37.676,46.072,23.57,47.09,12.406,51.212C11.131,51.682,11.682,53.738,12.971,53.262L12.971,53.262z"/>
	</g>
</g>
<g>
	<g>
		<path style="&st0;" d="M18.747,50.499c0.773-2.47,0.697-6.599,3.095-8.127c1.319-0.84,6.687-1.292,7.619,0.225
			c1.781,2.899,2.67,6.255,4.458,9.165c0.716,1.166,2.555,0.099,1.836-1.073c-1.195-1.946-2.072-4.017-2.972-6.11
			c-0.517-1.203-1.246-3.673-2.443-4.374c-2.022-1.185-6.172-0.775-8.376-0.18c-4.275,1.155-4.196,6.486-5.267,9.908
			C16.286,51.246,18.339,51.803,18.747,50.499L18.747,50.499z"/>
	</g>
</g>
<g>
	<g>
		<path style="&st0;" d="M24.514,40.372c-3.538-4.009-7.223-9.064-7.83-14.413c-0.392-3.451,0.664-6.444,3.152-8.707
			c2.178-1.981,5.454-3.12,8.37-3.333c1.681-0.123,3.021-0.016,4.497,0.343c0.35,0.085,0.695,0.188,1.036,0.302
			c0.441,0.148,0.662,0.245,0.887,0.348c0.311,0.143,0.614,0.305,0.909,0.479c0.145,0.085,0.287,0.177,0.427,0.27
			c0.082,0.054,0.514,0.374,0.324,0.225c0.26,0.202,0.504,0.423,0.737,0.656c0.116,0.115,0.226,0.236,0.334,0.359
			c0.054,0.061,0.106,0.124,0.158,0.187c0.112,0.136-0.092-0.13,0.083,0.108c0.194,0.264,0.366,0.545,0.521,0.834
			c0.254,0.47,0.207,0.389,0.356,0.823c0.493,1.442,0.443,2.928,0.107,4.421c-1.221,5.419-5.473,10.061-9.294,13.871
			c-0.409,0.408-0.825,0.809-1.243,1.208c-0.994,0.948,0.512,2.449,1.503,1.503c4.337-4.136,8.8-8.959,10.732-14.762
			c1.095-3.288,0.934-6.908-1.366-9.634c-4.226-5.01-12.814-4.446-18.028-1.543c-2.99,1.665-5.313,4.435-6.094,7.8
			c-1.053,4.534,0.678,9.204,2.951,13.078c1.49,2.539,3.324,4.877,5.269,7.081C23.92,42.905,25.417,41.396,24.514,40.372
			L24.514,40.372z"/>
	</g>
</g>
<g>
	<g>
		<path style="&st0;" d="M25.45,38.915c-1.109-3.34-2.157-6.69-3.02-10.103c-0.223-0.882-1.585-0.508-1.361,0.375
			c0.863,3.413,1.911,6.763,3.02,10.103C24.374,40.15,25.737,39.782,25.45,38.915L25.45,38.915z"/>
	</g>
</g>
<g>
	<g>
		<path style="&st0;" d="M26.102,37.27c0.003,0.019,0.007,0.037,0.01,0.056c0.069,0.372,0.524,0.598,0.868,0.493
			c1.253-0.381,1.879-3.973,2.229-4.972c1.13-3.228,2.209-6.475,3.287-9.721c0.288-0.866-1.076-1.235-1.361-0.375
			c-0.822,2.474-1.649,4.945-2.491,7.412c-0.495,1.451-0.998,2.899-1.517,4.341c-0.185,0.515-0.378,1.028-0.575,1.539
			c-0.234,0.604-0.505,0.584,0.053,0.415c0.289,0.164,0.579,0.329,0.868,0.493c-0.003-0.019-0.007-0.037-0.01-0.056
			C27.298,36,25.938,36.38,26.102,37.27L26.102,37.27z"/>
	</g>
</g>
<g>
	<g>
		<path style="&st0;" d="M20.092,30.62c3.527-2.642,7.142-5.071,11.074-7.072c0.812-0.413,0.097-1.631-0.712-1.219
			c-3.932,2.001-7.547,4.431-11.074,7.072C18.66,29.939,19.362,31.166,20.092,30.62L20.092,30.62z"/>
	</g>
</g>
<g>
	<g>
		<path style="&st0;" d="M20.243,26.468c0.795,0.825,1.392,1.868,1.903,2.888c0.408,0.814,1.626,0.099,1.219-0.712
			c-0.566-1.128-1.245-2.262-2.124-3.174C20.609,24.813,19.612,25.812,20.243,26.468L20.243,26.468z"/>
	</g>
</g>
<g>
	<g>
		<path style="&st0;" d="M23.057,23.948c0.062,1.406,0.946,2.65,1.007,4.041c0.04,0.907,1.452,0.911,1.412,0
			c-0.062-1.406-0.946-2.65-1.007-4.041C24.428,23.042,23.017,23.038,23.057,23.948L23.057,23.948z"/>
	</g>
</g>
<g>
	<g>
		<path style="&st0;" d="M25.07,23.948c0.08,1.47,1.244,2.549,2.22,3.53c0.643,0.646,1.641-0.353,0.998-0.998
			c-0.654-0.657-1.752-1.528-1.807-2.532C26.433,23.043,25.021,23.038,25.07,23.948L25.07,23.948z"/>
	</g>
</g>
</svg>
