<?xml version="1.0" encoding="utf-8"?>
<!-- Generator: Adobe Illustrator 17.0.0, SVG Export Plug-In . SVG Version: 6.00 Build 0)  -->
<!DOCTYPE svg PUBLIC "-//W3C//DTD SVG 1.1//EN" "http://www.w3.org/Graphics/SVG/1.1/DTD/svg11.dtd">
<svg version="1.1" id="Calque_1" xmlns="http://www.w3.org/2000/svg" xmlns:xlink="http://www.w3.org/1999/xlink" x="0px" y="0px"
	 width="46.64px" height="45.07px" viewBox="0 0 46.64 45.07" enable-background="new 0 0 46.64 45.07" xml:space="preserve">
<g>
	<g opacity="0.6">
		<path fill="#4B4B4B" d="M3.208,8.192c4.903,11.759,15.175,21.291,22.668,30.226c0,0,13.784-20.587,16.805-31.007
			C12.998,6.309,13.23,6.274,3.208,8.192z"/>
		<g>
			<path fill="#3D3D3D" d="M2.773,8.446C7.952,20.243,17.315,29.104,25.52,38.774c0.222,0.261,0.623,0.148,0.79-0.102
				c6.421-9.614,13.422-20.007,16.856-31.127c0.1-0.323-0.168-0.625-0.485-0.637C29.414,6.416,16.18,5.201,3.074,7.707
				c-0.637,0.122-0.366,1.091,0.267,0.97c4.921-0.941,9.699-1.526,14.717-1.521c4.751,0.005,9.503,0.209,14.25,0.377
				c0.893,0.032,9.643,0.538,9.628,0.589c-0.828,2.681-2.085,5.232-3.321,7.743c-3.692,7.503-8.156,14.669-12.744,21.652
				c-0.133,0.203-0.267,0.404-0.401,0.606c0.657-0.987-1.687-2.901-2.162-3.442c-2.419-2.751-4.894-5.453-7.3-8.216
				C11.09,20.818,6.662,14.818,3.642,7.938C3.382,7.345,2.515,7.858,2.773,8.446z"/>
		</g>
	</g>
	<g>
		<path fill="#7D65FB" d="M6.551,7.764C8.623,13.46,17.647,21.483,25.057,33.66c3.746-8.465,9.365-16.46,13.111-24.456l1.873-2.351
			C28.841,7.791,28.902,6.821,6.551,7.764z"/>
		<g>
			<path fill="#4B4B4B" d="M6.009,7.914c1.398,3.421,3.795,6.288,6.086,9.147c4.391,5.481,8.757,10.912,12.477,16.883
				c0.204,0.328,0.787,0.403,0.971,0c2.436-5.327,5.385-10.365,8.304-15.436c2.173-3.774,3.878-7.85,6.592-11.257
				c0.271-0.34,0.147-1.004-0.398-0.96c-11.12,0.902-22.344,0.455-33.49,0.911c-0.722,0.03-0.725,1.154,0,1.124
				c7.451-0.305,14.894-0.462,22.35-0.456c2.027,0.002,4.052-0.029,6.077-0.116c1.369-0.059,2.736-0.158,4.103-0.261
				c0.531-0.982,0.499-1.052-0.097-0.21c-0.405,0.508-0.809,1.016-1.214,1.524c-2.69,3.377-4.46,8.385-6.644,12.165
				c-1.467,2.541-2.903,5.096-4.276,7.689c-1.981,3.741-1.869,3.702-4.272,0.158C17.809,21.782,10.328,15.531,7.093,7.615
				C6.823,6.953,5.735,7.242,6.009,7.914z"/>
		</g>
	</g>
	<g>
		<g>
			<path fill="#3D3D3D" d="M2.773,8.446C8.747,19.685,17.373,29.102,25.52,38.774c0.222,0.264,0.621,0.145,0.79-0.102
				c6.747-9.887,13.454-20.416,17.608-31.685c0.115-0.311-0.179-0.637-0.485-0.637c-13.444,0-26.872-0.395-40.225,1.338
				c-0.634,0.082-0.642,1.089,0,1.006c4.611-0.599,9.191-1.075,13.841-1.209c3.901-0.112,7.807-0.11,11.709-0.121
				c3.026-0.009,6.051-0.008,9.077-0.009c0.265,0,4.902-0.067,4.73,0.401c-0.684,1.857-1.531,3.653-2.378,5.439
				c-3.952,8.339-8.929,16.251-14.041,23.921c-1.162,1.743-0.813-0.123-2.006-1.528c-2.208-2.602-4.43-5.191-6.618-7.81
				C12.33,21.568,7.449,15.102,3.642,7.938C3.337,7.365,2.469,7.873,2.773,8.446z"/>
		</g>
	</g>
	<g>
		<g>
			<path fill="#4B4B4B" d="M4.361,9.083c0.845-0.014,1.656-0.11,2.503,0c0.718,0.093,0.709-1.033,0-1.124
				c-0.847-0.11-1.658-0.014-2.503,0C3.637,7.971,3.636,9.096,4.361,9.083L4.361,9.083z"/>
		</g>
	</g>
	<g>
		<g>
			<path fill="#4B4B4B" d="M39.904,7.931c0.82,0,1.639,0,2.459,0c0.725,0,0.725-1.124,0-1.124c-0.82,0-1.639,0-2.459,0
				C39.179,6.806,39.179,7.931,39.904,7.931L39.904,7.931z"/>
		</g>
	</g>
</g>
<g>
	<g>
		<path fill="#3D3D3D" d="M79.926,22.492c-1.26-0.422-2.518-0.846-3.671-1.517c-0.562-0.327-1.068,0.542-0.508,0.868
			c1.227,0.714,2.571,1.169,3.912,1.619C80.275,23.668,80.537,22.697,79.926,22.492L79.926,22.492z"/>
	</g>
</g>
</svg>
