<?xml version="1.0" encoding="utf-8"?>
<!-- Generator: Adobe Illustrator 17.0.0, SVG Export Plug-In . SVG Version: 6.00 Build 0)  -->
<!DOCTYPE svg PUBLIC "-//W3C//DTD SVG 1.1//EN" "http://www.w3.org/Graphics/SVG/1.1/DTD/svg11.dtd">
<svg version="1.1" id="Calque_1" xmlns="http://www.w3.org/2000/svg" xmlns:xlink="http://www.w3.org/1999/xlink" x="0px" y="0px"
	 width="46.64px" height="45.07px" viewBox="0 0 46.64 45.07" enable-background="new 0 0 46.64 45.07" xml:space="preserve">
<g>
	<g opacity="0.6">
		<path fill="#4B4B4B" d="M44.488,36.418c-5.994-9.934-14.333-19.42-21.74-28.427l-0.874-0.359
			C17.067,17.054,7.047,27.74,2.275,37.101C2.275,37.101,34.637,38.205,44.488,36.418z"/>
		<g>
			<path fill="#3D3D3D" d="M44.922,36.164c-3.473-5.636-7.423-10.913-11.551-16.081c-2.253-2.821-4.574-5.587-6.882-8.362
				c-1.369-1.646-2.46-3.743-4.481-4.574c-0.199-0.082-0.472,0.051-0.568,0.231C15.882,17.836,7.396,26.388,1.841,36.847
				c-0.182,0.342,0.045,0.744,0.434,0.757c13.868,0.467,28.613,1.604,42.347-0.701c0.639-0.107,0.367-1.076-0.267-0.97
				c-13.445,2.256-27.887,1.103-41.462,0.685c-1.152-0.036,0.755-0.996,1.241-1.847c1.593-2.793,3.492-5.418,5.361-8.029
				c3.555-4.966,7.306-9.778,10.584-14.937c0.537-0.862,1.052-1.737,1.544-2.626c1.084-1.899,2.172,0.865,3.018,1.885
				c2.297,2.77,4.603,5.532,6.879,8.32c4.51,5.523,8.792,11.215,12.535,17.289C44.393,37.223,45.264,36.718,44.922,36.164z"/>
		</g>
	</g>
	<g>
		<path fill="#7D65FB" d="M38.495,32.718c-5.539-8.519-11.55-16.572-16.621-25.086c-3.826,8.429-9.521,16.37-13.343,24.329
			l-1.895,2.333C17.883,33.461,38.495,32.718,38.495,32.718z"/>
		<g>
			<path fill="#4B4B4B" d="M38.98,32.434C33.48,24.044,27.551,15.94,22.36,7.348c-0.202-0.335-0.785-0.396-0.971,0
				c-2.486,5.303-5.482,10.314-8.45,15.356c-2.209,3.754-3.954,7.812-6.7,11.193c-0.278,0.342-0.142,0.999,0.398,0.96
				c10.603-0.763,21.235-1.191,31.858-1.577c0.723-0.026,0.725-1.151,0-1.124c-4.118,0.149-8.234,0.322-12.351,0.504
				c-3.601,0.159-7.202,0.336-10.802,0.529c-1.735,0.093-3.47,0.197-5.205,0.304c-0.795,0.05-1.59,0.103-2.385,0.158
				c-0.55,0.037-0.756,1.085,0.509-0.472c1.993-2.454,3.198-5.66,4.772-8.407c2.618-4.569,5.376-9.045,7.81-13.718
				c1.624-3.119,2.181-0.449,3.486,1.608c1.338,2.107,2.738,4.173,4.135,6.241c3.177,4.703,6.432,9.351,9.544,14.098
				C38.405,33.605,39.379,33.042,38.98,32.434z"/>
		</g>
	</g>
	<g>
		<g>
			<path fill="#3D3D3D" d="M44.922,36.164c-3.473-5.636-7.423-10.913-11.551-16.081c-2.253-2.821-4.574-5.587-6.882-8.362
				c-1.369-1.646-2.46-3.743-4.481-4.574c-0.208-0.085-0.462,0.056-0.568,0.231C15.324,17.475,7.362,26.382,1.841,36.847
				c-0.18,0.342,0.044,0.744,0.434,0.757c13.868,0.467,28.613,1.604,42.347-0.701c0.639-0.107,0.367-1.076-0.267-0.97
				c-13.445,2.256-27.887,1.103-41.462,0.685c-1.148-0.035,0.742-0.989,1.225-1.85c1.562-2.786,3.387-5.428,5.198-8.054
				c3.463-5.019,7.15-9.877,10.547-14.943c0.571-0.86,1.128-1.729,1.672-2.606c1.181-1.872,2.238,0.852,3.105,1.898
				c2.297,2.77,4.603,5.532,6.879,8.32c4.51,5.523,8.792,11.215,12.535,17.289C44.393,37.223,45.264,36.718,44.922,36.164z"/>
		</g>
	</g>
	<g>
		<g>
			<path fill="#4B4B4B" d="M2.512,37.817c1.556-0.825,3.02-2.023,4.405-3.105c0.571-0.446-0.231-1.236-0.795-0.795
				c-1.309,1.022-2.706,2.149-4.177,2.929C1.303,37.186,1.871,38.157,2.512,37.817L2.512,37.817z"/>
		</g>
	</g>
	<g>
		<g>
			<path fill="#4B4B4B" d="M38.004,32.979c1.63,1.449,3.354,2.774,5.151,4.009c0.599,0.412,1.161-0.563,0.568-0.971
				c-1.718-1.182-3.364-2.448-4.923-3.833C38.259,31.704,37.461,32.496,38.004,32.979L38.004,32.979z"/>
		</g>
	</g>
</g>
</svg>
