<?xml version="1.0" encoding="utf-8"?>
<!-- Generator: Adobe Illustrator 17.0.0, SVG Export Plug-In . SVG Version: 6.00 Build 0)  -->
<!DOCTYPE svg PUBLIC "-//W3C//DTD SVG 1.1//EN" "http://www.w3.org/Graphics/SVG/1.1/DTD/svg11.dtd">
<svg version="1.1" id="Calque_1" xmlns="http://www.w3.org/2000/svg" xmlns:xlink="http://www.w3.org/1999/xlink" x="0px" y="0px"
	 width="46.64px" height="45.07px" viewBox="0 0 46.64 45.07" enable-background="new 0 0 46.64 45.07" xml:space="preserve">
<g opacity="0.6">
	<path fill="#4B4B4B" d="M44.488,36.418c-5.994-9.934-14.333-19.42-21.74-28.427l-0.874-0.359
		C17.067,17.054,7.047,27.74,2.275,37.101C2.275,37.101,34.637,38.205,44.488,36.418z"/>
	<g>
		<path fill="#3D3D3D" d="M44.922,36.164c-3.473-5.636-7.423-10.913-11.551-16.081c-2.253-2.821-4.574-5.587-6.882-8.362
			c-1.369-1.646-2.46-3.743-4.481-4.574c-0.199-0.082-0.472,0.051-0.568,0.231C15.882,17.836,7.396,26.388,1.841,36.847
			c-0.182,0.342,0.045,0.744,0.434,0.757c13.868,0.467,28.613,1.604,42.347-0.701c0.639-0.107,0.367-1.076-0.267-0.97
			c-13.445,2.256-27.887,1.103-41.462,0.685c-1.152-0.036,0.755-0.996,1.241-1.847c1.593-2.793,3.492-5.418,5.361-8.029
			c3.555-4.966,7.306-9.778,10.584-14.937c0.537-0.862,1.052-1.737,1.544-2.626c1.084-1.899,2.172,0.865,3.018,1.885
			c2.297,2.77,4.603,5.532,6.879,8.32c4.51,5.523,8.792,11.215,12.535,17.289C44.393,37.223,45.264,36.718,44.922,36.164z"/>
	</g>
</g>
<g>
	<path fill="#7D65FB" d="M36.437,33.198c-4.818-7.41-10.047-14.414-14.457-21.82c-3.328,7.332-8.281,14.239-11.606,21.162
		l-1.649,2.03C18.508,33.845,36.437,33.198,36.437,33.198z"/>
	<g>
		<path fill="#4B4B4B" d="M36.859,32.951c-4.788-7.296-9.935-14.351-14.457-21.82c-0.176-0.291-0.682-0.344-0.845,0
			c-1.986,4.217-4.323,8.224-6.69,12.235c-2.131,3.61-3.846,7.606-6.488,10.858c-0.242,0.298-0.124,0.868,0.346,0.835
			c9.223-0.661,18.471-1.036,27.711-1.371c0.629-0.023,0.631-1.001,0-0.978c-3.609,0.131-7.218,0.283-10.826,0.442
			c-3.148,0.139-6.296,0.295-9.443,0.464c-1.716,0.092-3.43,0.197-5.145,0.306c-1.874,0.119-2.004,1.059-0.561-0.718
			c1.796-2.211,2.932-5.365,4.371-7.848c2.044-3.526,4.147-7.008,6.053-10.613c1.14-2.156,1.3-2.064,2.608,0.034
			c1.312,2.103,2.703,4.157,4.088,6.213c2.803,4.158,5.681,8.263,8.432,12.456C36.359,33.97,37.206,33.48,36.859,32.951z"/>
	</g>
</g>
<g>
	<g>
		<path fill="#3D3D3D" d="M44.922,36.164c-3.473-5.636-7.423-10.913-11.551-16.081c-2.253-2.821-4.574-5.587-6.882-8.362
			c-1.369-1.646-2.46-3.743-4.481-4.574c-0.208-0.085-0.462,0.056-0.568,0.231C15.324,17.475,7.362,26.382,1.841,36.847
			c-0.18,0.342,0.044,0.744,0.434,0.757c13.868,0.467,28.613,1.604,42.347-0.701c0.639-0.107,0.367-1.076-0.267-0.97
			c-13.445,2.256-27.887,1.103-41.462,0.685c-1.148-0.035,0.742-0.989,1.225-1.85c1.562-2.786,3.387-5.428,5.198-8.054
			c3.463-5.019,7.15-9.877,10.547-14.943c0.571-0.86,1.128-1.729,1.672-2.606c1.181-1.872,2.238,0.852,3.105,1.898
			c2.297,2.77,4.603,5.532,6.879,8.32c4.51,5.523,8.792,11.215,12.535,17.289C44.393,37.223,45.264,36.718,44.922,36.164z"/>
	</g>
</g>
<g>
	<g>
		<path fill="#4B4B4B" d="M2.512,37.817c2.102-0.944,4.609-1.391,6.498-2.762c0.58-0.422,0.02-1.398-0.568-0.971
			c-1.887,1.371-4.392,1.817-6.498,2.762C1.284,37.143,1.856,38.112,2.512,37.817L2.512,37.817z"/>
	</g>
</g>
<g>
	<g>
		<path fill="#4B4B4B" d="M36.039,33.596c2.07,1.709,4.886,1.967,7.116,3.393c0.613,0.392,1.176-0.582,0.568-0.971
			c-2.136-1.366-4.918-1.59-6.888-3.217C36.28,32.343,35.48,33.134,36.039,33.596L36.039,33.596z"/>
	</g>
</g>
<g>
	<g>
		<path fill="#4B4B4B" d="M21.965,8.121c-0.009,0.936-0.131,1.865-0.14,2.801c-0.007,0.725,1.117,0.725,1.124,0
			c0.009-0.936,0.131-1.865,0.14-2.801C23.096,7.395,21.972,7.396,21.965,8.121L21.965,8.121z"/>
	</g>
</g>
</svg>
