<?xml version="1.0" encoding="utf-8"?>
<!-- Generator: Adobe Illustrator 17.0.0, SVG Export Plug-In . SVG Version: 6.00 Build 0)  -->
<!DOCTYPE svg PUBLIC "-//W3C//DTD SVG 1.1//EN" "http://www.w3.org/Graphics/SVG/1.1/DTD/svg11.dtd">
<svg version="1.1" id="Calque_1" xmlns="http://www.w3.org/2000/svg" xmlns:xlink="http://www.w3.org/1999/xlink" x="0px" y="0px"
	 width="46.64px" height="45.07px" viewBox="0 0 46.64 45.07" enable-background="new 0 0 46.64 45.07" xml:space="preserve">
<g opacity="0.6">
	<path fill="#4B4B4B" d="M9.192,2.577c11.709,4.925,21.199,15.241,30.096,22.766c0,0-20.498,13.844-30.873,16.878
		C7.318,12.41,7.283,12.644,9.192,2.577z"/>
	<g>
		<path fill="#3D3D3D" d="M8.939,3.012c6.386,2.828,11.916,6.875,17.23,11.369c2.422,2.048,4.759,4.198,7.111,6.326
			c1.133,1.025,2.272,2.044,3.415,3.058c0.609,0.54,2.412,1.096,1.971,1.392C31.631,29.86,24.37,34.294,16.83,38.14
			c-2.221,1.133-4.496,2.154-6.83,3.031c-1.925,0.723-1.348-6.206-1.407-7.83c-0.182-5.017-0.37-10.035-0.425-15.055
			C8.11,12.977,8.69,7.919,9.677,2.711c0.12-0.634-0.849-0.904-0.97-0.267C6.212,15.608,7.422,28.899,7.913,42.222
			c0.012,0.316,0.314,0.585,0.637,0.485c11.082-3.452,21.43-10.487,30.993-16.929c0.25-0.168,0.362-0.567,0.102-0.79
			C30.022,16.753,21.211,7.353,9.446,2.143C8.859,1.883,8.347,2.749,8.939,3.012z"/>
	</g>
</g>
<g>
	<path fill="#7D65FB" d="M10.683,6.678c5.184,1.902,12.485,10.186,23.568,16.989c-7.704,3.439-14.981,8.598-22.257,12.037
		l-2.14,1.72C10.708,27.141,9.825,27.197,10.683,6.678z"/>
	<g>
		<path fill="#4B4B4B" d="M10.547,7.173c7.027,2.925,12.769,9.542,18.922,13.954c2.041,1.464,4.515,2.048,1.246,3.665
			c-2.19,1.083-4.308,2.316-6.427,3.529c-3.938,2.256-9.157,4.206-12.658,7.019c-0.639,0.514-1.278,1.027-1.918,1.541
			c1.037-0.834,0.823-1.628,0.906-2.988c0.126-2.075,0.157-4.153,0.163-6.231c0.019-7.001,0.132-13.987,0.415-20.984
			c0.027-0.663-1.001-0.66-1.028,0c-0.414,10.233-0.01,20.536-0.829,30.745c-0.04,0.496,0.566,0.613,0.877,0.363
			c2.984-2.397,6.53-3.925,9.852-5.825c4.766-2.726,9.453-5.539,14.442-7.851c0.368-0.171,0.299-0.699,0-0.888
			c-5.481-3.451-10.489-7.479-15.502-11.565c-2.547-2.076-5.133-4.203-8.19-5.475C10.208,5.928,9.944,6.923,10.547,7.173z"/>
	</g>
</g>
<g>
	<g>
		<path fill="#3D3D3D" d="M8.939,3.012c6.634,3.557,12.604,8.049,18.409,12.819c2.659,2.185,5.258,4.444,7.866,6.689
			c0.535,0.46,2.806,3.088,3.776,2.42c-0.331,0.228-0.665,0.453-0.998,0.678C30.354,30.78,22.446,35.635,14.175,39.72
			c-1.428,0.705-2.886,1.348-4.353,1.966c-1.938,0.815-1.459-0.903-1.459-2.461c0-3.135,0.001-6.27,0.006-9.405
			c0.006-4.337,0.015-8.674,0.115-13.01c0.11-4.781,0.602-9.493,1.212-14.232c0.083-0.642-0.924-0.634-1.006,0
			c-1.726,13.412-1.333,26.898-1.333,40.4c0,0.305,0.325,0.601,0.637,0.485c11.231-4.175,21.712-10.913,31.548-17.684
			c0.247-0.17,0.365-0.566,0.102-0.79C30.019,16.81,20.651,8.15,9.446,2.143C8.875,1.837,8.367,2.705,8.939,3.012z"/>
	</g>
</g>
<g>
	<g>
		<path fill="#3D3D3D" d="M9.37,37.289c-0.309,1.643-1.085,3.158-1.394,4.801c-0.119,0.634,0.85,0.904,0.97,0.267
			c0.309-1.643,1.085-3.158,1.394-4.801C10.458,36.923,9.489,36.652,9.37,37.289L9.37,37.289z"/>
	</g>
</g>
<g>
	<g>
		<path fill="#3D3D3D" d="M33.465,23.947c1.356,0.749,2.832,1.252,4.367,1.466c0.634,0.088,0.907-0.881,0.267-0.97
			c-1.451-0.202-2.844-0.656-4.127-1.365C33.405,22.765,32.897,23.634,33.465,23.947L33.465,23.947z"/>
	</g>
</g>
<g>
	<g>
		<path fill="#3D3D3D" d="M9.167,2.943c0.336,1.177,0.665,2.35,0.69,3.582c0.013,0.648,1.019,0.649,1.006,0
			c-0.026-1.322-0.365-2.586-0.726-3.85C9.96,2.053,8.989,2.318,9.167,2.943L9.167,2.943z"/>
	</g>
</g>
</svg>
