<?xml version="1.0" encoding="utf-8"?>
<!-- Generator: Adobe Illustrator 17.0.0, SVG Export Plug-In . SVG Version: 6.00 Build 0)  -->
<!DOCTYPE svg PUBLIC "-//W3C//DTD SVG 1.1//EN" "http://www.w3.org/Graphics/SVG/1.1/DTD/svg11.dtd">
<svg version="1.1" id="Calque_1" xmlns="http://www.w3.org/2000/svg" xmlns:xlink="http://www.w3.org/1999/xlink" x="0px" y="0px"
	 width="46.64px" height="45.07px" viewBox="0 0 46.64 45.07" enable-background="new 0 0 46.64 45.07" xml:space="preserve">
<g opacity="0.6">
	<path fill="#4B4B4B" d="M37.601,2.577C25.893,7.502,16.402,17.819,7.505,25.344c0,0,20.498,13.844,30.873,16.878
		C39.476,12.41,39.51,12.644,37.601,2.577z"/>
	<g>
		<path fill="#3D3D3D" d="M37.347,2.143C25.582,7.353,16.771,16.753,7.15,24.988c-0.261,0.223-0.148,0.621,0.102,0.79
			c9.562,6.442,19.911,13.477,30.993,16.929c0.323,0.101,0.625-0.169,0.637-0.485c0.491-13.323,1.7-26.614-0.795-39.778
			c-0.121-0.637-1.09-0.366-0.97,0.267c0.937,4.942,1.519,9.743,1.515,14.781c-0.005,4.771-0.208,9.544-0.375,14.312
			c-0.032,0.898-0.546,9.683-0.583,9.672c-2.669-0.832-5.211-2.095-7.709-3.335c-7.475-3.71-14.608-8.193-21.559-12.799
			c-0.202-0.134-0.403-0.268-0.604-0.403c0.979,0.657,2.896-1.704,3.427-2.175c2.74-2.43,5.429-4.915,8.18-7.331
			C25.023,10.5,30.998,6.048,37.855,3.012C38.447,2.749,37.935,1.883,37.347,2.143z"/>
	</g>
</g>
<g>
	<path fill="#7D65FB" d="M35.949,6.896c-5.11,1.875-12.308,10.042-23.234,16.748c7.595,3.39,14.768,8.476,21.941,11.866l2.11,1.695
		C35.925,27.069,36.795,27.124,35.949,6.896z"/>
	<g>
		<path fill="#4B4B4B" d="M35.814,6.407c-3.019,1.257-5.547,3.362-8.073,5.398c-4.966,4.002-9.874,7.996-15.282,11.401
			c-0.295,0.186-0.363,0.707,0,0.875c4.914,2.277,9.556,5.025,14.237,7.739c3.267,1.895,6.767,3.376,9.712,5.743
			c0.307,0.246,0.904,0.131,0.865-0.358c-0.807-10.065-0.409-20.221-0.817-30.309c-0.026-0.651-1.04-0.654-1.013,0
			c0.27,6.668,0.418,13.331,0.409,20.005c-0.002,1.782,0.02,3.562,0.087,5.343c0.04,1.04,0.108,2.08,0.179,3.118
			c-0.194,0.723,0.069,1.159,0.788,1.308c-0.557-0.448-1.114-0.895-1.671-1.343c-2.679-2.152-6.576-3.541-9.578-5.282
			c-2.085-1.209-4.167-2.42-6.269-3.598c-2.142-1.2-6.826-2.049-3.395-4.316c6.745-4.457,12.601-11.63,20.091-14.748
			C36.678,7.137,36.417,6.156,35.814,6.407z"/>
	</g>
</g>
<g>
	<g>
		<path fill="#3D3D3D" d="M37.347,2.143C26.143,8.15,16.775,16.81,7.15,24.988c-0.263,0.224-0.145,0.62,0.102,0.79
			c9.836,6.771,20.317,13.509,31.548,17.684c0.311,0.116,0.637-0.18,0.637-0.485c0-13.501,0.393-26.988-1.333-40.4
			c-0.082-0.634-1.088-0.642-1.006,0c0.61,4.742,1.085,9.45,1.212,14.232c0.104,3.894,0.102,7.791,0.112,11.686
			c0.008,2.991,0.008,5.982,0.008,8.974c0,0.259,0.069,4.811-0.397,4.638c-1.849-0.688-3.637-1.538-5.415-2.388
			c-8.308-3.972-16.184-8.97-23.818-14.102c-1.733-1.165,0.121-0.819,1.522-2.018c2.591-2.217,5.169-4.449,7.776-6.647
			c6.181-5.21,12.617-10.114,19.756-13.941C38.427,2.705,37.919,1.837,37.347,2.143z"/>
	</g>
</g>
<g>
	<g>
		<path fill="#3D3D3D" d="M36.281,37.339c0.331,1.728,1.236,3.291,1.567,5.019c0.122,0.637,1.091,0.366,0.97-0.267
			c-0.331-1.728-1.236-3.291-1.567-5.019C37.129,36.435,36.16,36.705,36.281,37.339L36.281,37.339z"/>
	</g>
</g>
<g>
	<g>
		<path fill="#3D3D3D" d="M36.474,7.423c0.213-1.394,0.59-2.748,0.977-4.102c0.178-0.625-0.792-0.89-0.97-0.267
			c-0.386,1.354-0.764,2.708-0.977,4.102C35.407,7.79,36.376,8.063,36.474,7.423L36.474,7.423z"/>
	</g>
</g>
<g>
	<g>
		<path fill="#3D3D3D" d="M7.998,25.548c1.741-0.58,3.483-1.151,5.273-1.563c0.632-0.145,0.364-1.115-0.267-0.97
			c-1.79,0.412-3.532,0.982-5.273,1.563C7.118,24.782,7.381,25.753,7.998,25.548L7.998,25.548z"/>
	</g>
</g>
</svg>
