<?xml version="1.0" encoding="utf-8"?>
<!-- Generator: Adobe Illustrator 17.0.0, SVG Export Plug-In . SVG Version: 6.00 Build 0)  -->
<!DOCTYPE svg PUBLIC "-//W3C//DTD SVG 1.1//EN" "http://www.w3.org/Graphics/SVG/1.1/DTD/svg11.dtd">
<svg version="1.1" id="Calque_1" xmlns="http://www.w3.org/2000/svg" xmlns:xlink="http://www.w3.org/1999/xlink" x="0px" y="0px"
	 width="46.64px" height="45.07px" viewBox="0 0 46.64 45.07" enable-background="new 0 0 46.64 45.07" xml:space="preserve">
<g opacity="0.6">
	<path fill="#4B4B4B" d="M37.601,2.577C25.893,7.502,16.402,17.819,7.505,25.344c0,0,20.498,13.844,30.873,16.878
		C39.476,12.41,39.51,12.644,37.601,2.577z"/>
	<g>
		<path fill="#3D3D3D" d="M37.347,2.143C25.582,7.353,16.771,16.753,7.15,24.988c-0.261,0.223-0.148,0.621,0.102,0.79
			c9.562,6.442,19.911,13.477,30.993,16.929c0.323,0.101,0.625-0.169,0.637-0.485c0.491-13.323,1.7-26.614-0.795-39.778
			c-0.121-0.637-1.09-0.366-0.97,0.267c0.937,4.942,1.519,9.743,1.515,14.781c-0.005,4.771-0.208,9.544-0.375,14.312
			c-0.032,0.898-0.546,9.683-0.583,9.672c-2.669-0.832-5.211-2.095-7.709-3.335c-7.475-3.71-14.608-8.193-21.559-12.799
			c-0.202-0.134-0.403-0.268-0.604-0.403c0.979,0.657,2.896-1.704,3.427-2.175c2.74-2.43,5.429-4.915,8.18-7.331
			C25.023,10.5,30.998,6.048,37.855,3.012C38.447,2.749,37.935,1.883,37.347,2.143z"/>
	</g>
</g>
<g>
	<path fill="#7D65FB" d="M37.179,4.233C31.508,6.314,23.52,15.377,11.395,22.819c8.429,3.762,16.389,9.406,24.35,13.168l2.341,1.881
		C37.153,26.62,38.118,26.68,37.179,4.233z"/>
	<g>
		<path fill="#4B4B4B" d="M37.03,3.69c-3.409,1.405-6.266,3.814-9.109,6.111c-5.456,4.408-10.86,8.793-16.81,12.531
			c-0.327,0.206-0.403,0.785,0,0.971c5.306,2.448,10.322,5.409,15.369,8.34c3.759,2.183,7.819,3.899,11.208,6.621
			c0.34,0.273,1.003,0.145,0.96-0.398c-0.898-11.169-0.453-22.441-0.907-33.636c-0.029-0.723-1.154-0.725-1.124,0
			c0.303,7.483,0.46,14.959,0.454,22.448c-0.002,2.036,0.029,4.07,0.116,6.104c0.058,1.375,0.157,2.748,0.26,4.12
			c0.982,0.535,1.053,0.503,0.213-0.096c-0.506-0.406-1.011-0.813-1.517-1.219c-3.356-2.696-8.352-4.481-12.113-6.672
			c-2.529-1.474-5.073-2.915-7.656-4.294c-3.727-1.99-3.685-1.883-0.157-4.295c6.998-4.786,13.229-12.305,21.112-15.554
			C37.989,4.502,37.7,3.414,37.03,3.69z"/>
	</g>
</g>
<g>
	<g>
		<path fill="#3D3D3D" d="M37.347,2.143C26.143,8.15,16.775,16.81,7.15,24.988c-0.263,0.224-0.145,0.62,0.102,0.79
			c9.836,6.771,20.317,13.509,31.548,17.684c0.311,0.116,0.637-0.18,0.637-0.485c0-13.501,0.393-26.988-1.333-40.4
			c-0.082-0.634-1.088-0.642-1.006,0c0.61,4.742,1.085,9.45,1.212,14.232c0.104,3.894,0.102,7.791,0.112,11.686
			c0.008,2.991,0.008,5.982,0.008,8.974c0,0.259,0.069,4.811-0.397,4.638c-1.849-0.688-3.637-1.538-5.415-2.388
			c-8.308-3.972-16.184-8.97-23.818-14.102c-1.733-1.165,0.121-0.819,1.522-2.018c2.591-2.217,5.169-4.449,7.776-6.647
			c6.181-5.21,12.617-10.114,19.756-13.941C38.427,2.705,37.919,1.837,37.347,2.143z"/>
	</g>
</g>
<g>
	<g>
		<path fill="#3D3D3D" d="M37.179,38.326c0.223,1.344,0.446,2.688,0.669,4.032c0.106,0.639,1.075,0.367,0.97-0.267
			c-0.223-1.344-0.446-2.688-0.669-4.032C38.042,37.42,37.073,37.692,37.179,38.326L37.179,38.326z"/>
	</g>
</g>
</svg>
