<?xml version="1.0" encoding="utf-8"?>
<!-- Generator: Adobe Illustrator 17.0.0, SVG Export Plug-In . SVG Version: 6.00 Build 0)  -->
<!DOCTYPE svg PUBLIC "-//W3C//DTD SVG 1.1//EN" "http://www.w3.org/Graphics/SVG/1.1/DTD/svg11.dtd">
<svg version="1.1" id="Calque_1" xmlns="http://www.w3.org/2000/svg" xmlns:xlink="http://www.w3.org/1999/xlink" x="0px" y="0px"
	 width="46.64px" height="45.07px" viewBox="0 0 46.64 45.07" enable-background="new 0 0 46.64 45.07" xml:space="preserve">
<g opacity="0.6">
	<path fill="#4B4B4B" d="M3.208,8.192c4.903,11.759,15.175,21.291,22.668,30.226c0,0,13.784-20.587,16.805-31.007
		C12.998,6.309,13.23,6.274,3.208,8.192z"/>
	<g>
		<path fill="#3D3D3D" d="M2.773,8.446C7.952,20.243,17.315,29.104,25.52,38.774c0.222,0.261,0.623,0.148,0.79-0.102
			c6.421-9.614,13.422-20.007,16.856-31.127c0.1-0.323-0.168-0.625-0.485-0.637C29.414,6.416,16.18,5.201,3.074,7.707
			c-0.637,0.122-0.366,1.091,0.267,0.97c4.921-0.941,9.699-1.526,14.717-1.521c4.751,0.005,9.503,0.209,14.25,0.377
			c0.893,0.032,9.643,0.538,9.628,0.589c-0.828,2.681-2.085,5.232-3.321,7.743c-3.692,7.503-8.156,14.669-12.744,21.652
			c-0.133,0.203-0.267,0.404-0.401,0.606c0.657-0.987-1.687-2.901-2.162-3.442c-2.419-2.751-4.894-5.453-7.3-8.216
			C11.09,20.818,6.662,14.818,3.642,7.938C3.382,7.345,2.515,7.858,2.773,8.446z"/>
	</g>
</g>
<g>
	<path fill="#7D65FB" d="M7.969,9.822c1.897,5.214,10.157,12.557,16.939,23.704c3.429-7.749,8.573-15.067,12.002-22.385l1.715-2.152
		C28.372,9.846,28.427,8.959,7.969,9.822z"/>
	<g>
		<path fill="#4B4B4B" d="M7.472,9.958c1.269,3.076,3.4,5.657,5.46,8.236c4.049,5.068,8.089,10.078,11.531,15.591
			c0.187,0.3,0.72,0.368,0.889,0c2.302-5.011,5.082-9.749,7.828-14.525c1.916-3.333,3.412-6.901,5.808-9.909
			c0.248-0.312,0.134-0.919-0.364-0.879C28.445,9.296,18.171,8.891,7.969,9.307c-0.661,0.027-0.664,1.056,0,1.029
			c6.745-0.275,13.484-0.426,20.233-0.417c1.802,0.002,3.603-0.02,5.404-0.089c1.052-0.04,2.103-0.111,3.154-0.182
			c0.733,0.196,1.173-0.071,1.322-0.8c-0.453,0.568-0.905,1.136-1.358,1.705c-2.181,2.738-3.581,6.707-5.342,9.771
			c-1.223,2.127-2.448,4.251-3.639,6.396c-1.208,2.175-2.066,6.967-4.362,3.464C18.873,23.302,11.614,17.317,8.465,9.685
			C8.215,9.08,7.219,9.345,7.472,9.958z"/>
	</g>
</g>
<g>
	<g>
		<path fill="#3D3D3D" d="M2.773,8.446C8.747,19.685,17.373,29.102,25.52,38.774c0.222,0.264,0.621,0.145,0.79-0.102
			c6.747-9.887,13.454-20.416,17.608-31.685c0.115-0.311-0.179-0.637-0.485-0.637c-13.444,0-26.872-0.395-40.225,1.338
			c-0.634,0.082-0.642,1.089,0,1.006c4.611-0.599,9.191-1.075,13.841-1.209c3.901-0.112,7.807-0.11,11.709-0.121
			c3.026-0.009,6.051-0.008,9.077-0.009c0.265,0,4.902-0.067,4.73,0.401c-0.684,1.857-1.531,3.653-2.378,5.439
			c-3.952,8.339-8.929,16.251-14.041,23.921c-1.162,1.743-0.813-0.123-2.006-1.528c-2.208-2.602-4.43-5.191-6.618-7.81
			C12.33,21.568,7.449,15.102,3.642,7.938C3.337,7.365,2.469,7.873,2.773,8.446z"/>
	</g>
</g>
<g>
	<g>
		<path fill="#3D3D3D" d="M4.361,9.024c0.487,0.041,1.039,0.405,1.48,0.596c0.643,0.28,1.299,0.566,1.994,0.686
			c0.634,0.11,0.906-0.86,0.267-0.97C7.368,9.21,6.679,8.897,6,8.6C5.481,8.372,4.935,8.066,4.361,8.018
			C3.715,7.964,3.72,8.97,4.361,9.024L4.361,9.024z"/>
	</g>
</g>
<g>
	<g>
		<path fill="#3D3D3D" d="M38.624,9.491c0.62-0.042,1.184-0.367,1.72-0.656c0.588-0.317,1.333-0.917,2.019-0.963
			c0.644-0.043,0.648-1.05,0-1.006c-0.62,0.042-1.184,0.367-1.72,0.656c-0.588,0.317-1.333,0.917-2.019,0.963
			C37.98,8.529,37.976,9.535,38.624,9.491L38.624,9.491z"/>
	</g>
</g>
<g>
	<g>
		<path fill="#3D3D3D" d="M24.235,31.849c0.547,1.888,0.676,3.798,0.556,5.752c-0.04,0.648,0.966,0.644,1.006,0
			c0.125-2.041-0.022-4.051-0.592-6.02C25.025,30.959,24.055,31.224,24.235,31.849L24.235,31.849z"/>
	</g>
</g>
</svg>
