<?xml version="1.0" encoding="utf-8"?>
<!-- Generator: Adobe Illustrator 17.0.0, SVG Export Plug-In . SVG Version: 6.00 Build 0)  -->
<!DOCTYPE svg PUBLIC "-//W3C//DTD SVG 1.1//EN" "http://www.w3.org/Graphics/SVG/1.1/DTD/svg11.dtd">
<svg version="1.1" id="Calque_1" xmlns="http://www.w3.org/2000/svg" xmlns:xlink="http://www.w3.org/1999/xlink" x="0px" y="0px"
	 width="46.64px" height="45.07px" viewBox="0 0 46.64 45.07" enable-background="new 0 0 46.64 45.07" xml:space="preserve">
<g opacity="0.6">
	<path fill="#4B4B4B" d="M9.192,2.577c11.709,4.925,21.199,15.241,30.096,22.766c0,0-20.498,13.844-30.873,16.878
		C7.318,12.41,7.283,12.644,9.192,2.577z"/>
	<g>
		<path fill="#3D3D3D" d="M8.939,3.012c6.386,2.828,11.916,6.875,17.23,11.369c2.422,2.048,4.759,4.198,7.111,6.326
			c1.133,1.025,2.272,2.044,3.415,3.058c0.609,0.54,2.412,1.096,1.971,1.392C31.631,29.86,24.37,34.294,16.83,38.14
			c-2.221,1.133-4.496,2.154-6.83,3.031c-1.925,0.723-1.348-6.206-1.407-7.83c-0.182-5.017-0.37-10.035-0.425-15.055
			C8.11,12.977,8.69,7.919,9.677,2.711c0.12-0.634-0.849-0.904-0.97-0.267C6.212,15.608,7.422,28.899,7.913,42.222
			c0.012,0.316,0.314,0.585,0.637,0.485c11.082-3.452,21.43-10.487,30.993-16.929c0.25-0.168,0.362-0.567,0.102-0.79
			C30.022,16.753,21.211,7.353,9.446,2.143C8.859,1.883,8.347,2.749,8.939,3.012z"/>
	</g>
</g>
<g>
	<path fill="#7D65FB" d="M9.614,4.233c5.671,2.081,13.659,11.144,25.784,18.586c-8.429,3.762-16.389,9.406-24.35,13.168
		l-2.341,1.881C9.641,26.62,8.676,26.68,9.614,4.233z"/>
	<g>
		<path fill="#4B4B4B" d="M9.465,4.775c7.821,3.223,14.247,10.686,21.112,15.554c1.937,1.373,4.548,1.956,1.398,3.497
			c-2.625,1.284-5.161,2.756-7.693,4.212c-2.516,1.445-5.013,2.921-7.539,4.349c-1.876,1.061-4.428,1.867-6.091,3.204
			c-0.699,0.562-1.399,1.124-2.098,1.686c1.169-0.94,0.927-2.148,1.017-3.743c0.128-2.282,0.151-4.567,0.153-6.852
			c0.006-7.489,0.15-14.964,0.454-22.448c0.029-0.725-1.095-0.723-1.124,0C8.598,15.427,9.043,26.699,8.145,37.868
			c-0.044,0.543,0.62,0.671,0.96,0.398c3.385-2.72,7.443-4.456,11.208-6.621c5.062-2.911,10.06-5.891,15.369-8.34
			c0.403-0.186,0.327-0.765,0-0.971c-5.945-3.736-11.377-8.1-16.81-12.531c-2.828-2.307-5.706-4.709-9.109-6.111
			C9.093,3.414,8.804,4.502,9.465,4.775z"/>
	</g>
</g>
<g>
	<g>
		<path fill="#3D3D3D" d="M8.939,3.012c6.634,3.557,12.604,8.049,18.409,12.819c2.659,2.185,5.258,4.444,7.866,6.689
			c0.535,0.46,2.806,3.088,3.776,2.42c-0.331,0.228-0.665,0.453-0.998,0.678C30.354,30.78,22.446,35.635,14.175,39.72
			c-1.428,0.705-2.886,1.348-4.353,1.966c-1.938,0.815-1.459-0.903-1.459-2.461c0-3.135,0.001-6.27,0.006-9.405
			c0.006-4.337,0.015-8.674,0.115-13.01c0.11-4.781,0.602-9.493,1.212-14.232c0.083-0.642-0.924-0.634-1.006,0
			c-1.726,13.412-1.333,26.898-1.333,40.4c0,0.305,0.325,0.601,0.637,0.485c11.231-4.175,21.712-10.913,31.548-17.684
			c0.247-0.17,0.365-0.566,0.102-0.79C30.019,16.81,20.651,8.15,9.446,2.143C8.875,1.837,8.367,2.705,8.939,3.012z"/>
	</g>
</g>
<g>
	<g>
		<path fill="#3D3D3D" d="M8.645,38.059c-0.223,1.344-0.446,2.688-0.669,4.032c-0.105,0.634,0.864,0.906,0.97,0.267
			c0.223-1.344,0.446-2.688,0.669-4.032C9.72,37.692,8.751,37.42,8.645,38.059L8.645,38.059z"/>
	</g>
</g>
</svg>
