<?xml version="1.0" encoding="utf-8"?>
<!-- Generator: Adobe Illustrator 17.0.0, SVG Export Plug-In . SVG Version: 6.00 Build 0)  -->
<!DOCTYPE svg PUBLIC "-//W3C//DTD SVG 1.1//EN" "http://www.w3.org/Graphics/SVG/1.1/DTD/svg11.dtd" [
	<!ENTITY st0 "fill:#3D3D3D;">
	<!ENTITY st1 "opacity:0.6;">
	<!ENTITY st2 "fill:#4B4B4B;">
	<!ENTITY st3 "fill:#FD4F52;">
]>
<svg version="1.1" id="Calque_1" xmlns="http://www.w3.org/2000/svg" xmlns:xlink="http://www.w3.org/1999/xlink" x="0px" y="0px"
	 width="72px" height="34px" viewBox="0 0 72 34" style="enable-background:new 0 0 72 34;" xml:space="preserve">
<g>
	<g>
		<path style="&st0;" d="M3.115,25.244c13.429,9.163,33.371,9.254,48.644,5.852c3.919-0.873,7.706-2.261,11.285-4.071
			c1.459-0.738,6.595-3.226,6.595-5.252c0-4.493-7.275-6.622-11.039-6.954c-12.317-1.086-24.633-2.171-36.95-3.257
			c-1.944-0.171-7.449-1.742-9.177-0.355c-3.909,3.139-6.878,8.261-9.816,12.288c-0.973,1.334,1.246,2.606,2.206,1.29
			c2.784-3.816,5.542-7.752,8.779-11.201c0.821-0.875-0.538-0.22-0.022-0.175c0.469,0.041,0.938,0.083,1.407,0.124
			c1.708,0.151,3.416,0.301,5.124,0.452c11.108,0.979,22.217,1.958,33.325,2.937c3.681,0.324,7.2,0.232,10.5,2.084
			c2.999,1.684,3.704,1.848,1.397,3.584c-1.426,1.074-3.015,1.922-4.603,2.725c-3.417,1.729-7.181,2.757-10.903,3.586
			c-14.187,3.159-33.077,2.587-45.463-5.865C3.04,22.106,1.763,24.321,3.115,25.244z"/>
	</g>
</g>
<g style="&st1;">
	<path style="&st2;" d="M3.787,24.141C18.05,34.296,54.415,34.86,68.415,21.773v-0.939c-2-1.975-5.061-4.31-8.137-4.592
		l-46.875-4.132C11.725,13.24,3.787,24.141,3.787,24.141z"/>
	<g>
		<path style="&st0;" d="M3.115,25.244c13.429,9.163,33.371,9.254,48.644,5.852c3.919-0.873,7.706-2.261,11.285-4.071
			c1.459-0.738,6.595-3.226,6.595-5.252c0-4.493-7.275-6.622-11.039-6.954c-12.317-1.086-24.633-2.171-36.95-3.257
			c-1.944-0.171-7.449-1.742-9.177-0.355c-3.909,3.139-6.878,8.261-9.816,12.288c-0.973,1.334,1.246,2.606,2.206,1.29
			c2.784-3.816,5.542-7.752,8.779-11.201c0.821-0.875-0.538-0.22-0.022-0.175c0.469,0.041,0.938,0.083,1.407,0.124
			c1.708,0.151,3.416,0.301,5.124,0.452c11.108,0.979,22.217,1.958,33.325,2.937c3.681,0.324,7.2,0.232,10.5,2.084
			c2.999,1.684,3.704,1.848,1.397,3.584c-1.426,1.074-3.015,1.922-4.603,2.725c-3.417,1.729-7.181,2.757-10.903,3.586
			c-14.187,3.159-33.077,2.587-45.463-5.865C3.04,22.106,1.763,24.321,3.115,25.244z"/>
	</g>
</g>
<g>
	<path style="&st3;" d="M13.028,13.155C11.957,17.477,10.309,20,10.309,24h1.071c18.629,7,34.772,3.813,50.433-2.194
		c-2.143-3.242-3.422-1.37-3.422-5.692"/>
	<g>
		<path style="&st0;" d="M11.797,12.782c-1.061,3.769-2.55,7.202-2.765,11.152c-0.038,0.696,0.61,1.278,1.278,1.278
			c1.995,0,4.328,1.202,6.248,1.77c2.339,0.692,4.742,1.138,7.144,1.541c4.075,0.683,8.221,0.783,12.34,0.619
			c8.985-0.358,17.757-2.987,26.112-6.137c0.685-0.258,1.307-1.165,0.764-1.877c-1.289-1.688-3.144-2.682-3.247-5.047
			c-0.072-1.641-2.627-1.648-2.555,0c0.159,3.63,1.54,3.644,3.596,6.337c0.255-0.626,0.509-1.251,0.764-1.877
			c-8.241,3.107-16.61,5.452-25.433,6.045c-5.099,0.343-10.206-0.182-15.204-1.177c-3.466-0.69-7.025-2.752-10.528-2.752
			c0.426,0.426,0.852,0.852,1.278,1.278c0.203-3.721,1.678-6.936,2.674-10.473C14.708,11.873,12.242,11.199,11.797,12.782
			L11.797,12.782z"/>
	</g>
</g>
<g>
	<path style="&st3;" d="M31.948,2.356C15.591,4.672,19.456,9.881,13.028,13.122c13.927,8.644,33.21,9.684,46.065-0.041
		C50.349,2.356,49.122,4.672,31.948,2.356z"/>
	<g>
		<path style="&st0;" d="M31.608,1.124c-4.291,0.667-9.375,1.449-12.776,4.453c-2.35,2.076-3.613,4.888-6.448,6.442
			c-0.854,0.468-0.804,1.726,0,2.206c14.371,8.583,33.335,10.06,47.355-0.041c0.71-0.511,0.816-1.331,0.259-2.007
			c-3.005-3.641-6.073-7.145-10.635-8.74c-5.384-1.882-11.817-1.63-17.414-2.36c-1.63-0.212-1.61,2.345,0,2.555
			c5.3,0.691,10.852,0.763,16.048,2.065c4.42,1.107,7.431,4.938,10.194,8.286c0.086-0.669,0.172-1.338,0.259-2.007
			c-13.318,9.595-31.122,8.196-44.775,0.041c0,0.735,0,1.471,0,2.206c2.177-1.193,3.589-2.831,5.043-4.795
			c3.133-4.232,8.697-5.084,13.571-5.842C33.912,3.336,33.22,0.874,31.608,1.124z"/>
	</g>
</g>
<g>
	<g>
		<g>
			<path style="&st2;" d="M45.068,15.031c-0.002-2.775-0.014-5.547-0.273-8.313c-0.037-0.39-0.299-0.719-0.719-0.719
				c-5.193,0-10.386,0-15.579,0c-0.393,0-0.717,0.327-0.719,0.719c-0.012,2.765-0.097,5.528-0.109,8.293
				c-0.003,0.663,0.768,0.903,1.227,0.508c0.748-0.644,5.341,0.021,6.504,0.023c2.985,0.004,5.968,0.076,8.95,0.207
				c0.927,0.041,0.923-1.397,0-1.437c-3.343-0.148-6.684-0.204-10.03-0.209c-1.681-0.002-5.104-0.749-6.44,0.4
				c0.409,0.169,0.818,0.339,1.227,0.508c0.012-2.765,0.097-5.528,0.109-8.293c-0.24,0.24-0.479,0.479-0.719,0.719
				c5.193,0,10.386,0,15.579,0c-0.24-0.24-0.479-0.479-0.719-0.719c0.259,2.765,0.272,5.537,0.273,8.313
				C43.631,15.957,45.068,15.957,45.068,15.031z"/>
		</g>
	</g>
	<g>
		<g>
			<path style="&st2;" d="M44.825,7.089c-0.005-0.019-0.01-0.037-0.014-0.056c-0.078-0.305-0.378-0.534-0.693-0.528
				c-2.154,0.041-4.856,1.943-6.694,2.907c-1.504,0.789-1.654,0.156-3.387-0.668c-1.709-0.812-3.469-1.515-5.177-2.33
				c-0.832-0.397-1.562,0.842-0.725,1.241c2.643,1.261,5.454,2.237,7.953,3.782c0.206,0.127,0.521,0.139,0.725,0
				c1.086-0.74,2.308-1.294,3.486-1.869c0.739-0.36,1.487-0.7,2.238-1.034c0.372-0.165,0.749-0.319,1.131-0.459
				c0.51-0.072,0.434-0.274-0.228-0.605C43.669,8.368,45.056,7.987,44.825,7.089L44.825,7.089z"/>
		</g>
	</g>
</g>
</svg>
