<?xml version="1.0" encoding="utf-8"?>
<!-- Generator: Adobe Illustrator 17.0.0, SVG Export Plug-In . SVG Version: 6.00 Build 0)  -->
<!DOCTYPE svg PUBLIC "-//W3C//DTD SVG 1.1//EN" "http://www.w3.org/Graphics/SVG/1.1/DTD/svg11.dtd" [
	<!ENTITY st0 "opacity:0.6;">
	<!ENTITY st1 "fill:#F2F2F2;">
	<!ENTITY st2 "fill:#3D3D3D;">
	<!ENTITY st3 "fill:#4B4B4B;">
	<!ENTITY st4 "fill:#0B1628;">
	<!ENTITY st5 "fill:#00BCA5;">
]>
<svg version="1.1" id="Calque_1" xmlns="http://www.w3.org/2000/svg" xmlns:xlink="http://www.w3.org/1999/xlink" x="0px" y="0px"
	 width="72px" height="53.975px" viewBox="0 0 72 53.975" style="enable-background:new 0 0 72 53.975;" xml:space="preserve">
<g>
	<g style="&st0;">
		<path style="&st1;" d="M67.822,49.891C41.568,49.891,30,48.881,3,50.901v-3.029C3,34.745,4.188,17.579,3.178,3.442
			C26.402,3.442,43,4.452,68,2.432v1.01C69,16.569,66.812,37.774,67.822,49.891z"/>
		<g>
			<path style="&st2;" d="M67.953,49.126c-18.479-0.017-36.941-0.632-55.406,0.387c-2.433,0.134-4.865,0.304-7.296,0.477
				c-1.009,0.951-1.401,0.899-1.178-0.155c0-0.549,0-1.099,0-1.648c0-4.459,0.1-8.916,0.199-13.373
				c0.118-5.298,0.229-10.595,0.25-15.895C4.529,17.237,3.581,4.208,5.128,4.21C24.792,4.231,44.399,4.826,64.04,3.492
				c2.533-0.172,3.056-1.378,3.233,1.204c0.124,1.805,0.155,3.617,0.189,5.426c0.085,4.582-0.055,9.17-0.181,13.751
				c-0.24,8.658-0.733,17.367-0.093,26.019c0.072,0.978,1.604,0.985,1.531,0c-0.601-8.123-0.194-16.302,0.047-24.432
				c0.229-7.697-0.047-15.342-0.047-23.026c0-0.393-0.349-0.798-0.765-0.765c-21.55,1.672-43.058,1.034-64.644,1.01
				c-0.397,0-0.793,0.349-0.765,0.765c1.035,15.799,0,31.644,0,47.458c0,0.394,0.349,0.797,0.765,0.765
				c21.559-1.618,43.051-1.03,64.644-1.01C68.94,50.657,68.94,49.126,67.953,49.126z"/>
		</g>
	</g>
	<g>
		<g>
			<path style="&st2;" d="M67.953,49.126c-18.479-0.017-36.941-0.632-55.406,0.387c-2.433,0.134-4.865,0.304-7.296,0.477
				c-1.009,0.951-1.401,0.899-1.178-0.155c0-0.549,0-1.099,0-1.648c0-4.459,0.1-8.916,0.199-13.373
				c0.118-5.298,0.229-10.595,0.25-15.895C4.529,17.237,3.581,4.208,5.128,4.21C24.792,4.231,44.399,4.826,64.04,3.492
				c2.533-0.172,3.056-1.378,3.233,1.204c0.124,1.805,0.155,3.617,0.189,5.426c0.085,4.582-0.055,9.17-0.181,13.751
				c-0.24,8.658-0.733,17.367-0.093,26.019c0.072,0.978,1.604,0.985,1.531,0c-0.601-8.123-0.194-16.302,0.047-24.432
				c0.229-7.697-0.047-15.342-0.047-23.026c0-0.393-0.349-0.798-0.765-0.765c-21.55,1.672-43.058,1.034-64.644,1.01
				c-0.397,0-0.793,0.349-0.765,0.765c1.035,15.799,0,31.644,0,47.458c0,0.394,0.349,0.797,0.765,0.765
				c21.559-1.618,43.051-1.03,64.644-1.01C68.94,50.657,68.94,49.126,67.953,49.126z"/>
		</g>
	</g>
	<g>
		<g>
			<path style="&st3;" d="M9.605,11.932c2.195,0,2.195-3.404,0-3.404S7.41,11.932,9.605,11.932L9.605,11.932z"/>
		</g>
	</g>
	<g>
		<g>
			<path style="&st3;" d="M63.122,11.932c2.195,0,2.195-3.404,0-3.404S60.927,11.932,63.122,11.932L63.122,11.932z"/>
		</g>
	</g>
	<g>
		<g>
			<path style="&st3;" d="M62.112,45.705c2.195,0,2.195-3.404,0-3.404C59.917,42.301,59.917,45.705,62.112,45.705L62.112,45.705z"/>
		</g>
	</g>
	<g>
		<g>
			<g>
				<path style="&st4;" d="M27.912,31.342c2.144-1.139,4.398-1.139,6.543,0c0.573,0.304,1.081-0.565,0.508-0.869
					c-2.469-1.311-5.09-1.311-7.559,0C26.831,30.777,27.339,31.646,27.912,31.342L27.912,31.342z"/>
			</g>
		</g>
		<g>
			<g>
				<g>
					<path style="&st4;" d="M38.372,28.664c0.039,1.04,0.652,1.596,1.531,2.037c0.578,0.29,1.088-0.578,0.508-0.869
						c-0.534-0.268-1.008-0.507-1.033-1.168C39.354,28.017,38.347,28.014,38.372,28.664L38.372,28.664z"/>
				</g>
			</g>
			<g>
				<g>
					<path style="&st4;" d="M40.291,30.751c0.959-0.213,4.646-1.878,5.15-0.351c0.202,0.613,1.175,0.351,0.971-0.268
						c-0.857-2.597-4.767-0.712-6.388-0.351C39.39,29.922,39.658,30.892,40.291,30.751L40.291,30.751z"/>
				</g>
			</g>
		</g>
		<g>
			<g>
				<path style="&st4;" d="M28.062,34.095c1.912-0.566,3.845,0.01,5.142,1.522c0.265,0.308,0.707-0.139,0.445-0.445
					c-1.436-1.674-3.643-2.308-5.754-1.683C27.507,33.603,27.672,34.21,28.062,34.095L28.062,34.095z"/>
			</g>
		</g>
		<g>
			<g>
				<path style="&st5;" d="M39.048,34.699c0.764,3.516,6.893,2.835,7.196-0.599c0.187-2.121-1.646-3.891-3.719-3.775
					C40.303,30.448,38.616,32.531,39.048,34.699c0.052,0.26,0.449,0.15,0.397-0.11c-0.417-2.09,1.31-3.754,3.322-3.866
					c1.854-0.103,3.434,1.9,3,3.677c-0.672,2.749-5.685,3.122-6.322,0.19C39.389,34.33,38.992,34.44,39.048,34.699L39.048,34.699z"
					/>
			</g>
		</g>
		<g>
			<g>
				<path style="&st5;" d="M46.044,32.46c0.118,2.433,0.12,4.869,0.12,7.304c0,0.266,0.412,0.266,0.412,0
					c0-2.435-0.002-4.871-0.12-7.304C46.443,32.196,46.031,32.194,46.044,32.46L46.044,32.46z"/>
			</g>
		</g>
		<g>
			<g>
				<path style="&st4;" d="M30.19,35.751c0.96-0.556,1.934-0.504,2.905,0c0.235,0.122,0.444-0.233,0.208-0.356
					c-1.103-0.572-2.23-0.632-3.321,0C29.752,35.528,29.96,35.884,30.19,35.751L30.19,35.751z"/>
			</g>
		</g>
		<g>
			<g>
				<path style="&st4;" d="M43.686,34.051c0-0.04,0-0.08,0-0.12c0-1.785-2.768-1.785-2.768,0c0,0.04,0,0.08,0,0.12
					C40.918,35.836,43.686,35.836,43.686,34.051L43.686,34.051z"/>
			</g>
		</g>
		<g>
			<g>
				<path style="&st4;" d="M23.651,32.221c-0.795-9.301,23.945-11.998,26.304-3.425c0.215,0.781,1.429,0.449,1.213-0.334
					c-2.756-10.017-29.706-7.133-28.775,3.759C22.461,33.023,23.72,33.029,23.651,32.221L23.651,32.221z"/>
			</g>
		</g>
		<g>
			<g>
				<path style="&st4;" d="M23.1,31.558c-6.074-3.779,0.447-7.367,2.89-8.684c2.815-1.517,5.917-1.952,9.073-2.123
					c3.859-0.209,18.966-0.44,15.433,6.962c-0.348,0.728,0.737,1.367,1.086,0.635c4.892-10.25-14.257-9.204-19.804-8.583
					c-5.776,0.646-18.213,7.343-9.314,12.88C23.155,33.074,23.787,31.985,23.1,31.558L23.1,31.558z"/>
			</g>
		</g>
		<g>
			<g>
				<path style="&st4;" d="M51.245,28.594c1.896-1.618,2.688-3.766,0.832-5.742c-1.67-1.778-4.556-2.57-6.904-2.756
					c-0.809-0.064-0.803,1.194,0,1.258c1.835,0.145,3.651,0.741,5.203,1.729c2.129,1.355,1.732,3.125-0.021,4.621
					C49.737,28.232,50.632,29.118,51.245,28.594L51.245,28.594z"/>
			</g>
		</g>
		<g>
			<g>
				<path style="&st4;" d="M47.448,21.115c1.565,0.186,3.1,0.868,4.077,2.142c1.209,1.577,0.208,3.196-1.161,4.229
					c-0.639,0.482-0.013,1.575,0.635,1.086c1.666-1.257,3.076-3.252,1.953-5.37c-1.088-2.054-3.276-3.081-5.504-3.345
					C46.643,19.762,46.652,21.021,47.448,21.115L47.448,21.115z"/>
			</g>
		</g>
		<g>
			<g>
				<path style="&st4;" d="M50.998,28.812c1.757-1.339,3.27-3.091,2.216-5.351c-0.95-2.037-3.744-3.077-5.718-3.702
					c-0.776-0.245-1.105,0.969-0.334,1.213c1.534,0.485,3.039,1.128,4.25,2.213c1.799,1.611,0.501,3.36-1.048,4.54
					C49.727,28.211,50.352,29.304,50.998,28.812L50.998,28.812z"/>
			</g>
		</g>
		<g>
			<g>
				<path style="&st4;" d="M46.762,20.665c1.338,0.572,2.671,1.147,3.898,1.938c1.935,1.246,2.022,2.716,0.304,4.252
					c-0.622,0.556,0.295,1.467,0.914,0.914c1.426-1.275,2.413-3.086,1.078-4.811c-1.34-1.732-3.593-2.574-5.542-3.408
					C46.657,19.225,45.998,20.338,46.762,20.665L46.762,20.665z"/>
			</g>
		</g>
		<g>
			<g>
				<path style="&st4;" d="M23.684,31.58c4.399-7.38,20.078-8.905,26.192-3.106c0.588,0.558,1.479-0.33,0.89-0.89
					c-6.722-6.376-23.313-4.785-28.168,3.36C22.182,31.644,23.27,32.276,23.684,31.58L23.684,31.58z"/>
			</g>
		</g>
		<g>
			<g>
				<path style="&st4;" d="M26.182,27.319c5.082-2.036,10.327-2.832,15.758-3.33c0.799-0.073,0.821-1.222,0-1.258
					c-6.112-0.269-11.649,1.977-16.721,5.235c0.308,0.237,0.616,0.474,0.924,0.71c0.136-0.949,0.296-2.401,0.479-3.233
					c0.142-0.645-0.569-1.007-1.051-0.612c-1.107,0.906-2.113,1.737-2.993,2.874c0.35,0.093,0.701,0.185,1.051,0.278
					c-0.072-0.583-0.145-1.166-0.217-1.749c-0.052-0.669-1.082-0.902-1.236-0.167c-0.212,1.015-0.229,1.079-0.262,2.083
					c0.391-0.106,0.782-0.212,1.172-0.318c-0.374-0.584-0.584-1.047-1.056-1.564c-0.253-0.277-0.826-0.239-0.988,0.127
					c-0.318,0.721-0.318,1.83,0,2.551c0.29,0.657,1.365,0.186,1.15-0.485c-0.221-0.688-0.448-1.365-0.718-2.036
					c-0.296-0.734-1.417-0.472-1.213,0.334c0.183,0.724,0.394,1.437,0.599,2.155c0.19,0.667,1.282,0.557,1.236-0.167
					c-0.035-0.545-0.061-0.684-0.325-1.156c-0.133-0.237-0.448-0.375-0.71-0.289c-0.136,0.044-0.272,0.089-0.408,0.133
					c-0.194,0.063-0.403,0.222-0.439,0.439c-0.097,0.581-0.112,0.789,0.33,1.197c0.595,0.549,1.487-0.338,0.89-0.89
					c-0.198,0.188-0.397,0.376-0.595,0.565c0.412-0.056,0.824-0.111,1.236-0.167c-0.204-0.718-0.416-1.432-0.599-2.155
					c-0.404,0.111-0.809,0.223-1.213,0.334c0.27,0.67,0.498,1.347,0.718,2.036c0.383-0.162,0.767-0.323,1.15-0.485
					c0-0.319-0.001-0.639,0-0.958c-0.442,0.4-0.485,0.772-0.128,1.114c0.339,0.529,1.151,0.317,1.172-0.318
					c0.072-0.583,0.145-1.166,0.217-1.749c-0.412-0.056-0.824-0.111-1.236-0.167c0.066,0.844,0.118,1.247,0.262,2.083
					c0.075,0.439,0.771,0.64,1.051,0.278c0.88-1.137,1.887-1.968,2.993-2.874c-0.35-0.204-0.701-0.408-1.051-0.612
					c-0.31,1.415-0.233,1.518-0.479,3.233c-0.071,0.498,0.407,1.043,0.924,0.71c4.896-3.145,10.178-5.323,16.086-5.063
					c0-0.419,0-0.839,0-1.258c-5.525,0.507-10.911,1.299-16.092,3.375C25.104,26.404,25.428,27.621,26.182,27.319L26.182,27.319z"/>
			</g>
		</g>
		<g>
			<g>
				<path style="&st4;" d="M20.635,29.299c-1.618-3.863,4.981-5.915,7.583-6.889c0.753-0.282,0.427-1.498-0.334-1.213
					c-3.247,1.215-10.458,3.671-8.462,8.437C19.73,30.371,20.948,30.047,20.635,29.299L20.635,29.299z"/>
			</g>
		</g>
		<g>
			<g>
				<path style="&st4;" d="M19.724,28.826c0.84,1.172,0.8,1.139,1.775,2.163c0.457,0.48,1.178-0.023,1.051-0.612
					c-0.12-0.559-0.239-1.118-0.359-1.676c-0.383,0.162-0.767,0.323-1.15,0.485c0.225,0.345,0.425,0.704,0.599,1.078
					c0.317,0.619,1.102,0.241,1.172-0.318c0.04-0.319,0.08-0.639,0.12-0.958c0.043-0.341-0.318-0.629-0.629-0.629
					c-0.04,0-0.08,0-0.12,0c-0.343,0-0.629,0.286-0.629,0.629c0,0.16,0,0.319,0,0.479c0,0.728,1.021,0.834,1.236,0.167
					c0.445-1.377,0.896-2.728,1.437-4.071c0.266-0.661-0.624-0.943-1.051-0.612c-0.565,0.431-1.124,0.87-1.676,1.317
					c0.297,0.297,0.593,0.593,0.89,0.89c0.831-0.89,1.642-1.784,2.514-2.634c0.585-0.57-0.289-1.427-0.89-0.89
					c-0.758,0.679-1.517,1.357-2.275,2.036c0.297,0.297,0.593,0.593,0.89,0.89c0.647-0.748,1.325-1.467,2.036-2.155
					c-0.329-0.254-0.659-0.508-0.988-0.762c-0.925,1.609-1.508,3.148-1.979,4.94c-0.148,0.565,0.642,1.132,1.051,0.612
					c0.924-1.174,1.797-2.345,2.613-3.6c-0.362-0.212-0.724-0.423-1.086-0.635c-0.625,1.023-1.223,2.06-1.796,3.113
					c-0.34,0.606,0.509,1.319,0.988,0.762c1.329-1.546,2.462-3.126,3.451-4.917c0.338-0.613-0.493-1.302-0.988-0.762
					c-0.946,1.031-1.73,2.058-2.493,3.24c-0.326,0.505,0.349,1.25,0.861,0.861c1.21-0.921,1.814-1.623,2.501-2.98
					c0.365-0.722-0.652-1.324-1.086-0.635c-0.384,0.609-0.792,1.201-1.197,1.796c0.362,0.212,0.724,0.423,1.086,0.635
					c0.806-1.19,0.641-0.835,1.021-2.186c0.097-0.343-0.116-0.666-0.439-0.774c-0.12-0.04-0.239-0.08-0.359-0.12
					c-0.335-0.112-0.674,0.126-0.774,0.439c-0.231,0.722-0.459,1.443-0.718,2.155c-0.229,0.63,0.62,1.005,1.051,0.612
					c1.424-1.298,1.558-1.492,1.12-3.366c-0.155-0.664-1.001-0.531-1.213,0c-0.203,0.509-0.377,1.018-0.479,1.557
					c-0.107,0.566,0.41,0.947,0.924,0.71c1.646-0.757,1.937-0.971,2.325-2.771c-0.404-0.111-0.809-0.223-1.213-0.334
					c-0.16,0.798-0.319,1.596-0.479,2.395c-0.11,0.552,0.625,1.151,1.051,0.612c0.935-1.181,0.846-1.01,1.535-2.283
					c0.334-0.617-0.484-1.295-0.988-0.762c-0.884,0.933-0.83,0.866-1.535,1.923c-0.295,0.442,0.196,1.116,0.71,0.924
					c1.419-0.53,2.512-1.059,3.742-1.979c0.584-0.437,0.233-1.259-0.485-1.15c-1.264,0.193-2.228,0.511-3.383,1.021
					c-0.699,0.309-0.165,1.263,0.485,1.15c2.276-0.396,4.547-0.816,6.825-1.197c0.716-0.12,0.524-1.235-0.167-1.236
					c-2.02-0.003-3.656,0.293-5.555,0.98c-0.773,0.28-0.461,1.338,0.334,1.213c2.044-0.322,3.822-0.809,5.658-1.74
					c0.575-0.291,0.283-1.168-0.318-1.172c-1.356-0.009-2.431,0.157-3.759,0.501c-0.59,0.153-0.613,1.073,0,1.213
					c1.729,0.395,2.814,0.354,4.525-0.12c0.557-0.154,0.644-1.119,0-1.213c-1.785-0.262-2.823-0.248-4.525,0.359
					c-0.669,0.239-0.558,1.197,0.167,1.236c1.469,0.078,2.687,0.003,4.119-0.262c0.746-0.138,0.491-1.175-0.167-1.236
					c-2.08-0.192-3.525,0.223-5.346,1.164c-0.537,0.277-0.309,1.234,0.318,1.172c2.806-0.274,5.558-0.889,8.382-0.958
					c0.682-0.017,0.892-1.13,0.167-1.236c-2.941-0.428-5.356-0.49-7.908,1.141c-0.502,0.32-0.337,1.203,0.318,1.172
					c1.672-0.079,3.201-0.181,4.837-0.501c0.802-0.157,0.454-1.345-0.334-1.213c-3.092,0.518-5.634,1.415-8.292,3.057
					c-0.689,0.426-0.073,1.489,0.635,1.086c4.547-2.585,9.126-3.442,14.29-2.908c0.658,0.068,0.809-0.867,0.318-1.172
					c-2.355-1.466-4.354-2.151-7.142-2.002c-0.672,0.036-0.901,1.115-0.167,1.236c2.033,0.334,4.073,0.624,6.107,0.958
					c0.791,0.13,1.136-1.071,0.334-1.213c-2.336-0.414-4.497-0.515-6.872-0.262c-0.793,0.084-0.826,1.228,0,1.258
					c3.577,0.131,6.985,0.426,10.37,1.654c0.588,0.213,1.077-0.644,0.612-1.051c-1.025-0.897-2.055-1.777-3.113-2.634
					c-0.62-0.502-1.453,0.284-0.89,0.89c0.672,0.689,1.311,1.407,1.916,2.155c0.148-0.358,0.297-0.716,0.445-1.074
					c-1.1,0.054-2.137,0.117-3.233,0c-0.726-0.077-0.826,1.044-0.167,1.236c2.021,0.587,4.058,1.077,6.107,1.557
					c0.697,0.163,1.097-0.768,0.485-1.15c-1.67-1.042-3.145-1.398-5.107-1.403c-0.748-0.002-0.807,0.995-0.167,1.236
					c1.116,0.42,2.211,0.85,3.353,1.197c0.056-0.412,0.111-0.824,0.167-1.236c-0.801,0.023-1.6-0.017-2.395-0.12
					c-0.716-0.065-0.844,1.066-0.167,1.236c0.639,0.16,1.277,0.319,1.916,0.479c0.787,0.197,1.115-0.992,0.334-1.213
					c-1.789-0.506-2.857-1.127-4.28-2.212c-0.106,0.391-0.212,0.782-0.318,1.172c1.813,0.009,3.583,0.07,5.388,0.239
					c0.719,0.067,0.839-1.059,0.167-1.236c-1.643-0.431-3.201-0.956-4.789-1.557c-0.111,0.404-0.223,0.809-0.334,1.213
					c2.177,0.667,4.343,1.166,6.585,1.557c0.812,0.141,1.077-0.904,0.334-1.213c-0.79-0.34-1.588-0.659-2.395-0.958
					c-0.58-0.224-1.088,0.657-0.612,1.051c1.006,0.835,2.001,1.568,3.121,2.254c0.212-0.362,0.423-0.724,0.635-1.086
					c-0.634-0.275-1.221-0.575-1.796-0.958c-0.59-0.393-1.318,0.536-0.762,0.988c0.639,0.519,1.277,1.038,1.916,1.557
					c0.528,0.429,1.377-0.11,0.988-0.762c-0.326-0.494-0.605-1.013-0.838-1.557c-0.329,0.254-0.659,0.508-0.988,0.762
					c0.738,0.619,1.417,1.297,2.036,2.036c0.522,0.571,1.251-0.154,0.988-0.762c-0.267-0.618-0.259-1.126-0.697-1.564
					c-0.505-0.505-1.359,0.145-0.988,0.762c0.431,0.641,0.79,1.319,1.078,2.036c0.299,0.643,1.417,0.176,1.15-0.485
					c-0.216-0.535-0.436-1.056-0.662-1.587c-0.362,0.212-0.724,0.423-1.086,0.635c0.293,0.535,0.612,1.054,0.958,1.557
					c0.329-0.254,0.659-0.508,0.988-0.762c-0.704-0.737-1.41-1.46-2.155-2.155c-0.592-0.553-1.46,0.308-0.89,0.89
					c0.511,0.489,0.99,1.008,1.437,1.557c0.254-0.329,0.508-0.659,0.762-0.988c-0.709-0.342-1.427-0.661-2.155-0.958
					c-0.735-0.313-1.32,0.62-0.635,1.086c0.675,0.509,1.394,0.948,2.155,1.317c0.526,0.287,1.226-0.312,0.861-0.861
					c-0.479-0.718-0.958-1.437-1.437-2.155c-0.329,0.254-0.659,0.508-0.988,0.762c0.858,0.652,1.656,1.37,2.395,2.155
					c0.522,0.509,1.319-0.134,0.988-0.762c-0.399-0.758-0.798-1.517-1.197-2.275c-0.38-0.722-1.444-0.087-1.086,0.635
					c0.597,1.129,1.015,2.316,1.254,3.562c0.308-0.237,0.616-0.474,0.924-0.71c-0.205-0.1-0.409-0.2-0.614-0.299
					c-0.49-0.239-1.065,0.149-0.924,0.71c0.005,0.02,0.01,0.04,0.015,0.06c0.197,0.787,1.41,0.453,1.213-0.334
					c-0.005-0.02-0.01-0.04-0.015-0.06c-0.308,0.237-0.616,0.474-0.924,0.71c0.205,0.1,0.409,0.2,0.614,0.299
					c0.492,0.24,1.062-0.149,0.924-0.71c-0.35-1.424-0.736-2.559-1.381-3.862c-0.362,0.212-0.724,0.423-1.086,0.635
					c0.399,0.758,0.798,1.517,1.197,2.275c0.329-0.254,0.659-0.508,0.988-0.762c-0.739-0.785-1.537-1.503-2.395-2.155
					c-0.516-0.426-1.412,0.127-0.988,0.762c0.479,0.718,0.958,1.437,1.437,2.155c0.287-0.287,0.574-0.574,0.861-0.861
					c-0.761-0.369-1.48-0.808-2.155-1.317c-0.212,0.362-0.423,0.724-0.635,1.086c0.728,0.297,1.447,0.616,2.155,0.958
					c0.65,0.301,1.243-0.433,0.762-0.988c-0.447-0.549-0.926-1.068-1.437-1.557c-0.297,0.297-0.593,0.593-0.89,0.89
					c0.745,0.696,1.451,1.418,2.155,2.155c0.49,0.513,1.382-0.159,0.988-0.762c-0.346-0.502-0.665-1.021-0.958-1.557
					c-0.42-0.721-1.395-0.089-1.086,0.635c0.178,0.429,0.357,0.858,0.535,1.287c0.383-0.162,0.767-0.323,1.15-0.485
					c-0.288-0.716-0.647-1.395-1.078-2.036c-0.329,0.254-0.659,0.508-0.988,0.762c-0.033-0.033,0.568,1.466,0.5,1.31
					c0.329-0.254,0.659-0.508,0.988-0.762c-0.619-0.738-1.297-1.417-2.036-2.036c-0.543-0.497-1.295,0.123-0.988,0.762
					c0.233,0.544,0.512,1.063,0.838,1.557c0.329-0.254,0.659-0.508,0.988-0.762c-0.639-0.519-1.277-1.038-1.916-1.557
					c-0.254,0.329-0.508,0.659-0.762,0.988c0.575,0.383,1.162,0.683,1.796,0.958c0.726,0.315,1.344-0.652,0.635-1.086
					c-1.03-0.578-1.985-1.264-2.866-2.057c-0.204,0.35-0.408,0.701-0.612,1.051c0.807,0.299,1.605,0.618,2.395,0.958
					c0.111-0.404,0.223-0.809,0.334-1.213c-2.243-0.391-4.408-0.89-6.585-1.557c-0.788-0.242-1.079,0.932-0.334,1.213
					c1.589,0.6,3.146,1.126,4.789,1.557c0.056-0.412,0.111-0.824,0.167-1.236c-1.805-0.169-3.575-0.231-5.388-0.239
					c-0.682-0.003-0.783,0.817-0.318,1.172c1.462,1.114,2.828,1.843,4.581,2.338c0.111-0.404,0.223-0.809,0.334-1.213
					c-0.639-0.16-1.277-0.319-1.916-0.479c-0.056,0.412-0.111,0.824-0.167,1.236c0.795,0.103,1.593,0.143,2.395,0.12
					c0.724,0.009,0.839-1.032,0.167-1.236c-1.142-0.347-2.236-0.778-3.353-1.197c-0.056,0.412-0.111,0.824-0.167,1.236
					c1.656-0.179,3.146,0.232,4.472,1.231c0.162-0.383,0.323-0.767,0.485-1.15c-2.049-0.479-4.086-0.97-6.107-1.557
					c-0.056,0.412-0.111,0.824-0.167,1.236c1.096,0.117,2.133,0.054,3.233,0c0.572-0.028,0.801-0.653,0.445-1.074
					c-0.605-0.748-1.244-1.467-1.916-2.155c-0.297,0.297-0.593,0.593-0.89,0.89c1.058,0.857,2.089,1.738,3.113,2.634
					c0.204-0.35,0.408-0.701,0.612-1.051c-3.537-1.283-6.968-1.561-10.704-1.699c0,0.419,0,0.839,0,1.258
					c2.317-0.247,4.186-0.2,6.538,0.217c0.111-0.404,0.223-0.809,0.334-1.213c-2.033-0.334-4.073-0.624-6.107-0.958
					c-0.056,0.412-0.111,0.824-0.167,1.236c2.385-0.127,4.493,0.575,6.507,1.83c0.106-0.391,0.212-0.782,0.318-1.172
					c-5.421-0.561-10.193,0.389-14.925,3.079c0.212,0.362,0.423,0.724,0.635,1.086c2.535-1.565,5.081-2.442,7.992-2.93
					c-0.111-0.404-0.223-0.809-0.334-1.213c-1.49,0.273-2.991,0.426-4.502,0.456c0.106,0.391,0.212,0.782,0.318,1.172
					c2.201-1.319,4.514-1.657,6.939-1.014c0.056-0.412,0.111-0.824,0.167-1.236c-2.848,0.07-5.548,0.681-8.382,0.958
					c0.106,0.391,0.212,0.782,0.318,1.172c1.499-0.982,3.069-1.312,4.711-0.992c-0.056-0.412-0.111-0.824-0.167-1.236
					c-1.254,0.288-2.516,0.36-3.784,0.217c0.056,0.412,0.111,0.824,0.167,1.236c1.285-0.12,2.571-0.239,3.856-0.359
					c0-0.404,0-0.809,0-1.213c-1.285,0.04-2.571,0.08-3.856,0.12c0,0.404,0,0.809,0,1.213c1.107-0.367,2.249-0.519,3.425-0.456
					c-0.106-0.391-0.212-0.782-0.318-1.172c-1.828,0.926-3.391,1.303-5.358,1.613c0.111,0.404,0.223,0.809,0.334,1.213
					c1.722-0.624,3.388-0.938,5.221-0.935c-0.056-0.412-0.111-0.824-0.167-1.236c-2.278,0.381-4.549,0.801-6.825,1.197
					c0.162,0.383,0.323,0.767,0.485,1.15c0.974-0.506,2.002-0.804,3.083-0.894c-0.162-0.383-0.323-0.767-0.485-1.15
					c-0.998,0.874-2.145,1.491-3.442,1.852c0.237,0.308,0.474,0.616,0.71,0.924c0.446-0.556,0.892-1.112,1.338-1.669
					c-0.329-0.254-0.659-0.508-0.988-0.762c-0.446,0.676-0.892,1.352-1.338,2.028c0.35,0.204,0.701,0.408,1.051,0.612
					c0.16-0.798,0.319-1.596,0.479-2.395c0.158-0.79-1.042-1.13-1.213-0.334c-0.16,1.114-0.742,1.787-1.746,2.019
					c0.308,0.237,0.616,0.474,0.924,0.71c0.101-0.539,0.276-1.048,0.479-1.557c-0.404,0-0.809,0-1.213,0
					c0.368,0.986,0.103,1.7-0.796,2.142c0.35,0.204,0.701,0.408,1.051,0.612c0.233-0.641,1.158-3.717-1.03-0.485
					c-0.457,0.675,0.632,1.3,1.086,0.635c0.406-0.595,0.813-1.187,1.197-1.796c-0.362-0.212-0.724-0.423-1.086-0.635
					c-0.683,0.843-1.366,1.686-2.049,2.528c0.287,0.287,0.574,0.574,0.861,0.861c0.637-1.091,1.402-2.086,2.296-2.986
					c-0.329-0.254-0.659-0.508-0.988-0.762c-0.953,1.726-1.949,3.143-3.254,4.662c0.329,0.254,0.659,0.508,0.988,0.762
					c0.573-1.053,1.171-2.09,1.796-3.113c0.417-0.702-0.647-1.311-1.086-0.635c-0.722,1.174-1.528,2.289-2.416,3.345
					c0.35,0.204,0.701,0.408,1.051,0.612c0.432-1.645,1.004-3.164,1.852-4.639c0.356-0.619-0.482-1.276-0.988-0.762
					c-0.71,0.689-1.389,1.407-2.036,2.155c-0.545,0.604,0.285,1.431,0.89,0.89c0.758-0.679,1.517-1.357,2.275-2.036
					c-0.297-0.297-0.593-0.593-0.89-0.89c-0.872,0.851-1.683,1.744-2.514,2.634c-0.566,0.607,0.268,1.385,0.89,0.89
					c0.553-0.447,1.111-0.886,1.676-1.317c-0.35-0.204-0.701-0.408-1.051-0.612c-0.541,1.343-0.992,2.694-1.437,4.071
					c0.412,0.056,0.824,0.111,1.236,0.167c0.057-0.636-0.362-0.476-1.258,0.479c0.391-0.106,0.782-0.212,1.172-0.318
					c-0.174-0.373-0.374-0.733-0.599-1.078c-0.379-0.626-1.298-0.205-1.15,0.485c0.12,0.559,0.239,1.118,0.359,1.676
					c0.35-0.204,0.701-0.408,1.051-0.612c-0.526-0.636-1.052-1.272-1.578-1.908C20.343,27.538,19.251,28.165,19.724,28.826
					L19.724,28.826z"/>
			</g>
		</g>
		<g>
			<g>
				<path style="&st4;" d="M50.394,25.755c-0.017,0.412-0.325,1.041-0.052,1.415c0.21,0.287,0.554,0.418,0.884,0.232
					c0.007-0.004,0.014-0.008,0.02-0.012c0.725-0.41,0.074-1.526-0.652-1.116c-0.007,0.004-0.014,0.008-0.02,0.012
					c0.295,0.077,0.589,0.154,0.884,0.232c0.094,0.128,0.047,0.431,0.082,0.225c0.018-0.105,0.039-0.209,0.059-0.314
					c0.041-0.222,0.078-0.448,0.087-0.674C51.72,24.921,50.428,24.925,50.394,25.755L50.394,25.755z"/>
			</g>
		</g>
		<g>
			<g>
				<path style="&st4;" d="M23.744,21.205c-0.34-15.063,24.126-18.119,23.643-1.434c-0.025,0.848,1.29,0.846,1.314,0
					C49.23,1.52,22.05,4.365,22.43,21.205C22.449,22.051,23.764,22.053,23.744,21.205L23.744,21.205z"/>
			</g>
		</g>
		<g>
			<g>
				<path style="&st4;" d="M23.473,22.131c3.846-2.215,8.447-1.869,12.72-2.305c0.835-0.085,0.843-1.4,0-1.314
					c-4.517,0.461-9.317,0.143-13.383,2.484C22.075,21.419,22.737,22.555,23.473,22.131L23.473,22.131z"/>
			</g>
		</g>
		<g>
			<g>
				<path style="&st4;" d="M24.254,20.901c0.579-3.522,2.836-6.188,5.099-8.81c-0.31-0.31-0.62-0.62-0.929-0.929
					c-0.295,0.353-0.62,0.646-0.958,0.958c-0.623,0.577,0.308,1.504,0.929,0.929c0.337-0.312,0.663-0.605,0.958-0.958
					c0.539-0.643-0.372-1.575-0.929-0.929c-2.401,2.781-4.824,5.654-5.437,9.39C22.85,21.38,24.117,21.735,24.254,20.901
					L24.254,20.901z"/>
			</g>
		</g>
		<g>
			<g>
				<path style="&st4;" d="M32.481,17.899c2.84,0,2.84-4.404,0-4.404C29.641,13.495,29.641,17.899,32.481,17.899L32.481,17.899z"/>
			</g>
		</g>
		<g>
			<g>
				<path style="&st4;" d="M30.924,19.697c6.085,0,6.085-9.436,0-9.436S24.839,19.697,30.924,19.697L30.924,19.697z"/>
			</g>
		</g>
		<g>
			<g>
				<path style="&st4;" d="M31.044,17.3c2.408-0.218,4.697-0.391,7.078,0.161c2.797,0.648,3.814-3.285,1.171-4.246
					c-1.341-0.488-2.605-1.111-3.904-1.694c0.149,1.153,0.297,2.305,0.446,3.458c0.244-0.194,0.484-0.393,0.718-0.599
					c1.281-1.091,0.541-3.282-0.972-3.68c-0.758-0.2-1.517-0.399-2.275-0.599c0,1.415,0,2.831,0,4.246
					c0.641-0.248,1.234-0.502,1.843-0.821c1.661-0.868,1.309-3.616-0.526-4.024c-5.747-1.28-8.754,3.29-11.467,7.597
					c-1.02,1.619,0.659,3.804,2.486,3.234c5.848-1.823,11.217-1.334,17.029,0.359c0.39-1.415,0.78-2.831,1.171-4.246
					c-2.059-0.336-4.004-0.493-6.093-0.318c-2.545,0.213-2.913,3.417-0.585,4.325c4.435,1.729,8.897-0.327,6.318-5.39
					c-1.267,0.741-2.535,1.482-3.802,2.223c0.933,1.299,2.001,2.398,3.098,3.559c1.228,1.299,3.122,0.5,3.68-0.972
					c0.15-0.301,0.23-0.62,0.239-0.958c-1.341,0.175-2.683,0.351-4.024,0.526c0.276,0.546,0.595,1.064,0.958,1.557
					c1.26,1.871,3.925,1.089,4.103-1.111c0.06-0.399,0.06-0.798,0-1.197c-1.368,0.37-2.735,0.741-4.103,1.111
					c0.046,0.144,0.091,0.288,0.137,0.432c0.777,2.764,4.773,1.587,4.246-1.171c-1.325-6.939-7.991-11.235-14.802-9.081
					c0.829,0.337,1.658,0.675,2.486,1.012c-0.291-0.451-0.608-0.865-0.943-1.284c-0.519,1.253-1.038,2.506-1.557,3.759
					c4.596-0.251,7.725,0.12,10.312,4.298c1.067,1.723,4.344,1.189,4.103-1.111c-1.178-11.23-19.366-11.222-20.448,0.12
					c-0.27,2.827,4.136,2.801,4.404,0c0.538-5.64,11.061-5.657,11.641-0.12c1.368-0.37,2.735-0.741,4.103-1.111
					c-3.417-5.519-7.856-6.82-14.114-6.479c-2.039,0.111-2.754,2.262-1.557,3.759c0.085,0.131,0.17,0.262,0.254,0.393
					c0.523,0.81,1.519,1.318,2.486,1.012c4.679-1.48,8.5,1.369,9.385,6.006c1.415-0.39,2.831-0.78,4.246-1.171
					c-0.147-0.523-0.351-0.992-0.581-1.484c-0.924-1.972-4.252-1.024-4.103,1.111c0.06,0.399,0.06,0.799,0,1.197
					c1.368-0.37,2.735-0.741,4.103-1.111c-0.363-0.492-0.682-1.011-0.958-1.557c-0.853-1.529-3.746-1.425-4.024,0.526
					c-0.009,0.337-0.089,0.657-0.239,0.958c1.227-0.324,2.453-0.648,3.68-0.972c-0.825-0.872-1.705-1.687-2.41-2.668
					c-1.641-2.284-5.109-0.342-3.802,2.223c0.229-0.155,0.457-0.311,0.686-0.466c-0.707-0.108-1.384-0.312-2.031-0.613
					c-0.195,1.442-0.39,2.883-0.585,4.325c1.71-0.143,3.207-0.119,4.923,0.161c2.747,0.448,3.952-3.436,1.171-4.246
					c-6.52-1.899-12.82-2.401-19.371-0.359c0.829,1.078,1.658,2.156,2.486,3.234c1.421-2.257,3.245-6.297,6.494-5.574
					c-0.175-1.341-0.351-2.683-0.526-4.024c-0.264,0.126-0.527,0.251-0.791,0.377c-1.919,0.741-2.269,3.649,0,4.246
					c0.758,0.2,1.517,0.399,2.275,0.599c-0.324-1.227-0.648-2.453-0.972-3.68c-0.234,0.206-0.474,0.405-0.718,0.599
					c-1.039,0.841-0.777,2.909,0.446,3.458c1.648,0.74,3.258,1.52,4.956,2.138c0.39-1.415,0.78-2.831,1.171-4.246
					c-2.765-0.641-5.434-0.573-8.248-0.318C28.24,13.15,28.215,17.556,31.044,17.3L31.044,17.3z"/>
			</g>
		</g>
		<g>
			<g>
				<path style="&st4;" d="M27.707,38.628c-0.799,0.431-1.269,1.186-1.299,2.094c-0.009,0.266,0.403,0.265,0.412,0
					c0.026-0.767,0.424-1.376,1.095-1.738C28.149,38.858,27.941,38.502,27.707,38.628L27.707,38.628z"/>
			</g>
		</g>
		<g>
			<g>
				<path style="&st4;" d="M27.067,39.113c-0.432,0.447-0.794,0.934-0.869,1.566c-0.074,0.629,0.434,1.111,0.91,1.418
					c0.224,0.144,0.43-0.212,0.208-0.356c-0.398-0.257-0.712-0.561-0.706-1.063c0.006-0.491,0.433-0.948,0.748-1.275
					C27.542,39.213,27.251,38.921,27.067,39.113L27.067,39.113z"/>
			</g>
		</g>
		<g>
			<g>
				<path style="&st4;" d="M26.629,41.858c1.287,0.663,2.701,0.711,4.11,0.5c0.262-0.039,0.15-0.436-0.11-0.397
					c-1.291,0.194-2.612,0.15-3.793-0.458C26.602,41.38,26.393,41.736,26.629,41.858L26.629,41.858z"/>
			</g>
		</g>
		<g>
			<g>
				<path style="&st4;" d="M26.527,40.123c0.059,0.772,0.019,1.332,0.387,2.02c0.112,0.209,0.436,0.064,0.376-0.159
					c-0.142-0.53-0.351-1.228-0.741-1.618c-0.188-0.188-0.479,0.103-0.291,0.291c0.488,0.488,0.777,1.151,1.287,1.646
					c0.165,0.16,0.453-0.048,0.323-0.25c-0.341-0.531-0.636-1.021-1.152-1.391c-0.203-0.146-0.389,0.156-0.25,0.323
					c0.41,0.493,0.824,0.907,1.317,1.317c0.205,0.17,0.462-0.087,0.291-0.291c-0.113-0.135-1.637-1.928-0.922-0.708
					c0.119-0.069,0.237-0.139,0.356-0.208c-0.153-0.303-0.305-0.606-0.458-0.909c-0.125,0.053-0.251,0.106-0.376,0.159
					c0.108,0.21,0.224,0.406,0.359,0.599c0.119-0.069,0.237-0.139,0.356-0.208c-0.426-0.59-0.053,0.157,0.436,0.348
					c0.408,0.159,1.115,0.038,1.541,0.082c-0.018-0.135-0.037-0.27-0.055-0.405c-0.437,0.168-0.918,0.198-1.382,0.232
					c0.018,0.135,0.037,0.27,0.055,0.405c2.829-0.956,7.052-2.683,8.128,1.413c0.067,0.257,0.465,0.148,0.397-0.11
					c-1.141-4.342-5.511-2.755-8.635-1.7c-0.21,0.071-0.188,0.422,0.055,0.405c0.494-0.036,1.028-0.068,1.492-0.247
					c0.221-0.085,0.18-0.381-0.055-0.405c-1.109-0.113-1.6-0.101-2.53-0.81c-0.168-0.128-0.387,0.116-0.282,0.282
					c0.145,0.249,0.305,0.489,0.479,0.718c0.153,0.212,0.509,0.011,0.356-0.208c-0.136-0.193-0.251-0.389-0.359-0.599
					c-0.106-0.205-0.465-0.059-0.376,0.159c0.231,0.567,0.178,0.466,0.5,1.007c0.135,0.228,0.49,0.022,0.356-0.208
					c-0.193-0.329-0.463-0.599-0.792-0.792c-0.17-0.1-0.404,0.107-0.282,0.282c0.42,0.604,0.877,1.153,1.349,1.718
					c0.097-0.097,0.194-0.194,0.291-0.291c-0.493-0.41-0.907-0.824-1.317-1.317c-0.083,0.108-0.166,0.216-0.25,0.323
					c0.396,0.368,0.731,0.783,1.004,1.243c0.108-0.083,0.216-0.166,0.323-0.25c-0.542-0.526-0.784-1.144-1.287-1.646
					c-0.188-0.188-0.479,0.103-0.291,0.291c0.251,0.461,0.462,0.94,0.636,1.436c0.125-0.053,0.251-0.106,0.376-0.159
					c-0.199-0.591-0.31-1.195-0.331-1.812C26.919,39.86,26.507,39.858,26.527,40.123L26.527,40.123z"/>
			</g>
		</g>
		<g>
			<g>
				<path style="&st4;" d="M26.827,42.065c1.057,0.867,2.356,1.126,3.673,0.771c0.256-0.069,0.147-0.466-0.11-0.397
					c-1.167,0.314-2.331,0.107-3.272-0.665C26.915,41.606,26.622,41.896,26.827,42.065L26.827,42.065z"/>
			</g>
		</g>
		<g>
			<g>
				<path style="&st4;" d="M29.487,42.963c0.942,0.016,1.823,0.238,2.65,0.69c0.233,0.128,0.441-0.228,0.208-0.356
					c-0.888-0.486-1.846-0.73-2.858-0.747C29.221,42.547,29.222,42.959,29.487,42.963L29.487,42.963z"/>
			</g>
		</g>
		<g>
			<g>
				<path style="&st4;" d="M31.976,43.621c1.036,0.986,2.306,1.345,3.602,0.631c0.233-0.128,0.025-0.484-0.208-0.356
					c-1.136,0.625-2.206,0.288-3.103-0.566C32.075,43.147,31.783,43.438,31.976,43.621L31.976,43.621z"/>
			</g>
		</g>
		<g>
			<g>
				<path style="&st4;" d="M33.678,44.999c1.004-0.028,1.872-0.478,2.453-1.299c0.154-0.217-0.204-0.423-0.356-0.208
					c-0.494,0.698-1.248,1.072-2.097,1.095C33.413,44.594,33.412,45.006,33.678,44.999L33.678,44.999z"/>
			</g>
		</g>
		<g>
			<g>
				<path style="&st4;" d="M34.979,45.09c0.932-0.612,1.429-1.526,1.053-2.627c-0.085-0.25-0.483-0.143-0.397,0.11
					c0.315,0.923-0.08,1.648-0.863,2.162C34.55,44.88,34.757,45.237,34.979,45.09L34.979,45.09z"/>
			</g>
		</g>
		<g>
			<g>
				<path style="&st4;" d="M31.539,43.654c0.947,0.463,1.926,0.855,2.874,1.317c0.237,0.116,0.446-0.237,0.208-0.356
					c-0.559-0.279-1.118-0.559-1.676-0.838c-0.236-0.118-0.445,0.234-0.208,0.356c0.474,0.242,0.967,0.605,1.486,0.739
					c0.219,0.056,0.379-0.283,0.159-0.376c-0.325-0.138-0.66-0.309-1.007-0.38c-0.236-0.048-0.348,0.24-0.159,0.376
					c0.495,0.358,0.897,0.402,1.486,0.5c0.258,0.043,0.372-0.346,0.11-0.397c-0.697-0.137-1.275-0.432-1.867-0.817
					c-0.053,0.125-0.106,0.251-0.159,0.376c1.077,0.165,1.987-0.104,3.048-0.232c-0.059-0.103-0.119-0.207-0.178-0.31
					c-0.107,0.171-0.541,0.685-0.366,0.743c0.03,0.115,0.061,0.23,0.091,0.344c0.323-0.302,0.76-0.607,0.891-1.049
					c0.076-0.255-0.322-0.364-0.397-0.11c-0.102,0.346-0.532,0.63-0.785,0.867c-0.119,0.111-0.05,0.297,0.091,0.344
					c0.006,0.002,0.011,0.004,0.017,0.006c0.068,0.023,0.152-0.003,0.2-0.053c0.247-0.254,0.427-0.587,0.614-0.885
					c0.076-0.122-0.021-0.329-0.178-0.31c-1.003,0.121-1.918,0.403-2.939,0.247c-0.225-0.035-0.365,0.243-0.159,0.376
					c0.628,0.408,1.226,0.714,1.965,0.859c0.037-0.132,0.073-0.265,0.11-0.397c-0.519-0.086-0.943-0.137-1.388-0.458
					c-0.053,0.125-0.106,0.251-0.159,0.376c0.313,0.064,0.616,0.214,0.909,0.338c0.053-0.125,0.106-0.251,0.159-0.376
					c-0.481-0.124-0.947-0.472-1.388-0.698c-0.069,0.119-0.139,0.237-0.208,0.356c0.559,0.279,1.118,0.559,1.676,0.838
					c0.069-0.119,0.139-0.237,0.208-0.356c-0.947-0.463-1.926-0.855-2.874-1.317C31.509,43.182,31.3,43.537,31.539,43.654
					L31.539,43.654z"/>
			</g>
		</g>
		<g>
			<g>
				<path style="&st4;" d="M33.319,42.724c0.266,0,0.266-0.412,0-0.412S33.053,42.724,33.319,42.724L33.319,42.724z"/>
			</g>
		</g>
		<g>
			<g>
				<path style="&st4;" d="M32.542,44.059c0.433,0.651,1.143,0.934,1.909,0.813c0.262-0.041,0.15-0.438-0.11-0.397
					c-0.574,0.091-1.121-0.139-1.444-0.624C32.752,43.631,32.395,43.837,32.542,44.059L32.542,44.059z"/>
			</g>
		</g>
		<g>
			<g>
				<path style="&st4;" d="M26.918,41.639c1.029,0.144,1.966,0.265,2.983,0c0.187-0.049,0.206-0.361,0-0.397
					c-0.872-0.152-1.681-0.428-2.514-0.718c-0.018,0.135-0.037,0.27-0.055,0.405c0.958,0,1.916,0,2.874,0
					c0.072,0,0.142-0.039,0.178-0.102c-0.001-0.008-0.002-0.017-0.003-0.025c-0.053-0.125-0.106-0.251-0.159-0.376
					c-0.629,0.326-1.178,0.716-1.867,0.937c-0.183,0.059-0.21,0.353,0,0.397c0.365,0.078,0.516-0.039,0.799-0.292
					c0.166-0.149-0.013-0.38-0.2-0.344c-0.404,0.076-0.937-0.1-1.327-0.239c-0.255-0.091-0.348,0.298-0.11,0.397
					c0.714,0.298,1.396,0.557,2.155,0.718c0.018-0.135,0.037-0.27,0.055-0.405c-0.599-0.03-1.197-0.089-1.796-0.12
					c-0.208-0.011-0.277,0.285-0.104,0.384c0.516,0.294,1.148,0.494,1.726,0.619c0.263,0.057,0.355-0.304,0.11-0.397
					c-0.443-0.168-0.886-0.591-1.372-0.606c-0.234-0.007-0.279,0.346-0.055,0.405c0.685,0.179,1.35,0.419,2.036,0.599
					c0.198,0.052,0.349-0.198,0.2-0.344c-0.272-0.269-0.872-1.092-1.327-0.87c-0.151,0.073-0.116,0.274,0,0.356
					c0.391,0.275,0.772,0.501,1.197,0.718c0.154,0.079,0.358-0.05,0.303-0.233c-0.112-0.373-0.268-0.569-0.5-0.887
					c-0.108,0.083-0.216,0.166-0.323,0.25c0.55,0.657,0.363,0.518,0.838,0.958c0.12,0.111,0.291,0.056,0.344-0.091
					c0.231-0.631,0.108-0.624-0.26-1.236c-0.044-0.073-0.147-0.129-0.233-0.095c-0.022,0.009-0.045,0.018-0.067,0.027
					c-0.101,0.04-0.18,0.137-0.144,0.253c0.149,0.476,0.502,0.902,0.828,1.274c0.071,0.082,0.219,0.079,0.291,0
					c0.315-0.348-0.183-1.282-0.295-1.65c-0.063-0.208-0.325-0.183-0.397,0c-0.177,0.446,0.281,1.665,0.5,2.074
					c0.032,0.06,0.109,0.106,0.178,0.102c0.01-0.001,0.019-0.001,0.029-0.002c0.123-0.008,0.191-0.089,0.206-0.206
					c0.072-0.575,0.066-1.322-0.12-1.88c-0.051-0.154-0.224-0.194-0.344-0.091c0.043-0.01,0.087-0.019,0.13-0.029
					c-0.159-0.031-0.286,0.093-0.253,0.253c0.131,0.641,0.511,1.268,0.779,1.859c0.119-0.069,0.237-0.139,0.356-0.208
					c-0.052,0.1-0.105,0.201-0.157,0.301c0.117-0.009,0.199-0.087,0.206-0.206c0.039-0.648-0.059-1.325-0.146-1.967
					c-0.009-0.069-0.082-0.126-0.144-0.144c0.032,0.021,0.065,0.041,0.097,0.062c-0.1-0.161-0.406-0.112-0.384,0.104
					c0.064,0.628,0.203,1.272,0.372,1.88c0.017,0.062,0.075,0.135,0.144,0.144c0.004,0.001,0.009,0.001,0.013,0.002
					c0.106,0.014,0.228-0.024,0.253-0.144c0.098-0.463,0.388-1.673,0.099-2.074c-0.126-0.175-0.468-0.074-0.376,0.159
					c0.251,0.64,0.183,1.402,0.489,2.026c0.076,0.155,0.345,0.123,0.376-0.049c0.107-0.581,0.135-1.184,0.138-1.792
					c-0.137,0-0.275,0-0.412,0c0.069,0.636,0.051,1.28,0.12,1.916c0.029,0.267,0.378,0.262,0.412,0
					c0.062-0.484,0.196-1.055,0.061-1.533c-0.036-0.127-0.188-0.192-0.303-0.123c-0.517,0.311-0.152,1.569-0.171,2.015
					c-0.011,0.266,0.398,0.264,0.412,0c0.039-0.758,0.411-1.018-0.18-1.582c-0.133-0.127-0.344-0.034-0.352,0.146
					c-0.027,0.657,0.125,1.508,0.823,1.784c0.07,0.028,0.149-0.008,0.2-0.053c0.256-0.223,0.336-0.678,0.504-0.844
					c0.071-0.07,0.071-0.165,0.032-0.25c-0.184-0.397-0.588-0.671-0.976-0.851c-0.084-0.039-0.181-0.039-0.25,0.032
					c0.084,0.01,0.168,0.02,0.252,0.03c-0.185-0.162-0.413,0.038-0.323,0.25c0.217,0.511,0.416,1.115,0.762,1.553
					c0.11,0.139,0.366,0.025,0.352-0.146c-0.112,0.031-0.224,0.063-0.336,0.094c0.202,0.171,0.469-0.091,0.291-0.291
					c-0.377-0.425-0.766-0.874-1.208-1.234c-0.102-0.083-0.25-0.081-0.323,0.042c-0.004,0.006-0.007,0.012-0.011,0.018
					c0.125,0.053,0.251,0.106,0.376,0.159c-0.208,0.555,0.341,1.052,0.729,1.539c0.106,0.133,0.296,0.037,0.344-0.091
					c-0.009,0.019-0.018,0.038-0.026,0.058c0.065-0.064,0.08-0.171,0.032-0.25c-0.309-0.513-0.789-0.909-1.1-1.415
					c-0.12-0.195-0.45-0.069-0.376,0.159c0.214,0.664,0.624,1.252,0.838,1.916c0.125-0.053,0.251-0.106,0.376-0.159
					c-0.392-0.585-0.986-1.058-1.317-1.676c-0.108,0.083-0.216,0.166-0.323,0.25c0.487,0.512,0.95,1.045,1.437,1.557
					c0.121,0.127,0.359,0.034,0.352-0.146c-0.022-0.521-0.335-1.318-0.87-1.516c-0.201-0.074-0.337,0.205-0.2,0.344
					c0.324,0.33,0.512,0.747,0.838,1.078c0.083-0.108,0.166-0.216,0.25-0.323c-0.657-0.389-1.114-0.971-1.796-1.317
					c-0.24-0.122-0.423,0.203-0.208,0.356c0.608,0.433,1.203,0.901,1.754,1.405c0.195,0.178,0.485-0.108,0.291-0.291
					c-0.513-0.485-1.044-0.951-1.557-1.437c-0.164-0.155-0.465,0.053-0.323,0.25c0.532,0.741,1.154,1.198,1.87,1.75
					c0.148,0.114,0.35-0.073,0.303-0.233c-0.214-0.714-0.385-1.441-0.599-2.155c-0.132,0.037-0.265,0.073-0.397,0.11
					c0.194,0.632,0.503,1.292,0.859,1.845c0.124,0.193,0.442,0.072,0.376-0.159c-0.16-0.559-0.319-1.118-0.479-1.676
					c-0.132,0.037-0.265,0.073-0.397,0.11c0.25,0.61,0.506,1.164,0.859,1.726c0.107,0.17,0.385,0.106,0.384-0.104
					c-0.002-0.399,0.146-1.275-0.18-1.582c-0.157-0.148-0.382,0.002-0.344,0.2c0.118,0.624,0.131,0.935,0.532,1.408
					c0.12,0.142,0.352,0.023,0.352-0.146c0-0.399,0-0.798,0-1.197c-0.135,0.018-0.27,0.037-0.405,0.055
					c0.077,0.37,0.167,1.021,0.239,1.437c0.035,0.2,0.358,0.195,0.397,0c0.08-0.399,0.16-0.798,0.239-1.197
					c-0.132,0-0.265,0-0.397,0c0.08,0.399,0.16,0.798,0.239,1.197c0.03,0.149,0.245,0.203,0.344,0.091
					c0.284-0.32,0.112-0.62,0.173-1.049c-0.132,0-0.265,0-0.397,0c0.069,0.463-0.08,0.396,0.173,0.69
					c0.121,0.14,0.352,0.024,0.352-0.146c0-0.16,0-0.319,0-0.479c-0.128,0.035-0.256,0.069-0.384,0.104
					c0.112,0.17,0.185,0.353,0.219,0.549c0.037,0.163,0.304,0.215,0.376,0.049c0.074-0.169,0.103-0.348,0.14-0.528
					c-0.135-0.018-0.27-0.037-0.405-0.055c0.002,0.324-0.003,0.24-0.017-0.255c-0.248-0.3-0.509-0.588-0.784-0.864
					c-0.39-0.41-0.836-0.753-1.284-1.095c-0.196-0.149-0.396,0.158-0.25,0.323c0.451,0.51,0.86,1.052,1.317,1.557
					c0.097-0.097,0.194-0.194,0.291-0.291c-0.494-0.406-0.906-0.88-1.285-1.395c-0.154-0.21-0.506-0.016-0.356,0.208
					c0.304,0.452,0.654,0.866,0.958,1.317c0.108-0.083,0.216-0.166,0.323-0.25c-0.536-0.462-1.02-0.975-1.557-1.437
					c-0.166-0.143-0.471,0.051-0.323,0.25c0.335,0.451,0.681,0.749,1.11,1.119c0.097-0.097,0.194-0.194,0.291-0.291
					c-0.533-0.438-0.999-0.904-1.437-1.437c-0.083,0.108-0.166,0.216-0.25,0.323c0.695,0.457,1.341,0.98,2.036,1.437
					c0.156,0.103,0.345-0.066,0.303-0.233c-0.112-0.436-0.604-0.844-0.891-1.169c-0.155-0.176-0.452,0.055-0.323,0.25
					c0.426,0.648,0.919,1.249,1.317,1.916c0.119-0.069,0.237-0.139,0.356-0.208c-0.385-0.629-0.765-1.247-1.078-1.916
					c-0.119,0.069-0.237,0.139-0.356,0.208c0.354,0.504,0.668,0.936,1.11,1.359c0.171,0.163,0.436-0.043,0.323-0.25
					c-0.213-0.389-0.336-0.784-0.631-1.119c-0.154-0.175-0.456,0.057-0.323,0.25c0.227,0.302,0.426,0.622,0.599,0.958
					c0.125,0.219,0.407,0.059,0.376-0.159c-0.06-0.42-0.38-0.739-0.652-1.049c-0.083,0.108-0.166,0.216-0.25,0.323
					c0.35,0.26,0.518,0.662,0.764,1.004c0.108-0.083,0.216-0.166,0.323-0.25c-1.508-1.923-3.681-2.162-5.948-1.61
					c0.037,0.132,0.073,0.265,0.11,0.397c2.204-0.543,4.432,0.011,5.754,1.941c0.131,0.192,0.43,0.075,0.376-0.159
					c-0.701-3.051-3.918-3.282-6.289-1.919c-0.232,0.133-0.028,0.474,0.208,0.356c0.461-0.187,0.927-0.22,1.398-0.099
					c0.037-0.132,0.073-0.265,0.11-0.397c-0.466-0.114-1.063-0.348-1.546-0.239c-0.237,0.053-0.168,0.391,0.055,0.405
					c0.958,0.058,1.877,0.309,2.819,0.472c0.018-0.135,0.037-0.27,0.055-0.405c-0.504,0.013-1.004-0.025-1.502-0.112
					c-0.146-0.024-0.304,0.09-0.253,0.253c0.137,0.441,0.487,1.443,1.092,1.221c0.144-0.053,0.205-0.226,0.091-0.344
					c-0.242-0.25-0.352-0.586-0.599-0.838c-0.097,0.097-0.194,0.194-0.291,0.291c0.476,0.452,0.775,1.023,1.359,1.349
					c0.082,0.046,0.182,0.033,0.25-0.032c0.009-0.009,0.019-0.018,0.028-0.027c0.069-0.067,0.074-0.167,0.032-0.25
					c-0.237-0.46-0.573-0.878-0.872-1.298c-0.155-0.218-0.466-0.034-0.356,0.208c0.278,0.609,0.509,1.347,0.905,1.888
					c0.103,0.141,0.321,0.133,0.376-0.049c0.135-0.439-0.486-1.7-0.812-2.017c-0.118-0.115-0.291-0.052-0.344,0.091
					c-0.229,0.613,2.344,3.872,1.804,0.359c-0.125,0.053-0.251,0.106-0.376,0.159c0.273,0.507,0.371,1.216,0.809,1.617
					c0.065,0.059,0.172,0.086,0.25,0.032c0.423-0.292,0.3-1.323-0.08-1.607c-0.062-0.046-0.144-0.028-0.208,0
					c-1.029,0.451-0.377,1.23,0.109,1.732c0.185,0.191,0.476-0.1,0.291-0.291c-0.214-0.221-0.287-1.024-0.318-0.435
					c-0.03,0.571-0.028-0.119,0.106,0.095c-0.263-0.419-0.37-0.918-0.603-1.351c-0.119-0.221-0.41-0.057-0.376,0.159
					c0.167,1.087-1.181-0.001-1.245-0.11c0.252,0.43,0.417,0.934,0.574,1.406c0.294,0.045,0.398-0.001,0.31-0.139
					c-0.101-0.215-0.202-0.43-0.303-0.644c-0.172-0.367-0.346-0.734-0.514-1.103c-0.119,0.069-0.237,0.139-0.356,0.208
					c0.157,0.22,0.312,0.446,0.47,0.666c0.785,1.096-0.28-0.586-0.619-0.908c-0.193-0.183-0.478,0.101-0.291,0.291
					c-0.095-0.097,1.221,1.39,0.413,0.229c-0.433-0.622,0.658-0.292,1.049-0.289c0.227,0.002,0.288-0.364,0.055-0.405
					c-0.978-0.169-1.935-0.426-2.928-0.486c0.018,0.135,0.037,0.27,0.055,0.405c0.355-0.079,0.962,0.15,1.327,0.239
					c0.258,0.063,0.367-0.334,0.11-0.397c-0.575-0.141-1.183-0.127-1.715,0.14c0.069,0.119,0.139,0.237,0.208,0.356
					c2.12-1.219,5.04-1.132,5.684,1.673c0.125-0.053,0.251-0.106,0.376-0.159c-1.426-2.081-3.835-2.717-6.219-2.13
					c-0.258,0.064-0.149,0.46,0.11,0.397c2.135-0.52,4.115-0.323,5.547,1.504c0.144,0.184,0.46-0.06,0.323-0.25
					c-0.306-0.426-0.491-0.838-0.912-1.152c-0.198-0.147-0.395,0.158-0.25,0.323c0.261,0.24,0.443,0.529,0.546,0.867
					c0.125-0.053,0.251-0.106,0.376-0.159c-0.173-0.336-0.372-0.656-0.599-0.958c-0.108,0.083-0.216,0.166-0.323,0.25
					c0.268,0.305,0.377,0.689,0.566,1.036c0.108-0.083,0.216-0.166,0.323-0.25c-0.398-0.386-0.747-0.811-1.045-1.275
					c-0.153-0.218-0.468-0.033-0.356,0.208c0.313,0.668,0.693,1.287,1.078,1.916c0.138,0.226,0.492,0.021,0.356-0.208
					c-0.398-0.666-0.891-1.267-1.317-1.916c-0.108,0.083-0.216,0.166-0.323,0.25c0.252,0.286,0.489,0.36,0.704,0.501
					c-0.566-0.372-1.085-0.811-1.651-1.184c-0.209-0.138-0.389,0.154-0.25,0.323c0.438,0.533,0.904,0.999,1.437,1.437
					c0.202,0.166,0.494-0.116,0.291-0.291c-0.385-0.308-0.733-0.653-1.045-1.036c-0.108,0.083-0.216,0.166-0.323,0.25
					c0.536,0.462,1.02,0.975,1.557,1.437c0.168,0.145,0.462-0.044,0.323-0.25c-0.304-0.452-0.654-0.866-0.958-1.317
					c-0.119,0.069-0.237,0.139-0.356,0.208c0.398,0.541,0.828,1.051,1.349,1.479c0.203,0.167,0.472-0.091,0.291-0.291
					c-0.457-0.505-0.866-1.047-1.317-1.557c-0.083,0.108-0.166,0.216-0.25,0.323c0.907,0.69,1.651,1.471,2.353,2.363
					c0.116,0.148,0.352,0.019,0.352-0.146c0-0.12,0-0.239,0-0.359c0-0.228-0.357-0.287-0.405-0.055
					c-0.086,0.416,0.372,0.308,0.017-0.169c-0.116-0.156-0.384-0.117-0.384,0.104c0,0.585,0.33,0.131,0.285-0.174
					c-0.029-0.197-0.369-0.198-0.397,0c-0.107,0.758,0.214,0.641,0.038-0.239c-0.039-0.197-0.358-0.197-0.397,0
					c-0.08,0.399-0.16,0.798-0.239,1.197c0.132,0,0.265,0,0.397,0c-0.111-0.634-0.125-0.889-0.239-1.437
					c-0.048-0.232-0.405-0.173-0.405,0.055c0,1.355-0.016,0.132-0.074-0.174c-0.115,0.067-0.229,0.134-0.344,0.2
					c0.165,0.156,0.058,1.048,0.059,1.291c0.128-0.035,0.256-0.069,0.384-0.104c-0.35-0.501-0.622-1.044-0.817-1.627
					c-0.098-0.238-0.472-0.153-0.397,0.11c0.16,0.559,0.319,1.118,0.479,1.676c0.125-0.053,0.251-0.106,0.376-0.159
					c-0.335-0.521-0.637-1.159-0.817-1.747c-0.078-0.253-0.474-0.146-0.397,0.11c0.15,0.502,0.281,1.01,0.417,1.517
					c0.106,0.475,0.133,0.507,0.079,0.094c-0.54-0.325-0.979-0.755-1.317-1.29c-0.108,0.083-0.216,0.166-0.323,0.25
					c0.513,0.485,1.044,0.951,1.557,1.437c0.097-0.097,0.194-0.194,0.291-0.291c-0.578-0.527-1.2-1.015-1.838-1.469
					c-0.069,0.119-0.139,0.237-0.208,0.356c0.685,0.348,1.145,0.932,1.796,1.317c0.203,0.12,0.414-0.157,0.25-0.323
					c-0.33-0.335-0.514-0.747-0.838-1.078c-0.067,0.115-0.134,0.23-0.2,0.344c0.09,0.033,1.273,1.364,0.493,0.516
					c-0.337-0.367-0.668-0.739-1.011-1.1c-0.166-0.174-0.432,0.047-0.323,0.25c0.333,0.622,0.925,1.091,1.317,1.676
					c0.125,0.186,0.451,0.074,0.376-0.159c-0.214-0.664-0.624-1.252-0.838-1.916c-0.125,0.053-0.251,0.106-0.376,0.159
					c0.201,0.328,1.052,1.273,1.078,1.229c0.225-0.384-0.373-1.017-0.75-1.49c-0.106-0.133-0.296-0.037-0.344,0.091
					c-0.001,0.004-0.003,0.008-0.004,0.011c-0.084,0.224,0.26,0.353,0.376,0.159c-0.179,0.299-0.051,0.257,0.32,0.64
					c0.195,0.202,0.389,0.407,0.575,0.617c0.097-0.097,0.194-0.194,0.291-0.291c-0.007-0.006-0.014-0.012-0.021-0.018
					c-0.123-0.105-0.368-0.05-0.352,0.146c-0.034-0.408,0.291-0.17,0.025-0.733c-0.127-0.268-0.249-0.54-0.365-0.813
					c-0.108,0.083-0.216,0.166-0.323,0.25c0.002,0.002,0.004,0.003,0.006,0.005c0.083,0.073,0.21,0.085,0.291,0
					c-0.248,0.258,0.639,0.456,0.547,0.547c-0.052,0.051-0.073,0.131-0.053,0.2c-0.015,0.072-0.03,0.143-0.044,0.215
					c-0.474-1.204-0.741-1.281-0.8-0.231c-0.089,0.353-0.104,0.246-0.12,0.561c0.137,0,0.275,0,0.412,0
					c0.014-0.322-0.267-2.245-0.322-1.212c-0.015,0.285-0.053,0.57-0.09,0.853c0.137,0,0.275,0,0.412,0
					c-0.069-0.636-0.051-1.28-0.12-1.916c-0.028-0.258-0.41-0.271-0.412,0c-0.003,0.548-0.016,1.097-0.112,1.622
					c0.305-0.032,0.389-0.163,0.253-0.394c-0.044-0.193-0.087-0.387-0.128-0.58c-0.065-0.303-0.093-0.652-0.207-0.941
					c-0.125,0.053-0.251,0.106-0.376,0.159c0.187,0.259-0.085,1.29-0.119,1.605c0.014-0.126,0.344,0.122,0.215-0.48
					c-0.081-0.375-0.171-0.758-0.21-1.14c-0.128,0.035-0.256,0.069-0.384,0.104c0.195,0.313-0.092,1.667,0.317,1.636
					c-0.14,0.01-0.277,0.173-0.178,0.31c0.002,0.002,0.003,0.004,0.005,0.007c0.156,0.217,0.466,0.034,0.356-0.208
					c-0.224-0.495-0.452-0.987-0.656-1.49c-0.172-0.426-0.408,0.201-0.1-0.063c-0.091-0.006-0.183-0.013-0.274-0.019
					c0.037,0.241,0.061,0.483,0.072,0.727c0.019,0.271,0.021,0.542,0.015,0.814c0.095-0.044,0.19-0.088,0.285-0.133
					c-0.058-0.193-0.112-0.387-0.165-0.582c-0.055-0.2-0.321-0.812-0.24-1.017c-0.132,0-0.265,0-0.397,0
					c0.061,0.201,0.12,0.402,0.179,0.603c0.03,0.106,0.059,0.212,0.089,0.318c-0.024,0.299,0.084,0.37,0.323,0.212
					c-0.102-0.136-0.203-0.273-0.305-0.409c-0.101-0.331-0.227-0.339-0.377-0.023c0.094,0.157-0.842-0.922-0.524-0.542
					c-0.15-0.179-0.461,0.061-0.323,0.25c0.07,0.163,0.185,0.278,0.344,0.343c-0.249-0.305-0.451-0.289-0.606,0.047
					c0.232,0.185,0.443,0.401,0.653,0.609c0.067-0.115,0.134-0.229,0.2-0.344c-0.685-0.179-1.35-0.419-2.036-0.599
					c-0.018,0.135-0.037,0.27-0.055,0.405c0.414,0.013,0.869,0.442,1.262,0.591c0.037-0.132,0.073-0.265,0.11-0.397
					c-0.541-0.117-1.145-0.303-1.627-0.578c-0.035,0.128-0.069,0.256-0.104,0.384c0.599,0.03,1.197,0.089,1.796,0.12
					c0.232,0.012,0.282-0.356,0.055-0.405c-0.759-0.162-1.441-0.421-2.155-0.718c-0.037,0.132-0.073,0.265-0.11,0.397
					c0.48,0.172,1.035,0.336,1.546,0.239c-0.067-0.115-0.134-0.23-0.2-0.344c-0.133,0.062-0.266,0.124-0.398,0.187
					c0,0.132,0,0.265,0,0.397c0.719-0.231,1.297-0.632,1.965-0.979c0.213-0.11,0.063-0.432-0.159-0.376
					c-0.901,0.225-1.973,0.112-2.939,0.112c-0.241,0-0.269,0.33-0.055,0.405c0.834,0.291,1.642,0.566,2.514,0.718
					c0-0.132,0-0.265,0-0.397c-1.025,0.266-1.736,0.144-2.764,0C26.768,41.205,26.656,41.602,26.918,41.639L26.918,41.639z"/>
			</g>
		</g>
		<g>
			<g>
				<path style="&st4;" d="M28.769,42.309c0.994,0.115,1.994,0.12,2.993,0.12c0.811,0,0.811-1.258,0-1.258
					c-1,0-1.999-0.005-2.993-0.12C27.964,40.958,27.973,42.217,28.769,42.309L28.769,42.309z"/>
			</g>
		</g>
		<g>
			<g>
				<path style="&st4;" d="M29.128,43.027c0.961,0,1.918-0.009,2.874-0.12c0.796-0.092,0.805-1.351,0-1.258
					c-0.955,0.11-1.913,0.119-2.874,0.12C28.317,41.769,28.317,43.027,29.128,43.027L29.128,43.027z"/>
			</g>
		</g>
		<g>
			<g>
				<path style="&st4;" d="M28.41,42.668c1.848-0.199,3.652-0.016,5.31,0.872c0.162-0.383,0.323-0.767,0.485-1.15
					c-0.773-0.243-1.513-0.566-2.275-0.838c-0.717-0.256-1.027,0.763-0.485,1.15c0.443,0.316,0.852,0.672,1.19,1.099
					c0.4,0.506,1.227-0.041,1.051-0.612c-0.163-0.53-0.508-0.875-1.038-1.038c-0.629-0.193-1.02,0.606-0.612,1.051
					c0.594,0.649,1.308,1.065,2.043,1.535c0.05-0.383,0.1-0.767,0.15-1.15c-0.099,0.018-0.194,0.048-0.284,0.09
					c-0.286,0.12-0.58,0.427-0.439,0.774c0.065,0.16,0.127,0.275,0.228,0.42c0.279,0.401,0.808,0.406,1.086,0
					c1.474-2.153,0.204-3.608-2.052-4.157c-0.788-0.192-1.123,1.022-0.334,1.213c0.554,0.135,1.133,0.272,1.59,0.635
					c0.583,0.464,0.014,1.23-0.29,1.673c0.362,0,0.724,0,1.086,0c-0.034-0.04-0.067-0.079-0.101-0.119
					c-0.146,0.258-0.293,0.516-0.439,0.774c0.091-0.042,0.185-0.072,0.284-0.09c0.541-0.149,0.601-0.861,0.15-1.15
					c-0.645-0.413-1.265-0.766-1.788-1.338c-0.204,0.35-0.408,0.701-0.612,1.051c0.053,0.053,0.106,0.106,0.159,0.159
					c0.35-0.204,0.701-0.408,1.051-0.612c-0.405-0.511-0.916-0.918-1.444-1.296c-0.162,0.383-0.323,0.767-0.485,1.15
					c0.762,0.272,1.502,0.596,2.275,0.838c0.681,0.214,1.113-0.813,0.485-1.15c-1.849-0.99-3.874-1.267-5.945-1.044
					C27.612,41.496,27.603,42.755,28.41,42.668L28.41,42.668z"/>
			</g>
		</g>
		<g>
			<g>
				<path style="&st4;" d="M33.032,41.688c1.118,0.228,1.707,1.03,1.813,2.147c0.076,0.8,1.335,0.808,1.258,0
					c-0.156-1.646-1.043-3.015-2.737-3.361C32.574,40.313,32.237,41.526,33.032,41.688L33.032,41.688z"/>
			</g>
		</g>
		<g>
			<g>
				<path style="&st4;" d="M35.706,44.122c0.637,1.563,2.12,1.559,3.528,1.038c0.754-0.279,0.428-1.495-0.334-1.213
					c-0.587,0.217-1.652,0.645-1.98-0.159C36.617,43.046,35.399,43.37,35.706,44.122L35.706,44.122z"/>
			</g>
		</g>
		<g>
			<g>
				<path style="&st4;" d="M35.889,44.152c1.077,2.039,3.596,1.634,5.38,0.888c0.737-0.308,0.414-1.526-0.334-1.213
					c-1.207,0.505-3.18,1.167-3.959-0.31C36.596,42.8,35.51,43.436,35.889,44.152L35.889,44.152z"/>
			</g>
		</g>
		<g>
			<g>
				<path style="&st4;" d="M35.769,44.152c0.379,0.769,0.944,1.391,1.798,1.606c0.868,0.219,1.778-0.15,2.535-0.542
					c0.721-0.373,0.084-1.459-0.635-1.086c-0.469,0.243-1.021,0.503-1.566,0.416c-0.539-0.086-0.826-0.582-1.046-1.028
					C36.497,42.79,35.411,43.428,35.769,44.152L35.769,44.152z"/>
			</g>
		</g>
		<g>
			<g>
				<path style="&st4;" d="M36.663,43.164c0.132,0.725,1.141,1.16,1.726,1.454c0.162-0.383,0.323-0.767,0.485-1.15
					c-0.378-0.126-0.824-0.252-1.126-0.526c0.241,0.218-0.294,0.392,0.138,0.222c0.675-0.266,1.505-0.267,2.211-0.159
					c0.793,0.121,1.134-1.091,0.334-1.213c-1.081-0.165-2.664-0.253-3.554,0.529c-1.281,1.125,0.837,2.084,1.663,2.36
					c0.675,0.225,1.122-0.83,0.485-1.15c-0.252-0.127-1.109-0.49-1.148-0.702C37.731,42.032,36.519,42.371,36.663,43.164
					L36.663,43.164z"/>
			</g>
		</g>
		<g>
			<g>
				<path style="&st4;" d="M36.877,43.322c1.921-2.079,4.308-0.744,5.055,1.638c0.242,0.771,1.457,0.442,1.213-0.334
					c-1.023-3.261-4.577-4.987-7.158-2.193C35.438,43.027,36.325,43.919,36.877,43.322L36.877,43.322z"/>
			</g>
		</g>
		<g>
			<g>
				<path style="&st4;" d="M40.425,42.813c-0.292,0.144-0.75-0.091-1.085,0.005c-0.425,0.122-0.869,0.448-1.019,0.867
					c-0.1,0.28,0.07,0.555,0.289,0.71c0.41,0.291,1.332,0.043,1.784-0.002c0.215-0.022,0.453-0.025,0.665-0.073
					c0.454-0.104,0.686-0.765,0.298-1.085c-0.433-0.357-1.08-0.509-1.61-0.662c-0.25-0.072-0.584-0.19-0.844-0.104
					c-0.511,0.169-0.598,0.701-0.283,1.093c0.204-0.35,0.408-0.701,0.612-1.051c-1.507-0.365-1.026,3.168,0.509,2.227
					c-0.287-0.287-0.574-0.574-0.861-0.861c-0.004,0.008-0.008,0.016-0.012,0.024c-0.096,0.195-0.13,0.442,0,0.635
					c0.485,0.716,1.999,0.347,1.76-0.628c-0.021,0.162-0.042,0.323-0.063,0.485c0.131-0.18,0.178-0.339,0.206-0.557
					c-0.104,0.181-0.208,0.362-0.312,0.543c0.002-0.001,0.005-0.003,0.007-0.004c0.249-0.154,0.353-0.428,0.289-0.71
					c-0.103-0.458-0.744-0.863-1.089-1.122c-0.595-0.446-1.476-0.275-1.328,0.622c0.054-0.204,0.108-0.408,0.162-0.612
					c-0.611,0.739-0.474,2.536,0.852,2.129c0.773-0.237,0.443-1.452-0.334-1.213c0.289-0.089,0.357,0.386,0.363,0.116
					c0-0.021,0.042-0.18,0.037-0.169c0,0,0.157-0.274,0.157-0.418c-0.018-0.469-0.253-0.299-0.706,0.51
					c-0.08-0.036-0.084-0.035-0.012,0.003c0.16,0.09,0.299,0.216,0.437,0.337c0.078,0.068,0.153,0.139,0.227,0.211
					c0.171,0.165,0.064,0.123,0.022-0.06c0.096-0.237,0.193-0.474,0.289-0.71c-0.099,0.062-0.173,0.128-0.233,0.23
					c-0.057,0.098-0.086,0.204-0.086,0.318c-0.033-0.128-0.066-0.104-0.097,0.072c-0.007,0.056-0.015,0.111-0.022,0.167
					c0.02,0.383,0.124,0.238,0.311-0.436c0.044,0.003,0.025,0.005-0.057,0.005c-0.221-0.018-0.118,0.068,0.308,0.257
					c0,0.212,0,0.423,0,0.635c0.004-0.008,0.008-0.016,0.012-0.024c0.265-0.539-0.29-1.21-0.861-0.861
					c0.181,0.052,0.362,0.104,0.543,0.156c-0.035-0.062-0.042-0.074-0.021-0.038c-0.026-0.074-0.039-0.153-0.053-0.23
					c0.011,0.062-0.001-0.162-0.001-0.139c0.001-0.022,0.002-0.045,0.003-0.067c-0.018,0.277-0.245,0.407-0.68,0.392
					c0.651,0.158,0.996-0.576,0.612-1.051c0.049,0.083,0.097,0.166,0.146,0.25c-0.021,0.162-0.042,0.323-0.063,0.485
					c0.002-0.003,0.004-0.006,0.006-0.008c-0.125,0.096-0.251,0.193-0.376,0.289c-0.153,0.051-0.073,0.025-0.184,0.007
					c0.078,0.013,0.155,0.034,0.232,0.053c0.18,0.046,0.357,0.102,0.534,0.159c0.181,0.058,0.361,0.122,0.538,0.19
					c0.002,0.001,0.214,0.091,0.088,0.035c0.319,0.141-0.137,0.074-0.14-0.429c0.104-0.181,0.208-0.362,0.312-0.543
					c0.181-0.138,0.366-0.084,0.071-0.052c-0.21,0.022-0.42,0.043-0.63,0.063c-0.21,0.02-0.419,0.038-0.63,0.053
					c-0.095,0.007-0.191,0.012-0.287,0.015c-0.235,0.009-0.097-0.08,0.116,0.072c0.096,0.237,0.193,0.474,0.289,0.71
					c0.001-0.003,0.002-0.005,0.003-0.008c-0.096,0.125-0.193,0.251-0.289,0.376c0.293-0.19,0.278-0.388,0.653-0.337
					c0.423,0.057,0.77,0.04,1.158-0.152C41.788,43.54,41.15,42.455,40.425,42.813L40.425,42.813z"/>
			</g>
		</g>
		<g>
			<g>
				<path style="&st4;" d="M41.174,45.04c0.838,0.239,1.676,0.479,2.514,0.718c0.782,0.223,1.113-0.991,0.334-1.213
					c-0.838-0.239-1.676-0.479-2.514-0.718C40.727,43.604,40.395,44.818,41.174,45.04L41.174,45.04z"/>
			</g>
		</g>
		<g>
			<g>
				<path style="&st4;" d="M41.256,44.998c0.934,0.745,2.003,1.119,3.199,1.142c0.812,0.016,0.81-1.242,0-1.258
					c-0.836-0.016-1.647-0.246-2.309-0.774C41.518,43.608,40.621,44.492,41.256,44.998L41.256,44.998z"/>
			</g>
		</g>
		<g>
			<g>
				<path style="&st4;" d="M40.742,45.422c1.168,0.009,2.3,0.135,3.425,0.456c0.782,0.223,1.113-0.991,0.334-1.213
					c-1.228-0.351-2.485-0.492-3.759-0.501C39.931,44.158,39.931,45.416,40.742,45.422L40.742,45.422z"/>
			</g>
		</g>
		<g>
			<g>
				<path style="&st4;" d="M45.069,42.217c0.727,0.552,1.034,1.376,0.645,2.233c-0.109,0.24,0.246,0.449,0.356,0.208
					c0.49-1.078,0.128-2.098-0.792-2.796C45.065,41.7,44.86,42.058,45.069,42.217L45.069,42.217z"/>
			</g>
		</g>
		<g>
			<g>
				<path style="&st4;" d="M45.506,42.544c0.396,0.372,0.819,0.843,0.73,1.43c-0.085,0.563-0.712,0.898-1.167,1.12
					c-0.239,0.117-0.03,0.472,0.208,0.356c0.628-0.307,1.262-0.745,1.374-1.485c0.103-0.681-0.394-1.28-0.854-1.712
					C45.604,42.071,45.312,42.361,45.506,42.544L45.506,42.544z"/>
			</g>
		</g>
		<g>
			<g>
				<path style="&st4;" d="M41.389,43.308c1.247,1.565,2.862,2.289,4.574,0.958c0.448-0.348-0.18-0.967-0.623-0.623
					c-1.322,1.027-2.445,0.151-3.329-0.958C41.658,42.241,41.039,42.869,41.389,43.308L41.389,43.308z"/>
			</g>
		</g>
		<g>
			<g>
				<path style="&st4;" d="M44.095,44.999c0.377-0.02,0.719-0.11,1.062-0.268c0.241-0.111,0.032-0.466-0.208-0.356
					c-0.28,0.128-0.546,0.195-0.854,0.211C43.831,44.601,43.829,45.013,44.095,44.999L44.095,44.999z"/>
			</g>
		</g>
		<g>
			<g>
				<path style="&st4;" d="M44.4,45.111c0.438,0.11,0.747-0.022,1.117-0.26c0.222-0.143,0.016-0.5-0.208-0.356
					c-0.258,0.166-0.479,0.299-0.799,0.219C44.251,44.649,44.142,45.046,44.4,45.111L44.4,45.111z"/>
			</g>
		</g>
		<g>
			<g>
				<path style="&st4;" d="M44.35,45.45c0.442,0.234,0.831,0.173,1.207-0.152c0.201-0.174-0.091-0.464-0.291-0.291
					c-0.202,0.211-0.438,0.24-0.708,0.088C44.324,44.97,44.115,45.325,44.35,45.45L44.35,45.45z"/>
			</g>
		</g>
		<g>
			<g>
				<path style="&st4;" d="M44.574,45.957c0.273-0.028,0.463-0.138,0.703-0.268c0.234-0.126,0.026-0.482-0.208-0.356
					c-0.158,0.085-0.309,0.192-0.495,0.211C44.312,45.571,44.31,45.984,44.574,45.957L44.574,45.957z"/>
			</g>
		</g>
		<g>
			<g>
				<path style="&st4;" d="M44.694,45.957c0.624-0.063,1.041-0.572,1.375-1.06c-0.119-0.069-0.237-0.139-0.356-0.208
					c-0.143,0.209-0.294,0.399-0.47,0.58c-0.088,0.09-0.237,0.13-0.335,0.216c-0.175,0.153,0.059,0.459,0.25,0.323
					c0.721-0.512,0.929-1.195,1.053-2.039c0.038-0.26-0.359-0.372-0.397-0.11c-0.104,0.715-0.241,1.35-0.863,1.793
					c0.083,0.108,0.166,0.216,0.25,0.323c0.136-0.119,0.282-0.161,0.421-0.304c0.17-0.175,0.312-0.375,0.449-0.576
					c0.15-0.22-0.206-0.425-0.356-0.208c-0.235,0.343-0.568,0.811-1.02,0.856C44.432,45.571,44.429,45.983,44.694,45.957
					L44.694,45.957z"/>
			</g>
		</g>
		<g>
			<g>
				<path style="&st4;" d="M45.626,44.048c-0.479,0.479-0.958,0.958-1.437,1.437c-0.169,0.169,0.045,0.434,0.25,0.323
					c0.475-0.257,0.858-0.611,1.239-0.99c0.188-0.188-0.103-0.479-0.291-0.291c-0.356,0.355-0.71,0.685-1.156,0.926
					c0.083,0.108,0.166,0.216,0.25,0.323c0.479-0.479,0.958-0.958,1.437-1.437C46.105,44.152,45.814,43.86,45.626,44.048
					L45.626,44.048z"/>
			</g>
		</g>
		<g>
			<g>
				<path style="&st4;" d="M29.066,42.511c0.614-0.218,1.459-0.596,2.107-0.305c0.483,0.216,0.829,0.827,1.165,1.21
					c0.175,0.2,0.465-0.092,0.291-0.291c-0.402-0.459-0.762-1.057-1.338-1.315c-0.722-0.324-1.654,0.063-2.335,0.304
					C28.708,42.202,28.815,42.6,29.066,42.511L29.066,42.511z"/>
			</g>
		</g>
		<g>
			<g>
				<path style="&st4;" d="M28.892,42.998c1.291-0.126,2.353,0.297,3.475,0.886c0.72,0.378,1.439,0.74,2.273,0.67
					c0.263-0.022,0.265-0.434,0-0.412c-1.019,0.085-1.893-0.54-2.768-0.974c-0.948-0.47-1.923-0.686-2.979-0.582
					C28.63,42.611,28.627,43.024,28.892,42.998L28.892,42.998z"/>
			</g>
		</g>
		<g>
			<g>
				<path style="&st4;" d="M34.761,44.681c-1.299,0.459-2.214-0.616-3.161-1.33c-0.897-0.677-1.805-1.108-2.948-1.005
					c-0.262,0.024-0.265,0.436,0,0.412c1.567-0.141,2.529,0.838,3.688,1.707c0.781,0.586,1.564,0.954,2.53,0.613
					C35.119,44.99,35.012,44.592,34.761,44.681L34.761,44.681z"/>
			</g>
		</g>
		<g>
			<g>
				<path style="&st4;" d="M44.392,45.984c1.204-0.263,2.043-1.066,1.947-2.354c-0.02-0.263-0.432-0.265-0.412,0
					c0.083,1.113-0.612,1.731-1.645,1.957C44.023,45.643,44.134,46.04,44.392,45.984L44.392,45.984z"/>
			</g>
		</g>
		<g>
			<g>
				<path style="&st4;" d="M45.935,43.685c0.176,0.709-0.466,1.028-0.905,1.476c-0.186,0.19,0.105,0.481,0.291,0.291
					c0.584-0.596,1.24-0.954,1.011-1.877C46.268,43.317,45.871,43.427,45.935,43.685L45.935,43.685z"/>
			</g>
		</g>
	</g>
	<g>
		<g>
			<path style="&st3;" d="M8.558,45.705c2.195,0,2.195-3.404,0-3.404S6.362,45.705,8.558,45.705L8.558,45.705z"/>
		</g>
	</g>
</g>
</svg>
