<?xml version="1.0" encoding="utf-8"?>
<!-- Generator: Adobe Illustrator 17.0.0, SVG Export Plug-In . SVG Version: 6.00 Build 0)  -->
<!DOCTYPE svg PUBLIC "-//W3C//DTD SVG 1.1//EN" "http://www.w3.org/Graphics/SVG/1.1/DTD/svg11.dtd" [
	<!ENTITY st0 "fill:#0B1628;">
	<!ENTITY st1 "fill:#00BCA5;">
	<!ENTITY st2 "fill:#3D3D3D;">
	<!ENTITY st3 "fill:#4D4D4D;">
]>
<svg version="1.1" xmlns="http://www.w3.org/2000/svg" xmlns:xlink="http://www.w3.org/1999/xlink" x="0px" y="0px"
	 width="157.181px" height="165.324px" viewBox="0 0 157.181 165.324" style="enable-background:new 0 0 157.181 165.324;"
	 xml:space="preserve">
<g id="Calque_1">
	<g>
		<g>
			<g>
				<path style="&st0;" d="M58.341,62.775c5.151-2.736,10.565-2.736,15.715,0c1.376,0.731,2.597-1.356,1.22-2.088
					c-5.93-3.15-12.226-3.15-18.156,0C55.744,61.418,56.965,63.505,58.341,62.775L58.341,62.775z"/>
			</g>
		</g>
		<g>
			<g>
				<g>
					<path style="&st0;" d="M83.465,56.342c0.03,1.234,0.39,2.292,1.196,3.23c0.648,0.754,1.609,1.226,2.482,1.663
						c1.39,0.696,2.615-1.39,1.22-2.088c-1.276-0.639-2.442-1.222-2.48-2.805C85.845,54.786,83.428,54.782,83.465,56.342
						L83.465,56.342z"/>
				</g>
			</g>
			<g>
				<g>
					<path style="&st0;" d="M88.075,61.357c2.303-0.513,11.159-4.512,12.369-0.844c0.486,1.473,2.821,0.842,2.331-0.643
						c-2.058-6.238-11.449-1.711-15.343-0.844C85.91,59.364,86.556,61.695,88.075,61.357L88.075,61.357z"/>
				</g>
			</g>
		</g>
		<g>
			<g>
				<path style="&st0;" d="M58.702,69.387c4.592-1.359,9.236,0.024,12.352,3.655c0.636,0.741,1.699-0.333,1.068-1.068
					c-3.45-4.021-8.751-5.544-13.822-4.043C57.368,68.206,57.765,69.665,58.702,69.387L58.702,69.387z"/>
			</g>
		</g>
		<g>
			<g>
				<path style="&st1;" d="M85.09,70.838c1.835,8.446,16.557,6.81,17.286-1.439c0.45-5.096-3.953-9.345-8.933-9.068
					C88.105,60.629,84.052,65.632,85.09,70.838c0.125,0.625,1.078,0.36,0.954-0.263c-1.001-5.019,3.146-9.017,7.98-9.287
					c4.454-0.248,8.249,4.563,7.206,8.832c-1.614,6.603-13.655,7.5-15.185,0.455C85.908,69.952,84.955,70.216,85.09,70.838
					L85.09,70.838z"/>
			</g>
		</g>
		<g>
			<g>
				<path style="&st1;" d="M101.895,65.461c0.283,5.843,0.287,11.695,0.288,17.544c0,0.638,0.99,0.638,0.989,0
					c0-5.849-0.005-11.701-0.288-17.544C102.853,64.826,101.864,64.823,101.895,65.461L101.895,65.461z"/>
			</g>
		</g>
		<g>
			<g>
				<path style="&st0;" d="M63.812,73.366c2.306-1.334,4.645-1.21,6.978,0c0.566,0.293,1.066-0.561,0.499-0.854
					c-2.65-1.375-5.355-1.517-7.977,0C62.761,72.831,63.259,73.686,63.812,73.366L63.812,73.366z"/>
			</g>
		</g>
		<g>
			<g>
				<path style="&st0;" d="M96.23,69.283c0-0.096,0-0.192,0-0.288c0-1.812-1.512-3.324-3.324-3.324s-3.324,1.512-3.324,3.324
					c0,0.096,0,0.192,0,0.288c0,1.812,1.512,3.324,3.324,3.324S96.23,71.095,96.23,69.283L96.23,69.283z"/>
			</g>
		</g>
		<g>
			<g>
				<path style="&st0;" d="M48.105,64.886C46.427,51.328,67.002,46.82,76.757,45.581c9.879-1.254,31.514-1.859,34.53,11.078
					c0.442,1.898,3.356,1.093,2.914-0.803c-3.428-14.709-26.01-14.598-37.444-13.297c-11.289,1.285-33.588,6.862-31.674,22.326
					C45.319,66.794,48.344,66.817,48.105,64.886L48.105,64.886z"/>
			</g>
		</g>
		<g>
			<g>
				<path style="&st0;" d="M46.781,63.293c-3.518-1.999-7.373-4.701-6.236-9.236c0.91-3.632,4.939-6.506,7.808-8.494
					c6.976-4.833,14.97-7.257,23.36-8.027c9.733-0.893,19.759,0.343,29.362,1.881c3.601,0.577,7.28,1.289,10.532,3.001
					c4.899,2.58,3.038,7.76,0.981,11.638c-0.912,1.72,1.696,3.247,2.609,1.525c4.321-8.148,2.764-14.526-6.248-17.521
					c-5.255-1.747-11.053-2.203-16.522-2.857c-7.449-0.891-14.949-1.218-22.427-0.532c-10.253,0.94-20.49,5.147-28.084,12.181
					c-7.399,6.853-4.727,14.467,3.339,19.05C46.953,66.867,48.475,64.256,46.781,63.293L46.781,63.293z"/>
			</g>
		</g>
		<g>
			<g>
				<path style="&st0;" d="M114.387,56.176c4.554-3.886,6.455-9.045,1.999-13.791c-4.01-4.27-10.944-6.173-16.585-6.62
					c-1.944-0.154-1.929,2.869,0,3.022c4.407,0.349,8.77,1.779,12.499,4.153c5.114,3.256,4.159,7.507-0.05,11.099
					C110.765,55.306,112.913,57.433,114.387,56.176L114.387,56.176z"/>
			</g>
		</g>
		<g>
			<g>
				<path style="&st0;" d="M105.265,38.211c3.76,0.447,7.446,2.085,9.792,5.145c2.905,3.788,0.499,7.678-2.79,10.159
					c-1.535,1.158-0.032,3.784,1.525,2.609c4.001-3.019,7.388-7.812,4.692-12.899c-2.614-4.934-7.869-7.4-13.22-8.035
					C103.333,34.96,103.355,37.985,105.265,38.211L105.265,38.211z"/>
			</g>
		</g>
		<g>
			<g>
				<path style="&st0;" d="M113.793,56.7c4.219-3.216,7.855-7.424,5.322-12.853c-2.283-4.892-8.992-7.391-13.736-8.891
					c-1.863-0.589-2.654,2.329-0.803,2.914c3.685,1.166,7.299,2.71,10.208,5.315c4.321,3.869,1.203,8.071-2.516,10.905
					C110.74,55.255,112.243,57.881,113.793,56.7L113.793,56.7z"/>
			</g>
		</g>
		<g>
			<g>
				<path style="&st0;" d="M103.619,37.129c3.214,1.374,6.417,2.756,9.364,4.654c4.647,2.993,4.856,6.524,0.73,10.214
					c-1.495,1.337,0.708,3.524,2.194,2.194c3.425-3.063,5.796-7.413,2.59-11.555c-3.219-4.159-8.63-6.184-13.313-8.187
					C103.367,33.672,101.784,36.344,103.619,37.129L103.619,37.129z"/>
			</g>
		</g>
		<g>
			<g>
				<path style="&st0;" d="M48.186,63.348c5.55-10.082,19.15-13.596,29.721-14.89c10.752-1.317,25.07-0.795,33.193,7.431
					c1.371,1.388,3.507-0.75,2.137-2.137c-8.799-8.911-23.665-9.548-35.329-8.316c-11.586,1.224-26.287,5.409-32.33,16.387
					C44.636,63.53,47.246,65.055,48.186,63.348L48.186,63.348z"/>
			</g>
		</g>
		<g>
			<g>
				<path style="&st0;" d="M54.186,53.113c12.088-5.01,24.896-6.844,37.85-7.999c1.93-0.172,1.962-2.899,0-3.022
					c-14.481-0.907-28.24,4.774-40.165,12.573c0.74,0.569,1.48,1.138,2.22,1.706c0.453-2.587,0.467-5.226,1.15-7.765
					c0.418-1.551-1.41-2.402-2.526-1.47c-2.716,2.27-5.349,4.308-7.426,7.208c0.921,0.12,1.841,0.241,2.762,0.361
					c-0.282-1.392-0.454-2.782-0.521-4.2c-0.077-1.63-2.636-2.149-2.968-0.402c-0.325,1.71-0.737,3.261-0.629,5.003
					c0.86-0.356,1.72-0.712,2.579-1.068c-0.97-1.164-1.617-4.478-3.856-3.815c-0.466,0.138-0.972,0.545-1.055,1.055
					c-0.287,1.748-0.287,3.607,0,5.355c0.084,0.511,0.589,0.917,1.055,1.055c0.028,0.008,0.057,0.017,0.085,0.025
					c1.075,0.319,2.211-0.763,1.859-1.859c-0.571-1.776-1.141-3.536-1.878-5.25c-0.701-1.631-3.14-0.432-2.762,1.164
					c0.414,1.745,0.961,3.449,1.438,5.177c0.441,1.597,3.158,1.332,2.968-0.402c-0.153-1.396-0.137-1.981-1.018-3.082
					c-0.347-0.434-0.974-0.478-1.47-0.389c-2.417,0.438-3.028,3.126-0.936,4.487c1.639,1.067,3.152-1.551,1.525-2.609
					c-1.075,0.206-1.449,0.737-1.123,1.592c0.989-0.134,1.979-0.268,2.968-0.402c-0.477-1.728-1.024-3.432-1.438-5.177
					c-0.921,0.388-1.841,0.776-2.762,1.164c0.631,1.47,1.084,3.008,1.573,4.528c0.62-0.62,1.239-1.239,1.859-1.859
					c1.573,0.466,0.88-0.652,0.918-2.079c-1.392,0.459-1.714,1.145-0.967,2.058c0.275,0.601,0.472,0.906,0.881,1.396
					c0.837,1.005,2.658,0.196,2.579-1.068c-0.094-1.515,0.244-2.739,0.521-4.2c-0.989-0.134-1.979-0.268-2.968-0.402
					c0.08,1.693,0.293,3.343,0.629,5.003c0.284,1.403,2.07,1.327,2.762,0.361c1.923-2.686,4.455-4.508,6.954-6.597
					c-0.842-0.49-1.684-0.98-2.526-1.47c-0.692,2.571-0.692,5.149-1.15,7.765c-0.211,1.201,1.007,2.5,2.22,1.706
					c11.515-7.531,24.647-13.037,38.639-12.161c0-1.007,0-2.015,0-3.022c-13.208,1.178-26.32,2.996-38.653,8.107
					C51.609,50.934,52.385,53.859,54.186,53.113L54.186,53.113z"/>
			</g>
		</g>
		<g>
			<g>
				<path style="&st0;" d="M40.861,57.869c-3.887-9.28,11.964-14.209,18.214-16.548c1.808-0.677,1.026-3.599-0.803-2.914
					c-7.799,2.918-25.12,8.818-20.325,20.266C38.688,60.442,41.613,59.666,40.861,57.869L40.861,57.869z"/>
			</g>
		</g>
		<g>
			<g>
				<path style="&st0;" d="M38.674,56.733c1.376,1.843,2.519,3.675,4.263,5.195c0.867,0.756,2.765,0.366,2.579-1.068
					c-0.197-1.52-0.549-2.937-0.917-4.428c-0.921,0.388-1.841,0.776-2.762,1.164c0.51,0.858,1.012,1.685,1.438,2.588
					c0.676,1.435,2.772,0.637,2.816-0.763c0.078-0.633,0.156-1.266,0.234-1.899c0.11-0.502,0.027-1.114-0.389-1.47
					c-0.084-0.072-0.168-0.144-0.252-0.216c-0.772-0.662-2.323-0.55-2.526,0.667c-0.099,0.592-0.09,1.169-0.09,1.768
					c0,1.75,2.447,1.999,2.968,0.402c1.033-3.168,1.99-6.348,3.299-9.418c0.671-1.573-1.004-2.98-2.373-1.831
					c-1.31,1.099-2.737,2.04-4.026,3.164c0.712,0.712,1.425,1.425,2.137,2.137c2.017-2.115,3.907-4.325,6.04-6.327
					c1.424-1.337-0.714-3.464-2.137-2.137c-1.789,1.669-3.676,3.22-5.465,4.889c0.712,0.712,1.425,1.425,2.137,2.137
					c1.564-1.794,3.21-3.491,4.889-5.177c-0.791-0.61-1.582-1.221-2.373-1.831c-2.285,3.699-3.717,7.653-4.754,11.865
					c-0.333,1.352,1.527,2.726,2.526,1.47c2.225-2.798,4.377-5.613,6.276-8.646c-0.87-0.508-1.74-1.017-2.609-1.525
					c-1.501,2.458-2.914,4.961-4.314,7.478c-0.814,1.463,1.203,3.149,2.373,1.831c3.231-3.64,6.018-7.496,8.289-11.81
					c0.782-1.486-1.149-3.109-2.373-1.831c-2.305,2.405-4.231,4.955-5.988,7.784c-0.777,1.25,0.799,2.932,2.067,2.067
					c2.858-1.949,4.541-4.031,6.007-7.157c0.816-1.739-1.599-3.226-2.609-1.525c-0.882,1.485-1.907,2.885-2.876,4.314
					c-1.11,1.637,1.475,3.058,2.609,1.525c1.306-1.763,1.964-3.123,2.453-5.25c0.192-0.836-0.249-1.59-1.055-1.859
					c-0.288-0.096-0.575-0.192-0.863-0.288c-0.807-0.269-1.616,0.305-1.859,1.055c-0.558,1.729-1.055,3.487-1.726,5.177
					c-0.591,1.488,1.514,2.432,2.526,1.47c3.228-3.068,3.76-3.644,2.689-8.085c-0.313-1.299-2.109-1.452-2.762-0.361
					c-0.731,1.221-1.595,3.471-1.303,4.903c0.206,1.012,1.402,1.311,2.22,0.903c3.699-1.847,4.808-2.346,5.584-6.655
					c0.341-1.897-2.53-2.723-2.914-0.803c-0.383,1.917-0.767,3.835-1.15,5.752c-0.269,1.347,1.475,2.731,2.526,1.47
					c1.452-1.743,2.699-3.425,3.688-5.483c0.734-1.527-1.076-3.043-2.373-1.831c-1.495,1.397-2.604,2.89-3.688,4.62
					c-0.68,1.086,0.447,2.657,1.706,2.22c3.443-1.196,6.472-2.657,9.295-4.99c0.965-0.797,0.219-2.746-1.068-2.579
					c-3.054,0.395-5.738,1.204-8.528,2.507c-1.666,0.778-0.4,3.028,1.164,2.762c5.469-0.932,10.917-1.986,16.394-2.876
					c1.745-0.283,1.232-2.913-0.402-2.968c-4.66-0.156-9.004,0.641-13.344,2.355c-1.836,0.725-1.119,3.181,0.803,2.914
					c4.793-0.664,9.354-1.792,13.591-4.179c1.361-0.767,0.692-2.749-0.763-2.816c-3.185-0.147-5.968,0.377-9.03,1.204
					c-1.463,0.395-1.423,2.5,0,2.914c3.826,1.114,7.089,1,10.87-0.288c1.297-0.442,1.581-2.625,0-2.914
					c-3.98-0.728-7.099-0.728-10.87,0.863c-1.544,0.652-1.388,2.842,0.402,2.968c3.412,0.241,6.554,0.099,9.893-0.629
					c1.399-0.305,1.495-2.687,0-2.914c-4.834-0.733-9.014,0.349-13.244,2.741c-1.26,0.712-0.767,2.926,0.763,2.816
					c6.761-0.485,13.325-2.365,20.132-2.301c1.666,0.016,2.113-2.68,0.402-2.968c-6.586-1.107-13.431-1.532-18.996,2.741
					c-1.065,0.818-0.908,2.92,0.763,2.816c3.932-0.244,7.779-0.229,11.618-1.204c1.94-0.493,1.066-3.181-0.803-2.914
					c-7.197,1.026-13.848,3.31-19.918,7.342c-1.609,1.069-0.161,3.62,1.525,2.609c10.542-6.321,22.171-8.501,34.325-6.984
					c1.618,0.202,1.881-2.068,0.763-2.816c-5.211-3.48-10.844-5.473-17.156-4.808c-1.559,0.164-2.214,2.661-0.402,2.968
					c4.88,0.828,9.788,1.473,14.668,2.301c1.892,0.321,2.73-2.524,0.803-2.914c-5.657-1.144-11.186-1.346-16.909-0.575
					c-1.75,0.236-1.227,2.913,0.402,2.968c8.527,0.29,16.9,0.776,24.908,3.973c1.411,0.563,2.569-1.563,1.47-2.526
					c-2.458-2.154-4.919-4.293-7.478-6.327c-1.486-1.181-3.583,0.763-2.137,2.137c1.686,1.601,3.042,3.46,4.602,5.177
					c0.356-0.86,0.712-1.72,1.068-2.579c-2.443,0.079-4.934,0.489-7.364,0.054c-1.893-0.339-2.695,2.343-0.803,2.914
					c4.836,1.46,9.752,2.588,14.668,3.739c1.716,0.402,2.566-1.799,1.164-2.762c-3.84-2.639-7.637-3.516-12.267-3.37
					c-1.764,0.056-1.982,2.394-0.402,2.968c2.687,0.976,5.293,2.114,8.053,2.876c0.134-0.989,0.268-1.979,0.402-2.968
					c-1.934-0.006-3.831-0.05-5.752-0.288c-1.734-0.215-1.991,2.52-0.402,2.968c1.53,0.431,3.072,0.719,4.602,1.15
					c0.268-0.971,0.536-1.943,0.803-2.914c-3.813-0.945-6.915-2.631-9.975-5.076c-0.356,0.86-0.712,1.72-1.068,2.579
					c4.334,0.004,8.633,0.079,12.942,0.575c1.71,0.197,2.034-2.583,0.402-2.968c-3.95-0.932-7.72-2.288-11.504-3.739
					c-0.268,0.971-0.536,1.943-0.803,2.914c5.187,1.666,10.445,2.853,15.818,3.739c1.554,0.256,2.848-2.007,1.164-2.762
					c-2.008-0.9-4.071-1.636-6.113-2.453c-1.4-0.56-2.591,1.575-1.47,2.526c2.38,2.02,4.804,3.825,7.496,5.413
					c0.388-0.921,0.776-1.841,1.164-2.762c-1.388-0.564-2.746-1.259-3.953-2.149c-1.387-1.023-3.102,1.243-1.831,2.373
					c1.48,1.316,3.122,2.423,4.602,3.739c1.285,1.143,3.188-0.285,2.373-1.831c-0.592-1.124-1.458-2.162-1.861-3.378
					c-0.842,0.49-1.684,0.98-2.526,1.47c1.691,1.593,3.448,3.056,4.889,4.889c0.945,1.202,2.987-0.095,2.526-1.47
					c-0.44-1.312-0.842-3.134-1.827-4.118c-1.209-1.209-3.276,0.351-2.373,1.831c0.903,1.482,1.775,2.907,2.436,4.528
					c0.734,1.799,3.238,1.139,2.914-0.803c-0.213-1.277-1.084-2.192-1.438-3.451c-0.921,0.388-1.841,0.776-2.762,1.164
					c0.771,1.26,1.439,2.539,2.301,3.739c0.791-0.61,1.582-1.221,2.373-1.831c-1.698-1.759-3.35-3.548-5.177-5.177
					c-1.445-1.289-3.522,0.745-2.137,2.137c1.202,1.208,2.373,2.419,3.451,3.739c0.61-0.791,1.221-1.582,1.831-2.373
					c-1.85-0.822-3.651-1.716-5.538-2.453c-1.718-0.671-2.436,1.832-1.164,2.762c1.652,1.209,3.363,2.217,5.177,3.164
					c1.262,0.659,2.957-0.733,2.067-2.067c-1.15-1.726-2.301-3.451-3.451-5.177c-0.791,0.61-1.582,1.221-2.373,1.831
					c2.011,1.647,3.975,3.273,5.752,5.177c1.216,1.303,3.137-0.352,2.373-1.831c-0.945-1.829-1.931-3.636-2.876-5.465
					c-0.87,0.508-1.74,1.017-2.609,1.525c1.49,2.763,2.276,5.534,3.011,8.555c0.74-0.569,1.48-1.138,2.22-1.706
					c-0.986-0.571-1.348-0.843-2.403-0.888c-1.489-0.063-2.083,2.121-0.763,2.816c0.067,0.036,0.135,0.071,0.202,0.107
					c1.723,0.907,3.25-1.702,1.525-2.609c-0.067-0.036-0.135-0.071-0.202-0.107c-0.254,0.939-0.508,1.877-0.763,2.816
					c0.293,0.158,0.585,0.317,0.878,0.475c1.173,0.68,2.531-0.43,2.22-1.706c-0.806-3.311-1.695-6.271-3.316-9.277
					c-0.928-1.72-3.501-0.2-2.609,1.525c0.945,1.829,1.931,3.636,2.876,5.465c0.791-0.61,1.582-1.221,2.373-1.831
					c-1.777-1.904-3.741-3.529-5.752-5.177c-1.241-1.016-3.393,0.301-2.373,1.831c1.15,1.726,2.301,3.451,3.451,5.177
					c0.689-0.689,1.378-1.378,2.067-2.067c-1.814-0.947-3.525-1.955-5.177-3.164c-0.388,0.921-0.776,1.841-1.164,2.762
					c1.642,0.641,3.208,1.434,4.816,2.149c1.589,0.706,2.944-1.011,1.831-2.373c-1.078-1.32-2.249-2.531-3.451-3.739
					c-0.712,0.712-1.425,1.425-2.137,2.137c1.826,1.629,3.479,3.418,5.177,5.177c1.17,1.212,3.39-0.415,2.373-1.831
					c-0.862-1.2-1.53-2.479-2.301-3.739c-0.888-1.452-3.232-0.51-2.762,1.164c0.333,1.184,1.24,2.266,1.438,3.451
					c0.971-0.268,1.943-0.536,2.914-0.803c-0.757-1.858-1.695-3.535-2.741-5.25c-0.791,0.61-1.582,1.221-2.373,1.831
					c-0.316-0.316,0.826,2.12,1.049,2.785c0.842-0.49,1.684-0.98,2.526-1.47c-1.441-1.833-3.198-3.296-4.889-4.889
					c-1.05-0.989-3.022-0.027-2.526,1.47c0.499,1.506,1.43,2.705,2.166,4.1c0.791-0.61,1.582-1.221,2.373-1.831
					c-1.48-1.316-3.122-2.423-4.602-3.739c-0.61,0.791-1.221,1.582-1.831,2.373c1.425,1.05,3.041,1.789,4.675,2.453
					c1.625,0.66,2.596-1.917,1.164-2.762c-2.458-1.45-4.705-3.092-6.884-4.941c-0.49,0.842-0.98,1.684-1.47,2.526
					c1.796,0.719,3.624,1.357,5.391,2.149c0.388-0.921,0.776-1.841,1.164-2.762c-5.373-0.886-10.631-2.073-15.818-3.739
					c-1.885-0.605-2.586,2.231-0.803,2.914c3.785,1.451,7.554,2.807,11.504,3.739c0.134-0.989,0.268-1.979,0.402-2.968
					c-4.31-0.496-8.608-0.571-12.942-0.575c-1.213-0.001-2.142,1.722-1.068,2.579c3.469,2.772,6.978,4.78,11.308,5.853
					c1.892,0.469,2.68-2.386,0.803-2.914c-1.53-0.431-3.072-0.719-4.602-1.15c-0.134,0.989-0.268,1.979-0.402,2.968
					c1.921,0.238,3.818,0.282,5.752,0.288c1.714,0.005,2.048-2.513,0.402-2.968c-2.76-0.762-5.366-1.9-8.053-2.876
					c-0.134,0.989-0.268,1.979-0.402,2.968c4.046-0.128,7.385,0.651,10.742,2.957c0.388-0.921,0.776-1.841,1.164-2.762
					c-4.916-1.151-9.832-2.279-14.668-3.739c-0.268,0.971-0.536,1.943-0.803,2.914c2.731,0.489,5.414,0.143,8.167,0.054
					c1.348-0.044,1.96-1.598,1.068-2.579c-1.559-1.717-2.916-3.576-4.602-5.177c-0.712,0.712-1.425,1.425-2.137,2.137
					c2.558,2.034,5.02,4.174,7.478,6.327c0.49-0.842,0.98-1.684,1.47-2.526c-8.261-3.298-16.918-3.782-25.711-4.08
					c0.134,0.989,0.268,1.979,0.402,2.968c5.184-0.699,10.179-0.461,15.303,0.575c0.268-0.971,0.536-1.943,0.803-2.914
					c-4.88-0.828-9.788-1.473-14.668-2.301c-0.134,0.989-0.268,1.979-0.402,2.968c5.838-0.615,10.82,1.182,15.631,4.395
					c0.254-0.939,0.508-1.877,0.763-2.816c-12.656-1.58-24.894,0.827-35.851,7.396c0.508,0.87,1.017,1.74,1.525,2.609
					c5.86-3.893,12.261-6.049,19.196-7.038c-0.268-0.971-0.536-1.943-0.803-2.914c-3.573,0.908-7.164,0.87-10.815,1.096
					c0.254,0.939,0.508,1.877,0.763,2.816c4.927-3.783,10.849-3.414,16.667-2.436c0.134-0.989,0.268-1.979,0.402-2.968
					c-6.823-0.064-13.36,1.815-20.132,2.301c0.254,0.939,0.508,1.877,0.763,2.816c3.477-1.966,6.884-3.048,10.915-2.436
					c0-0.971,0-1.943,0-2.914c-3.076,0.67-5.972,0.741-9.089,0.521c0.134,0.989,0.268,1.979,0.402,2.968
					c3.25-1.371,5.788-1.498,9.263-0.863c0-0.971,0-1.943,0-2.914c-3.216,1.095-5.96,1.25-9.263,0.288c0,0.971,0,1.943,0,2.914
					c2.768-0.748,5.349-1.229,8.226-1.096c-0.254-0.939-0.508-1.877-0.763-2.816c-4.022,2.266-8.338,3.246-12.869,3.874
					c0.268,0.971,0.536,1.943,0.803,2.914c4.084-1.613,8.133-2.394,12.541-2.247c-0.134-0.989-0.268-1.979-0.402-2.968
					c-5.477,0.89-10.924,1.944-16.394,2.876c0.388,0.921,0.776,1.841,1.164,2.762c2.433-1.136,4.347-1.751,7.003-2.095
					c-0.356-0.86-0.712-1.72-1.068-2.579c-2.432,2.01-4.993,3.182-7.961,4.213c0.569,0.74,1.138,1.48,1.706,2.22
					c0.931-1.486,1.932-2.81,3.215-4.008c-0.791-0.61-1.582-1.221-2.373-1.831c-0.906,1.886-1.839,3.22-3.215,4.871
					c0.842,0.49,1.684,0.98,2.526,1.47c0.383-1.917,0.767-3.835,1.15-5.752c-0.971-0.268-1.943-0.536-2.914-0.803
					c-0.577,3.207-1.509,3.508-4.195,4.849c0.74,0.301,1.48,0.602,2.22,0.903c0.014,0.068,0.745-2.152,0.998-2.575
					c-0.921-0.12-1.841-0.241-2.762-0.361c0.737,3.057,0.298,3.044-1.912,5.145c0.842,0.49,1.684,0.98,2.526,1.47
					c0.671-1.69,1.167-3.448,1.726-5.177c-0.62,0.352-1.239,0.704-1.859,1.055c0.288,0.096,0.575,0.192,0.863,0.288
					c-0.352-0.62-0.704-1.239-1.055-1.859c-0.425,1.85-1.029,3.016-2.149,4.528c0.87,0.508,1.74,1.017,2.609,1.525
					c0.969-1.429,1.994-2.829,2.876-4.314c-0.87-0.508-1.74-1.017-2.609-1.525c-1.236,2.636-2.48,4.407-4.922,6.073
					c0.689,0.689,1.378,1.378,2.067,2.067c1.613-2.596,3.4-4.964,5.516-7.172c-0.791-0.61-1.582-1.221-2.373-1.831
					c-2.148,4.08-4.755,7.749-7.817,11.198c0.791,0.61,1.582,1.221,2.373,1.831c1.4-2.516,2.813-5.02,4.314-7.478
					c1.02-1.67-1.579-3.172-2.609-1.525c-1.762,2.814-3.737,5.436-5.803,8.035c0.842,0.49,1.684,0.98,2.526,1.47
					c0.974-3.955,2.298-7.661,4.449-11.143c0.912-1.476-1.169-3.04-2.373-1.831c-1.68,1.686-3.326,3.383-4.889,5.177
					c-1.273,1.461,0.7,3.477,2.137,2.137c1.789-1.669,3.676-3.22,5.465-4.889c-0.712-0.712-1.425-1.425-2.137-2.137
					c-2.132,2.002-4.023,4.212-6.04,6.327c-1.358,1.424,0.678,3.407,2.137,2.137c1.29-1.124,2.717-2.065,4.026-3.164
					c-0.791-0.61-1.582-1.221-2.373-1.831c-1.413,3.313-2.488,6.718-3.604,10.14c0.989,0.134,1.979,0.268,2.968,0.402
					c0.006-0.322,0-0.643-0.018-0.964c-0.842,0.222-1.684,0.445-2.526,0.667c-0.744-0.637-0.481,1.533-0.479,1.448
					c0.939-0.254,1.877-0.508,2.816-0.763c-0.426-0.904-0.928-1.731-1.438-2.588c-0.887-1.492-3.171-0.496-2.762,1.164
					c0.313,1.198,0.583,2.407,0.809,3.625c0.86-0.356,1.72-0.712,2.579-1.068c-1.53-1.334-2.581-2.964-3.79-4.583
					C40.132,53.665,37.507,55.169,38.674,56.733L38.674,56.733z"/>
			</g>
		</g>
		<g>
			<g>
				<path style="&st0;" d="M112.342,49.355c-0.002,0.105-0.061,0.648,0.001,0.193c-0.027,0.199-0.063,0.396-0.099,0.594
					c-0.064,0.355-0.138,0.709-0.192,1.066c-0.081,0.539-0.144,1.041,0.153,1.542c0.571,0.963,1.719,0.934,2.498,0.292
					c0.653-0.539,0.555-1.639,0-2.194c-0.641-0.641-1.542-0.537-2.194,0c-0.008,0.007-0.017,0.014-0.025,0.021
					c0.228-0.133,0.456-0.266,0.685-0.399c-0.007,0.002-0.013,0.005-0.02,0.007c0.275,0,0.55,0,0.825,0
					c-0.005-0.002-0.01-0.004-0.015-0.006c0.309,0.238,0.618,0.475,0.927,0.713c0.326,0.55,0.171,0.948,0.197,0.583
					c0.021-0.286-0.065,0.425-0.01,0.09c0.042-0.257,0.094-0.513,0.142-0.769c0.106-0.569,0.219-1.152,0.231-1.731
					c0.017-0.846-0.719-1.552-1.552-1.552C113.035,47.803,112.359,48.51,112.342,49.355L112.342,49.355z"/>
			</g>
		</g>
		<g>
			<g>
				<path style="&st0;" d="M48.33,38.426c-0.724-15.478,10.64-27.44,25.309-30.612c17.002-3.676,32.81,9.476,31.482,27.167
					c-0.153,2.032,3.006,2.017,3.157,0c1.428-19.023-15.005-33.024-33.259-30.583c-16.952,2.268-30.66,16.614-29.846,34.028
					C45.268,40.453,48.425,40.462,48.33,38.426L48.33,38.426z"/>
			</g>
		</g>
		<g>
			<g>
				<path style="&st0;" d="M47.678,40.652c9.174-5.38,20.332-4.472,30.552-5.537c2.004-0.209,2.024-3.368,0-3.157
					c-10.808,1.126-22.44,0.276-32.146,5.968C44.33,38.955,45.918,41.684,47.678,40.652L47.678,40.652z"/>
			</g>
		</g>
		<g>
			<g>
				<path style="&st0;" d="M49.554,37.695c1.39-8.461,6.812-14.864,12.249-21.161c-0.744-0.744-1.488-1.488-2.233-2.233
					c-0.709,0.847-1.49,1.551-2.301,2.301c-1.498,1.385,0.741,3.613,2.233,2.233c0.811-0.75,1.591-1.454,2.301-2.301
					c1.294-1.544-0.894-3.782-2.233-2.233c-5.767,6.679-11.586,13.58-13.061,22.555C46.183,38.847,49.225,39.701,49.554,37.695
					L49.554,37.695z"/>
			</g>
		</g>
		<g>
			<g>
				<path style="&st0;" d="M69.315,30.485c6.821,0,6.821-10.577,0-10.577S62.494,30.485,69.315,30.485L69.315,30.485z"/>
			</g>
		</g>
		<g>
			<g>
				<path style="&st0;" d="M65.576,34.803c14.616,0,14.616-22.665,0-22.665S50.96,34.803,65.576,34.803L65.576,34.803z"/>
			</g>
		</g>
		<g>
			<g>
				<path style="&st0;" d="M65.863,29.047c5.694-0.532,11.404-1.076,17.001,0.386c6.657,1.74,9.213-8.013,2.812-10.199
					c-3.237-1.106-6.249-2.7-9.378-4.069c0.357,2.769,0.714,5.537,1.07,8.306c-0.507,0.63,1.38-1.052,1.726-1.438
					c2.754-3.074,1.512-7.497-2.334-8.839c-1.802-0.629-3.662-0.809-5.465-1.438c0.421,3.222,0.842,6.444,1.263,9.666
					c1.102-0.476,2.126-0.793,3.164-1.438c3.837-2.383,3.253-8.441-1.263-9.666C60.845,6.624,53.2,18.649,46.917,28.567
					c-2.434,3.843,1.584,9.212,5.972,7.769c13.819-4.545,27.158-3.257,40.904,0.863c0.937-3.4,1.875-6.8,2.812-10.199
					c-4.882-0.887-9.688-1.298-14.636-0.764c-6.135,0.662-6.956,8.058-1.406,10.388c4.355,1.828,9.553,2.834,13.865,0.38
					c5.096-2.9,3.656-9.194,1.31-13.326c-3.044,1.78-6.089,3.559-9.133,5.339c2.139,3.19,4.855,5.74,7.442,8.548
					c2.44,2.649,6.472,1.632,8.306-1.07c0.832-1.226,0.747-2.226,1.108-3.564c-3.222,0.421-6.444,0.842-9.666,1.263
					c0.761,1.288,1.403,2.538,2.301,3.739c2.887,3.861,7.847,3.142,9.666-1.263c0.627-1.519,0.096-2.78,0.189-4.282
					c-3.285,0.89-6.57,1.78-9.855,2.669c0.11,0.346,0.22,0.692,0.33,1.038c1.887,6.708,11.248,3.773,10.199-2.812
					c-2.612-16.394-19.671-27.424-35.554-21.813c1.991,0.81,3.982,1.62,5.972,2.43c-0.581-1.127-1.464-2.106-2.265-3.084
					c-1.247,3.009-2.493,6.019-3.74,9.028c4.731-0.278,9.531-0.579,14.158,0.624c4.975,1.293,8.103,5.509,10.611,9.699
					c2.565,4.286,10.262,2.772,9.855-2.669C103.65,0.526,58.4,0.481,56.548,27.785c-0.462,6.812,10.118,6.767,10.577,0
					c0.924-13.624,26.973-13.53,27.962-0.288c3.285-0.89,6.57-1.78,9.855-2.669c-3.357-5.609-7.584-10.717-13.712-13.361
					c-6.38-2.752-13.382-2.601-20.191-2.201c-4.846,0.285-6.681,5.439-3.74,9.028c0.257,0.314,0.423,0.577,0.611,0.943
					c1.022,1.984,3.844,3.182,5.972,2.43c10.885-3.846,20.792,3.436,22.543,14.425c3.4-0.937,6.8-1.875,10.199-2.812
					c-0.354-1.257-0.842-2.383-1.396-3.564c-2.405-5.131-9.558-2.126-9.855,2.669c-0.037,0.601-0.421,2.947,0.189,1.47
					c3.222-0.421,6.444-0.842,9.666-1.263c-0.898-1.201-1.539-2.451-2.301-3.739c-2.318-3.921-8.464-3.184-9.666,1.263
					c-0.292,1.082-1.462,3.129-0.042,1.038c2.769-0.357,5.537-0.714,8.306-1.07c-1.95-2.117-4.178-4.006-5.788-6.407
					c-3.767-5.617-12.533-0.65-9.133,5.339c1.436,2.529,3.507-0.817,1.291-1.144c-1.568-0.231-3.072-0.84-4.522-1.449
					c-0.469,3.463-0.937,6.926-1.406,10.388c3.989-0.43,7.872-0.331,11.824,0.386c6.627,1.203,9.433-8.215,2.812-10.199
					c-15.433-4.625-31.027-5.961-46.528-0.863c1.991,2.59,3.982,5.179,5.972,7.769c3.318-5.237,7.953-15.462,15.598-13.388
					c-0.421-3.222-0.842-6.444-1.263-9.666c-0.981,0.609-2.108,0.983-3.164,1.438c-4.597,1.984-2.546,8.337,1.263,9.666
					c1.802,0.629,3.662,0.809,5.465,1.438c-0.778-2.946-1.556-5.893-2.334-8.839c-0.251,0.28-1.307,0.918-1.726,1.438
					c-1.901,2.362-2.343,6.813,1.07,8.306c3.968,1.736,7.797,3.732,11.905,5.135c0.937-3.4,1.875-6.8,2.812-10.199
					c-6.555-1.713-13.132-1.388-19.813-0.764C59.132,19.099,59.071,29.681,65.863,29.047L65.863,29.047z"/>
			</g>
		</g>
		<g>
			<g>
				<path style="&st0;" d="M57.848,80.277c-1.912,1.015-3.065,2.864-3.121,5.029c-0.017,0.638,0.973,0.637,0.989,0
					c0.047-1.829,1.025-3.322,2.631-4.174C58.912,80.832,58.412,79.978,57.848,80.277L57.848,80.277z"/>
			</g>
		</g>
		<g>
			<g>
				<path style="&st0;" d="M56.31,81.441c-1.037,1.075-1.907,2.244-2.086,3.761c-0.179,1.51,1.042,2.669,2.186,3.407
					c0.538,0.347,1.034-0.51,0.499-0.854c-0.957-0.617-1.71-1.347-1.696-2.553c0.014-1.178,1.04-2.277,1.796-3.061
					C57.453,81.681,56.754,80.981,56.31,81.441L56.31,81.441z"/>
			</g>
		</g>
		<g>
			<g>
				<path style="&st0;" d="M55.26,88.034c3.091,1.592,6.487,1.708,9.872,1.2c0.629-0.094,0.361-1.048-0.263-0.954
					c-3.102,0.465-6.273,0.36-9.11-1.101C55.193,86.888,54.693,87.742,55.26,88.034L55.26,88.034z"/>
			</g>
		</g>
		<g>
			<g>
				<path style="&st0;" d="M55.015,83.868c0.141,1.854,0.046,3.199,0.93,4.851c0.269,0.502,1.048,0.154,0.904-0.381
					c-0.342-1.273-0.844-2.949-1.781-3.885c-0.452-0.452-1.151,0.248-0.7,0.7c1.173,1.173,1.866,2.766,3.092,3.955
					c0.396,0.384,1.088-0.116,0.777-0.6c-0.819-1.275-1.529-2.452-2.766-3.341c-0.488-0.351-0.933,0.376-0.6,0.777
					c0.984,1.183,1.98,2.179,3.164,3.164c0.492,0.409,1.111-0.208,0.7-0.7c-0.271-0.325-3.932-4.631-2.215-1.701
					c0.285-0.166,0.57-0.333,0.854-0.499c-0.367-0.728-0.734-1.455-1.101-2.183c-0.301,0.127-0.603,0.254-0.904,0.381
					c0.26,0.503,0.537,0.974,0.863,1.438c0.285-0.166,0.57-0.333,0.854-0.499c-1.024-1.418-0.127,0.376,1.048,0.835
					c0.979,0.382,2.678,0.092,3.702,0.197c-0.044-0.324-0.088-0.648-0.132-0.972c-1.05,0.405-2.205,0.476-3.32,0.558
					c0.044,0.324,0.088,0.648,0.132,0.972c6.795-2.295,16.938-6.444,19.524,3.393c0.162,0.617,1.117,0.355,0.954-0.263
					c-2.741-10.429-13.239-6.618-20.741-4.084c-0.504,0.17-0.452,1.014,0.132,0.972c1.187-0.087,2.468-0.163,3.583-0.593
					c0.531-0.205,0.433-0.914-0.132-0.972c-2.663-0.272-3.844-0.243-6.078-1.946c-0.404-0.308-0.929,0.279-0.677,0.677
					c0.349,0.599,0.732,1.174,1.15,1.726c0.369,0.51,1.223,0.026,0.854-0.499c-0.326-0.464-0.602-0.935-0.863-1.438
					c-0.255-0.492-1.117-0.142-0.904,0.381c0.554,1.363,0.428,1.118,1.2,2.419c0.325,0.548,1.178,0.052,0.854-0.499
					c-0.463-0.791-1.113-1.44-1.903-1.903c-0.408-0.239-0.969,0.256-0.677,0.677c1.009,1.451,2.106,2.769,3.241,4.127
					c0.233-0.233,0.466-0.466,0.7-0.7c-1.183-0.984-2.179-1.98-3.164-3.164c-0.2,0.259-0.4,0.518-0.6,0.777
					c0.952,0.884,1.755,1.88,2.411,2.986c0.259-0.2,0.518-0.4,0.777-0.6c-1.303-1.264-1.884-2.747-3.092-3.955
					c-0.452-0.452-1.151,0.248-0.7,0.7c0.602,1.107,1.111,2.257,1.527,3.449c0.301-0.127,0.603-0.254,0.904-0.381
					c-0.479-1.419-0.744-2.869-0.795-4.352C55.956,83.236,54.967,83.231,55.015,83.868L55.015,83.868z"/>
			</g>
		</g>
		<g>
			<g>
				<path style="&st0;" d="M55.735,88.532c2.539,2.083,5.659,2.704,8.822,1.853c0.616-0.166,0.354-1.12-0.263-0.954
					c-2.803,0.754-5.598,0.257-7.859-1.598C55.946,87.431,55.241,88.127,55.735,88.532L55.735,88.532z"/>
			</g>
		</g>
		<g>
			<g>
				<path style="&st0;" d="M62.125,90.69c2.263,0.038,4.378,0.571,6.365,1.658c0.56,0.306,1.059-0.548,0.499-0.854
					c-2.134-1.168-4.435-1.753-6.865-1.793C61.486,89.69,61.487,90.679,62.125,90.69L62.125,90.69z"/>
			</g>
		</g>
		<g>
			<g>
				<path style="&st0;" d="M68.102,92.271c2.488,2.368,5.538,3.23,8.652,1.515c0.559-0.308,0.06-1.162-0.499-0.854
					c-2.728,1.502-5.298,0.691-7.453-1.361C68.34,91.131,67.639,91.83,68.102,92.271L68.102,92.271z"/>
			</g>
		</g>
		<g>
			<g>
				<path style="&st0;" d="M72.191,95.579c2.404-0.06,4.505-1.15,5.892-3.121c0.368-0.523-0.49-1.017-0.854-0.499
					c-1.178,1.675-3.003,2.58-5.037,2.631C71.554,94.606,71.552,95.595,72.191,95.579L72.191,95.579z"/>
			</g>
		</g>
		<g>
			<g>
				<path style="&st0;" d="M75.317,95.799c2.238-1.466,3.434-3.669,2.528-6.311c-0.206-0.6-1.162-0.342-0.954,0.263
					c0.76,2.216-0.191,3.961-2.073,5.193C74.286,95.293,74.781,96.15,75.317,95.799L75.317,95.799z"/>
			</g>
		</g>
		<g>
			<g>
				<path style="&st0;" d="M67.052,92.348c2.275,1.111,4.627,2.053,6.903,3.164c0.57,0.278,1.071-0.568,0.499-0.854
					c-1.342-0.671-2.684-1.342-4.026-2.013c-0.568-0.284-1.069,0.563-0.499,0.854c1.139,0.582,2.322,1.454,3.569,1.776
					c0.525,0.135,0.911-0.679,0.381-0.904c-0.78-0.332-1.585-0.742-2.419-0.913c-0.567-0.116-0.835,0.576-0.381,0.904
					c1.189,0.859,2.155,0.967,3.569,1.2c0.619,0.102,0.894-0.83,0.263-0.954c-1.675-0.328-3.062-1.038-4.484-1.963
					c-0.127,0.301-0.254,0.603-0.381,0.904c2.587,0.396,4.773-0.25,7.322-0.558c-0.142-0.248-0.285-0.496-0.427-0.744
					c-0.258,0.411-1.299,1.645-0.879,1.786c0.073,0.276,0.146,0.551,0.218,0.827c0.776-0.725,1.826-1.458,2.14-2.519
					c0.182-0.613-0.773-0.873-0.954-0.263c-0.246,0.831-1.277,1.514-1.886,2.083c-0.286,0.267-0.119,0.714,0.218,0.827
					c0.013,0.005,0.027,0.009,0.04,0.014c0.163,0.055,0.364-0.007,0.481-0.127c0.593-0.61,1.025-1.409,1.475-2.127
					c0.183-0.292-0.05-0.79-0.427-0.744c-2.408,0.291-4.607,0.968-7.059,0.593c-0.542-0.083-0.876,0.582-0.381,0.904
					c1.508,0.981,2.946,1.716,4.72,2.063c0.088-0.318,0.175-0.636,0.263-0.954c-1.247-0.206-2.264-0.328-3.333-1.101
					c-0.127,0.301-0.254,0.603-0.381,0.904c0.751,0.154,1.48,0.514,2.183,0.813c0.127-0.301,0.254-0.603,0.381-0.904
					c-1.157-0.298-2.275-1.135-3.333-1.676c-0.166,0.285-0.333,0.57-0.499,0.854c1.342,0.671,2.684,1.342,4.026,2.013
					c0.166-0.285,0.333-0.57,0.499-0.854c-2.275-1.111-4.627-2.053-6.903-3.164C66.98,91.215,66.478,92.068,67.052,92.348
					L67.052,92.348z"/>
			</g>
		</g>
		<g>
			<g>
				<path style="&st0;" d="M71.328,90.115c0.638,0,0.638-0.989,0-0.989C70.69,89.125,70.69,90.115,71.328,90.115L71.328,90.115z"/>
			</g>
		</g>
		<g>
			<g>
				<path style="&st0;" d="M69.463,93.321c1.009,1.561,2.769,2.262,4.585,1.953c0.628-0.107,0.361-1.06-0.263-0.954
					c-1.36,0.231-2.717-0.337-3.468-1.498C69.972,92.288,69.115,92.783,69.463,93.321L69.463,93.321z"/>
			</g>
		</g>
		<g>
			<g>
				<path style="&st0;" d="M55.953,87.509c2.471,0.346,4.721,0.636,7.166,0c0.45-0.117,0.496-0.868,0-0.954
					c-2.095-0.365-4.037-1.028-6.04-1.726c-0.044,0.324-0.088,0.648-0.132,0.972c2.301,0,4.602,0,6.903,0
					c0.173,0,0.341-0.094,0.427-0.245c-0.003-0.02-0.005-0.04-0.008-0.06c-0.127-0.301-0.254-0.603-0.381-0.904
					c-1.511,0.784-2.829,1.719-4.484,2.251c-0.44,0.141-0.504,0.847,0,0.954c0.876,0.186,1.24-0.093,1.919-0.702
					c0.398-0.357-0.032-0.912-0.481-0.827c-0.971,0.183-2.252-0.24-3.188-0.575c-0.612-0.219-0.835,0.716-0.263,0.954
					c1.716,0.715,3.354,1.337,5.177,1.726c0.044-0.324,0.088-0.648,0.132-0.972c-1.439-0.073-2.875-0.215-4.314-0.288
					c-0.499-0.025-0.666,0.685-0.25,0.922c1.238,0.706,2.756,1.188,4.145,1.488c0.632,0.137,0.854-0.731,0.263-0.954
					c-1.065-0.403-2.128-1.419-3.295-1.456c-0.562-0.017-0.669,0.831-0.132,0.972c1.646,0.431,3.243,1.007,4.889,1.438
					c0.475,0.124,0.838-0.474,0.481-0.827c-0.653-0.645-2.094-2.622-3.188-2.091c-0.362,0.176-0.278,0.659,0,0.854
					c0.94,0.66,1.854,1.204,2.876,1.726c0.37,0.189,0.859-0.121,0.727-0.559c-0.27-0.896-0.644-1.366-1.2-2.131
					c-0.259,0.2-0.518,0.4-0.777,0.6c1.321,1.577,0.871,1.244,2.013,2.301c0.288,0.266,0.698,0.134,0.827-0.218
					c0.554-1.516,0.26-1.499-0.625-2.97c-0.105-0.174-0.354-0.309-0.559-0.227c-0.054,0.022-0.108,0.043-0.162,0.065
					c-0.243,0.097-0.433,0.33-0.346,0.609c0.358,1.143,1.205,2.166,1.988,3.06c0.172,0.196,0.527,0.19,0.7,0
					c0.758-0.837-0.439-3.079-0.709-3.962c-0.152-0.5-0.779-0.44-0.954,0c-0.425,1.071,0.675,3.999,1.2,4.983
					c0.077,0.145,0.261,0.255,0.427,0.245c0.023-0.001,0.046-0.003,0.07-0.004c0.296-0.018,0.459-0.214,0.495-0.495
					c0.174-1.382,0.159-3.176-0.289-4.515c-0.123-0.369-0.538-0.465-0.827-0.218c0.104-0.023,0.208-0.047,0.313-0.07
					c-0.382-0.075-0.687,0.224-0.609,0.609c0.314,1.539,1.227,3.045,1.87,4.465c0.285-0.166,0.57-0.333,0.854-0.499
					c-0.126,0.241-0.251,0.482-0.377,0.724c0.282-0.021,0.477-0.21,0.495-0.495c0.094-1.555-0.143-3.183-0.351-4.724
					c-0.022-0.166-0.197-0.302-0.346-0.346c0.078,0.05,0.156,0.1,0.234,0.149c-0.241-0.386-0.975-0.268-0.922,0.25
					c0.153,1.508,0.487,3.056,0.894,4.515c0.042,0.149,0.181,0.323,0.346,0.346c0.011,0.001,0.021,0.003,0.032,0.004
					c0.254,0.034,0.548-0.056,0.609-0.346c0.235-1.111,0.932-4.019,0.238-4.983c-0.303-0.421-1.124-0.178-0.904,0.381
					c0.603,1.538,0.439,3.367,1.174,4.866c0.182,0.372,0.828,0.296,0.904-0.118c0.257-1.395,0.324-2.843,0.332-4.304
					c-0.33,0-0.66,0-0.989,0c0.165,1.527,0.123,3.075,0.288,4.602c0.069,0.642,0.909,0.63,0.989,0
					c0.149-1.162,0.472-2.534,0.147-3.682c-0.086-0.304-0.451-0.462-0.727-0.296c-1.242,0.748-0.365,3.768-0.41,4.841
					c-0.027,0.639,0.957,0.634,0.989,0c0.093-1.82,0.987-2.445-0.433-3.801c-0.319-0.305-0.827-0.081-0.845,0.35
					c-0.065,1.579,0.3,3.623,1.976,4.285c0.167,0.066,0.357-0.019,0.481-0.127c0.614-0.535,0.807-1.628,1.211-2.027
					c0.169-0.167,0.171-0.396,0.077-0.6c-0.441-0.953-1.412-1.612-2.345-2.043c-0.201-0.093-0.435-0.094-0.6,0.077
					c0.202,0.024,0.403,0.048,0.605,0.073c-0.445-0.389-0.992,0.092-0.777,0.6c0.52,1.228,0.999,2.678,1.831,3.731
					c0.264,0.335,0.878,0.06,0.845-0.35c-0.269,0.075-0.538,0.151-0.807,0.226c0.485,0.411,1.127-0.219,0.7-0.7
					c-0.907-1.021-1.841-2.1-2.901-2.963c-0.246-0.2-0.601-0.194-0.777,0.1c-0.009,0.015-0.017,0.029-0.026,0.044
					c0.301,0.127,0.603,0.254,0.904,0.381c-0.5,1.333,0.819,2.528,1.751,3.697c0.255,0.319,0.711,0.09,0.827-0.218
					c-0.021,0.046-0.042,0.092-0.064,0.139c0.157-0.154,0.191-0.411,0.077-0.6c-0.742-1.232-1.896-2.184-2.642-3.399
					c-0.287-0.468-1.081-0.166-0.904,0.381c0.514,1.594,1.5,3.007,2.013,4.602c0.301-0.127,0.603-0.254,0.904-0.381
					c-0.94-1.405-2.368-2.54-3.164-4.026c-0.259,0.2-0.518,0.4-0.777,0.6c1.169,1.229,2.282,2.51,3.451,3.739
					c0.291,0.306,0.863,0.081,0.845-0.35c-0.053-1.25-0.805-3.166-2.089-3.641c-0.484-0.179-0.808,0.493-0.481,0.827
					c0.777,0.793,1.231,1.794,2.013,2.588c0.2-0.259,0.4-0.518,0.6-0.777c-1.579-0.935-2.676-2.331-4.314-3.164
					c-0.576-0.293-1.015,0.487-0.499,0.854c1.46,1.04,2.889,2.164,4.214,3.374c0.469,0.428,1.165-0.259,0.7-0.7
					c-1.232-1.166-2.507-2.285-3.739-3.451c-0.393-0.372-1.116,0.127-0.777,0.6c1.278,1.781,2.772,2.879,4.492,4.204
					c0.356,0.274,0.841-0.176,0.727-0.559c-0.513-1.716-0.925-3.461-1.438-5.177c-0.318,0.088-0.636,0.175-0.954,0.263
					c0.465,1.517,1.209,3.103,2.063,4.432c0.298,0.464,1.063,0.173,0.904-0.381c-0.383-1.342-0.767-2.684-1.15-4.026
					c-0.318,0.088-0.636,0.175-0.954,0.263c0.601,1.465,1.215,2.797,2.063,4.145c0.258,0.409,0.924,0.255,0.922-0.25
					c-0.004-0.958,0.35-3.062-0.433-3.801c-0.377-0.356-0.917,0.004-0.827,0.481c0.283,1.498,0.314,2.245,1.278,3.382
					c0.288,0.34,0.845,0.056,0.845-0.35c0-0.959,0-1.917,0-2.876c-0.324,0.044-0.648,0.088-0.972,0.132
					c0.185,0.89,0.4,2.453,0.575,3.451c0.084,0.48,0.861,0.468,0.954,0c0.192-0.959,0.383-1.917,0.575-2.876
					c-0.318,0-0.636,0-0.954,0c0.192,0.959,0.383,1.917,0.575,2.876c0.071,0.357,0.588,0.487,0.827,0.218
					c0.681-0.768,0.269-1.49,0.415-2.519c-0.318,0-0.636,0-0.954,0c0.165,1.111-0.193,0.951,0.415,1.656
					c0.29,0.337,0.845,0.058,0.845-0.35c0-0.383,0-0.767,0-1.15c-0.307,0.083-0.615,0.166-0.922,0.25
					c0.27,0.408,0.445,0.848,0.525,1.32c0.089,0.391,0.73,0.516,0.904,0.118c0.178-0.406,0.248-0.835,0.337-1.269
					c-0.324-0.044-0.648-0.088-0.972-0.132c0.006,0.779-0.008,0.575-0.041-0.612c-0.595-0.721-1.222-1.413-1.883-2.074
					c-0.938-0.984-2.007-1.81-3.084-2.63c-0.47-0.358-0.951,0.38-0.6,0.777c1.084,1.224,2.066,2.526,3.164,3.739
					c0.233-0.233,0.466-0.466,0.7-0.7c-1.187-0.975-2.176-2.114-3.086-3.351c-0.37-0.503-1.216-0.038-0.854,0.499
					c0.73,1.085,1.571,2.079,2.301,3.164c0.259-0.2,0.518-0.4,0.777-0.6c-1.288-1.109-2.451-2.342-3.739-3.451
					c-0.399-0.344-1.132,0.121-0.777,0.6c0.803,1.083,1.635,1.8,2.666,2.689c0.233-0.233,0.466-0.466,0.7-0.7
					c-1.281-1.051-2.4-2.171-3.451-3.451c-0.2,0.259-0.4,0.518-0.6,0.777c1.668,1.098,3.221,2.353,4.889,3.451
					c0.376,0.247,0.83-0.158,0.727-0.559c-0.269-1.048-1.452-2.026-2.14-2.807c-0.372-0.422-1.085,0.131-0.777,0.6
					c1.024,1.557,2.208,3.001,3.164,4.602c0.285-0.166,0.57-0.333,0.854-0.499c-0.924-1.51-1.837-2.996-2.588-4.602
					c-0.285,0.166-0.57,0.333-0.854,0.499c0.849,1.212,1.604,2.248,2.666,3.264c0.41,0.392,1.048-0.104,0.777-0.6
					c-0.511-0.935-0.806-1.882-1.515-2.689c-0.37-0.42-1.096,0.136-0.777,0.6c0.544,0.726,1.023,1.493,1.438,2.301
					c0.3,0.525,0.979,0.141,0.904-0.381c-0.144-1.009-0.912-1.774-1.565-2.519c-0.2,0.259-0.4,0.518-0.6,0.777
					c0.84,0.626,1.245,1.589,1.836,2.411c0.259-0.2,0.518-0.4,0.777-0.6c-3.623-4.62-8.842-5.193-14.286-3.866
					c0.088,0.318,0.175,0.636,0.263,0.954c5.294-1.304,10.645,0.025,13.822,4.662c0.316,0.461,1.033,0.18,0.904-0.381
					c-1.683-7.329-9.411-7.884-15.107-4.61c-0.557,0.32-0.067,1.139,0.499,0.854c1.108-0.449,2.228-0.528,3.358-0.238
					c0.088-0.318,0.175-0.636,0.263-0.954c-1.118-0.274-2.552-0.835-3.714-0.575c-0.57,0.128-0.403,0.939,0.132,0.972
					c2.301,0.14,4.509,0.742,6.771,1.133c0.044-0.324,0.088-0.648,0.132-0.972c-1.209,0.03-2.412-0.06-3.607-0.27
					c-0.35-0.058-0.73,0.216-0.609,0.609c0.329,1.06,1.17,3.466,2.622,2.934c0.346-0.127,0.492-0.544,0.218-0.827
					c-0.58-0.6-0.845-1.408-1.438-2.013c-0.233,0.233-0.466,0.466-0.7,0.7c1.144,1.086,1.862,2.458,3.264,3.241
					c0.197,0.11,0.438,0.08,0.6-0.077c0.022-0.022,0.045-0.043,0.067-0.065c0.165-0.161,0.179-0.402,0.077-0.6
					c-0.568-1.104-1.376-2.109-2.094-3.117c-0.372-0.523-1.119-0.082-0.854,0.499c0.667,1.463,1.223,3.236,2.174,4.534
					c0.248,0.339,0.77,0.319,0.904-0.118c0.324-1.055-1.168-4.083-1.95-4.844c-0.284-0.276-0.699-0.125-0.827,0.218
					c-0.55,1.471,5.63,9.3,4.334,0.862c-0.301,0.127-0.603,0.254-0.904,0.381c0.656,1.219,0.891,2.922,1.942,3.884
					c0.155,0.142,0.412,0.206,0.6,0.077c1.016-0.701,0.722-3.178-0.193-3.86c-0.149-0.111-0.347-0.067-0.499,0
					c-2.471,1.084-0.906,2.954,0.262,4.16c0.444,0.459,1.143-0.241,0.7-0.7c-0.513-0.53-0.689-2.459-0.764-1.045
					c-0.073,1.372-0.068-0.286,0.256,0.229c-0.631-1.005-0.888-2.206-1.448-3.246c-0.286-0.532-0.984-0.137-0.904,0.381
					c0.401,2.611-2.838-0.003-2.99-0.263c0.604,1.033,1.002,2.243,1.379,3.378c0.707,0.108,0.956-0.003,0.746-0.333
					c-0.243-0.516-0.485-1.032-0.727-1.548c-0.414-0.882-0.831-1.762-1.235-2.649c-0.285,0.166-0.57,0.333-0.854,0.499
					c0.376,0.528,0.749,1.071,1.128,1.601c1.886,2.634-0.673-1.408-1.488-2.181c-0.462-0.439-1.147,0.243-0.7,0.7
					c-0.227-0.232,2.933,3.34,0.993,0.551c-1.039-1.494,1.58-0.702,2.521-0.694c0.546,0.005,0.692-0.875,0.132-0.972
					c-2.35-0.406-4.647-1.023-7.034-1.168c0.044,0.324,0.088,0.648,0.132,0.972c0.852-0.191,2.311,0.36,3.188,0.575
					c0.62,0.152,0.883-0.802,0.263-0.954c-1.382-0.338-2.841-0.305-4.12,0.337c0.166,0.285,0.333,0.57,0.499,0.854
					c5.093-2.928,12.106-2.719,13.654,4.018c0.301-0.127,0.603-0.254,0.904-0.381c-3.424-4.999-9.212-6.527-14.939-5.117
					c-0.62,0.153-0.357,1.105,0.263,0.954c5.129-1.249,9.883-0.775,13.324,3.612c0.346,0.441,1.104-0.145,0.777-0.6
					c-0.735-1.022-1.179-2.013-2.191-2.766c-0.475-0.354-0.949,0.379-0.6,0.777c0.627,0.578,1.064,1.272,1.311,2.083
					c0.301-0.127,0.603-0.254,0.904-0.381c-0.415-0.808-0.894-1.575-1.438-2.301c-0.259,0.2-0.518,0.4-0.777,0.6
					c0.643,0.731,0.906,1.655,1.361,2.488c0.259-0.2,0.518-0.4,0.777-0.6c-0.957-0.926-1.794-1.947-2.511-3.064
					c-0.368-0.525-1.125-0.079-0.854,0.499c0.751,1.605,1.664,3.091,2.588,4.602c0.332,0.543,1.183,0.05,0.854-0.499
					c-0.956-1.601-2.14-3.044-3.164-4.602c-0.259,0.2-0.518,0.4-0.777,0.6c0.605,0.687,1.175,0.865,1.69,1.204
					c-1.358-0.894-2.606-1.948-3.967-2.844c-0.502-0.331-0.934,0.37-0.6,0.777c1.051,1.281,2.171,2.4,3.451,3.451
					c0.486,0.399,1.187-0.279,0.7-0.7c-0.924-0.739-1.761-1.569-2.511-2.488c-0.259,0.2-0.518,0.4-0.777,0.6
					c1.288,1.109,2.451,2.342,3.739,3.451c0.403,0.347,1.109-0.107,0.777-0.6c-0.73-1.085-1.571-2.079-2.301-3.164
					c-0.285,0.166-0.57,0.333-0.854,0.499c0.956,1.3,1.99,2.524,3.241,3.551c0.488,0.4,1.134-0.219,0.7-0.7
					c-1.098-1.213-2.08-2.515-3.164-3.739c-0.2,0.259-0.4,0.518-0.6,0.777c2.178,1.659,3.966,3.532,5.652,5.675
					c0.279,0.355,0.845,0.045,0.845-0.35c0-0.288,0-0.575,0-0.863c0-0.548-0.857-0.689-0.972-0.132
					c-0.206,1,0.893,0.741,0.041-0.406c-0.278-0.374-0.922-0.281-0.922,0.25c0,1.404,0.793,0.314,0.684-0.419
					c-0.07-0.473-0.887-0.476-0.954,0c-0.258,1.821,0.514,1.539,0.091-0.575c-0.095-0.474-0.859-0.474-0.954,0
					c-0.192,0.959-0.383,1.917-0.575,2.876c0.318,0,0.636,0,0.954,0c-0.267-1.522-0.301-2.135-0.575-3.451
					c-0.116-0.557-0.972-0.417-0.972,0.132c0,3.256-0.039,0.318-0.179-0.419c-0.276,0.16-0.551,0.321-0.827,0.481
					c0.397,0.375,0.14,2.518,0.143,3.101c0.307-0.083,0.615-0.166,0.922-0.25c-0.84-1.204-1.495-2.507-1.963-3.908
					c-0.235-0.572-1.134-0.368-0.954,0.263c0.383,1.342,0.767,2.684,1.15,4.026c0.301-0.127,0.603-0.254,0.904-0.381
					c-0.804-1.252-1.53-2.783-1.963-4.196c-0.186-0.608-1.138-0.35-0.954,0.263c0.361,1.207,0.676,2.426,1.001,3.643
					c0.255,1.142,0.319,1.217,0.19,0.225c-1.296-0.78-2.351-1.813-3.163-3.099c-0.259,0.2-0.518,0.4-0.777,0.6
					c1.232,1.166,2.507,2.285,3.739,3.451c0.233-0.233,0.466-0.466,0.7-0.7c-1.388-1.267-2.884-2.439-4.414-3.529
					c-0.166,0.285-0.333,0.57-0.499,0.854c1.644,0.836,2.751,2.238,4.314,3.164c0.488,0.289,0.993-0.377,0.6-0.777
					c-0.794-0.806-1.234-1.793-2.013-2.588c-0.16,0.276-0.321,0.551-0.481,0.827c0.215,0.079,3.058,3.277,1.184,1.24
					c-0.81-0.881-1.604-1.775-2.429-2.642c-0.398-0.419-1.037,0.114-0.777,0.6c0.799,1.494,2.222,2.621,3.164,4.026
					c0.3,0.448,1.084,0.177,0.904-0.381c-0.514-1.594-1.5-3.007-2.013-4.602c-0.301,0.127-0.603,0.254-0.904,0.381
					c0.483,0.787,2.527,3.057,2.588,2.952c0.541-0.923-0.895-2.442-1.801-3.579c-0.255-0.319-0.711-0.09-0.827,0.218
					c-0.003,0.009-0.007,0.018-0.01,0.028c-0.202,0.539,0.624,0.849,0.904,0.381c-0.43,0.718-0.122,0.618,0.769,1.538
					c0.469,0.485,0.933,0.977,1.382,1.482c0.233-0.233,0.466-0.466,0.7-0.7c-0.017-0.015-0.034-0.029-0.051-0.044
					c-0.296-0.252-0.883-0.119-0.845,0.35c-0.081-0.979,0.699-0.409,0.059-1.76c-0.305-0.645-0.598-1.297-0.877-1.953
					c-0.259,0.2-0.518,0.4-0.777,0.6c0.005,0.004,0.009,0.008,0.014,0.012c0.2,0.175,0.504,0.204,0.7,0
					c-0.596,0.62,1.535,1.096,1.314,1.314c-0.124,0.122-0.176,0.314-0.127,0.481c-0.036,0.172-0.071,0.344-0.107,0.516
					c-1.139-2.891-1.78-3.076-1.923-0.556c-0.213,0.848-0.251,0.59-0.289,1.346c0.33,0,0.66,0,0.989,0
					c0.033-0.775-0.64-5.393-0.774-2.912c-0.037,0.684-0.128,1.37-0.216,2.049c0.33,0,0.66,0,0.989,0
					c-0.165-1.527-0.123-3.075-0.288-4.602c-0.067-0.62-0.986-0.652-0.989,0c-0.007,1.316-0.038,2.634-0.27,3.895
					c0.732-0.076,0.935-0.392,0.608-0.947c-0.107-0.464-0.209-0.929-0.308-1.394c-0.157-0.727-0.224-1.565-0.497-2.26
					c-0.301,0.127-0.603,0.254-0.904,0.381c0.448,0.623-0.203,3.099-0.286,3.854c0.033-0.302,0.827,0.293,0.516-1.152
					c-0.194-0.9-0.411-1.82-0.504-2.737c-0.307,0.083-0.615,0.166-0.922,0.25c0.468,0.751-0.221,4.004,0.761,3.931
					c-0.337,0.025-0.665,0.415-0.427,0.744c0.004,0.005,0.008,0.011,0.012,0.016c0.375,0.52,1.118,0.083,0.854-0.499
					c-0.538-1.188-1.086-2.37-1.575-3.58c-0.413-1.022-0.979,0.482-0.24-0.151c-0.22-0.015-0.439-0.03-0.659-0.046
					c0.088,0.579,0.146,1.161,0.174,1.745c0.045,0.651,0.05,1.302,0.036,1.954c0.228-0.106,0.457-0.213,0.685-0.319
					c-0.138-0.464-0.27-0.93-0.396-1.397c-0.133-0.481-0.771-1.951-0.576-2.443c-0.318,0-0.636,0-0.954,0
					c0.147,0.482,0.289,0.965,0.43,1.449c0.071,0.255,0.143,0.51,0.214,0.765c-0.057,0.718,0.201,0.888,0.776,0.509
					c-0.244-0.328-0.488-0.655-0.732-0.983c-0.244-0.796-0.545-0.815-0.905-0.056c0.227,0.377-2.022-2.215-1.258-1.303
					c-0.359-0.429-1.107,0.145-0.777,0.6c0.168,0.392,0.444,0.667,0.826,0.825c-0.598-0.732-1.083-0.694-1.456,0.114
					c0.556,0.444,1.064,0.963,1.57,1.462c0.16-0.276,0.321-0.551,0.481-0.827c-1.646-0.431-3.243-1.007-4.889-1.438
					c-0.044,0.324-0.088,0.648-0.132,0.972c0.996,0.031,2.087,1.063,3.032,1.42c0.088-0.318,0.175-0.636,0.263-0.954
					c-1.299-0.281-2.751-0.728-3.908-1.388c-0.083,0.307-0.166,0.615-0.25,0.922c1.439,0.073,2.875,0.215,4.314,0.288
					c0.556,0.028,0.678-0.855,0.132-0.972c-1.823-0.388-3.461-1.011-5.177-1.726c-0.088,0.318-0.175,0.636-0.263,0.954
					c1.153,0.413,2.485,0.807,3.714,0.575c-0.16-0.276-0.321-0.551-0.481-0.827c-0.319,0.149-0.638,0.299-0.957,0.448
					c0,0.318,0,0.636,0,0.954c1.727-0.555,3.115-1.518,4.72-2.351c0.511-0.265,0.151-1.037-0.381-0.904
					c-2.165,0.541-4.74,0.27-7.059,0.27c-0.579,0-0.646,0.792-0.132,0.972c2.003,0.698,3.944,1.36,6.04,1.726
					c0-0.318,0-0.636,0-0.954c-2.462,0.64-4.171,0.346-6.639,0C55.593,86.467,55.324,87.42,55.953,87.509L55.953,87.509z"/>
			</g>
		</g>
		<g>
			<g>
				<path style="&st0;" d="M60.399,89.118c2.388,0.275,4.789,0.287,7.19,0.288c1.949,0,1.949-3.022,0-3.022
					c-2.401-0.001-4.802-0.012-7.19-0.288C58.465,85.873,58.486,88.897,60.399,89.118L60.399,89.118z"/>
			</g>
		</g>
		<g>
			<g>
				<path style="&st0;" d="M61.262,90.843c2.307-0.001,4.608-0.022,6.903-0.288c1.912-0.221,1.934-3.246,0-3.022
					c-2.295,0.265-4.595,0.287-6.903,0.288C59.313,87.822,59.313,90.844,61.262,90.843L61.262,90.843z"/>
			</g>
		</g>
		<g>
			<g>
				<path style="&st0;" d="M59.536,89.98c4.44-0.478,8.772-0.039,12.755,2.095c0.388-0.921,0.776-1.841,1.164-2.762
					c-1.856-0.583-3.634-1.359-5.465-2.013c-1.723-0.616-2.466,1.832-1.164,2.762c1.064,0.76,2.045,1.613,2.858,2.64
					c0.962,1.215,2.948-0.098,2.526-1.47c-0.392-1.273-1.22-2.102-2.493-2.493c-1.51-0.465-2.451,1.454-1.47,2.526
					c1.427,1.559,3.142,2.557,4.908,3.688c0.12-0.921,0.241-1.841,0.361-2.762c-0.238,0.043-0.465,0.115-0.683,0.216
					c-0.687,0.288-1.392,1.026-1.055,1.859c0.156,0.385,0.305,0.66,0.548,1.008c0.67,0.963,1.942,0.975,2.609,0
					c3.542-5.172,0.49-8.668-4.93-9.985c-1.893-0.46-2.696,2.454-0.803,2.914c1.332,0.324,2.722,0.653,3.819,1.526
					c1.399,1.115,0.034,2.954-0.696,4.019c0.87,0,1.74,0,2.609,0c-0.081-0.095-0.162-0.191-0.243-0.286
					c-0.352,0.62-0.704,1.239-1.055,1.859c0.218-0.101,0.445-0.173,0.683-0.216c1.3-0.358,1.445-2.068,0.361-2.762
					c-1.549-0.992-3.038-1.841-4.296-3.215c-0.49,0.842-0.98,1.684-1.47,2.526c0.128,0.128,0.255,0.255,0.383,0.383
					c0.842-0.49,1.684-0.98,2.526-1.47c-0.972-1.228-2.201-2.206-3.469-3.112c-0.388,0.921-0.776,1.841-1.164,2.762
					c1.831,0.654,3.608,1.43,5.465,2.013c1.636,0.514,2.674-1.953,1.164-2.762c-4.44-2.379-9.304-3.043-14.28-2.507
					C57.62,87.165,57.6,90.189,59.536,89.98L59.536,89.98z"/>
			</g>
		</g>
		<g>
			<g>
				<path style="&st0;" d="M70.639,87.626c2.686,0.548,4.101,2.473,4.355,5.158c0.182,1.923,3.206,1.94,3.022,0
					c-0.374-3.955-2.506-7.243-6.574-8.072C69.54,84.324,68.73,87.236,70.639,87.626L70.639,87.626z"/>
			</g>
		</g>
		<g>
			<g>
				<path style="&st0;" d="M77.061,93.473c1.529,3.753,5.092,3.744,8.474,2.493c1.811-0.67,1.028-3.592-0.803-2.914
					c-1.411,0.522-3.969,1.549-4.756-0.383C79.25,90.89,76.326,91.667,77.061,93.473L77.061,93.473z"/>
			</g>
		</g>
		<g>
			<g>
				<path style="&st0;" d="M77.501,93.546c2.586,4.898,8.638,3.924,12.923,2.132c1.77-0.74,0.994-3.666-0.803-2.914
					c-2.898,1.212-7.637,2.803-9.51-0.744C79.2,90.297,76.592,91.824,77.501,93.546L77.501,93.546z"/>
			</g>
		</g>
		<g>
			<g>
				<path style="&st0;" d="M77.213,93.546c0.911,1.848,2.267,3.341,4.318,3.858c2.086,0.525,4.271-0.361,6.09-1.303
					c1.731-0.896,0.203-3.504-1.525-2.609c-1.126,0.583-2.453,1.208-3.761,0.998c-1.295-0.207-1.983-1.397-2.512-2.469
					C78.961,90.273,76.355,91.805,77.213,93.546L77.213,93.546z"/>
			</g>
		</g>
		<g>
			<g>
				<path style="&st0;" d="M79.362,91.172c0.318,1.742,2.74,2.787,4.146,3.491c0.388-0.921,0.776-1.841,1.164-2.762
					c-0.908-0.303-1.98-0.604-2.706-1.263c0.578,0.524-0.707,0.942,0.33,0.533c1.621-0.639,3.614-0.641,5.311-0.383
					c1.906,0.29,2.725-2.621,0.803-2.914c-2.596-0.395-6.398-0.608-8.537,1.271c-3.076,2.703,2.011,5.006,3.995,5.669
					c1.621,0.542,2.695-1.994,1.164-2.762c-0.606-0.304-2.664-1.177-2.757-1.685C81.927,88.453,79.014,89.267,79.362,91.172
					L79.362,91.172z"/>
			</g>
		</g>
		<g>
			<g>
				<path style="&st0;" d="M79.874,91.551c4.615-4.994,10.347-1.787,12.142,3.935c0.581,1.853,3.499,1.061,2.914-0.803
					c-2.458-7.832-10.993-11.978-17.193-5.268C76.417,90.843,78.549,92.985,79.874,91.551L79.874,91.551z"/>
			</g>
		</g>
		<g>
			<g>
				<path style="&st0;" d="M88.397,90.328c-0.376,0.195-1.088-0.031-1.497-0.072c-0.771-0.076-1.559,0.149-2.201,0.57
					c-0.176,0.129-0.347,0.266-0.511,0.41c-0.239,0.11-0.285,0.197-0.136,0.261c-0.46,0.278-0.761,0.777-0.761,1.321
					c0,0.934,0.735,1.439,1.571,1.544c1.46,0.184,3.121-0.194,4.578-0.354c1.614-0.178,2.233-1.882,0.878-2.915
					c-0.617-0.47-1.534-0.69-2.261-0.939c-0.746-0.255-1.517-0.521-2.297-0.643c-0.626-0.098-1.221-0.096-1.716,0.39
					c-0.666,0.654-0.535,1.574,0.022,2.226c0.49-0.842,0.98-1.684,1.47-2.526c-2.029-0.609-2.32,1.872-2.099,3.22
					c0.256,1.56,1.64,3.211,3.323,2.13c-0.689-0.689-1.378-1.378-2.067-2.067c-0.864,1.425,0.597,2.465,1.881,2.461
					c1.296-0.003,2.773-0.888,2.319-2.388c-0.13,0.49-0.259,0.98-0.389,1.47c0.414-0.526,0.669-0.967,0.73-1.644
					c-0.37,0.486-0.74,0.971-1.109,1.457c0.005-0.002,0.01-0.004,0.015-0.006c0.659-0.271,1.073-0.716,1.109-1.457
					c0.06-1.217-1.666-2.344-2.504-2.976c-0.554-0.419-1.089-0.719-1.793-0.794c-1.224-0.13-1.742,1.197-1.563,2.165
					c0.13-0.49,0.259-0.98,0.389-1.47c-1.493,1.732-1.111,6.154,2.045,5.114c1.842-0.607,1.053-3.526-0.803-2.914
					c-0.379,0.097-0.213,0.15,0.497,0.159c0.253,0.116,0.35,0.282,0.379,0.512c-0.038-0.305-0.005-0.417,0.024-0.558
					c0.023-0.101,0.052-0.2,0.085-0.298c-0.09,0.287,0.193-0.206-0.089,0.121c0.187-0.189,0.317-0.411,0.389-0.667
					c0.018-0.134,0.036-0.268,0.054-0.402c-0.059-0.715-0.121-0.536-0.185,0.537c-0.181,0.181-0.361,0.361-0.542,0.542
					c0.012-0.007,0.024-0.013,0.037-0.02c-0.254,0.069-0.508,0.138-0.763,0.206c0.127-0.017-0.362-0.089-0.43-0.121
					c0.141,0.066,0.271,0.157,0.4,0.243c0.247,0.165,0.309,0.223,0.645,0.51c0.257,0.219,0.505,0.45,0.746,0.686
					c0.078,0.076,0.153,0.156,0.227,0.235c0.209,0.225-0.163-0.315-0.057-0.067c-0.069-0.254-0.138-0.508-0.206-0.763
					c0,0.006-0.001,0.012-0.001,0.018c0.37-0.486,0.74-0.971,1.109-1.457c-0.005,0.002-0.01,0.004-0.015,0.006
					c-0.68,0.279-1.042,0.712-1.109,1.457c0.052-0.164,0.103-0.329,0.155-0.493c-0.187,0.189-0.317,0.411-0.389,0.667
					c-0.007,0.024-0.131,1.296-0.037,0.573c0.069-0.254,0.138-0.508,0.206-0.763c0.66-0.404,0.809-0.55,0.448-0.438
					c0.168-0.017,0.16-0.019-0.023-0.006c-0.089,0.003-0.178,0.001-0.267-0.007c0.213,0.038,0.253,0.035,0.119-0.009
					c0.222,0.13,0.445,0.259,0.667,0.389c-0.015-0.011-0.029-0.022-0.044-0.034c0.13,0.222,0.259,0.445,0.389,0.667
					c-0.003-0.013-0.007-0.026-0.01-0.04c-0.051,0.388-0.102,0.776-0.152,1.164c0.009-0.015,0.018-0.03,0.027-0.045
					c0.772-1.272-0.781-2.894-2.067-2.067c0.399-0.137,0.799-0.059,1.2,0.232c0.12,0.174,0.134,0.185,0.042,0.034
					c0.145,0.252-0.074-0.312-0.1-0.442c0.055,0.274-0.016-0.264-0.018-0.328c-0.001-0.087,0.001-0.173,0.007-0.259
					c-0.009,0.06-0.018,0.12-0.027,0.18c0.126-0.477-0.158-0.23-0.853,0.741c-0.268,0-0.536,0-0.803,0
					c0.017,0.005,0.034,0.01,0.051,0.015c1.544,0.464,2.401-1.437,1.47-2.526c0.066,0.084,0.132,0.167,0.198,0.251
					c0.069,0.254,0.138,0.508,0.206,0.763c0.001-0.006,0.001-0.013,0.002-0.019c-0.148,0.356-0.295,0.712-0.443,1.068
					c0.005-0.005,0.01-0.01,0.015-0.014c-0.222,0.13-0.445,0.259-0.667,0.389c-0.353,0.029-0.449,0.042-0.286,0.04
					c0.145,0.012,0.081,0.002-0.191-0.029c0.175,0.027,0.347,0.072,0.518,0.115c0.472,0.118,0.938,0.266,1.401,0.416
					c0.428,0.139,0.853,0.29,1.274,0.451c0.436,0.167-0.08-0.049,0.274,0.115c0.436,0.203,0.15,0.305-0.215-0.329
					c-0.069-0.254-0.138-0.508-0.206-0.763c0,0.006,0,0.012-0.001,0.018c0.148-0.356,0.295-0.712,0.443-1.068
					c-0.005,0.005-0.009,0.01-0.014,0.014c0.222-0.13,0.445-0.259,0.667-0.389c0.464-0.173,0.117-0.018-0.195,0.016
					c-0.484,0.052-0.968,0.1-1.453,0.146c-0.549,0.053-1.098,0.1-1.648,0.138c-0.213,0.015-0.426,0.025-0.639,0.032
					c-0.507,0.015-0.357-0.197,0.328,0.176c0.231,0.301,0.463,0.602,0.694,0.903c-0.001-0.004-0.003-0.009-0.004-0.013
					c-0.13,0.49-0.259,0.98-0.389,1.47c-0.364,0.28-0.349,0.269,0.044-0.035c0.156-0.2,0.301-0.41,0.516-0.551
					c0.158-0.104,0.508-0.026,0.685-0.002c1.014,0.137,1.876,0.121,2.808-0.361C91.653,92.042,90.125,89.434,88.397,90.328
					L88.397,90.328z"/>
			</g>
		</g>
		<g>
			<g>
				<path style="&st0;" d="M90.196,95.679c2.013,0.575,4.026,1.15,6.04,1.726c1.878,0.537,2.674-2.38,0.803-2.914
					c-2.013-0.575-4.026-1.15-6.04-1.726C89.121,92.228,88.325,95.144,90.196,95.679L90.196,95.679z"/>
			</g>
		</g>
		<g>
			<g>
				<path style="&st0;" d="M90.392,95.578c2.243,1.79,4.812,2.687,7.683,2.743c1.95,0.038,1.946-2.984,0-3.022
					c-2.008-0.039-3.957-0.59-5.546-1.858C91.022,92.238,88.869,94.362,90.392,95.578L90.392,95.578z"/>
			</g>
		</g>
		<g>
			<g>
				<path style="&st0;" d="M89.16,96.595c2.805,0.021,5.525,0.324,8.226,1.096c1.878,0.537,2.674-2.379,0.803-2.914
					c-2.949-0.843-5.968-1.182-9.03-1.204C87.21,93.559,87.211,96.581,89.16,96.595L89.16,96.595z"/>
			</g>
		</g>
		<g>
			<g>
				<path style="&st0;" d="M99.551,88.897c1.746,1.327,2.483,3.306,1.548,5.363c-0.262,0.576,0.591,1.08,0.854,0.499
					c1.177-2.589,0.306-5.038-1.903-6.717C99.542,87.656,99.05,88.516,99.551,88.897L99.551,88.897z"/>
			</g>
		</g>
		<g>
			<g>
				<path style="&st0;" d="M100.602,89.682c0.95,0.895,1.966,2.025,1.753,3.435c-0.205,1.353-1.71,2.156-2.803,2.69
					c-0.573,0.28-0.071,1.133,0.499,0.854c1.509-0.737,3.031-1.789,3.301-3.566c0.248-1.635-0.946-3.074-2.05-4.113
					C100.837,88.546,100.136,89.244,100.602,89.682L100.602,89.682z"/>
			</g>
		</g>
		<g>
			<g>
				<path style="&st0;" d="M90.712,91.518c2.995,3.76,6.875,5.497,10.987,2.301c1.076-0.836-0.433-2.322-1.496-1.496
					c-3.175,2.468-5.874,0.362-7.995-2.301C91.358,88.955,89.872,90.463,90.712,91.518L90.712,91.518z"/>
			</g>
		</g>
		<g>
			<g>
				<path style="&st0;" d="M97.212,95.579c0.896-0.021,1.746-0.255,2.551-0.643c0.575-0.277,0.073-1.13-0.499-0.854
					c-0.643,0.31-1.336,0.491-2.051,0.508C96.575,94.604,96.574,95.594,97.212,95.579L97.212,95.579z"/>
			</g>
		</g>
		<g>
			<g>
				<path style="&st0;" d="M97.944,95.849c1.016,0.303,1.836-0.068,2.682-0.625c0.53-0.349,0.035-1.206-0.499-0.854
					c-0.618,0.407-1.167,0.75-1.92,0.525C97.594,94.712,97.334,95.667,97.944,95.849L97.944,95.849z"/>
			</g>
		</g>
		<g>
			<g>
				<path style="&st0;" d="M97.826,96.662c0.995,0.602,2.068,0.416,2.9-0.365c0.466-0.438-0.235-1.136-0.7-0.7
					c-0.514,0.482-1.089,0.581-1.701,0.21C97.778,95.476,97.281,96.332,97.826,96.662L97.826,96.662z"/>
			</g>
		</g>
		<g>
			<g>
				<path style="&st0;" d="M98.363,97.88c0.652-0.033,1.125-0.349,1.688-0.643c0.566-0.296,0.065-1.15-0.499-0.854
					c-0.383,0.2-0.743,0.485-1.188,0.508C97.728,96.923,97.725,97.912,98.363,97.88L98.363,97.88z"/>
			</g>
		</g>
		<g>
			<g>
				<path style="&st0;" d="M98.651,97.88c1.491-0.121,2.515-1.391,3.303-2.546c-0.285-0.166-0.57-0.333-0.854-0.499
					c-0.349,0.512-0.724,0.979-1.157,1.422c-0.206,0.21-0.552,0.285-0.779,0.492c-0.412,0.375,0.137,1.102,0.6,0.777
					c1.734-1.218,2.235-2.88,2.528-4.897c0.091-0.624-0.863-0.893-0.954-0.263c-0.249,1.712-0.576,3.255-2.073,4.306
					c0.2,0.259,0.4,0.518,0.6,0.777c0.136-0.124,0.321-0.12,0.475-0.21c0.187-0.11,0.337-0.315,0.487-0.468
					c0.428-0.437,0.785-0.931,1.129-1.435c0.361-0.529-0.497-1.023-0.854-0.499c-0.555,0.813-1.376,1.969-2.449,2.056
					C98.019,96.942,98.014,97.931,98.651,97.88L98.651,97.88z"/>
			</g>
		</g>
		<g>
			<g>
				<path style="&st0;" d="M100.889,93.297c-1.15,1.15-2.301,2.301-3.451,3.451c-0.408,0.408,0.108,1.034,0.6,0.777
					c1.145-0.599,2.069-1.472,2.976-2.378c0.452-0.451-0.248-1.151-0.7-0.7c-0.85,0.849-1.702,1.662-2.776,2.223
					c0.2,0.259,0.4,0.518,0.6,0.777c1.15-1.15,2.301-2.301,3.451-3.451C102.04,93.545,101.341,92.845,100.889,93.297L100.889,93.297
					z"/>
			</g>
		</g>
		<g>
			<g>
				<path style="&st0;" d="M61.113,89.604c1.476-0.523,3.504-1.431,5.061-0.733c1.16,0.52,1.992,1.985,2.798,2.907
					c0.421,0.481,1.118-0.222,0.7-0.7c-0.965-1.103-1.831-2.539-3.214-3.159c-1.735-0.777-3.974,0.151-5.608,0.73
					C60.253,88.862,60.51,89.818,61.113,89.604L61.113,89.604z"/>
			</g>
		</g>
		<g>
			<g>
				<path style="&st0;" d="M60.694,90.773c3.101-0.304,5.652,0.714,8.346,2.129c1.729,0.908,3.457,1.777,5.459,1.61
					c0.631-0.052,0.636-1.042,0-0.989c-2.448,0.203-4.547-1.298-6.65-2.341c-2.277-1.129-4.618-1.647-7.155-1.398
					C60.065,89.845,60.059,90.835,60.694,90.773L60.694,90.773z"/>
			</g>
		</g>
		<g>
			<g>
				<path style="&st0;" d="M74.792,94.816c-3.121,1.103-5.318-1.48-7.592-3.195c-2.154-1.625-4.335-2.66-7.081-2.413
					c-0.63,0.057-0.636,1.047,0,0.989c3.765-0.339,6.074,2.012,8.859,4.101c1.875,1.407,3.757,2.292,6.077,1.472
					C75.652,95.559,75.395,94.603,74.792,94.816L74.792,94.816z"/>
			</g>
		</g>
		<g>
			<g>
				<path style="&st0;" d="M97.927,97.945c2.885-0.624,4.918-2.567,4.677-5.654c-0.049-0.632-1.039-0.637-0.989,0
					c0.208,2.667-1.473,4.164-3.951,4.7C97.04,97.126,97.305,98.08,97.927,97.945L97.927,97.945z"/>
			</g>
		</g>
		<g>
			<g>
				<path style="&st0;" d="M101.632,92.423c0.186,0.712,0.174,1.24-0.331,1.799c-0.565,0.625-1.255,1.141-1.843,1.746
					c-0.444,0.458,0.255,1.158,0.7,0.7c0.684-0.705,1.562-1.299,2.138-2.1c0.533-0.741,0.513-1.553,0.29-2.408
					C102.426,91.543,101.471,91.805,101.632,92.423L101.632,92.423z"/>
			</g>
		</g>
	</g>
	<g>
		<g>
			<path style="&st0;" d="M15.772,134.481c42.078,5.865,84.673,2.675,126.873,0.03c0.664-0.042,1.032-0.685,0.734-1.28
				c-1.523-3.047-1.183-5.908-1.183-9.306c0-4.466,0-8.932,0-13.398c0-0.464-0.387-0.85-0.85-0.85
				c-21.697,0-43.387,0.417-65.079,0.805c-11.27,0.202-22.54,0.367-33.811,0.448c-9.24,0.066-18.813-0.594-27.983,0.726
				c-0.37,0.053-0.622,0.478-0.624,0.82c-0.047,6.877-0.777,13.982,0.68,20.762c0.23,1.072,1.87,0.617,1.64-0.452
				c-1.269-5.903-0.772-12.155-0.644-18.149c0.06-2.796,8.23-1.96,10.554-1.96c2.925,0,5.849-0.001,8.774-0.009
				c16.094-0.04,32.186-0.315,48.277-0.609c15.956-0.292,31.913-0.571,47.872-0.657c3.34-0.018,6.68-0.024,10.02-0.024
				c-0.992,0-0.526,8.395-0.526,9.418c0,4.716-0.703,9.058,1.415,13.295c0.245-0.427,0.489-0.853,0.734-1.28
				c-42.029,2.633-84.51,5.872-126.421,0.03C15.152,132.692,14.689,134.33,15.772,134.481L15.772,134.481z"/>
		</g>
	</g>
	<g>
		<g>
			<g>
				<g>
					<g>
						<path style="&st2;" d="M99.123,147.979c-0.433,0.957-0.439,2.086-0.44,3.12c0,0.871,1.35,0.871,1.35,0
							c0-0.763-0.066-1.729,0.255-2.439C100.645,147.874,99.481,147.187,99.123,147.979L99.123,147.979z"/>
					</g>
				</g>
				<g>
					<g>
						<path style="&st2;" d="M99.365,149.251c1.138,0.747,2.351,1.373,3.338,2.326c0.626,0.605,1.582-0.349,0.955-0.955
							c-1.071-1.035-2.375-1.727-3.611-2.537C99.316,147.605,98.64,148.775,99.365,149.251L99.365,149.251z"/>
					</g>
				</g>
				<g>
					<g>
						<path style="&st2;" d="M102.505,148.32c0,0.695,0,1.39,0,2.085c0,0.871,1.35,0.871,1.35,0c0-0.695,0-1.39,0-2.085
							C103.855,147.449,102.505,147.449,102.505,148.32L102.505,148.32z"/>
					</g>
				</g>
			</g>
			<g>
				<g>
					<g>
						<path style="&st2;" d="M93.108,147.285c-0.664,1.484-0.76,3.465-0.415,5.037c0.186,0.85,1.488,0.49,1.302-0.359
							c-0.26-1.185-0.225-2.868,0.279-3.996C94.626,147.178,93.463,146.491,93.108,147.285L93.108,147.285z"/>
					</g>
				</g>
				<g>
					<g>
						<path style="&st2;" d="M93.343,152.817c0.811,0,1.621,0,2.432,0c0.871,0,0.871-1.35,0-1.35c-0.811,0-1.621,0-2.432,0
							C92.472,151.467,92.472,152.817,93.343,152.817L93.343,152.817z"/>
					</g>
				</g>
				<g>
					<g>
						<path style="&st2;" d="M94.038,150.385c0.463,0,0.926,0,1.39,0c0.871,0,0.871-1.35,0-1.35c-0.463,0-0.926,0-1.39,0
							C93.167,149.035,93.167,150.385,94.038,150.385L94.038,150.385z"/>
					</g>
				</g>
				<g>
					<g>
						<path style="&st2;" d="M93.343,148.648c1.715-0.024,3.37-0.38,5.043-0.719c0.853-0.173,0.491-1.474-0.359-1.302
							c-1.557,0.315-3.089,0.648-4.684,0.671C92.473,147.31,92.472,148.66,93.343,148.648L93.343,148.648z"/>
					</g>
				</g>
			</g>
		</g>
		<g>
			<g>
				<g>
					<g>
						<path style="&st2;" d="M29.678,147.034c-0.573,1.25-0.61,2.619-0.611,3.973c0,0.871,1.35,0.871,1.35,0
							c0.001-1.087-0.036-2.281,0.427-3.291C31.204,146.93,30.04,146.243,29.678,147.034L29.678,147.034z"/>
					</g>
				</g>
				<g>
					<g>
						<path style="&st2;" d="M29.783,147.852c0.685,0.684,1.525,1.67,2.553,1.754c0.868,0.071,0.862-1.28,0-1.35
							c-0.115-0.009-0.541-0.368-0.712-0.516c-0.309-0.266-0.598-0.555-0.886-0.843C30.122,146.282,29.167,147.236,29.783,147.852
							L29.783,147.852z"/>
					</g>
				</g>
				<g>
					<g>
						<path style="&st2;" d="M32.295,149.409c0.629-0.597,1.444-0.957,2.075-1.557c0.633-0.601-0.324-1.554-0.955-0.955
							c-0.629,0.597-1.444,0.957-2.075,1.557C30.707,149.055,31.663,150.008,32.295,149.409L32.295,149.409z"/>
					</g>
				</g>
				<g>
					<g>
						<path style="&st2;" d="M32.699,147.375c0.001,1.644,0.052,3.267,0.543,4.849c0.257,0.829,1.561,0.475,1.302-0.359
							c-0.456-1.471-0.494-2.963-0.495-4.49C34.048,146.504,32.698,146.504,32.699,147.375L32.699,147.375z"/>
					</g>
				</g>
			</g>
			<g>
				<g>
					<g>
						<path style="&st2;" d="M17.442,147.987c0-0.065,0-0.13,0-0.194c0-0.871-1.35-0.871-1.35,0c0,0.991,0,1.982,0,2.974
							c0,0.871,1.35,0.871,1.35,0c0-0.991,0-1.982,0-2.974c0-0.871-1.35-0.871-1.35,0c0,0.065,0,0.13,0,0.194
							C16.092,148.858,17.442,148.858,17.442,147.987L17.442,147.987z"/>
					</g>
				</g>
				<g>
					<g>
						<path style="&st2;" d="M15.377,148.315c1.307-0.014,2.435-0.189,3.239,1.055c0.035-0.273,0.07-0.545,0.106-0.818
							c-1.022,1.021-2.046,1.998-3.338,2.674c-0.772,0.404-0.089,1.569,0.682,1.166c1.389-0.727,2.511-1.786,3.611-2.885
							c0.207-0.207,0.269-0.565,0.106-0.818c-0.484-0.75-1.06-1.286-1.908-1.587c-0.783-0.277-1.686-0.146-2.497-0.138
							C14.507,146.974,14.506,148.324,15.377,148.315L15.377,148.315z"/>
					</g>
				</g>
			</g>
			<g>
				<g>
					<g>
						<path style="&st2;" d="M21.875,147.285c-0.664,1.484-0.76,3.465-0.415,5.037c0.186,0.85,1.488,0.49,1.302-0.359
							c-0.26-1.185-0.225-2.868,0.279-3.996C23.393,147.178,22.23,146.491,21.875,147.285L21.875,147.285z"/>
					</g>
				</g>
				<g>
					<g>
						<path style="&st2;" d="M22.11,152.817c0.811,0,1.621,0,2.432,0c0.871,0,0.871-1.35,0-1.35c-0.811,0-1.621,0-2.432,0
							C21.24,151.467,21.24,152.817,22.11,152.817L22.11,152.817z"/>
					</g>
				</g>
				<g>
					<g>
						<path style="&st2;" d="M22.805,150.385c0.463,0,0.926,0,1.39,0c0.871,0,0.871-1.35,0-1.35c-0.463,0-0.926,0-1.39,0
							C21.934,149.035,21.934,150.385,22.805,150.385L22.805,150.385z"/>
					</g>
				</g>
				<g>
					<g>
						<path style="&st2;" d="M22.11,148.648c1.715-0.024,3.37-0.38,5.043-0.719c0.853-0.173,0.491-1.474-0.359-1.302
							c-1.557,0.315-3.089,0.648-4.684,0.671C21.24,147.31,21.239,148.66,22.11,148.648L22.11,148.648z"/>
					</g>
				</g>
			</g>
			<g>
				<g>
					<g>
						<path style="&st2;" d="M79.464,147.285c-0.664,1.484-0.76,3.465-0.415,5.037c0.186,0.85,1.488,0.49,1.302-0.359
							c-0.26-1.185-0.225-2.868,0.279-3.996C80.982,147.178,79.819,146.491,79.464,147.285L79.464,147.285z"/>
					</g>
				</g>
				<g>
					<g>
						<path style="&st2;" d="M79.699,152.817c0.811,0,1.621,0,2.432,0c0.871,0,0.871-1.35,0-1.35c-0.811,0-1.621,0-2.432,0
							C78.829,151.467,78.829,152.817,79.699,152.817L79.699,152.817z"/>
					</g>
				</g>
				<g>
					<g>
						<path style="&st2;" d="M80.394,150.385c0.463,0,0.926,0,1.39,0c0.871,0,0.871-1.35,0-1.35c-0.463,0-0.926,0-1.39,0
							C79.523,149.035,79.523,150.385,80.394,150.385L80.394,150.385z"/>
					</g>
				</g>
				<g>
					<g>
						<path style="&st2;" d="M79.699,148.648c1.715-0.024,3.37-0.38,5.043-0.719c0.853-0.173,0.491-1.474-0.359-1.302
							c-1.557,0.315-3.089,0.648-4.684,0.671C78.829,147.31,78.828,148.66,79.699,148.648L79.699,148.648z"/>
					</g>
				</g>
			</g>
			<g>
				<g>
					<g>
						<g>
							<path style="&st2;" d="M46.423,148.354c0.14,1.355,0.293,2.74,0.65,4.057c0.196,0.724,1.32,0.417,1.124-0.31
								c-0.33-1.219-0.479-2.494-0.609-3.748C47.511,147.615,46.345,147.607,46.423,148.354L46.423,148.354z"/>
						</g>
					</g>
					<g>
						<g>
							<path style="&st2;" d="M46.67,148.354c0.591-0.389,1.873-1.036,2.42-0.214c0.563,0.844-0.745,1.667-1.359,1.919
								c-0.685,0.281-0.385,1.409,0.31,1.124c1.406-0.578,2.832-1.84,2.13-3.492c-0.707-1.663-2.959-1.086-4.09-0.342
								C45.457,147.759,46.04,148.768,46.67,148.354L46.67,148.354z"/>
						</g>
					</g>
				</g>
				<g>
					<g>
						<path style="&st2;" d="M48.221,151.384c0.905,0.332,1.485,1.249,2.134,1.911c0.61,0.623,1.565-0.333,0.955-0.955
							c-0.85-0.867-1.548-1.824-2.73-2.258C47.76,149.781,47.41,151.087,48.221,151.384L48.221,151.384z"/>
					</g>
				</g>
			</g>
			<g>
				<g>
					<g>
						<g>
							<path style="&st2;" d="M53.646,148.354c0.14,1.355,0.293,2.74,0.65,4.057c0.196,0.724,1.32,0.417,1.124-0.31
								c-0.33-1.219-0.479-2.494-0.609-3.748C54.735,147.615,53.569,147.607,53.646,148.354L53.646,148.354z"/>
						</g>
					</g>
					<g>
						<g>
							<path style="&st2;" d="M53.894,148.354c0.591-0.389,1.873-1.036,2.42-0.214c0.563,0.844-0.745,1.667-1.359,1.919
								c-0.685,0.281-0.385,1.409,0.31,1.124c1.406-0.578,2.832-1.84,2.13-3.492c-0.707-1.663-2.959-1.086-4.09-0.342
								C52.681,147.759,53.264,148.768,53.894,148.354L53.894,148.354z"/>
						</g>
					</g>
				</g>
				<g>
					<g>
						<path style="&st2;" d="M55.444,151.384c0.905,0.332,1.485,1.249,2.134,1.911c0.61,0.623,1.565-0.333,0.955-0.955
							c-0.85-0.867-1.548-1.824-2.73-2.258C54.984,149.781,54.634,151.087,55.444,151.384L55.444,151.384z"/>
					</g>
				</g>
			</g>
			<g>
				<g>
					<g>
						<path style="&st2;" d="M38.705,150.419c0.234-0.977,0.226-1.929,1.429-1.965c-0.218-0.166-0.437-0.333-0.655-0.499
							c0.42,1.446,1.669,2.442,2.085,3.872c0.244,0.84,1.556,0.482,1.311-0.361c-0.42-1.446-1.669-2.442-2.085-3.872
							c-0.083-0.284-0.351-0.508-0.655-0.499c-0.78,0.023-1.544,0.201-2.027,0.863c-0.443,0.606-0.542,1.388-0.713,2.1
							C37.191,150.909,38.501,151.271,38.705,150.419L38.705,150.419z"/>
					</g>
				</g>
				<g>
					<g>
						<path style="&st2;" d="M36.841,150.541c2.228-0.628,4.449-1.007,6.768-1.032c0.876-0.009,0.877-1.368,0-1.359
							c-2.438,0.025-4.785,0.42-7.129,1.08C35.637,149.468,35.995,150.78,36.841,150.541L36.841,150.541z"/>
					</g>
				</g>
			</g>
			<g>
				<g>
					<g>
						<path style="&st2;" d="M62.868,150.419c0.234-0.977,0.226-1.929,1.429-1.965c-0.218-0.166-0.437-0.333-0.655-0.499
							c0.42,1.446,1.669,2.442,2.085,3.872c0.244,0.84,1.556,0.482,1.311-0.361c-0.42-1.446-1.669-2.442-2.085-3.872
							c-0.083-0.284-0.351-0.508-0.655-0.499c-0.78,0.023-1.544,0.201-2.027,0.863c-0.443,0.606-0.542,1.388-0.713,2.1
							C61.354,150.909,62.665,151.271,62.868,150.419L62.868,150.419z"/>
					</g>
				</g>
				<g>
					<g>
						<path style="&st2;" d="M61.004,150.541c2.228-0.628,4.449-1.007,6.768-1.032c0.876-0.009,0.877-1.368,0-1.359
							c-2.438,0.025-4.785,0.42-7.129,1.08C59.8,149.468,60.159,150.78,61.004,150.541L61.004,150.541z"/>
					</g>
				</g>
			</g>
			<g>
				<g>
					<g>
						<path style="&st2;" d="M75.694,146.393c-2.104,0.002-4.854,0.132-5.658,2.475c-0.774,2.255,1.07,3.576,3.067,3.905
							c0.852,0.14,1.217-1.161,0.359-1.302c-1.499-0.247-2.616-0.813-2.049-2.462c0.484-1.411,3.141-1.264,4.281-1.264
							C76.565,147.743,76.565,146.392,75.694,146.393L75.694,146.393z"/>
					</g>
				</g>
				<g>
					<g>
						<path style="&st2;" d="M72.942,152.704c0.848,0.37,1.696,0.478,2.455-0.131c0.701-0.563,0.675-1.664,0.484-2.443
							c-0.208-0.845-1.51-0.487-1.302,0.359c0.087,0.353,0.134,0.729-0.059,1.053c-0.166,0.279-0.685,0.089-0.896-0.003
							C72.834,151.194,72.145,152.357,72.942,152.704L72.942,152.704z"/>
					</g>
				</g>
				<g>
					<g>
						<path style="&st2;" d="M72.893,150.621c1.259,0.001,2.482,0.065,3.715,0.338c0.848,0.188,1.209-1.114,0.359-1.302
							c-1.35-0.299-2.696-0.386-4.074-0.387C72.022,149.271,72.022,150.621,72.893,150.621L72.893,150.621z"/>
					</g>
				</g>
			</g>
		</g>
		<g>
			<g>
				<g>
					<g>
						<path style="&st2;" d="M114.763,147.148c-0.886,0.32-1.74-0.181-2.594,0.516c-1.239,1.012-1.109,2.005-0.306,3.263
							c1.275,1.995,3.911,1.164,5.859,1.369c0.866,0.091,0.857-1.26,0-1.35c-1.32-0.139-3.12,0.386-4.304-0.313
							c-0.849-0.501-1.22-1.945,0.092-2.115c0.546-0.071,1.076,0.126,1.613-0.068C115.935,148.156,115.584,146.851,114.763,147.148
							L114.763,147.148z"/>
					</g>
				</g>
			</g>
			<g>
				<g>
					<g>
						<path style="&st2;" d="M126.758,148.108c0.174,0.875,0.145,1.774,0.333,2.647c0.204,0.947,0.896,1.618,1.654,2.159
							c0.278,0.199,0.781,0.072,0.924-0.242c0.824-1.808,0.749-3.648,0.511-5.581c-0.105-0.853-1.457-0.863-1.35,0
							c0.203,1.648,0.383,3.342-0.327,4.9c0.308-0.081,0.616-0.161,0.924-0.242c-1.384-0.987-1.07-2.51-1.367-3.998
							C127.89,146.895,126.589,147.257,126.758,148.108L126.758,148.108z"/>
					</g>
				</g>
			</g>
			<g>
				<g>
					<g>
						<path style="&st2;" d="M121.795,148.16c0.853,0.35,1.896,0.809,2.467,1.571c0.552,0.737-0.664,1.112-1.195,1.295
							c-0.97,0.334-2.081,0.075-2.353-1.02c-0.228-0.917,0.697-1.599,1.44-1.845c0.823-0.272,0.47-1.576-0.359-1.302
							c-1.45,0.48-2.684,1.72-2.408,3.358c0.262,1.558,1.964,2.648,3.49,2.271c1.33-0.328,3.23-1.128,2.844-2.822
							c-0.336-1.474-2.346-2.306-3.567-2.807C121.348,146.527,121.001,147.834,121.795,148.16z"/>
					</g>
				</g>
			</g>
			<g>
				<g>
					<g>
						<g>
							<path style="&st2;" d="M132.039,148.354c0.14,1.355,0.293,2.74,0.65,4.057c0.196,0.724,1.32,0.417,1.124-0.31
								c-0.33-1.219-0.479-2.494-0.609-3.748C133.128,147.615,131.962,147.607,132.039,148.354L132.039,148.354z"/>
						</g>
					</g>
					<g>
						<g>
							<path style="&st2;" d="M132.286,148.354c0.591-0.389,1.873-1.036,2.42-0.214c0.563,0.844-0.745,1.667-1.359,1.919
								c-0.685,0.281-0.385,1.409,0.31,1.124c1.406-0.578,2.832-1.84,2.13-3.492c-0.707-1.663-2.959-1.086-4.09-0.342
								C131.073,147.759,131.656,148.768,132.286,148.354L132.286,148.354z"/>
						</g>
					</g>
				</g>
				<g>
					<g>
						<path style="&st2;" d="M133.837,151.384c0.905,0.332,1.485,1.249,2.134,1.911c0.61,0.623,1.565-0.333,0.955-0.955
							c-0.85-0.867-1.548-1.824-2.73-2.258C133.377,149.781,133.027,151.087,133.837,151.384L133.837,151.384z"/>
					</g>
				</g>
			</g>
			<g>
				<g>
					<g>
						<path style="&st2;" d="M142.703,147.055c-1.045-0.152-2.789-0.44-3.493,0.619c-0.71,1.068,0.51,2.311,1.226,2.979
							c0.636,0.593,1.593-0.36,0.955-0.955c-0.34-0.317-0.673-0.643-0.917-1.042c-0.069-0.113-0.092-0.175-0.122-0.298
							c0.032,0.131,0.027-0.124-0.003,0.044c0.022-0.125-0.009,0.006-0.041,0.045c0.058-0.071,0.316-0.145,0.576-0.167
							c0.484-0.041,0.982,0.008,1.461,0.078c0.364,0.053,0.724-0.084,0.831-0.472C143.263,147.565,143.068,147.109,142.703,147.055
							L142.703,147.055z"/>
					</g>
				</g>
				<g>
					<g>
						<path style="&st2;" d="M140.33,150.517c0.212,0.306,0.435,0.627,0.566,0.977c0.019,0.053,0.035,0.107,0.05,0.162
							c0.058,0.206,0.008-0.083,0.016,0.102c0.006,0.139,0.014-0.023,0.035-0.069c-0.05,0.113,0.031-0.035,0.068-0.06
							c0.069-0.046-0.051,0.01-0.093,0.012c-0.159,0.009-0.312-0.018-0.467-0.049c-0.486-0.099-0.961-0.282-1.415-0.478
							c-0.791-0.341-1.479,0.822-0.682,1.166c0.907,0.391,2.42,1.128,3.382,0.486c1.076-0.718,0.239-2.159-0.294-2.931
							C141.005,149.124,139.834,149.798,140.33,150.517L140.33,150.517z"/>
					</g>
				</g>
			</g>
		</g>
	</g>
</g>
</svg>
