<?xml version="1.0" encoding="utf-8"?>
<!-- Generator: Adobe Illustrator 17.0.0, SVG Export Plug-In . SVG Version: 6.00 Build 0)  -->
<!DOCTYPE svg PUBLIC "-//W3C//DTD SVG 1.1//EN" "http://www.w3.org/Graphics/SVG/1.1/DTD/svg11.dtd" [
	<!ENTITY st0 "fill:#3D3D3D;">
]>
<svg version="1.1" id="Calque_1" xmlns="http://www.w3.org/2000/svg" xmlns:xlink="http://www.w3.org/1999/xlink" x="0px" y="0px"
	 width="135.714px" height="42.77px" viewBox="0 0 135.714 42.77" style="enable-background:new 0 0 135.714 42.77;"
	 xml:space="preserve">
<g>
	<g>
		<path style="&st0;" d="M53.678,8.131c1.9,0,3.786-0.034,5.675-0.258c0.812-0.096,1.5-0.61,1.5-1.5c0-0.745-0.686-1.596-1.5-1.5
			c-1.889,0.223-3.775,0.258-5.675,0.258C51.744,5.131,51.744,8.131,53.678,8.131L53.678,8.131z"/>
	</g>
</g>
<g>
	<g>
		<path style="&st0;" d="M54.811,7.287c5.45,24.371,50.472-2.086,50.767,25.399c0.021,1.933,3.021,1.935,3,0
			c-0.134-12.453-9.314-16.231-20.379-16.732c-9.414-0.426-27.688,3.087-30.495-9.464C57.282,4.602,54.39,5.403,54.811,7.287
			L54.811,7.287z"/>
	</g>
</g>
<g>
	<g>
		<path style="&st0;" d="M104.241,35.734c1.72,0,3.44,0,5.159,0c1.935,0,1.935-3,0-3c-1.72,0-3.44,0-5.159,0
			C102.306,32.734,102.306,35.734,104.241,35.734L104.241,35.734z"/>
	</g>
</g>
</svg>
