<?xml version="1.0" encoding="utf-8"?>
<!-- Generator: Adobe Illustrator 17.0.0, SVG Export Plug-In . SVG Version: 6.00 Build 0)  -->
<!DOCTYPE svg PUBLIC "-//W3C//DTD SVG 1.1//EN" "http://www.w3.org/Graphics/SVG/1.1/DTD/svg11.dtd" [
	<!ENTITY st0 "fill:#3D3D3D;">
]>
<svg version="1.1" id="Calque_1" xmlns="http://www.w3.org/2000/svg" xmlns:xlink="http://www.w3.org/1999/xlink" x="0px" y="0px"
	 width="135.714px" height="42.77px" viewBox="0 0 135.714 42.77" style="enable-background:new 0 0 135.714 42.77;"
	 xml:space="preserve">
<g>
	<g>
		<path style="&st0;" d="M2.678,9.131c1.9,0,3.786-0.034,5.675-0.258c0.812-0.096,1.5-0.61,1.5-1.5c0-0.745-0.686-1.596-1.5-1.5
			C6.464,6.096,4.578,6.13,2.678,6.131C0.744,6.131,0.744,9.131,2.678,9.131L2.678,9.131z"/>
	</g>
</g>
<g>
	<g>
		<path style="&st0;" d="M93.047,36.734c1.118,0,2.236,0,3.354,0c1.935,0,1.935-3,0-3c-1.118,0-2.236,0-3.354,0
			C91.112,33.734,91.112,36.734,93.047,36.734L93.047,36.734z"/>
	</g>
</g>
<g>
	<g>
		<path class="wire" style="&st0;" d="M4.711,8.178c0.536,16.748,25.214,14.398,36.441,14.097c10.107-0.271,20.255-0.856,30.34,0.148
			c8.489,0.845,18.114,3.324,21.908,11.794c0.79,1.763,3.374,0.236,2.59-1.514c-7.076-15.798-30.742-14.078-44.887-13.724
			c-9.34,0.234-18.746,0.885-28.07,0.003c-6.74-0.637-15.063-2.687-15.323-10.803C7.649,6.249,4.649,6.243,4.711,8.178L4.711,8.178z
			"/>
	</g>
</g>
</svg>
