<?xml version="1.0" encoding="utf-8"?>
<!-- Generator: Adobe Illustrator 17.0.0, SVG Export Plug-In . SVG Version: 6.00 Build 0)  -->
<!DOCTYPE svg PUBLIC "-//W3C//DTD SVG 1.1//EN" "http://www.w3.org/Graphics/SVG/1.1/DTD/svg11.dtd" [
	<!ENTITY st0 "fill:#3D3D3D;">
]>
<svg version="1.1" id="Calque_1" xmlns="http://www.w3.org/2000/svg" xmlns:xlink="http://www.w3.org/1999/xlink" x="0px" y="0px"
	 width="135.714px" height="42.77px" viewBox="0 0 135.714 42.77" style="enable-background:new 0 0 135.714 42.77;"
	 xml:space="preserve">
<g>
	<g>
		<path style="&st0;" d="M27.678,7.131c1.9,0,3.786-0.034,5.675-0.258c0.812-0.096,1.5-0.61,1.5-1.5c0-0.745-0.686-1.596-1.5-1.5
			c-1.889,0.223-3.775,0.258-5.675,0.258C25.744,4.131,25.744,7.131,27.678,7.131L27.678,7.131z"/>
	</g>
</g>
<g>
	<g>
		<path style="&st0;" d="M128.047,35.734c1.118,0,2.236,0,3.354,0c1.935,0,1.935-3,0-3c-1.118,0-2.236,0-3.354,0
			C126.112,32.734,126.112,35.734,128.047,35.734L128.047,35.734z"/>
	</g>
</g>
<g>
	<g>
		<path style="&st0;" d="M28.961,7.404c1.056,7.876,7.622,11.516,14.775,13.212c10.59,2.511,22.001,1.779,32.774,1.341
			c11.615-0.472,23.315-1.433,34.932-0.532c6.847,0.531,17.639,2.062,17.355,11.002c-0.061,1.936,2.939,1.93,3,0
			c0.592-18.665-32.877-14.442-43.894-13.976c-11.83,0.5-23.739,1.395-35.568,0.432c-7.41-0.603-19.144-2.308-20.374-11.479
			C31.707,5.516,28.704,5.492,28.961,7.404L28.961,7.404z"/>
	</g>
</g>
</svg>
