<?xml version="1.0" encoding="utf-8"?>
<!-- Generator: Adobe Illustrator 17.0.0, SVG Export Plug-In . SVG Version: 6.00 Build 0)  -->
<!DOCTYPE svg PUBLIC "-//W3C//DTD SVG 1.1//EN" "http://www.w3.org/Graphics/SVG/1.1/DTD/svg11.dtd" [
	<!ENTITY st0 "fill:#4B4B4B;">
]>
<svg version="1.1" id="Calque_1" xmlns="http://www.w3.org/2000/svg" xmlns:xlink="http://www.w3.org/1999/xlink" x="0px" y="0px"
	 width="20px" height="20px" viewBox="0 0 13.753 13.448" style="enable-background:new 0 0 13.753 13.448;"
	 xml:space="preserve">
<g>
	<g>
		<g>
			<path style="&st0;" d="M4.327,3.208C2.465,4.283,1.493,6.14,1.891,8.275c0.44,2.367,2.82,3.557,4.999,3.733
				c4.757,0.385,6.897-6.621,2.461-8.676C8.401,2.892,7.571,4.3,8.526,4.743c3.084,1.429,1.464,5.701-1.636,5.632
				C3.559,10.3,2.122,6.367,5.151,4.619C6.063,4.093,5.241,2.681,4.327,3.208L4.327,3.208z"/>
		</g>
	</g>
	<g>
		<g>
			<path style="&st0;" d="M6.055,1.938c-0.045,1.193-0.07,2.387-0.071,3.581c-0.001,1.054,1.633,1.053,1.634,0
				c0.001-1.194,0.026-2.388,0.071-3.581C7.728,0.884,6.095,0.888,6.055,1.938L6.055,1.938z"/>
		</g>
	</g>
</g>
</svg>
