<?xml version="1.0" encoding="utf-8"?>
<!-- Generator: Adobe Illustrator 17.0.0, SVG Export Plug-In . SVG Version: 6.00 Build 0)  -->
<!DOCTYPE svg PUBLIC "-//W3C//DTD SVG 1.1//EN" "http://www.w3.org/Graphics/SVG/1.1/DTD/svg11.dtd" [
	<!ENTITY st0 "fill:#808080;">
	<!ENTITY st1 "fill:#3D3D3D;">
	<!ENTITY st2 "fill:#4D4D4D;">
	<!ENTITY st3 "fill:none;stroke:#3D3D3D;stroke-width:0.4651;stroke-miterlimit:10;">
]>
<svg version="1.1" id="Calque_1" xmlns="http://www.w3.org/2000/svg" xmlns:xlink="http://www.w3.org/1999/xlink" x="0px" y="0px"
	 width="43.331px" height="33.247px" viewBox="0 0 43.331 33.247" style="enable-background:new 0 0 43.331 33.247;"
	 xml:space="preserve">
<g>
	<path style="&st0;" d="M29.78,1.644c3.113,9.055,3.243,21.581,0.13,30.636l0,0c-5.093-3.113-9.886-6.034-14.98-9.429l-3.048-6.868
		L29.78,1.644z"/>
	<g>
		<path style="&st1;" d="M29.107,1.83c1.585,4.932,2.269,9.959,2.375,15.132c0.037,1.819-1.065,14.81-2.739,13.787
			c-1.995-1.219-3.985-2.445-5.97-3.68c-1.554-0.967-6.574-3.071-7.3-4.706c-0.921-2.075-1.842-4.15-2.762-6.224
			c-0.356-0.803-0.644,0.584,0.037,0.039c0.669-0.536,1.337-1.071,2.006-1.607c2.063-1.652,4.125-3.305,6.188-4.957
			c3.111-2.492,6.221-4.984,9.332-7.476c0.702-0.563-0.292-1.543-0.987-0.987C23.321,5.93,17.355,10.71,11.389,15.489
			c-0.26,0.208-0.227,0.58-0.109,0.845c1.016,2.289,2.032,4.579,3.048,6.868c0.663,1.495,4.86,3.254,6.257,4.14
			c2.968,1.883,5.974,3.707,8.973,5.54c0.398,0.243,0.89,0.003,1.025-0.417c3.188-9.966,3.066-21.058-0.13-31.007
			C30.178,0.606,28.831,0.97,29.107,1.83z"/>
	</g>
</g>
<g>
	<path style="&st0;" d="M3.915,9.136c-0.393,2.067-0.749,3.976-0.749,5.957v-0.431c0,4.388-0.603,8.615,0.749,13.235l0.548-0.428
		c3.961,0.566,7.366,0.849,11.328,0.849l-0.03-0.421c0-1.415,0.016-2.547-0.267-3.961L3.915,9.136z"/>
	<g>
		<path style="&st1;" d="M3.205,8.951c-0.39,2.051-0.733,4.054-0.811,6.142c0.465,0,0.93,0,1.395,0c0-0.144,0-0.287,0-0.431
			c0-0.9-1.385-0.899-1.395,0c-0.05,4.552-0.324,8.968,0.811,13.42c0.102,0.4,0.663,0.69,1.025,0.417
			c0.871-0.658,3.537,0.085,4.497,0.185c2.343,0.245,4.699,0.31,7.054,0.332c0.363,0.003,0.72-0.32,0.698-0.698
			c-0.094-1.573,0.314-3.821-0.729-5.152c-1.169-1.492-2.338-2.985-3.508-4.477c-2.624-3.349-5.247-6.698-7.871-10.046
			C3.817,7.935,2.837,8.93,3.385,9.63c2.909,3.713,5.818,7.426,8.727,11.139c0.684,0.873,1.368,1.746,2.052,2.619
			c1.101,1.406,0.88,2.656,0.894,4.509c-0.001-0.114-10.324-1.515-11.532-0.602c0.342,0.139,0.683,0.278,1.025,0.417
			c-1.108-4.346-0.81-8.619-0.761-13.049c-0.465,0-0.93,0-1.395,0c0,0.144,0,0.287,0,0.431c0,0.903,1.362,0.896,1.395,0
			c0.073-1.957,0.396-3.853,0.761-5.772C4.718,8.443,3.373,8.068,3.205,8.951z"/>
	</g>
</g>
<g>
	<path style="&st2;" d="M15.473,23.886c-3.517,0-4.128,0.238-10.543-0.762H4.658c-0.585-5-0.17-9-0.17-14c0,0,6.934,0,9.858,0
		c0,5,0,8.885,0.585,13.564L15.473,23.886z"/>
	<g>
		<path style="&st1;" d="M15.473,23.238c-3.621-0.001-7.221-0.712-10.815-0.712c0.233,0.233,0.465,0.465,0.698,0.698
			c-0.504-4.604-0.199-9.207-0.17-13.825C4.953,9.632,4.72,9.864,4.488,10.097c3.286,0,6.572,0,9.858,0
			c-0.233-0.233-0.465-0.465-0.698-0.698c0.001,3.091,0.019,6.178,0.194,9.264c0.113,1.993,0.139,3.844,1.028,5.624
			c0.402,0.805,1.606,0.098,1.205-0.704c-0.893-1.788-0.784-3.967-0.896-5.939c-0.156-2.744-0.136-5.498-0.136-8.246
			c0-0.38-0.317-0.698-0.698-0.698c-3.286,0-6.572,0-9.858,0c-0.382,0-0.695,0.317-0.698,0.698
			c-0.029,4.618-0.334,9.221,0.17,13.825c0.041,0.378,0.286,0.698,0.698,0.698c3.594,0,7.194,0.711,10.815,0.712
			C16.373,24.634,16.373,23.238,15.473,23.238z"/>
	</g>
</g>
<g>
	<g>
		<path style="&st1;" d="M28.25,25.819c0.283,1.981,0.566,3.961,0.849,5.942c0.127,0.888,1.471,0.509,1.345-0.371
			c-0.283-1.981-0.566-3.961-0.849-5.942C29.469,24.56,28.125,24.939,28.25,25.819L28.25,25.819z"/>
	</g>
</g>
<g>
	<path style="&st2;" d="M29.373,25.851c-4.094-2.339-10.349-6.173-14.443-8.512l-0.292-3.26C18.147,10.569,26.856,3.399,29.78,1.644
		C31.534,8.662,33.168,14.632,29.373,25.851z"/>
	<g>
		<path style="&st1;" d="M29.725,25.248c-2.421-1.395-4.821-2.825-7.221-4.256c-0.736-0.439-6.852-3.389-6.897-3.895
			c-0.167-1.862-0.509-2.515,0.872-3.818c1.753-1.654,3.603-3.209,5.448-4.759c2.053-1.724,4.155-3.393,6.312-4.987
			c0.753-0.556,1.022-1.089,1.144-0.603c0.27,1.081,0.525,2.164,0.767,3.252c1.49,6.674,0.623,13.029-1.449,19.484
			c-0.276,0.859,1.072,1.224,1.345,0.371c2.744-8.551,2.559-15.973,0.407-24.578c-0.107-0.428-0.648-0.655-1.025-0.417
			c-3.003,1.9-5.755,4.23-8.487,6.491c-1.162,0.962-7.146,4.913-7,6.545c0.199,2.214-0.237,3.358,1.704,4.477
			c4.487,2.585,8.89,5.313,13.377,7.898C29.802,26.903,30.505,25.697,29.725,25.248z"/>
	</g>
</g>
<g>
	<g>
		<path style="&st1;" d="M3.96,23.224c-0.011,1.417-0.158,2.83-0.214,4.245c-0.036,0.9,1.36,0.897,1.395,0
			c0.056-1.416,0.203-2.828,0.214-4.245C5.363,22.324,3.968,22.325,3.96,23.224L3.96,23.224z"/>
	</g>
</g>
<path style="&st3;" d="M12.164,14.577"/>
</svg>
