<?xml version="1.0" encoding="utf-8"?>
<!-- Generator: Adobe Illustrator 17.0.0, SVG Export Plug-In . SVG Version: 6.00 Build 0)  -->
<!DOCTYPE svg PUBLIC "-//W3C//DTD SVG 1.1//EN" "http://www.w3.org/Graphics/SVG/1.1/DTD/svg11.dtd" [
	<!ENTITY st0 "fill:#5D5D5D;">
	<!ENTITY st1 "fill:#3D3D3D;">
	<!ENTITY st2 "fill:#4B4B4B;">
	<!ENTITY st3 "fill:#F2F2F2;">
]>
<svg version="1.1" id="Calque_1" xmlns="http://www.w3.org/2000/svg" xmlns:xlink="http://www.w3.org/1999/xlink" x="0px" y="0px"
	 width="43.331px" height="21.084px" viewBox="0 6.026 43.331 21.084" style="enable-background:new 0 6.026 43.331 21.084;"
	 xml:space="preserve">
<g>
	<g>
		<path style="&st0;" d="M1.073,19c8.878,7.869,32.092,8.306,40.092-1.835v-0.727c-1-1.53-3.014-3.34-4.929-3.558L4.903,13.972
			C3.858,14.847,1.073,19,1.073,19z"/>
	</g>
	<g>
		<g>
			<path style="&st1;" d="M0.522,19.671c7.669,6.373,19.008,7.112,28.421,5.229c4.962-0.993,9.694-3.322,13.133-7.064
				c2.059-2.24-3.943-5.968-5.719-5.906c-7.14,0.249-14.28,0.498-21.42,0.747c-3.187,0.111-6.375,0.222-9.562,0.334
				c-2.15,0.075-3.959,3.967-5.001,5.51c-0.687,1.017,0.958,1.966,1.639,0.958c0.876-1.297,2.453-4.538,3.627-4.579
				c2.217-0.077,4.434-0.155,6.651-0.232c6.628-0.231,13.256-0.462,19.884-0.694c3.271-0.114,4.608-0.599,7.453,1.964
				c2.678,2.412-8.133,6.334-10.015,6.853c-8.752,2.415-20.55,1.518-27.748-4.463C0.93,17.553-0.421,18.888,0.522,19.671z"/>
		</g>
	</g>
	<g>
		<g>
			<path style="&st2;" d="M37.699,10.071c0.139,2.919,0.695,5.282-0.973,7.088c-5.282,5.421-21.424,3.455-28.373,2.343"/>
			<g>
				<path style="&st1;" d="M37.001,10.071c0.262,4.025-0.346,7.225-4.57,8.782c-2.525,0.931-5.328,1.083-7.987,1.204
					c-5.3,0.242-10.679-0.41-15.906-1.227c-0.88-0.138-1.258,1.207-0.371,1.345c6.585,1.03,13.544,1.928,20.187,0.973
					c2.74-0.394,6.059-0.96,8.208-2.902c2.48-2.241,2.036-5.074,1.834-8.175C38.338,9.178,36.942,9.172,37.001,10.071L37.001,10.071
					z"/>
			</g>
		</g>
		<g>
			<path style="&st1;" d="M33.251,12.434C30.332,13.407,5.87,24.943,6.704,16.326C7.26,9.932,32.973,7.013,38.115,9.237
				c-1.112,0.973-2.78,2.363-4.17,2.919"/>
			<g>
				<path style="&st1;" d="M33.065,11.761c-3.35,1.194-24.87,11.277-25.68,5.159c-0.633-4.777,11.561-6.376,14.565-6.878
					c4.764-0.796,11.29-1.874,15.98-0.133c-0.103-0.389-0.205-0.777-0.308-1.166c-1.264,1.077-2.548,2.051-4.028,2.81
					c-0.801,0.41-0.095,1.614,0.704,1.205c1.613-0.826,2.935-1.855,4.311-3.028c0.434-0.37,0.141-1-0.308-1.166
					c-5.625-2.087-13.166-0.537-18.863,0.508c-3.365,0.618-13.293,2.269-13.432,7.253c-0.276,9.903,23.524-1.827,27.43-3.219
					C34.277,12.807,33.915,11.458,33.065,11.761L33.065,11.761z"/>
			</g>
		</g>
	</g>
	<g>
		<g>
			<g>
				<path style="&st3;" d="M30.612,9.369c0.621,0.312,1.308,0.694,1.67,1.312c0.472,0.806-0.768,1.214-1.315,1.372
					c-0.835,0.241-2.153,0.119-2.12-1.031c0.026-0.941,1.098-1.497,1.892-1.636c0.209-0.037,0.12-0.354-0.088-0.318
					c-0.936,0.165-2.011,0.81-2.123,1.853c-0.113,1.042,0.961,1.765,1.929,1.588c0.775-0.142,2.281-0.479,2.253-1.53
					c-0.024-0.909-1.25-1.552-1.932-1.894C30.589,8.99,30.422,9.274,30.612,9.369z"/>
			</g>
		</g>
	</g>
	<g>
		<g>
			<path style="&st3;" d="M12.999,12.587c-0.54,1.126-0.54,2.366-0.828,3.565c-0.049,0.207,0.268,0.294,0.318,0.088
				c0.278-1.163,0.271-2.395,0.794-3.486C13.375,12.563,13.091,12.395,12.999,12.587L12.999,12.587z"/>
		</g>
	</g>
</g>
</svg>
