<?xml version="1.0" encoding="utf-8"?>
<!-- Generator: Adobe Illustrator 17.0.0, SVG Export Plug-In . SVG Version: 6.00 Build 0)  -->
<!DOCTYPE svg PUBLIC "-//W3C//DTD SVG 1.1//EN" "http://www.w3.org/Graphics/SVG/1.1/DTD/svg11.dtd" [
	<!ENTITY st0 "fill:#3D3D3D;">
	<!ENTITY st1 "fill:#2FDCFD;">
	<!ENTITY st2 "fill:none;stroke:#3D3D3D;stroke-width:0.4651;stroke-miterlimit:10;">
]>
<svg version="1.1" id="Calque_1" xmlns="http://www.w3.org/2000/svg" xmlns:xlink="http://www.w3.org/1999/xlink" x="0px" y="0px"
	 width="43.331px" height="33.247px" viewBox="0 0 43.331 33.247" style="enable-background:new 0 0 43.331 33.247;"
	 xml:space="preserve">
<g>
	<g>
		<path style="&st0;" d="M35.167,9.662c1.995-1.366,3.701-3.085,5.405-4.788c0.637-0.637-0.35-1.623-0.987-0.987
			c-1.617,1.616-3.229,3.273-5.122,4.57C33.726,8.962,34.423,10.172,35.167,9.662L35.167,9.662z"/>
	</g>
</g>
<g>
	<g>
		<path style="&st0;" d="M37.155,16.775c1.56,0,3.119,0,4.679,0c0.9,0,0.9-1.395,0-1.395c-1.56,0-3.119,0-4.679,0
			C36.255,15.38,36.255,16.775,37.155,16.775L37.155,16.775z"/>
	</g>
</g>
<g>
	<g>
		<path style="&st0;" d="M36.076,24.759c1.288,1.258,2.805,2.251,4.094,3.509c0.644,0.629,1.631-0.357,0.987-0.987
			c-1.288-1.258-2.805-2.251-4.094-3.509C36.419,23.144,35.432,24.129,36.076,24.759L36.076,24.759z"/>
	</g>
</g>
<g>
	<path class="button-fill-color" fill="#2fdcfd" d="M29.78,4.644c3.113,9.055,3.243,18.581,0.13,27.636l0,0c-5.093-3.113-9.886-6.034-14.98-9.429l-1.457-5.277
		L29.78,4.644z"/>
	<g>
		<path style="&st0;" d="M29.107,4.83c1.439,4.469,2.243,8.929,2.375,13.632c0.08,2.852-0.316,5.7-0.834,8.496
			c-0.488,2.637-0.548,4.622-3.41,2.87c-1.99-1.218-3.972-2.449-5.949-3.69c-0.939-0.589-5.464-2.671-5.736-3.654
			c-0.267-0.965-0.533-1.93-0.8-2.896c-0.274-0.993-0.156-2.023-0.74-1.559c5.42-4.297,10.84-8.595,16.26-12.892
			c0.705-0.559-0.29-1.539-0.987-0.987C23.851,8.46,18.416,12.77,12.98,17.08c-0.189,0.149-0.24,0.46-0.179,0.679
			c0.396,1.434,0.577,4.525,1.637,5.585c3.914,3.914,10.403,6.655,15.121,9.539c0.398,0.243,0.89,0.003,1.025-0.417
			c2.986-9.32,2.866-18.705-0.13-28.007C30.178,3.606,28.831,3.971,29.107,4.83z"/>
	</g>
</g>
<g>
	<path class="button-fill-color" fill="#2fdcfd" d="M3.915,12.399c-0.393,2.067-0.749,0.713-0.749,2.694v-0.431c0,4.388-0.603,8.615,0.749,13.235l0.548-0.428
		c3.961,0.566,7.366,0.849,11.328,0.849l-0.03-0.421c0-1.415,0.016-2.547-0.267-3.961L3.915,12.399z"/>
	<g>
		<path style="&st0;" d="M3.205,12.214c-0.319,1.214-0.746,1.63-0.811,2.88c0.465,0,0.93,0,1.395,0c0-0.144,0-0.287,0-0.431
			c0-0.9-1.387-0.899-1.395,0c-0.043,4.548-0.35,8.973,0.811,13.42C3.31,28.481,3.867,28.774,4.23,28.5
			c0.975-0.737,3.662,0.101,4.775,0.211c2.252,0.223,4.515,0.289,6.776,0.306c0.363,0.003,0.72-0.32,0.698-0.698
			c-0.083-1.393,0.393-3.975-0.708-5.07c-1.21-1.204-2.421-2.409-3.631-3.613c-2.59-2.577-5.179-5.153-7.769-7.73
			c-0.638-0.635-1.625,0.351-0.987,0.987c2.155,2.144,4.31,4.288,6.465,6.433c1.381,1.374,2.762,2.748,4.143,4.123
			c1.428,1.42,0.971,2.879,1.09,4.871c0.233-0.233,0.465-0.465,0.698-0.698c-2.641-0.019-5.262-0.156-7.89-0.416
			c-1.614-0.16-3.039-0.912-4.365,0.09c0.342,0.139,0.683,0.278,1.025,0.417c-1.13-4.329-0.803-8.632-0.761-13.049
			c-0.465,0-0.93,0-1.395,0c0,0.144,0,0.287,0,0.431c0,0.905,1.349,0.893,1.395,0c0.047-0.897,0.532-1.639,0.761-2.509
			C4.78,11.714,3.434,11.344,3.205,12.214z"/>
	</g>
</g>
<g>
	<g>
		<path style="&st0;" d="M28.25,28.819c0.16,1.06,0.69,1.896,0.849,2.942c0.134,0.887,1.479,0.509,1.345-0.371
			c-0.16-1.06-0.69-1.896-0.849-2.942C29.461,27.561,28.117,27.939,28.25,28.819L28.25,28.819z"/>
	</g>
</g>
<g>
	<g>
		<path style="&st0;" d="M3.96,26.224c-0.001,0.112-0.002,0.224-0.006,0.337c-0.002,0.023-0.003,0.045-0.005,0.068
			c0.004-0.146,0.062-0.273,0.176-0.382c0.164-0.068,0.329-0.136,0.493-0.204c0.267,0.007,0.587,0.318,0.442,0.162
			c-0.085-0.091-0.202-0.153-0.319-0.188c-0.219-0.066-0.55-0.012-0.702,0.18c-0.291,0.369-0.275,0.822-0.293,1.274
			c-0.037,0.9,1.358,0.896,1.395,0c0.006-0.153,0.014-0.305,0.025-0.458c0.011-0.117,0.013-0.134,0.006-0.053
			c0.118-0.4-0.248-0.322-1.098,0.232c0.176,0.138,0.291,0.239,0.535,0.246c0.697,0.019,0.744-0.709,0.746-1.213
			C5.36,25.324,3.965,25.325,3.96,26.224L3.96,26.224z"/>
	</g>
</g>
<path style="&st2;" d="M12.164,14.577"/>
<g>
	<path class="button-fill-color" fill="#2fdcfd" d="M15.473,26.886c-3.517,0-4.128,0.238-10.543-0.762H4.658c-0.585-5-0.17-9-0.17-14c0,0,6.934,0,9.858,0
		c0,5,0,8.885,0.585,13.564L15.473,26.886z"/>
	<g>
		<path style="&st0;" d="M15.473,26.238c-3.621-0.001-7.221-0.712-10.815-0.712c0.233,0.233,0.465,0.465,0.698,0.698
			c-0.504-4.604-0.199-9.207-0.17-13.825c-0.233,0.233-0.465,0.465-0.698,0.698c3.286,0,6.572,0,9.858,0
			c-0.233-0.233-0.465-0.465-0.698-0.698c0.001,3.091,0.019,6.178,0.194,9.264c0.113,1.993,0.139,3.844,1.028,5.624
			c0.402,0.805,1.606,0.098,1.205-0.704c-0.893-1.788-0.784-3.967-0.896-5.939c-0.156-2.744-0.136-5.498-0.136-8.246
			c0-0.38-0.317-0.698-0.698-0.698c-3.286,0-6.572,0-9.858,0c-0.382,0-0.695,0.317-0.698,0.698
			c-0.029,4.618-0.334,9.221,0.17,13.825c0.041,0.378,0.286,0.698,0.698,0.698c3.594,0,7.194,0.711,10.815,0.712
			C16.373,27.634,16.373,26.238,15.473,26.238z"/>
	</g>
</g>
<g>
	<path class="button-fill-color" fill="#2fdcfd" d="M29.373,28.851c-4.094-2.339-10.349-6.173-14.443-8.512l-0.292-3.26C18.147,13.569,26.856,6.399,29.78,4.644
		C31.534,11.662,33.168,17.632,29.373,28.851z"/>
	<g>
		<path style="&st0;" d="M29.725,28.248c-2.421-1.395-4.821-2.825-7.221-4.256c-0.736-0.439-6.852-3.389-6.897-3.895
			c-0.167-1.862-0.509-2.515,0.872-3.818c1.753-1.654,3.603-3.209,5.448-4.759c2.053-1.724,4.155-3.393,6.312-4.987
			c0.753-0.556,1.022-1.089,1.144-0.603c0.27,1.081,0.525,2.164,0.767,3.252c1.49,6.674,0.623,13.029-1.449,19.484
			c-0.276,0.859,1.072,1.224,1.345,0.371c2.744-8.551,2.559-15.973,0.407-24.577c-0.107-0.428-0.648-0.655-1.025-0.417
			c-3.003,1.9-5.755,4.23-8.487,6.491c-1.162,0.962-7.146,4.913-7,6.545c0.199,2.214-0.237,3.358,1.704,4.477
			c4.487,2.585,8.89,5.313,13.377,7.898C29.802,29.903,30.505,28.697,29.725,28.248z"/>
	</g>
</g>
</svg>
