<?xml version="1.0" encoding="utf-8"?>
<!-- Generator: Adobe Illustrator 17.0.0, SVG Export Plug-In . SVG Version: 6.00 Build 0)  -->
<!DOCTYPE svg PUBLIC "-//W3C//DTD SVG 1.1//EN" "http://www.w3.org/Graphics/SVG/1.1/DTD/svg11.dtd">
<svg version="1.1" id="Calque_1" xmlns="http://www.w3.org/2000/svg" xmlns:xlink="http://www.w3.org/1999/xlink" x="0px" y="0px"
	 width="43.33px" height="21.08px" viewBox="0 0 43.33 21.08" enable-background="new 0 0 43.33 21.08" xml:space="preserve">
<g opacity="0.6">
	<path fill="#CCCCCC" d="M8.577,11.264c-1.216,0.035-5.806,1.23-5.602,4.051c0.271,5.118,18.74,4.13,21.177,4.236
		c3.769-0.11,10.349,0.148,14.051-2.257c4.66-2.964,0.798-6.032-3.194-5.209L8.577,11.264z"/>
	<g>
		<path fill="#3D3D3D" d="M8.577,10.116c-3.147,0.336-6.369,1.788-6.75,5.2c-0.328,2.937,4.245,4.082,6.211,4.519
			c4.414,0.98,9.104,0.902,13.599,0.871c5.281-0.036,10.804,0.269,15.794-1.712c2.378-0.944,6.192-4.89,2.666-7.042
			c-2.514-1.535-5.638-1.032-8.501-1.12C23.924,10.592,16.251,10.354,8.577,10.116c-1.482-0.046-1.477,2.251,0,2.297
			c8.747,0.272,17.494,0.543,26.241,0.815c0.064,0.002,0.128,0.004,0.192,0.006c2.346-0.669,2.552,0.671,0.618,4.02
			c-2.451,0.973-5.283,0.985-7.879,1.081c-2.557,0.095-5.123,0.075-7.681,0.083c-3.504,0.01-7.023-0.103-10.491-0.627
			c-1.532-0.232-3.051-0.614-4.433-1.326c-3.109-1.603,1.895-3.887,3.435-4.051C10.034,12.257,10.049,9.959,8.577,10.116z"/>
	</g>
</g>
<g>
	<g>
		<path fill="#3D3D3D" d="M8.577,10.116c-3.147,0.336-6.369,1.788-6.75,5.2c-0.328,2.937,4.245,4.082,6.211,4.519
			c4.414,0.98,9.104,0.902,13.599,0.871c5.281-0.036,10.804,0.269,15.794-1.712c2.378-0.944,6.192-4.89,2.666-7.042
			c-2.514-1.535-5.638-1.032-8.501-1.12C23.924,10.592,16.251,10.354,8.577,10.116c-1.482-0.046-1.477,2.251,0,2.297
			c8.747,0.272,17.494,0.543,26.241,0.815c0.064,0.002,0.128,0.004,0.192,0.006c2.346-0.669,2.552,0.671,0.618,4.02
			c-2.451,0.973-5.283,0.985-7.879,1.081c-2.557,0.095-5.123,0.075-7.681,0.083c-3.504,0.01-7.023-0.103-10.491-0.627
			c-1.532-0.232-3.051-0.614-4.433-1.326c-3.109-1.603,1.895-3.887,3.435-4.051C10.034,12.257,10.049,9.959,8.577,10.116z"/>
	</g>
</g>
<g>
	<path fill="#4B4B4B" d="M9.722,14.202c0.406,2.639,10.262,3.007,11.973,2.963c4.424-0.114,8.693-1.914,12.666-3.248l0.309-0.176
		v-0.177c0-2.648,1.582-6.498,1.224-9.325L9.722,14.202z"/>
	<g>
		<path fill="#3D3D3D" d="M8.615,14.507c1.739,4.465,10.852,3.965,14.724,3.688c2.259-0.162,4.474-0.898,6.613-1.588
			c1.375-0.444,4.336-0.845,5.214-2.112c1.649-2.38,1.84-7.408,1.69-10.258c-0.036-0.682-0.718-1.389-1.454-1.107
			C26.74,6.452,18.078,9.773,9.417,13.094c-1.368,0.525-0.775,2.746,0.611,2.215c8.662-3.321,17.324-6.643,25.985-9.964
			c-0.485-0.369-0.969-0.738-1.454-1.107c0.163,3.11-0.646,6.029-1.37,9.02c-0.125,0.515-7.294,2.15-8.542,2.431
			c-2.497,0.563-12.698,1.083-13.818-1.792C10.298,12.532,8.076,13.125,8.615,14.507z"/>
	</g>
</g>
<g>
	<path fill="#4B4B4B" d="M31.165,1.969c9.415-0.223,0.804,7.26-4.866,9.463c-11.248,4.377-24.44,3.781-14.44-2.587
		C14.255,7.312,26.616,2.077,31.165,1.969z"/>
	<g>
		<path fill="#3D3D3D" d="M31.165,3.118c3.705,0.039,3.022,1.465,0.836,3.482c-1.707,1.576-3.869,2.832-6.007,3.725
			c-4.241,1.772-11.769,4.282-16.296,2.327c-0.774-0.334,3.13-3.056,3.884-3.451c1.703-0.893,3.495-1.636,5.271-2.368
			C22.68,5.254,26.984,3.372,31.165,3.118c1.471-0.089,1.48-2.387,0-2.297c-6.369,0.387-13.104,3.572-18.742,6.397
			c-3.332,1.669-8.397,6.789-1.964,8.011c6.969,1.324,16.338-1.667,21.844-5.938c1.767-1.371,4.32-3.353,4.168-5.873
			c-0.148-2.47-3.553-2.579-5.306-2.597C29.684,0.806,29.685,3.102,31.165,3.118z"/>
	</g>
</g>
<g>
	<g>
		<path fill="#FFFFFF" d="M14.804,9.366c1.042,1.341-1.008,2.676-2.26,2.407c-0.378-0.081-0.382-0.509-0.293-0.814
			c0.126-0.428,0.568-0.747,0.923-0.974c0.456-0.291,1.366-0.777,1.935-0.585c0.165,0.056,0.236-0.205,0.072-0.26
			c-0.747-0.252-1.919,0.4-2.473,0.841c-0.5,0.397-1.287,1.546-0.393,1.996c0.698,0.351,1.785-0.133,2.337-0.562
			c0.776-0.604,0.963-1.443,0.344-2.239C14.888,9.038,14.698,9.231,14.804,9.366L14.804,9.366z"/>
	</g>
</g>
<g>
	<g>
		<path fill="#FFFFFF" d="M29.544,3.997c0.402,0.411,0.766,0.859,1.168,1.27c0.122,0.125,0.313-0.066,0.191-0.191
			c-0.402-0.411-0.766-0.859-1.168-1.27C29.613,3.681,29.423,3.872,29.544,3.997L29.544,3.997z"/>
	</g>
</g>
</svg>
