<?xml version="1.0" encoding="utf-8"?>
<!-- Generator: Adobe Illustrator 17.0.0, SVG Export Plug-In . SVG Version: 6.00 Build 0)  -->
<!DOCTYPE svg PUBLIC "-//W3C//DTD SVG 1.1//EN" "http://www.w3.org/Graphics/SVG/1.1/DTD/svg11.dtd" [
	<!ENTITY st0 "fill:#5D5D5D;">
	<!ENTITY st1 "fill:#3D3D3D;">
	<!ENTITY st2 "fill:#42FD84;">
	<!ENTITY st3 "fill:#F2F2F2;">
]>
<svg version="1.1" id="Calque_1" xmlns="http://www.w3.org/2000/svg" xmlns:xlink="http://www.w3.org/1999/xlink" x="0px" y="0px"
	 width="43.331px" height="21.084px" viewBox="0 6.026 43.331 21.084" style="enable-background:new 0 6.026 43.331 21.084;"
	 xml:space="preserve">
<g>
	<path style="&st0;" d="M1.073,19c8.878,7.869,32.092,8.306,40.092-1.835v-0.727c-1-1.53-3.014-3.34-4.929-3.558L4.903,13.972
		C3.858,14.847,1.073,19,1.073,19z"/>
</g>
<g>
	<g>
		<path style="&st1;" d="M0.522,19.671c7.669,6.373,19.008,7.112,28.421,5.229c4.962-0.993,9.694-3.322,13.133-7.064
			c2.059-2.24-3.943-5.968-5.719-5.906c-7.14,0.249-14.28,0.498-21.42,0.747c-3.187,0.111-6.375,0.222-9.562,0.334
			c-2.15,0.075-3.959,3.967-5.001,5.51c-0.687,1.017,0.958,1.966,1.639,0.958c0.876-1.297,2.453-4.538,3.627-4.579
			c2.217-0.077,4.434-0.155,6.651-0.232c6.628-0.231,13.256-0.462,19.884-0.694c3.271-0.114,4.608-0.599,7.453,1.964
			c2.678,2.412-8.133,6.334-10.015,6.853c-8.752,2.415-20.55,1.518-27.748-4.463C0.93,17.553-0.421,18.888,0.522,19.671z"/>
	</g>
</g>
<g>
	<path style="&st2;" d="M7.1,10.071c-0.139,2.919-0.695,5.282,0.973,7.088c5.282,5.421,21.424,3.455,28.373,2.343"/>
	<g>
		<path style="&st1;" d="M6.403,10.071c-0.456,7.002,1.935,9.612,8.861,10.907c6.96,1.301,14.442,0.281,21.368-0.803
			c0.887-0.139,0.509-1.483-0.371-1.345c-4.849,0.758-9.716,1.241-14.627,1.253c-2.774,0.007-5.532-0.282-8.231-0.922
			c-4.805-1.14-5.897-4.624-5.606-9.09C7.856,9.172,6.461,9.178,6.403,10.071L6.403,10.071z"/>
	</g>
</g>
<g>
	<path style="&st2;" d="M11.548,12.434c2.919,0.973,27.381,12.509,26.547,3.892C37.539,9.932,11.826,7.013,6.683,9.237
		c1.112,0.973,2.78,2.363,4.17,2.919L11.548,12.434z"/>
	<g>
		<path style="&st1;" d="M11.362,13.107c4.259,1.518,26.247,12.868,27.447,3.814c0.678-5.121-9.222-6.939-12.395-7.636
			c-5.877-1.291-14.078-2.887-19.916-0.72C6.049,8.731,5.756,9.36,6.19,9.73C7.802,11.104,9.385,12.316,11.362,13.107
			c0.836,0.334,1.196-1.015,0.371-1.345c-1.734-0.694-3.146-1.815-4.557-3.017C7.074,9.132,6.971,9.521,6.869,9.91
			c4.448-1.651,10.349-0.649,14.901-0.03c4.107,0.559,13.781,1.557,15.564,6.158c2.079,5.363-12.597,0.742-14.198,0.192
			c-3.866-1.329-7.558-3.098-11.403-4.469C10.884,11.458,10.521,12.807,11.362,13.107z"/>
	</g>
</g>
<g>
	<g>
		<g>
			<path style="&st3;" d="M31.612,13.369c0.621,0.312,1.308,0.694,1.67,1.312c0.472,0.806-0.768,1.214-1.315,1.372
				c-0.835,0.241-2.153,0.119-2.12-1.031c0.026-0.941,1.098-1.497,1.892-1.636c0.209-0.037,0.12-0.354-0.088-0.318
				c-0.936,0.165-2.011,0.81-2.123,1.853c-0.113,1.042,0.961,1.765,1.929,1.588c0.775-0.142,2.281-0.479,2.253-1.53
				c-0.024-0.909-1.25-1.552-1.932-1.894C31.589,12.99,31.422,13.274,31.612,13.369z"/>
		</g>
	</g>
</g>
<g>
	<g>
		<path style="&st3;" d="M13.81,9.389c-0.151,0.308-0.333,0.643-0.299,0.998c0.046,0.49-0.006,0.919-0.123,1.403
			c-0.05,0.207,0.268,0.294,0.318,0.088c0.106-0.441,0.212-0.9,0.153-1.356c-0.047-0.368,0.072-0.632,0.236-0.966
			C14.188,9.366,13.904,9.198,13.81,9.389L13.81,9.389z"/>
	</g>
</g>
</svg>
