<?xml version="1.0" encoding="utf-8"?>
<!-- Generator: Adobe Illustrator 17.0.0, SVG Export Plug-In . SVG Version: 6.00 Build 0)  -->
<!DOCTYPE svg PUBLIC "-//W3C//DTD SVG 1.1//EN" "http://www.w3.org/Graphics/SVG/1.1/DTD/svg11.dtd">
<svg version="1.1" id="Calque_1" xmlns="http://www.w3.org/2000/svg" xmlns:xlink="http://www.w3.org/1999/xlink" x="0px" y="0px"
	 width="43.33px" height="21.08px" viewBox="0 0 43.33 21.08" enable-background="new 0 0 43.33 21.08" xml:space="preserve">
<g>
	<g opacity="0.6">
		<path fill="#CCCCCC" d="M8.7,10.884c-1.216,0-5.839,1.06-5.717,3.887c0.122,5.123,18.612,4.674,21.045,4.851
			c3.771,0,10.34,0.449,14.111-1.847c4.744-2.827,0.973-6.007-3.041-5.3L8.7,10.884z"/>
		<g>
			<path fill="#3D3D3D" d="M8.7,9.736c-2.806,0.217-6.866,1.623-6.866,5.035c0,3.008,3.818,4.094,6.11,4.674
				c4.379,1.107,9.08,1.158,13.569,1.258c5.285,0.118,10.785,0.576,15.836-1.26c2.423-0.881,6.278-4.712,2.809-6.971
				c-2.457-1.6-5.62-1.179-8.469-1.351C24.026,10.659,16.363,10.198,8.7,9.736c-1.48-0.089-1.471,2.208,0,2.297
				c8.783,0.529,17.566,1.058,26.348,1.587c2.949,0.178,3.568,2.926,0.484,4.047c-2.462,0.895-5.321,0.821-7.909,0.842
				c-2.558,0.02-5.123-0.074-7.68-0.141c-3.505-0.092-7.013-0.316-10.467-0.941c-1.527-0.276-3.028-0.71-4.389-1.462
				C2.024,14.271,7.184,12.15,8.7,12.033C10.166,11.919,10.177,9.622,8.7,9.736z"/>
		</g>
	</g>
	<g>
		<g>
			<path fill="#3D3D3D" d="M8.7,9.736c-2.806,0.217-6.866,1.623-6.866,5.035c0,3.008,3.818,4.094,6.11,4.674
				c4.379,1.107,9.08,1.158,13.569,1.258c5.285,0.118,10.785,0.576,15.836-1.26c2.423-0.881,6.278-4.712,2.809-6.971
				c-2.457-1.6-5.62-1.179-8.469-1.351C24.026,10.659,16.363,10.198,8.7,9.736c-1.48-0.089-1.471,2.208,0,2.297
				c8.783,0.529,17.566,1.058,26.348,1.587c2.949,0.178,3.568,2.926,0.484,4.047c-2.462,0.895-5.321,0.821-7.909,0.842
				c-2.558,0.02-5.123-0.074-7.68-0.141c-3.505-0.092-7.013-0.316-10.467-0.941c-1.527-0.276-3.028-0.71-4.389-1.462
				C2.024,14.271,7.184,12.15,8.7,12.033C10.166,11.919,10.177,9.622,8.7,9.736z"/>
		</g>
	</g>
	<g>
		<path fill="#42FD84" d="M34.368,14.202c-0.406,2.639-10.262,3.007-11.973,2.963c-4.424-0.114-8.569-1.914-12.541-3.248
			L9.669,13.74v-0.177c0-2.648-1.706-6.498-1.349-9.325L34.368,14.202z"/>
		<g>
			<path fill="#3D3D3D" d="M33.261,13.896c-1.173,3.012-11.248,2.191-13.818,1.792c-0.8-0.124-8.502-2.424-8.501-2.126
				c-0.009-3.14-1.583-6.045-1.411-9.325C9.046,4.607,8.562,4.976,8.077,5.345c8.662,3.321,17.324,6.643,25.985,9.964
				c1.385,0.531,1.979-1.69,0.611-2.215C26.011,9.773,17.35,6.452,8.688,3.13C7.953,2.848,7.27,3.556,7.234,4.238
				c-0.15,2.85,0.042,7.878,1.69,10.258c0.705,1.018,2.627,1.204,3.69,1.582c2.604,0.926,5.357,1.918,8.137,2.117
				c3.871,0.277,12.985,0.777,14.724-3.688C36.013,13.125,33.792,12.532,33.261,13.896z"/>
		</g>
	</g>
	<g>
		<path fill="#42FD84" d="M12.924,1.969C3.51,1.746,12.12,9.23,17.79,11.432c11.248,4.377,24.44,3.781,14.44-2.587
			C29.835,7.312,17.474,2.077,12.924,1.969z"/>
		<g>
			<path fill="#3D3D3D" d="M12.924,0.821c-1.753,0.018-5.158,0.127-5.306,2.597c-0.151,2.52,2.401,4.502,4.168,5.873
				c5.506,4.271,14.875,7.262,21.844,5.938c6.482-1.232,1.296-6.303-1.964-8.011C26.13,4.316,19.222,1.204,12.924,0.821
				c-1.48-0.09-1.471,2.207,0,2.297c3.912,0.238,7.857,1.956,11.462,3.372c0.535,0.21,11.434,5.225,10.005,6.162
				c-1.678,1.101-5.281,0.387-7.071,0.143c-2.749-0.374-5.435-1.146-8.055-2.035c-2.381-0.808-4.555-2.085-6.536-3.621
				c-0.905-0.702-1.742-1.522-2.417-2.449c-1.234-1.695,1.648-1.562,2.613-1.572C14.404,3.102,14.406,0.806,12.924,0.821z"/>
		</g>
	</g>
	<g>
		<g>
			<path fill="#FFFFFF" d="M13.095,4.175c-0.589,0.758-0.46,1.566,0.263,2.177c0.579,0.489,1.628,0.933,2.385,0.639
				c0.907-0.352,0.186-1.544-0.267-1.935c-0.556-0.478-1.792-1.177-2.567-0.915c-0.164,0.055-0.094,0.316,0.072,0.26
				c0.547-0.185,1.376,0.267,1.828,0.521c0.353,0.198,0.679,0.457,0.908,0.793c0.199,0.292,0.304,0.878-0.107,1.038
				c-0.571,0.222-1.363-0.14-1.839-0.433c-0.738-0.455-1.057-1.22-0.487-1.954C13.391,4.231,13.202,4.038,13.095,4.175L13.095,4.175
				z"/>
		</g>
	</g>
	<g>
		<g>
			<path fill="#FFFFFF" d="M29.355,9.806c-0.402,0.411-0.766,0.859-1.168,1.27c-0.122,0.125,0.069,0.316,0.191,0.191
				c0.402-0.411,0.766-0.859,1.168-1.27C29.667,9.872,29.476,9.681,29.355,9.806L29.355,9.806z"/>
		</g>
	</g>
</g>
</svg>
