<?xml version="1.0" encoding="utf-8"?>
<!-- Generator: Adobe Illustrator 17.0.0, SVG Export Plug-In . SVG Version: 6.00 Build 0)  -->
<!DOCTYPE svg PUBLIC "-//W3C//DTD SVG 1.1//EN" "http://www.w3.org/Graphics/SVG/1.1/DTD/svg11.dtd" [
	<!ENTITY st0 "fill:#3D3D3D;">
	<!ENTITY st1 "fill:#F2F2F2;">
]>
<svg version="1.1" id="Calque_1" xmlns="http://www.w3.org/2000/svg" xmlns:xlink="http://www.w3.org/1999/xlink" x="0px" y="0px"
	 width="1280px" height="580.831px" viewBox="0 0 1280 580.831" style="enable-background:new 0 0 1280 580.831;"
	 xml:space="preserve">
<g>
	<path style="&st0;" d="M1256.055,8.715c-3.824,181.204-20.031,330.34,1,507.956c0,0-6.02-1.473-17.024-0.036
		c-122.536,16.007-833.476-1.605-1211.232,0.036c21.031-177.616,2.824-326.751-1-507.956l1-0.386
		c405.669,33.263,812.459,9.157,1218.129-0.083L1256.055,8.715z"/>
</g>
<g>
	<g>
		<path d="M1254.602,8.715c-3.241,151.281-16.428,302.621-4.373,453.841c1.441,18.071,3.257,36.111,5.373,54.115
			c0.613-0.467,1.226-0.934,1.839-1.401c-10.985-2.508-23.819,0.791-35.043,1.688c-11.459,0.916-22.944,1.508-34.428,2.009
			c-32.496,1.418-65.031,1.977-97.553,2.38c-93.425,1.158-186.873,0.593-280.299-0.094c-112.509-0.827-225.015-2.135-337.521-3.333
			c-109.031-1.162-218.064-2.295-327.1-2.691c-38.9-0.141-77.8-0.178-116.699-0.011c0.484,0.484,0.969,0.969,1.453,1.453
			c17.717-150.78,5.985-301.74,0.583-452.845c-0.34-9.506-0.643-19.014-0.919-28.523c-0.14-4.815-0.265-9.631-0.386-14.447
			c-0.061-2.424-0.116-4.849-0.172-7.273c0.319-1.355,0.095-2.575-0.673-3.66c1.669-0.011,3.333,0.074,4.992,0.256
			c20.316,1.649,40.645,3.138,60.982,4.51c40.638,2.741,81.314,4.918,122.007,6.659c81.332,3.48,162.738,5.056,244.141,5.4
			c162.844,0.688,325.654-3.777,488.408-8.661c54.512-1.636,109.022-3.322,163.536-4.887c26.837-0.771,53.676-1.508,80.515-2.198
			c20.882-0.537,41.921-1.906,62.789-0.834c1.874,0.096,1.865-2.81,0-2.906c-13.613-0.699-27.211-0.051-40.835,0.282
			c-20.33,0.498-40.66,1.032-60.989,1.586c-40.675,1.109-81.347,2.316-122.019,3.542c-81.382,2.452-162.761,4.985-244.154,7.032
			c-162.759,4.092-325.627,6.151-488.4,1.648c-46.395-1.283-92.775-3.136-139.122-5.602c-22.782-1.212-45.554-2.597-68.317-4.132
			c-11.387-0.768-22.771-1.588-34.151-2.441c-5.692-0.427-11.383-0.87-17.074-1.319c-3.974-0.314-9.82-1.996-13.581-0.545
			c-0.602,0.232-1.082,0.708-1.067,1.401c3.248,151.284,18.041,302.572,6.314,453.841c-1.401,18.072-3.199,36.113-5.314,54.115
			c-0.092,0.786,0.731,1.456,1.453,1.453c100.972-0.432,201.948,0.361,302.915,1.285c113.804,1.042,227.604,2.402,341.407,3.538
			c104.082,1.039,208.169,1.979,312.257,1.909c71.782-0.048,143.758,0.173,215.464-3.6c8.516-0.448,17.029-0.988,25.525-1.723
			c9.785-0.846,20.687-3.658,30.302-1.462c0.83,0.19,1.955-0.415,1.839-1.401c-17.718-150.723-7.6-301.728-2.524-452.845
			c0.617-18.367,1.13-36.737,1.524-55.111C1257.548,6.84,1254.642,6.844,1254.602,8.715z"/>
	</g>
</g>
<g>
	<g>
		<g>
			<g>
				<g>
					<path style="&st1;" d="M506.601,256.948c-1.92,0.732-4.233,0.107-6.246,0.124c-2.392,0.019-4.556,0.907-6.444,2.318
						c-1.627,1.216-4.45,4.267-4.45,6.409c0,2.567,2.154,6.057,3.518,8.121c6.071,9.187,19.025,5.057,28.112,6.039
						c2.475,0.268,2.45-3.598,0-3.863c-6.902-0.746-17.273,2.325-23.102-2.316c-4.705-3.746-5.84-10.77,1.074-12.692
						c2.811-0.782,5.768,0.652,8.565-0.415C509.932,259.795,508.933,256.059,506.601,256.948L506.601,256.948z"/>
				</g>
			</g>
		</g>
		<g>
			<g>
				<g>
					<path style="&st1;" d="M536.14,258.209c0.911,4.55,0.687,9.245,1.795,13.755c1.026,4.178,4.15,7.134,7.525,9.534
						c0.799,0.568,2.231,0.206,2.643-0.693c4.04-8.816,3.532-17.916,2.372-27.326c-0.301-2.439-4.167-2.469-3.863,0
						c1.058,8.581,1.866,17.281-1.844,25.376c0.881-0.231,1.762-0.462,2.643-0.693c-7.511-5.34-5.936-12.949-7.545-20.98
						C539.377,254.74,535.653,255.776,536.14,258.209L536.14,258.209z"/>
				</g>
			</g>
		</g>
		<g>
			<g>
				<g>
					<path style="&st1;" d="M461.134,258.209c0.911,4.55,0.687,9.245,1.795,13.755c1.026,4.178,4.15,7.134,7.525,9.534
						c0.799,0.568,2.231,0.206,2.643-0.693c4.04-8.816,3.532-17.916,2.372-27.326c-0.301-2.439-4.167-2.469-3.863,0
						c1.058,8.581,1.866,17.281-1.844,25.376c0.881-0.231,1.762-0.462,2.643-0.693c-7.511-5.34-5.936-12.949-7.545-20.98
						C464.37,254.74,460.647,255.776,461.134,258.209L461.134,258.209z"/>
				</g>
			</g>
		</g>
		<g>
			<g>
				<g>
					<path style="&st1;" d="M566.478,258.692c-2.056,4.548-2.008,10.043-2.011,14.951c-0.001,2.491,3.862,2.491,3.863,0
						c0.002-4.14-0.254-9.158,1.483-13.001C570.831,258.39,567.503,256.425,566.478,258.692L566.478,258.692z"/>
				</g>
			</g>
			<g>
				<g>
					<path style="&st1;" d="M567.171,263.082c5.831,3.824,12.023,7.041,17.079,11.927c1.791,1.731,4.526-0.998,2.732-2.732
						c-5.295-5.117-11.753-8.525-17.861-12.531C567.03,258.375,565.097,261.722,567.171,263.082L567.171,263.082z"/>
				</g>
			</g>
			<g>
				<g>
					<path style="&st1;" d="M583.684,259.667c0,3.494,0,6.988,0,10.482c0,2.491,3.863,2.491,3.863,0c0-3.494,0-6.988,0-10.482
						C587.547,257.175,583.684,257.175,583.684,259.667L583.684,259.667z"/>
				</g>
			</g>
		</g>
		<g>
			<g>
				<g>
					<path style="&st1;" d="M419.995,269.823c1.341-5.609,1.675-10.763,8.619-10.971c-0.621-0.473-1.242-0.945-1.863-1.418
						c2.107,7.26,8.388,12.254,10.482,19.469c0.693,2.388,4.421,1.371,3.725-1.027c-2.107-7.26-8.388-12.254-10.482-19.469
						c-0.235-0.808-0.999-1.444-1.863-1.418c-9,0.27-10.52,6.178-12.344,13.808C415.691,271.218,419.416,272.245,419.995,269.823
						L419.995,269.823z"/>
				</g>
			</g>
			<g>
				<g>
					<path style="&st1;" d="M411.658,269.402c11.305-3.213,22.655-5.155,34.426-5.241c2.49-0.018,2.492-3.881,0-3.863
						c-12.112,0.088-23.818,2.072-35.453,5.379C408.239,266.357,409.257,270.085,411.658,269.402L411.658,269.402z"/>
				</g>
			</g>
		</g>
	</g>
	<g>
		<g>
			<g>
				<g>
					<path style="&st1;" d="M853.878,256.218c0,6.088,0,12.176,0,18.264c0,2.491,3.863,2.491,3.863,0c0-6.088,0-12.176,0-18.264
						C857.742,253.727,853.878,253.727,853.878,256.218L853.878,256.218z"/>
				</g>
			</g>
			<g>
				<g>
					<path style="&st1;" d="M855.81,279.023c4.349,0,8.697,0,13.045,0c2.491,0,2.491-3.863,0-3.863c-4.349,0-8.697,0-13.045,0
						C853.319,275.159,853.319,279.023,855.81,279.023L855.81,279.023z"/>
				</g>
			</g>
		</g>
		<g>
			<g>
				<g>
					<path style="&st1;" d="M680.141,252.777c-4.543-0.663-12.55-2.104-15.825,2.326c-3.392,4.588,2.861,10.532,5.848,13.319
						c1.819,1.697,4.557-1.029,2.732-2.732c-1.448-1.351-6.924-5.875-5.414-8.407c0.558-0.935,2.568-1.093,3.485-1.19
						c2.695-0.287,5.481,0.02,8.148,0.409C681.55,256.858,682.599,253.136,680.141,252.777L680.141,252.777z"/>
				</g>
			</g>
			<g>
				<g>
					<path style="&st1;" d="M669.862,268.03c1.168,1.688,2.339,3.445,3.036,5.389c0.283,0.79,0.483,1.973,0.145,2.198
						c-0.998,0.666-2.805,0.205-3.872-0.011c-2.601-0.525-5.127-1.523-7.554-2.571c-2.262-0.977-4.231,2.35-1.95,3.336
						c4.012,1.733,11.211,5.324,15.517,2.454c4.523-3.015,0.107-9.718-1.988-12.744C671.79,264.048,668.44,265.976,669.862,268.03
						L669.862,268.03z"/>
				</g>
			</g>
		</g>
		<g>
			<g>
				<g>
					<path style="&st1;" d="M699.521,256.114c0.06,6.825,0.618,13.879,2.177,20.54c0.568,2.425,4.292,1.397,3.725-1.027
						c-1.482-6.334-1.982-13.02-2.039-19.513C703.362,253.624,699.499,253.622,699.521,256.114L699.521,256.114z"/>
				</g>
			</g>
			<g>
				<g>
					<path style="&st1;" d="M693.532,256.992c5.291-0.063,10.524-0.977,15.811-1.054c2.489-0.036,2.492-3.899,0-3.863
						c-5.286,0.077-10.52,0.991-15.811,1.054C691.043,253.158,691.04,257.021,693.532,256.992L693.532,256.992z"/>
				</g>
			</g>
			<g>
				<g>
					<path style="&st1;" d="M697.208,281.166c5.798-1.219,11.436-2.956,17.405-3.093c2.487-0.057,2.493-3.92,0-3.863
						c-6.315,0.145-12.295,1.94-18.432,3.231C693.743,277.953,694.777,281.677,697.208,281.166L697.208,281.166z"/>
				</g>
			</g>
		</g>
		<g>
			<g>
				<g>
					<path style="&st1;" d="M773.924,258.692c-2.056,4.548-2.008,10.043-2.011,14.951c-0.001,2.491,3.862,2.491,3.863,0
						c0.002-4.14-0.254-9.158,1.483-13.001C778.277,258.39,774.948,256.425,773.924,258.692L773.924,258.692z"/>
				</g>
			</g>
			<g>
				<g>
					<path style="&st1;" d="M774.616,263.082c5.831,3.824,12.023,7.041,17.079,11.927c1.791,1.731,4.526-0.998,2.732-2.732
						c-5.295-5.117-11.753-8.525-17.861-12.531C774.476,258.375,772.543,261.722,774.616,263.082L774.616,263.082z"/>
				</g>
			</g>
			<g>
				<g>
					<path style="&st1;" d="M791.13,259.667c0,3.494,0,6.988,0,10.482c0,2.491,3.863,2.491,3.863,0c0-3.494,0-6.988,0-10.482
						C794.993,257.175,791.13,257.175,791.13,259.667L791.13,259.667z"/>
				</g>
			</g>
		</g>
		<g>
			<g>
				<g>
					<path style="&st1;" d="M815.816,269.823c1.341-5.609,1.675-10.763,8.619-10.971c-0.621-0.473-1.242-0.945-1.863-1.418
						c2.107,7.26,8.388,12.254,10.482,19.469c0.693,2.388,4.421,1.371,3.725-1.027c-2.107-7.26-8.388-12.254-10.482-19.469
						c-0.235-0.808-0.999-1.444-1.863-1.418c-9,0.27-10.52,6.178-12.344,13.808C811.512,271.218,815.237,272.245,815.816,269.823
						L815.816,269.823z"/>
				</g>
			</g>
			<g>
				<g>
					<path style="&st1;" d="M807.479,269.402c11.305-3.213,22.655-5.155,34.426-5.241c2.49-0.018,2.492-3.881,0-3.863
						c-12.112,0.088-23.818,2.072-35.453,5.379C804.06,266.357,805.078,270.085,807.479,269.402L807.479,269.402z"/>
				</g>
			</g>
		</g>
		<g>
			<g>
				<g>
					<path style="&st1;" d="M754.439,251.07c-9.147,0.006-22.6,0.155-26.664,10.269c-4.399,10.948,4.115,17.302,14.024,18.935
						c2.436,0.402,3.481-3.321,1.027-3.725c-8.284-1.365-14.444-5.102-11.326-14.183c2.75-8.008,16.333-7.428,22.939-7.433
						C756.931,254.931,756.931,251.068,754.439,251.07L754.439,251.07z"/>
				</g>
			</g>
			<g>
				<g>
					<path style="&st1;" d="M741.338,280.079c3.585,1.587,7.659,2.248,10.782-0.627c2.865-2.638,2.711-7.226,1.848-10.668
						c-0.605-2.415-4.331-1.39-3.725,1.027c0.521,2.08,0.871,4.835-0.604,6.643c-1.566,1.92-4.432,1.139-6.351,0.289
						C741.032,275.745,739.064,279.072,741.338,280.079L741.338,280.079z"/>
				</g>
			</g>
			<g>
				<g>
					<path style="&st1;" d="M740.355,269.407c6.458,0.003,12.744,0.35,19.072,1.754c2.427,0.538,3.459-3.186,1.027-3.725
						c-6.661-1.478-13.294-1.889-20.099-1.892C737.863,265.542,737.864,269.406,740.355,269.407L740.355,269.407z"/>
				</g>
			</g>
		</g>
	</g>
</g>
</svg>
