<?xml version="1.0" encoding="utf-8"?>
<!-- Generator: Adobe Illustrator 17.0.0, SVG Export Plug-In . SVG Version: 6.00 Build 0)  -->
<!DOCTYPE svg PUBLIC "-//W3C//DTD SVG 1.1//EN" "http://www.w3.org/Graphics/SVG/1.1/DTD/svg11.dtd" [
	<!ENTITY st0 "fill:#3D3D3D;">
]>
<svg version="1.1" id="Calque_1" xmlns="http://www.w3.org/2000/svg" xmlns:xlink="http://www.w3.org/1999/xlink" x="0px" y="0px"
	 width="1280px" height="580.831px" viewBox="0 0 1280 580.831" style="enable-background:new 0 0 1280 580.831;"
	 xml:space="preserve">
<g>
	<path style="&st0;" d="M1256.055,8.715c-3.824,181.204-20.031,330.34,1,507.956c0,0-6.02-1.473-17.024-0.036
		c-122.536,16.007-833.476-1.605-1211.232,0.036c21.031-177.616,2.824-326.751-1-507.956l1-0.386
		c405.669,33.263,812.459,9.157,1218.129-0.083L1256.055,8.715z"/>
</g>
<g>
	<g>
		<path d="M1254.602,8.715c-3.241,151.281-16.428,302.621-4.373,453.841c1.441,18.071,3.257,36.111,5.373,54.115
			c0.613-0.467,1.226-0.934,1.839-1.401c-10.985-2.508-23.819,0.791-35.043,1.688c-11.459,0.916-22.944,1.508-34.428,2.009
			c-32.496,1.418-65.031,1.977-97.553,2.38c-93.425,1.158-186.873,0.593-280.299-0.094c-112.509-0.827-225.015-2.135-337.521-3.333
			c-109.031-1.162-218.064-2.295-327.1-2.691c-38.9-0.141-77.8-0.178-116.699-0.011c0.484,0.484,0.969,0.969,1.453,1.453
			c17.717-150.78,5.985-301.74,0.583-452.845c-0.34-9.506-0.643-19.014-0.919-28.523c-0.14-4.815-0.265-9.631-0.386-14.447
			c-0.061-2.424-0.116-4.849-0.172-7.273c0.319-1.355,0.095-2.575-0.673-3.66c1.669-0.011,3.333,0.074,4.992,0.256
			c20.316,1.649,40.645,3.138,60.982,4.51c40.638,2.741,81.314,4.918,122.007,6.659c81.332,3.48,162.738,5.056,244.141,5.4
			c162.844,0.688,325.654-3.777,488.408-8.661c54.512-1.636,109.022-3.322,163.536-4.887c26.837-0.771,53.676-1.508,80.515-2.198
			c20.882-0.537,41.921-1.906,62.789-0.834c1.874,0.096,1.865-2.81,0-2.906c-13.613-0.699-27.211-0.051-40.835,0.282
			c-20.33,0.498-40.66,1.032-60.989,1.586c-40.675,1.109-81.347,2.316-122.019,3.542c-81.382,2.452-162.761,4.985-244.154,7.032
			c-162.759,4.092-325.627,6.151-488.4,1.648c-46.395-1.283-92.775-3.136-139.122-5.602c-22.782-1.212-45.554-2.597-68.317-4.132
			C80.831,10.85,69.447,10.03,58.067,9.177c-5.692-0.427-11.383-0.87-17.074-1.319c-3.974-0.314-9.82-1.996-13.581-0.545
			c-0.602,0.232-1.082,0.708-1.067,1.401c3.248,151.284,18.041,302.572,6.314,453.841c-1.401,18.072-3.199,36.113-5.314,54.115
			c-0.092,0.786,0.731,1.456,1.453,1.453c100.972-0.432,201.948,0.361,302.915,1.285c113.804,1.042,227.604,2.402,341.407,3.538
			c104.082,1.039,208.169,1.979,312.257,1.909c71.782-0.048,143.758,0.173,215.464-3.6c8.516-0.448,17.029-0.988,25.525-1.723
			c9.785-0.846,20.687-3.658,30.302-1.462c0.83,0.19,1.955-0.415,1.839-1.401c-17.718-150.723-7.6-301.728-2.524-452.845
			c0.617-18.367,1.13-36.737,1.524-55.111C1257.548,6.84,1254.642,6.844,1254.602,8.715z"/>
	</g>
</g>
</svg>
