<?xml version="1.0" encoding="utf-8"?>
<!-- Generator: Adobe Illustrator 17.0.0, SVG Export Plug-In . SVG Version: 6.00 Build 0)  -->
<!DOCTYPE svg PUBLIC "-//W3C//DTD SVG 1.1//EN" "http://www.w3.org/Graphics/SVG/1.1/DTD/svg11.dtd" [
	<!ENTITY st0 "fill:#F2F2F2;">
	<!ENTITY st1 "fill:#3D3D3D;">
]>
<svg version="1.1" xmlns="http://www.w3.org/2000/svg" xmlns:xlink="http://www.w3.org/1999/xlink" x="0px" y="0px" width="542px"
	 height="129px" viewBox="-31 -28 542 129" style="enable-background:new -31 -28 542 129;" xml:space="preserve">
<g id="Calque_1">
	<g>
		<path style="&st0;" d="M488.04,67.595c-157.192,20.5-345.182-6.339-488.398,0.086l0.057-2.653
			c-2.138-23.935,1.03-47.756,12.1-68.752L9.145-3.781c157.152-7.229,313.466-11.821,467.174-0.544l2.653,0.057
			c4.791,23.992,6.93,47.927,6.415,71.805L488.04,67.595z"/>
	</g>
	<g>
		<g>
			<g>
				<g>
					<path style="&st1;" d="M115.369,24.163c-1.935,0.69-4.234,0.016-6.247-0.011c-2.392-0.033-4.574,0.809-6.492,2.179
						c-1.653,1.181-4.541,4.17-4.587,6.312c-0.055,2.566,2.023,6.102,3.342,8.195c5.872,9.316,18.912,5.466,27.975,6.644
						c2.469,0.321,2.527-3.544,0.083-3.862c-6.884-0.895-17.319,1.952-23.047-2.813c-4.623-3.847-5.606-10.893,1.347-12.666
						c2.827-0.721,5.753,0.776,8.572-0.23C118.638,27.081,117.72,23.325,115.369,24.163L115.369,24.163z"/>
				</g>
			</g>
		</g>
		<g>
			<g>
				<g>
					<path style="&st1;" d="M144.874,26.061c0.813,4.569,0.488,9.258,1.498,13.79c0.936,4.199,3.995,7.222,7.318,9.694
						c0.787,0.585,2.226,0.254,2.657-0.636c4.229-8.727,3.917-17.836,2.96-27.269c-0.248-2.445-4.113-2.558-3.862-0.083
						c0.873,8.602,1.493,17.317-2.391,25.33c0.886-0.212,1.772-0.424,2.657-0.636c-7.394-5.501-5.655-13.074-7.091-21.138
						C148.185,22.662,144.44,23.618,144.874,26.061L144.874,26.061z"/>
				</g>
			</g>
		</g>
		<g>
			<g>
				<g>
					<path style="&st1;" d="M69.886,24.444c0.813,4.569,0.488,9.258,1.498,13.79c0.936,4.199,3.995,7.222,7.318,9.694
						c0.787,0.585,2.226,0.254,2.657-0.636c4.229-8.727,3.917-17.836,2.961-27.269c-0.248-2.445-4.113-2.558-3.862-0.083
						c0.873,8.602,1.493,17.317-2.391,25.33c0.886-0.212,1.772-0.424,2.657-0.636c-7.394-5.501-5.655-13.074-7.091-21.138
						C73.196,21.045,69.451,22.001,69.886,24.444L69.886,24.444z"/>
				</g>
			</g>
		</g>
		<g>
			<g>
				<g>
					<path style="&st1;" d="M175.195,27.197c-2.154,4.503-2.224,9.997-2.333,14.904c-0.055,2.49,3.807,2.574,3.862,0.083
						c0.091-4.139-0.057-9.161,1.763-12.966C179.553,26.989,176.268,24.953,175.195,27.197L175.195,27.197z"/>
				</g>
			</g>
			<g>
				<g>
					<path style="&st1;" d="M175.793,31.601c5.747,3.949,11.868,7.299,16.818,12.292c1.753,1.769,4.546-0.9,2.79-2.672
						c-5.183-5.23-11.567-8.776-17.587-12.913C175.753,26.892,173.749,30.197,175.793,31.601L175.793,31.601z"/>
				</g>
			</g>
			<g>
				<g>
					<path style="&st1;" d="M192.376,28.543c-0.075,3.493-0.151,6.986-0.226,10.48c-0.054,2.49,3.808,2.574,3.862,0.083
						c0.075-3.493,0.151-6.986,0.226-10.48C196.291,26.135,192.429,26.052,192.376,28.543L192.376,28.543z"/>
				</g>
			</g>
		</g>
		<g>
			<g>
				<g>
					<path style="&st1;" d="M25.671,46.507c1.462-5.579,4.741-22.063,11.688-22.121c-0.611-0.486-1.221-0.972-1.832-1.458
						c1.95,7.304,8.122,12.432,10.06,19.69c0.641,2.402,4.39,1.466,3.746-0.946c-1.95-7.304-8.122-12.432-10.06-19.69
						c-0.218-0.813-0.968-1.465-1.832-1.458C28.438,20.599,23.956,37.812,21.968,45.4C21.338,47.808,25.04,48.915,25.671,46.507
						L25.671,46.507z"/>
				</g>
			</g>
			<g>
				<g>
					<path style="&st1;" d="M20.18,34.567c11.372-2.969,22.761-4.665,34.531-4.498c2.49,0.036,2.575-3.826,0.083-3.862
						c-12.111-0.173-23.857,1.558-35.561,4.613C16.827,31.45,17.765,35.199,20.18,34.567L20.18,34.567z"/>
				</g>
			</g>
		</g>
	</g>
	<g>
		<g>
			<g>
				<g>
					<path style="&st1;" d="M437.076,30.37c-0.131,6.087-0.262,12.173-0.394,18.26c-0.054,2.49,3.808,2.574,3.862,0.083
						c0.131-6.087,0.262-12.173,0.394-18.26C440.993,27.962,437.13,27.879,437.076,30.37L437.076,30.37z"/>
				</g>
			</g>
			<g>
				<g>
					<path style="&st1;" d="M438.516,53.211c4.348,0.094,8.695,0.187,13.042,0.281c2.49,0.054,2.574-3.808,0.083-3.862
						c-4.348-0.094-8.695-0.187-13.042-0.281C436.109,49.294,436.025,53.157,438.516,53.211L438.516,53.211z"/>
				</g>
			</g>
		</g>
		<g>
			<g>
				<g>
					<path style="&st1;" d="M263.453,23.184c-4.528-0.761-12.502-2.374-15.871,1.984c-3.49,4.514,2.633,10.591,5.56,13.442
						c1.782,1.736,4.578-0.931,2.79-2.672c-1.419-1.382-6.796-6.023-5.232-8.522c0.578-0.923,2.591-1.037,3.51-1.115
						c2.701-0.229,5.479,0.138,8.137,0.585C264.774,27.295,265.903,23.596,263.453,23.184L263.453,23.184z"/>
				</g>
			</g>
			<g>
				<g>
					<path style="&st1;" d="M252.848,38.212c1.131,1.713,2.264,3.495,2.919,5.453c0.266,0.796,0.44,1.983,0.098,2.201
						c-1.012,0.644-2.809,0.144-3.871-0.094c-2.589-0.581-5.093-1.633-7.497-2.733c-2.24-1.026-4.281,2.258-2.021,3.293
						c3.974,1.819,11.094,5.564,15.46,2.788c4.587-2.917,0.316-9.713-1.713-12.784C254.861,34.272,251.471,36.128,252.848,38.212
						L252.848,38.212z"/>
				</g>
			</g>
		</g>
		<g>
			<g>
				<g>
					<path style="&st1;" d="M282.757,26.938c-0.087,6.825,0.319,13.889,1.734,20.582c0.516,2.437,4.261,1.489,3.746-0.946
						c-1.345-6.364-1.701-13.06-1.618-19.552C286.651,24.531,282.789,24.446,282.757,26.938L282.757,26.938z"/>
				</g>
			</g>
			<g>
				<g>
					<path style="&st1;" d="M276.75,27.687c5.291,0.051,10.543-0.75,15.83-0.713c2.489,0.018,2.576-3.844,0.083-3.862
						c-5.286-0.037-10.539,0.764-15.83,0.713C274.345,23.8,274.258,27.662,276.75,27.687L276.75,27.687z"/>
				</g>
			</g>
			<g>
				<g>
					<path style="&st1;" d="M279.904,51.934c5.823-1.094,11.497-2.709,17.468-2.717c2.488-0.003,2.577-3.865,0.083-3.862
						c-6.317,0.009-12.334,1.675-18.497,2.833C276.509,48.647,277.463,52.393,279.904,51.934L279.904,51.934z"/>
				</g>
			</g>
		</g>
		<g>
			<g>
				<g>
					<path style="&st1;" d="M357.087,31.119c-2.154,4.503-2.224,9.997-2.333,14.904c-0.055,2.49,3.807,2.574,3.862,0.083
						c0.091-4.139-0.057-9.161,1.763-12.966C361.446,30.911,358.16,28.875,357.087,31.119L357.087,31.119z"/>
				</g>
			</g>
			<g>
				<g>
					<path style="&st1;" d="M357.684,35.523c5.747,3.949,11.868,7.299,16.818,12.292c1.753,1.769,4.546-0.9,2.79-2.672
						c-5.184-5.23-11.566-8.776-17.587-12.913C357.646,30.814,355.641,34.119,357.684,35.523L357.684,35.523z"/>
				</g>
			</g>
			<g>
				<g>
					<path style="&st1;" d="M374.268,32.465c-0.075,3.493-0.151,6.986-0.226,10.48c-0.054,2.49,3.808,2.574,3.862,0.083
						c0.075-3.493,0.151-6.986,0.226-10.48C378.184,30.057,374.322,29.974,374.268,32.465L374.268,32.465z"/>
				</g>
			</g>
		</g>
		<g>
			<g>
				<g>
					<path style="&st1;" d="M398.729,43.151c1.462-5.579,1.907-10.724,8.853-10.783c-0.611-0.486-1.221-0.972-1.832-1.458
						c1.95,7.304,8.122,12.432,10.06,19.69c0.641,2.402,4.39,1.466,3.746-0.946c-1.95-7.304-8.122-12.432-10.06-19.69
						c-0.218-0.813-0.968-1.465-1.832-1.458c-9.004,0.076-10.651,5.95-12.639,13.539C394.396,44.453,398.098,45.56,398.729,43.151
						L398.729,43.151z"/>
				</g>
			</g>
			<g>
				<g>
					<path style="&st1;" d="M390.403,42.55c11.372-2.969,22.761-4.665,34.531-4.498c2.49,0.036,2.575-3.826,0.083-3.862
						c-12.111-0.173-23.857,1.558-35.561,4.613C387.051,39.432,387.988,43.181,390.403,42.55L390.403,42.55z"/>
				</g>
			</g>
		</g>
		<g>
			<g>
				<g>
					<path style="&st1;" d="M337.771,23.079c-9.145-0.191-22.598-0.332-26.879,9.692c-4.634,10.851,3.741,17.387,13.613,19.233
						c2.427,0.454,3.552-3.245,1.107-3.702c-8.253-1.543-14.331-5.412-11.018-14.424c2.922-7.947,16.489-7.074,23.094-6.937
						C340.179,26.993,340.262,23.131,337.771,23.079L337.771,23.079z"/>
				</g>
			</g>
			<g>
				<g>
					<path style="&st1;" d="M324.048,51.799c3.55,1.664,7.609,2.413,10.793-0.394c2.921-2.576,2.866-7.166,2.078-10.626
						c-0.553-2.427-4.3-1.483-3.746,0.946c0.476,2.091,0.767,4.853-0.747,6.628c-1.607,1.886-4.456,1.043-6.356,0.152
						C323.835,47.459,321.796,50.743,324.048,51.799L324.048,51.799z"/>
				</g>
			</g>
			<g>
				<g>
					<path style="&st1;" d="M323.295,41.108c6.456,0.142,12.733,0.625,19.03,2.165c2.415,0.59,3.527-3.111,1.107-3.702
						c-6.628-1.621-13.25-2.175-20.054-2.325C320.887,37.19,320.804,41.054,323.295,41.108L323.295,41.108z"/>
				</g>
			</g>
		</g>
	</g>
</g>
<g id="Calque_2">
</g>
</svg>
