<?xml version="1.0" encoding="UTF-8" standalone="no"?>
<!DOCTYPE svg PUBLIC "-//W3C//DTD SVG 1.1//EN" "http://www.w3.org/Graphics/SVG/1.1/DTD/svg11.dtd">
<svg width="100%" height="100%" viewBox="0 0 542 129" version="1.1" xmlns="http://www.w3.org/2000/svg" xmlns:xlink="http://www.w3.org/1999/xlink" xml:space="preserve" xmlns:serif="http://www.serif.com/" style="fill-rule:evenodd;clip-rule:evenodd;stroke-linecap:round;stroke-linejoin:round;stroke-miterlimit:1.5;">
    <g id="Calque_1">
        <g>
            <path d="M519.04,95.595C361.848,116.095 173.858,89.256 30.642,95.681L30.699,93.028C28.561,69.093 31.729,45.272 42.799,24.276L40.145,24.219C197.297,16.99 353.611,12.398 507.319,23.675L509.972,23.732C514.763,47.724 516.902,71.659 516.387,95.537L519.04,95.595Z" style="fill:rgb(242,242,242);fill-rule:nonzero;"/>
        </g>
        <g>
            <g transform="matrix(1,0,0,1,-111.082,1.15179)">
                <g>
                    <g>
                        <path d="M206.195,55.197C204.041,59.7 203.971,65.194 203.862,70.101C203.807,72.591 207.669,72.675 207.724,70.184C207.815,66.045 207.667,61.023 209.487,57.218C210.553,54.989 207.268,52.953 206.195,55.197Z" style="fill:rgb(61,61,61);fill-rule:nonzero;"/>
                    </g>
                </g>
                <g>
                    <g>
                        <path d="M206.793,59.601C212.54,63.55 218.661,66.9 223.611,71.893C225.364,73.662 228.157,70.993 226.401,69.221C221.218,63.991 214.834,60.445 208.814,56.308C206.753,54.892 204.749,58.197 206.793,59.601Z" style="fill:rgb(61,61,61);fill-rule:nonzero;"/>
                    </g>
                </g>
                <g>
                    <g>
                        <path d="M223.376,56.543C223.301,60.036 223.225,63.529 223.15,67.023C223.096,69.513 226.958,69.597 227.012,67.106C227.087,63.613 227.163,60.12 227.238,56.626C227.291,54.135 223.429,54.052 223.376,56.543Z" style="fill:rgb(61,61,61);fill-rule:nonzero;"/>
                    </g>
                </g>
            </g>
            <g transform="matrix(0.90963,0,0,0.831421,11.6593,9.28635)">
                <path d="M139.612,55.374C151.828,53.608 150.025,60.305 150.025,66.38C150.025,72.454 145.359,77.385 139.612,77.385C133.865,77.385 131.444,76.51 129.2,66.38C127.886,60.449 133.925,56.196 139.612,55.374Z" style="fill:none;stroke:rgb(61,61,61);stroke-width:4.02px;"/>
            </g>
        </g>
        <g transform="matrix(1,0,0,1,-40.5757,-1.37319)">
            <g>
                <g>
                    <g>
                        <path d="M468.076,58.37C467.945,64.457 467.814,70.543 467.682,76.63C467.628,79.12 471.49,79.204 471.544,76.713C471.675,70.626 471.806,64.54 471.938,58.453C471.993,55.962 468.13,55.879 468.076,58.37Z" style="fill:rgb(61,61,61);fill-rule:nonzero;"/>
                    </g>
                </g>
                <g>
                    <g>
                        <path d="M469.516,81.211C473.864,81.305 478.211,81.398 482.558,81.492C485.048,81.546 485.132,77.684 482.641,77.63C478.293,77.536 473.946,77.443 469.599,77.349C467.109,77.294 467.025,81.157 469.516,81.211Z" style="fill:rgb(61,61,61);fill-rule:nonzero;"/>
                    </g>
                </g>
            </g>
            <g>
                <g>
                    <g>
                        <path d="M294.453,51.184C289.925,50.423 281.951,48.81 278.582,53.168C275.092,57.682 281.215,63.759 284.142,66.61C285.924,68.346 288.72,65.679 286.932,63.938C285.513,62.556 280.136,57.915 281.7,55.416C282.278,54.493 284.291,54.379 285.21,54.301C287.911,54.072 290.689,54.439 293.347,54.886C295.774,55.295 296.903,51.596 294.453,51.184Z" style="fill:rgb(61,61,61);fill-rule:nonzero;"/>
                    </g>
                </g>
                <g>
                    <g>
                        <path d="M283.848,66.212C284.979,67.925 286.112,69.707 286.767,71.665C287.033,72.461 287.207,73.648 286.865,73.866C285.853,74.51 284.056,74.01 282.994,73.772C280.405,73.191 277.901,72.139 275.497,71.039C273.257,70.013 271.216,73.297 273.476,74.332C277.45,76.151 284.57,79.896 288.936,77.12C293.523,74.203 289.252,67.407 287.223,64.336C285.861,62.272 282.471,64.128 283.848,66.212Z" style="fill:rgb(61,61,61);fill-rule:nonzero;"/>
                    </g>
                </g>
            </g>
            <g>
                <g>
                    <g>
                        <path d="M313.757,54.938C313.67,61.763 314.076,68.827 315.491,75.52C316.007,77.957 319.752,77.009 319.237,74.574C317.892,68.21 317.536,61.514 317.619,55.022C317.651,52.531 313.789,52.446 313.757,54.938Z" style="fill:rgb(61,61,61);fill-rule:nonzero;"/>
                    </g>
                </g>
                <g>
                    <g>
                        <path d="M307.75,55.687C313.041,55.738 318.293,54.937 323.58,54.974C326.069,54.992 326.156,51.13 323.663,51.112C318.377,51.075 313.124,51.876 307.833,51.825C305.345,51.8 305.258,55.662 307.75,55.687Z" style="fill:rgb(61,61,61);fill-rule:nonzero;"/>
                    </g>
                </g>
                <g>
                    <g>
                        <path d="M310.904,79.934C316.727,78.84 322.401,77.225 328.372,77.217C330.86,77.214 330.949,73.352 328.455,73.355C322.138,73.364 316.121,75.03 309.958,76.188C307.509,76.647 308.463,80.393 310.904,79.934Z" style="fill:rgb(61,61,61);fill-rule:nonzero;"/>
                    </g>
                </g>
            </g>
            <g>
                <g>
                    <g>
                        <path d="M388.087,59.119C385.933,63.622 385.863,69.116 385.754,74.023C385.699,76.513 389.561,76.597 389.616,74.106C389.707,69.967 389.559,64.945 391.379,61.14C392.446,58.911 389.16,56.875 388.087,59.119Z" style="fill:rgb(61,61,61);fill-rule:nonzero;"/>
                    </g>
                </g>
                <g>
                    <g>
                        <path d="M388.684,63.523C394.431,67.472 400.552,70.822 405.502,75.815C407.255,77.584 410.048,74.915 408.292,73.143C403.108,67.913 396.726,64.367 390.705,60.23C388.646,58.814 386.641,62.119 388.684,63.523Z" style="fill:rgb(61,61,61);fill-rule:nonzero;"/>
                    </g>
                </g>
                <g>
                    <g>
                        <path d="M405.268,60.465C405.193,63.958 405.117,67.451 405.042,70.945C404.988,73.435 408.85,73.519 408.904,71.028C408.979,67.535 409.055,64.042 409.13,60.548C409.184,58.057 405.322,57.974 405.268,60.465Z" style="fill:rgb(61,61,61);fill-rule:nonzero;"/>
                    </g>
                </g>
            </g>
            <g>
                <g>
                    <g>
                        <path d="M429.729,71.151C431.191,65.572 431.636,60.427 438.582,60.368C437.971,59.882 437.361,59.396 436.75,58.91C438.7,66.214 444.872,71.342 446.81,78.6C447.451,81.002 451.2,80.066 450.556,77.654C448.606,70.35 442.434,65.222 440.496,57.964C440.278,57.151 439.528,56.499 438.664,56.506C429.66,56.582 428.013,62.456 426.025,70.045C425.396,72.453 429.098,73.56 429.729,71.151Z" style="fill:rgb(61,61,61);fill-rule:nonzero;"/>
                    </g>
                </g>
                <g>
                    <g>
                        <path d="M421.403,70.55C432.775,67.581 444.164,65.885 455.934,66.052C458.424,66.088 458.509,62.226 456.017,62.19C443.906,62.017 432.16,63.748 420.456,66.803C418.051,67.432 418.988,71.181 421.403,70.55Z" style="fill:rgb(61,61,61);fill-rule:nonzero;"/>
                    </g>
                </g>
            </g>
            <g>
                <g>
                    <g>
                        <path d="M368.771,51.079C359.626,50.888 346.173,50.747 341.892,60.771C337.258,71.622 345.633,78.158 355.505,80.004C357.932,80.458 359.057,76.759 356.612,76.302C348.359,74.759 342.281,70.89 345.594,61.878C348.516,53.931 362.083,54.804 368.688,54.941C371.179,54.993 371.262,51.131 368.771,51.079Z" style="fill:rgb(61,61,61);fill-rule:nonzero;"/>
                    </g>
                </g>
                <g>
                    <g>
                        <path d="M355.048,79.799C358.598,81.463 362.657,82.212 365.841,79.405C368.762,76.829 368.707,72.239 367.919,68.779C367.366,66.352 363.619,67.296 364.173,69.725C364.649,71.816 364.94,74.578 363.426,76.353C361.819,78.239 358.97,77.396 357.07,76.505C354.835,75.459 352.796,78.743 355.048,79.799Z" style="fill:rgb(61,61,61);fill-rule:nonzero;"/>
                    </g>
                </g>
                <g>
                    <g>
                        <path d="M354.295,69.108C360.751,69.25 367.028,69.733 373.325,71.273C375.74,71.863 376.852,68.162 374.432,67.571C367.804,65.95 361.182,65.396 354.378,65.246C351.887,65.19 351.804,69.054 354.295,69.108Z" style="fill:rgb(61,61,61);fill-rule:nonzero;"/>
                    </g>
                </g>
            </g>
        </g>
    </g>
</svg>
