<?xml version="1.0" encoding="utf-8"?>
<!-- Generator: Adobe Illustrator 17.0.0, SVG Export Plug-In . SVG Version: 6.00 Build 0)  -->
<!DOCTYPE svg PUBLIC "-//W3C//DTD SVG 1.1//EN" "http://www.w3.org/Graphics/SVG/1.1/DTD/svg11.dtd">
<svg version="1.1" id="Calque_1" xmlns="http://www.w3.org/2000/svg" xmlns:xlink="http://www.w3.org/1999/xlink" x="0px" y="0px"
	 width="12.99px" height="14.03px" viewBox="0 0 12.99 14.03" enable-background="new 0 0 12.99 14.03" xml:space="preserve">
<g>
	<g>
		<path class="fill-color" fill="#FFFFFF" d="M11,10.952c0-2.056,0-4.796,0-6.852L9.952,3C7.896,3,5.841,3,3.785,3L1.73,3.55
			c0.685,2.741,0.685,4.729,1.37,7.47l1.811,0.651C7.652,11.671,8,11.637,11,10.952z"/>
		<g>
			<path fill="#4B4B4B" d="M11.574,10.952c0-1.924,0-3.849,0-5.773c0-1.245-0.268-1.832-0.813-2.922
				c-0.145-0.289-0.495-0.464-0.809-0.464c-1.142,0-2.284,0-3.426,0c-0.871,0-2.163-0.242-2.99,0.033
				c-0.685,0.228-1.37,0.457-2.056,0.685C0.983,2.678,0.705,3.147,0.827,3.664C1.26,5.51,1.484,7.384,1.79,9.253
				c0.233,1.425,0.259,2.266,1.576,2.819c2.38,1.001,5.083,0.383,7.519-0.217c1.172-0.289,0.675-2.094-0.498-1.806
				c-1.495,0.368-2.918,0.625-4.46,0.649c-1.023,0.016-1.651-0.258-2.58-0.649c0.218,0.218,0.436,0.436,0.654,0.654
				c-0.585-2.491-0.785-5.046-1.37-7.537C2.415,3.55,2.197,3.934,1.979,4.318c0.666-0.222,1.332-0.444,1.998-0.666
				c0.661-0.22,1.844,0.014,2.549,0.014c1.142,0,2.284,0,3.426,0c-0.27-0.155-0.539-0.309-0.809-0.464
				c0.515,1.031,0.557,1.392,0.557,2.547c0,1.734,0,3.469,0,5.203C9.701,12.16,11.574,12.16,11.574,10.952z"/>
		</g>
	</g>
</g>
</svg>
