<?xml version="1.0" encoding="utf-8"?>
<!-- Generator: Adobe Illustrator 17.0.0, SVG Export Plug-In . SVG Version: 6.00 Build 0)  -->
<!DOCTYPE svg PUBLIC "-//W3C//DTD SVG 1.1//EN" "http://www.w3.org/Graphics/SVG/1.1/DTD/svg11.dtd">
<svg version="1.1" id="Calque_1" xmlns="http://www.w3.org/2000/svg" xmlns:xlink="http://www.w3.org/1999/xlink" x="0px" y="0px"
	 width="12.99px" height="36.86px" viewBox="0 0 12.99 36.86" enable-background="new 0 0 12.99 36.86" xml:space="preserve">
<g>
	<g>
		<g>
			<path fill="#4B4B4B" d="M3.301,14.01c-0.454,7.424-0.719,14.301,0.615,21.652c0.184,1.015,1.727,0.584,1.544-0.426
				C4.148,28.001,4.457,21.299,4.903,14.01C4.966,12.978,3.364,12.984,3.301,14.01L3.301,14.01z"/>
		</g>
	</g>
	<g>
		<g>
			<path fill="#4B4B4B" d="M3.889,35.635c2.163,0.899,5.119-0.318,7.063-1.253c0.931-0.447,0.118-1.828-0.808-1.383
				c-1.576,0.758-4.077,1.82-5.829,1.091C3.361,33.694,2.95,35.244,3.889,35.635L3.889,35.635z"/>
		</g>
	</g>
	<g>
		<g>
			<path fill="#4B4B4B" d="M9.747,14.01c-0.476,6.562-0.195,13.153,0.586,19.681c0.121,1.012,1.724,1.024,1.602,0
				c-0.781-6.528-1.062-13.119-0.586-19.681C11.423,12.979,9.821,12.986,9.747,14.01L9.747,14.01z"/>
		</g>
	</g>
	<g>
		<g>
			<path fill="#4B4B4B" d="M2.557,22.743c2.25-0.561,4.488-1.1,6.819-1.143c1.031-0.019,1.033-1.621,0-1.602
				c-2.471,0.046-4.857,0.605-7.245,1.201C1.129,21.449,1.554,22.994,2.557,22.743L2.557,22.743z"/>
		</g>
	</g>
	<g>
		<g>
			<path fill="#4B4B4B" d="M3.557,15.743c2.25-0.561,4.488-1.1,6.819-1.143c1.031-0.019,1.033-1.621,0-1.602
				c-2.471,0.046-4.857,0.605-7.245,1.201C2.129,14.449,2.554,15.994,3.557,15.743L3.557,15.743z"/>
		</g>
	</g>
	<g>
		<g>
			<path fill="#4B4B4B" d="M4.758,29.218c2.02-0.017,3.882-0.445,5.83-0.935c1.001-0.252,0.576-1.797-0.426-1.544
				c-1.811,0.456-3.526,0.863-5.405,0.878C3.726,27.625,3.725,29.226,4.758,29.218L4.758,29.218z"/>
		</g>
	</g>
</g>
</svg>
