<?xml version="1.0" encoding="utf-8"?>
<!-- Generator: Adobe Illustrator 17.0.0, SVG Export Plug-In . SVG Version: 6.00 Build 0)  -->
<!DOCTYPE svg PUBLIC "-//W3C//DTD SVG 1.1//EN" "http://www.w3.org/Graphics/SVG/1.1/DTD/svg11.dtd">
<svg version="1.1" id="Calque_1" xmlns="http://www.w3.org/2000/svg" xmlns:xlink="http://www.w3.org/1999/xlink" x="0px" y="0px"
	 width="12.99px" height="36.86px" viewBox="0 0 12.99 36.86" enable-background="new 0 0 12.99 36.86" xml:space="preserve">
<g>
	<g>
		<g>
			<path fill="#4B4B4B" d="M3.301,28.01c0,2.62,0.206,5.066,0.615,7.652c0.161,1.018,1.704,0.584,1.544-0.426
				c-0.386-2.442-0.557-4.752-0.557-7.226C4.902,26.977,3.301,26.977,3.301,28.01L3.301,28.01z"/>
		</g>
	</g>
	<g>
		<g>
			<path fill="#4B4B4B" d="M3.889,35.635c2.163,0.899,5.119-0.318,7.063-1.253c0.931-0.447,0.118-1.828-0.808-1.383
				c-1.576,0.758-4.077,1.82-5.829,1.091C3.361,33.694,2.95,35.244,3.889,35.635L3.889,35.635z"/>
		</g>
	</g>
	<g>
		<g>
			<path fill="#4B4B4B" d="M9.981,28.576c-0.037-0.041-0.051-0.162-0.036-0.012c0.027,0.276,0.024,0.557,0.032,0.835
				c0.042,1.437,0.182,2.866,0.356,4.292c0.123,1.012,1.726,1.024,1.602,0c-0.186-1.525-0.321-3.05-0.364-4.586
				c-0.017-0.603-0.025-1.193-0.456-1.661C10.412,26.683,9.282,27.819,9.981,28.576L9.981,28.576z"/>
		</g>
	</g>
	<g>
		<g>
			<path fill="#4B4B4B" d="M4.758,29.218c2.02-0.017,3.882-0.445,5.83-0.935c1.001-0.252,0.576-1.797-0.426-1.544
				c-1.811,0.456-3.526,0.863-5.405,0.878C3.726,27.625,3.725,29.226,4.758,29.218L4.758,29.218z"/>
		</g>
	</g>
</g>
</svg>
