<?xml version="1.0" encoding="utf-8"?>
<!-- Generator: Adobe Illustrator 17.0.0, SVG Export Plug-In . SVG Version: 6.00 Build 0)  -->
<!DOCTYPE svg PUBLIC "-//W3C//DTD SVG 1.1//EN" "http://www.w3.org/Graphics/SVG/1.1/DTD/svg11.dtd">
<svg version="1.1" id="Calque_1" xmlns="http://www.w3.org/2000/svg" xmlns:xlink="http://www.w3.org/1999/xlink" x="0px" y="0px"
	 width="12.99px" height="36.86px" viewBox="0 0 12.99 36.86" enable-background="new 0 0 12.99 36.86" xml:space="preserve">
<g>
	<g>
		<g>
			<path fill="#4B4B4B" d="M3.301,3.01C2.675,13.856,2.066,24.9,3.916,35.661c0.175,1.016,1.718,0.584,1.544-0.426
				C3.637,24.63,4.285,13.698,4.903,3.01C4.962,1.978,3.36,1.983,3.301,3.01L3.301,3.01z"/>
		</g>
	</g>
	<g>
		<g>
			<path fill="#4B4B4B" d="M3.889,35.635c2.163,0.899,5.119-0.318,7.063-1.253c0.931-0.447,0.118-1.828-0.808-1.383
				c-1.576,0.758-4.077,1.82-5.829,1.091C3.361,33.694,2.95,35.244,3.889,35.635L3.889,35.635z"/>
		</g>
	</g>
	<g>
		<g>
			<path fill="#4B4B4B" d="M9.747,3.01c-0.738,10.052-0.549,20.662,0.586,30.681c0.115,1.014,1.718,1.025,1.602,0
				C10.799,23.671,10.61,13.062,11.348,3.01C11.424,1.979,9.822,1.986,9.747,3.01L9.747,3.01z"/>
		</g>
	</g>
	<g>
		<g>
			<path fill="#4B4B4B" d="M2.557,22.743c2.25-0.561,4.488-1.1,6.819-1.143c1.031-0.019,1.033-1.621,0-1.602
				c-2.471,0.046-4.857,0.605-7.245,1.201C1.129,21.449,1.554,22.994,2.557,22.743L2.557,22.743z"/>
		</g>
	</g>
	<g>
		<g>
			<path fill="#4B4B4B" d="M3.557,15.743c2.25-0.561,4.488-1.1,6.819-1.143c1.031-0.019,1.033-1.621,0-1.602
				c-2.471,0.046-4.857,0.605-7.245,1.201C2.129,14.449,2.554,15.994,3.557,15.743L3.557,15.743z"/>
		</g>
	</g>
	<g>
		<g>
			<path fill="#4B4B4B" d="M3.557,9.743C5.812,9.178,8.038,8.64,10.376,8.6c1.032-0.017,1.033-1.619,0-1.602
				C7.898,7.04,5.523,7.6,3.131,8.199C2.13,8.45,2.555,9.995,3.557,9.743L3.557,9.743z"/>
		</g>
	</g>
	<g>
		<g>
			<path fill="#4B4B4B" d="M3.557,3.743C5.812,3.178,8.038,2.64,10.376,2.6c1.032-0.017,1.033-1.619,0-1.602
				C7.898,1.04,5.523,1.6,3.131,2.199C2.13,2.45,2.555,3.995,3.557,3.743L3.557,3.743z"/>
		</g>
	</g>
	<g>
		<g>
			<path fill="#4B4B4B" d="M4.758,29.218c2.02-0.017,3.882-0.445,5.83-0.935c1.001-0.252,0.576-1.797-0.426-1.544
				c-1.811,0.456-3.526,0.863-5.405,0.878C3.726,27.625,3.725,29.226,4.758,29.218L4.758,29.218z"/>
		</g>
	</g>
</g>
</svg>
