<?xml version="1.0" encoding="utf-8"?>
<!-- Generator: Adobe Illustrator 17.0.0, SVG Export Plug-In . SVG Version: 6.00 Build 0)  -->
<!DOCTYPE svg PUBLIC "-//W3C//DTD SVG 1.1//EN" "http://www.w3.org/Graphics/SVG/1.1/DTD/svg11.dtd" [
	<!ENTITY st0 "fill:#3D3D3D;">
	<!ENTITY st1 "opacity:0.6;">
	<!ENTITY st2 "fill:#4B4B4B;">
	<!ENTITY st3 "fill:#C471ED;">
	<!ENTITY st4 "fill:#CC88EF;">
]>
<svg version="1.1" id="Calque_1" xmlns="http://www.w3.org/2000/svg" xmlns:xlink="http://www.w3.org/1999/xlink" x="0px" y="0px"
	 width="55px" height="29px" viewBox="0 0 55 29" style="enable-background:new 0 0 55 29;" xml:space="preserve">
<g>
	<g>
		<g>
			<path style="&st0;" d="M3.207,20.133c9.799,6.541,23.8,6.714,34.969,4.614c5.221-0.981,10.352-2.993,14.378-6.514
				c2.491-2.179-5.332-5.75-6.756-5.71c-8.037,0.223-16.075,0.447-24.112,0.67c-4.083,0.113-8.166,0.227-12.249,0.34
				c-2.946,0.082-4.631,2.998-6.422,5.109c-0.787,0.927,0.549,2.277,1.342,1.342c1.437-1.693,2.936-4.494,5.08-4.553
				c2.859-0.079,5.717-0.159,8.576-0.238c7.842-0.218,15.684-0.436,23.527-0.654c3.024-0.084,4.915-0.349,7.675,1.381
				c2.453,1.538,1.754,1.319-0.166,2.662c-0.867,0.606-1.82,1.084-2.759,1.564c-2.688,1.375-5.683,2.14-8.618,2.77
				c-10.521,2.258-24.307,1.718-33.507-4.423C3.144,17.812,2.195,19.457,3.207,20.133z"/>
		</g>
	</g>
	<g style="&st1;">
		<path style="&st2;" d="M3.745,19.313C14.386,26.824,41,27.242,52,17.562v-0.694c-2-1.461-3.814-3.188-6.109-3.397L8.335,14.514
			C7.083,15.349,3.745,19.313,3.745,19.313z"/>
		<g>
			<path style="&st0;" d="M3.207,20.133c9.799,6.541,23.8,6.714,34.969,4.614c5.221-0.981,10.352-2.993,14.378-6.514
				c2.491-2.179-5.332-5.75-6.756-5.71c-8.037,0.223-16.075,0.447-24.112,0.67c-4.083,0.113-8.166,0.227-12.249,0.34
				c-2.946,0.082-4.631,2.998-6.422,5.109c-0.787,0.927,0.549,2.277,1.342,1.342c1.437-1.693,2.936-4.494,5.08-4.553
				c2.859-0.079,5.717-0.159,8.576-0.238c7.842-0.218,15.684-0.436,23.527-0.654c3.024-0.084,4.915-0.349,7.675,1.381
				c2.453,1.538,1.754,1.319-0.166,2.662c-0.867,0.606-1.82,1.084-2.759,1.564c-2.688,1.375-5.683,2.14-8.618,2.77
				c-10.521,2.258-24.307,1.718-33.507-4.423C3.144,17.812,2.195,19.457,3.207,20.133z"/>
		</g>
	</g>
	<g>
		<path class="fill-color-front" fill="#C471ED" d="M11.093,12.245c-0.799,3.197-1.598,3.597-1.598,6.597h0.799c13.899,6,25.942,3.004,37.626-1.439
			c-1.598-2.398-2.553-2.79-2.553-5.987"/>
		<g>
			<path style="&st0;" d="M10.177,12.152c-0.811,3.289-1.474,3.621-1.632,7.008c-0.024,0.517,0.45,0.949,0.949,0.949
				c2.893,0,6.441,1.806,9.364,2.35c3.381,0.629,6.844,0.686,10.268,0.532c6.548-0.294,12.947-2.247,19.046-4.514
				c0.566-0.21,0.899-0.83,0.567-1.394c-1.583-2.689-2.271-2.403-2.423-5.508c-0.06-1.218-1.958-1.224-1.898,0
				c0.166,3.393,0.956,3.533,2.682,6.466c0.189-0.465,0.378-0.929,0.567-1.394c-7.083,2.633-14.219,4.467-21.821,4.534
				c-4.61,0.04-9.123-0.936-13.498-2.297c-1.34-0.417-1.431-0.672-2.454-0.672c0.93,0,1.786-4.224,2.114-5.555
				C12.301,11.468,10.47,10.964,10.177,12.152L10.177,12.152z"/>
		</g>
	</g>
	<g>
		<path class="fill-color-top" fill="#CC88EF" d="M22.809,7.977c-5.595,0.799-7.015,1.231-11.81,3.629c10.39,6.394,24.777,7.163,34.368-0.03
			C36.575,7.579,33.2,5.579,22.809,7.977"/>
		<g>
			<path style="&st0;" d="M22.557,7.061c-4.381,0.649-8.075,1.772-12.037,3.724c-0.653,0.322-0.582,1.299,0,1.639
				c10.836,6.338,24.745,7.411,35.326-0.029c0.522-0.367,0.706-1.317,0-1.639C37.731,7.05,31.479,5.149,22.557,7.061
				c-1.197,0.257-0.689,2.086,0.505,1.83c8.454-1.812,14.178,0.01,21.826,3.503c0-0.546,0-1.093,0-1.639
				c-10.053,7.069-23.117,6.05-33.41,0.03c0,0.546,0,1.093,0,1.639c3.826-1.885,7.383-2.911,11.584-3.533
				C24.269,8.713,23.754,6.884,22.557,7.061L22.557,7.061z"/>
		</g>
	</g>
</g>
</svg>
