<?xml version="1.0" encoding="utf-8"?>
<!-- Generator: Adobe Illustrator 17.0.0, SVG Export Plug-In . SVG Version: 6.00 Build 0)  -->
<!DOCTYPE svg PUBLIC "-//W3C//DTD SVG 1.1//EN" "http://www.w3.org/Graphics/SVG/1.1/DTD/svg11.dtd" [
	<!ENTITY st0 "fill:#FFFFFF;">
]>
<svg version="1.1" id="Calque_1" xmlns="http://www.w3.org/2000/svg" xmlns:xlink="http://www.w3.org/1999/xlink" x="0px" y="0px"
	 width="1280px" height="570px" viewBox="0 0 1280 570" style="enable-background:new 0 0 1280 570;" xml:space="preserve">
<g>
	<g>
		<path style="&st0;" d="M957.281,562.06c-26.369,6.661-60.513,5.743-87.561,1.975l1.765-0.569
			c-1.773-6.599,1.477-10.302,8.353-9.461l-2.285,2.029c-1.572-2.691-1.824-5.736-0.377-8.247l1.751-0.329
			c-2.917-1.905-2.789-4.061-0.048-6.496l1.269,0.508c-3.349-1.93-3.652-4.113-1.748-7.03l0.431,0.026
			c-3.703-3.25-2.687-5.787,1.755-7.688l64.936-0.045c3.349,1.93,3.195,4.518-0.003,7.359l0.026-0.431
			c3.323,2.362,3.195,4.518-0.789,6.014l-0.508,1.268c2.131,0.559,3.451,0.205,3.754,2.387c-0.534,1.7-1.879,2.486-3.25,3.703
			l-0.051,0.863c4.263,1.119,4.109,3.707,0.453,6.953l3.199-2.841C954.393,552.365,958.071,556.047,957.281,562.06"/>
		<g>
			<path d="M957.026,561.135c-28.208,6.936-58.463,5.881-87.051,1.975c0,0.617,0,1.233,0,1.85c0.588-0.19,1.177-0.379,1.765-0.569
				c0.515-0.166,0.789-0.653,0.67-1.18c-1.287-5.72,1.66-8.717,7.428-8.247c-0.226-0.546-0.452-1.092-0.678-1.638
				c-0.762,0.676-1.523,1.353-2.285,2.029c0.502,0.065,1.004,0.129,1.507,0.194c-1.076-2.187-2.558-6.536,0.801-7.167
				c0.673-0.126,0.969-1.163,0.423-1.603c-0.217-1.587-0.435-3.174-0.652-4.761c0.313,0.125,0.626,0.251,0.94,0.376
				c1.064,0.426,1.588-1.181,0.739-1.753c-3.235-3.664-3.835-5.403-1.8-5.217c0.854,0.051,1.246-1.072,0.678-1.638
				c-1.857-1.849-0.881-6.049,1.566-6.051c0.594,0,1.187-0.001,1.781-0.001c2.26-0.002,4.52-0.003,6.781-0.005
				c7.474-0.005,14.949-0.01,22.423-0.016c7.647-0.005,15.294-0.011,22.94-0.016c2.466-0.002,4.931-0.003,7.397-0.005
				c0.726-0.001,1.452-0.001,2.178-0.002c2.05-0.001,6.113-0.215,0.265,5.721c0.546,0.226,1.092,0.452,1.638,0.678
				c0.009-0.144,0.017-0.288,0.026-0.431c-0.546,0.226-1.092,0.452-1.638,0.678c3.088,2.544-0.549,3.865-1.544,6.349
				c-0.187,0.467,0.2,1.079,0.67,1.18c4.922,1.058-0.088,3.279-0.251,6.028c-0.026,0.44,0.315,0.793,0.704,0.925
				c1.933,2.321,1.943,4.104,0.03,5.35c-0.894,0.869,0.438,2.172,1.357,1.357c1.007-0.894,2.014-1.789,3.022-2.683
				c0.815-0.724,4.855,1.865,5.466,2.365c2.041,1.667,2.185,4.464,2.001,6.853c-0.095,1.235,1.824,1.225,1.919,0
				c0.355-4.599-1.331-8.184-5.625-10.115c-4.065-1.828-5.236-0.354-8.139,2.224c0.452,0.452,0.904,0.904,1.357,1.357
				c1.4-1.36,4.525-4.588,2.371-6.731c-1.13-1.125-2.82-1.045-1.762-1.938c0.915-0.772,2.52-2.153,2.52-3.528
				c0-0.865-0.538-1.996-1.314-2.45c-1.527-0.895-3.724,0.231-0.935-1.057c3.638-1.68,1.715-5.025-0.489-6.84
				c-0.651-0.536-1.586-0.199-1.638,0.678c-0.008,0.144-0.017,0.288-0.026,0.431c-0.05,0.851,1.074,1.25,1.638,0.678
				c1.213-1.231,3.448-3.444,2.662-5.48c-0.499-1.293-1.682-3.518-3.337-3.517c-1.728,0.001-3.456,0.002-5.184,0.004
				c-9.426,0.007-18.852,0.013-28.278,0.02c-9.125,0.006-18.251,0.013-27.376,0.019c-1.312,0.001-3.066-0.317-4.353,0.037
				c-5.295,1.456-5.575,5.908-2.178,9.291c0.226-0.546,0.452-1.092,0.678-1.638c-0.144-0.008-0.288-0.017-0.431-0.026
				c-0.327-0.019-0.671,0.195-0.828,0.475c-2.027,3.603-1.297,6.056,2.092,8.342c0.246-0.584,0.493-1.169,0.739-1.753
				c-0.423-0.169-0.846-0.339-1.268-0.508c-0.304-0.122-0.717,0.022-0.933,0.247c-2.713,2.815-3.163,5.263,0.048,7.853
				c0.141-0.534,0.282-1.069,0.423-1.603c-4.743,0.891-3.623,6.58-1.948,9.986c0.288,0.585,1.074,0.578,1.507,0.194
				c0.762-0.676,1.523-1.353,2.285-2.029c0.678-0.602,0.089-1.575-0.678-1.638c-2.873-0.234-6.799-0.056-8.524,2.757
				c-0.797,1.3-1.116,2.555-1.261,4.065c-0.213,2.226,1.282,2.639-0.589,3.243c-0.814,0.263-1.011,1.712,0,1.85
				c28.951,3.956,59.495,5.051,88.071-1.975C958.737,562.69,958.228,560.84,957.026,561.135L957.026,561.135z"/>
		</g>
	</g>
	<g>
		<g>
			<g>
				<path d="M876.513,555.613c23.155,4.473,47.799,5.215,70.7-1.032c1.192-0.325,0.686-2.176-0.51-1.85
					c-22.548,6.151-46.879,5.437-69.68,1.032C875.814,553.53,875.298,555.379,876.513,555.613L876.513,555.613z"/>
			</g>
		</g>
		<g>
			<g>
				<path d="M878.681,549.197c9.22,4.094,20.758,3.784,30.62,3.829c11.153,0.051,22.589-0.349,33.6-2.265
					c0.487-0.085,0.28-0.824-0.204-0.74c-10.122,1.762-20.572,2.115-30.825,2.229c-10.475,0.116-23.017,0.63-32.804-3.715
					C878.62,548.335,878.229,548.996,878.681,549.197L878.681,549.197z"/>
			</g>
		</g>
		<g>
			<g>
				<path d="M882.618,542.735c18.836,6.68,40.719,3.524,59.968,0.372c0.487-0.08,0.28-0.819-0.204-0.74
					c-19.064,3.122-40.902,6.244-59.56-0.372C882.355,541.829,882.155,542.571,882.618,542.735L882.618,542.735z"/>
			</g>
		</g>
		<g>
			<g>
				<path d="M881.091,532.841c18.605,3.802,37.662,6.271,56.411,1.988c0.482-0.11,0.278-0.85-0.204-0.74
					c-18.626,4.255-37.522,1.79-56.003-1.988C880.812,532.002,880.606,532.741,881.091,532.841L881.091,532.841z"/>
			</g>
		</g>
		<g>
			<path style="&st0;" d="M880.85,541.485c3.932,1.771,8.067,3.362,12.258,3.995"/>
			<g>
				<path d="M880.657,541.817c3.984,1.774,8.032,3.312,12.35,4.034c0.484,0.081,0.691-0.659,0.204-0.74
					c-4.254-0.711-8.24-2.208-12.167-3.956C880.596,540.955,880.205,541.616,880.657,541.817L880.657,541.817z"/>
			</g>
		</g>
		<g>
			<path style="&st0;" d="M880.066,532.019c6.185,2.674,13.047,3.657,19.583,3.66"/>
			<g>
				<path d="M879.964,532.389c6.304,2.593,12.899,3.602,19.685,3.674c0.495,0.005,0.495-0.762,0-0.767
					c-6.718-0.071-13.249-1.083-19.481-3.647C879.71,531.461,879.513,532.204,879.964,532.389L879.964,532.389z"/>
			</g>
		</g>
		<g>
			<path style="&st0;" d="M880.572,533.203c7.369,2.167,14.806,3.185,22.514,2.873"/>
			<g>
				<path d="M880.47,533.573c7.427,2.1,14.895,3.105,22.616,2.887c0.494-0.014,0.495-0.781,0-0.767
					c-7.635,0.216-15.066-0.783-22.411-2.859C880.197,532.698,879.995,533.438,880.47,533.573L880.47,533.573z"/>
			</g>
		</g>
		<g>
			<path style="&st0;" d="M878.594,547.119c7.818,4.308,17.07,3.896,25.634,5.365"/>
			<g>
				<path d="M878.4,547.45c8.053,4.097,16.986,4.022,25.725,5.404c0.484,0.076,0.692-0.663,0.204-0.74
					c-8.651-1.368-17.565-1.268-25.542-5.326C878.347,546.563,877.959,547.225,878.4,547.45L878.4,547.45z"/>
			</g>
		</g>
		<g>
			<path style="&st0;" d="M877.782,547.839c6.174,2.865,13.036,3.849,19.932,4.258"/>
			<g>
				<path d="M877.588,548.171c6.41,2.826,13.183,3.858,20.126,4.31c0.494,0.032,0.491-0.735,0-0.767
					c-6.806-0.444-13.459-1.437-19.739-4.205C877.527,547.31,877.136,547.971,877.588,548.171L877.588,548.171z"/>
			</g>
		</g>
		<g>
			<path style="&st0;" d="M880.276,541.451c6.275,4.409,13.396,4.255,20.642,5.261"/>
			<g>
				<path d="M880.082,541.783c6.323,4.129,13.568,4.368,20.836,5.313c0.49,0.064,0.484-0.705,0-0.767
					c-7.15-0.93-14.223-1.144-20.448-5.209C880.053,540.848,879.669,541.513,880.082,541.783L880.082,541.783z"/>
			</g>
		</g>
		<g>
			<path style="&st0;" d="M900.162,546.475c1.724,0.102,3.459,0.013,5.195-0.076"/>
			<g>
				<path d="M900.162,546.859c1.734,0.088,3.463,0.012,5.195-0.076c0.492-0.025,0.495-0.793,0-0.767
					c-1.732,0.089-3.461,0.165-5.195,0.076C899.668,546.066,899.67,546.834,900.162,546.859L900.162,546.859z"/>
			</g>
		</g>
		<g>
			<path style="&st0;" d="M880.189,533.18c1.51,0.474,3.02,0.948,4.529,1.422"/>
			<g>
				<path d="M880.087,533.55c1.51,0.474,3.02,0.948,4.529,1.422c0.474,0.149,0.674-0.592,0.204-0.74
					c-1.51-0.474-3.02-0.948-4.529-1.422C879.818,532.661,879.617,533.402,880.087,533.55L880.087,533.55z"/>
			</g>
		</g>
		<g>
			<path style="&st0;" d="M877.959,531.894c3.403,0.971,6.817,1.75,10.051,2.326"/>
			<g>
				<path d="M877.857,532.264c3.315,0.932,6.663,1.71,10.051,2.326c0.484,0.088,0.69-0.651,0.204-0.74
					c-3.388-0.616-6.736-1.394-10.051-2.326C877.583,531.39,877.381,532.13,877.857,532.264L877.857,532.264z"/>
			</g>
		</g>
		<g>
			<path style="&st0;" d="M878.499,532.503c3.2,1.151,6.4,2.302,9.622,3.07"/>
			<g>
				<path d="M878.397,532.873c3.172,1.14,6.346,2.262,9.622,3.07c0.481,0.119,0.684-0.622,0.204-0.74
					c-3.276-0.808-6.45-1.929-9.622-3.07C878.134,531.965,877.935,532.707,878.397,532.873L878.397,532.873z"/>
			</g>
		</g>
		<g>
			<path style="&st0;" d="M877.43,531.094c2.578,5.151,23.561,4.665,30.84,5.097"/>
			<g>
				<path d="M877.098,531.288c2.119,3.377,7.579,3.733,11.098,4.203c6.652,0.888,13.386,0.731,20.073,1.084
					c0.495,0.026,0.492-0.741,0-0.767c-4.735-0.25-9.478-0.273-14.212-0.554c-4.354-0.258-13.602-0.058-16.297-4.352
					C877.499,530.482,876.834,530.867,877.098,531.288L877.098,531.288z"/>
			</g>
		</g>
		<g>
			<path style="&st0;" d="M885.248,535.402c5.713,0.916,11.854,1.087,17.815,1.057"/>
			<g>
				<path d="M885.146,535.772c5.94,0.893,11.918,1.086,17.917,1.07c0.495-0.001,0.495-0.769,0-0.768
					c-5.929,0.015-11.842-0.16-17.713-1.043C884.866,534.96,884.658,535.699,885.146,535.772L885.146,535.772z"/>
			</g>
		</g>
		<g>
			<path style="&st0;" d="M883.529,542.233"/>
			<g>
				<path d="M883.529,542.617c0.495,0,0.495-0.767,0-0.767S883.034,542.617,883.529,542.617L883.529,542.617z"/>
			</g>
		</g>
	</g>
	<g>
		<g>
			<path d="M887.025,556.211c0.051,0.054,0.101,0.108,0.152,0.163c0.338,0.362,0.88-0.181,0.543-0.543
				c-0.051-0.054-0.101-0.108-0.152-0.163C887.229,555.306,886.688,555.85,887.025,556.211L887.025,556.211z"/>
		</g>
	</g>
	<g>
		<g>
			<path d="M890.127,556.421c0.495,0,0.495-0.767,0-0.767S889.632,556.421,890.127,556.421L890.127,556.421z"/>
		</g>
	</g>
	<g>
		<g>
			<path d="M891.385,556.464c0.495,0,0.495-0.767,0-0.767S890.89,556.464,891.385,556.464L891.385,556.464z"/>
		</g>
	</g>
	<g>
		<g>
			<path d="M886.418,554.404c0.495,0,0.495-0.767,0-0.767C885.923,553.637,885.923,554.404,886.418,554.404L886.418,554.404z"/>
		</g>
	</g>
	<g>
		<g>
			<path d="M888.901,555.434c0.495,0,0.495-0.767,0-0.767S888.406,555.434,888.901,555.434L888.901,555.434z"/>
		</g>
	</g>
	<g>
		<g>
			<path d="M893.272,556.529c0.21,0.007,0.419,0.014,0.629,0.022c0.495,0.017,0.494-0.751,0-0.767
				c-0.21-0.007-0.419-0.014-0.629-0.022C892.777,555.745,892.778,556.512,893.272,556.529L893.272,556.529z"/>
		</g>
	</g>
	<g>
		<g>
			<path d="M886.093,559.274c0.495,0,0.495-0.767,0-0.767C885.598,558.506,885.598,559.274,886.093,559.274L886.093,559.274z"/>
		</g>
	</g>
	<g>
		<g>
			<path d="M886.874,559.458c0.495,0,0.495-0.767,0-0.767S886.379,559.458,886.874,559.458L886.874,559.458z"/>
		</g>
	</g>
	<g>
		<g>
			<path d="M885.622,563.823c0.495,0,0.495-0.768,0-0.768C885.127,563.056,885.127,563.823,885.622,563.823L885.622,563.823z"/>
		</g>
	</g>
	<g>
		<g>
			<path d="M885.616,563.98c0.495,0,0.495-0.767,0-0.767C885.121,563.213,885.121,563.98,885.616,563.98L885.616,563.98z"/>
		</g>
	</g>
	<g>
		<g>
			<path d="M886.907,563.08c0.495,0,0.495-0.767,0-0.767S886.412,563.08,886.907,563.08L886.907,563.08z"/>
		</g>
	</g>
	<g>
		<g>
			<path d="M890.334,564.143c0.495,0,0.495-0.767,0-0.767C889.839,563.375,889.839,564.143,890.334,564.143L890.334,564.143z"/>
		</g>
	</g>
	<g>
		<g>
			<path d="M893.625,564.571c0.495,0,0.495-0.767,0-0.767S893.13,564.571,893.625,564.571L893.625,564.571z"/>
		</g>
	</g>
	<g>
		<g>
			<path d="M897.719,564.554c0.495,0,0.495-0.767,0-0.767S897.224,564.554,897.719,564.554L897.719,564.554z"/>
		</g>
	</g>
	<g>
		<g>
			<path d="M898.034,564.565c0.052,0.002,0.105,0.004,0.157,0.005c0.495,0.017,0.494-0.75,0-0.767
				c-0.052-0.002-0.105-0.004-0.157-0.005C897.538,563.78,897.54,564.548,898.034,564.565L898.034,564.565z"/>
		</g>
	</g>
	<g>
		<g>
			<path d="M904.812,564.325c0.495,0,0.495-0.767,0-0.767S904.317,564.325,904.812,564.325L904.812,564.325z"/>
		</g>
	</g>
	<g>
		<g>
			<path d="M894.167,562.543c0.157,0.005,0.315,0.011,0.472,0.016c0.495,0.017,0.494-0.75,0-0.767
				c-0.157-0.005-0.314-0.011-0.472-0.016C893.672,561.758,893.674,562.526,894.167,562.543L894.167,562.543z"/>
		</g>
	</g>
	<g>
		<g>
			<path d="M901.233,563.1c0.495,0,0.495-0.767,0-0.767C900.738,562.333,900.738,563.1,901.233,563.1L901.233,563.1z"/>
		</g>
	</g>
	<g>
		<g>
			<path d="M902.962,563.16c0.495,0,0.495-0.767,0-0.767C902.468,562.392,902.468,563.16,902.962,563.16L902.962,563.16z"/>
		</g>
	</g>
	<g>
		<g>
			<path d="M886.986,548.181c0.051,0.054,0.101,0.108,0.152,0.163c0.338,0.362,0.88-0.181,0.543-0.543
				c-0.051-0.054-0.101-0.108-0.152-0.163C887.19,547.276,886.649,547.82,886.986,548.181L886.986,548.181z"/>
		</g>
	</g>
	<g>
		<g>
			<path d="M887.409,548.456c0.495,0,0.495-0.767,0-0.767S886.914,548.456,887.409,548.456L887.409,548.456z"/>
		</g>
	</g>
	<g>
		<g>
			<path d="M887.208,545.143c0.495,0,0.495-0.767,0-0.767C886.713,544.375,886.713,545.143,887.208,545.143L887.208,545.143z"/>
		</g>
	</g>
	<g>
		<g>
			<path d="M889.865,545.706c0.495,0,0.495-0.767,0-0.767C889.37,544.939,889.37,545.706,889.865,545.706L889.865,545.706z"/>
		</g>
	</g>
	<g>
		<g>
			<path d="M888.114,550.842c0.495,0,0.495-0.767,0-0.767S887.619,550.842,888.114,550.842L888.114,550.842z"/>
		</g>
	</g>
	<g>
		<g>
			<path d="M889.629,551.478c0.317,0.147,0.625,0.222,0.975,0.237c0.495,0.021,0.493-0.747,0-0.767
				c-0.211-0.009-0.393-0.042-0.587-0.132C889.57,550.608,889.18,551.269,889.629,551.478L889.629,551.478z"/>
		</g>
	</g>
	<g>
		<g>
			<path d="M892.789,552.262c0.495,0,0.495-0.767,0-0.767C892.294,551.494,892.294,552.262,892.789,552.262L892.789,552.262z"/>
		</g>
	</g>
	<g>
		<g>
			<path d="M894.35,551.863c0.085,0.067,0.072,0.048-0.038-0.056c-0.343-0.358-0.885,0.186-0.543,0.543
				c0.176,0.183,0.326,0.265,0.58,0.28C894.845,552.66,894.842,551.893,894.35,551.863L894.35,551.863z"/>
		</g>
	</g>
	<g>
		<g>
			<path d="M887.827,550.045c0.257,0.003,0.461-0.043,0.671-0.193c0.398-0.286,0.016-0.952-0.387-0.663
				c-0.082,0.08-0.177,0.109-0.283,0.089C887.332,549.27,887.332,550.038,887.827,550.045L887.827,550.045z"/>
		</g>
	</g>
	<g>
		<g>
			<path d="M890.966,550.31c0.495,0,0.495-0.767,0-0.767C890.472,549.542,890.472,550.31,890.966,550.31L890.966,550.31z"/>
		</g>
	</g>
	<g>
		<g>
			<path d="M893.461,551.025c0.495,0,0.495-0.767,0-0.767S892.966,551.025,893.461,551.025L893.461,551.025z"/>
		</g>
	</g>
	<g>
		<g>
			<path d="M895.489,551.567c0.495,0,0.495-0.768,0-0.768C894.994,550.8,894.994,551.567,895.489,551.567L895.489,551.567z"/>
		</g>
	</g>
	<g>
		<g>
			<path d="M897.061,551.621c0.495,0,0.495-0.767,0-0.767C896.567,550.854,896.567,551.621,897.061,551.621L897.061,551.621z"/>
		</g>
	</g>
	<g>
		<g>
			<path d="M887.897,543.435c0.495,0,0.495-0.767,0-0.767S887.402,543.435,887.897,543.435L887.897,543.435z"/>
		</g>
	</g>
	<g>
		<g>
			<path d="M889.757,544.286c0.495,0,0.495-0.767,0-0.767S889.262,544.286,889.757,544.286L889.757,544.286z"/>
		</g>
	</g>
	<g>
		<g>
			<path d="M891.683,544.814c0.25,0.046,0.465,0.163,0.726,0.193c0.491,0.057,0.486-0.712,0-0.767
				c-0.187-0.022-0.339-0.132-0.522-0.165C891.403,543.986,891.196,544.725,891.683,544.814L891.683,544.814z"/>
		</g>
	</g>
	<g>
		<g>
			<path d="M894.442,545.391c0.495,0,0.495-0.768,0-0.768S893.947,545.391,894.442,545.391L894.442,545.391z"/>
		</g>
	</g>
	<g>
		<g>
			<path d="M896.8,545.472c0.495,0,0.495-0.767,0-0.767S896.306,545.472,896.8,545.472L896.8,545.472z"/>
		</g>
	</g>
	<g>
		<g>
			<path d="M896.8,545.472c0.495,0,0.495-0.767,0-0.767S896.306,545.472,896.8,545.472L896.8,545.472z"/>
		</g>
	</g>
	<g>
		<g>
			<path d="M893.861,543.954c0.495,0,0.495-0.767,0-0.767S893.366,543.954,893.861,543.954L893.861,543.954z"/>
		</g>
	</g>
	<g>
		<g>
			<path d="M891.367,543.239c0.495,0,0.495-0.767,0-0.767S890.872,543.239,891.367,543.239L891.367,543.239z"/>
		</g>
	</g>
	<g>
		<g>
			<path d="M889.328,543.011c0.495,0,0.495-0.767,0-0.767C888.833,542.244,888.833,543.011,889.328,543.011L889.328,543.011z"/>
		</g>
	</g>
	<g>
		<g>
			<path d="M887.934,542.334c0.495,0,0.495-0.767,0-0.767C887.44,541.566,887.44,542.334,887.934,542.334L887.934,542.334z"/>
		</g>
	</g>
	<g>
		<g>
			<path d="M886.523,532.997c0.495,0,0.495-0.767,0-0.767S886.029,532.997,886.523,532.997L886.523,532.997z"/>
		</g>
	</g>
	<g>
		<g>
			<path d="M886.718,527.949c-0.054,0.051-0.108,0.101-0.163,0.152c-0.362,0.338,0.181,0.88,0.543,0.543
				c0.054-0.051,0.108-0.101,0.163-0.152C887.623,528.154,887.079,527.612,886.718,527.949L886.718,527.949z"/>
		</g>
	</g>
	<g>
		<g>
			<path d="M886.399,532.048c-0.085-0.067-0.073-0.048,0.038,0.056c0.343,0.358,0.885-0.186,0.543-0.543
				c-0.176-0.183-0.326-0.265-0.58-0.28C885.904,531.25,885.907,532.018,886.399,532.048L886.399,532.048z"/>
		</g>
	</g>
	<g>
		<g>
			<path d="M888.302,532.797c0.176,0.183,0.326,0.265,0.58,0.28c0.495,0.03,0.492-0.738,0-0.767
				c0.085,0.067,0.072,0.048-0.038-0.056C888.501,531.897,887.959,532.44,888.302,532.797L888.302,532.797z"/>
		</g>
	</g>
	<g>
		<g>
			<path d="M892.174,533.506c0.052,0.002,0.105,0.004,0.157,0.005c0.495,0.017,0.493-0.75,0-0.767
				c-0.052-0.002-0.105-0.004-0.157-0.005C891.679,532.721,891.68,533.489,892.174,533.506L892.174,533.506z"/>
		</g>
	</g>
	<g>
		<g>
			<path d="M894.532,533.587c0.495,0,0.495-0.767,0-0.767C894.038,532.819,894.038,533.587,894.532,533.587L894.532,533.587z"/>
		</g>
	</g>
	<g>
		<g>
			<path d="M887.174,532.389c0.157,0.005,0.314,0.011,0.472,0.016c0.495,0.017,0.493-0.75,0-0.767
				c-0.157-0.005-0.315-0.011-0.472-0.016C886.679,531.605,886.681,532.372,887.174,532.389L887.174,532.389z"/>
		</g>
	</g>
	<g>
		<g>
			<path d="M892.342,533.197c0.105,0.004,0.21,0.007,0.315,0.011c0.495,0.017,0.493-0.75,0-0.767
				c-0.105-0.004-0.21-0.007-0.315-0.011C891.847,532.412,891.848,533.18,892.342,533.197L892.342,533.197z"/>
		</g>
	</g>
	<g>
		<g>
			<path d="M896.139,534.261c0.502,0.171,0.951,0.179,1.462,0.043c0.478-0.127,0.275-0.867-0.204-0.74
				c-0.385,0.103-0.678,0.085-1.054-0.043C895.873,533.361,895.673,534.103,896.139,534.261L896.139,534.261z"/>
		</g>
	</g>
	<g>
		<g>
			<path d="M900.617,535.213c0.495,0,0.495-0.767,0-0.767C900.122,534.445,900.122,535.213,900.617,535.213L900.617,535.213z"/>
		</g>
	</g>
	<g>
		<g>
			<path d="M904.603,535.339c0.439,0.15,0.864,0.212,1.305,0.038c0.454-0.18,0.257-0.922-0.204-0.74
				c-0.321,0.127-0.577,0.071-0.897-0.038C904.338,534.439,904.138,535.18,904.603,535.339L904.603,535.339z"/>
		</g>
	</g>
	<g>
		<g>
			<path d="M909.146,535.56c0.176,0.183,0.326,0.265,0.58,0.28c0.495,0.03,0.492-0.738,0-0.767c0.085,0.067,0.073,0.048-0.038-0.056
				C909.346,534.66,908.804,535.203,909.146,535.56L909.146,535.56z"/>
		</g>
	</g>
	<g>
		<g>
			<path d="M896.22,544.036c0.495,0,0.495-0.767,0-0.767C895.725,543.268,895.725,544.036,896.22,544.036L896.22,544.036z"/>
		</g>
	</g>
	<g>
		<g>
			<path d="M900.905,545.141c0.495,0,0.495-0.767,0-0.767S900.41,545.141,900.905,545.141L900.905,545.141z"/>
		</g>
	</g>
	<g>
		<g>
			<path d="M907.39,545.418c0.319,0.25,0.655,0.281,1.052,0.297c0.495,0.019,0.493-0.748,0-0.767
				c-0.137-0.005-0.395,0.017-0.51-0.072C907.548,544.575,907.001,545.114,907.39,545.418L907.39,545.418z"/>
		</g>
	</g>
	<g>
		<g>
			<path d="M899.427,560.677c0.105,0.004,0.21,0.007,0.315,0.011c0.495,0.017,0.494-0.75,0-0.767
				c-0.105-0.004-0.21-0.007-0.315-0.011C898.932,559.892,898.933,560.66,899.427,560.677L899.427,560.677z"/>
		</g>
	</g>
</g>
<g>
	<g>
		<g>
			<g>
				<path d="M880.809,554.183c-2.924-0.255-6.107,0.153-8.081,2.551c-1.944,2.361-1.646,5.696-0.918,8.455
					c0.316,1.198,2.17,0.689,1.853-0.511c-0.592-2.246-0.941-4.927,0.651-6.861c1.531-1.86,4.31-1.903,6.495-1.712
					C882.045,556.213,882.034,554.29,880.809,554.183L880.809,554.183z"/>
			</g>
		</g>
		<g>
			<g>
				<path d="M871.031,565.828c28.53,3.4,58.694,4.472,86.648-3.221c1.194-0.328,0.686-2.183-0.511-1.853
					c-27.778,7.644-57.783,6.531-86.137,3.152C869.802,563.759,869.816,565.683,871.031,565.828L871.031,565.828z"/>
			</g>
		</g>
		<g>
			<g>
				<path d="M948.423,552.618c5.318,0.305,8.515,3.695,8.039,9.063c-0.11,1.235,1.813,1.224,1.922,0
					c0.573-6.457-3.665-10.623-9.961-10.985C947.184,550.625,947.191,552.547,948.423,552.618L948.423,552.618z"/>
			</g>
		</g>
		<g>
			<g>
				<path d="M877.535,556.83c22.95,4.05,47.34,4.275,69.795-2.542c1.183-0.359,0.678-2.214-0.511-1.853
					c-22.106,6.711-46.173,6.531-68.773,2.542C876.834,554.763,876.315,556.615,877.535,556.83L877.535,556.83z"/>
			</g>
		</g>
		<g>
			<g>
				<path d="M880.562,526.635c-1.807,0.877-3.644,2.027-4.262,4.049c-0.635,2.077,1.075,4.04,2.477,5.308
					c0.917,0.829,2.28-0.526,1.359-1.359c-0.941-0.851-2.241-2.02-1.983-3.438c0.267-1.464,2.207-2.332,3.379-2.901
					C882.647,527.754,881.672,526.097,880.562,526.635L880.562,526.635z"/>
			</g>
		</g>
		<g>
			<g>
				<path d="M878.2,534.811c-0.861,1.473-1.43,2.994-1.108,4.711c0.319,1.7,1.924,2.89,3.307,3.709
					c1.069,0.633,2.036-1.029,0.97-1.66c-1.05-0.621-2.075-1.333-2.424-2.56c-0.313-1.098,0.385-2.325,0.914-3.23
					C880.486,534.709,878.824,533.742,878.2,534.811L878.2,534.811z"/>
			</g>
		</g>
		<g>
			<g>
				<path d="M878.943,541.233c-1.19,1.177-2.207,2.498-2.29,4.226c-0.082,1.715,1.371,3.013,2.651,3.882
					c1.029,0.698,1.989-0.968,0.97-1.66c-0.79-0.536-1.63-1.196-1.699-2.222c-0.076-1.121,1.012-2.16,1.727-2.867
					C881.185,541.719,879.825,540.361,878.943,541.233L878.943,541.233z"/>
			</g>
		</g>
		<g>
			<g>
				<path d="M877.237,548.398c-1.522,3.112-1.137,6.366,0.524,9.341c0.604,1.082,2.264,0.113,1.66-0.97
					c-1.306-2.339-1.733-4.929-0.524-7.401C879.439,548.259,877.782,547.284,877.237,548.398L877.237,548.398z"/>
			</g>
		</g>
		<g>
			<g>
				<path d="M944.677,526.867c1.037,0.624,2,1.366,2.004,2.675c0.004,1.279-1.241,2.476-2.066,3.292
					c-0.883,0.872,0.477,2.231,1.359,1.359c1.376-1.36,2.634-2.959,2.628-4.981c-0.005-1.825-1.526-3.145-2.955-4.005
					C944.583,524.567,943.617,526.229,944.677,526.867L944.677,526.867z"/>
			</g>
		</g>
		<g>
			<g>
				<path d="M944.827,533.905c0.687,0.498,2.059,1.448,1.902,2.471c-0.162,1.055-1.743,1.639-2.57,1.996
					c-1.135,0.489-0.155,2.145,0.97,1.66c1.49-0.642,3.469-1.75,3.522-3.621c0.053-1.864-1.474-3.164-2.854-4.165
					C944.792,531.516,943.834,533.185,944.827,533.905L944.827,533.905z"/>
			</g>
		</g>
		<g>
			<g>
				<path d="M943.909,541.428c0.831,0.192,2.588,0.106,2.941,1.058c0.44,1.186-2.027,2.835-2.754,3.512
					c-0.909,0.846,0.453,2.202,1.359,1.359c1.487-1.385,3.872-3.062,3.249-5.383c-0.54-2.008-2.617-2.016-4.283-2.401
					C943.214,539.296,942.702,541.149,943.909,541.428L943.909,541.428z"/>
			</g>
		</g>
		<g>
			<g>
				<path d="M944.485,548.483c0.952,0.257,2.443,0.647,2.502,1.853c0.067,1.37-1.478,2.744-2.35,3.595
					c-0.888,0.867,0.472,2.225,1.359,1.359c1.392-1.36,3.003-3.114,2.901-5.205c-0.1-2.043-2.199-2.997-3.901-3.456
					C943.798,546.306,943.29,548.16,944.485,548.483L944.485,548.483z"/>
			</g>
		</g>
		<g>
			<g>
				<path d="M879.569,550.275c9.337,4.027,21.007,3.423,30.929,3.229c10.81-0.211,21.889-0.864,32.512-3.001
					c0.486-0.098,0.28-0.839-0.204-0.741c-10.152,2.043-20.688,2.627-31.017,2.941c-10.129,0.309-22.315,1.013-31.832-3.091
					C879.507,549.417,879.115,550.079,879.569,550.275L879.569,550.275z"/>
			</g>
		</g>
		<g>
			<g>
				<path d="M883.338,543.628c18.691,6.367,40.31,2.71,59.22-0.893c0.487-0.093,0.28-0.834-0.204-0.741
					c-18.732,3.57-40.284,7.205-58.811,0.893C883.072,542.726,882.872,543.469,883.338,543.628L883.338,543.628z"/>
			</g>
		</g>
		<g>
			<g>
				<path d="M881.647,533.607c18.442,3.468,37.323,5.569,55.739,0.823c0.48-0.124,0.276-0.865-0.204-0.741
					c-18.298,4.716-37.009,2.622-55.33-0.823C881.367,532.775,881.16,533.516,881.647,533.607L881.647,533.607z"/>
			</g>
		</g>
		<g>
			<g>
				<path d="M881.384,542.735c3.962,1.715,7.982,3.194,12.269,3.837c0.485,0.073,0.693-0.668,0.204-0.741
					c-4.22-0.633-8.184-2.07-12.086-3.759C881.322,541.876,880.93,542.538,881.384,542.735L881.384,542.735z"/>
			</g>
		</g>
		<g>
			<g>
				<path d="M880.526,533.173c6.264,2.497,12.791,3.387,19.506,3.316c0.495-0.005,0.496-0.774,0-0.769
					c-6.639,0.071-13.112-0.821-19.301-3.288C880.27,532.248,880.072,532.992,880.526,533.173L880.526,533.173z"/>
			</g>
		</g>
		<g>
			<g>
				<path d="M881.048,534.365c7.367,1.974,14.76,2.84,22.384,2.454c0.493-0.025,0.496-0.794,0-0.769
					c-7.54,0.382-14.889-0.473-22.18-2.426C880.773,533.495,880.57,534.236,881.048,534.365L881.048,534.365z"/>
			</g>
		</g>
		<g>
			<g>
				<path d="M879.26,548.506c8.016,3.986,16.833,3.724,25.501,4.944c0.485,0.068,0.694-0.673,0.204-0.741
					c-8.574-1.206-17.389-0.924-25.317-4.866C879.205,547.622,878.816,548.285,879.26,548.506L879.26,548.506z"/>
			</g>
		</g>
		<g>
			<g>
				<path d="M878.471,549.256c6.38,2.724,13.072,3.638,19.953,3.954c0.496,0.023,0.494-0.746,0-0.769
					c-6.742-0.31-13.318-1.182-19.565-3.849C878.409,548.4,878.017,549.062,878.471,549.256L878.471,549.256z"/>
			</g>
		</g>
		<g>
			<g>
				<path d="M880.816,542.712c6.306,4.052,13.451,4.149,20.672,4.958c0.492,0.055,0.487-0.714,0-0.769
					c-7.085-0.794-14.089-0.873-20.284-4.853C880.785,541.78,880.4,542.445,880.816,542.712L880.816,542.712z"/>
			</g>
		</g>
		<g>
			<g>
				<path d="M900.738,547.446c1.714,0.053,3.42-0.061,5.128-0.188c0.491-0.037,0.495-0.806,0-0.769
					c-1.708,0.127-3.414,0.241-5.128,0.188C900.242,546.662,900.243,547.431,900.738,547.446L900.738,547.446z"/>
			</g>
		</g>
		<g>
			<g>
				<path d="M880.67,534.35c1.499,0.449,2.999,0.899,4.498,1.348c0.476,0.143,0.678-0.599,0.204-0.741
					c-1.499-0.449-2.999-0.899-4.498-1.348C880.398,533.466,880.196,534.208,880.67,534.35L880.67,534.35z"/>
			</g>
		</g>
		<g>
			<g>
				<path d="M878.444,533.091c3.289,0.876,6.609,1.595,9.967,2.149c0.485,0.08,0.693-0.661,0.204-0.741
					c-3.358-0.554-6.678-1.273-9.967-2.149C878.168,532.222,877.965,532.963,878.444,533.091L878.444,533.091z"/>
			</g>
		</g>
		<g>
			<g>
				<path d="M878.989,533.698c3.151,1.09,6.305,2.162,9.557,2.914c0.482,0.112,0.687-0.63,0.204-0.741
					c-3.252-0.752-6.406-1.823-9.557-2.914C878.723,532.794,878.523,533.537,878.989,533.698L878.989,533.698z"/>
			</g>
		</g>
		<g>
			<g>
				<path d="M877.676,532.112c2.132,3.351,7.526,3.633,11.037,4.038c6.584,0.76,13.23,0.458,19.84,0.674
					c0.496,0.016,0.494-0.753,0-0.769c-4.68-0.153-9.363-0.076-14.043-0.261c-4.32-0.171-13.462,0.185-16.17-4.071
					C878.075,531.307,877.409,531.693,877.676,532.112L877.676,532.112z"/>
			</g>
		</g>
		<g>
			<g>
				<path d="M885.808,536.514c5.848,0.776,11.721,0.837,17.61,0.694c0.495-0.012,0.496-0.781,0-0.769
					c-5.889,0.143-11.762,0.082-17.61-0.694C885.317,535.68,885.324,536.449,885.808,536.514L885.808,536.514z"/>
			</g>
		</g>
		<g>
			<g>
				<path d="M884.236,543.49c0.496,0,0.496-0.769,0-0.769S883.74,543.49,884.236,543.49L884.236,543.49z"/>
			</g>
		</g>
	</g>
	<g>
		<g>
			<path d="M879.589,550.358c-0.002,0.053-0.004,0.107-0.006,0.16c-0.02,0.496,0.749,0.494,0.769,0
				c0.002-0.053,0.004-0.107,0.006-0.16C880.377,549.862,879.608,549.864,879.589,550.358L879.589,550.358z"/>
		</g>
	</g>
	<g>
		<g>
			<path d="M879.891,552.82c0.496,0,0.496-0.769,0-0.769S879.395,552.82,879.891,552.82L879.891,552.82z"/>
		</g>
	</g>
	<g>
		<g>
			<path d="M879.853,553.778c0.496,0,0.496-0.769,0-0.769S879.357,553.778,879.853,553.778L879.853,553.778z"/>
		</g>
	</g>
	<g>
		<g>
			<path d="M880.76,554.454c0.496,0,0.496-0.769,0-0.769C880.264,553.685,880.264,554.454,880.76,554.454L880.76,554.454z"/>
		</g>
	</g>
	<g>
		<g>
			<path d="M881.859,554.178c0.496,0,0.496-0.769,0-0.769S881.363,554.178,881.859,554.178L881.859,554.178z"/>
		</g>
	</g>
	<g>
		<g>
			<path d="M881.146,552.549c0.496,0,0.496-0.769,0-0.769S880.65,552.549,881.146,552.549L881.146,552.549z"/>
		</g>
	</g>
	<g>
		<g>
			<path d="M881.146,552.549c0.496,0,0.496-0.769,0-0.769S880.65,552.549,881.146,552.549L881.146,552.549z"/>
		</g>
	</g>
	<g>
		<g>
			<path d="M881.958,555.622c0.496,0,0.496-0.769,0-0.769S881.462,555.622,881.958,555.622L881.958,555.622z"/>
		</g>
	</g>
	<g>
		<g>
			<path d="M883.828,556.394c0.05,0.055,0.099,0.111,0.149,0.166c0.332,0.37,0.874-0.176,0.544-0.544
				c-0.05-0.055-0.099-0.111-0.149-0.166C884.04,555.48,883.498,556.026,883.828,556.394L883.828,556.394z"/>
		</g>
	</g>
	<g>
		<g>
			<path d="M886.894,556.616c0.496,0,0.496-0.769,0-0.769S886.398,556.616,886.894,556.616L886.894,556.616z"/>
		</g>
	</g>
	<g>
		<g>
			<path d="M888.136,556.665c0.496,0,0.496-0.769,0-0.769S887.641,556.665,888.136,556.665L888.136,556.665z"/>
		</g>
	</g>
	<g>
		<g>
			<path d="M883.244,554.552c0.496,0,0.496-0.769,0-0.769S882.748,554.552,883.244,554.552L883.244,554.552z"/>
		</g>
	</g>
	<g>
		<g>
			<path d="M885.69,555.609c0.496,0,0.496-0.769,0-0.769S885.194,555.609,885.69,555.609L885.69,555.609z"/>
		</g>
	</g>
	<g>
		<g>
			<path d="M889.999,556.739c0.207,0.008,0.414,0.016,0.621,0.024c0.496,0.02,0.494-0.749,0-0.769
				c-0.207-0.008-0.414-0.016-0.621-0.024C889.503,555.951,889.505,556.719,889.999,556.739L889.999,556.739z"/>
		</g>
	</g>
	<g>
		<g>
			<path d="M878.391,559.322c0.496,0,0.496-0.769,0-0.769S877.895,559.322,878.391,559.322L878.391,559.322z"/>
		</g>
	</g>
	<g>
		<g>
			<path d="M877.349,558.475c-0.054,0.051-0.108,0.102-0.162,0.154c-0.36,0.342,0.185,0.885,0.544,0.544
				c0.054-0.051,0.108-0.102,0.162-0.154C878.252,558.676,877.708,558.134,877.349,558.475L877.349,558.475z"/>
		</g>
	</g>
	<g>
		<g>
			<path d="M876.533,560.799c-0.002,0.053-0.004,0.107-0.006,0.16c-0.02,0.496,0.749,0.494,0.769,0
				c0.002-0.053,0.004-0.107,0.006-0.16C877.322,560.303,876.553,560.305,876.533,560.799L876.533,560.799z"/>
		</g>
	</g>
	<g>
		<g>
			<path d="M876.912,561.344c0.496,0,0.496-0.769,0-0.769S876.416,561.344,876.912,561.344L876.912,561.344z"/>
		</g>
	</g>
	<g>
		<g>
			<path d="M875.886,561.224c0.006-0.344-0.089-0.579-0.425-0.696c-0.469-0.164-0.669,0.579-0.204,0.741
				c0.03,0.01,0.059,0.021,0.089,0.031c-0.077-0.059-0.153-0.118-0.23-0.177c0.011-0.055,0.012-0.022,0.002,0.101
				C875.108,561.72,875.877,561.719,875.886,561.224L875.886,561.224z"/>
		</g>
	</g>
	<g>
		<g>
			<path d="M875.173,559.595c0.018-0.014,0.037-0.028,0.055-0.042c0.355-0.347-0.189-0.89-0.544-0.544
				c-0.184,0.18-0.264,0.328-0.28,0.585C874.372,560.091,875.141,560.087,875.173,559.595L875.173,559.595z"/>
		</g>
	</g>
	<g>
		<g>
			<path d="M876.141,558.456c0.008-0.027,0.138-0.212,0.168-0.313c0.142-0.476-0.6-0.678-0.741-0.204
				c-0.008,0.027-0.138,0.212-0.168,0.313C875.258,558.728,876,558.93,876.141,558.456L876.141,558.456z"/>
		</g>
	</g>
	<g>
		<g>
			<path d="M878.001,557.386c0.496,0,0.496-0.769,0-0.769S877.505,557.386,878.001,557.386L878.001,557.386z"/>
		</g>
	</g>
	<g>
		<g>
			<path d="M880.143,558.271c0.496,0,0.496-0.769,0-0.769S879.647,558.271,880.143,558.271L880.143,558.271z"/>
		</g>
	</g>
	<g>
		<g>
			<path d="M881.67,558.971c0.496,0,0.496-0.769,0-0.769S881.174,558.971,881.67,558.971L881.67,558.971z"/>
		</g>
	</g>
	<g>
		<g>
			<path d="M882.893,559.499c0.496,0,0.496-0.769,0-0.769S882.397,559.499,882.893,559.499L882.893,559.499z"/>
		</g>
	</g>
	<g>
		<g>
			<path d="M883.663,559.69c0.496,0,0.496-0.769,0-0.769S883.167,559.69,883.663,559.69L883.663,559.69z"/>
		</g>
	</g>
	<g>
		<g>
			<path d="M876.154,560.834c0.496,0,0.496-0.769,0-0.769S875.658,560.834,876.154,560.834L876.154,560.834z"/>
		</g>
	</g>
	<g>
		<g>
			<path d="M875.781,562.419c0.496,0,0.496-0.769,0-0.769S875.285,562.419,875.781,562.419L875.781,562.419z"/>
		</g>
	</g>
	<g>
		<g>
			<path d="M876.887,562.841c0.05,0.055,0.099,0.111,0.149,0.166c0.332,0.37,0.874-0.176,0.544-0.544
				c-0.05-0.055-0.099-0.111-0.149-0.166C877.099,561.928,876.557,562.473,876.887,562.841L876.887,562.841z"/>
		</g>
	</g>
	<g>
		<g>
			<path d="M879.314,563.519c0.496,0,0.496-0.769,0-0.769S878.818,563.519,879.314,563.519L879.314,563.519z"/>
		</g>
	</g>
	<g>
		<g>
			<path d="M882.4,564.12c0.496,0,0.496-0.769,0-0.769S881.904,564.12,882.4,564.12L882.4,564.12z"/>
		</g>
	</g>
	<g>
		<g>
			<path d="M882.394,564.28c0.496,0,0.496-0.769,0-0.769S881.898,564.28,882.394,564.28L882.394,564.28z"/>
		</g>
	</g>
	<g>
		<g>
			<path d="M878.21,559.955c0.496,0,0.496-0.769,0-0.769S877.714,559.955,878.21,559.955L878.21,559.955z"/>
		</g>
	</g>
	<g>
		<g>
			<path d="M879.687,561.933c0.496,0,0.496-0.769,0-0.769S879.191,561.933,879.687,561.933L879.687,561.933z"/>
		</g>
	</g>
	<g>
		<g>
			<path d="M883.674,563.37c0.496,0,0.496-0.769,0-0.769S883.178,563.37,883.674,563.37L883.674,563.37z"/>
		</g>
	</g>
	<g>
		<g>
			<path d="M887.051,564.464c0.496,0,0.496-0.769,0-0.769S886.556,564.464,887.051,564.464L887.051,564.464z"/>
		</g>
	</g>
	<g>
		<g>
			<path d="M890.299,564.912c0.496,0,0.496-0.769,0-0.769S889.803,564.912,890.299,564.912L890.299,564.912z"/>
		</g>
	</g>
	<g>
		<g>
			<path d="M894.342,564.911c0.496,0,0.496-0.769,0-0.769S893.846,564.911,894.342,564.911L894.342,564.911z"/>
		</g>
	</g>
	<g>
		<g>
			<path d="M894.653,564.924c0.052,0.002,0.104,0.004,0.155,0.006c0.496,0.02,0.494-0.749,0-0.769
				c-0.052-0.002-0.104-0.004-0.155-0.006C894.157,564.135,894.159,564.904,894.653,564.924L894.653,564.924z"/>
		</g>
	</g>
	<g>
		<g>
			<path d="M901.348,564.707c0.496,0,0.496-0.769,0-0.769S900.852,564.707,901.348,564.707L901.348,564.707z"/>
		</g>
	</g>
	<g>
		<g>
			<path d="M890.847,562.853c0.155,0.006,0.31,0.012,0.466,0.018c0.496,0.02,0.494-0.749,0-0.769
				c-0.155-0.006-0.311-0.012-0.466-0.018C890.351,562.065,890.353,562.834,890.847,562.853L890.847,562.853z"/>
		</g>
	</g>
	<g>
		<g>
			<path d="M897.821,563.448c0.496,0,0.496-0.769,0-0.769S897.325,563.448,897.821,563.448L897.821,563.448z"/>
		</g>
	</g>
	<g>
		<g>
			<path d="M899.529,563.516c0.496,0,0.496-0.769,0-0.769S899.033,563.516,899.529,563.516L899.529,563.516z"/>
		</g>
	</g>
	<g>
		<g>
			<path d="M879.883,545.138c0.496,0,0.496-0.769,0-0.769S879.387,545.138,879.883,545.138L879.883,545.138z"/>
		</g>
	</g>
	<g>
		<g>
			<path d="M879.84,546.571c-0.054,0.051-0.108,0.102-0.162,0.154c-0.36,0.342,0.185,0.885,0.544,0.544
				c0.054-0.051,0.108-0.102,0.162-0.154C880.743,546.773,880.199,546.23,879.84,546.571L879.84,546.571z"/>
		</g>
	</g>
	<g>
		<g>
			<path d="M882.247,548.272c0.496,0,0.496-0.769,0-0.769S881.752,548.272,882.247,548.272L882.247,548.272z"/>
		</g>
	</g>
	<g>
		<g>
			<path d="M883.839,548.233c0.05,0.055,0.099,0.111,0.149,0.166c0.332,0.37,0.874-0.176,0.544-0.544
				c-0.05-0.055-0.099-0.111-0.149-0.166C884.05,547.32,883.508,547.865,883.839,548.233L883.839,548.233z"/>
		</g>
	</g>
	<g>
		<g>
			<path d="M884.259,548.511c0.496,0,0.496-0.769,0-0.769S883.764,548.511,884.259,548.511L884.259,548.511z"/>
		</g>
	</g>
	<g>
		<g>
			<path d="M881.067,544.055c0.161,0.041,0.297,0.136,0.459,0.178c0.481,0.123,0.684-0.618,0.204-0.741
				c-0.161-0.041-0.297-0.137-0.459-0.178C880.791,543.191,880.587,543.932,881.067,544.055L881.067,544.055z"/>
		</g>
	</g>
	<g>
		<g>
			<path d="M884.081,545.144c0.496,0,0.496-0.769,0-0.769S883.585,545.144,884.081,545.144L884.081,545.144z"/>
		</g>
	</g>
	<g>
		<g>
			<path d="M886.702,545.727c0.496,0,0.496-0.769,0-0.769S886.206,545.727,886.702,545.727L886.702,545.727z"/>
		</g>
	</g>
	<g>
		<g>
			<path d="M882.497,545.882c0.496,0,0.496-0.769,0-0.769S882.001,545.882,882.497,545.882L882.497,545.882z"/>
		</g>
	</g>
	<g>
		<g>
			<path d="M882.447,547.16c0.496,0,0.496-0.769,0-0.769S881.951,547.16,882.447,547.16L882.447,547.16z"/>
		</g>
	</g>
	<g>
		<g>
			<path d="M882.39,548.598c0.496,0,0.496-0.769,0-0.769S881.894,548.598,882.39,548.598L882.39,548.598z"/>
		</g>
	</g>
	<g>
		<g>
			<path d="M884.941,550.939c0.496,0,0.496-0.769,0-0.769S884.445,550.939,884.941,550.939L884.941,550.939z"/>
		</g>
	</g>
	<g>
		<g>
			<path d="M886.43,551.593c0.313,0.151,0.617,0.226,0.964,0.243c0.496,0.024,0.493-0.745,0-0.769
				c-0.209-0.01-0.385-0.046-0.576-0.138C886.374,550.714,885.983,551.377,886.43,551.593L886.43,551.593z"/>
		</g>
	</g>
	<g>
		<g>
			<path d="M889.548,552.4c0.496,0,0.496-0.769,0-0.769S889.053,552.4,889.548,552.4L889.548,552.4z"/>
		</g>
	</g>
	<g>
		<g>
			<path d="M891.088,552.012c0.089,0.065,0.078,0.045-0.032-0.059c-0.337-0.365-0.879,0.18-0.544,0.544
				c0.173,0.187,0.322,0.268,0.576,0.285C891.584,552.814,891.58,552.045,891.088,552.012L891.088,552.012z"/>
		</g>
	</g>
	<g>
		<g>
			<path d="M884.662,550.128c0.255,0.005,0.459-0.042,0.666-0.194c0.396-0.289,0.013-0.957-0.388-0.664
				c-0.08,0.081-0.172,0.111-0.278,0.089C884.166,549.35,884.167,550.119,884.662,550.128L884.662,550.128z"/>
		</g>
	</g>
	<g>
		<g>
			<path d="M887.761,550.41c0.496,0,0.496-0.769,0-0.769S887.265,550.41,887.761,550.41L887.761,550.41z"/>
		</g>
	</g>
	<g>
		<g>
			<path d="M890.22,551.147c0.496,0,0.496-0.769,0-0.769S889.724,551.147,890.22,551.147L890.22,551.147z"/>
		</g>
	</g>
	<g>
		<g>
			<path d="M892.219,551.706c0.496,0,0.496-0.769,0-0.769C891.724,550.937,891.724,551.706,892.219,551.706L892.219,551.706z"/>
		</g>
	</g>
	<g>
		<g>
			<path d="M893.772,551.767c0.496,0,0.496-0.769,0-0.769S893.276,551.767,893.772,551.767L893.772,551.767z"/>
		</g>
	</g>
	<g>
		<g>
			<path d="M881.01,540.222c0.496,0,0.496-0.769,0-0.769S880.514,540.222,881.01,540.222L881.01,540.222z"/>
		</g>
	</g>
	<g>
		<g>
			<path d="M882.264,541.662c-0.002,0.053-0.004,0.107-0.006,0.16c-0.02,0.496,0.749,0.494,0.769,0
				c0.002-0.053,0.004-0.107,0.006-0.16C883.052,541.167,882.283,541.168,882.264,541.662L882.264,541.662z"/>
		</g>
	</g>
	<g>
		<g>
			<path d="M884.771,543.411c0.496,0,0.496-0.769,0-0.769S884.276,543.411,884.771,543.411L884.771,543.411z"/>
		</g>
	</g>
	<g>
		<g>
			<path d="M886.603,544.283c0.496,0,0.496-0.769,0-0.769S886.107,544.283,886.603,544.283L886.603,544.283z"/>
		</g>
	</g>
	<g>
		<g>
			<path d="M888.5,544.828c0.247,0.047,0.458,0.166,0.717,0.198c0.491,0.06,0.486-0.709,0-0.769
				c-0.184-0.023-0.333-0.136-0.513-0.171C888.22,543.994,888.014,544.735,888.5,544.828L888.5,544.828z"/>
		</g>
	</g>
	<g>
		<g>
			<path d="M891.223,545.425c0.496,0,0.496-0.769,0-0.769S890.727,545.425,891.223,545.425L891.223,545.425z"/>
		</g>
	</g>
	<g>
		<g>
			<path d="M893.552,545.517c0.496,0,0.496-0.769,0-0.769S893.056,545.517,893.552,545.517L893.552,545.517z"/>
		</g>
	</g>
	<g>
		<g>
			<path d="M893.552,545.517c0.496,0,0.496-0.769,0-0.769S893.056,545.517,893.552,545.517L893.552,545.517z"/>
		</g>
	</g>
	<g>
		<g>
			<path d="M890.659,543.963c0.496,0,0.496-0.769,0-0.769S890.163,543.963,890.659,543.963L890.659,543.963z"/>
		</g>
	</g>
	<g>
		<g>
			<path d="M888.2,543.226c0.496,0,0.496-0.769,0-0.769S887.704,543.226,888.2,543.226L888.2,543.226z"/>
		</g>
	</g>
	<g>
		<g>
			<path d="M886.188,542.987c0.496,0,0.496-0.769,0-0.769S885.692,542.987,886.188,542.987L886.188,542.987z"/>
		</g>
	</g>
	<g>
		<g>
			<path d="M884.816,542.292c0.496,0,0.496-0.769,0-0.769S884.32,542.292,884.816,542.292L884.816,542.292z"/>
		</g>
	</g>
	<g>
		<g>
			<path d="M881.679,540.489c0.005-0.259-0.041-0.465-0.189-0.679c-0.279-0.405-0.946-0.021-0.664,0.388
				c0.077,0.086,0.105,0.183,0.084,0.291C880.901,540.985,881.67,540.984,881.679,540.489L881.679,540.489z"/>
		</g>
	</g>
	<g>
		<g>
			<path d="M880.563,539.724c0.496,0,0.496-0.769,0-0.769S880.067,539.724,880.563,539.724L880.563,539.724z"/>
		</g>
	</g>
	<g>
		<g>
			<path d="M880.594,538.925c0.496,0,0.496-0.769,0-0.769S880.099,538.925,880.594,538.925L880.594,538.925z"/>
		</g>
	</g>
	<g>
		<g>
			<path d="M880.949,537.819c0.496,0,0.496-0.769,0-0.769S880.453,537.819,880.949,537.819L880.949,537.819z"/>
		</g>
	</g>
	<g>
		<g>
			<path d="M880.949,537.819c0.496,0,0.496-0.769,0-0.769S880.453,537.819,880.949,537.819L880.949,537.819z"/>
		</g>
	</g>
	<g>
		<g>
			<path d="M882.652,535.757c-0.002,0.053-0.004,0.107-0.006,0.16c-0.02,0.496,0.749,0.494,0.769,0
				c0.002-0.053,0.004-0.107,0.006-0.16C883.441,535.261,882.672,535.263,882.652,535.757L882.652,535.757z"/>
		</g>
	</g>
	<g>
		<g>
			<path d="M881.868,538.176c0.496,0,0.496-0.769,0-0.769S881.372,538.176,881.868,538.176L881.868,538.176z"/>
		</g>
	</g>
	<g>
		<g>
			<path d="M882.743,539.65c0.052,0.002,0.104,0.004,0.155,0.006c0.496,0.02,0.494-0.749,0-0.769
				c-0.052-0.002-0.104-0.004-0.155-0.006C882.247,538.862,882.249,539.631,882.743,539.65L882.743,539.65z"/>
		</g>
	</g>
	<g>
		<g>
			<path d="M882.854,540.775c0.496,0,0.496-0.769,0-0.769S882.358,540.775,882.854,540.775L882.854,540.775z"/>
		</g>
	</g>
	<g>
		<g>
			<path d="M883.203,527.987c0.496,0,0.496-0.769,0-0.769S882.707,527.987,883.203,527.987L883.203,527.987z"/>
		</g>
	</g>
	<g>
		<g>
			<path d="M881.916,529.056c0.496,0,0.496-0.769,0-0.769S881.421,529.056,881.916,529.056L881.916,529.056z"/>
		</g>
	</g>
	<g>
		<g>
			<path d="M881.239,530.47c0.496,0,0.496-0.769,0-0.769S880.743,530.47,881.239,530.47L881.239,530.47z"/>
		</g>
	</g>
	<g>
		<g>
			<path d="M882.579,531.963c0.496,0,0.496-0.769,0-0.769S882.084,531.963,882.579,531.963L882.579,531.963z"/>
		</g>
	</g>
	<g>
		<g>
			<path d="M883.479,532.798c0.496,0,0.496-0.769,0-0.769S882.984,532.798,883.479,532.798L883.479,532.798z"/>
		</g>
	</g>
	<g>
		<g>
			<path d="M880.988,531.233c-0.05-0.055-0.099-0.111-0.149-0.166c-0.332-0.37-0.874,0.176-0.544,0.544
				c0.05,0.055,0.099,0.111,0.149,0.166C880.776,532.146,881.318,531.601,880.988,531.233L880.988,531.233z"/>
		</g>
	</g>
	<g>
		<g>
			<path d="M881.264,529.831c0.496,0,0.496-0.769,0-0.769S880.768,529.831,881.264,529.831L881.264,529.831z"/>
		</g>
	</g>
	<g>
		<g>
			<path d="M883.339,528.472c0.496,0,0.496-0.769,0-0.769S882.843,528.472,883.339,528.472L883.339,528.472z"/>
		</g>
	</g>
	<g>
		<g>
			<path d="M883.694,527.681c-0.054,0.051-0.108,0.102-0.162,0.154c-0.36,0.342,0.185,0.885,0.544,0.544
				c0.054-0.051,0.108-0.102,0.162-0.154C884.598,527.882,884.053,527.339,883.694,527.681L883.694,527.681z"/>
		</g>
	</g>
	<g>
		<g>
			<path d="M882.623,530.844c0.496,0,0.496-0.769,0-0.769S882.128,530.844,882.623,530.844L882.623,530.844z"/>
		</g>
	</g>
	<g>
		<g>
			<path d="M883.362,531.833c-0.089-0.065-0.078-0.045,0.032,0.059c0.337,0.365,0.879-0.18,0.544-0.544
				c-0.173-0.187-0.322-0.268-0.576-0.285C882.867,531.032,882.87,531.801,883.362,531.833L883.362,531.833z"/>
		</g>
	</g>
	<g>
		<g>
			<path d="M885.232,532.606c0.172,0.187,0.322,0.268,0.576,0.285c0.495,0.033,0.492-0.736,0-0.769
				c0.089,0.065,0.078,0.045-0.032-0.059C885.439,531.697,884.897,532.242,885.232,532.606L885.232,532.606z"/>
		</g>
	</g>
	<g>
		<g>
			<path d="M889.056,533.338c0.052,0.002,0.104,0.004,0.155,0.006c0.496,0.02,0.494-0.749,0-0.769
				c-0.052-0.002-0.104-0.004-0.155-0.006C888.56,532.55,888.562,533.319,889.056,533.338L889.056,533.338z"/>
		</g>
	</g>
	<g>
		<g>
			<path d="M891.385,533.43c0.496,0,0.496-0.769,0-0.769S890.889,533.43,891.385,533.43L891.385,533.43z"/>
		</g>
	</g>
	<g>
		<g>
			<path d="M884.126,532.184c0.155,0.006,0.311,0.012,0.466,0.018c0.496,0.02,0.494-0.749,0-0.769
				c-0.155-0.006-0.31-0.012-0.466-0.018C883.63,531.395,883.632,532.164,884.126,532.184L884.126,532.184z"/>
		</g>
	</g>
	<g>
		<g>
			<path d="M889.224,533.025c0.104,0.004,0.207,0.008,0.311,0.012c0.496,0.02,0.494-0.749,0-0.769
				c-0.104-0.004-0.207-0.008-0.311-0.012C888.728,532.236,888.73,533.005,889.224,533.025L889.224,533.025z"/>
		</g>
	</g>
	<g>
		<g>
			<path d="M892.965,534.123c0.496,0.176,0.94,0.185,1.446,0.049c0.478-0.129,0.275-0.87-0.204-0.741
				c-0.382,0.103-0.667,0.083-1.038-0.049C892.701,533.215,892.502,533.958,892.965,534.123L892.965,534.123z"/>
		</g>
	</g>
	<g>
		<g>
			<path d="M897.383,535.107c0.496,0,0.496-0.769,0-0.769S896.887,535.107,897.383,535.107L897.383,535.107z"/>
		</g>
	</g>
	<g>
		<g>
			<path d="M901.318,535.252c0.433,0.154,0.855,0.219,1.291,0.043c0.454-0.183,0.256-0.927-0.204-0.741
				c-0.317,0.128-0.567,0.07-0.882-0.043C901.054,534.344,900.854,535.087,901.318,535.252L901.318,535.252z"/>
		</g>
	</g>
	<g>
		<g>
			<path d="M905.799,535.497c0.173,0.187,0.322,0.268,0.576,0.285c0.495,0.033,0.492-0.736,0-0.769
				c0.089,0.065,0.078,0.045-0.032-0.059C906.006,534.588,905.464,535.133,905.799,535.497L905.799,535.497z"/>
		</g>
	</g>
	<g>
		<g>
			<path d="M892.987,544.055c0.496,0,0.496-0.769,0-0.769S892.492,544.055,892.987,544.055L892.987,544.055z"/>
		</g>
	</g>
	<g>
		<g>
			<path d="M897.607,545.197c0.496,0,0.496-0.769,0-0.769S897.112,545.197,897.607,545.197L897.607,545.197z"/>
		</g>
	</g>
	<g>
		<g>
			<path d="M904.005,545.507c0.311,0.253,0.65,0.286,1.042,0.303c0.496,0.022,0.494-0.747,0-0.769
				c-0.143-0.006-0.378,0.02-0.498-0.078C904.168,544.654,903.62,545.195,904.005,545.507L904.005,545.507z"/>
		</g>
	</g>
	<g>
		<g>
			<path d="M896.052,560.978c0.104,0.004,0.207,0.008,0.311,0.012c0.496,0.02,0.494-0.749,0-0.769
				c-0.104-0.004-0.207-0.008-0.311-0.012C895.556,560.19,895.558,560.959,896.052,560.978L896.052,560.978z"/>
		</g>
	</g>
</g>
<g>
	<g>
		<path style="&st0;" d="M407.535,554.144c-26.234,7.172-60.389,6.918-87.506,3.676l1.754-0.603
			c-1.901-6.563,1.276-10.329,8.168-9.622l-2.245,2.073c-1.624-2.659-1.935-5.699-0.537-8.238l1.744-0.363
			c-2.954-1.848-2.868-4.006-0.174-6.494l1.278,0.483c-3.386-1.865-3.731-4.041-1.884-6.995l0.432,0.017
			c-3.766-3.177-2.799-5.734,1.605-7.721l64.923-1.307c3.386,1.865,3.282,4.456,0.139,7.358l0.017-0.432
			c3.368,2.297,3.282,4.455-0.673,6.028l-0.483,1.278c2.142,0.518,3.454,0.138,3.8,2.314c-0.501,1.71-1.83,2.522-3.177,3.766
			l-0.034,0.864c4.284,1.036,4.18,3.626,0.588,6.943l3.143-2.902C404.459,544.507,408.207,548.116,407.535,554.144"/>
		<g>
			<path d="M407.28,553.219c-28.165,7.508-58.497,7.003-87.251,3.641c0.085,0.628,0.17,1.256,0.255,1.884
				c0.585-0.201,1.169-0.402,1.754-0.603c0.505-0.174,0.801-0.648,0.67-1.18c-1.414-5.763,1.481-8.764,7.243-8.407
				c-0.226-0.546-0.452-1.092-0.678-1.638c-0.748,0.691-1.497,1.382-2.245,2.073c0.502,0.065,1.004,0.129,1.507,0.194
				c-1.116-2.162-2.717-6.495,0.634-7.192c0.656-0.137,0.989-1.165,0.423-1.603c-0.259-1.588-0.517-3.177-0.776-4.765
				c0.316,0.119,0.631,0.239,0.947,0.358c1.061,0.401,1.611-1.189,0.739-1.753c-3.336-3.607-3.982-5.337-1.936-5.19
				c0.837,0.033,1.27-1.07,0.678-1.638c-7.32-7.012,7.442-6.214,9.976-6.265c7.473-0.15,14.946-0.301,22.418-0.451
				c7.645-0.154,15.291-0.308,22.936-0.462c2.465-0.05,4.93-0.099,7.395-0.149c0.726-0.015,1.452-0.029,2.178-0.044
				c2.04-0.041,6.125-0.332,0.408,5.701c0.546,0.226,1.092,0.452,1.638,0.678c0.006-0.144,0.011-0.288,0.017-0.432
				c-0.546,0.226-1.092,0.452-1.638,0.678c2.345,1.856-0.536,4.082-1.403,6.373c-0.175,0.463,0.19,1.087,0.67,1.18
				c4.964,0.966-0.006,3.271-0.116,6.018c-0.017,0.436,0.308,0.799,0.704,0.925c2.002,2.276,2.057,4.056,0.165,5.34
				c-0.874,0.883,0.45,2.194,1.357,1.357c0.99-0.914,1.979-1.828,2.969-2.741c0.813-0.751,4.884,1.739,5.511,2.232
				c2.074,1.628,2.285,4.41,2.147,6.807c-0.071,1.237,1.848,1.23,1.919,0c0.265-4.602-1.472-8.165-5.804-10.013
				c-4.105-1.751-5.237-0.282-8.097,2.359c0.452,0.452,0.904,0.904,1.357,1.357c1.359-1.372,4.456-4.68,2.266-6.777
				c-1.147-1.098-2.844-1.01-1.826-1.903c0.909-0.798,2.464-2.193,2.464-3.571c0-0.871-0.574-1.982-1.345-2.434
				c-1.508-0.883-3.776,0.316-0.987-1.038c3.653-1.774,1.649-5.052-0.593-6.826c-0.645-0.511-1.602-0.218-1.638,0.678
				c-0.006,0.144-0.011,0.288-0.017,0.432c-0.033,0.833,1.072,1.275,1.638,0.678c1.183-1.248,3.396-3.51,2.573-5.526
				c-0.521-1.276-1.735-3.503-3.391-3.469c-1.728,0.035-3.455,0.07-5.183,0.104c-9.424,0.19-18.848,0.379-28.272,0.569
				c-9.124,0.184-18.247,0.367-27.371,0.551c-1.327,0.027-3.052-0.241-4.352,0.117c-5.323,1.464-5.453,6.044-2.028,9.324
				c0.226-0.546,0.452-1.092,0.678-1.638c-0.144-0.006-0.288-0.011-0.432-0.017c-0.325-0.013-0.675,0.189-0.828,0.475
				c-1.953,3.636-1.212,6.083,2.228,8.307c0.246-0.584,0.493-1.169,0.739-1.753c-0.426-0.161-0.852-0.322-1.278-0.483
				c-0.303-0.115-0.719,0.016-0.933,0.247c-2.651,2.86-3.092,5.32,0.174,7.851c0.141-0.534,0.282-1.069,0.423-1.603
				c-4.725,0.983-3.53,6.622-1.781,10.011c0.294,0.57,1.073,0.594,1.507,0.194c0.748-0.691,1.497-1.382,2.245-2.073
				c0.653-0.603,0.109-1.589-0.678-1.638c-2.865-0.177-6.811,0.065-8.478,2.907c-0.772,1.315-1.075,2.573-1.191,4.086
				c-0.155,2.035,1.405,2.609-0.508,3.267c-1.071,0.368-0.805,1.761,0.255,1.884c28.927,3.382,59.423,3.845,87.761-3.71
				C408.984,554.751,408.477,552.9,407.28,553.219L407.28,553.219z"/>
		</g>
	</g>
	<g>
		<g>
			<g>
				<path d="M326.638,549.263c23.236,4.022,47.891,4.296,70.666-2.396c1.184-0.348,0.68-2.2-0.51-1.85
					c-22.424,6.588-46.762,6.357-69.646,2.396C325.939,547.203,325.421,549.052,326.638,549.263L326.638,549.263z"/>
			</g>
		</g>
		<g>
			<g>
				<path d="M328.785,542.845c9.448,3.973,21.217,3.361,31.227,3.186c10.945-0.192,22.149-0.814,32.919-2.904
					c0.486-0.094,0.279-0.834-0.204-0.74c-10.291,1.997-20.95,2.553-31.407,2.846c-10.327,0.29-22.603,0.961-32.33-3.129
					C328.533,541.913,328.336,542.656,328.785,542.845L328.785,542.845z"/>
			</g>
		</g>
		<g>
			<g>
				<path d="M332.504,536.271c18.958,6.311,40.779,2.736,59.964-0.789c0.486-0.089,0.28-0.829-0.204-0.74
					c-18.999,3.491-40.769,7.043-59.555,0.789C332.237,535.375,332.037,536.116,332.504,536.271L332.504,536.271z"/>
			</g>
		</g>
		<g>
			<g>
				<path d="M330.784,526.408c18.67,3.441,37.784,5.548,56.439,0.895c0.48-0.12,0.276-0.86-0.204-0.74
					c-18.536,4.623-37.485,2.523-56.031-0.895C330.504,525.579,330.298,526.319,330.784,526.408L330.784,526.408z"/>
			</g>
		</g>
		<g>
			<path style="&st0;" d="M330.719,535.058c3.966,1.694,8.131,3.205,12.334,3.756"/>
			<g>
				<path d="M330.525,535.389c4.019,1.697,8.093,3.157,12.425,3.795c0.484,0.071,0.692-0.668,0.204-0.74
					c-4.265-0.628-8.284-2.047-12.242-3.717C330.462,534.537,330.071,535.198,330.525,535.389L330.525,535.389z"/>
			</g>
		</g>
		<g>
			<path style="&st0;" d="M329.751,525.609c6.236,2.553,13.116,3.403,19.651,3.279"/>
			<g>
				<path d="M329.649,525.979c6.354,2.47,12.963,3.353,19.753,3.293c0.495-0.004,0.495-0.772,0-0.767
					c-6.714,0.059-13.269-0.824-19.549-3.266C329.391,525.059,329.193,525.802,329.649,525.979L329.649,525.979z"/>
			</g>
		</g>
		<g>
			<path style="&st0;" d="M330.28,526.782c7.409,2.024,14.865,2.897,22.565,2.435"/>
			<g>
				<path d="M330.178,527.152c7.464,1.954,14.953,2.817,22.667,2.449c0.493-0.023,0.495-0.791,0-0.767
					c-7.63,0.364-15.075-0.487-22.463-2.421C329.903,526.287,329.7,527.027,330.178,527.152L330.178,527.152z"/>
			</g>
		</g>
		<g>
			<path style="&st0;" d="M328.572,540.734c7.901,4.156,17.143,3.563,25.733,4.866"/>
			<g>
				<path d="M328.379,541.066c8.139,3.943,17.054,3.692,25.825,4.904c0.484,0.067,0.692-0.673,0.204-0.74
					c-8.67-1.198-17.594-0.928-25.642-4.827C328.323,540.188,327.933,540.85,328.379,541.066L328.379,541.066z"/>
			</g>
		</g>
		<g>
			<path style="&st0;" d="M327.775,541.471c6.228,2.745,13.108,3.595,20.011,3.87"/>
			<g>
				<path d="M327.673,541.841c6.439,2.68,13.195,3.564,20.113,3.883c0.495,0.023,0.493-0.745,0-0.767
					c-6.857-0.316-13.538-1.204-19.909-3.856C327.42,540.91,327.223,541.653,327.673,541.841L327.673,541.841z"/>
			</g>
		</g>
		<g>
			<path style="&st0;" d="M330.144,535.035c6.359,4.286,13.477,3.994,20.74,4.859"/>
			<g>
				<path d="M329.95,535.367c6.408,4.009,13.641,4.107,20.934,4.911c0.492,0.054,0.486-0.714,0-0.767
					c-7.156-0.79-14.251-0.868-20.546-4.807C329.916,534.441,329.531,535.105,329.95,535.367L329.95,535.367z"/>
			</g>
		</g>
		<g>
			<path style="&st0;" d="M350.124,539.672c1.726,0.069,3.459-0.054,5.192-0.177"/>
			<g>
				<path d="M350.124,540.056c1.735,0.055,3.462-0.055,5.192-0.177c0.491-0.035,0.494-0.802,0-0.767
					c-1.73,0.122-3.457,0.232-5.192,0.177C349.629,539.273,349.631,540.04,350.124,540.056L350.124,540.056z"/>
			</g>
		</g>
		<g>
			<path style="&st0;" d="M329.897,526.767c1.519,0.445,3.037,0.889,4.556,1.334"/>
			<g>
				<path d="M329.795,527.137c1.519,0.445,3.037,0.889,4.556,1.334c0.476,0.139,0.678-0.601,0.204-0.74
					c-1.519-0.445-3.037-0.889-4.556-1.334C329.523,526.258,329.321,526.998,329.795,527.137L329.795,527.137z"/>
			</g>
		</g>
		<g>
			<path style="&st0;" d="M327.641,525.525c3.421,0.904,6.849,1.617,10.094,2.13"/>
			<g>
				<path d="M327.539,525.895c3.332,0.868,6.695,1.58,10.094,2.13c0.484,0.078,0.692-0.661,0.204-0.74
					c-3.399-0.551-6.762-1.263-10.094-2.13C327.264,525.03,327.061,525.77,327.539,525.895L327.539,525.895z"/>
			</g>
		</g>
		<g>
			<path style="&st0;" d="M328.194,526.123c3.222,1.089,6.443,2.177,9.68,2.882"/>
			<g>
				<path d="M328.092,526.493c3.194,1.078,6.389,2.138,9.68,2.882c0.482,0.109,0.687-0.631,0.204-0.74
					c-3.291-0.744-6.486-1.804-9.68-2.882C327.826,525.594,327.626,526.336,328.092,526.493L328.092,526.493z"/>
			</g>
		</g>
		<g>
			<path style="&st0;" d="M327.097,524.735c2.678,5.1,23.647,4.207,30.933,4.497"/>
			<g>
				<path d="M326.765,524.929c2.192,3.348,7.614,3.588,11.174,3.993c6.668,0.758,13.397,0.471,20.09,0.694
					c0.495,0.017,0.494-0.751,0-0.767c-4.739-0.158-9.481-0.089-14.22-0.278c-4.387-0.175-13.6,0.219-16.382-4.028
					C327.158,524.129,326.493,524.513,326.765,524.929L326.765,524.929z"/>
			</g>
		</g>
		<g>
			<path style="&st0;" d="M334.997,528.891c5.73,0.804,11.873,0.857,17.833,0.71"/>
			<g>
				<path d="M334.997,529.275c5.922,0.773,11.87,0.842,17.833,0.71c0.494-0.011,0.495-0.778,0-0.767
					c-5.963,0.131-11.91,0.063-17.833-0.71C334.508,528.443,334.514,529.211,334.997,529.275L334.997,529.275z"/>
			</g>
		</g>
		<g>
			<path style="&st0;" d="M333.411,535.754"/>
			<g>
				<path d="M333.411,536.138c0.495,0,0.495-0.768,0-0.768C332.917,535.37,332.917,536.138,333.411,536.138L333.411,536.138z"/>
			</g>
		</g>
	</g>
	<g>
		<g>
			<path d="M337.173,549.656c0.052,0.053,0.103,0.106,0.155,0.16c0.345,0.356,0.887-0.188,0.543-0.543
				c-0.052-0.053-0.103-0.106-0.155-0.16C337.371,548.758,336.828,549.301,337.173,549.656L337.173,549.656z"/>
		</g>
	</g>
	<g>
		<g>
			<path d="M340.276,549.811c0.495,0,0.495-0.767,0-0.767C339.781,549.043,339.781,549.811,340.276,549.811L340.276,549.811z"/>
		</g>
	</g>
	<g>
		<g>
			<path d="M341.535,549.83c0.495,0,0.495-0.767,0-0.767C341.04,549.062,341.04,549.83,341.535,549.83L341.535,549.83z"/>
		</g>
	</g>
	<g>
		<g>
			<path d="M336.529,547.867c0.495,0,0.495-0.767,0-0.767S336.034,547.867,336.529,547.867L336.529,547.867z"/>
		</g>
	</g>
	<g>
		<g>
			<path d="M339.032,548.848c0.495,0,0.495-0.767,0-0.767S338.537,548.848,339.032,548.848L339.032,548.848z"/>
		</g>
	</g>
	<g>
		<g>
			<path d="M343.423,549.858c0.21,0.003,0.42,0.006,0.629,0.009c0.495,0.007,0.494-0.76,0-0.767c-0.21-0.003-0.42-0.006-0.629-0.009
				C342.928,549.083,342.928,549.85,343.423,549.858L343.423,549.858z"/>
		</g>
	</g>
	<g>
		<g>
			<path d="M336.299,552.741c0.495,0,0.495-0.767,0-0.767S335.804,552.741,336.299,552.741L336.299,552.741z"/>
		</g>
	</g>
	<g>
		<g>
			<path d="M337.083,552.91c0.495,0,0.495-0.767,0-0.767C336.588,552.143,336.588,552.91,337.083,552.91L337.083,552.91z"/>
		</g>
	</g>
	<g>
		<g>
			<path d="M335.916,557.299c0.495,0,0.495-0.767,0-0.767S335.421,557.299,335.916,557.299L335.916,557.299z"/>
		</g>
	</g>
	<g>
		<g>
			<path d="M335.913,557.456c0.495,0,0.495-0.767,0-0.767S335.419,557.456,335.913,557.456L335.913,557.456z"/>
		</g>
	</g>
	<g>
		<g>
			<path d="M337.186,556.531c0.495,0,0.495-0.767,0-0.767S336.691,556.531,337.186,556.531L337.186,556.531z"/>
		</g>
	</g>
	<g>
		<g>
			<path d="M340.633,557.527c0.495,0,0.495-0.767,0-0.767S340.138,557.527,340.633,557.527L340.633,557.527z"/>
		</g>
	</g>
	<g>
		<g>
			<path d="M343.932,557.891c0.495,0,0.495-0.767,0-0.767S343.438,557.891,343.932,557.891L343.932,557.891z"/>
		</g>
	</g>
	<g>
		<g>
			<path d="M348.025,557.795c0.495,0,0.495-0.768,0-0.768S347.53,557.795,348.025,557.795L348.025,557.795z"/>
		</g>
	</g>
	<g>
		<g>
			<path d="M348.34,557.799c0.052,0.001,0.105,0.002,0.157,0.002c0.495,0.007,0.494-0.76,0-0.767
				c-0.052-0.001-0.105-0.002-0.157-0.002C347.845,557.024,347.845,557.792,348.34,557.799L348.34,557.799z"/>
		</g>
	</g>
	<g>
		<g>
			<path d="M355.112,557.428c0.495,0,0.495-0.767,0-0.767S354.617,557.428,355.112,557.428L355.112,557.428z"/>
		</g>
	</g>
	<g>
		<g>
			<path d="M344.435,555.853c0.157,0.002,0.315,0.005,0.472,0.007c0.495,0.007,0.494-0.76,0-0.767
				c-0.157-0.002-0.315-0.005-0.472-0.007C343.94,555.078,343.94,555.845,344.435,555.853L344.435,555.853z"/>
		</g>
	</g>
	<g>
		<g>
			<path d="M351.51,556.273c0.495,0,0.495-0.767,0-0.767C351.015,555.505,351.015,556.273,351.51,556.273L351.51,556.273z"/>
		</g>
	</g>
	<g>
		<g>
			<path d="M353.24,556.299c0.495,0,0.495-0.767,0-0.767C352.746,555.531,352.746,556.299,353.24,556.299L353.24,556.299z"/>
		</g>
	</g>
	<g>
		<g>
			<path d="M336.978,541.628c0.052,0.053,0.103,0.106,0.155,0.16c0.345,0.356,0.887-0.188,0.543-0.543
				c-0.052-0.053-0.103-0.106-0.155-0.16C337.176,540.73,336.633,541.273,336.978,541.628L336.978,541.628z"/>
		</g>
	</g>
	<g>
		<g>
			<path d="M337.404,541.9c0.495,0,0.495-0.767,0-0.767C336.91,541.133,336.91,541.9,337.404,541.9L337.404,541.9z"/>
		</g>
	</g>
	<g>
		<g>
			<path d="M337.139,538.591c0.495,0,0.495-0.767,0-0.767S336.644,538.591,337.139,538.591L337.139,538.591z"/>
		</g>
	</g>
	<g>
		<g>
			<path d="M339.807,539.103c0.495,0,0.495-0.768,0-0.768S339.312,539.103,339.807,539.103L339.807,539.103z"/>
		</g>
	</g>
	<g>
		<g>
			<path d="M338.156,544.272c0.495,0,0.495-0.767,0-0.767S337.661,544.272,338.156,544.272L338.156,544.272z"/>
		</g>
	</g>
	<g>
		<g>
			<path d="M339.683,544.874c0.321,0.141,0.627,0.213,0.978,0.221c0.495,0.011,0.494-0.756,0-0.767
				c-0.208-0.005-0.396-0.031-0.591-0.117C339.622,544.014,339.231,544.675,339.683,544.874L339.683,544.874z"/>
		</g>
	</g>
	<g>
		<g>
			<path d="M342.857,545.601c0.495,0,0.495-0.767,0-0.767S342.362,545.601,342.857,545.601L342.857,545.601z"/>
		</g>
	</g>
	<g>
		<g>
			<path d="M344.425,545.171c-0.014-0.017-0.027-0.033-0.041-0.05c-0.35-0.351-0.892,0.192-0.543,0.543
				c0.18,0.18,0.328,0.264,0.584,0.274C344.921,545.959,344.919,545.192,344.425,545.171L344.425,545.171z"/>
		</g>
	</g>
	<g>
		<g>
			<path d="M337.853,543.48c0.256-0.002,0.462-0.048,0.668-0.203c0.391-0.293,0.01-0.959-0.387-0.663
				c-0.079,0.085-0.173,0.117-0.281,0.098C337.358,542.716,337.358,543.483,337.853,543.48L337.853,543.48z"/>
		</g>
	</g>
	<g>
		<g>
			<path d="M340.997,543.685c0.495,0,0.495-0.767,0-0.767C340.502,542.917,340.502,543.685,340.997,543.685L340.997,543.685z"/>
		</g>
	</g>
	<g>
		<g>
			<path d="M343.505,544.351c0.495,0,0.495-0.767,0-0.767S343.01,544.351,343.505,544.351L343.505,544.351z"/>
		</g>
	</g>
	<g>
		<g>
			<path d="M345.543,544.854c0.495,0,0.495-0.768,0-0.768S345.048,544.854,345.543,544.854L345.543,544.854z"/>
		</g>
	</g>
	<g>
		<g>
			<path d="M347.116,544.877c0.495,0,0.495-0.767,0-0.767S346.622,544.877,347.116,544.877L347.116,544.877z"/>
		</g>
	</g>
	<g>
		<g>
			<path d="M337.794,536.87c0.495,0,0.495-0.767,0-0.767C337.299,536.103,337.299,536.87,337.794,536.87L337.794,536.87z"/>
		</g>
	</g>
	<g>
		<g>
			<path d="M339.67,537.685c0.495,0,0.495-0.767,0-0.767C339.176,536.918,339.176,537.685,339.67,537.685L339.67,537.685z"/>
		</g>
	</g>
	<g>
		<g>
			<path d="M341.607,538.174c0.251,0.041,0.468,0.155,0.729,0.18c0.493,0.047,0.488-0.721,0-0.767
				c-0.188-0.018-0.342-0.123-0.525-0.153C341.327,537.355,341.119,538.095,341.607,538.174L341.607,538.174z"/>
		</g>
	</g>
	<g>
		<g>
			<path d="M344.376,538.699c0.495,0,0.495-0.767,0-0.767S343.881,538.699,344.376,538.699L344.376,538.699z"/>
		</g>
	</g>
	<g>
		<g>
			<path d="M346.736,538.735c0.495,0,0.495-0.767,0-0.767S346.241,538.735,346.736,538.735L346.736,538.735z"/>
		</g>
	</g>
	<g>
		<g>
			<path d="M346.736,538.735c0.495,0,0.495-0.767,0-0.767S346.241,538.735,346.736,538.735L346.736,538.735z"/>
		</g>
	</g>
	<g>
		<g>
			<path d="M343.768,537.274c0.495,0,0.495-0.767,0-0.767S343.273,537.274,343.768,537.274L343.768,537.274z"/>
		</g>
	</g>
	<g>
		<g>
			<path d="M341.26,536.607c0.495,0,0.495-0.768,0-0.768C340.765,535.84,340.765,536.607,341.26,536.607L341.26,536.607z"/>
		</g>
	</g>
	<g>
		<g>
			<path d="M339.217,536.419c0.495,0,0.495-0.767,0-0.767S338.722,536.419,339.217,536.419L339.217,536.419z"/>
		</g>
	</g>
	<g>
		<g>
			<path d="M337.811,535.769c0.495,0,0.495-0.767,0-0.767S337.316,535.769,337.811,535.769L337.811,535.769z"/>
		</g>
	</g>
	<g>
		<g>
			<path d="M336.219,526.461c0.495,0,0.495-0.768,0-0.768S335.724,526.461,336.219,526.461L336.219,526.461z"/>
		</g>
	</g>
	<g>
		<g>
			<path d="M336.328,521.405c-0.053,0.052-0.106,0.103-0.16,0.155c-0.356,0.345,0.188,0.887,0.543,0.543
				c0.053-0.052,0.106-0.103,0.16-0.155C337.226,521.603,336.683,521.061,336.328,521.405L336.328,521.405z"/>
		</g>
	</g>
	<g>
		<g>
			<path d="M336.075,525.515c0.014,0.017,0.027,0.033,0.041,0.05c0.35,0.351,0.892-0.192,0.543-0.543
				c-0.18-0.18-0.328-0.264-0.584-0.274C335.58,524.727,335.582,525.494,336.075,525.515L336.075,525.515z"/>
		</g>
	</g>
	<g>
		<g>
			<path d="M337.995,526.222c0.18,0.18,0.328,0.264,0.584,0.274c0.495,0.02,0.493-0.747,0-0.767
				c-0.014-0.017-0.027-0.033-0.041-0.05C338.188,525.328,337.645,525.871,337.995,526.222L337.995,526.222z"/>
		</g>
	</g>
	<g>
		<g>
			<path d="M341.878,526.86c0.052,0.001,0.105,0.002,0.157,0.002c0.495,0.007,0.494-0.76,0-0.767
				c-0.052-0.001-0.105-0.002-0.157-0.002C341.382,526.085,341.383,526.853,341.878,526.86L341.878,526.86z"/>
		</g>
	</g>
	<g>
		<g>
			<path d="M344.238,526.895c0.495,0,0.495-0.767,0-0.767S343.743,526.895,344.238,526.895L344.238,526.895z"/>
		</g>
	</g>
	<g>
		<g>
			<path d="M336.857,525.841c0.157,0.002,0.315,0.005,0.472,0.007c0.495,0.007,0.494-0.76,0-0.767
				c-0.157-0.002-0.315-0.005-0.472-0.007C336.362,525.066,336.363,525.834,336.857,525.841L336.857,525.841z"/>
		</g>
	</g>
	<g>
		<g>
			<path d="M342.04,526.548c0.105,0.002,0.21,0.003,0.315,0.005c0.495,0.007,0.494-0.76,0-0.768
				c-0.105-0.002-0.21-0.003-0.315-0.005C341.544,525.773,341.545,526.54,342.04,526.548L342.04,526.548z"/>
		</g>
	</g>
	<g>
		<g>
			<path d="M345.857,527.537c0.504,0.161,0.954,0.165,1.463,0.019c0.475-0.136,0.273-0.877-0.204-0.74
				c-0.384,0.11-0.676,0.102-1.055-0.019C345.588,526.646,345.387,527.387,345.857,527.537L345.857,527.537z"/>
		</g>
	</g>
	<g>
		<g>
			<path d="M350.352,528.403c0.495,0,0.495-0.767,0-0.767S349.857,528.403,350.352,528.403L350.352,528.403z"/>
		</g>
	</g>
	<g>
		<g>
			<path d="M354.341,528.45c0.441,0.141,0.868,0.199,1.305,0.016c0.449-0.188,0.252-0.931-0.204-0.74
				c-0.318,0.133-0.575,0.087-0.897-0.016C354.072,527.559,353.871,528.3,354.341,528.45L354.341,528.45z"/>
		</g>
	</g>
	<g>
		<g>
			<path d="M358.889,528.579c0.18,0.18,0.328,0.264,0.584,0.274c0.495,0.02,0.493-0.747,0-0.767
				c-0.014-0.017-0.027-0.033-0.041-0.05C359.082,527.686,358.539,528.228,358.889,528.579L358.889,528.579z"/>
		</g>
	</g>
	<g>
		<g>
			<path d="M346.128,537.309c0.495,0,0.495-0.767,0-0.767S345.633,537.309,346.128,537.309L346.128,537.309z"/>
		</g>
	</g>
	<g>
		<g>
			<path d="M350.834,538.324c0.495,0,0.495-0.767,0-0.767S350.339,538.324,350.834,538.324L350.834,538.324z"/>
		</g>
	</g>
	<g>
		<g>
			<path d="M357.403,538.53c0.281,0.211,0.639,0.215,0.978,0.221c0.495,0.01,0.494-0.758,0-0.767
				c-0.209-0.004-0.416,0.015-0.591-0.117C357.394,537.569,357.012,538.236,357.403,538.53L357.403,538.53z"/>
		</g>
	</g>
	<g>
		<g>
			<path d="M349.657,553.885c0.105,0.002,0.21,0.003,0.315,0.005c0.495,0.007,0.494-0.76,0-0.767
				c-0.105-0.002-0.21-0.003-0.315-0.005C349.162,553.11,349.163,553.878,349.657,553.885L349.657,553.885z"/>
		</g>
	</g>
</g>
<g>
	<g>
		<g>
			<g>
				<path d="M330.943,547.754c-2.875-0.194-5.96,0.241-7.927,2.552c-2.028,2.382-1.673,5.82-0.881,8.609
					c0.338,1.19,2.193,0.684,1.853-0.511c-0.627-2.208-0.966-4.599,0.319-6.637c1.344-2.133,4.422-2.241,6.636-2.092
					C332.181,549.759,332.173,547.837,330.943,547.754L330.943,547.754z"/>
			</g>
		</g>
		<g>
			<g>
				<path d="M321.355,559.587c28.586,2.845,58.775,3.334,86.569-4.899c1.186-0.351,0.68-2.206-0.511-1.853
					c-27.628,8.183-57.64,7.658-86.059,4.83C320.122,557.542,320.134,559.465,321.355,559.587L321.355,559.587z"/>
			</g>
		</g>
		<g>
			<g>
				<path d="M398.476,544.876c5.315,0.202,8.605,3.501,8.232,8.886c-0.086,1.238,1.837,1.229,1.922,0
					c0.447-6.459-3.845-10.568-10.154-10.808C397.236,542.907,397.241,544.829,398.476,544.876L398.476,544.876z"/>
			</g>
		</g>
		<g>
			<g>
				<path d="M327.684,550.46c23.017,3.605,47.42,3.367,69.733-3.888c1.173-0.382,0.671-2.238-0.511-1.853
					c-21.967,7.143-46.038,7.439-68.711,3.888C326.983,548.417,326.462,550.269,327.684,550.46L327.684,550.46z"/>
			</g>
		</g>
		<g>
			<g>
				<path d="M330.158,520.207c-1.782,0.908-3.616,2.094-4.194,4.123c-0.596,2.094,1.127,4.017,2.561,5.264
					c0.931,0.809,2.296-0.544,1.359-1.359c-0.947-0.824-2.297-1.979-2.067-3.394c0.24-1.476,2.141-2.379,3.311-2.974
					C332.232,521.304,331.259,519.646,330.158,520.207L330.158,520.207z"/>
			</g>
		</g>
		<g>
			<g>
				<path d="M327.948,528.421c-0.81,1.449-1.338,2.92-1.063,4.59c0.29,1.76,1.966,2.982,3.4,3.792c1.081,0.61,2.049-1.05,0.97-1.66
					c-1.001-0.565-2.045-1.229-2.446-2.366c-0.403-1.142,0.256-2.419,0.798-3.387C330.214,528.308,328.553,527.339,327.948,528.421
					L327.948,528.421z"/>
			</g>
		</g>
		<g>
			<g>
				<path d="M328.82,534.829c-1.182,1.213-2.263,2.634-2.212,4.407c0.048,1.665,1.416,2.861,2.702,3.697
					c1.043,0.677,2.005-0.987,0.97-1.66c-0.854-0.555-1.727-1.225-1.758-2.324c-0.03-1.064,0.985-2.071,1.658-2.762
					C331.045,535.301,329.687,533.94,328.82,534.829L328.82,534.829z"/>
			</g>
		</g>
		<g>
			<g>
				<path d="M327.25,542.023c-1.461,3.14-1.034,6.382,0.687,9.329c0.625,1.069,2.286,0.102,1.66-0.97
					c-1.348-2.308-1.848-4.893-0.687-7.389C329.429,541.877,327.772,540.9,327.25,542.023L327.25,542.023z"/>
			</g>
		</g>
		<g>
			<g>
				<path d="M394.233,519.194c1.04,0.599,2.043,1.326,2.072,2.626c0.029,1.284-1.174,2.5-1.989,3.337
					c-0.865,0.888,0.493,2.248,1.359,1.359c1.346-1.383,2.589-3.006,2.544-5.026c-0.041-1.828-1.564-3.12-3.016-3.956
					C394.127,516.914,393.16,518.575,394.233,519.194L394.233,519.194z"/>
			</g>
		</g>
		<g>
			<g>
				<path d="M394.52,526.227c0.8,0.557,1.976,1.36,1.966,2.458c-0.009,0.999-1.812,1.701-2.515,2.02
					c-1.127,0.512-0.149,2.168,0.97,1.66c1.645-0.747,3.211-1.769,3.467-3.68c0.239-1.78-1.667-3.247-2.918-4.118
					C394.47,523.857,393.51,525.524,394.52,526.227L394.52,526.227z"/>
			</g>
		</g>
		<g>
			<g>
				<path d="M393.747,533.771c0.816,0.172,2.609,0.06,2.974,0.988c0.469,1.194-1.943,2.868-2.667,3.57
					c-0.892,0.863,0.469,2.221,1.359,1.359c1.449-1.403,3.827-3.142,3.162-5.44c-0.581-2.007-2.629-1.975-4.316-2.33
					C393.049,531.663,392.534,533.516,393.747,533.771L393.747,533.771z"/>
			</g>
		</g>
		<g>
			<g>
				<path d="M394.46,540.813c1.016,0.252,2.535,0.627,2.554,1.91c0.02,1.329-1.427,2.676-2.265,3.526
					c-0.871,0.883,0.488,2.243,1.359,1.359c1.363-1.383,3.056-3.261,2.795-5.369c-0.246-1.984-2.211-2.853-3.932-3.28
					C393.768,538.661,393.257,540.515,394.46,540.813L394.46,540.813z"/>
			</g>
		</g>
		<g>
			<g>
				<path d="M329.694,543.906c9.373,3.828,21.022,2.977,30.893,2.592c10.8-0.421,21.871-1.287,32.448-3.63
					c0.484-0.107,0.279-0.848-0.204-0.741c-10.113,2.24-20.63,3.03-30.954,3.545c-10.166,0.508-22.343,1.428-31.979-2.507
					C329.439,542.977,329.242,543.721,329.694,543.906L329.694,543.906z"/>
			</g>
		</g>
		<g>
			<g>
				<path d="M333.241,537.15c18.803,6,40.363,1.929,59.192-2.04c0.485-0.102,0.279-0.843-0.204-0.741
					c-18.669,3.935-40.127,7.993-58.783,2.04C332.971,536.257,332.77,537,333.241,537.15L333.241,537.15z"/>
			</g>
		</g>
		<g>
			<g>
				<path d="M331.355,527.164c18.503,3.11,37.429,4.854,55.744-0.256c0.477-0.133,0.274-0.875-0.204-0.741
					c-18.195,5.076-36.96,3.344-55.336,0.256C331.075,526.342,330.867,527.082,331.355,527.164L331.355,527.164z"/>
			</g>
		</g>
		<g>
			<g>
				<path d="M331.362,536.332c4,1.64,8.049,3.014,12.351,3.574c0.491,0.064,0.484-0.706,0-0.769
					c-4.228-0.551-8.218-1.936-12.147-3.547C331.107,535.403,330.909,536.147,331.362,536.332L331.362,536.332z"/>
			</g>
		</g>
		<g>
			<g>
				<path d="M330.226,526.752c6.321,2.369,12.845,3.135,19.566,2.938c0.495-0.015,0.496-0.783,0-0.769
					c-6.64,0.195-13.119-0.571-19.362-2.911C329.966,525.836,329.767,526.579,330.226,526.752L330.226,526.752z"/>
			</g>
		</g>
		<g>
			<g>
				<path d="M330.771,527.933c7.399,1.829,14.815,2.554,22.428,2.02c0.492-0.034,0.495-0.804,0-0.769
					c-7.535,0.529-14.889-0.18-22.223-1.993C330.494,527.073,330.29,527.814,330.771,527.933L330.771,527.933z"/>
			</g>
		</g>
		<g>
			<g>
				<path d="M329.258,542.105c8.131,3.826,16.961,3.414,25.694,4.463c0.492,0.059,0.486-0.71,0-0.769
					c-8.565-1.029-17.321-0.601-25.306-4.358C329.201,541.231,328.81,541.894,329.258,542.105L329.258,542.105z"/>
			</g>
		</g>
		<g>
			<g>
				<path d="M328.577,542.908c6.401,2.587,13.081,3.35,19.934,3.531c0.496,0.013,0.495-0.756,0-0.769
					c-6.779-0.179-13.403-0.947-19.729-3.503C328.321,541.981,328.123,542.725,328.577,542.908L328.577,542.908z"/>
			</g>
		</g>
		<g>
			<g>
				<path d="M330.701,536.282c6.389,3.932,13.519,3.89,20.764,4.56c0.494,0.046,0.489-0.724,0-0.769
					c-7.089-0.655-14.109-0.598-20.376-4.455C330.666,535.358,330.28,536.023,330.701,536.282L330.701,536.282z"/>
			</g>
		</g>
		<g>
			<g>
				<path d="M350.711,540.631c1.715,0.02,3.418-0.128,5.123-0.288c0.489-0.046,0.494-0.815,0-0.769
					c-1.706,0.16-3.409,0.307-5.123,0.288C350.215,539.857,350.216,540.626,350.711,540.631L350.711,540.631z"/>
			</g>
		</g>
		<g>
			<g>
				<path d="M330.392,527.925c1.508,0.42,3.016,0.84,4.524,1.261c0.478,0.133,0.681-0.608,0.204-0.741
					c-1.508-0.42-3.016-0.841-4.524-1.261C330.118,527.051,329.915,527.792,330.392,527.925L330.392,527.925z"/>
			</g>
		</g>
		<g>
			<g>
				<path d="M328.142,526.71c3.305,0.812,6.638,1.466,10.007,1.955c0.485,0.07,0.693-0.67,0.204-0.741
					c-3.368-0.489-6.701-1.143-10.007-1.955C327.865,525.85,327.661,526.592,328.142,526.71L328.142,526.71z"/>
			</g>
		</g>
		<g>
			<g>
				<path d="M328.699,527.306c3.172,1.029,6.346,2.039,9.612,2.728c0.484,0.102,0.689-0.639,0.204-0.741
					c-3.266-0.689-6.44-1.699-9.612-2.728C328.43,526.412,328.229,527.154,328.699,527.306L328.699,527.306z"/>
			</g>
		</g>
		<g>
			<g>
				<path d="M327.36,525.742c2.291,3.429,7.937,3.547,11.602,3.87c6.438,0.568,12.908,0.163,19.357,0.248
					c0.496,0.007,0.495-0.762,0-0.769c-4.854-0.064-9.707,0.113-14.562-0.002c-4.282-0.101-12.994,0.364-15.733-3.736
					C327.75,524.944,327.083,525.329,327.36,525.742L327.36,525.742z"/>
			</g>
		</g>
		<g>
			<g>
				<path d="M335.571,529.991c5.863,0.658,11.734,0.608,17.62,0.352c0.494-0.021,0.496-0.79,0-0.769
					c-5.886,0.256-11.757,0.306-17.62-0.352C335.079,529.167,335.084,529.936,335.571,529.991L335.571,529.991z"/>
			</g>
		</g>
		<g>
			<g>
				<path d="M334.136,536.997c0.496,0,0.496-0.769,0-0.769S333.64,536.997,334.136,536.997L334.136,536.997z"/>
			</g>
		</g>
	</g>
	<g>
		<g>
			<path d="M329.63,543.946c-0.001,0.053-0.002,0.107-0.003,0.16c-0.01,0.496,0.759,0.495,0.769,0
				c0.001-0.053,0.002-0.107,0.003-0.16C330.408,543.45,329.64,543.451,329.63,543.946L329.63,543.946z"/>
		</g>
	</g>
	<g>
		<g>
			<path d="M329.973,546.409c0.496,0,0.496-0.769,0-0.769S329.477,546.409,329.973,546.409L329.973,546.409z"/>
		</g>
	</g>
	<g>
		<g>
			<path d="M329.953,547.368c0.496,0,0.496-0.769,0-0.769S329.458,547.368,329.953,547.368L329.953,547.368z"/>
		</g>
	</g>
	<g>
		<g>
			<path d="M330.873,548.026c0.496,0,0.496-0.769,0-0.769S330.377,548.026,330.873,548.026L330.873,548.026z"/>
		</g>
	</g>
	<g>
		<g>
			<path d="M331.966,547.728c0.496,0,0.496-0.769,0-0.769S331.471,547.728,331.966,547.728L331.966,547.728z"/>
		</g>
	</g>
	<g>
		<g>
			<path d="M331.222,546.114c0.496,0,0.496-0.769,0-0.769S330.726,546.114,331.222,546.114L331.222,546.114z"/>
		</g>
	</g>
	<g>
		<g>
			<path d="M331.222,546.114c0.496,0,0.496-0.769,0-0.769S330.726,546.114,331.222,546.114L331.222,546.114z"/>
		</g>
	</g>
	<g>
		<g>
			<path d="M332.093,549.17c0.496,0,0.496-0.769,0-0.769S331.597,549.17,332.093,549.17L332.093,549.17z"/>
		</g>
	</g>
	<g>
		<g>
			<path d="M333.98,549.901c0.051,0.054,0.101,0.109,0.152,0.163c0.339,0.363,0.882-0.182,0.544-0.544
				c-0.051-0.054-0.101-0.109-0.152-0.163C334.185,548.994,333.642,549.539,333.98,549.901L333.98,549.901z"/>
		</g>
	</g>
	<g>
		<g>
			<path d="M337.048,550.069c0.496,0,0.496-0.769,0-0.769S336.552,550.069,337.048,550.069L337.048,550.069z"/>
		</g>
	</g>
	<g>
		<g>
			<path d="M338.291,550.094c0.496,0,0.496-0.769,0-0.769S337.795,550.094,338.291,550.094L338.291,550.094z"/>
		</g>
	</g>
	<g>
		<g>
			<path d="M333.358,548.076c0.496,0,0.496-0.769,0-0.769S332.862,548.076,333.358,548.076L333.358,548.076z"/>
		</g>
	</g>
	<g>
		<g>
			<path d="M335.825,549.085c0.496,0,0.496-0.769,0-0.769S335.329,549.085,335.825,549.085L335.825,549.085z"/>
		</g>
	</g>
	<g>
		<g>
			<path d="M340.155,550.131c0.207,0.004,0.414,0.008,0.621,0.012c0.496,0.01,0.495-0.759,0-0.769
				c-0.207-0.004-0.414-0.008-0.621-0.012C339.659,549.352,339.66,550.121,340.155,550.131L340.155,550.131z"/>
		</g>
	</g>
	<g>
		<g>
			<path d="M328.599,552.939c0.496,0,0.496-0.769,0-0.769S328.103,552.939,328.599,552.939L328.599,552.939z"/>
		</g>
	</g>
	<g>
		<g>
			<path d="M327.553,552.107c-0.053,0.052-0.106,0.105-0.159,0.157c-0.353,0.349,0.191,0.892,0.544,0.544
				c0.053-0.052,0.106-0.105,0.159-0.157C328.45,552.302,327.906,551.759,327.553,552.107L327.553,552.107z"/>
		</g>
	</g>
	<g>
		<g>
			<path d="M326.778,554.445c-0.001,0.053-0.002,0.107-0.003,0.16c-0.01,0.496,0.759,0.495,0.769,0
				c0.001-0.053,0.002-0.107,0.003-0.16C327.557,553.949,326.788,553.95,326.778,554.445L326.778,554.445z"/>
		</g>
	</g>
	<g>
		<g>
			<path d="M327.159,554.989c0.496,0,0.496-0.769,0-0.769S326.663,554.989,327.159,554.989L327.159,554.989z"/>
		</g>
	</g>
	<g>
		<g>
			<path d="M326.139,554.897c0-0.34-0.093-0.582-0.431-0.693c-0.472-0.155-0.673,0.588-0.204,0.741c0.03,0.01,0.06,0.02,0.089,0.029
				c-0.077-0.059-0.153-0.118-0.23-0.177c0.002,0.033,0.005,0.066,0.007,0.1C325.371,555.392,326.139,555.392,326.139,554.897
				L326.139,554.897z"/>
		</g>
	</g>
	<g>
		<g>
			<path d="M325.394,553.282c0.016-0.015,0.033-0.03,0.049-0.045c0.348-0.353-0.195-0.897-0.544-0.544
				c-0.18,0.182-0.263,0.331-0.274,0.588C324.603,553.778,325.372,553.776,325.394,553.282L325.394,553.282z"/>
		</g>
	</g>
	<g>
		<g>
			<path d="M326.338,552.124c0.007-0.026,0.133-0.214,0.162-0.317c0.133-0.479-0.609-0.682-0.741-0.204
				c-0.007,0.026-0.133,0.214-0.162,0.317C325.464,552.399,326.206,552.602,326.338,552.124L326.338,552.124z"/>
		</g>
	</g>
	<g>
		<g>
			<path d="M328.171,551.011c0.496,0,0.496-0.769,0-0.769S327.675,551.011,328.171,551.011L328.171,551.011z"/>
		</g>
	</g>
	<g>
		<g>
			<path d="M330.33,551.854c0.496,0,0.496-0.769,0-0.769C329.834,551.085,329.834,551.854,330.33,551.854L330.33,551.854z"/>
		</g>
	</g>
	<g>
		<g>
			<path d="M331.871,552.524c0.496,0,0.496-0.769,0-0.769S331.375,552.524,331.871,552.524L331.871,552.524z"/>
		</g>
	</g>
	<g>
		<g>
			<path d="M333.104,553.029c0.496,0,0.496-0.769,0-0.769S332.608,553.029,333.104,553.029L333.104,553.029z"/>
		</g>
	</g>
	<g>
		<g>
			<path d="M333.877,553.204c0.496,0,0.496-0.769,0-0.769S333.382,553.204,333.877,553.204L333.877,553.204z"/>
		</g>
	</g>
	<g>
		<g>
			<path d="M326.392,554.494c0.496,0,0.496-0.769,0-0.769S325.896,554.494,326.392,554.494L326.392,554.494z"/>
		</g>
	</g>
	<g>
		<g>
			<path d="M326.049,556.087c0.496,0,0.496-0.769,0-0.769C325.554,555.318,325.554,556.087,326.049,556.087L326.049,556.087z"/>
		</g>
	</g>
	<g>
		<g>
			<path d="M327.166,556.482c0.051,0.054,0.101,0.109,0.152,0.163c0.339,0.363,0.882-0.182,0.544-0.544
				c-0.051-0.054-0.101-0.109-0.152-0.163C327.371,555.575,326.828,556.12,327.166,556.482L327.166,556.482z"/>
		</g>
	</g>
	<g>
		<g>
			<path d="M329.603,557.117c0.496,0,0.496-0.769,0-0.769S329.107,557.117,329.603,557.117L329.603,557.117z"/>
		</g>
	</g>
	<g>
		<g>
			<path d="M332.701,557.659c0.496,0,0.496-0.769,0-0.769S332.205,557.659,332.701,557.659L332.701,557.659z"/>
		</g>
	</g>
	<g>
		<g>
			<path d="M332.697,557.819c0.496,0,0.496-0.769,0-0.769C332.202,557.05,332.202,557.819,332.697,557.819L332.697,557.819z"/>
		</g>
	</g>
	<g>
		<g>
			<path d="M328.431,553.575c0.496,0,0.496-0.769,0-0.769S327.935,553.575,328.431,553.575L328.431,553.575z"/>
		</g>
	</g>
	<g>
		<g>
			<path d="M329.946,555.525c0.496,0,0.496-0.769,0-0.769S329.45,555.525,329.946,555.525L329.946,555.525z"/>
		</g>
	</g>
	<g>
		<g>
			<path d="M333.959,556.884c0.496,0,0.496-0.769,0-0.769C333.464,556.116,333.464,556.884,333.959,556.884L333.959,556.884z"/>
		</g>
	</g>
	<g>
		<g>
			<path d="M337.358,557.912c0.496,0,0.496-0.769,0-0.769S336.862,557.912,337.358,557.912L337.358,557.912z"/>
		</g>
	</g>
	<g>
		<g>
			<path d="M340.614,558.297c0.496,0,0.496-0.769,0-0.769S340.118,558.297,340.614,558.297L340.614,558.297z"/>
		</g>
	</g>
	<g>
		<g>
			<path d="M344.656,558.218c0.496,0,0.496-0.769,0-0.769C344.16,557.449,344.16,558.218,344.656,558.218L344.656,558.218z"/>
		</g>
	</g>
	<g>
		<g>
			<path d="M344.967,558.224c0.052,0.001,0.104,0.002,0.155,0.003c0.496,0.01,0.495-0.759,0-0.769
				c-0.052-0.001-0.104-0.002-0.155-0.003C344.47,557.445,344.471,558.214,344.967,558.224L344.967,558.224z"/>
		</g>
	</g>
	<g>
		<g>
			<path d="M351.656,557.878c0.496,0,0.496-0.769,0-0.769S351.16,557.878,351.656,557.878L351.656,557.878z"/>
		</g>
	</g>
	<g>
		<g>
			<path d="M341.121,556.228c0.155,0.003,0.311,0.006,0.466,0.009c0.496,0.01,0.495-0.759,0-0.769
				c-0.155-0.003-0.311-0.006-0.466-0.009C340.625,555.449,340.626,556.218,341.121,556.228L341.121,556.228z"/>
		</g>
	</g>
	<g>
		<g>
			<path d="M348.105,556.687c0.496,0,0.496-0.769,0-0.769C347.61,555.918,347.61,556.687,348.105,556.687L348.105,556.687z"/>
		</g>
	</g>
	<g>
		<g>
			<path d="M349.814,556.721c0.496,0,0.496-0.769,0-0.769S349.318,556.721,349.814,556.721L349.814,556.721z"/>
		</g>
	</g>
	<g>
		<g>
			<path d="M329.815,538.729c0.496,0,0.496-0.769,0-0.769S329.319,538.729,329.815,538.729L329.815,538.729z"/>
		</g>
	</g>
	<g>
		<g>
			<path d="M329.813,540.158c-0.053,0.052-0.106,0.104-0.159,0.157c-0.353,0.349,0.191,0.892,0.544,0.544
				c0.053-0.052,0.106-0.104,0.159-0.157C330.709,540.352,330.165,539.809,329.813,540.158L329.813,540.158z"/>
		</g>
	</g>
	<g>
		<g>
			<path d="M332.24,541.816c0.496,0,0.496-0.769,0-0.769S331.744,541.816,332.24,541.816L332.24,541.816z"/>
		</g>
	</g>
	<g>
		<g>
			<path d="M333.832,541.741c0.051,0.054,0.101,0.109,0.152,0.163c0.339,0.363,0.882-0.182,0.544-0.544
				c-0.051-0.054-0.101-0.109-0.152-0.163C334.037,540.834,333.495,541.379,333.832,541.741L333.832,541.741z"/>
		</g>
	</g>
	<g>
		<g>
			<path d="M334.256,542.017c0.496,0,0.496-0.769,0-0.769S333.761,542.017,334.256,542.017L334.256,542.017z"/>
		</g>
	</g>
	<g>
		<g>
			<path d="M330.978,537.621c0.163,0.038,0.299,0.131,0.463,0.169c0.482,0.114,0.687-0.628,0.204-0.741
				c-0.163-0.038-0.299-0.131-0.463-0.169C330.7,536.766,330.496,537.508,330.978,537.621L330.978,537.621z"/>
		</g>
	</g>
	<g>
		<g>
			<path d="M334.013,538.653c0.496,0,0.496-0.769,0-0.769S333.517,538.653,334.013,538.653L334.013,538.653z"/>
		</g>
	</g>
	<g>
		<g>
			<path d="M336.644,539.186c0.496,0,0.496-0.769,0-0.769S336.148,539.186,336.644,539.186L336.644,539.186z"/>
		</g>
	</g>
	<g>
		<g>
			<path d="M332.443,539.422c0.496,0,0.496-0.769,0-0.769S331.947,539.422,332.443,539.422L332.443,539.422z"/>
		</g>
	</g>
	<g>
		<g>
			<path d="M332.418,540.701c0.496,0,0.496-0.769,0-0.769S331.922,540.701,332.418,540.701L332.418,540.701z"/>
		</g>
	</g>
	<g>
		<g>
			<path d="M332.389,542.139c0.496,0,0.496-0.769,0-0.769S331.893,542.139,332.389,542.139L332.389,542.139z"/>
		</g>
	</g>
	<g>
		<g>
			<path d="M334.985,544.43c0.496,0,0.496-0.769,0-0.769C334.489,543.661,334.489,544.43,334.985,544.43L334.985,544.43z"/>
		</g>
	</g>
	<g>
		<g>
			<path d="M336.487,545.051c0.316,0.145,0.62,0.218,0.968,0.228c0.496,0.014,0.495-0.755,0-0.769
				c-0.207-0.006-0.388-0.035-0.579-0.123C336.428,544.182,336.037,544.845,336.487,545.051L336.487,545.051z"/>
		</g>
	</g>
	<g>
		<g>
			<path d="M339.62,545.802c0.496,0,0.496-0.769,0-0.769S339.124,545.802,339.62,545.802L339.62,545.802z"/>
		</g>
	</g>
	<g>
		<g>
			<path d="M341.167,545.384c0.087,0.07,0.075,0.052-0.036-0.053c-0.344-0.358-0.887,0.186-0.544,0.544
				c0.175,0.182,0.325,0.267,0.579,0.279C341.663,546.176,341.661,545.407,341.167,545.384L341.167,545.384z"/>
		</g>
	</g>
	<g>
		<g>
			<path d="M334.69,543.625c0.254,0,0.459-0.048,0.663-0.203c0.389-0.296,0.007-0.964-0.388-0.664
				c-0.077,0.086-0.168,0.118-0.275,0.098C334.195,542.857,334.195,543.625,334.69,543.625L334.69,543.625z"/>
		</g>
	</g>
	<g>
		<g>
			<path d="M337.794,543.847c0.496,0,0.496-0.769,0-0.769S337.298,543.847,337.794,543.847L337.794,543.847z"/>
		</g>
	</g>
	<g>
		<g>
			<path d="M340.267,544.536c0.496,0,0.496-0.769,0-0.769S339.771,544.536,340.267,544.536L340.267,544.536z"/>
		</g>
	</g>
	<g>
		<g>
			<path d="M342.277,545.056c0.496,0,0.496-0.769,0-0.769C341.781,544.287,341.781,545.056,342.277,545.056L342.277,545.056z"/>
		</g>
	</g>
	<g>
		<g>
			<path d="M343.83,545.087c0.496,0,0.496-0.769,0-0.769S343.335,545.087,343.83,545.087L343.83,545.087z"/>
		</g>
	</g>
	<g>
		<g>
			<path d="M330.846,533.792c0.496,0,0.496-0.769,0-0.769S330.35,533.792,330.846,533.792L330.846,533.792z"/>
		</g>
	</g>
	<g>
		<g>
			<path d="M332.136,535.2c-0.001,0.053-0.002,0.107-0.003,0.16c-0.01,0.496,0.759,0.495,0.769,0
				c0.001-0.053,0.002-0.107,0.003-0.16C332.914,534.704,332.145,534.705,332.136,535.2L332.136,535.2z"/>
		</g>
	</g>
	<g>
		<g>
			<path d="M334.669,536.907c0.496,0,0.496-0.769,0-0.769S334.173,536.907,334.669,536.907L334.669,536.907z"/>
		</g>
	</g>
	<g>
		<g>
			<path d="M336.517,537.744c0.496,0,0.496-0.769,0-0.769S336.022,537.744,336.517,537.744L336.517,537.744z"/>
		</g>
	</g>
	<g>
		<g>
			<path d="M338.425,538.25c0.249,0.043,0.461,0.159,0.72,0.186c0.493,0.051,0.488-0.719,0-0.769
				c-0.185-0.019-0.335-0.128-0.516-0.159C338.145,537.425,337.937,538.166,338.425,538.25L338.425,538.25z"/>
		</g>
	</g>
	<g>
		<g>
			<path d="M341.159,538.796c0.496,0,0.496-0.769,0-0.769S340.663,538.796,341.159,538.796L341.159,538.796z"/>
		</g>
	</g>
	<g>
		<g>
			<path d="M343.489,538.843c0.496,0,0.496-0.769,0-0.769S342.993,538.843,343.489,538.843L343.489,538.843z"/>
		</g>
	</g>
	<g>
		<g>
			<path d="M343.489,538.843c0.496,0,0.496-0.769,0-0.769S342.993,538.843,343.489,538.843L343.489,538.843z"/>
		</g>
	</g>
	<g>
		<g>
			<path d="M340.566,537.345c0.496,0,0.496-0.769,0-0.769S340.07,537.345,340.566,537.345L340.566,537.345z"/>
		</g>
	</g>
	<g>
		<g>
			<path d="M338.093,536.656c0.496,0,0.496-0.769,0-0.769S337.597,536.656,338.093,536.656L338.093,536.656z"/>
		</g>
	</g>
	<g>
		<g>
			<path d="M336.077,536.455c0.496,0,0.496-0.769,0-0.769C335.581,535.687,335.581,536.455,336.077,536.455L336.077,536.455z"/>
		</g>
	</g>
	<g>
		<g>
			<path d="M334.692,535.788c0.496,0,0.496-0.769,0-0.769S334.196,535.788,334.692,535.788L334.692,535.788z"/>
		</g>
	</g>
	<g>
		<g>
			<path d="M331.529,534.053c0-0.258-0.046-0.465-0.198-0.677c-0.286-0.399-0.954-0.016-0.664,0.388
				c0.081,0.083,0.113,0.179,0.093,0.289C330.76,534.549,331.529,534.549,331.529,534.053L331.529,534.053z"/>
		</g>
	</g>
	<g>
		<g>
			<path d="M330.39,533.303c0.496,0,0.496-0.769,0-0.769S329.894,533.303,330.39,533.303L330.39,533.303z"/>
		</g>
	</g>
	<g>
		<g>
			<path d="M330.406,532.504c0.496,0,0.496-0.769,0-0.769S329.91,532.504,330.406,532.504L330.406,532.504z"/>
		</g>
	</g>
	<g>
		<g>
			<path d="M330.739,531.391c0.496,0,0.496-0.769,0-0.769S330.243,531.391,330.739,531.391L330.739,531.391z"/>
		</g>
	</g>
	<g>
		<g>
			<path d="M330.739,531.391c0.496,0,0.496-0.769,0-0.769S330.243,531.391,330.739,531.391L330.739,531.391z"/>
		</g>
	</g>
	<g>
		<g>
			<path d="M332.409,529.288c-0.001,0.053-0.002,0.107-0.003,0.16c-0.01,0.496,0.759,0.495,0.769,0
				c0.001-0.053,0.002-0.107,0.003-0.16C333.188,528.792,332.419,528.793,332.409,529.288L332.409,529.288z"/>
		</g>
	</g>
	<g>
		<g>
			<path d="M331.664,531.729c0.496,0,0.496-0.769,0-0.769S331.169,531.729,331.664,531.729L331.664,531.729z"/>
		</g>
	</g>
	<g>
		<g>
			<path d="M332.568,533.187c0.052,0.001,0.104,0.002,0.155,0.003c0.496,0.01,0.495-0.759,0-0.769
				c-0.052-0.001-0.104-0.002-0.155-0.003C332.072,532.408,332.073,533.177,332.568,533.187L332.568,533.187z"/>
		</g>
	</g>
	<g>
		<g>
			<path d="M332.701,534.309c0.496,0,0.496-0.769,0-0.769C332.205,533.54,332.205,534.309,332.701,534.309L332.701,534.309z"/>
		</g>
	</g>
	<g>
		<g>
			<path d="M332.801,521.516c0.496,0,0.496-0.769,0-0.769C332.305,520.748,332.305,521.516,332.801,521.516L332.801,521.516z"/>
		</g>
	</g>
	<g>
		<g>
			<path d="M331.536,522.611c0.496,0,0.496-0.769,0-0.769S331.04,522.611,331.536,522.611L331.536,522.611z"/>
		</g>
	</g>
	<g>
		<g>
			<path d="M330.886,524.037c0.496,0,0.496-0.769,0-0.769C330.39,523.268,330.39,524.037,330.886,524.037L330.886,524.037z"/>
		</g>
	</g>
	<g>
		<g>
			<path d="M332.255,525.504c0.496,0,0.496-0.769,0-0.769S331.759,525.504,332.255,525.504L332.255,525.504z"/>
		</g>
	</g>
	<g>
		<g>
			<path d="M333.171,526.322c0.496,0,0.496-0.769,0-0.769S332.675,526.322,333.171,526.322L333.171,526.322z"/>
		</g>
	</g>
	<g>
		<g>
			<path d="M330.663,524.81c-0.051-0.054-0.101-0.109-0.152-0.163c-0.339-0.363-0.882,0.182-0.544,0.544
				c0.051,0.054,0.101,0.109,0.152,0.163C330.458,525.717,331.001,525.172,330.663,524.81L330.663,524.81z"/>
		</g>
	</g>
	<g>
		<g>
			<path d="M330.898,523.398c0.496,0,0.496-0.769,0-0.769S330.403,523.398,330.898,523.398L330.898,523.398z"/>
		</g>
	</g>
	<g>
		<g>
			<path d="M332.947,521.999c0.496,0,0.496-0.769,0-0.769S332.451,521.999,332.947,521.999L332.947,521.999z"/>
		</g>
	</g>
	<g>
		<g>
			<path d="M333.299,521.195c-0.053,0.052-0.106,0.104-0.159,0.157c-0.353,0.349,0.191,0.892,0.544,0.544
				c0.053-0.052,0.106-0.104,0.159-0.157C334.196,521.39,333.652,520.847,333.299,521.195L333.299,521.195z"/>
		</g>
	</g>
	<g>
		<g>
			<path d="M332.277,524.385c0.496,0,0.496-0.769,0-0.769S331.782,524.385,332.277,524.385L332.277,524.385z"/>
		</g>
	</g>
	<g>
		<g>
			<path d="M333.035,525.359c-0.087-0.07-0.075-0.052,0.036,0.053c0.344,0.358,0.887-0.186,0.544-0.544
				c-0.175-0.182-0.325-0.267-0.579-0.279C332.539,524.567,332.541,525.336,333.035,525.359L333.035,525.359z"/>
		</g>
	</g>
	<g>
		<g>
			<path d="M334.922,526.09c0.175,0.182,0.325,0.267,0.579,0.279c0.496,0.023,0.494-0.746,0-0.769
				c0.087,0.07,0.075,0.052-0.036-0.054C335.122,525.188,334.579,525.732,334.922,526.09L334.922,526.09z"/>
		</g>
	</g>
	<g>
		<g>
			<path d="M338.757,526.753c0.052,0.001,0.104,0.002,0.155,0.003c0.496,0.01,0.495-0.759,0-0.769
				c-0.052-0.001-0.104-0.002-0.155-0.003C338.261,525.974,338.262,526.743,338.757,526.753L338.757,526.753z"/>
		</g>
	</g>
	<g>
		<g>
			<path d="M341.087,526.8c0.496,0,0.496-0.769,0-0.769S340.592,526.8,341.087,526.8L341.087,526.8z"/>
		</g>
	</g>
	<g>
		<g>
			<path d="M333.805,525.695c0.155,0.003,0.311,0.006,0.466,0.009c0.496,0.01,0.495-0.759,0-0.769
				c-0.155-0.003-0.311-0.006-0.466-0.009C333.309,524.916,333.31,525.685,333.805,525.695L333.805,525.695z"/>
		</g>
	</g>
	<g>
		<g>
			<path d="M338.919,526.437c0.104,0.002,0.207,0.004,0.311,0.006c0.496,0.01,0.495-0.759,0-0.769
				c-0.104-0.002-0.207-0.004-0.311-0.006C338.423,525.658,338.424,526.427,338.919,526.437L338.919,526.437z"/>
		</g>
	</g>
	<g>
		<g>
			<path d="M342.681,527.46c0.498,0.166,0.943,0.171,1.447,0.025c0.475-0.138,0.273-0.88-0.204-0.741
				c-0.38,0.11-0.664,0.1-1.038-0.025C342.414,526.561,342.214,527.303,342.681,527.46L342.681,527.46z"/>
		</g>
	</g>
	<g>
		<g>
			<path d="M347.117,528.36c0.496,0,0.496-0.769,0-0.769S346.621,528.36,347.117,528.36L347.117,528.36z"/>
		</g>
	</g>
	<g>
		<g>
			<path d="M351.054,528.427c0.489,0.164,0.906,0.186,1.384-0.017c0.455-0.193,0.063-0.856-0.388-0.664
				c-0.267,0.114-0.531,0.027-0.791-0.06C350.787,527.527,350.586,528.27,351.054,528.427L351.054,528.427z"/>
		</g>
	</g>
	<g>
		<g>
			<path d="M355.542,528.581c0.175,0.182,0.325,0.267,0.579,0.279c0.496,0.023,0.494-0.746,0-0.769
				c0.087,0.07,0.075,0.052-0.036-0.053C355.742,527.679,355.199,528.223,355.542,528.581L355.542,528.581z"/>
		</g>
	</g>
	<g>
		<g>
			<path d="M342.896,537.391c0.496,0,0.496-0.769,0-0.769S342.4,537.391,342.896,537.391L342.896,537.391z"/>
		</g>
	</g>
	<g>
		<g>
			<path d="M347.537,538.444c0.496,0,0.496-0.769,0-0.769S347.042,538.444,347.537,538.444L347.537,538.444z"/>
		</g>
	</g>
	<g>
		<g>
			<path d="M353.942,538.624c0.318,0.248,0.649,0.278,1.045,0.288c0.496,0.012,0.495-0.757,0-0.769
				c-0.132-0.003-0.392,0.023-0.502-0.063C354.1,537.779,353.552,538.32,353.942,538.624L353.942,538.624z"/>
		</g>
	</g>
	<g>
		<g>
			<path d="M346.289,554.252c0.104,0.002,0.207,0.004,0.311,0.006c0.496,0.01,0.495-0.759,0-0.769
				c-0.104-0.002-0.207-0.004-0.311-0.006C345.793,553.473,345.794,554.242,346.289,554.252L346.289,554.252z"/>
		</g>
	</g>
</g>
<g>
	<path style="&st0;" d="M1256.055,9.715c-3.824,181.204-20.031,330.34,1,507.956c0,0-6.02-1.473-17.024-0.036
		c-122.536,16.007-833.476-1.605-1211.232,0.036c21.031-177.616,2.824-326.751-1-507.956l1-0.386
		c405.669,33.263,812.459,9.157,1218.129-0.083L1256.055,9.715z"/>
	<g>
		<path d="M1254.602,9.715c-3.241,151.281-16.428,302.621-4.373,453.841c1.441,18.071,3.257,36.111,5.373,54.115
			c0.613-0.467,1.226-0.934,1.839-1.401c-10.985-2.508-23.819,0.791-35.043,1.688c-11.459,0.916-22.944,1.508-34.428,2.009
			c-32.496,1.418-65.031,1.977-97.553,2.38c-93.425,1.158-186.873,0.593-280.299-0.094c-112.509-0.827-225.015-2.135-337.521-3.333
			c-109.031-1.162-218.064-2.295-327.1-2.691c-38.9-0.141-77.8-0.178-116.699-0.011c0.484,0.484,0.969,0.969,1.453,1.453
			c17.717-150.78,5.985-301.74,0.583-452.845c-0.34-9.506-0.643-19.014-0.919-28.523c-0.14-4.815-0.265-9.631-0.386-14.447
			c-0.061-2.424-0.116-4.849-0.172-7.273c0.319-1.355,0.095-2.575-0.673-3.66c1.669-0.011,3.333,0.074,4.992,0.256
			c20.316,1.649,40.645,3.138,60.982,4.51c40.638,2.741,81.314,4.918,122.007,6.659c81.332,3.48,162.738,5.056,244.141,5.4
			c162.844,0.688,325.654-3.777,488.408-8.661c54.512-1.636,109.022-3.322,163.536-4.887c26.837-0.771,53.676-1.508,80.515-2.198
			c20.882-0.537,41.921-1.906,62.789-0.834c1.874,0.096,1.865-2.81,0-2.906c-13.613-0.699-27.211-0.051-40.835,0.282
			c-20.33,0.498-40.66,1.032-60.989,1.586c-40.675,1.109-81.347,2.316-122.019,3.542c-81.382,2.452-162.761,4.985-244.154,7.032
			c-162.759,4.092-325.627,6.151-488.4,1.648c-46.395-1.283-92.775-3.136-139.122-5.602c-22.782-1.212-45.554-2.597-68.317-4.132
			c-11.387-0.768-22.771-1.588-34.151-2.441c-5.692-0.427-11.383-0.87-17.074-1.319c-3.974-0.314-9.82-1.996-13.581-0.545
			c-0.602,0.232-1.082,0.708-1.067,1.401c3.248,151.284,18.041,302.572,6.314,453.841c-1.401,18.072-3.199,36.113-5.314,54.115
			c-0.092,0.786,0.731,1.456,1.453,1.453c100.972-0.432,201.948,0.361,302.915,1.285c113.804,1.042,227.604,2.402,341.407,3.538
			c104.082,1.039,208.169,1.979,312.257,1.909c71.782-0.048,143.758,0.173,215.464-3.6c8.516-0.448,17.029-0.988,25.525-1.723
			c9.785-0.846,20.687-3.658,30.302-1.462c0.83,0.19,1.955-0.415,1.839-1.401c-17.718-150.723-7.6-301.728-2.524-452.845
			c0.617-18.367,1.13-36.737,1.524-55.111C1257.548,7.84,1254.642,7.844,1254.602,9.715z"/>
	</g>
</g>
</svg>
