<?xml version="1.0" encoding="utf-8"?>
<!-- Generator: Adobe Illustrator 17.0.0, SVG Export Plug-In . SVG Version: 6.00 Build 0)  -->
<!DOCTYPE svg PUBLIC "-//W3C//DTD SVG 1.1//EN" "http://www.w3.org/Graphics/SVG/1.1/DTD/svg11.dtd" [
	<!ENTITY st0 "fill:#FFFFFF;">
]>
<svg version="1.1" id="Calque_1" xmlns="http://www.w3.org/2000/svg" xmlns:xlink="http://www.w3.org/1999/xlink" x="0px" y="0px"
	 width="189.16px" height="214.63px" viewBox="0 0 189.16 214.63" style="enable-background:new 0 0 189.16 214.63;"
	 xml:space="preserve">
<g>
	<g>
		<path style="&st0;" d="M183.839,183.3c3-28.669-7.055-63.855-8.991-93.176c-1.935-25.412-0.693-66.638-2.628-85.533
			C138.744,27.69,35.542,30.323,7.866,12.934l1.877,3.561C1.358,58.848,5.231,151.642,9.746,191.389l1.251-2.404
			c18.062,33.882,146.841,22.805,172.841-4.561V183.3z"/>
		<g>
			<path d="M185.305,183.3c2.665-32.507-7.24-64.683-9.291-96.971c-1.727-27.185,0.266-54.619-2.389-81.738
				c-0.094-0.958-1.134-1.84-2.085-1.196c-10.303,6.979-22.734,10.468-34.745,13.171c-15.833,3.562-32.089,5.243-48.281,5.969
				c-15.544,0.696-31.197,0.331-46.651-1.535c-11.15-1.346-23.548-3.288-33.287-9.261c-1.234-0.757-2.52,0.708-1.896,1.896
				c1.234,2.347,1.649,2.847,1.21,5.285c-0.505,2.802-0.904,5.623-1.283,8.444C5.672,34.34,5.091,41.365,4.626,48.388
				c-1.118,16.9-1.305,33.863-1.168,50.795c0.248,30.731,1.47,61.651,4.905,92.206c0.142,1.259,1.868,2.03,2.582,0.699
				c0.43-0.801,0.86-1.602,1.29-2.404c-0.798,0-1.595,0-2.393,0c5.676,10.264,18.262,14.698,28.96,17.397
				c16.445,4.148,33.842,4.725,50.713,4.193c18.076-0.57,36.206-2.861,53.803-7.054c12.997-3.097,27.339-7.227,38.023-15.628
				C183.237,187.101,185.305,185.85,185.305,183.3c0-1.787-2.771-1.787-2.771,0c0,3.341-9.99,7.696-12.607,8.985
				c-6.543,3.224-13.54,5.519-20.546,7.498c-17.262,4.876-35.237,7.343-53.115,8.412c-17.388,1.04-35.152,0.664-52.271-2.78
				c-11.257-2.264-25.766-6.29-31.76-17.129c-0.493-0.892-1.904-0.91-2.393,0c-0.43,0.801-0.86,1.603-1.29,2.404
				c0.861,0.233,1.721,0.466,2.582,0.699c-3.436-30.563-4.612-61.469-4.905-92.206c-0.161-16.935,0.098-33.89,1.168-50.795
				c0.482-7.607,1.169-15.208,2.219-22.758c0.408-2.935,0.903-5.857,1.468-8.766c0.282-1.452-1.378-3.423-2.012-4.629
				c-0.632,0.632-1.264,1.264-1.896,1.896c9.514,5.835,21.311,7.819,32.186,9.315c15.839,2.179,31.931,2.505,47.889,1.911
				c16.493-0.614,33.015-2.432,49.164-5.875c12.579-2.682,25.759-6.403,36.524-13.695c-0.695-0.399-1.39-0.798-2.085-1.196
				c2.611,26.67,0.843,53.682,2.311,80.428c1.8,32.785,12.071,65.308,9.368,98.281C182.388,185.082,185.16,185.068,185.305,183.3z"
				/>
		</g>
	</g>
	<g>
		<g>
			<path d="M23.021,189.246c1.787,0,1.787-2.771,0-2.771S21.234,189.246,23.021,189.246L23.021,189.246z"/>
		</g>
	</g>
	<g>
		<g>
			<path d="M51.127,33.159c-7.197,6.796-12.775,14.862-17.478,23.536c-0.091,0.169-0.054,0.333,0.061,0.476
				c0.928,1.149,4.099,2.24,2.984,4.325c-1.676,3.136-3.47,6.21-5.243,9.292c-3.598,6.257-7.127,12.535-10.059,19.138
				c-0.204,0.459,0.473,0.859,0.678,0.396c4.616-10.395,10.775-19.961,16.127-29.973c0.088-0.165,0.059-0.337-0.061-0.476
				c-0.94-1.085-3.974-2.478-2.999-4.276c1.371-2.529,2.89-4.974,4.453-7.388c3.435-5.306,7.501-10.159,12.092-14.494
				C52.051,33.366,51.495,32.811,51.127,33.159L51.127,33.159z"/>
		</g>
	</g>
	<g>
		<g>
			<path d="M20.074,88.447c6.754-6.261,12.897-13.061,18.707-20.199c0.317-0.389-0.236-0.949-0.555-0.555
				C32.415,74.83,26.272,81.63,19.518,87.891C19.146,88.236,19.703,88.79,20.074,88.447L20.074,88.447z"/>
		</g>
	</g>
	<g>
		<g>
			<path d="M20.693,123.354c-1.179,15.582,0.039,31.086,3.239,46.367c0.104,0.496,0.861,0.285,0.757-0.209
				c-3.187-15.219-4.385-30.645-3.211-46.158C21.517,122.849,20.731,122.852,20.693,123.354L20.693,123.354z"/>
		</g>
	</g>
	<g>
		<g>
			<path d="M23.972,173.724c8.519,11.515,20.92,18.791,35.173,20.393c0.503,0.057,0.498-0.73,0-0.786
				c-13.937-1.567-26.164-8.744-34.495-20.004C24.353,172.925,23.67,173.316,23.972,173.724L23.972,173.724z"/>
		</g>
	</g>
</g>
</svg>
