<?xml version="1.0" encoding="utf-8"?>
<!-- Generator: Adobe Illustrator 17.0.0, SVG Export Plug-In . SVG Version: 6.00 Build 0)  -->
<!DOCTYPE svg PUBLIC "-//W3C//DTD SVG 1.1//EN" "http://www.w3.org/Graphics/SVG/1.1/DTD/svg11.dtd">
<svg version="1.1" id="Calque_1" xmlns="http://www.w3.org/2000/svg" xmlns:xlink="http://www.w3.org/1999/xlink" x="0px" y="0px"
	 width="182.832px" height="83.562px" viewBox="-21.188 0 182.832 83.562" enable-background="new -21.188 0 182.832 83.562"
	 xml:space="preserve">
<g>
	<g>
		<g>
			<path fill="#3D3D3D" d="M36.923,43.764c3.817,8.482,8.159,16.709,11.195,25.522c0.621,1.803,3.497,1.028,2.87-0.791
				c-3.12-9.056-7.572-17.516-11.495-26.233C38.706,40.514,36.142,42.029,36.923,43.764L36.923,43.764z"/>
		</g>
	</g>
	<g>
		<g>
			<path fill="#3D3D3D" d="M56.369,43.649c-1.853,9.391-3.208,18.815-4.179,28.336c-0.195,1.909,2.784,1.89,2.976,0
				c0.943-9.256,2.271-18.417,4.072-27.545C59.609,42.566,56.74,41.767,56.369,43.649L56.369,43.649z"/>
		</g>
	</g>
	<g>
		<g>
			<path fill="#3D3D3D" d="M48.118,42.66c1.235,9.003,1.948,18.175,2.01,27.263c0.013,1.919,2.989,1.92,2.976,0
				c-0.063-9.36-0.844-18.783-2.116-28.054C50.728,39.974,47.86,40.783,48.118,42.66L48.118,42.66z"/>
		</g>
	</g>
	<g>
		<g>
			<path fill="#3D3D3D" d="M41.048,44.796c3.71,7.372,7.482,14.598,10.164,22.428c0.829-0.483,1.658-0.965,2.487-1.448
				c-2.567-2.113-1.869-3.302-5.667-2.414c-1.648,0.386-1.273,2.947,0.396,2.923c0.552,0.02,1.101-0.003,1.649-0.068
				c0-0.857,0-1.713,0-2.57c-0.612,0.454-1.293,0.703-2.044,0.747c-1.597,0.289-1.229,2.4,0,2.87
				c2.733,1.046,6.897,1.443,9.492-0.181c-0.729-0.296-1.457-0.593-2.186-0.889c0.339,1.24,0.662,2.485,0.979,3.731
				c0.295,1.158,1.432,5.299,1.368,5.435c0.679-0.178,1.357-0.356,2.036-0.534c0.5,1.225,0.701,1.367,0.602,0.427
				c0-0.584,0-1.167,0-1.751c0-0.849,0-1.698,0-2.547c0-1.919-2.976-1.919-2.976,0c0,2.729,0,5.459,0,8.188
				c0.496-0.496,0.992-0.992,1.488-1.488c-3.109,0.008-7.356-0.432-10.127,1.266c0.729,0.296,1.457,0.593,2.186,0.889
				c-0.951-2.67-0.523-6.016-0.722-8.818c-0.157-2.213-1.287-4.139-1.287-6.194c0-1.93-2.879-1.905-2.976,0
				c-0.165,3.214-0.722,6.238,1.235,9.002c1.097,1.549,3.482,0.217,2.57-1.502c-1.174-2.215-2.585-4.339-2.944-6.864
				c-0.907,0.382-1.813,0.764-2.72,1.147c1.839,2.777,1.674,6.823,2.944,9.895c0.624,1.51,2.837,1.376,2.923-0.396
				c0.149-3.079,0.648-6.163,1.031-9.219c-0.974,0.132-1.949,0.264-2.923,0.396c0.841,3.38-2.862,6.63-1.969,10.219
				c0.365,1.468,2.457,1.374,2.87,0c0.923-3.074-0.907-6.2,0-9.219c-0.957,0-1.913,0-2.87,0c0.983,2.957,0.318,5.887,2.213,8.544
				c0.822,1.153,2.773,0.825,2.773-0.751c0-2.386,0-4.771,0-7.157c-0.924,0.25-1.849,0.501-2.773,0.751
				c0.75,1.532-0.174,3.252,1.264,4.427c1.14,0.931,2.827,0.081,2.487-1.448c-0.25-0.636-0.3-1.285-0.15-1.947
				c-0.907-0.118-1.813-0.237-2.72-0.355c0.344,1.031,0.688,2.063,1.031,3.094c0.292,0.876,1.338,1.431,2.186,0.889
				c1.537-0.983,1.724-2.639,1.768-4.379c-0.992,0-1.984,0-2.976,0c0.011,2.321-0.502,6.966,1.768,8.442
				c0.752,0.489,2.029,0.043,2.186-0.889c0.344-2.042,0.688-4.084,1.031-6.125c-0.974-0.132-1.949-0.264-2.923-0.396
				c0,1.698,0,3.396,0,5.094c0,1.377,2.163,2.171,2.773,0.751c1.521-3.536,1.466-6.879,2.213-10.606
				c-0.907,0.118-1.813,0.237-2.72,0.355c2.039,2.813,1.543,8.294,2.348,11.781c0.907-0.382,1.813-0.764,2.72-1.147
				c-0.145-0.285-0.29-0.569-0.435-0.854c-0.178,0.679-0.356,1.357-0.534,2.036c2.754-1.951-0.011-10.135-1.529-12.287
				c-0.792-1.124-2.844-0.843-2.773,0.751c0.167,3.772,0.865,7.51,1.031,11.282c0.496-0.496,0.992-0.992,1.488-1.488
				c-3.662,0.013-7.258,0.136-10.803,1.116c0.628,0.478,1.256,0.957,1.884,1.435c-0.358-3.846-0.131-9.73-2.266-13.065
				c-0.941-1.471-3.022-0.493-2.72,1.147c0.712,3.864,0.975,9.369,3.244,12.669c0.591,0.859,1.548,0.915,2.337,0.301
				c2.034-1.401,3.989-1.628,5.866-0.68c1.137,0.431,2.046-0.824,1.831-1.831c-2.124-9.947-2.775-20.304-6.188-29.941
				c-0.546-1.541-2.923-1.352-2.923,0.396c0,2.157,0,4.314,0,6.47c0,1.641,2.608,2.08,2.923,0.396
				c0.469-2.502,0.564-5.005,1.031-7.502c-0.957,0-1.913,0-2.87,0c0.799,5.068,0.975,10.05,0.978,15.169
				c0.001,1.637,2.623,2.085,2.923,0.396c1.257-7.08,0.547-14.446,2.063-21.47c-0.974-0.132-1.949-0.264-2.923-0.396
				c-0.147,2.082-1.166,10.424-2.357,11.091c0.746,0.428,1.493,0.857,2.239,1.285c0.155-1.902,2.385-4.168,3.041-6.075
				c0.288-0.836-0.496-2.009-1.435-1.884c-2.153,0.288-4.675,1.631-6.824,1.085c-0.132,0.974-0.264,1.949-0.396,2.923
				c1.031,0,2.063,0,3.094,0c1.122,0,1.863-1.266,1.285-2.239c-0.876-1.476-3.516-1.036-4.125-2.063
				c-0.56,0.729-1.12,1.457-1.681,2.186c2.551,0.547,4.564,1.804,6.605-0.383c0.938-1.005,0.224-2.421-1.052-2.54
				c-1.606-0.15-3.199-0.593-4.761-0.978c-0.264,0.957-0.527,1.913-0.791,2.87c3.486,0.682,6.856-0.676,10.314,0
				c0.939,0.184,1.884-0.412,1.884-1.435c0-0.594,0-1.187,0-1.781c0-1.414-1.572-1.815-2.541-1.052c-1.151,0.905-0.073,3.9,0,3.843
				c-0.452,0.356-2.197-0.639-3.327,1.615c0.779-0.1,1.558-0.201,2.337-0.301c-2.364-2.828-3.641-1.073-6.845-1.696
				c-1.26-0.245-2.351,0.986-1.681,2.186c1.574,2.817,4.162,2.519,6.463,0.583c0.372-0.313,0.55-0.992,0.383-1.448
				c-1.058-2.88-4.411-4.827-6.571-6.845c-1.238-1.157-3.163,0.306-2.337,1.803c3.758,6.814,4.366,14.923,7.069,22.146
				c0.957-0.264,1.913-0.527,2.87-0.791c-2.743-7.285-3.821-15.095-6.188-22.502c-0.587-1.835-3.261-1.083-2.87,0.791
				c1.513,7.253,3.516,14.556,6.188,21.47c0.829-0.483,1.658-0.965,2.487-1.448c-4.967-5.643-4.478-14.674-8.018-21.169
				c-0.581-1.067-2.496-0.935-2.72,0.355c-0.884,5.104,3.723,9.587,5.157,14.199c0.485,1.56,3.006,1.334,2.923-0.396
				c-0.081-1.705-0.114-3.884-1.427-5.189c-1.837-1.826-3.699-2.016-4.814-4.771c-0.228,0.56-0.456,1.12-0.684,1.681
				c3.943-1.959,8.614,1.855,12.376,0c1.147-0.566,0.864-2.448-0.355-2.72c-1.629-0.363-4.133-2.383-5.573-0.649
				c-0.797,0.96-0.336,2.54,1.052,2.54c1.375,0,2.75,0,4.125,0c-0.132-0.974-0.264-1.949-0.396-2.923
				c-3.775,0.747-7.065-0.519-10.669,1.181c-0.772,0.364-0.864,1.359-0.534,2.036c2.687,5.513,6.495,12.696,7.016,18.939
				c0.159,1.898,3.136,1.914,2.976,0c-0.573-6.864-4.444-14.328-7.423-20.441c-0.178,0.679-0.356,1.357-0.534,2.036
				c3.084-1.455,6.705-0.238,9.958-0.881c1.68-0.332,1.249-2.923-0.396-2.923c-1.375,0-2.75,0-4.125,0
				c0.351,0.847,0.702,1.694,1.052,2.54c-1.083,0.199-0.818,0.455,0.794,0.767c0.622,0.274,1.221,0.499,1.883,0.647
				c-0.118-0.907-0.237-1.813-0.355-2.72c-1.194,0.589-4.442-0.603-5.78-0.744c-2.331-0.246-4.47-0.312-6.596,0.744
				c-0.543,0.27-0.919,1.101-0.684,1.681c1.511,3.734,5.946,5.206,6.135,9.169c0.974-0.132,1.949-0.264,2.923-0.396
				c-1.156-3.719-5.832-8.718-5.157-12.616c-0.907,0.118-1.813,0.237-2.72,0.355c3.717,6.821,3.192,15.76,8.484,21.771
				c0.955,1.085,3.026-0.055,2.487-1.448c-2.672-6.914-4.675-14.218-6.188-21.47c-0.957,0.264-1.913,0.527-2.87,0.791
				c2.367,7.406,3.445,15.216,6.188,22.502c0.669,1.778,3.545,1.011,2.87-0.791c-2.799-7.479-3.475-15.794-7.369-22.857
				c-0.779,0.601-1.558,1.202-2.337,1.803c0.854,0.798,1.745,1.556,2.624,2.327c0.57,0.501,1.131,1.013,1.683,1.535
				c0.246,0.243,0.493,0.487,0.739,0.73c1.282-0.274,1.067-0.437-0.646-0.489c-0.56,0.729-1.12,1.457-1.681,2.186
				c1.669,0.325,4.364-0.466,5.531,0.931c0.596,0.713,1.93,0.511,2.337-0.301c0.013-0.025,2.245-0.297,2.861-1.012
				c0.662-0.769,0.404-4.161,0-3.843c-0.847-0.351-1.694-0.702-2.54-1.052c0,0.594,0,1.187,0,1.781
				c0.628-0.478,1.256-0.957,1.884-1.435c-3.486-0.682-6.856,0.676-10.314,0c-1.864-0.365-2.671,2.406-0.791,2.87
				c1.83,0.452,3.672,0.909,5.552,1.085c-0.351-0.847-0.702-1.694-1.052-2.54c-0.92,0.986-2.694-0.165-3.709-0.383
				c-1.24-0.266-2.379,1.009-1.681,2.186c0.876,1.476,3.516,1.036,4.125,2.063c0.428-0.746,0.857-1.493,1.285-2.239
				c-1.031,0-2.063,0-3.094,0c-1.672,0-2.038,2.506-0.396,2.923c2.804,0.713,4.85-0.609,7.615-0.978
				c-0.478-0.628-0.957-1.256-1.435-1.884c-1.016,2.952-2.883,3.625-3.147,6.866c-0.095,1.167,1.322,1.799,2.239,1.285
				c3.089-1.73,3.608-10.492,3.831-13.661c0.118-1.678-2.571-2.029-2.923-0.396c-1.519,7.038-0.805,14.388-2.063,21.47
				c0.974,0.132,1.949,0.264,2.923,0.396c-0.003-5.387-0.245-10.635-1.085-15.96c-0.228-1.446-2.607-1.406-2.87,0
				c-0.469,2.502-0.564,5.005-1.031,7.502c0.974,0.132,1.949,0.264,2.923,0.396c0-2.157,0-4.314,0-6.47
				c-0.974,0.132-1.949,0.264-2.923,0.396c3.413,9.636,4.065,19.994,6.188,29.941c0.61-0.61,1.22-1.22,1.831-1.831
				c-3.271-1.24-6.049-0.663-8.761,1.445c0.779,0.1,1.558,0.201,2.337,0.301c-2.078-3.022-2.287-8.393-2.944-11.958
				c-0.907,0.382-1.813,0.764-2.72,1.147c1.858,2.903,1.545,8.181,1.86,11.562c0.088,0.948,0.884,1.711,1.884,1.435
				c3.3-0.912,6.614-0.998,10.012-1.01c0.784-0.003,1.524-0.675,1.488-1.488c-0.167-3.772-0.865-7.51-1.031-11.282
				c-0.924,0.25-1.849,0.501-2.773,0.751c0.743,1.054,0.996,2.471,1.319,3.698c0.277,1.055,0.574,5.015,1.278,4.516
				c-0.691,0.49-0.927,1.264-0.534,2.036c0.145,0.285,0.29,0.569,0.435,0.854c0.794,1.558,3.087,0.443,2.72-1.147
				c-0.89-3.859-0.254-9.191-2.648-12.492c-0.683-0.942-2.442-1.033-2.72,0.355c-0.67,3.342-0.542,6.709-1.913,9.895
				c0.924,0.25,1.849,0.501,2.773,0.751c0-1.698,0-3.396,0-5.094c0-1.636-2.638-2.087-2.923-0.396
				c-0.344,2.042-0.688,4.084-1.031,6.125c0.729-0.296,1.457-0.593,2.186-0.889c-0.559-0.363-0.29-4.961-0.294-5.872
				c-0.009-1.922-2.927-1.916-2.976,0c-0.014,0.547,0.191,1.499-0.294,1.809c0.729,0.296,1.457,0.593,2.186,0.889
				c-0.344-1.031-0.688-2.063-1.031-3.094c-0.365-1.095-2.155-1.627-2.72-0.355c-0.771,1.735-0.572,2.343-0.15,4.241
				c0.829-0.483,1.658-0.965,2.487-1.448c-0.218-0.178-0.458-3.13-0.799-3.824c-0.671-1.369-2.773-0.664-2.773,0.751
				c0,2.386,0,4.771,0,7.157c0.924-0.25,1.849-0.501,2.773-0.751c-1.669-2.34-1.044-5.221-1.913-7.833
				c-0.461-1.387-2.435-1.449-2.87,0c-0.923,3.074,0.907,6.2,0,9.219c0.957,0,1.913,0,2.87,0c-0.841-3.38,2.862-6.63,1.969-10.219
				c-0.438-1.762-2.728-1.159-2.923,0.396c-0.384,3.057-0.882,6.141-1.031,9.219c0.974-0.132,1.949-0.264,2.923-0.396
				c-1.381-3.34-1.23-7.565-3.244-10.606c-0.984-1.485-2.952-0.483-2.72,1.147c0.395,2.78,1.948,5.131,3.244,7.575
				c0.857-0.501,1.713-1.001,2.57-1.502c-1.646-2.326-0.96-4.923-0.828-7.5c-0.992,0-1.984,0-2.976,0
				c0,2.699,1.168,4.524,1.362,7.253c0.197,2.768-0.193,5.895,0.753,8.551c0.314,0.881,1.318,1.422,2.186,0.889
				c2.197-1.346,6.121-0.853,8.625-0.86c0.811-0.002,1.488-0.675,1.488-1.488c0-2.729,0-5.459,0-8.188c0-1.919-2.976-1.919-2.976,0
				c0,1.698,0,3.396,0,5.094c0,0.484,0.274,1.073,0.737,1.285c0.045,0.021,0.09,0.041,0.135,0.062
				c0.681,0.312,1.671,0.252,2.036-0.534c1.357-2.918-1.252-8.544-2.048-11.459c-0.248-0.907-1.368-1.402-2.186-0.889
				c-1.931,1.208-5.208,0.643-7.198-0.119c0,0.957,0,1.913,0,2.87c1.025-0.186,1.893-0.472,2.755-1.047
				c0.965-0.643,0.947-1.923,0-2.57c-0.913-0.623-2.104-0.353-3.151-0.338c0.132,0.974,0.264,1.949,0.396,2.923
				c1.54-0.36,1.336,0.467,2.772,1.649c1.047,0.862,3.015,0.094,2.487-1.448c-2.765-8.075-6.636-15.534-10.464-23.139
				C42.755,41.578,40.188,43.086,41.048,44.796L41.048,44.796z"/>
		</g>
	</g>
</g>
<g>
	<g>
		<g>
			<path fill="#3D3D3D" d="M106.923,43.764c3.817,8.482,8.159,16.709,11.195,25.522c0.621,1.803,3.497,1.028,2.87-0.791
				c-3.12-9.056-7.572-17.516-11.495-26.233C108.706,40.514,106.142,42.029,106.923,43.764L106.923,43.764z"/>
		</g>
	</g>
	<g>
		<g>
			<path fill="#3D3D3D" d="M126.369,43.649c-1.853,9.391-3.208,18.815-4.179,28.336c-0.195,1.909,2.784,1.89,2.976,0
				c0.943-9.256,2.271-18.417,4.072-27.545C129.609,42.566,126.74,41.767,126.369,43.649L126.369,43.649z"/>
		</g>
	</g>
	<g>
		<g>
			<path fill="#3D3D3D" d="M118.118,42.66c1.235,9.003,1.948,18.175,2.01,27.263c0.013,1.919,2.989,1.92,2.976,0
				c-0.063-9.36-0.844-18.783-2.116-28.054C120.728,39.974,117.86,40.783,118.118,42.66L118.118,42.66z"/>
		</g>
	</g>
	<g>
		<g>
			<path fill="#3D3D3D" d="M111.048,44.796c3.71,7.372,7.482,14.598,10.164,22.428c0.729-0.56,1.457-1.12,2.186-1.681
				c-3.062-2.012-4.84-2.044-8.366-1.181c-1.6,0.391-1.289,3.14,0.396,2.923c0.848-0.109,4.192-1.352,4.534-1.164
				c-0.1-0.779-0.201-1.558-0.301-2.337c-1.118,0.866-3.225,1.403-4.629,1.609c-1.587,0.233-1.24,2.437,0,2.87
				c3.299,1.151,9.514,0.779,12.492-1.181c-0.729-0.296-1.457-0.593-2.186-0.889c0.385,1.537,0.75,3.078,1.107,4.622
				c0.278,1.206,1.323,5.352,1.236,5.538c0.679-0.178,1.357-0.356,2.036-0.534c0.482,1.246,0.684,1.445,0.607,0.595
				c0-0.804,0-1.609,0-2.413c0-1.016,0-2.031,0-3.047c0-1.919-2.976-1.919-2.976,0c0,3.063,0,6.125,0,9.188
				c0.496-0.496,0.992-0.992,1.488-1.488c-3.796,0.101-9.866,0.111-13.127,2.266c0.729,0.296,1.457,0.593,2.186,0.889
				c-1.002-2.775-0.524-6.337-0.704-9.251c-0.148-2.392-1.306-4.57-1.306-6.761c0-1.924-2.917-1.914-2.976,0
				c-0.118,3.793-1.197,8.704,1.235,12.002c0.92,1.247,3.373,0.553,2.72-1.147c-1.17-3.044-1.029-6.601-1.041-9.824
				c-0.924,0.25-1.849,0.501-2.773,0.751c1.657,2.907-0.211,7.628,0.944,10.895c0.558,1.579,2.847,1.323,2.923-0.396
				c0.151-3.411,0.652-6.828,1.031-10.219c-0.974,0.132-1.949,0.264-2.923,0.396c1.127,3.276-0.104,6.917,1.031,10.219
				c0.474,1.38,2.427,1.456,2.87,0c1.027-3.374-1.011-6.899,0-10.219c-0.957,0-1.913,0-2.87,0c1.107,3.187,0.103,6.668,2.213,9.544
				c0.831,1.133,2.773,0.84,2.773-0.751c0-2.719,0-5.438,0-8.157c-0.924,0.25-1.849,0.501-2.773,0.751
				c0.75,1.532-0.174,3.252,1.264,4.427c1.14,0.931,2.827,0.081,2.487-1.448c-0.25-0.636-0.3-1.285-0.15-1.947
				c-0.907-0.118-1.813-0.237-2.72-0.355c0.344,1.031,0.688,2.063,1.031,3.094c0.292,0.876,1.338,1.431,2.186,0.889
				c1.537-0.983,1.724-2.639,1.768-4.379c-0.992,0-1.984,0-2.976,0c0.008,2.422-0.665,7.923,1.768,9.442
				c0.743,0.464,2.048,0.063,2.186-0.889c0.344-2.375,0.688-4.75,1.031-7.125c-0.974-0.132-1.949-0.264-2.923-0.396
				c0,2.031,0,4.063,0,6.094c0,1.805,2.314,1.86,2.923,0.396c1.547-3.718,1.307-7.355,2.063-11.251
				c-0.907,0.118-1.813,0.237-2.72,0.355c2.173,2.944,1.495,9.084,2.348,12.781c0.907-0.382,1.813-0.764,2.72-1.147
				c-0.145-0.285-0.29-0.569-0.435-0.854c-0.178,0.679-0.356,1.357-0.534,2.036c2.796-2.034,0.035-11.021-1.529-13.287
				c-0.788-1.143-2.835-0.83-2.773,0.751c0.16,4.104,0.871,8.178,1.031,12.282c0.496-0.496,0.992-0.992,1.488-1.488
				c-4.598,0.121-9.394,0.8-13.803,2.116c0.628,0.478,1.256,0.957,1.884,1.435c0.301-3.896,1.786-10.526-0.266-14.065
				c-0.741-1.278-2.783-0.732-2.773,0.751c0.027,4.003-0.872,10.523,1.297,14.065c0.542,0.885,1.587,0.901,2.337,0.301
				c2.222-1.776,6.187-2.587,8.866-1.68c1.141,0.386,2.052-0.792,1.831-1.831c-2.184-10.26-2.676-20.997-6.188-30.941
				c-0.545-1.543-2.923-1.351-2.923,0.396c0,2.157,0,4.314,0,6.47c0,1.641,2.608,2.08,2.923,0.396
				c0.469-2.502,0.564-5.005,1.031-7.502c-0.957,0-1.913,0-2.87,0c0.799,5.068,0.975,10.05,0.978,15.169
				c0.001,1.637,2.623,2.085,2.923,0.396c1.257-7.08,0.547-14.446,2.063-21.47c-0.974-0.132-1.949-0.264-2.923-0.396
				c-0.147,2.082-1.166,10.424-2.357,11.091c0.746,0.428,1.493,0.857,2.239,1.285c0.155-1.902,2.384-4.168,3.041-6.075
				c0.288-0.836-0.496-2.009-1.435-1.884c-2.153,0.288-4.675,1.631-6.824,1.085c-0.132,0.974-0.264,1.949-0.396,2.923
				c1.031,0,2.063,0,3.094,0c1.122,0,1.863-1.266,1.285-2.239c-0.876-1.476-3.516-1.036-4.125-2.063
				c-0.56,0.729-1.12,1.457-1.681,2.186c2.551,0.547,4.564,1.804,6.605-0.383c0.938-1.005,0.224-2.421-1.052-2.54
				c-1.606-0.15-3.199-0.593-4.761-0.978c-0.264,0.957-0.527,1.913-0.791,2.87c3.486,0.682,6.856-0.676,10.314,0
				c0.939,0.184,1.884-0.412,1.884-1.435c0-0.594,0-1.187,0-1.781c0-1.414-1.572-1.815-2.54-1.052c-1.151,0.905-0.073,3.9,0,3.843
				c-0.452,0.356-2.197-0.639-3.327,1.615c0.779-0.1,1.558-0.201,2.337-0.301c-2.364-2.828-3.641-1.073-6.845-1.696
				c-1.26-0.245-2.351,0.986-1.681,2.186c1.574,2.817,4.162,2.519,6.463,0.583c0.372-0.313,0.55-0.992,0.383-1.448
				c-1.058-2.88-4.411-4.827-6.571-6.845c-1.238-1.157-3.163,0.306-2.337,1.803c3.758,6.814,4.366,14.923,7.069,22.146
				c0.957-0.264,1.913-0.527,2.87-0.791c-2.743-7.285-3.821-15.095-6.188-22.502c-0.587-1.835-3.261-1.083-2.87,0.791
				c1.513,7.253,3.516,14.556,6.188,21.47c0.829-0.483,1.658-0.965,2.487-1.448c-4.967-5.643-4.478-14.674-8.018-21.169
				c-0.581-1.067-2.496-0.935-2.72,0.355c-0.884,5.104,3.723,9.587,5.157,14.199c0.485,1.56,3.006,1.334,2.923-0.396
				c-0.081-1.705-0.114-3.884-1.427-5.189c-1.837-1.826-3.699-2.016-4.814-4.771c-0.228,0.56-0.456,1.12-0.684,1.681
				c3.943-1.959,8.614,1.855,12.376,0c1.147-0.566,0.864-2.448-0.355-2.72c-1.629-0.363-4.133-2.383-5.573-0.649
				c-0.797,0.96-0.336,2.54,1.052,2.54c1.375,0,2.75,0,4.125,0c-0.132-0.974-0.264-1.949-0.396-2.923
				c-3.775,0.747-7.065-0.519-10.669,1.181c-0.772,0.364-0.864,1.359-0.534,2.036c2.687,5.513,6.495,12.696,7.016,18.939
				c0.159,1.898,3.136,1.914,2.976,0c-0.573-6.864-4.444-14.328-7.423-20.441c-0.178,0.679-0.356,1.357-0.534,2.036
				c3.084-1.455,6.705-0.238,9.958-0.881c1.68-0.332,1.249-2.923-0.396-2.923c-1.375,0-2.75,0-4.125,0
				c0.351,0.847,0.702,1.694,1.052,2.54c-1.083,0.199-0.818,0.455,0.794,0.767c0.622,0.274,1.221,0.499,1.883,0.647
				c-0.118-0.907-0.237-1.813-0.355-2.72c-1.194,0.589-4.442-0.603-5.78-0.744c-2.331-0.246-4.47-0.312-6.596,0.744
				c-0.543,0.27-0.919,1.101-0.684,1.681c1.511,3.734,5.946,5.206,6.135,9.169c0.974-0.132,1.949-0.264,2.923-0.396
				c-1.156-3.719-5.832-8.718-5.157-12.616c-0.907,0.118-1.813,0.237-2.72,0.355c3.717,6.821,3.192,15.76,8.484,21.771
				c0.955,1.085,3.026-0.055,2.487-1.448c-2.672-6.914-4.675-14.218-6.188-21.47c-0.957,0.264-1.913,0.527-2.87,0.791
				c2.367,7.406,3.445,15.216,6.188,22.502c0.669,1.778,3.545,1.011,2.87-0.791c-2.799-7.479-3.475-15.794-7.369-22.857
				c-0.779,0.601-1.558,1.202-2.337,1.803c0.854,0.798,1.745,1.556,2.624,2.327c0.57,0.501,1.131,1.013,1.683,1.535
				c0.246,0.243,0.493,0.487,0.739,0.73c1.282-0.274,1.067-0.437-0.646-0.489c-0.56,0.729-1.12,1.457-1.681,2.186
				c1.669,0.325,4.364-0.466,5.531,0.931c0.596,0.713,1.93,0.511,2.337-0.301c0.013-0.025,2.245-0.297,2.861-1.012
				c0.662-0.769,0.404-4.161,0-3.843c-0.847-0.351-1.694-0.702-2.541-1.052c0,0.594,0,1.187,0,1.781
				c0.628-0.478,1.256-0.957,1.884-1.435c-3.486-0.682-6.856,0.676-10.314,0c-1.864-0.365-2.671,2.406-0.791,2.87
				c1.83,0.452,3.672,0.909,5.552,1.085c-0.351-0.847-0.702-1.694-1.052-2.54c-0.92,0.986-2.694-0.165-3.709-0.383
				c-1.24-0.266-2.379,1.009-1.681,2.186c0.876,1.476,3.516,1.036,4.125,2.063c0.428-0.746,0.857-1.493,1.285-2.239
				c-1.031,0-2.063,0-3.094,0c-1.672,0-2.038,2.506-0.396,2.923c2.804,0.713,4.85-0.609,7.615-0.978
				c-0.478-0.628-0.957-1.256-1.435-1.884c-1.016,2.952-2.883,3.625-3.147,6.866c-0.095,1.167,1.322,1.799,2.239,1.285
				c3.089-1.73,3.608-10.492,3.831-13.661c0.118-1.678-2.571-2.029-2.923-0.396c-1.519,7.038-0.805,14.388-2.063,21.47
				c0.974,0.132,1.949,0.264,2.923,0.396c-0.003-5.387-0.245-10.635-1.085-15.96c-0.228-1.446-2.607-1.406-2.87,0
				c-0.469,2.502-0.564,5.005-1.031,7.502c0.974,0.132,1.949,0.264,2.923,0.396c0-2.157,0-4.314,0-6.47
				c-0.974,0.132-1.949,0.264-2.923,0.396c3.512,9.944,4.004,20.68,6.188,30.941c0.61-0.61,1.22-1.22,1.831-1.831
				c-3.804-1.287-8.701,0-11.761,2.445c0.779,0.1,1.558,0.201,2.337,0.301c-1.782-2.909-0.869-9.199-0.891-12.562
				c-0.924,0.25-1.849,0.501-2.773,0.751c1.621,2.796,0.104,9.398-0.14,12.562c-0.074,0.962,1.007,1.697,1.884,1.435
				c4.185-1.249,8.65-1.894,13.012-2.01c0.786-0.021,1.52-0.661,1.488-1.488c-0.16-4.104-0.871-8.178-1.031-12.282
				c-0.924,0.25-1.849,0.501-2.773,0.751c0.885,1.283,1.116,3.158,1.45,4.649c0.245,1.09,0.437,5.082,1.146,4.566
				c-0.685,0.499-0.931,1.257-0.534,2.036c0.145,0.285,0.29,0.569,0.435,0.854c0.794,1.558,3.087,0.443,2.72-1.147
				c-0.947-4.104-0.069-9.998-2.648-13.492c-0.685-0.927-2.448-1.045-2.72,0.355c-0.738,3.807-0.552,7.618-2.063,11.251
				c0.974,0.132,1.949,0.264,2.923,0.396c0-2.031,0-4.063,0-6.094c0-1.632-2.678-2.093-2.923-0.396
				c-0.344,2.375-0.688,4.75-1.031,7.125c0.729-0.296,1.457-0.593,2.186-0.889c-0.607-0.379-0.291-5.842-0.294-6.872
				c-0.007-1.922-2.927-1.915-2.976,0c-0.014,0.547,0.191,1.499-0.294,1.809c0.729,0.296,1.457,0.593,2.186,0.889
				c-0.344-1.031-0.688-2.063-1.031-3.094c-0.365-1.095-2.155-1.627-2.72-0.355c-0.771,1.735-0.572,2.343-0.15,4.241
				c0.829-0.483,1.658-0.965,2.487-1.448c-0.218-0.178-0.458-3.13-0.799-3.824c-0.671-1.369-2.773-0.664-2.773,0.751
				c0,2.719,0,5.438,0,8.157c0.924-0.25,1.849-0.501,2.773-0.751c-1.876-2.556-0.914-5.957-1.913-8.833
				c-0.478-1.376-2.426-1.459-2.87,0c-1.027,3.374,1.011,6.898,0,10.219c0.957,0,1.913,0,2.87,0
				c-1.127-3.276,0.104-6.917-1.031-10.219c-0.57-1.656-2.739-1.253-2.923,0.396c-0.38,3.392-0.88,6.809-1.031,10.219
				c0.974-0.132,1.949-0.264,2.923-0.396c-1.277-3.614,0.686-8.221-1.244-11.606c-0.735-1.29-2.779-0.723-2.773,0.751
				c0.013,3.467-0.116,7.33,1.147,10.615c0.907-0.382,1.813-0.764,2.72-1.147c-2.026-2.749-0.928-7.287-0.828-10.5
				c-0.992,0-1.984,0-2.976,0c0,2.803,1.192,4.921,1.369,7.79c0.178,2.89-0.254,6.244,0.746,9.013
				c0.308,0.854,1.33,1.455,2.186,0.889c2.865-1.893,8.274-1.77,11.625-1.86c0.811-0.022,1.488-0.661,1.488-1.488
				c0-3.063,0-6.125,0-9.188c0-1.919-2.976-1.919-2.976,0c0,2.031,0,4.063,0,6.094c0,0.475,0.273,1.085,0.737,1.285
				c0.043,0.019,0.086,0.037,0.13,0.056c0.69,0.298,1.661,0.262,2.036-0.534c1.469-3.118-1.251-9.297-2.042-12.453
				c-0.226-0.899-1.389-1.414-2.186-0.889c-2.378,1.566-7.563,1.801-10.198,0.881c0,0.957,0,1.913,0,2.87
				c1.968-0.289,4.355-1.145,5.942-2.375c0.76-0.589,0.465-1.916-0.301-2.337c-1.651-0.907-4.368,0.543-6.037,0.757
				c0.132,0.974,0.264,1.949,0.396,2.923c2.648-0.648,3.821-0.598,6.073,0.881c1.068,0.702,2.604-0.459,2.186-1.681
				c-2.765-8.075-6.636-15.534-10.464-23.139C112.755,41.578,110.188,43.086,111.048,44.796L111.048,44.796z"/>
		</g>
	</g>
</g>
<g>
	<path fill="#FFFFFF" d="M158.48,41.71c0.922-15.039,0.749-24.215-0.612-37.237C119.553,2.123,36.637,6.928-12.826,3.896
		c-0.527,8.594-3.731,25.649,0.175,32.358c53.574,7.198,109.323,7.791,171.262,3.308L158.48,41.71z"/>
	<g>
		<path fill="#3D3D3D" d="M159.968,41.71c0.737-12.478,0.654-24.797-0.612-37.237c-0.086-0.845-0.614-1.437-1.488-1.488
			C106.943-0.022,38.136,5.441-12.826,2.408c-0.852-0.051-1.435,0.718-1.489,1.488c-0.441,6.324-1.379,12.596-1.678,18.933
			c-0.149,3.156-0.866,12.685,2.591,14.71c2.552,1.495,25.609,1.136,28.553,1.501c4.313,0.535,8.632,1.022,12.954,1.484
			c8.249,0.881,16.516,1.586,24.793,2.141c35.234,2.366,70.531,0.91,105.713-1.616c-0.496-0.496-0.992-0.992-1.488-1.488
			c-0.044,0.716-0.088,1.432-0.132,2.148C156.874,43.628,159.851,43.616,159.968,41.71c0.044-0.716,0.088-1.432,0.132-2.148
			c0.047-0.769-0.714-1.544-1.488-1.488c-32.665,2.345-65.392,3.739-98.125,2.065c-15.157-0.775-30.272-2.238-45.335-4.074
			c-2.655-0.324-26.485,0.157-27.419-2.799c-1.04-3.292-0.854-7.029-0.749-10.436c0.196-6.338,1.237-12.613,1.678-18.932
			c-0.496,0.494-0.992,0.99-1.488,1.487c50.962,3.032,119.769-2.43,170.694,0.577c-0.496-0.496-0.992-0.992-1.488-1.488
			c1.266,12.44,1.349,24.759,0.612,37.237C156.878,43.628,159.855,43.617,159.968,41.71z"/>
	</g>
</g>
<g>
	<g>
		<g>
			<g>
				<path fill="#4B4B4B" d="M22.323,24.129c0.214-1.136,0.136-3.051,1.63-3.112c-0.298-0.227-0.597-0.454-0.895-0.681
					c0.49,2.144,2.038,3.827,2.525,5.961c0.267,1.167,2.057,0.672,1.79-0.494c-0.49-2.144-2.038-3.827-2.525-5.961
					c-0.089-0.389-0.498-0.698-0.895-0.681c-2.67,0.107-3.008,2.283-3.42,4.474C20.314,24.806,22.102,25.306,22.323,24.129
					L22.323,24.129z"/>
			</g>
		</g>
		<g>
			<g>
				<path fill="#4B4B4B" d="M19.991,24.236c2.669-0.956,5.326-1.555,8.171-1.593c1.196-0.016,1.197-1.872,0-1.856
					c-3.005,0.04-5.84,0.647-8.664,1.659C18.38,22.847,18.862,24.641,19.991,24.236L19.991,24.236z"/>
			</g>
		</g>
	</g>
	<g>
		<g>
			<g>
				<path fill="#4B4B4B" d="M78.587,19.539c-0.812,2.285-0.855,5.171-0.47,7.536c0.193,1.18,1.981,0.677,1.79-0.494
					c-0.332-2.04-0.227-4.587,0.47-6.548C80.778,18.902,78.984,18.419,78.587,19.539L78.587,19.539z"/>
			</g>
		</g>
		<g>
			<g>
				<path fill="#4B4B4B" d="M79.012,27.756c0.982,0.006,1.964,0.012,2.946,0.018c1.197,0.008,1.196-1.848,0-1.856
					c-0.982-0.006-1.964-0.012-2.946-0.018C77.815,25.892,77.816,27.748,79.012,27.756L79.012,27.756z"/>
			</g>
		</g>
		<g>
			<g>
				<path fill="#4B4B4B" d="M79.88,23.968c0.562,0.003,1.122,0.007,1.683,0.01c1.197,0.008,1.196-1.848,0-1.856
					c-0.562-0.003-1.122-0.007-1.683-0.01C78.683,22.104,78.684,23.96,79.88,23.968L79.88,23.968z"/>
			</g>
		</g>
		<g>
			<g>
				<path fill="#4B4B4B" d="M79.057,21.253c2.113-0.025,4.112-0.564,6.147-1.08c1.16-0.295,0.668-2.084-0.494-1.79
					c-1.874,0.476-3.706,0.991-5.653,1.015C77.861,19.411,77.86,21.268,79.057,21.253L79.057,21.253z"/>
			</g>
		</g>
	</g>
	<g>
		<g>
			<g>
				<path fill="#4B4B4B" d="M64.127,19.015c-1.325,0.88-2.849,2.169-2.583,3.945c0.265,1.768,2.104,2.649,3.609,3.175
					c1.133,0.396,1.616-1.398,0.494-1.79c-0.745-0.26-1.889-0.661-2.225-1.472c-0.391-0.941,1.036-1.853,1.642-2.256
					C66.056,19.958,65.127,18.35,64.127,19.015L64.127,19.015z"/>
			</g>
		</g>
		<g>
			<g>
				<path fill="#4B4B4B" d="M63.924,21.25c0.855,0.137,2.355,0.279,2.891,1.088c0.45,0.679-1.27,1.939-1.65,2.248
					c-0.928,0.758,0.393,2.062,1.312,1.312c1.162-0.948,2.733-2.47,2.102-4.143c-0.605-1.605-2.67-2.057-4.162-2.296
					C63.247,19.273,62.744,21.062,63.924,21.25L63.924,21.25z"/>
			</g>
		</g>
		<g>
			<g>
				<path fill="#4B4B4B" d="M64.525,23.871c1.203,0.576,1.823,1.915,2.591,2.936c0.303,0.403,0.795,0.611,1.27,0.333
					c0.399-0.234,0.638-0.864,0.333-1.27c-0.96-1.279-1.748-2.881-3.256-3.603C64.388,21.755,63.445,23.355,64.525,23.871
					L64.525,23.871z"/>
			</g>
		</g>
	</g>
	<g>
		<g>
			<g>
				<path fill="#4B4B4B" d="M71.099,20.501c0.401,2.752,0.013,5.217,2.223,7.288c0.536,0.503,1.314,0.249,1.552-0.41
					c0.987-2.729,0.849-5.572,0.597-8.417c-0.105-1.183-1.961-1.193-1.856,0c0.238,2.685,0.401,5.345-0.532,7.923
					c0.517-0.136,1.034-0.274,1.552-0.41c-1.848-1.733-1.409-4.162-1.745-6.469C72.716,18.827,70.927,19.33,71.099,20.501
					L71.099,20.501z"/>
			</g>
		</g>
	</g>
	<g>
		<g>
			<g>
				<path fill="#4B4B4B" d="M10.774,20.36c1.635,0.001,3.289-0.027,4.872,0.439c0.993,0.292,1.414-1.254,0.425-1.545
					c-1.718-0.505-3.523-0.495-5.297-0.496C9.741,18.758,9.741,20.359,10.774,20.36L10.774,20.36z"/>
			</g>
		</g>
		<g>
			<g>
				<path fill="#4B4B4B" d="M11.091,19.813c-0.412,2.326-0.337,4.642,0,6.972c0.147,1.019,1.69,0.584,1.545-0.425
					c-0.292-2.026-0.358-4.099,0-6.12C12.814,19.23,11.272,18.798,11.091,19.813L11.091,19.813z"/>
			</g>
		</g>
		<g>
			<g>
				<path fill="#4B4B4B" d="M10.411,24.568c1.09,0,2.18,0,3.268,0c1.033,0,1.033-1.601,0-1.601c-1.09,0-2.18,0-3.268,0
					C9.378,22.967,9.378,24.568,10.411,24.568L10.411,24.568z"/>
			</g>
		</g>
	</g>
	<g>
		<g>
			<g>
				<path fill="#4B4B4B" d="M33.108,19.213c0,1.476-0.187,3.542,0.737,4.806c0.699,0.956,2.31,0.031,1.603-0.937
					c-0.712-0.975-0.483-2.73-0.483-3.869C34.964,18.016,33.108,18.016,33.108,19.213L33.108,19.213z"/>
			</g>
		</g>
		<g>
			<g>
				<path fill="#4B4B4B" d="M32.453,20.108c0.723-0.143,1.445-0.291,2.174-0.411c0.301-0.05,0.391-0.062,0.737-0.09
					c0.134-0.01,0.268-0.013,0.402-0.012c0.048,0.001,0.094,0.003,0.141,0.007c0.228,0.013-0.206-0.04-0.001,0
					c0.244,0.048-0.101-0.069,0.011-0.008c-0.153-0.082-0.254-0.251-0.277-0.506c-0.002,0.095,0.004,0.061,0.019-0.103
					c-0.01,0.055-0.085,0.226,0.011,0.009c-0.056,0.126-0.134,0.241-0.212,0.356c-0.491,0.727-1.376,1.472-2.078,2.1
					c-0.894,0.8,0.423,2.108,1.312,1.312c0.888-0.793,4.196-3.438,2.196-4.747c-0.568-0.372-1.351-0.293-1.99-0.216
					c-0.988,0.121-1.963,0.327-2.938,0.519C30.785,18.551,31.284,20.339,32.453,20.108L32.453,20.108z"/>
			</g>
		</g>
		<g>
			<g>
				<path fill="#4B4B4B" d="M36.078,23.504c0.77,0.215,1.536,0.443,2.248,0.81c0.212,0.109,0.483,0.402,0.533,0.312
					c-0.229,0.419-0.923,0.681-1.318,0.88c-0.871,0.437-1.81,0.742-2.733,1.044c-1.133,0.37-0.648,2.163,0.494,1.79
					c1.775-0.58,4.579-1.274,5.357-3.216c0.833-2.076-2.846-3.063-4.087-3.411C35.417,21.39,34.928,23.181,36.078,23.504
					L36.078,23.504z"/>
			</g>
		</g>
	</g>
	<g>
		<g>
			<g>
				<path fill="#4B4B4B" d="M54.289,19.791c0.014,2.151,0.156,4.34,0.542,6.459c0.214,1.176,2.002,0.677,1.79-0.494
					c-0.356-1.954-0.461-3.983-0.475-5.965C56.137,18.594,54.281,18.594,54.289,19.791L54.289,19.791z"/>
			</g>
		</g>
		<g>
			<g>
				<path fill="#4B4B4B" d="M53.309,20.393c1.278-0.02,2.533-0.303,3.809-0.327c1.195-0.022,1.197-1.878,0-1.856
					c-1.276,0.024-2.532,0.308-3.809,0.327C52.113,18.554,52.111,20.41,53.309,20.393L53.309,20.393z"/>
			</g>
		</g>
		<g>
			<g>
				<path fill="#4B4B4B" d="M54.317,27.878c1.349-0.364,2.657-0.908,4.07-0.948c1.195-0.033,1.197-1.889,0-1.856
					c-1.593,0.044-3.045,0.604-4.564,1.015C52.669,26.401,53.16,28.191,54.317,27.878L54.317,27.878z"/>
			</g>
		</g>
	</g>
	<g>
		<g>
			<g>
				<g>
					<path fill="#4B4B4B" d="M43.804,20.41c0.168,2.102,0.357,4.233,0.791,6.3c0.213,1.01,1.757,0.581,1.545-0.425
						c-0.405-1.928-0.577-3.912-0.734-5.874C45.324,19.388,43.721,19.38,43.804,20.41L43.804,20.41z"/>
				</g>
			</g>
			<g>
				<g>
					<path fill="#4B4B4B" d="M44.409,20.191c0.734-0.62,2.21-1.393,2.676-0.07c0.478,1.359-0.735,2.556-1.816,3.131
						c-0.913,0.485-0.103,1.867,0.809,1.383c1.866-0.992,3.427-3.243,2.377-5.377c-1.103-2.244-3.647-1.492-5.178-0.2
						C42.485,19.725,43.625,20.852,44.409,20.191L44.409,20.191z"/>
				</g>
			</g>
		</g>
		<g>
			<g>
				<path fill="#4B4B4B" d="M45.827,24.921c1.208,0.569,1.837,1.901,2.614,2.918c0.306,0.402,0.793,0.612,1.27,0.333
					c0.396-0.233,0.64-0.866,0.333-1.27c-0.969-1.271-1.767-2.873-3.279-3.584C45.687,22.811,44.745,24.412,45.827,24.921
					L45.827,24.921z"/>
			</g>
		</g>
	</g>
</g>
<g>
	<g>
		<g>
			<g>
				<path fill="#4B4B4B" d="M138.241,20.135c0,1.815,0,3.632,0,5.447c0,1.174,1.82,1.174,1.82,0c0-1.815,0-3.632,0-5.447
					C140.062,18.961,138.241,18.961,138.241,20.135L138.241,20.135z"/>
			</g>
		</g>
		<g>
			<g>
				<path fill="#4B4B4B" d="M139.151,27.27c1.048,0,2.095,0,3.143,0c1.174,0,1.174-1.82,0-1.82c-1.048,0-2.095,0-3.143,0
					C137.977,25.449,137.977,27.27,139.151,27.27L139.151,27.27z"/>
			</g>
		</g>
	</g>
	<g>
		<g>
			<g>
				<path fill="#4B4B4B" d="M147.134,19.879c-0.792,2.19-0.822,4.993-0.421,7.257c0.204,1.154,1.958,0.663,1.755-0.484
					c-0.346-1.95-0.257-4.412,0.421-6.289C149.29,19.257,147.53,18.784,147.134,19.879L147.134,19.879z"/>
			</g>
		</g>
		<g>
			<g>
				<path fill="#4B4B4B" d="M147.591,27.804c0.982,0,1.964,0,2.946,0c1.174,0,1.174-1.82,0-1.82c-0.982,0-1.964,0-2.946,0
					C146.417,25.984,146.417,27.804,147.591,27.804L147.591,27.804z"/>
			</g>
		</g>
		<g>
			<g>
				<path fill="#4B4B4B" d="M148.432,24.158c0.562,0,1.122,0,1.683,0c1.174,0,1.174-1.82,0-1.82c-0.562,0-1.122,0-1.683,0
					C147.258,22.337,147.258,24.158,148.432,24.158L148.432,24.158z"/>
			</g>
		</g>
		<g>
			<g>
				<path fill="#4B4B4B" d="M147.591,21.552c2.107-0.037,4.103-0.566,6.135-1.074c1.139-0.285,0.655-2.04-0.484-1.755
					c-1.873,0.47-3.707,0.976-5.651,1.009C146.419,19.753,146.417,21.573,147.591,21.552L147.591,21.552z"/>
			</g>
		</g>
	</g>
	<g>
		<g>
			<g>
				<path fill="#4B4B4B" d="M124.103,20.664c0-0.097,0-0.194,0-0.291c0-1.174-1.82-1.174-1.82,0c0,1.486,0,2.973,0,4.459
					c0,1.174,1.82,1.174,1.82,0c0-1.486,0-2.973,0-4.459c0-1.174-1.82-1.174-1.82,0c0,0.097,0,0.194,0,0.291
					C122.284,21.838,124.103,21.838,124.103,20.664L124.103,20.664z"/>
			</g>
		</g>
		<g>
			<g>
				<path fill="#4B4B4B" d="M121.509,21.052c1.781-0.025,2.906-0.152,3.844,1.634c0.048-0.368,0.095-0.735,0.143-1.103
					c-1.202,1.485-2.409,2.973-4.025,4.026c-0.979,0.638-0.068,2.215,0.918,1.572c1.757-1.145,3.086-2.694,4.394-4.311
					c0.27-0.334,0.35-0.709,0.142-1.103c-0.521-0.99-1.233-1.937-2.331-2.318c-1.008-0.349-2.04-0.231-3.084-0.216
					C120.336,19.249,120.335,21.069,121.509,21.052L121.509,21.052z"/>
			</g>
		</g>
	</g>
	<g>
		<g>
			<g>
				<path fill="#4B4B4B" d="M99.51,19.367c0,1.419-0.179,3.428,0.734,4.629c0.7,0.921,2.283,0.017,1.572-0.918
					c-0.704-0.927-0.485-2.616-0.486-3.711C101.33,18.193,99.509,18.193,99.51,19.367L99.51,19.367z"/>
			</g>
		</g>
		<g>
			<g>
				<path fill="#4B4B4B" d="M98.831,20.244c0.743-0.142,1.486-0.289,2.234-0.404c0.216-0.033,0.404-0.056,0.709-0.078
					c0.13-0.009,0.259-0.011,0.389-0.01c0.045,0.001,0.091,0.003,0.137,0.007c0.223,0.013-0.203-0.039-0.003,0
					c0.238,0.047-0.102-0.069,0.009-0.011c0.079,0.05,0.049,0.027-0.09-0.071c-0.133-0.124-0.157-0.271-0.178-0.441
					c0,0.093,0.007,0.056,0.022-0.109c-0.009,0.058-0.08,0.218,0.018-0.004c-0.051,0.116-0.124,0.223-0.195,0.328
					c-0.464,0.68-1.405,1.45-2.109,2.053c-0.892,0.766,0.402,2.048,1.287,1.287c0.992-0.852,4.075-3.17,2.197-4.593
					c-0.505-0.382-1.352-0.28-1.935-0.214c-1.001,0.113-1.989,0.318-2.978,0.506C97.196,18.708,97.685,20.462,98.831,20.244
					L98.831,20.244z"/>
			</g>
		</g>
		<g>
			<g>
				<path fill="#4B4B4B" d="M102.467,23.508c0.821,0.22,1.644,0.451,2.396,0.854c0.177,0.095,0.318,0.202,0.455,0.346
					c-0.035-0.037-0.025-0.186-0.029-0.182c-0.847,1.081-2.869,1.493-4.092,1.877c-1.116,0.35-0.639,2.108,0.484,1.755
					c1.693-0.532,4.696-1.213,5.359-3.153c0.699-2.042-2.849-2.918-4.089-3.252C101.816,21.448,101.334,23.203,102.467,23.508
					L102.467,23.508z"/>
			</g>
		</g>
	</g>
	<g>
		<g>
			<g>
				<path fill="#4B4B4B" d="M130.384,20.818c0.424,2.664,0.064,5.044,2.266,7.003c0.537,0.477,1.279,0.255,1.521-0.402
					c0.967-2.627,0.813-5.362,0.54-8.101c-0.115-1.156-1.936-1.167-1.82,0c0.257,2.582,0.437,5.137-0.475,7.617
					c0.507-0.134,1.014-0.268,1.521-0.402c-1.854-1.649-1.441-3.954-1.798-6.2C131.956,19.176,130.201,19.669,130.384,20.818
					L130.384,20.818z"/>
			</g>
		</g>
	</g>
	<g>
		<g>
			<g>
				<path fill="#4B4B4B" d="M112.306,20.104c0.014,2.069,0.156,4.179,0.54,6.214c0.218,1.153,1.971,0.663,1.755-0.484
					c-0.354-1.875-0.462-3.825-0.475-5.73C114.118,18.93,112.298,18.929,112.306,20.104L112.306,20.104z"/>
			</g>
		</g>
		<g>
			<g>
				<path fill="#4B4B4B" d="M111.308,20.699c1.277-0.019,2.533-0.291,3.809-0.315c1.173-0.021,1.174-1.842,0-1.82
					c-1.276,0.023-2.532,0.296-3.809,0.315C110.135,18.897,110.134,20.717,111.308,20.699L111.308,20.699z"/>
			</g>
		</g>
		<g>
			<g>
				<path fill="#4B4B4B" d="M112.312,27.897c1.352-0.351,2.664-0.873,4.075-0.91c1.172-0.031,1.174-1.852,0-1.82
					c-1.585,0.042-3.041,0.581-4.559,0.976C110.693,26.436,111.175,28.191,112.312,27.897L112.312,27.897z"/>
			</g>
		</g>
	</g>
</g>
<g>
	<g>
		<path fill="#4B4B4B" d="M88.511,24.072c2.169,0,4.337,0,6.506,0c1.325,0,1.325-2.054,0-2.054c-2.169,0-4.337,0-6.506,0
			C87.186,22.017,87.186,24.072,88.511,24.072L88.511,24.072z"/>
	</g>
</g>
<g>
	<g>
		<g>
			<g>
				<path fill="#4B4B4B" d="M-10.465,20.414c0,1.815,0,3.632,0,5.447c0,1.174,1.82,1.174,1.82,0c0-1.815,0-3.632,0-5.447
					C-8.644,19.24-10.465,19.24-10.465,20.414L-10.465,20.414z"/>
			</g>
		</g>
		<g>
			<g>
				<path fill="#4B4B4B" d="M-9.554,27.549c1.048,0,2.095,0,3.143,0c1.174,0,1.174-1.82,0-1.82c-1.048,0-2.095,0-3.143,0
					C-10.728,25.728-10.728,27.549-9.554,27.549L-9.554,27.549z"/>
			</g>
		</g>
	</g>
	<g>
		<g>
			<g>
				<path fill="#4B4B4B" d="M-4.406,20.158c-0.792,2.19-0.822,4.993-0.421,7.257c0.204,1.154,1.958,0.663,1.755-0.484
					c-0.346-1.95-0.257-4.412,0.421-6.289C-2.25,19.536-4.01,19.063-4.406,20.158L-4.406,20.158z"/>
			</g>
		</g>
		<g>
			<g>
				<path fill="#4B4B4B" d="M-3.949,28.083c0.982,0,1.964,0,2.946,0c1.174,0,1.174-1.82,0-1.82c-0.982,0-1.964,0-2.946,0
					C-5.123,26.263-5.123,28.083-3.949,28.083L-3.949,28.083z"/>
			</g>
		</g>
		<g>
			<g>
				<path fill="#4B4B4B" d="M-3.108,24.437c0.562,0,1.122,0,1.683,0c1.174,0,1.174-1.82,0-1.82c-0.562,0-1.122,0-1.683,0
					C-4.282,22.616-4.282,24.437-3.108,24.437L-3.108,24.437z"/>
			</g>
		</g>
		<g>
			<g>
				<path fill="#4B4B4B" d="M-3.949,21.831c2.107-0.037,4.103-0.566,6.135-1.074c1.139-0.285,0.655-2.04-0.484-1.755
					c-1.873,0.47-3.707,0.976-5.651,1.009C-5.121,20.032-5.123,21.852-3.949,21.831L-3.949,21.831z"/>
			</g>
		</g>
	</g>
</g>
</svg>
