<?xml version="1.0" encoding="utf-8"?>
<!-- Generator: Adobe Illustrator 17.0.0, SVG Export Plug-In . SVG Version: 6.00 Build 0)  -->
<!DOCTYPE svg PUBLIC "-//W3C//DTD SVG 1.1//EN" "http://www.w3.org/Graphics/SVG/1.1/DTD/svg11.dtd">
<svg version="1.1" id="Calque_1" xmlns="http://www.w3.org/2000/svg" xmlns:xlink="http://www.w3.org/1999/xlink" x="0px" y="0px"
	 width="161.644px" height="83.562px" viewBox="0 0 161.644 83.562" enable-background="new 0 0 161.644 83.562"
	 xml:space="preserve">
<g>
	<g>
		<g>
			<path fill="#3D3D3D" d="M36.923,43.764c3.817,8.482,8.159,16.709,11.195,25.522c0.621,1.803,3.497,1.028,2.87-0.791
				c-3.12-9.056-7.572-17.516-11.495-26.233C38.706,40.514,36.142,42.029,36.923,43.764L36.923,43.764z"/>
		</g>
	</g>
	<g>
		<g>
			<path fill="#3D3D3D" d="M56.369,43.649c-1.853,9.391-3.208,18.815-4.179,28.336c-0.195,1.909,2.784,1.89,2.976,0
				c0.943-9.256,2.271-18.417,4.072-27.545C59.609,42.566,56.74,41.767,56.369,43.649L56.369,43.649z"/>
		</g>
	</g>
	<g>
		<g>
			<path fill="#3D3D3D" d="M48.118,42.66c1.235,9.003,1.948,18.175,2.01,27.263c0.013,1.919,2.989,1.92,2.976,0
				c-0.063-9.36-0.844-18.783-2.116-28.054C50.728,39.974,47.86,40.783,48.118,42.66L48.118,42.66z"/>
		</g>
	</g>
	<g>
		<g>
			<path fill="#3D3D3D" d="M41.048,44.796c3.71,7.372,7.482,14.598,10.164,22.428c0.829-0.483,1.658-0.965,2.487-1.448
				c-2.567-2.113-1.869-3.302-5.667-2.414c-1.648,0.386-1.273,2.947,0.396,2.923c0.552,0.02,1.101-0.003,1.649-0.068
				c0-0.857,0-1.713,0-2.57c-0.612,0.454-1.293,0.703-2.044,0.747c-1.597,0.289-1.229,2.4,0,2.87
				c2.733,1.046,6.897,1.443,9.492-0.181c-0.729-0.296-1.457-0.593-2.186-0.889c0.339,1.24,0.662,2.485,0.979,3.731
				c0.295,1.158,1.432,5.299,1.368,5.435c0.679-0.178,1.357-0.356,2.036-0.534c0.5,1.225,0.701,1.367,0.602,0.427
				c0-0.584,0-1.167,0-1.751c0-0.849,0-1.698,0-2.547c0-1.919-2.976-1.919-2.976,0c0,2.729,0,5.459,0,8.188
				c0.496-0.496,0.992-0.992,1.488-1.488c-3.109,0.008-7.356-0.432-10.127,1.266c0.729,0.296,1.457,0.593,2.186,0.889
				c-0.951-2.67-0.523-6.016-0.722-8.818c-0.157-2.213-1.287-4.139-1.287-6.194c0-1.93-2.879-1.905-2.976,0
				c-0.165,3.214-0.722,6.238,1.235,9.002c1.097,1.549,3.482,0.217,2.57-1.502c-1.174-2.215-2.585-4.339-2.944-6.864
				c-0.907,0.382-1.813,0.764-2.72,1.147c1.839,2.777,1.674,6.823,2.944,9.895c0.624,1.51,2.837,1.376,2.923-0.396
				c0.149-3.079,0.648-6.163,1.031-9.219c-0.974,0.132-1.949,0.264-2.923,0.396c0.841,3.38-2.862,6.63-1.969,10.219
				c0.365,1.468,2.457,1.374,2.87,0c0.923-3.074-0.907-6.2,0-9.219c-0.957,0-1.913,0-2.87,0c0.983,2.957,0.318,5.887,2.213,8.544
				c0.822,1.153,2.773,0.825,2.773-0.751c0-2.386,0-4.771,0-7.157c-0.924,0.25-1.849,0.501-2.773,0.751
				c0.75,1.532-0.174,3.252,1.264,4.427c1.14,0.931,2.827,0.081,2.487-1.448c-0.25-0.636-0.3-1.285-0.15-1.947
				c-0.907-0.118-1.813-0.237-2.72-0.355c0.344,1.031,0.688,2.063,1.031,3.094c0.292,0.876,1.338,1.431,2.186,0.889
				c1.537-0.983,1.724-2.639,1.768-4.379c-0.992,0-1.984,0-2.976,0c0.011,2.321-0.502,6.966,1.768,8.442
				c0.752,0.489,2.029,0.043,2.186-0.889c0.344-2.042,0.688-4.084,1.031-6.125c-0.974-0.132-1.949-0.264-2.923-0.396
				c0,1.698,0,3.396,0,5.094c0,1.377,2.163,2.171,2.773,0.751c1.521-3.536,1.466-6.879,2.213-10.606
				c-0.907,0.118-1.813,0.237-2.72,0.355c2.039,2.813,1.543,8.294,2.348,11.781c0.907-0.382,1.813-0.764,2.72-1.147
				c-0.145-0.285-0.29-0.569-0.435-0.854c-0.178,0.679-0.356,1.357-0.534,2.036c2.754-1.951-0.011-10.135-1.529-12.287
				c-0.792-1.124-2.844-0.843-2.773,0.751c0.167,3.772,0.865,7.51,1.031,11.282c0.496-0.496,0.992-0.992,1.488-1.488
				c-3.662,0.013-7.258,0.136-10.803,1.116c0.628,0.478,1.256,0.957,1.884,1.435c-0.358-3.846-0.131-9.73-2.266-13.065
				c-0.941-1.471-3.022-0.493-2.72,1.147c0.712,3.864,0.975,9.369,3.244,12.669c0.591,0.859,1.548,0.915,2.337,0.301
				c2.034-1.401,3.989-1.628,5.866-0.68c1.137,0.431,2.046-0.824,1.831-1.831c-2.124-9.947-2.775-20.304-6.188-29.941
				c-0.546-1.541-2.923-1.352-2.923,0.396c0,2.157,0,4.314,0,6.47c0,1.641,2.608,2.08,2.923,0.396
				c0.469-2.502,0.564-5.005,1.031-7.502c-0.957,0-1.913,0-2.87,0c0.799,5.068,0.975,10.05,0.978,15.169
				c0.001,1.637,2.623,2.085,2.923,0.396c1.257-7.08,0.547-14.446,2.063-21.47c-0.974-0.132-1.949-0.264-2.923-0.396
				c-0.147,2.082-1.166,10.424-2.357,11.091c0.746,0.428,1.493,0.857,2.239,1.285c0.155-1.902,2.385-4.168,3.041-6.075
				c0.288-0.836-0.496-2.009-1.435-1.884c-2.153,0.288-4.675,1.631-6.824,1.085c-0.132,0.974-0.264,1.949-0.396,2.923
				c1.031,0,2.063,0,3.094,0c1.122,0,1.863-1.266,1.285-2.239c-0.876-1.476-3.516-1.036-4.125-2.063
				c-0.56,0.729-1.12,1.457-1.681,2.186c2.551,0.547,4.564,1.804,6.605-0.383c0.938-1.005,0.224-2.421-1.052-2.54
				c-1.606-0.15-3.199-0.593-4.761-0.978c-0.264,0.957-0.527,1.913-0.791,2.87c3.486,0.682,6.856-0.676,10.314,0
				c0.939,0.184,1.884-0.412,1.884-1.435c0-0.594,0-1.187,0-1.781c0-1.414-1.572-1.815-2.541-1.052c-1.151,0.905-0.073,3.9,0,3.843
				c-0.452,0.356-2.197-0.639-3.327,1.615c0.779-0.1,1.558-0.201,2.337-0.301c-2.364-2.828-3.641-1.073-6.845-1.696
				c-1.26-0.245-2.351,0.986-1.681,2.186c1.574,2.817,4.162,2.519,6.463,0.583c0.372-0.313,0.55-0.992,0.383-1.448
				c-1.058-2.88-4.411-4.827-6.571-6.845c-1.238-1.157-3.163,0.306-2.337,1.803c3.758,6.814,4.366,14.923,7.069,22.146
				c0.957-0.264,1.913-0.527,2.87-0.791c-2.743-7.285-3.821-15.095-6.188-22.502c-0.587-1.835-3.261-1.083-2.87,0.791
				c1.513,7.253,3.516,14.556,6.188,21.47c0.829-0.483,1.658-0.965,2.487-1.448c-4.967-5.643-4.478-14.674-8.018-21.169
				c-0.581-1.067-2.496-0.935-2.72,0.355c-0.884,5.104,3.723,9.587,5.157,14.199c0.485,1.56,3.006,1.334,2.923-0.396
				c-0.081-1.705-0.114-3.884-1.427-5.189c-1.837-1.826-3.699-2.016-4.814-4.771c-0.228,0.56-0.456,1.12-0.684,1.681
				c3.943-1.959,8.614,1.855,12.376,0c1.147-0.566,0.864-2.448-0.355-2.72c-1.629-0.363-4.133-2.383-5.573-0.649
				c-0.797,0.96-0.336,2.54,1.052,2.54c1.375,0,2.75,0,4.125,0c-0.132-0.974-0.264-1.949-0.396-2.923
				c-3.775,0.747-7.065-0.519-10.669,1.181c-0.772,0.364-0.864,1.359-0.534,2.036c2.687,5.513,6.495,12.696,7.016,18.939
				c0.159,1.898,3.136,1.914,2.976,0c-0.573-6.864-4.444-14.328-7.423-20.441c-0.178,0.679-0.356,1.357-0.534,2.036
				c3.084-1.455,6.705-0.238,9.958-0.881c1.68-0.332,1.249-2.923-0.396-2.923c-1.375,0-2.75,0-4.125,0
				c0.351,0.847,0.702,1.694,1.052,2.54c-1.083,0.199-0.818,0.455,0.794,0.767c0.622,0.274,1.221,0.499,1.883,0.647
				c-0.118-0.907-0.237-1.813-0.355-2.72c-1.194,0.589-4.442-0.603-5.78-0.744c-2.331-0.246-4.47-0.312-6.596,0.744
				c-0.543,0.27-0.919,1.101-0.684,1.681c1.511,3.734,5.946,5.206,6.135,9.169c0.974-0.132,1.949-0.264,2.923-0.396
				c-1.156-3.719-5.832-8.718-5.157-12.616c-0.907,0.118-1.813,0.237-2.72,0.355c3.717,6.821,3.192,15.76,8.484,21.771
				c0.955,1.085,3.026-0.055,2.487-1.448c-2.672-6.914-4.675-14.218-6.188-21.47c-0.957,0.264-1.913,0.527-2.87,0.791
				c2.367,7.406,3.445,15.216,6.188,22.502c0.669,1.778,3.545,1.011,2.87-0.791c-2.799-7.479-3.475-15.794-7.369-22.857
				c-0.779,0.601-1.558,1.202-2.337,1.803c0.854,0.798,1.745,1.556,2.624,2.327c0.57,0.501,1.131,1.013,1.683,1.535
				c0.246,0.243,0.493,0.487,0.739,0.73c1.282-0.274,1.067-0.437-0.646-0.489c-0.56,0.729-1.12,1.457-1.681,2.186
				c1.669,0.325,4.364-0.466,5.531,0.931c0.596,0.713,1.93,0.511,2.337-0.301c0.013-0.025,2.245-0.297,2.861-1.012
				c0.662-0.769,0.404-4.161,0-3.843c-0.847-0.351-1.694-0.702-2.54-1.052c0,0.594,0,1.187,0,1.781
				c0.628-0.478,1.256-0.957,1.884-1.435c-3.486-0.682-6.856,0.676-10.314,0c-1.864-0.365-2.671,2.406-0.791,2.87
				c1.83,0.452,3.672,0.909,5.552,1.085c-0.351-0.847-0.702-1.694-1.052-2.54c-0.92,0.986-2.694-0.165-3.709-0.383
				c-1.24-0.266-2.379,1.009-1.681,2.186c0.876,1.476,3.516,1.036,4.125,2.063c0.428-0.746,0.857-1.493,1.285-2.239
				c-1.031,0-2.063,0-3.094,0c-1.672,0-2.038,2.506-0.396,2.923c2.804,0.713,4.85-0.609,7.615-0.978
				c-0.478-0.628-0.957-1.256-1.435-1.884c-1.016,2.952-2.883,3.625-3.147,6.866c-0.095,1.167,1.322,1.799,2.239,1.285
				c3.089-1.73,3.608-10.492,3.831-13.661c0.118-1.678-2.571-2.029-2.923-0.396c-1.519,7.038-0.805,14.388-2.063,21.47
				c0.974,0.132,1.949,0.264,2.923,0.396c-0.003-5.387-0.245-10.635-1.085-15.96c-0.228-1.446-2.607-1.406-2.87,0
				c-0.469,2.502-0.564,5.005-1.031,7.502c0.974,0.132,1.949,0.264,2.923,0.396c0-2.157,0-4.314,0-6.47
				c-0.974,0.132-1.949,0.264-2.923,0.396c3.413,9.636,4.065,19.994,6.188,29.941c0.61-0.61,1.22-1.22,1.831-1.831
				c-3.271-1.24-6.049-0.663-8.761,1.445c0.779,0.1,1.558,0.201,2.337,0.301c-2.078-3.022-2.287-8.393-2.944-11.958
				c-0.907,0.382-1.813,0.764-2.72,1.147c1.858,2.903,1.545,8.181,1.86,11.562c0.088,0.948,0.884,1.711,1.884,1.435
				c3.3-0.912,6.614-0.998,10.012-1.01c0.784-0.003,1.524-0.675,1.488-1.488c-0.167-3.772-0.865-7.51-1.031-11.282
				c-0.924,0.25-1.849,0.501-2.773,0.751c0.743,1.054,0.996,2.471,1.319,3.698c0.277,1.055,0.574,5.015,1.278,4.516
				c-0.691,0.49-0.927,1.264-0.534,2.036c0.145,0.285,0.29,0.569,0.435,0.854c0.794,1.558,3.087,0.443,2.72-1.147
				c-0.89-3.859-0.254-9.191-2.648-12.492c-0.683-0.942-2.442-1.033-2.72,0.355c-0.67,3.342-0.542,6.709-1.913,9.895
				c0.924,0.25,1.849,0.501,2.773,0.751c0-1.698,0-3.396,0-5.094c0-1.636-2.638-2.087-2.923-0.396
				c-0.344,2.042-0.688,4.084-1.031,6.125c0.729-0.296,1.457-0.593,2.186-0.889c-0.559-0.363-0.29-4.961-0.294-5.872
				c-0.009-1.922-2.927-1.916-2.976,0c-0.014,0.547,0.191,1.499-0.294,1.809c0.729,0.296,1.457,0.593,2.186,0.889
				c-0.344-1.031-0.688-2.063-1.031-3.094c-0.365-1.095-2.155-1.627-2.72-0.355c-0.771,1.735-0.572,2.343-0.15,4.241
				c0.829-0.483,1.658-0.965,2.487-1.448c-0.218-0.178-0.458-3.13-0.799-3.824c-0.671-1.369-2.773-0.664-2.773,0.751
				c0,2.386,0,4.771,0,7.157c0.924-0.25,1.849-0.501,2.773-0.751c-1.669-2.34-1.044-5.221-1.913-7.833
				c-0.461-1.387-2.435-1.449-2.87,0c-0.923,3.074,0.907,6.2,0,9.219c0.957,0,1.913,0,2.87,0c-0.841-3.38,2.862-6.63,1.969-10.219
				c-0.438-1.762-2.728-1.159-2.923,0.396c-0.384,3.057-0.882,6.141-1.031,9.219c0.974-0.132,1.949-0.264,2.923-0.396
				c-1.381-3.34-1.23-7.565-3.244-10.606c-0.984-1.485-2.952-0.483-2.72,1.147c0.395,2.78,1.948,5.131,3.244,7.575
				c0.857-0.501,1.713-1.001,2.57-1.502c-1.646-2.326-0.96-4.923-0.828-7.5c-0.992,0-1.984,0-2.976,0
				c0,2.699,1.168,4.524,1.362,7.253c0.197,2.768-0.193,5.895,0.753,8.551c0.314,0.881,1.318,1.422,2.186,0.889
				c2.197-1.346,6.121-0.853,8.625-0.86c0.811-0.002,1.488-0.675,1.488-1.488c0-2.729,0-5.459,0-8.188c0-1.919-2.976-1.919-2.976,0
				c0,1.698,0,3.396,0,5.094c0,0.484,0.274,1.073,0.737,1.285c0.045,0.021,0.09,0.041,0.135,0.062
				c0.681,0.312,1.671,0.252,2.036-0.534c1.357-2.918-1.252-8.544-2.048-11.459c-0.248-0.907-1.368-1.402-2.186-0.889
				c-1.931,1.208-5.208,0.643-7.198-0.119c0,0.957,0,1.913,0,2.87c1.025-0.186,1.893-0.472,2.755-1.047
				c0.965-0.643,0.947-1.923,0-2.57c-0.913-0.623-2.104-0.353-3.151-0.338c0.132,0.974,0.264,1.949,0.396,2.923
				c1.54-0.36,1.336,0.467,2.772,1.649c1.047,0.862,3.015,0.094,2.487-1.448c-2.765-8.075-6.636-15.534-10.464-23.139
				C42.755,41.578,40.188,43.086,41.048,44.796L41.048,44.796z"/>
		</g>
	</g>
</g>
<g>
	<g>
		<g>
			<path fill="#3D3D3D" d="M106.923,43.764c3.817,8.482,8.159,16.709,11.195,25.522c0.621,1.803,3.497,1.028,2.87-0.791
				c-3.12-9.056-7.572-17.516-11.495-26.233C108.706,40.514,106.142,42.029,106.923,43.764L106.923,43.764z"/>
		</g>
	</g>
	<g>
		<g>
			<path fill="#3D3D3D" d="M126.369,43.649c-1.853,9.391-3.208,18.815-4.179,28.336c-0.195,1.909,2.784,1.89,2.976,0
				c0.943-9.256,2.271-18.417,4.072-27.545C129.609,42.566,126.74,41.767,126.369,43.649L126.369,43.649z"/>
		</g>
	</g>
	<g>
		<g>
			<path fill="#3D3D3D" d="M118.118,42.66c1.235,9.003,1.948,18.175,2.01,27.263c0.013,1.919,2.989,1.92,2.976,0
				c-0.063-9.36-0.844-18.783-2.116-28.054C120.728,39.974,117.86,40.783,118.118,42.66L118.118,42.66z"/>
		</g>
	</g>
	<g>
		<g>
			<path fill="#3D3D3D" d="M111.048,44.796c3.71,7.372,7.482,14.598,10.164,22.428c0.729-0.56,1.457-1.12,2.186-1.681
				c-3.062-2.012-4.84-2.044-8.366-1.181c-1.6,0.391-1.289,3.14,0.396,2.923c0.848-0.109,4.192-1.352,4.534-1.164
				c-0.1-0.779-0.201-1.558-0.301-2.337c-1.118,0.866-3.225,1.403-4.629,1.609c-1.587,0.233-1.24,2.437,0,2.87
				c3.299,1.151,9.514,0.779,12.492-1.181c-0.729-0.296-1.457-0.593-2.186-0.889c0.385,1.537,0.75,3.078,1.107,4.622
				c0.278,1.206,1.323,5.352,1.236,5.538c0.679-0.178,1.357-0.356,2.036-0.534c0.482,1.246,0.684,1.445,0.607,0.595
				c0-0.804,0-1.609,0-2.413c0-1.016,0-2.031,0-3.047c0-1.919-2.976-1.919-2.976,0c0,3.063,0,6.125,0,9.188
				c0.496-0.496,0.992-0.992,1.488-1.488c-3.796,0.101-9.866,0.111-13.127,2.266c0.729,0.296,1.457,0.593,2.186,0.889
				c-1.002-2.775-0.524-6.337-0.704-9.251c-0.148-2.392-1.306-4.57-1.306-6.761c0-1.924-2.917-1.914-2.976,0
				c-0.118,3.793-1.197,8.704,1.235,12.002c0.92,1.247,3.373,0.553,2.72-1.147c-1.17-3.044-1.029-6.601-1.041-9.824
				c-0.924,0.25-1.849,0.501-2.773,0.751c1.657,2.907-0.211,7.628,0.944,10.895c0.558,1.579,2.847,1.323,2.923-0.396
				c0.151-3.411,0.652-6.828,1.031-10.219c-0.974,0.132-1.949,0.264-2.923,0.396c1.127,3.276-0.104,6.917,1.031,10.219
				c0.474,1.38,2.427,1.456,2.87,0c1.027-3.374-1.011-6.899,0-10.219c-0.957,0-1.913,0-2.87,0c1.107,3.187,0.103,6.668,2.213,9.544
				c0.831,1.133,2.773,0.84,2.773-0.751c0-2.719,0-5.438,0-8.157c-0.924,0.25-1.849,0.501-2.773,0.751
				c0.75,1.532-0.174,3.252,1.264,4.427c1.14,0.931,2.827,0.081,2.487-1.448c-0.25-0.636-0.3-1.285-0.15-1.947
				c-0.907-0.118-1.813-0.237-2.72-0.355c0.344,1.031,0.688,2.063,1.031,3.094c0.292,0.876,1.338,1.431,2.186,0.889
				c1.537-0.983,1.724-2.639,1.768-4.379c-0.992,0-1.984,0-2.976,0c0.008,2.422-0.665,7.923,1.768,9.442
				c0.743,0.464,2.048,0.063,2.186-0.889c0.344-2.375,0.688-4.75,1.031-7.125c-0.974-0.132-1.949-0.264-2.923-0.396
				c0,2.031,0,4.063,0,6.094c0,1.805,2.314,1.86,2.923,0.396c1.547-3.718,1.307-7.355,2.063-11.251
				c-0.907,0.118-1.813,0.237-2.72,0.355c2.173,2.944,1.495,9.084,2.348,12.781c0.907-0.382,1.813-0.764,2.72-1.147
				c-0.145-0.285-0.29-0.569-0.435-0.854c-0.178,0.679-0.356,1.357-0.534,2.036c2.796-2.034,0.035-11.021-1.529-13.287
				c-0.788-1.143-2.835-0.83-2.773,0.751c0.16,4.104,0.871,8.178,1.031,12.282c0.496-0.496,0.992-0.992,1.488-1.488
				c-4.598,0.121-9.394,0.8-13.803,2.116c0.628,0.478,1.256,0.957,1.884,1.435c0.301-3.896,1.786-10.526-0.266-14.065
				c-0.741-1.278-2.783-0.732-2.773,0.751c0.027,4.003-0.872,10.523,1.297,14.065c0.542,0.885,1.587,0.901,2.337,0.301
				c2.222-1.776,6.187-2.587,8.866-1.68c1.141,0.386,2.052-0.792,1.831-1.831c-2.184-10.26-2.676-20.997-6.188-30.941
				c-0.545-1.543-2.923-1.351-2.923,0.396c0,2.157,0,4.314,0,6.47c0,1.641,2.608,2.08,2.923,0.396
				c0.469-2.502,0.564-5.005,1.031-7.502c-0.957,0-1.913,0-2.87,0c0.799,5.068,0.975,10.05,0.978,15.169
				c0.001,1.637,2.623,2.085,2.923,0.396c1.257-7.08,0.547-14.446,2.063-21.47c-0.974-0.132-1.949-0.264-2.923-0.396
				c-0.147,2.082-1.166,10.424-2.357,11.091c0.746,0.428,1.493,0.857,2.239,1.285c0.155-1.902,2.384-4.168,3.041-6.075
				c0.288-0.836-0.496-2.009-1.435-1.884c-2.153,0.288-4.675,1.631-6.824,1.085c-0.132,0.974-0.264,1.949-0.396,2.923
				c1.031,0,2.063,0,3.094,0c1.122,0,1.863-1.266,1.285-2.239c-0.876-1.476-3.516-1.036-4.125-2.063
				c-0.56,0.729-1.12,1.457-1.681,2.186c2.551,0.547,4.564,1.804,6.605-0.383c0.938-1.005,0.224-2.421-1.052-2.54
				c-1.606-0.15-3.199-0.593-4.761-0.978c-0.264,0.957-0.527,1.913-0.791,2.87c3.486,0.682,6.856-0.676,10.314,0
				c0.939,0.184,1.884-0.412,1.884-1.435c0-0.594,0-1.187,0-1.781c0-1.414-1.572-1.815-2.54-1.052c-1.151,0.905-0.073,3.9,0,3.843
				c-0.452,0.356-2.197-0.639-3.327,1.615c0.779-0.1,1.558-0.201,2.337-0.301c-2.364-2.828-3.641-1.073-6.845-1.696
				c-1.26-0.245-2.351,0.986-1.681,2.186c1.574,2.817,4.162,2.519,6.463,0.583c0.372-0.313,0.55-0.992,0.383-1.448
				c-1.058-2.88-4.411-4.827-6.571-6.845c-1.238-1.157-3.163,0.306-2.337,1.803c3.758,6.814,4.366,14.923,7.069,22.146
				c0.957-0.264,1.913-0.527,2.87-0.791c-2.743-7.285-3.821-15.095-6.188-22.502c-0.587-1.835-3.261-1.083-2.87,0.791
				c1.513,7.253,3.516,14.556,6.188,21.47c0.829-0.483,1.658-0.965,2.487-1.448c-4.967-5.643-4.478-14.674-8.018-21.169
				c-0.581-1.067-2.496-0.935-2.72,0.355c-0.884,5.104,3.723,9.587,5.157,14.199c0.485,1.56,3.006,1.334,2.923-0.396
				c-0.081-1.705-0.114-3.884-1.427-5.189c-1.837-1.826-3.699-2.016-4.814-4.771c-0.228,0.56-0.456,1.12-0.684,1.681
				c3.943-1.959,8.614,1.855,12.376,0c1.147-0.566,0.864-2.448-0.355-2.72c-1.629-0.363-4.133-2.383-5.573-0.649
				c-0.797,0.96-0.336,2.54,1.052,2.54c1.375,0,2.75,0,4.125,0c-0.132-0.974-0.264-1.949-0.396-2.923
				c-3.775,0.747-7.065-0.519-10.669,1.181c-0.772,0.364-0.864,1.359-0.534,2.036c2.687,5.513,6.495,12.696,7.016,18.939
				c0.159,1.898,3.136,1.914,2.976,0c-0.573-6.864-4.444-14.328-7.423-20.441c-0.178,0.679-0.356,1.357-0.534,2.036
				c3.084-1.455,6.705-0.238,9.958-0.881c1.68-0.332,1.249-2.923-0.396-2.923c-1.375,0-2.75,0-4.125,0
				c0.351,0.847,0.702,1.694,1.052,2.54c-1.083,0.199-0.818,0.455,0.794,0.767c0.622,0.274,1.221,0.499,1.883,0.647
				c-0.118-0.907-0.237-1.813-0.355-2.72c-1.194,0.589-4.442-0.603-5.78-0.744c-2.331-0.246-4.47-0.312-6.596,0.744
				c-0.543,0.27-0.919,1.101-0.684,1.681c1.511,3.734,5.946,5.206,6.135,9.169c0.974-0.132,1.949-0.264,2.923-0.396
				c-1.156-3.719-5.832-8.718-5.157-12.616c-0.907,0.118-1.813,0.237-2.72,0.355c3.717,6.821,3.192,15.76,8.484,21.771
				c0.955,1.085,3.026-0.055,2.487-1.448c-2.672-6.914-4.675-14.218-6.188-21.47c-0.957,0.264-1.913,0.527-2.87,0.791
				c2.367,7.406,3.445,15.216,6.188,22.502c0.669,1.778,3.545,1.011,2.87-0.791c-2.799-7.479-3.475-15.794-7.369-22.857
				c-0.779,0.601-1.558,1.202-2.337,1.803c0.854,0.798,1.745,1.556,2.624,2.327c0.57,0.501,1.131,1.013,1.683,1.535
				c0.246,0.243,0.493,0.487,0.739,0.73c1.282-0.274,1.067-0.437-0.646-0.489c-0.56,0.729-1.12,1.457-1.681,2.186
				c1.669,0.325,4.364-0.466,5.531,0.931c0.596,0.713,1.93,0.511,2.337-0.301c0.013-0.025,2.245-0.297,2.861-1.012
				c0.662-0.769,0.404-4.161,0-3.843c-0.847-0.351-1.694-0.702-2.541-1.052c0,0.594,0,1.187,0,1.781
				c0.628-0.478,1.256-0.957,1.884-1.435c-3.486-0.682-6.856,0.676-10.314,0c-1.864-0.365-2.671,2.406-0.791,2.87
				c1.83,0.452,3.672,0.909,5.552,1.085c-0.351-0.847-0.702-1.694-1.052-2.54c-0.92,0.986-2.694-0.165-3.709-0.383
				c-1.24-0.266-2.379,1.009-1.681,2.186c0.876,1.476,3.516,1.036,4.125,2.063c0.428-0.746,0.857-1.493,1.285-2.239
				c-1.031,0-2.063,0-3.094,0c-1.672,0-2.038,2.506-0.396,2.923c2.804,0.713,4.85-0.609,7.615-0.978
				c-0.478-0.628-0.957-1.256-1.435-1.884c-1.016,2.952-2.883,3.625-3.147,6.866c-0.095,1.167,1.322,1.799,2.239,1.285
				c3.089-1.73,3.608-10.492,3.831-13.661c0.118-1.678-2.571-2.029-2.923-0.396c-1.519,7.038-0.805,14.388-2.063,21.47
				c0.974,0.132,1.949,0.264,2.923,0.396c-0.003-5.387-0.245-10.635-1.085-15.96c-0.228-1.446-2.607-1.406-2.87,0
				c-0.469,2.502-0.564,5.005-1.031,7.502c0.974,0.132,1.949,0.264,2.923,0.396c0-2.157,0-4.314,0-6.47
				c-0.974,0.132-1.949,0.264-2.923,0.396c3.512,9.944,4.004,20.68,6.188,30.941c0.61-0.61,1.22-1.22,1.831-1.831
				c-3.804-1.287-8.701,0-11.761,2.445c0.779,0.1,1.558,0.201,2.337,0.301c-1.782-2.909-0.869-9.199-0.891-12.562
				c-0.924,0.25-1.849,0.501-2.773,0.751c1.621,2.796,0.104,9.398-0.14,12.562c-0.074,0.962,1.007,1.697,1.884,1.435
				c4.185-1.249,8.65-1.894,13.012-2.01c0.786-0.021,1.52-0.661,1.488-1.488c-0.16-4.104-0.871-8.178-1.031-12.282
				c-0.924,0.25-1.849,0.501-2.773,0.751c0.885,1.283,1.116,3.158,1.45,4.649c0.245,1.09,0.437,5.082,1.146,4.566
				c-0.685,0.499-0.931,1.257-0.534,2.036c0.145,0.285,0.29,0.569,0.435,0.854c0.794,1.558,3.087,0.443,2.72-1.147
				c-0.947-4.104-0.069-9.998-2.648-13.492c-0.685-0.927-2.448-1.045-2.72,0.355c-0.738,3.807-0.552,7.618-2.063,11.251
				c0.974,0.132,1.949,0.264,2.923,0.396c0-2.031,0-4.063,0-6.094c0-1.632-2.678-2.093-2.923-0.396
				c-0.344,2.375-0.688,4.75-1.031,7.125c0.729-0.296,1.457-0.593,2.186-0.889c-0.607-0.379-0.291-5.842-0.294-6.872
				c-0.007-1.922-2.927-1.915-2.976,0c-0.014,0.547,0.191,1.499-0.294,1.809c0.729,0.296,1.457,0.593,2.186,0.889
				c-0.344-1.031-0.688-2.063-1.031-3.094c-0.365-1.095-2.155-1.627-2.72-0.355c-0.771,1.735-0.572,2.343-0.15,4.241
				c0.829-0.483,1.658-0.965,2.487-1.448c-0.218-0.178-0.458-3.13-0.799-3.824c-0.671-1.369-2.773-0.664-2.773,0.751
				c0,2.719,0,5.438,0,8.157c0.924-0.25,1.849-0.501,2.773-0.751c-1.876-2.556-0.914-5.957-1.913-8.833
				c-0.478-1.376-2.426-1.459-2.87,0c-1.027,3.374,1.011,6.898,0,10.219c0.957,0,1.913,0,2.87,0
				c-1.127-3.276,0.104-6.917-1.031-10.219c-0.57-1.656-2.739-1.253-2.923,0.396c-0.38,3.392-0.88,6.809-1.031,10.219
				c0.974-0.132,1.949-0.264,2.923-0.396c-1.277-3.614,0.686-8.221-1.244-11.606c-0.735-1.29-2.779-0.723-2.773,0.751
				c0.013,3.467-0.116,7.33,1.147,10.615c0.907-0.382,1.813-0.764,2.72-1.147c-2.026-2.749-0.928-7.287-0.828-10.5
				c-0.992,0-1.984,0-2.976,0c0,2.803,1.192,4.921,1.369,7.79c0.178,2.89-0.254,6.244,0.746,9.013
				c0.308,0.854,1.33,1.455,2.186,0.889c2.865-1.893,8.274-1.77,11.625-1.86c0.811-0.022,1.488-0.661,1.488-1.488
				c0-3.063,0-6.125,0-9.188c0-1.919-2.976-1.919-2.976,0c0,2.031,0,4.063,0,6.094c0,0.475,0.273,1.085,0.737,1.285
				c0.043,0.019,0.086,0.037,0.13,0.056c0.69,0.298,1.661,0.262,2.036-0.534c1.469-3.118-1.251-9.297-2.042-12.453
				c-0.226-0.899-1.389-1.414-2.186-0.889c-2.378,1.566-7.563,1.801-10.198,0.881c0,0.957,0,1.913,0,2.87
				c1.968-0.289,4.355-1.145,5.942-2.375c0.76-0.589,0.465-1.916-0.301-2.337c-1.651-0.907-4.368,0.543-6.037,0.757
				c0.132,0.974,0.264,1.949,0.396,2.923c2.648-0.648,3.821-0.598,6.073,0.881c1.068,0.702,2.604-0.459,2.186-1.681
				c-2.765-8.075-6.636-15.534-10.464-23.139C112.755,41.578,110.188,43.086,111.048,44.796L111.048,44.796z"/>
		</g>
	</g>
</g>
<g>
	<path fill="#FFFFFF" d="M158.48,41.71c0.922-15.039,0.749-24.215-0.612-37.237C119.553,2.123,54.36,6.928,4.897,3.896
		C4.37,12.49,1.166,29.545,5.072,36.254c53.574,7.198,91.6,7.791,153.539,3.308L158.48,41.71z"/>
	<g>
		<path fill="#3D3D3D" d="M159.968,41.71c0.737-12.478,0.654-24.797-0.612-37.237c-0.086-0.845-0.614-1.437-1.488-1.488
			C106.943-0.022,55.859,5.441,4.897,2.408C4.045,2.357,3.462,3.126,3.408,3.896C2.967,10.22,2.029,16.492,1.73,22.829
			c-0.149,3.156-0.866,12.685,2.591,14.71c2.552,1.495,7.886,1.136,10.83,1.501c4.313,0.535,8.632,1.022,12.954,1.484
			c8.249,0.881,16.516,1.586,24.793,2.141c35.234,2.366,70.531,0.91,105.713-1.616c-0.496-0.496-0.992-0.992-1.488-1.488
			c-0.044,0.716-0.088,1.432-0.132,2.148C156.874,43.628,159.851,43.616,159.968,41.71c0.044-0.716,0.088-1.432,0.132-2.148
			c0.047-0.769-0.714-1.544-1.488-1.488c-32.665,2.345-65.392,3.739-98.125,2.065c-15.157-0.775-30.272-2.238-45.335-4.074
			c-2.655-0.324-8.762,0.157-9.696-2.799c-1.04-3.292-0.854-7.029-0.749-10.436c0.196-6.338,1.237-12.613,1.678-18.932
			C5.889,4.392,5.393,4.888,4.897,5.385c50.962,3.032,102.046-2.43,152.971,0.577c-0.496-0.496-0.992-0.992-1.488-1.488
			c1.266,12.44,1.349,24.759,0.612,37.237C156.878,43.628,159.855,43.617,159.968,41.71z"/>
	</g>
</g>
<g>
	<g>
		<g>
			<g>
				<path fill="#4B4B4B" d="M145.452,21.035c-0.528,2.083-0.508,4.343-0.538,6.48c-0.025,1.788,2.746,1.785,2.771,0
					c0.026-1.889-0.028-3.903,0.439-5.744C148.563,20.039,145.891,19.304,145.452,21.035L145.452,21.035z"/>
			</g>
		</g>
		<g>
			<g>
				<path fill="#4B4B4B" d="M145.798,23.147c1.32,1.685,2.746,3.22,3.754,5.128c0.835,1.58,3.227,0.18,2.392-1.398
					c-1.117-2.112-2.726-3.823-4.187-5.689C146.656,19.783,144.709,21.758,145.798,23.147L145.798,23.147z"/>
			</g>
		</g>
		<g>
			<g>
				<path fill="#4B4B4B" d="M149.447,21.459c-0.021,1.529-0.042,3.059-0.063,4.588c-0.025,1.788,2.746,1.785,2.771,0
					c0.021-1.529,0.042-3.059,0.063-4.588C152.242,19.671,149.471,19.674,149.447,21.459L149.447,21.459z"/>
			</g>
		</g>
	</g>
	<g>
		<g>
			<g>
				<path fill="#4B4B4B" d="M137.61,20.484c1.238,1.001,2.399,2.161,2.965,3.682c0.724,1.945-0.714,3.089-2.33,3.838
					c0.356-0.047,0.712-0.093,1.067-0.14c-2.786-0.533-1.865-6.023-0.024-7.164c1.515-0.939,0.125-3.336-1.398-2.392
					c-3.551,2.201-4.704,10.455,0.083,12.07c2.548,0.859,5.374-2.28,5.545-4.673c0.208-2.92-1.802-5.443-3.949-7.18
					C138.194,17.412,136.22,19.36,137.61,20.484z"/>
			</g>
		</g>
	</g>
	<g>
		<g>
			<g>
				<path fill="#4B4B4B" d="M103.637,20.017c1.238,1.001,2.399,2.161,2.965,3.682c0.724,1.945-0.714,3.089-2.33,3.838
					c0.356-0.047,0.712-0.093,1.067-0.14c-2.786-0.533-1.865-6.023-0.024-7.164c1.515-0.939,0.125-3.336-1.398-2.392
					c-3.551,2.201-4.704,10.455,0.083,12.07c2.548,0.859,5.374-2.28,5.545-4.673c0.208-2.92-1.802-5.443-3.949-7.18
					C104.22,16.945,102.247,18.893,103.637,20.017z"/>
			</g>
		</g>
	</g>
	<g>
		<g>
			<g>
				<path fill="#4B4B4B" d="M126.927,20.186c-0.559,1.334-0.462,3.199-0.576,4.617c-0.123,1.537-0.254,3.084-0.294,4.626
					c-0.046,1.788,2.725,1.783,2.771,0c0.037-1.418,0.159-2.838,0.265-4.253c0.098-1.311-0.012-3.02,0.506-4.254
					C130.289,19.275,127.607,18.564,126.927,20.186L126.927,20.186z"/>
			</g>
		</g>
		<g>
			<g>
				<path fill="#4B4B4B" d="M128.263,21.94c0.965-0.064,1.55-0.671,2.119-1.38c0.097-0.121,0.198-0.239,0.305-0.352
					c0.11-0.102,0.074-0.079-0.109,0.069c-0.286,0.216-1.084,0.073-1.452-0.422c0.064,0.118,0.057,0.097-0.02-0.063
					c0.049,0.136,0.075,0.283,0.103,0.424c0.069,0.338,0.079,0.689,0.102,1.031c0.135-0.327,0.271-0.653,0.406-0.98
					c-0.973,1.142-2.252,1.757-3.595,2.37c-0.687,0.314-0.849,1.294-0.497,1.895c0.41,0.7,1.208,0.811,1.895,0.497
					c1.389-0.634,2.713-1.324,3.808-2.412c0.281-0.28,0.596-0.611,0.704-1.002c0.12-0.436,0.01-0.947-0.043-1.388
					c-0.073-0.614-0.16-1.224-0.471-1.771c-0.631-1.11-1.975-0.995-2.791-0.208c-0.209,0.202-0.38,0.447-0.563,0.672
					c-0.105,0.129-0.216,0.251-0.334,0.368c-0.114,0.101-0.089,0.084,0.076-0.05c-0.176,0.127,0.296-0.066,0.357-0.07
					C126.49,19.287,126.478,22.058,128.263,21.94L128.263,21.94z"/>
			</g>
		</g>
		<g>
			<g>
				<path fill="#4B4B4B" d="M129.124,23.922c1.015,2.042,1.684,4.241,2.699,6.284c0.795,1.6,3.184,0.196,2.392-1.398
					c-1.015-2.042-1.684-4.241-2.699-6.284C130.722,20.923,128.332,22.327,129.124,23.922L129.124,23.922z"/>
			</g>
		</g>
	</g>
	<g>
		<g>
			<g>
				<path fill="#4B4B4B" d="M120.844,18.761c-0.081,3.809-0.833,7.989-0.107,11.754c0.338,1.753,3.008,1.009,2.672-0.737
					c-0.669-3.467,0.132-7.496,0.206-11.017C123.652,16.973,120.881,16.977,120.844,18.761L120.844,18.761z"/>
			</g>
		</g>
		<g>
			<g>
				<path fill="#4B4B4B" d="M121.174,20.593c1.632-0.71,3.481-1.04,5.252-1.049c1.786-0.01,1.787-2.78,0-2.771
					c-2.291,0.012-4.552,0.515-6.65,1.427C118.141,18.912,119.553,21.298,121.174,20.593L121.174,20.593z"/>
			</g>
		</g>
	</g>
	<g>
		<g>
			<g>
				<path fill="#4B4B4B" d="M9.275,17.258c-0.046,3.324-0.091,6.649-0.137,9.973c-0.025,1.788,2.746,1.785,2.771,0
					c0.046-3.324,0.091-6.649,0.137-9.973C12.07,15.47,9.3,15.473,9.275,17.258L9.275,17.258z"/>
			</g>
		</g>
		<g>
			<g>
				<path fill="#4B4B4B" d="M10.504,30.041c1.256,0.017,2.512,0.035,3.767,0.052c1.788,0.025,1.785-2.746,0-2.771
					c-1.256-0.017-2.512-0.035-3.767-0.052C8.716,27.246,8.718,30.016,10.504,30.041L10.504,30.041z"/>
			</g>
		</g>
	</g>
	<g>
		<g>
			<g>
				<path fill="#4B4B4B" d="M21.47,24.888c0.165-1.169,0.135-5.527,1.783-5.619c-0.445-0.339-0.891-0.678-1.336-1.017
					c0.525,3.638,2.358,6.897,2.883,10.535c0.254,1.763,2.924,1.01,2.672-0.737c-0.525-3.638-2.358-6.897-2.883-10.535
					c-0.083-0.576-0.782-1.048-1.336-1.017c-3.964,0.222-4.025,4.612-4.455,7.653C18.552,25.898,21.221,26.651,21.47,24.888
					L21.47,24.888z"/>
			</g>
		</g>
		<g>
			<g>
				<path fill="#4B4B4B" d="M18.829,24.734c3.014-1.536,6.025-2.519,9.431-2.534c1.786-0.008,1.787-2.779,0-2.771
					c-3.889,0.017-7.389,1.159-10.829,2.912C15.838,23.153,17.241,25.543,18.829,24.734L18.829,24.734z"/>
			</g>
		</g>
	</g>
	<g>
		<g>
			<g>
				<g>
					<path fill="#4B4B4B" d="M74.797,18.922c-0.037,2.665-0.073,5.33-0.11,7.994c-0.025,1.788,2.746,1.785,2.771,0
						c0.037-2.665,0.073-5.33,0.11-7.994C77.592,17.135,74.821,17.137,74.797,18.922L74.797,18.922z"/>
				</g>
			</g>
			<g>
				<g>
					<path fill="#4B4B4B" d="M76.056,29.444c1.007,0.014,2.013,0.028,3.02,0.042c1.788,0.025,1.785-2.746,0-2.771
						c-1.007-0.014-2.013-0.028-3.02-0.042C74.269,26.649,74.271,29.42,76.056,29.444L76.056,29.444z"/>
				</g>
			</g>
		</g>
		<g>
			<g>
				<g>
					<path fill="#4B4B4B" d="M83.163,18.649c-0.817,3.252-0.929,6.985-0.591,10.304c0.179,1.76,2.952,1.777,2.771,0
						c-0.314-3.077-0.266-6.552,0.492-9.567C86.27,17.652,83.598,16.917,83.163,18.649L83.163,18.649z"/>
				</g>
			</g>
			<g>
				<g>
					<path fill="#4B4B4B" d="M83.958,30.338c0.944,0.013,1.887,0.026,2.831,0.039c1.788,0.025,1.785-2.746,0-2.771
						c-0.944-0.013-1.887-0.026-2.831-0.039C82.17,27.543,82.173,30.313,83.958,30.338L83.958,30.338z"/>
				</g>
			</g>
			<g>
				<g>
					<path fill="#4B4B4B" d="M84.84,24.996c0.539,0.007,1.078,0.015,1.618,0.022c0.755,0.01,1.385-0.638,1.385-1.385
						c0-0.763-0.63-1.375-1.385-1.385c-0.539-0.007-1.078-0.015-1.618-0.022c-0.755-0.01-1.385,0.638-1.385,1.385
						C83.455,24.374,84.085,24.986,84.84,24.996L84.84,24.996z"/>
				</g>
			</g>
			<g>
				<g>
					<path fill="#4B4B4B" d="M84.084,21.161c2.148-0.024,4.064-0.772,6.051-1.501c1.663-0.61,0.945-3.288-0.737-2.672
						c-1.734,0.636-3.44,1.381-5.315,1.402C82.299,18.411,82.297,21.181,84.084,21.161L84.084,21.161z"/>
				</g>
			</g>
		</g>
		<g>
			<g>
				<g>
					<path fill="#4B4B4B" d="M60.112,19.459c0.002-0.143,0.004-0.285,0.006-0.428c0.025-1.788-2.746-1.785-2.771,0
						c-0.03,2.182-0.06,4.363-0.09,6.545c-0.025,1.788,2.746,1.785,2.771,0c0.03-2.182,0.06-4.363,0.09-6.545
						c-0.924,0-1.847,0-2.771,0c-0.002,0.143-0.004,0.285-0.006,0.428C57.316,21.246,60.087,21.244,60.112,19.459L60.112,19.459z"/>
				</g>
			</g>
			<g>
				<g>
					<path fill="#4B4B4B" d="M57.119,20.057c1.898-0.017,2.394,0.054,3.071,2.103c0.047-0.356,0.093-0.712,0.14-1.067
						c-1.123,2.051-2.223,4.132-3.912,5.782c-1.28,1.25,0.681,3.208,1.959,1.959c1.237-1.208,2.199-2.615,3.086-4.093
						c1.071-1.786,1.81-2.776,0.856-4.765c-1.144-2.385-2.782-2.71-5.199-2.688C55.333,17.303,55.332,20.073,57.119,20.057
						L57.119,20.057z"/>
				</g>
			</g>
		</g>
		<g>
			<g>
				<g>
					<path fill="#4B4B4B" d="M64.179,19.423c0.32,3.604-0.194,7.304,2.008,10.415c0.675,0.954,2.179,0.892,2.532-0.331
						c1.127-3.902,2.699-7.744,2.623-11.87c-0.033-1.785-2.803-1.788-2.771,0c0.071,3.86-1.47,7.481-2.524,11.133
						c0.844-0.11,1.688-0.221,2.532-0.331c-1.883-2.66-1.356-5.93-1.63-9.017C66.793,17.658,64.021,17.643,64.179,19.423
						L64.179,19.423z"/>
				</g>
			</g>
		</g>
		<g>
			<g>
				<g>
					<path fill="#4B4B4B" d="M48.774,18.519c-0.026,2.919,0.049,5.869,0.367,8.773c0.193,1.756,2.966,1.775,2.771,0
						c-0.319-2.904-0.394-5.853-0.367-8.773C51.561,16.732,48.79,16.733,48.774,18.519L48.774,18.519z"/>
				</g>
			</g>
			<g>
				<g>
					<path fill="#4B4B4B" d="M48.332,19.418c1.237-0.011,2.435-0.394,3.667-0.411c1.785-0.025,1.788-2.795,0-2.771
						c-1.235,0.017-2.431,0.4-3.667,0.411C46.546,16.663,46.544,19.433,48.332,19.418L48.332,19.418z"/>
				</g>
			</g>
			<g>
				<g>
					<path fill="#4B4B4B" d="M49.286,29.99c1.226-0.465,2.458-1.245,3.799-1.278c1.784-0.044,1.788-2.814,0-2.771
						c-1.658,0.04-3.024,0.803-4.536,1.377c-0.705,0.268-1.182,0.924-0.968,1.704C47.768,29.699,48.579,30.258,49.286,29.99
						L49.286,29.99z"/>
				</g>
			</g>
		</g>
		<g>
			<g>
				<g>
					<path fill="#4B4B4B" d="M37.395,17.554c-0.03,2.19-0.285,4.797,0.691,6.828c0.774,1.61,3.163,0.204,2.392-1.398
						c-0.322-0.67-0.271-1.614-0.302-2.334c-0.045-1.031-0.025-2.065-0.011-3.096C40.19,15.766,37.419,15.769,37.395,17.554
						L37.395,17.554z"/>
				</g>
			</g>
			<g>
				<g>
					<path fill="#4B4B4B" d="M37.39,18.865c0.695-0.192,1.389-0.391,2.092-0.551c0.121-0.028,0.242-0.052,0.364-0.075
						c0.398-0.078-0.032-0.009,0.18-0.032c0.125-0.014,0.251-0.017,0.377-0.017c0.39,0.001-0.188-0.05,0.014,0.001
						c-0.338-0.086-0.563-0.481-0.589-0.801c0.015,0.181,0.087-0.326-0.014,0.063c-0.085,0.328,0.017,0.021-0.087,0.245
						c-0.496,1.067-1.262,2.036-1.983,2.957c-0.465,0.594-0.582,1.377,0,1.959c0.485,0.485,1.493,0.596,1.959,0
						c1.133-1.448,4.156-4.643,2.331-6.593c-1.261-1.347-3.936-0.226-5.381,0.173C34.933,16.668,35.665,19.341,37.39,18.865
						L37.39,18.865z"/>
				</g>
			</g>
			<g>
				<g>
					<path fill="#4B4B4B" d="M40.215,23.571c0.416,0.18,2.928,1.116,2.56,1.855c-0.63,1.266-2.692,2.01-3.875,2.561
						c-1.618,0.754-0.21,3.142,1.398,2.392c1.941-0.904,4.731-2.184,5.238-4.526c0.525-2.426-2.087-3.881-3.923-4.675
						C39.991,20.478,38.578,22.864,40.215,23.571L40.215,23.571z"/>
				</g>
			</g>
		</g>
	</g>
	<g>
		<g>
			<path fill="#4B4B4B" d="M92.96,26.474c0.411,0.006,0.822,0.011,1.234,0.017c1.066,0.015,1.955-0.9,1.955-1.955
				c0-1.077-0.889-1.94-1.955-1.955c-0.411-0.006-0.822-0.011-1.234-0.017c-1.066-0.015-1.955,0.9-1.955,1.955
				C91.006,25.596,91.895,26.459,92.96,26.474L92.96,26.474z"/>
		</g>
	</g>
	<g>
		<g>
			<path fill="#4B4B4B" d="M111.988,23.963c-0.004,0.262-0.007,0.525-0.011,0.787c-0.035,2.522,3.875,2.519,3.91,0
				c0.004-0.262,0.007-0.525,0.011-0.787C115.932,21.441,112.022,21.444,111.988,23.963c-0.004,0.262-0.007,0.525-0.011,0.787
				c-0.035,2.522,3.875,2.519,3.91,0c0.004-0.262,0.007-0.525,0.011-0.787C115.932,21.441,112.022,21.444,111.988,23.963
				L111.988,23.963z"/>
		</g>
	</g>
</g>
</svg>
