<?xml version="1.0" encoding="utf-8"?>
<!-- Generator: Adobe Illustrator 17.0.0, SVG Export Plug-In . SVG Version: 6.00 Build 0)  -->
<!DOCTYPE svg PUBLIC "-//W3C//DTD SVG 1.1//EN" "http://www.w3.org/Graphics/SVG/1.1/DTD/svg11.dtd">
<svg version="1.1" id="Calque_1" xmlns="http://www.w3.org/2000/svg" xmlns:xlink="http://www.w3.org/1999/xlink" x="0px" y="0px"
	 width="113.49px" height="30.27px" viewBox="0 0 113.49 30.27" enable-background="new 0 0 113.49 30.27" xml:space="preserve">
<g>
	<g>
		<g>
			<g>
				<path fill="#4B4B4B" d="M92.046,7.663c0.116-0.826,0.043-3.346,1.197-3.419c-0.276-0.21-0.552-0.42-0.828-0.63
					c0.387,2.218,1.638,4.146,2.025,6.364c0.19,1.09,1.845,0.626,1.656-0.457c-0.387-2.218-1.638-4.146-2.025-6.364
					c-0.062-0.355-0.477-0.653-0.828-0.63c-2.503,0.159-2.577,2.714-2.853,4.68C90.238,8.29,91.893,8.756,92.046,7.663L92.046,7.663
					z"/>
			</g>
		</g>
		<g>
			<g>
				<path fill="#4B4B4B" d="M90.302,7.598c2.026-0.968,4.061-1.581,6.317-1.618c1.106-0.018,1.108-1.736,0-1.718
					c-2.562,0.042-4.885,0.755-7.184,1.853C88.436,6.592,89.308,8.073,90.302,7.598L90.302,7.598z"/>
			</g>
		</g>
	</g>
	<g>
		<g>
			<g>
				<path fill="#4B4B4B" d="M110.305,3.185c-0.977-0.616-2.733-1.506-3.677-0.332c-1.055,1.313-0.156,3.439,0.39,4.773
					c0.414,1.01,2.076,0.569,1.656-0.457c-0.287-0.7-0.544-1.409-0.711-2.148c-0.047-0.209-0.072-0.414-0.082-0.628
					c0.002,0.045,0.011-0.324-0.004-0.219c0,0,0.083-0.292,0.019-0.143c0.038-0.088,0.073-0.066-0.078-0.006
					c0.056-0.023,0.121-0.033,0.262-0.005c0.493,0.099,0.939,0.384,1.358,0.647C110.379,5.26,111.24,3.774,110.305,3.185
					L110.305,3.185z"/>
			</g>
		</g>
		<g>
			<g>
				<path fill="#4B4B4B" d="M107.019,7.626c0.16,0.652,0.311,1.309,0.353,1.981c0.006,0.099,0.007,0.198,0.007,0.296
					c0,0.038-0.031,0.388-0.001,0.183c-0.013,0.087-0.036,0.172-0.064,0.255c0.023-0.067,0.09-0.15,0.062-0.121
					c0.021-0.022,0.318-0.156,0.191-0.119c0.076-0.022,0.241,0.003,0.166-0.014c-0.086-0.029-0.074-0.021,0.034,0.024
					c-0.042-0.019-0.083-0.04-0.123-0.063c-0.094-0.05-0.182-0.113-0.269-0.175c-0.378-0.27-0.913-0.899-1.282-1.347
					c-0.298-0.362-0.907-0.307-1.215,0c-0.355,0.355-0.297,0.854,0,1.214c0.742,0.901,2.114,2.613,3.47,1.882
					c0.577-0.311,0.719-1.036,0.748-1.628c0.046-0.939-0.197-1.92-0.419-2.824C108.411,6.094,106.754,6.551,107.019,7.626
					L107.019,7.626z"/>
			</g>
		</g>
	</g>
	<g>
		<g>
			<g>
				<path fill="#4B4B4B" d="M85.788,3.698c0-0.108,0-0.216,0-0.323c0-1.108-1.718-1.108-1.718,0c0,1.651,0,3.301,0,4.952
					c0,1.108,1.718,1.108,1.718,0c0-1.651,0-3.301,0-4.952c0-1.108-1.718-1.108-1.718,0c0,0.108,0,0.216,0,0.323
					C84.07,4.806,85.788,4.806,85.788,3.698L85.788,3.698z"/>
			</g>
		</g>
		<g>
			<g>
				<path fill="#4B4B4B" d="M83.579,3.978c1.002-0.021,1.804-0.239,2.438,0.713c0.852,1.278-1.791,3.929-2.708,4.763
					c-0.821,0.747,0.397,1.958,1.215,1.214c0.991-0.902,1.764-1.964,2.484-3.088c0.363-0.566,0.932-1.268,1.112-1.919
					c0.138-0.502-0.236-1.063-0.436-1.503c-0.831-1.826-2.352-1.935-4.105-1.898C82.473,2.284,82.471,4.001,83.579,3.978
					L83.579,3.978z"/>
			</g>
		</g>
	</g>
	<g>
		<g>
			<g>
				<path fill="#4B4B4B" d="M98.705,4.025c-0.41,1.554-0.368,3.26-0.368,4.856c0,1.108,1.717,1.108,1.718,0
					c0-1.443-0.063-2.996,0.307-4.4C100.644,3.409,98.987,2.955,98.705,4.025L98.705,4.025z"/>
			</g>
		</g>
		<g>
			<g>
				<path fill="#4B4B4B" d="M98.925,5.439c1.128,1.269,2.358,2.408,3.241,3.876c0.57,0.948,2.056,0.085,1.483-0.867
					c-0.959-1.594-2.284-2.844-3.509-4.223C99.403,3.395,98.193,4.614,98.925,5.439L98.925,5.439z"/>
			</g>
		</g>
		<g>
			<g>
				<path fill="#4B4B4B" d="M102.049,4.253c0,1.157,0,2.314,0,3.471c0,1.108,1.718,1.108,1.718,0c0-1.157,0-2.314,0-3.471
					C103.767,3.146,102.049,3.146,102.049,4.253L102.049,4.253z"/>
			</g>
		</g>
	</g>
	<g>
		<g>
			<g>
				<g>
					<path fill="#4B4B4B" d="M5.796,7.59c0.116-0.826,0.043-3.346,1.197-3.419C6.717,3.96,6.441,3.75,6.165,3.54
						C6.552,5.758,7.803,7.686,8.19,9.904c0.19,1.09,1.845,0.626,1.656-0.457C9.459,7.229,8.209,5.301,7.821,3.083
						c-0.062-0.355-0.477-0.653-0.828-0.63C4.49,2.611,4.416,5.167,4.14,7.133C3.988,8.216,5.643,8.683,5.796,7.59L5.796,7.59z"/>
				</g>
			</g>
			<g>
				<g>
					<path fill="#4B4B4B" d="M4.051,7.524c2.026-0.968,4.061-1.581,6.317-1.618c1.106-0.018,1.108-1.736,0-1.718
						C7.806,4.231,5.483,4.943,3.185,6.041C2.185,6.519,3.057,7.999,4.051,7.524L4.051,7.524z"/>
				</g>
			</g>
		</g>
		<g>
			<g>
				<g>
					<path fill="#4B4B4B" d="M19.41,2.57c-0.111,0.075-0.627-0.054-0.81-0.056c-0.592-0.009-1.099,0.282-1.518,0.674
						c-1.494,1.4-1.122,3.428-0.444,5.108c0.427,1.056,1.167,1.947,2.33,2.165c1.11,0.208,2.235-0.166,3.347,0.043
						c1.082,0.204,1.544-1.451,0.457-1.656c-1.315-0.247-3.529,0.55-4.339-0.761c-0.527-0.853-1.307-3.369,0.096-3.844
						c0.594-0.201,1.137,0.226,1.748-0.188C21.187,3.435,20.329,1.946,19.41,2.57L19.41,2.57z"/>
				</g>
			</g>
		</g>
		<g>
			<g>
				<g>
					<path fill="#4B4B4B" d="M28.491,3.951c-0.41,1.554-0.368,3.26-0.368,4.856c0,1.108,1.717,1.108,1.718,0
						c0-1.443-0.063-2.996,0.307-4.4C30.43,3.336,28.773,2.881,28.491,3.951L28.491,3.951z"/>
				</g>
			</g>
			<g>
				<g>
					<path fill="#4B4B4B" d="M28.711,5.365c1.128,1.269,2.358,2.408,3.241,3.876c0.57,0.948,2.056,0.085,1.483-0.867
						c-0.959-1.594-2.284-2.844-3.509-4.223C29.189,3.321,27.979,4.54,28.711,5.365L28.711,5.365z"/>
				</g>
			</g>
			<g>
				<g>
					<path fill="#4B4B4B" d="M31.835,4.18c0,1.157,0,2.314,0,3.471c0,1.108,1.718,1.108,1.718,0c0-1.157,0-2.314,0-3.471
						C33.553,3.072,31.835,3.072,31.835,4.18L31.835,4.18z"/>
				</g>
			</g>
		</g>
		<g>
			<g>
				<g>
					<path fill="#4B4B4B" d="M23.794,3.527c0.323,2.857-0.023,5.57,1.881,7.937c0.415,0.516,1.283,0.197,1.435-0.379
						c0.778-2.945,0.654-5.944,0.438-8.955c-0.079-1.098-1.797-1.106-1.718,0c0.205,2.855,0.362,5.702-0.377,8.498
						c0.478-0.126,0.957-0.253,1.435-0.379c-1.518-1.888-1.121-4.459-1.378-6.723C25.389,2.439,23.67,2.427,23.794,3.527
						L23.794,3.527z"/>
				</g>
			</g>
		</g>
		<g>
			<g>
				<g>
					<path fill="#4B4B4B" d="M11.619,3.527c0.323,2.857-0.023,5.57,1.881,7.937c0.415,0.516,1.283,0.197,1.435-0.379
						c0.778-2.945,0.654-5.944,0.438-8.955c-0.079-1.098-1.797-1.106-1.718,0c0.205,2.855,0.362,5.702-0.377,8.498
						c0.478-0.126,0.957-0.253,1.435-0.379c-1.518-1.888-1.121-4.459-1.378-6.723C13.213,2.439,11.495,2.427,11.619,3.527
						L11.619,3.527z"/>
				</g>
			</g>
		</g>
	</g>
	<g>
		<g>
			<g>
				<g>
					<path fill="#4B4B4B" d="M66.092,3.038c0,2.016,0,4.032,0,6.048c0,1.108,1.718,1.108,1.718,0c0-2.016,0-4.032,0-6.048
						C67.809,1.93,66.092,1.93,66.092,3.038L66.092,3.038z"/>
				</g>
			</g>
			<g>
				<g>
					<path fill="#4B4B4B" d="M66.951,10.808c0.84,0,1.68,0,2.52,0c1.108,0,1.108-1.718,0-1.718c-0.84,0-1.68,0-2.52,0
						C65.843,9.091,65.843,10.808,66.951,10.808L66.951,10.808z"/>
				</g>
			</g>
		</g>
		<g>
			<g>
				<g>
					<path fill="#4B4B4B" d="M72.107,2.794c-0.634,2.43-0.685,5.273-0.368,7.749c0.138,1.083,1.858,1.097,1.718,0
						c-0.297-2.325-0.289-5.011,0.307-7.293C74.043,2.178,72.387,1.723,72.107,2.794L72.107,2.794z"/>
				</g>
			</g>
			<g>
				<g>
					<path fill="#4B4B4B" d="M72.598,11.402c0.788,0,1.575,0,2.363,0c1.108,0,1.108-1.718,0-1.718c-0.788,0-1.575,0-2.363,0
						C71.49,9.685,71.49,11.402,72.598,11.402L72.598,11.402z"/>
				</g>
			</g>
			<g>
				<g>
					<path fill="#4B4B4B" d="M73.273,7.352c0.45,0,0.9,0,1.35,0c1.108,0,1.108-1.718,0-1.718c-0.45,0-0.9,0-1.35,0
						C72.165,5.635,72.165,7.352,73.273,7.352L73.273,7.352z"/>
				</g>
			</g>
			<g>
				<g>
					<path fill="#4B4B4B" d="M72.598,4.46c1.745-0.039,3.324-0.623,4.953-1.188c1.04-0.36,0.593-2.02-0.457-1.656
						c-1.474,0.511-2.917,1.091-4.497,1.126C71.492,2.767,71.489,4.485,72.598,4.46L72.598,4.46z"/>
				</g>
			</g>
		</g>
		<g>
			<g>
				<g>
					<path fill="#4B4B4B" d="M57.254,3.698c0-0.108,0-0.216,0-0.323c0-1.108-1.718-1.108-1.718,0c0,1.651,0,3.301,0,4.952
						c0,1.108,1.718,1.108,1.718,0c0-1.651,0-3.301,0-4.952c0-1.108-1.718-1.108-1.718,0c0,0.108,0,0.216,0,0.323
						C55.537,4.806,57.254,4.806,57.254,3.698L57.254,3.698z"/>
				</g>
			</g>
			<g>
				<g>
					<path fill="#4B4B4B" d="M55.045,3.978c1.002-0.021,1.804-0.239,2.438,0.713c0.852,1.278-1.791,3.929-2.708,4.763
						c-0.821,0.747,0.397,1.958,1.214,1.214c0.991-0.902,1.764-1.964,2.484-3.088c0.363-0.566,0.932-1.268,1.112-1.919
						c0.138-0.502-0.236-1.063-0.436-1.503c-0.831-1.826-2.352-1.935-4.105-1.898C53.939,2.284,53.937,4.001,55.045,3.978
						L55.045,3.978z"/>
				</g>
			</g>
		</g>
		<g>
			<g>
				<g>
					<path fill="#4B4B4B" d="M39.516,2.391c0,1.596-0.19,3.614,0.606,5.064c0.533,0.971,2.016,0.104,1.483-0.867
						c-0.619-1.128-0.372-2.956-0.372-4.197C41.233,1.284,39.516,1.284,39.516,2.391L39.516,2.391z"/>
				</g>
			</g>
			<g>
				<g>
					<path fill="#4B4B4B" d="M39.136,3.219c0.59-0.155,1.179-0.317,1.776-0.446c0.279-0.06,0.411-0.082,0.577-0.097
						c0.097-0.009,0.194-0.01,0.291-0.008c0.171,0.003-0.168-0.049,0.066,0.012c-0.169-0.044-0.3-0.301-0.3-0.375
						c0-0.235-0.015,0.028-0.04,0.106c-0.028,0.087-0.036,0.09-0.11,0.233c-0.422,0.813-1.042,1.531-1.627,2.228
						c-0.707,0.842,0.501,2.064,1.214,1.214c0.708-0.843,3.356-3.534,1.872-4.759c-1.079-0.891-3.007-0.071-4.175,0.237
						C37.609,1.845,38.064,3.502,39.136,3.219L39.136,3.219z"/>
				</g>
			</g>
			<g>
				<g>
					<path fill="#4B4B4B" d="M41.982,6.844c0.5,0.188,2.495,0.824,2.051,1.59c-0.58,1.002-2.29,1.573-3.275,2.003
						c-1.013,0.442-0.138,1.922,0.867,1.483c1.44-0.629,3.912-1.602,4.198-3.418c0.297-1.888-1.988-2.791-3.384-3.315
						C41.4,4.797,40.955,6.458,41.982,6.844L41.982,6.844z"/>
				</g>
			</g>
		</g>
		<g>
			<g>
				<g>
					<path fill="#4B4B4B" d="M60.886,3.527c0.323,2.857-0.023,5.57,1.881,7.937c0.415,0.516,1.283,0.197,1.435-0.379
						C64.98,8.14,64.856,5.141,64.64,2.13c-0.079-1.098-1.797-1.106-1.718,0c0.205,2.855,0.362,5.702-0.377,8.498
						c0.478-0.126,0.957-0.253,1.435-0.379c-1.518-1.888-1.121-4.459-1.378-6.723C62.481,2.439,60.762,2.427,60.886,3.527
						L60.886,3.527z"/>
				</g>
			</g>
		</g>
		<g>
			<g>
				<g>
					<path fill="#4B4B4B" d="M48.657,3.077c0.012,2.288,0.128,4.592,0.438,6.86c0.149,1.093,1.804,0.626,1.656-0.457
						c-0.288-2.111-0.366-4.275-0.377-6.404C50.369,1.969,48.651,1.969,48.657,3.077L48.657,3.077z"/>
				</g>
			</g>
			<g>
				<g>
					<path fill="#4B4B4B" d="M47.985,3.586c1.03-0.021,2.028-0.323,3.055-0.349c1.106-0.028,1.108-1.745,0-1.718
						c-1.028,0.026-2.025,0.328-3.055,0.349C46.879,1.891,46.877,3.609,47.985,3.586L47.985,3.586z"/>
				</g>
			</g>
			<g>
				<g>
					<path fill="#4B4B4B" d="M48.825,11.584c1.056-0.379,2.09-0.977,3.234-1.016c1.104-0.038,1.108-1.756,0-1.718
						c-1.332,0.046-2.462,0.638-3.69,1.078C47.333,10.299,47.779,11.959,48.825,11.584L48.825,11.584z"/>
				</g>
			</g>
		</g>
	</g>
	<g>
		<g>
			<g>
				<g>
					<path fill="#4B4B4B" d="M7.862,20.132c0,2.18,0,4.361,0,6.541c0,1.152,1.786,1.152,1.786,0c0-2.18,0-4.361,0-6.541
						C9.648,18.98,7.862,18.98,7.862,20.132L7.862,20.132z"/>
				</g>
			</g>
			<g>
				<g>
					<path fill="#4B4B4B" d="M8.755,28.501c0.84,0,1.68,0,2.52,0c1.152,0,1.152-1.786,0-1.786c-0.84,0-1.68,0-2.52,0
						C7.603,26.715,7.603,28.501,8.755,28.501L8.755,28.501z"/>
				</g>
			</g>
		</g>
		<g>
			<g>
				<g>
					<path fill="#4B4B4B" d="M15.48,24.809c0.099-0.766,0.033-3.412,1.132-3.487c-0.287-0.219-0.574-0.437-0.861-0.656
						c0.385,2.385,1.64,4.498,2.025,6.883c0.183,1.135,1.904,0.652,1.722-0.475c-0.385-2.385-1.64-4.498-2.025-6.883
						c-0.059-0.368-0.5-0.68-0.861-0.656c-2.69,0.184-2.651,3.215-2.918,5.273C13.545,25.948,15.334,25.934,15.48,24.809
						L15.48,24.809z"/>
				</g>
			</g>
			<g>
				<g>
					<path fill="#4B4B4B" d="M13.687,24.954c2.009-1.038,4.024-1.715,6.299-1.755c1.151-0.021,1.153-1.807,0-1.786
						c-2.59,0.046-4.915,0.818-7.201,1.999C11.762,23.941,12.666,25.482,13.687,24.954L13.687,24.954z"/>
				</g>
			</g>
		</g>
	</g>
	<g>
		<g>
			<g>
				<path fill="#4B4B4B" d="M76.919,20.679c0,2.492,0,4.984,0,7.476c0,1.152,1.786,1.152,1.786,0c0-2.492,0-4.984,0-7.476
					C78.706,19.527,76.919,19.527,76.919,20.679L76.919,20.679z"/>
			</g>
		</g>
		<g>
			<g>
				<path fill="#4B4B4B" d="M77.362,24.749c0.587,0.277,1.272,0.278,1.91,0.289c0.757,0.014,1.571-0.002,2.307-0.199
					c1.111-0.298,0.639-2.022-0.475-1.722c-0.481,0.129-0.995,0.127-1.49,0.135c-0.327,0.006-0.655-0.005-0.982-0.024
					c-0.099-0.006-0.558-0.11-0.369-0.021C77.228,22.719,76.32,24.258,77.362,24.749L77.362,24.749z"/>
			</g>
		</g>
		<g>
			<g>
				<path fill="#4B4B4B" d="M79.944,19.744c0.001,2.564-0.077,5.204,0.536,7.713c0.273,1.119,1.996,0.644,1.722-0.475
					c-0.573-2.348-0.472-4.839-0.472-7.238C81.73,18.593,79.943,18.593,79.944,19.744L79.944,19.744z"/>
			</g>
		</g>
	</g>
	<g>
		<g>
			<g>
				<path fill="#4B4B4B" d="M103.486,19.878c-0.639,2.647-0.687,5.682-0.369,8.372c0.133,1.13,1.921,1.143,1.786,0
					c-0.299-2.529-0.295-5.408,0.306-7.897C105.479,19.234,103.756,18.759,103.486,19.878L103.486,19.878z"/>
			</g>
		</g>
		<g>
			<g>
				<path fill="#4B4B4B" d="M104.01,29.143c0.788,0,1.575,0,2.363,0c1.152,0,1.152-1.786,0-1.786c-0.788,0-1.575,0-2.363,0
					C102.858,27.357,102.858,29.143,104.01,29.143L104.01,29.143z"/>
			</g>
		</g>
		<g>
			<g>
				<path fill="#4B4B4B" d="M104.685,24.763c0.45,0,0.9,0,1.35,0c1.152,0,1.152-1.786,0-1.786c-0.45,0-0.9,0-1.35,0
					C103.533,22.977,103.533,24.763,104.685,24.763L104.685,24.763z"/>
			</g>
		</g>
		<g>
			<g>
				<path fill="#4B4B4B" d="M104.01,21.635c1.764-0.043,3.333-0.672,4.963-1.283c1.068-0.401,0.606-2.128-0.475-1.722
					c-1.464,0.549-2.901,1.181-4.488,1.22C102.86,19.877,102.858,21.663,104.01,21.635L104.01,21.635z"/>
			</g>
		</g>
	</g>
	<g>
		<g>
			<g>
				<path fill="#4B4B4B" d="M83.714,19.958c-0.639,2.647-0.687,5.682-0.369,8.372c0.133,1.13,1.921,1.143,1.786,0
					c-0.299-2.529-0.295-5.408,0.306-7.897C85.706,19.313,83.984,18.839,83.714,19.958L83.714,19.958z"/>
			</g>
		</g>
		<g>
			<g>
				<path fill="#4B4B4B" d="M84.237,29.223c0.788,0,1.575,0,2.363,0c1.152,0,1.152-1.786,0-1.786c-0.788,0-1.575,0-2.363,0
					C83.086,27.436,83.086,29.223,84.237,29.223L84.237,29.223z"/>
			</g>
		</g>
		<g>
			<g>
				<path fill="#4B4B4B" d="M84.913,24.843c0.45,0,0.9,0,1.35,0c1.152,0,1.152-1.786,0-1.786c-0.45,0-0.9,0-1.35,0
					C83.761,23.057,83.761,24.843,84.913,24.843L84.913,24.843z"/>
			</g>
		</g>
		<g>
			<g>
				<path fill="#4B4B4B" d="M84.237,21.714c1.764-0.043,3.333-0.672,4.963-1.283c1.068-0.401,0.606-2.128-0.475-1.722
					c-1.464,0.549-2.901,1.181-4.488,1.22C83.088,19.956,83.085,21.742,84.237,21.714L84.237,21.714z"/>
			</g>
		</g>
	</g>
	<g>
		<g>
			<g>
				<path fill="#4B4B4B" d="M92.807,19.484c-1.155,1.132-2.198,2.619-1.935,4.323c0.243,1.577,1.42,2.651,2.791,3.337
					c1.027,0.513,1.932-1.027,0.902-1.542c-0.891-0.445-1.658-0.978-1.926-1.984c-0.292-1.094,0.74-2.192,1.432-2.871
					C94.894,19.94,93.63,18.678,92.807,19.484L92.807,19.484z"/>
			</g>
		</g>
		<g>
			<g>
				<path fill="#4B4B4B" d="M92.863,21.603c0.762,0.171,1.891,0.419,2.203,1.253c0.367,0.982-0.687,2.215-1.247,2.885
					c-0.733,0.878,0.524,2.148,1.263,1.263c1.077-1.29,2.16-2.862,1.706-4.623c-0.39-1.512-2.09-2.195-3.45-2.501
					C92.216,19.628,91.74,21.35,92.863,21.603L92.863,21.603z"/>
			</g>
		</g>
		<g>
			<g>
				<path fill="#4B4B4B" d="M93.325,24.641c1.035,0.707,1.481,2.371,2.042,3.434c0.538,1.019,2.08,0.116,1.542-0.902
					c-0.753-1.425-1.295-3.127-2.683-4.075C93.272,22.447,92.38,23.996,93.325,24.641L93.325,24.641z"/>
			</g>
		</g>
	</g>
	<g>
		<g>
			<g>
				<path fill="#4B4B4B" d="M98.275,20.661c0.304,2.904-0.086,5.907,1.751,8.379c0.429,0.578,1.432,0.608,1.632-0.213
					c0.779-3.189,0.655-6.425,0.439-9.675c-0.076-1.143-1.862-1.151-1.786,0c0.205,3.086,0.365,6.169-0.375,9.201
					c0.544-0.071,1.088-0.142,1.632-0.213c-1.629-2.192-1.238-4.9-1.507-7.477C99.942,19.527,98.155,19.516,98.275,20.661
					L98.275,20.661z"/>
			</g>
		</g>
	</g>
	<g>
		<g>
			<g>
				<path fill="#4B4B4B" d="M56.235,20.132c0,2.18,0,4.361,0,6.541c0,1.152,1.786,1.152,1.786,0c0-2.18,0-4.361,0-6.541
					C58.021,18.98,56.235,18.98,56.235,20.132L56.235,20.132z"/>
			</g>
		</g>
		<g>
			<g>
				<path fill="#4B4B4B" d="M57.128,28.501c0.84,0,1.68,0,2.52,0c1.152,0,1.152-1.786,0-1.786c-0.84,0-1.68,0-2.52,0
					C55.976,26.715,55.976,28.501,57.128,28.501L57.128,28.501z"/>
			</g>
		</g>
	</g>
	<g>
		<g>
			<g>
				<path fill="#4B4B4B" d="M47.927,20.847c0-0.117,0-0.233,0-0.35c0-1.152-1.786-1.152-1.786,0c0,1.785,0,3.57,0,5.356
					c0,1.152,1.786,1.152,1.786,0c0-1.785,0-3.57,0-5.356c0-1.152-1.786-1.152-1.786,0c0,0.117,0,0.233,0,0.35
					C46.14,21.999,47.927,21.999,47.927,20.847L47.927,20.847z"/>
			</g>
		</g>
		<g>
			<g>
				<path fill="#4B4B4B" d="M45.683,21.114c1.05-0.024,1.778-0.234,2.409,0.789c0.868,1.409-1.726,4.233-2.703,5.195
					c-0.822,0.809,0.442,2.071,1.263,1.263c1.001-0.986,1.775-2.127,2.49-3.332c0.823-1.388,1.449-2.137,0.675-3.665
					c-0.95-1.876-2.211-2.078-4.134-2.035C44.533,19.354,44.531,21.14,45.683,21.114L45.683,21.114z"/>
			</g>
		</g>
	</g>
	<g>
		<g>
			<g>
				<path fill="#4B4B4B" d="M30.581,19.433c0,1.733-0.198,3.865,0.611,5.459c0.522,1.027,2.062,0.123,1.542-0.902
					c-0.633-1.247-0.367-3.203-0.367-4.558C32.367,18.281,30.58,18.281,30.581,19.433L30.581,19.433z"/>
			</g>
		</g>
		<g>
			<g>
				<path fill="#4B4B4B" d="M30.244,20.294c0.571-0.163,1.14-0.331,1.718-0.469c0.222-0.053,0.557-0.113,0.599-0.118
					c0.101-0.011,0.201-0.013,0.302-0.012c0.176,0.002-0.173-0.053,0.068,0.013c-0.166-0.046-0.311-0.255-0.321-0.415
					c0.007,0.106,0.041-0.127-0.024,0.119c-0.035,0.133-0.05,0.158-0.098,0.26c-0.414,0.889-1.048,1.697-1.646,2.467
					c-0.298,0.384-0.376,0.887,0,1.263c0.312,0.312,0.964,0.385,1.263,0c0.751-0.968,3.354-3.761,1.873-5.096
					c-1.056-0.951-3.061-0.063-4.209,0.264C28.663,18.887,29.134,20.611,30.244,20.294L30.244,20.294z"/>
			</g>
		</g>
		<g>
			<g>
				<path fill="#4B4B4B" d="M33.072,24.214c0.566,0.231,2.51,0.899,2.016,1.797c-0.58,1.053-2.232,1.675-3.248,2.155
					c-1.041,0.492-0.134,2.032,0.902,1.542c1.492-0.706,3.954-1.795,4.215-3.69c0.269-1.954-1.937-2.927-3.409-3.527
					C32.48,22.057,32.02,23.786,33.072,24.214L33.072,24.214z"/>
			</g>
		</g>
	</g>
	<g>
		<g>
			<g>
				<path fill="#4B4B4B" d="M51.26,20.661c0.304,2.904-0.086,5.907,1.751,8.379c0.429,0.578,1.432,0.608,1.632-0.213
					c0.779-3.189,0.655-6.425,0.439-9.675c-0.076-1.143-1.862-1.151-1.786,0c0.205,3.086,0.365,6.169-0.375,9.201
					c0.544-0.071,1.088-0.142,1.632-0.213c-1.629-2.192-1.238-4.9-1.507-7.477C52.927,19.527,51.14,19.516,51.26,20.661
					L51.26,20.661z"/>
			</g>
		</g>
	</g>
	<g>
		<g>
			<g>
				<path fill="#4B4B4B" d="M39.491,20.174c0.011,2.389,0.108,4.801,0.407,7.173c0.142,1.127,1.93,1.141,1.786,0
					c-0.299-2.371-0.396-4.784-0.407-7.173C41.272,19.023,39.486,19.022,39.491,20.174L39.491,20.174z"/>
			</g>
		</g>
		<g>
			<g>
				<path fill="#4B4B4B" d="M38.854,20.69c1.032-0.023,2.027-0.35,3.055-0.378c1.15-0.031,1.153-1.817,0-1.786
					c-1.03,0.028-2.024,0.355-3.055,0.378C37.704,18.929,37.701,20.715,38.854,20.69L38.854,20.69z"/>
			</g>
		</g>
		<g>
			<g>
				<path fill="#4B4B4B" d="M39.702,29.341c1.046-0.405,2.079-1.058,3.224-1.101c1.148-0.043,1.152-1.829,0-1.786
					c-1.352,0.051-2.468,0.687-3.699,1.164C38.165,28.03,38.627,29.758,39.702,29.341L39.702,29.341z"/>
			</g>
		</g>
	</g>
	<g>
		<g>
			<g>
				<path fill="#4B4B4B" d="M63.851,20.677c1.099,0.847,2.087,1.909,2.508,3.256c0.189,0.605,0.087,1.188-0.21,1.731
					c-0.261,0.478-1.224,1.403-1.724,1.168c-2.036-0.954-1.221-5.186,0.327-6.156c0.973-0.61,0.078-2.156-0.902-1.542
					c-2.975,1.864-3.497,8.297,0.361,9.515c1.049,0.331,2.211-0.69,2.916-1.359c0.733-0.696,1.055-1.677,1.113-2.659
					c0.133-2.265-1.861-4.242-3.488-5.497C63.841,18.431,62.953,19.984,63.851,20.677z"/>
			</g>
		</g>
	</g>
	<g>
		<g>
			<g>
				<path fill="#4B4B4B" d="M70.79,19.482c-0.023,3.074-0.612,6.494,0.028,9.521c0.205,0.972,1.691,0.56,1.486-0.41
					c-0.606-2.866,0.006-6.194,0.028-9.111C72.339,18.488,70.798,18.488,70.79,19.482L70.79,19.482z"/>
			</g>
		</g>
		<g>
			<g>
				<path fill="#4B4B4B" d="M70.494,20.687c1.42-0.629,3.015-0.946,4.562-0.975c0.993-0.019,0.994-1.56,0-1.541
					c-1.838,0.034-3.66,0.441-5.34,1.185C68.809,19.758,69.594,21.086,70.494,20.687L70.494,20.687z"/>
			</g>
		</g>
	</g>
</g>
</svg>
