<?xml version="1.0" encoding="utf-8"?>
<!-- Generator: Adobe Illustrator 17.0.0, SVG Export Plug-In . SVG Version: 6.00 Build 0)  -->
<!DOCTYPE svg PUBLIC "-//W3C//DTD SVG 1.1//EN" "http://www.w3.org/Graphics/SVG/1.1/DTD/svg11.dtd">
<svg version="1.1" id="Calque_1" xmlns="http://www.w3.org/2000/svg" xmlns:xlink="http://www.w3.org/1999/xlink" x="0px" y="0px"
	 width="113.49px" height="30.27px" viewBox="0 0 113.49 30.27" enable-background="new 0 0 113.49 30.27" xml:space="preserve">
<g>
	<g>
		<g>
			<path fill="#3D3D3D" d="M24.714,17.25c-1.214,0.439-2.385-0.249-3.556,0.707c-1.699,1.387-1.521,2.749-0.419,4.472
				c1.747,2.734,5.361,1.596,8.03,1.877c1.186,0.125,1.174-1.727,0-1.851c-1.809-0.19-4.276,0.529-5.899-0.429
				c-1.163-0.687-1.672-2.666,0.126-2.898c0.748-0.097,1.475,0.173,2.21-0.093C26.319,18.632,25.839,16.843,24.714,17.25
				L24.714,17.25z"/>
		</g>
	</g>
</g>
<g>
	<g>
		<g>
			<path fill="#3D3D3D" d="M35.939,17.888c0.017,1.895,0.175,3.856,0.608,5.705c0.272,1.162,2.056,0.669,1.785-0.492
				c-0.396-1.693-0.526-3.478-0.542-5.213C37.78,16.695,35.929,16.694,35.939,17.888L35.939,17.888z"/>
		</g>
	</g>
	<g>
		<g>
			<path fill="#3D3D3D" d="M34.706,18.526c1.442-0.017,2.869-0.266,4.309-0.287c1.192-0.017,1.194-1.868,0-1.851
				c-1.441,0.021-2.867,0.27-4.309,0.287C33.513,16.69,33.512,18.54,34.706,18.526L34.706,18.526z"/>
		</g>
	</g>
	<g>
		<g>
			<path fill="#3D3D3D" d="M35.814,25.101c1.545-0.325,3.048-0.792,4.638-0.829c1.192-0.027,1.194-1.878,0-1.851
				c-1.758,0.04-3.422,0.536-5.13,0.895C34.154,23.562,34.65,25.346,35.814,25.101L35.814,25.101z"/>
		</g>
	</g>
</g>
<g>
	<g>
		<g>
			<path fill="#3D3D3D" d="M49.472,18.893c0.192,1.857,0.402,3.755,0.891,5.561c0.269,0.993,1.81,0.571,1.54-0.425
				c-0.453-1.671-0.657-3.418-0.834-5.136C50.965,17.879,49.366,17.869,49.472,18.893L49.472,18.893z"/>
		</g>
	</g>
	<g>
		<g>
			<path fill="#3D3D3D" d="M49.811,18.893c0.81-0.533,2.567-1.42,3.318-0.294c0.771,1.157-1.022,2.285-1.862,2.63
				c-0.939,0.386-0.528,1.932,0.425,1.54c1.927-0.792,3.882-2.522,2.92-4.786c-0.969-2.28-4.055-1.489-5.605-0.469
				C48.149,18.077,48.948,19.46,49.811,18.893L49.811,18.893z"/>
		</g>
	</g>
</g>
<g>
	<g>
		<g>
			<path fill="#3D3D3D" d="M83.525,16.523c-1.47-0.215-3.73-0.581-4.764,0.817c-1.057,1.43,0.696,3.218,1.656,4.114
				c0.871,0.813,2.183-0.493,1.309-1.309c-0.458-0.428-0.909-0.868-1.242-1.403c-0.096-0.154-0.13-0.235-0.175-0.403
				c0.006,0.021-0.036,0.065,0.004-0.002c-0.069,0.116,0.053,0,0.011,0.017c0.186-0.077,0.396-0.123,0.595-0.144
				c0.698-0.074,1.423-0.004,2.115,0.097c0.499,0.073,0.992-0.116,1.138-0.646C84.293,17.221,84.025,16.596,83.525,16.523
				L83.525,16.523z"/>
		</g>
	</g>
	<g>
		<g>
			<path fill="#3D3D3D" d="M80.273,21.266c0.295,0.427,0.622,0.911,0.787,1.374c0.033,0.092,0.056,0.186,0.078,0.281
				c-0.043-0.185,0,0.036,0,0.078c0.002,0.232,0.05-0.182-0.013,0.02c0.061-0.195,0.065-0.169,0.158-0.23
				c-0.175,0.117,0.187-0.053-0.035,0.009c-0.237,0.067,0.19-0.006-0.084,0.01c-0.248,0.014-0.408-0.018-0.628-0.062
				c-0.674-0.136-1.334-0.389-1.964-0.661c-0.463-0.2-0.989-0.142-1.266,0.332c-0.231,0.395-0.131,1.066,0.332,1.266
				c1.239,0.535,3.317,1.546,4.632,0.669c1.479-0.986,0.336-2.957-0.399-4.019C81.197,19.358,79.591,20.282,80.273,21.266
				L80.273,21.266z"/>
		</g>
	</g>
</g>
<g>
	<g>
		<g>
			<path fill="#3D3D3D" d="M104.284,18.367c0.239,1.2,0.199,2.431,0.457,3.628c0.28,1.298,1.229,2.218,2.267,2.959
				c0.382,0.272,1.07,0.099,1.266-0.332c1.129-2.479,1.027-5,0.701-7.65c-0.144-1.169-1.996-1.183-1.851,0
				c0.278,2.258,0.525,4.58-0.448,6.715c0.422-0.111,0.844-0.221,1.266-0.332c-1.896-1.353-1.467-3.44-1.873-5.48
				C105.835,16.705,104.051,17.201,104.284,18.367L104.284,18.367z"/>
		</g>
	</g>
</g>
<g>
	<g>
		<g>
			<path fill="#3D3D3D" d="M93.491,17.33c-0.017,1.236-0.119,2.472-0.159,3.707c-0.036,1.103-0.226,2.539,0.188,3.595
				c0.371,0.948,1.916,0.536,1.54-0.425c-0.395-1.008-0.155-2.44-0.12-3.495c0.037-1.127,0.133-2.255,0.149-3.383
				C95.102,16.3,93.505,16.301,93.491,17.33L93.491,17.33z"/>
		</g>
	</g>
	<g>
		<g>
			<path fill="#3D3D3D" d="M92.447,18.511c2.215-0.529,4.498-0.77,6.773-0.793c1.029-0.01,1.03-1.607,0-1.597
				c-2.411,0.024-4.85,0.29-7.197,0.85C91.021,17.21,91.446,18.75,92.447,18.511L92.447,18.511z"/>
		</g>
	</g>
</g>
<g>
	<g>
		<g>
			<g>
				<path fill="#3D3D3D" d="M63.105,18.509c0.192,1.857,0.402,3.755,0.891,5.561c0.269,0.993,1.81,0.571,1.54-0.425
					c-0.453-1.671-0.657-3.418-0.834-5.136C64.597,17.495,62.999,17.485,63.105,18.509L63.105,18.509z"/>
			</g>
		</g>
		<g>
			<g>
				<path fill="#3D3D3D" d="M63.443,18.508c0.81-0.533,2.567-1.42,3.318-0.294c0.771,1.157-1.022,2.285-1.862,2.63
					c-0.939,0.386-0.528,1.932,0.425,1.54c1.927-0.792,3.882-2.522,2.92-4.786c-0.969-2.28-4.055-1.489-5.605-0.469
					C61.781,17.693,62.58,19.076,63.443,18.508L63.443,18.508z"/>
			</g>
		</g>
	</g>
	<g>
		<g>
			<path fill="#3D3D3D" d="M65.569,22.661c1.24,0.455,2.036,1.712,2.925,2.619c0.836,0.854,2.144-0.456,1.309-1.309
				c-1.165-1.189-2.121-2.5-3.742-3.095C64.938,20.465,64.458,22.254,65.569,22.661L65.569,22.661z"/>
		</g>
	</g>
</g>
<g>
	<g>
		<g>
			<path fill="#3D3D3D" d="M7.978,21.732c0.32-1.339,0.31-2.644,1.959-2.693c-0.299-0.228-0.599-0.456-0.898-0.684
				c0.575,1.983,2.288,3.347,2.857,5.307c0.334,1.151,2.132,0.661,1.796-0.495c-0.575-1.983-2.288-3.347-2.857-5.307
				c-0.113-0.39-0.482-0.696-0.898-0.684c-1.07,0.032-2.116,0.275-2.778,1.183c-0.607,0.831-0.744,1.902-0.977,2.878
				C5.903,22.405,7.699,22.901,7.978,21.732L7.978,21.732z"/>
		</g>
	</g>
	<g>
		<g>
			<path fill="#3D3D3D" d="M5.423,21.901c3.054-0.861,6.098-1.381,9.276-1.414c1.201-0.013,1.202-1.876,0-1.863
				c-3.341,0.035-6.558,0.575-9.771,1.481C3.773,20.43,4.264,22.227,5.423,21.901L5.423,21.901z"/>
		</g>
	</g>
</g>
<g>
	<g>
		<g>
			<path fill="#3D3D3D" d="M6.811,8.503c1.341-1.046,2.673-2.104,4.075-3.067c0.854-0.587,0.046-1.99-0.816-1.397
				c-1.515,1.042-2.953,2.19-4.402,3.32C4.845,8,5.999,9.136,6.811,8.503L6.811,8.503z"/>
		</g>
	</g>
	<g>
		<g>
			<path fill="#3D3D3D" d="M9.532,4.871c0.081,2.367,0.044,4.733-0.001,7.1c-0.02,1.044,1.598,1.042,1.618,0
				c0.045-2.367,0.082-4.733,0.001-7.1C11.114,3.83,9.496,3.827,9.532,4.871L9.532,4.871z"/>
		</g>
	</g>
	<g>
		<g>
			<path fill="#3D3D3D" d="M8.042,13.144c1.443,0.018,2.879-0.073,4.316-0.189c1.032-0.083,1.041-1.702,0-1.618
				c-1.437,0.116-2.873,0.207-4.316,0.189C6.998,11.513,6.999,13.131,8.042,13.144L8.042,13.144z"/>
		</g>
	</g>
</g>
<g>
	<g>
		<g>
			<path fill="#3D3D3D" d="M20.811,8.503c1.341-1.046,2.673-2.104,4.075-3.067c0.854-0.587,0.046-1.99-0.816-1.397
				c-1.515,1.042-2.953,2.19-4.402,3.32C18.845,8,19.999,9.136,20.811,8.503L20.811,8.503z"/>
		</g>
	</g>
	<g>
		<g>
			<path fill="#3D3D3D" d="M23.532,4.871c0.081,2.367,0.044,4.733-0.001,7.1c-0.02,1.044,1.598,1.042,1.618,0
				c0.045-2.367,0.082-4.733,0.001-7.1C25.114,3.83,23.496,3.827,23.532,4.871L23.532,4.871z"/>
		</g>
	</g>
	<g>
		<g>
			<path fill="#3D3D3D" d="M22.042,13.144c1.443,0.018,2.879-0.073,4.316-0.189c1.032-0.083,1.041-1.702,0-1.618
				c-1.437,0.116-2.873,0.207-4.316,0.189C20.998,11.513,20.999,13.131,22.042,13.144L22.042,13.144z"/>
		</g>
	</g>
</g>
<g>
	<g>
		<g>
			<path fill="#3D3D3D" d="M34.24,8.503c1.341-1.046,2.673-2.104,4.075-3.067c0.854-0.587,0.046-1.99-0.816-1.397
				c-1.515,1.042-2.953,2.19-4.402,3.32C32.274,8,33.427,9.136,34.24,8.503L34.24,8.503z"/>
		</g>
	</g>
	<g>
		<g>
			<path fill="#3D3D3D" d="M36.96,4.871c0.081,2.367,0.044,4.733-0.001,7.1c-0.02,1.044,1.598,1.042,1.618,0
				c0.045-2.367,0.082-4.733,0.001-7.1C38.542,3.83,36.924,3.827,36.96,4.871L36.96,4.871z"/>
		</g>
	</g>
	<g>
		<g>
			<path fill="#3D3D3D" d="M35.47,13.144c1.443,0.018,2.879-0.073,4.316-0.189c1.032-0.083,1.041-1.702,0-1.618
				c-1.437,0.116-2.873,0.207-4.316,0.189C34.427,11.513,34.428,13.131,35.47,13.144L35.47,13.144z"/>
		</g>
	</g>
</g>
<g>
	<g>
		<g>
			<path fill="#3D3D3D" d="M47.954,8.503c1.341-1.046,2.673-2.104,4.075-3.067c0.854-0.587,0.046-1.99-0.816-1.397
				c-1.515,1.042-2.953,2.19-4.402,3.32C45.988,8,47.142,9.136,47.954,8.503L47.954,8.503z"/>
		</g>
	</g>
	<g>
		<g>
			<path fill="#3D3D3D" d="M50.674,4.871c0.081,2.367,0.044,4.733-0.001,7.1c-0.02,1.044,1.598,1.042,1.618,0
				c0.045-2.367,0.082-4.733,0.001-7.1C52.256,3.83,50.639,3.827,50.674,4.871L50.674,4.871z"/>
		</g>
	</g>
	<g>
		<g>
			<path fill="#3D3D3D" d="M49.185,13.144c1.443,0.018,2.879-0.073,4.316-0.189c1.032-0.083,1.041-1.702,0-1.618
				c-1.437,0.116-2.873,0.207-4.316,0.189C48.141,11.513,48.142,13.131,49.185,13.144L49.185,13.144z"/>
		</g>
	</g>
</g>
<g>
	<g>
		<g>
			<path fill="#3D3D3D" d="M61.668,8.503c1.341-1.046,2.673-2.104,4.075-3.067c0.854-0.587,0.046-1.99-0.816-1.397
				c-1.515,1.042-2.953,2.19-4.402,3.32C59.702,8,60.856,9.136,61.668,8.503L61.668,8.503z"/>
		</g>
	</g>
	<g>
		<g>
			<path fill="#3D3D3D" d="M64.389,4.871c0.081,2.367,0.044,4.733-0.001,7.1c-0.02,1.044,1.598,1.042,1.618,0
				c0.045-2.367,0.082-4.733,0.001-7.1C65.971,3.83,64.353,3.827,64.389,4.871L64.389,4.871z"/>
		</g>
	</g>
	<g>
		<g>
			<path fill="#3D3D3D" d="M62.899,13.144c1.443,0.018,2.879-0.073,4.316-0.189c1.032-0.083,1.041-1.702,0-1.618
				c-1.437,0.116-2.873,0.207-4.316,0.189C61.855,11.513,61.857,13.131,62.899,13.144L62.899,13.144z"/>
		</g>
	</g>
</g>
<g>
	<g>
		<g>
			<path fill="#3D3D3D" d="M75.383,8.503c1.341-1.046,2.673-2.104,4.075-3.067c0.854-0.587,0.046-1.99-0.816-1.397
				c-1.515,1.042-2.953,2.19-4.402,3.32C73.417,8,74.57,9.136,75.383,8.503L75.383,8.503z"/>
		</g>
	</g>
	<g>
		<g>
			<path fill="#3D3D3D" d="M78.103,4.871c0.081,2.367,0.044,4.733-0.001,7.1c-0.02,1.044,1.598,1.042,1.618,0
				c0.045-2.367,0.082-4.733,0.001-7.1C79.685,3.83,78.067,3.827,78.103,4.871L78.103,4.871z"/>
		</g>
	</g>
	<g>
		<g>
			<path fill="#3D3D3D" d="M76.613,13.144c1.443,0.018,2.879-0.073,4.316-0.189c1.032-0.083,1.041-1.702,0-1.618
				c-1.437,0.116-2.873,0.207-4.316,0.189C75.57,11.513,75.571,13.131,76.613,13.144L76.613,13.144z"/>
		</g>
	</g>
</g>
<g>
	<g>
		<g>
			<path fill="#3D3D3D" d="M89.097,8.503c1.341-1.046,2.673-2.104,4.075-3.067c0.854-0.587,0.046-1.99-0.816-1.397
				c-1.515,1.042-2.953,2.19-4.402,3.32C87.131,8,88.285,9.136,89.097,8.503L89.097,8.503z"/>
		</g>
	</g>
	<g>
		<g>
			<path fill="#3D3D3D" d="M91.817,4.871c0.081,2.367,0.044,4.733-0.001,7.1c-0.02,1.044,1.598,1.042,1.618,0
				c0.045-2.367,0.082-4.733,0.001-7.1C93.399,3.83,91.781,3.827,91.817,4.871L91.817,4.871z"/>
		</g>
	</g>
	<g>
		<g>
			<path fill="#3D3D3D" d="M90.328,13.144c1.443,0.018,2.879-0.073,4.316-0.189c1.032-0.083,1.041-1.702,0-1.618
				c-1.437,0.116-2.873,0.207-4.316,0.189C89.284,11.513,89.285,13.131,90.328,13.144L90.328,13.144z"/>
		</g>
	</g>
</g>
<g>
	<g>
		<g>
			<path fill="#3D3D3D" d="M102.811,8.503c1.341-1.046,2.673-2.104,4.075-3.067c0.854-0.587,0.046-1.99-0.816-1.397
				c-1.515,1.042-2.953,2.19-4.402,3.32C100.845,8,101.999,9.136,102.811,8.503L102.811,8.503z"/>
		</g>
	</g>
	<g>
		<g>
			<path fill="#3D3D3D" d="M105.532,4.871c0.081,2.367,0.044,4.733-0.001,7.1c-0.02,1.044,1.598,1.042,1.618,0
				c0.045-2.367,0.082-4.733,0.001-7.1C107.114,3.83,105.496,3.827,105.532,4.871L105.532,4.871z"/>
		</g>
	</g>
	<g>
		<g>
			<path fill="#3D3D3D" d="M104.042,13.144c1.443,0.018,2.879-0.073,4.316-0.189c1.032-0.083,1.041-1.702,0-1.618
				c-1.437,0.116-2.873,0.207-4.316,0.189C102.998,11.513,102.999,13.131,104.042,13.144L104.042,13.144z"/>
		</g>
	</g>
</g>
</svg>
