<?xml version="1.0" encoding="utf-8"?>
<!-- Generator: Adobe Illustrator 17.0.0, SVG Export Plug-In . SVG Version: 6.00 Build 0)  -->
<!DOCTYPE svg PUBLIC "-//W3C//DTD SVG 1.1//EN" "http://www.w3.org/Graphics/SVG/1.1/DTD/svg11.dtd">
<svg version="1.1" xmlns="http://www.w3.org/2000/svg" xmlns:xlink="http://www.w3.org/1999/xlink" x="0px" y="0px"
	 width="79.815px" height="95.434px" viewBox="33.947 23.56 79.815 95.434" enable-background="new 33.947 23.56 79.815 95.434"
	 xml:space="preserve">
<g id="Calque_1">
	<path fill="#4B4B4B" d="M94.189,101.359c-10.662-1.012-21.601-1.206-32.189-1.245c0-1.504,0-2.841,0-4.355
		c1.039,0.109,2.076,0.209,3.109,0.297c0.003,0.006,0.005,0.011,0.007,0.017c0.514,1.104,1.729,0.907,2.356,0.174
		c4.578,0.324,9.142,0.466,13.808,0.526c0.155,1.054,1.248,1.444,2.068,1.158c0.104,0.661,0.34,1.317,0.626,1.914
		c0.353,0.737,1.391,0.926,2.052,0.538c0.748-0.438,0.891-1.315,0.538-2.052c-0.153-0.32-0.272-0.7-0.286-0.893
		c-0.002-0.033,0.02-0.195,0.026-0.263c0.047-0.039,0.099-0.082,0.127-0.106c0.042-0.024,0.084-0.048,0.128-0.07
		c0.016-0.003,0.062-0.019,0.147-0.05c0.398-0.128,0.652-0.127,1.077-0.133c0.008,0,0.014-0.002,0.022-0.003
		c0.399,0,0.793,0.002,1.195,0.003c2,0,2-3,0-3c-1.711,0-3.395-0.007-5.07-0.019c-0.46-2.356-1.358-4.647-2.395-6.781
		c-0.349-0.718-0.993-0.875-1.571-0.697c-0.241-0.196-0.559-0.322-0.964-0.322c-5,0-9,0-14,0c-1.32,0-1.763,1.304-1.341,2.193
		c0.014,1.645,0.109,3.232,0.437,4.783c-0.948-0.086-1.899-0.187-2.852-0.292c-0.355-0.186-0.781-0.225-1.17-0.122
		c-1.394-0.148-1.74,1.421-1.074,2.352c0,1.17,0,3.278,0,5.194c-1.678-0.002-3.346-0.002-5-0.003c-0.067,0-0.126,0.012-0.188,0.018
		c-0.051-0.007-0.101-0.011-0.152-0.018c-1.875-0.249-1.827,2.624-0.046,2.975c0.012,0.06,0.018,0.118,0.037,0.181
		c1.109,3.576,1.201,7.203,1.204,10.915c0.001,1.935,3.001,1.935,3,0c-0.002-3.624-0.115-7.202-1.032-10.704
		c7.686,0.815,15.243,0.888,23.178,0.889c0.66,0,1.098-0.329,1.322-0.767c3.426,0.131,6.746,0.298,9.678,0.508
		c0,1.588,0,4.486,0,5.897c0,2,3,2,3,0c0-1.589,0-3.803,0-5.652c0.048,0.005,0.101,0.009,0.149,0.013
		C96.075,104.541,96.097,101.54,94.189,101.359z M66.667,88.997c2.835,0,8.658,0,12.333,0c0.056,0,0.104-0.01,0.156-0.015
		c0.708,1.51,1.334,3.129,1.715,4.784c-4.61-0.064-9.127-0.208-13.656-0.535C66.81,91.857,66.696,90.438,66.667,88.997z"/>
</g>
<g id="Calque_2">
	<path id="levier" fill="#4B4B4B" d="M102.977,46.08c-1.589-0.901-2.99-2.069-4.434-3.176c-0.034-0.03-0.071-0.054-0.106-0.081
		c-0.053-0.041-0.108-0.08-0.161-0.12c-0.233-0.711-0.812-1.228-1.584-1.132c-0.321-0.211-0.648-0.414-0.984-0.605
		c-1.642-0.931-4.614,1.464-5.868,2.364c-1.569,1.126-2.662,2.602-3.331,4.399c-0.491,1.318-0.403,2.859-0.213,4.221
		c0.016,0.115,0.042,0.248,0.073,0.392c-0.075,0.084-0.142,0.169-0.181,0.256c-0.267,0.583-0.38,1.446,0.19,1.928
		c0.024,0.36,0.108,0.683,0.249,0.96c-0.043,0.1-0.087,0.199-0.155,0.278c-0.864,0.998-0.142,2.313,0.807,2.569
		c-4.333,7.212-8.247,14.681-12.079,22.174c-1.35,1.853-2.721,3.691-4.137,5.5c-1.178,1.505,0.93,3.644,2.121,2.121
		c0.071-0.091,0.139-0.184,0.211-0.275c0.609,0.213,1.328,0.061,1.715-0.699c0.135-0.264,0.27-0.527,0.404-0.791
		c0.058-0.064,0.115-0.129,0.167-0.208c5.628-8.663,12.019-16.846,17.205-25.784c0.407,0.162,0.842,0.164,1.284-0.073
		c0.453-0.244,0.714-0.7,0.895-1.179c0.372,1.183,2.437,1.398,2.894-0.133c0.446-0.044,0.855-0.143,1.206-0.305
		c0.713-0.102,1.366-0.746,1.492-1.826c0.059-0.508,0.084-1.023,0.096-1.54c1.425-1.234,2.905-2.431,3.315-4.503
		C104.314,49.559,104.249,46.802,102.977,46.08z M94.902,58.962c0.002,0,0.003,0.001,0.005,0.001
		C94.901,59.016,94.896,59.024,94.902,58.962z"/>
</g>
</svg>
