<?xml version="1.0" encoding="utf-8"?>
<!-- Generator: Adobe Illustrator 17.0.0, SVG Export Plug-In . SVG Version: 6.00 Build 0)  -->
<!DOCTYPE svg PUBLIC "-//W3C//DTD SVG 1.1//EN" "http://www.w3.org/Graphics/SVG/1.1/DTD/svg11.dtd">
<svg version="1.1" id="Calque_1" xmlns="http://www.w3.org/2000/svg" xmlns:xlink="http://www.w3.org/1999/xlink" x="0px" y="0px"
	 width="160.797px" height="70.139px" viewBox="0 0 160.797 70.139" enable-background="new 0 0 160.797 70.139"
	 xml:space="preserve">
<g>
	<g>
		<g>
			<g>
				<path fill="#3D3D3D" d="M42.222,38.801c3.197,6.896,8.643,12.304,11.195,19.522c0.635,1.797,3.511,1.023,2.87-0.791
					c-2.648-7.491-8.184-13.091-11.495-20.233C43.985,35.559,41.42,37.072,42.222,38.801L42.222,38.801z"/>
			</g>
		</g>
		<g>
			<g>
				<path fill="#3D3D3D" d="M61.667,38.686c-1.524,7.468-3.381,14.738-4.179,22.336c-0.2,1.908,2.778,1.889,2.976,0
					c0.77-7.333,2.602-14.34,4.072-21.545C64.92,37.604,62.051,36.806,61.667,38.686L61.667,38.686z"/>
			</g>
		</g>
		<g>
			<g>
				<path fill="#3D3D3D" d="M53.416,37.697c1.008,7.067,1.933,14.115,2.01,21.263c0.021,1.918,2.997,1.92,2.976,0
					c-0.079-7.412-1.071-14.728-2.116-22.054C56.017,35.012,53.149,35.82,53.416,37.697L53.416,37.697z"/>
			</g>
		</g>
		<g>
			<g>
				<path fill="#3D3D3D" d="M46.347,39.833c3.082,5.851,7.905,10.096,10.164,16.428c0.729-0.56,1.457-1.12,2.186-1.681
					c-3.062-2.012-4.84-2.044-8.366-1.181c-1.6,0.391-1.289,3.14,0.396,2.923c0.848-0.109,4.192-1.352,4.534-1.164
					c-0.1-0.779-0.201-1.558-0.301-2.337c-1.118,0.866-3.225,1.403-4.629,1.609c-1.587,0.233-1.24,2.437,0,2.87
					c3.299,1.151,9.514,0.779,12.492-1.181c-0.729-0.296-1.457-0.593-2.186-0.889c0.546,1.647,2.761,5.93,2.216,7.534
					c0.729-0.296,1.457-0.593,2.186-0.889c0.53,1.161,0.724,1.201,0.584,0.121c0-0.668,0-1.337,0-2.005c0-1.919-2.976-1.919-2.976,0
					c0,2.063,0,4.125,0,6.188c0.496-0.496,0.992-0.992,1.488-1.488c-3.796,0.101-9.866,0.111-13.127,2.266
					c0.729,0.296,1.457,0.593,2.186,0.889c-0.904-2.572-0.504-5.645-0.834-8.337c-0.214-1.745-1.175-2.973-1.175-4.675
					c0-1.93-2.879-1.905-2.976,0c-0.165,3.214-0.722,6.238,1.235,9.002c1.097,1.549,3.482,0.217,2.57-1.502
					c-1.174-2.215-2.585-4.339-2.944-6.864c-0.907,0.382-1.813,0.764-2.72,1.147c1.614,2.362,1.967,5.615,3.094,8.251
					c0.633,1.48,2.689,0.569,2.773-0.751c0.146-2.284,0.604-4.567,0.978-6.824c-0.957,0-1.913,0-2.87,0
					c0.72,2.395,0.313,4.829,1.031,7.219c0.416,1.382,2.493,1.46,2.87,0c0.634-2.452-0.624-4.808,0-7.219c-0.957,0-1.913,0-2.87,0
					c0.824,2.472,0.641,4.401,2.213,6.544c0.831,1.134,2.773,0.839,2.773-0.751c0-1.719,0-3.438,0-5.157
					c-0.924,0.25-1.849,0.501-2.773,0.751c0.75,1.532-0.174,3.252,1.264,4.427c1.14,0.931,2.827,0.081,2.487-1.448
					c-0.25-0.636-0.3-1.285-0.15-1.947c-0.907-0.118-1.813-0.237-2.72-0.355c0.344,1.031,0.688,2.063,1.031,3.094
					c0.292,0.876,1.338,1.431,2.186,0.889c1.537-0.983,1.724-2.639,1.768-4.379c-0.992,0-1.984,0-2.976,0
					c0.019,2.049-0.173,5.178,1.768,6.442c0.798,0.52,1.96,0.014,2.186-0.889c0.344-1.375,0.688-2.75,1.031-4.125
					c-0.974-0.132-1.949-0.264-2.923-0.396c0,1.031,0,2.063,0,3.094c0,1.396,2.13,2.146,2.773,0.751
					c1.336-2.899,1.548-5.514,2.213-8.606c-0.907,0.118-1.813,0.237-2.72,0.355c1.693,2.381,1.672,6.851,2.348,9.781
					c0.907-0.382,1.813-0.764,2.72-1.147c-0.145-0.285-0.29-0.569-0.435-0.854c-0.178,0.679-0.356,1.357-0.534,2.036
					c2.615-1.906-0.049-8.261-1.529-10.287c-0.796-1.089-2.865-0.867-2.773,0.751c0.176,3.108,0.856,6.174,1.031,9.282
					c0.496-0.496,0.992-0.992,1.488-1.488c-4.598,0.121-9.394,0.8-13.803,2.116c0.628,0.478,1.256,0.957,1.884,1.435
					c-0.385-3.394-0.34-8.157-2.266-11.065c-0.937-1.415-3.095-0.524-2.72,1.147c0.752,3.354,1.23,7.809,3.244,10.669
					c0.594,0.844,1.548,0.932,2.337,0.301c2.222-1.776,6.187-2.587,8.866-1.68c1.133,0.384,2.062-0.791,1.831-1.831
					c-1.664-7.467-3.532-14.758-6.188-21.941c-0.563-1.523-2.923-1.366-2.923,0.396c0,2.157,0,4.314,0,6.47
					c0,1.641,2.608,2.08,2.923,0.396c0.469-2.502,0.564-5.005,1.031-7.502c-0.957,0-1.913,0-2.87,0
					c0.552,3.168,0.976,5.944,0.978,9.169c0.001,1.638,2.622,2.084,2.923,0.396c0.913-5.127,0.961-10.381,2.063-15.47
					c-0.974-0.132-1.949-0.264-2.923-0.396c-0.147,2.082-1.166,10.424-2.357,11.091c0.746,0.428,1.493,0.857,2.239,1.285
					c0.155-1.902,2.385-4.168,3.041-6.075c0.288-0.836-0.496-2.009-1.435-1.884c-2.153,0.288-4.675,1.631-6.824,1.085
					c-0.132,0.974-0.264,1.949-0.396,2.923c1.031,0,2.063,0,3.094,0c1.122,0,1.863-1.266,1.285-2.239
					c-0.876-1.476-3.516-1.036-4.125-2.063c-0.56,0.729-1.12,1.457-1.681,2.186c2.551,0.547,4.564,1.804,6.605-0.383
					c0.938-1.005,0.224-2.421-1.052-2.54c-1.606-0.15-3.199-0.593-4.761-0.978c-0.264,0.957-0.527,1.913-0.791,2.87
					c3.486,0.682,6.856-0.676,10.314,0c0.939,0.184,1.884-0.412,1.884-1.435c0-0.594,0-1.187,0-1.781
					c0-1.414-1.572-1.815-2.54-1.052c-1.151,0.905-0.073,3.9,0,3.843c-0.452,0.356-2.197-0.639-3.327,1.615
					c0.779-0.1,1.558-0.201,2.337-0.301c-2.364-2.828-3.641-1.073-6.845-1.696c-1.26-0.245-2.351,0.986-1.681,2.186
					c1.574,2.817,4.162,2.519,6.463,0.583c0.372-0.313,0.55-0.992,0.383-1.448c-1.058-2.88-4.411-4.827-6.571-6.845
					c-1.229-1.148-3.192,0.311-2.337,1.803c2.938,5.13,4.91,10.663,7.069,16.146c0.957-0.264,1.913-0.527,2.87-0.791
					c-2.182-5.459-4.301-10.932-6.188-16.502c-0.613-1.809-3.317-1.087-2.87,0.791c1.3,5.46,4.037,10.324,6.188,15.47
					c0.829-0.483,1.658-0.965,2.487-1.448c-3.91-4.323-5.216-10.168-8.018-15.169c-0.591-1.054-2.495-0.946-2.72,0.355
					c-0.884,5.104,3.723,9.587,5.157,14.199c0.485,1.56,3.006,1.334,2.923-0.396c-0.081-1.705-0.114-3.884-1.427-5.189
					c-1.837-1.826-3.699-2.016-4.814-4.771c-0.228,0.56-0.456,1.12-0.684,1.681c3.943-1.959,8.614,1.855,12.376,0
					c1.147-0.566,0.864-2.448-0.355-2.72c-1.629-0.363-4.133-2.383-5.573-0.649c-0.797,0.96-0.336,2.54,1.052,2.54
					c1.375,0,2.75,0,4.125,0c-0.132-0.974-0.264-1.949-0.396-2.923c-3.775,0.747-7.065-0.519-10.669,1.181
					c-0.76,0.359-0.881,1.366-0.534,2.036c2.074,4.006,6.427,8.807,7.069,13.334c0.269,1.894,3.136,1.085,2.87-0.791
					c-0.691-4.865-5.155-9.768-7.369-14.045c-0.178,0.679-0.356,1.357-0.534,2.036c3.084-1.455,6.705-0.238,9.958-0.881
					c1.68-0.332,1.249-2.923-0.396-2.923c-1.375,0-2.75,0-4.125,0c0.351,0.847,0.702,1.694,1.052,2.54
					c-1.083,0.199-0.818,0.455,0.794,0.767c0.622,0.274,1.221,0.499,1.883,0.647c-0.118-0.907-0.237-1.813-0.355-2.72
					c-1.194,0.589-4.442-0.603-5.78-0.744c-2.331-0.246-4.47-0.312-6.596,0.744c-0.543,0.27-0.919,1.101-0.684,1.681
					c1.511,3.734,5.946,5.206,6.135,9.169c0.974-0.132,1.949-0.264,2.923-0.396c-1.156-3.719-5.832-8.718-5.157-12.616
					c-0.907,0.118-1.813,0.237-2.72,0.355c2.954,5.272,4.356,11.207,8.484,15.771c0.951,1.052,3.072-0.05,2.487-1.448
					c-2.145-5.133-4.893-10.027-6.188-15.47c-0.957,0.264-1.913,0.527-2.87,0.791c1.887,5.569,4.006,11.043,6.188,16.502
					c0.702,1.757,3.575,1,2.87-0.791c-2.254-5.723-4.303-11.502-7.369-16.857c-0.779,0.601-1.558,1.202-2.337,1.803
					c0.854,0.798,1.745,1.556,2.624,2.327c0.57,0.501,1.131,1.013,1.683,1.535c0.246,0.243,0.493,0.487,0.739,0.73
					c1.282-0.274,1.067-0.437-0.646-0.489c-0.56,0.729-1.12,1.457-1.681,2.186c1.669,0.325,4.364-0.466,5.531,0.931
					c0.596,0.713,1.93,0.511,2.337-0.301c0.013-0.025,2.245-0.297,2.861-1.012c0.662-0.769,0.404-4.161,0-3.843
					c-0.847-0.351-1.694-0.702-2.54-1.052c0,0.594,0,1.187,0,1.781c0.628-0.478,1.256-0.957,1.884-1.435
					c-3.486-0.682-6.856,0.676-10.314,0c-1.864-0.365-2.671,2.406-0.791,2.87c1.83,0.452,3.672,0.909,5.552,1.085
					c-0.351-0.847-0.702-1.694-1.052-2.54c-0.92,0.986-2.694-0.165-3.709-0.383c-1.24-0.266-2.379,1.009-1.681,2.186
					c0.876,1.476,3.516,1.036,4.125,2.063c0.428-0.746,0.857-1.493,1.285-2.239c-1.031,0-2.063,0-3.094,0
					c-1.672,0-2.038,2.506-0.396,2.923c2.804,0.713,4.85-0.609,7.615-0.978c-0.478-0.628-0.957-1.256-1.435-1.884
					c-1.016,2.952-2.883,3.625-3.147,6.866c-0.095,1.167,1.322,1.799,2.239,1.285c3.089-1.73,3.608-10.492,3.831-13.661
					c0.118-1.678-2.57-2.028-2.923-0.396c-1.103,5.096-1.149,10.342-2.063,15.47c0.974,0.132,1.949,0.264,2.923,0.396
					c-0.002-3.51-0.484-6.513-1.085-9.96c-0.25-1.435-2.605-1.417-2.87,0c-0.469,2.502-0.564,5.005-1.031,7.502
					c0.974,0.132,1.949,0.264,2.923,0.396c0-2.157,0-4.314,0-6.47c-0.974,0.132-1.949,0.264-2.923,0.396
					c2.656,7.183,4.525,14.474,6.188,21.941c0.61-0.61,1.22-1.22,1.831-1.831c-3.804-1.287-8.701,0-11.761,2.445
					c0.779,0.1,1.558,0.201,2.337,0.301c-1.839-2.611-2.253-6.877-2.944-9.958c-0.907,0.382-1.813,0.764-2.72,1.147
					c1.597,2.412,1.542,6.764,1.86,9.562c0.105,0.927,0.874,1.736,1.884,1.435c4.185-1.249,8.65-1.894,13.012-2.01
					c0.775-0.02,1.535-0.662,1.488-1.488c-0.176-3.108-0.856-6.174-1.031-9.282c-0.924,0.25-1.849,0.501-2.773,0.751
					c0.432,0.591,2.47,6.307,2.597,6.215c-0.685,0.499-0.931,1.256-0.534,2.036c0.145,0.285,0.29,0.569,0.435,0.854
					c0.794,1.558,3.087,0.443,2.72-1.147c-0.787-3.409-0.567-7.565-2.648-10.492c-0.686-0.965-2.426-1.015-2.72,0.355
					c-0.591,2.753-0.709,5.283-1.913,7.895c0.924,0.25,1.849,0.501,2.773,0.751c0-1.031,0-2.063,0-3.094
					c0-1.67-2.512-2.042-2.923-0.396c-0.344,1.375-0.688,2.75-1.031,4.125c0.729-0.296,1.457-0.593,2.186-0.889
					c-0.456-0.297-0.288-3.232-0.294-3.872c-0.017-1.922-2.927-1.916-2.976,0c-0.014,0.547,0.191,1.499-0.294,1.809
					c0.729,0.296,1.457,0.593,2.186,0.889c-0.344-1.031-0.688-2.063-1.031-3.094c-0.365-1.095-2.155-1.627-2.72-0.355
					c-0.771,1.735-0.572,2.343-0.15,4.241c0.829-0.483,1.658-0.965,2.487-1.448c-0.218-0.178-0.458-3.13-0.799-3.824
					c-0.671-1.369-2.773-0.664-2.773,0.751c0,1.719,0,3.438,0,5.157c0.924-0.25,1.849-0.501,2.773-0.751
					c-1.327-1.81-1.25-3.844-1.913-5.833c-0.45-1.349-2.485-1.489-2.87,0c-0.634,2.452,0.624,4.808,0,7.219c0.957,0,1.913,0,2.87,0
					c-0.72-2.395-0.313-4.829-1.031-7.219c-0.393-1.307-2.616-1.533-2.87,0c-0.417,2.517-0.922,5.066-1.085,7.615
					c0.924-0.25,1.849-0.501,2.773-0.751c-1.14-2.667-1.439-5.828-3.094-8.251c-0.999-1.462-2.954-0.498-2.72,1.147
					c0.395,2.78,1.948,5.131,3.244,7.575c0.857-0.501,1.713-1.001,2.57-1.502c-1.646-2.326-0.96-4.923-0.828-7.5
					c-0.992,0-1.984,0-2.976,0c0,2.618,1.183,4.192,1.386,6.786c0.181,2.314-0.051,4.795,0.73,7.017
					c0.302,0.858,1.335,1.452,2.186,0.889c2.865-1.893,8.274-1.77,11.625-1.86c0.811-0.022,1.488-0.661,1.488-1.488
					c0-2.063,0-4.125,0-6.188c0-1.919-2.976-1.919-2.976,0c0,1.031,0,2.063,0,3.094c0,0.493,0.276,1.061,0.737,1.285
					c0.051,0.025,0.102,0.05,0.153,0.075c0.896,0.435,1.861,0.067,2.186-0.889c0.836-2.463-1.441-6.779-2.216-9.117
					c-0.288-0.868-1.345-1.443-2.186-0.889c-2.378,1.566-7.563,1.801-10.198,0.881c0,0.957,0,1.913,0,2.87
					c1.968-0.289,4.355-1.145,5.942-2.375c0.76-0.589,0.465-1.916-0.301-2.337c-1.651-0.907-4.368,0.543-6.037,0.757
					c0.132,0.974,0.264,1.949,0.396,2.923c2.648-0.648,3.821-0.598,6.073,0.881c1.058,0.695,2.622-0.458,2.186-1.681
					c-2.367-6.638-7.241-11.02-10.464-17.139C48.022,36.632,45.453,38.136,46.347,39.833L46.347,39.833z"/>
			</g>
		</g>
	</g>
	<g>
		<g>
			<g>
				<path fill="#3D3D3D" d="M106.222,38.801c3.197,6.896,8.643,12.304,11.195,19.522c0.635,1.797,3.511,1.023,2.87-0.791
					c-2.648-7.491-8.184-13.091-11.495-20.233C107.985,35.559,105.42,37.072,106.222,38.801L106.222,38.801z"/>
			</g>
		</g>
		<g>
			<g>
				<path fill="#3D3D3D" d="M125.667,38.686c-1.524,7.468-3.381,14.738-4.179,22.336c-0.2,1.908,2.778,1.889,2.976,0
					c0.77-7.333,2.602-14.34,4.072-21.545C128.92,37.604,126.051,36.806,125.667,38.686L125.667,38.686z"/>
			</g>
		</g>
		<g>
			<g>
				<path fill="#3D3D3D" d="M117.416,37.697c1.008,7.067,1.933,14.115,2.01,21.263c0.021,1.918,2.997,1.92,2.976,0
					c-0.079-7.412-1.071-14.728-2.116-22.054C120.017,35.012,117.149,35.82,117.416,37.697L117.416,37.697z"/>
			</g>
		</g>
		<g>
			<g>
				<path fill="#3D3D3D" d="M110.347,39.833c3.082,5.851,7.905,10.096,10.164,16.428c0.729-0.56,1.457-1.12,2.186-1.681
					c-3.062-2.012-4.84-2.044-8.366-1.181c-1.6,0.391-1.289,3.14,0.396,2.923c0.848-0.109,4.192-1.352,4.534-1.164
					c-0.1-0.779-0.201-1.558-0.301-2.337c-1.118,0.866-3.225,1.403-4.629,1.609c-1.587,0.233-1.24,2.437,0,2.87
					c3.299,1.151,9.514,0.779,12.492-1.181c-0.729-0.296-1.457-0.593-2.186-0.889c0.546,1.647,2.761,5.93,2.216,7.534
					c0.729-0.296,1.457-0.593,2.186-0.889c0.53,1.161,0.724,1.201,0.584,0.121c0-0.668,0-1.337,0-2.005c0-1.919-2.976-1.919-2.976,0
					c0,2.063,0,4.125,0,6.188c0.496-0.496,0.992-0.992,1.488-1.488c-3.796,0.101-9.866,0.111-13.127,2.266
					c0.729,0.296,1.457,0.593,2.186,0.889c-0.904-2.572-0.504-5.645-0.834-8.337c-0.214-1.745-1.175-2.973-1.175-4.675
					c0-1.93-2.879-1.905-2.976,0c-0.165,3.214-0.722,6.238,1.235,9.002c1.097,1.549,3.482,0.217,2.57-1.502
					c-1.174-2.215-2.585-4.339-2.944-6.864c-0.907,0.382-1.813,0.764-2.72,1.147c1.614,2.362,1.967,5.615,3.094,8.251
					c0.633,1.48,2.689,0.569,2.773-0.751c0.146-2.284,0.604-4.567,0.978-6.824c-0.957,0-1.913,0-2.87,0
					c0.72,2.395,0.313,4.829,1.031,7.219c0.416,1.382,2.493,1.46,2.87,0c0.634-2.452-0.624-4.808,0-7.219c-0.957,0-1.913,0-2.87,0
					c0.824,2.472,0.641,4.401,2.213,6.544c0.831,1.134,2.773,0.839,2.773-0.751c0-1.719,0-3.438,0-5.157
					c-0.924,0.25-1.849,0.501-2.773,0.751c0.75,1.532-0.174,3.252,1.264,4.427c1.14,0.931,2.827,0.081,2.487-1.448
					c-0.25-0.636-0.3-1.285-0.15-1.947c-0.907-0.118-1.813-0.237-2.72-0.355c0.344,1.031,0.688,2.063,1.031,3.094
					c0.292,0.876,1.338,1.431,2.186,0.889c1.537-0.983,1.724-2.639,1.768-4.379c-0.992,0-1.984,0-2.976,0
					c0.019,2.049-0.173,5.178,1.768,6.442c0.798,0.52,1.96,0.014,2.186-0.889c0.344-1.375,0.688-2.75,1.031-4.125
					c-0.974-0.132-1.949-0.264-2.923-0.396c0,1.031,0,2.063,0,3.094c0,1.396,2.13,2.146,2.773,0.751
					c1.336-2.899,1.548-5.514,2.213-8.606c-0.907,0.118-1.813,0.237-2.72,0.355c1.693,2.381,1.672,6.851,2.348,9.781
					c0.907-0.382,1.813-0.764,2.72-1.147c-0.145-0.285-0.29-0.569-0.435-0.854c-0.178,0.679-0.356,1.357-0.534,2.036
					c2.615-1.906-0.049-8.261-1.529-10.287c-0.796-1.089-2.865-0.867-2.773,0.751c0.176,3.108,0.856,6.174,1.031,9.282
					c0.496-0.496,0.992-0.992,1.488-1.488c-4.598,0.121-9.394,0.8-13.803,2.116c0.628,0.478,1.256,0.957,1.884,1.435
					c-0.385-3.394-0.34-8.157-2.266-11.065c-0.937-1.415-3.095-0.524-2.72,1.147c0.752,3.354,1.23,7.809,3.244,10.669
					c0.594,0.844,1.548,0.932,2.337,0.301c2.222-1.776,6.187-2.587,8.866-1.68c1.133,0.384,2.062-0.791,1.831-1.831
					c-1.664-7.467-3.532-14.758-6.188-21.941c-0.563-1.523-2.923-1.366-2.923,0.396c0,2.157,0,4.314,0,6.47
					c0,1.641,2.608,2.08,2.923,0.396c0.469-2.502,0.564-5.005,1.031-7.502c-0.957,0-1.913,0-2.87,0
					c0.552,3.168,0.976,5.944,0.978,9.169c0.001,1.638,2.622,2.084,2.923,0.396c0.913-5.127,0.961-10.381,2.063-15.47
					c-0.974-0.132-1.949-0.264-2.923-0.396c-0.147,2.082-1.166,10.424-2.357,11.091c0.746,0.428,1.493,0.857,2.239,1.285
					c0.155-1.902,2.384-4.168,3.041-6.075c0.288-0.836-0.496-2.009-1.435-1.884c-2.153,0.288-4.675,1.631-6.824,1.085
					c-0.132,0.974-0.264,1.949-0.396,2.923c1.031,0,2.063,0,3.094,0c1.122,0,1.863-1.266,1.285-2.239
					c-0.876-1.476-3.516-1.036-4.125-2.063c-0.56,0.729-1.12,1.457-1.681,2.186c2.551,0.547,4.564,1.804,6.605-0.383
					c0.938-1.005,0.224-2.421-1.052-2.54c-1.606-0.15-3.199-0.593-4.761-0.978c-0.264,0.957-0.527,1.913-0.791,2.87
					c3.486,0.682,6.856-0.676,10.314,0c0.939,0.184,1.884-0.412,1.884-1.435c0-0.594,0-1.187,0-1.781
					c0-1.414-1.572-1.815-2.54-1.052c-1.151,0.905-0.073,3.9,0,3.843c-0.452,0.356-2.197-0.639-3.327,1.615
					c0.779-0.1,1.558-0.201,2.337-0.301c-2.364-2.828-3.641-1.073-6.845-1.696c-1.26-0.245-2.351,0.986-1.681,2.186
					c1.574,2.817,4.162,2.519,6.463,0.583c0.372-0.313,0.55-0.992,0.383-1.448c-1.058-2.88-4.411-4.827-6.571-6.845
					c-1.229-1.148-3.192,0.311-2.337,1.803c2.938,5.13,4.91,10.663,7.069,16.146c0.957-0.264,1.913-0.527,2.87-0.791
					c-2.182-5.459-4.301-10.932-6.188-16.502c-0.613-1.809-3.317-1.087-2.87,0.791c1.3,5.46,4.037,10.324,6.188,15.47
					c0.829-0.483,1.658-0.965,2.487-1.448c-3.91-4.323-5.216-10.168-8.018-15.169c-0.591-1.054-2.495-0.946-2.72,0.355
					c-0.884,5.104,3.723,9.587,5.157,14.199c0.485,1.56,3.006,1.334,2.923-0.396c-0.081-1.705-0.114-3.884-1.427-5.189
					c-1.837-1.826-3.699-2.016-4.814-4.771c-0.228,0.56-0.456,1.12-0.684,1.681c3.943-1.959,8.614,1.855,12.376,0
					c1.147-0.566,0.864-2.448-0.355-2.72c-1.629-0.363-4.133-2.383-5.573-0.649c-0.797,0.96-0.336,2.54,1.052,2.54
					c1.375,0,2.75,0,4.125,0c-0.132-0.974-0.264-1.949-0.396-2.923c-3.775,0.747-7.065-0.519-10.669,1.181
					c-0.76,0.359-0.881,1.366-0.534,2.036c2.074,4.006,6.427,8.807,7.069,13.334c0.269,1.894,3.136,1.085,2.87-0.791
					c-0.691-4.865-5.155-9.768-7.369-14.045c-0.178,0.679-0.356,1.357-0.534,2.036c3.084-1.455,6.705-0.238,9.958-0.881
					c1.68-0.332,1.249-2.923-0.396-2.923c-1.375,0-2.75,0-4.125,0c0.351,0.847,0.702,1.694,1.052,2.54
					c-1.083,0.199-0.818,0.455,0.794,0.767c0.622,0.274,1.22,0.499,1.883,0.647c-0.118-0.907-0.237-1.813-0.355-2.72
					c-1.194,0.589-4.442-0.603-5.78-0.744c-2.331-0.246-4.47-0.312-6.596,0.744c-0.543,0.27-0.919,1.101-0.684,1.681
					c1.511,3.734,5.946,5.206,6.135,9.169c0.974-0.132,1.949-0.264,2.923-0.396c-1.156-3.719-5.832-8.718-5.157-12.616
					c-0.907,0.118-1.813,0.237-2.72,0.355c2.954,5.272,4.356,11.207,8.484,15.771c0.951,1.052,3.072-0.05,2.487-1.448
					c-2.145-5.133-4.893-10.027-6.188-15.47c-0.957,0.264-1.913,0.527-2.87,0.791c1.887,5.569,4.006,11.043,6.188,16.502
					c0.702,1.757,3.575,1,2.87-0.791c-2.254-5.723-4.303-11.502-7.369-16.857c-0.779,0.601-1.558,1.202-2.337,1.803
					c0.854,0.798,1.745,1.556,2.624,2.327c0.57,0.501,1.131,1.013,1.683,1.535c0.246,0.243,0.493,0.487,0.739,0.73
					c1.282-0.274,1.067-0.437-0.646-0.489c-0.56,0.729-1.12,1.457-1.681,2.186c1.669,0.325,4.364-0.466,5.531,0.931
					c0.596,0.713,1.93,0.511,2.337-0.301c0.013-0.025,2.245-0.297,2.861-1.012c0.662-0.769,0.404-4.161,0-3.843
					c-0.847-0.351-1.694-0.702-2.54-1.052c0,0.594,0,1.187,0,1.781c0.628-0.478,1.256-0.957,1.884-1.435
					c-3.486-0.682-6.856,0.676-10.314,0c-1.864-0.365-2.671,2.406-0.791,2.87c1.83,0.452,3.672,0.909,5.552,1.085
					c-0.351-0.847-0.702-1.694-1.052-2.54c-0.92,0.986-2.694-0.165-3.709-0.383c-1.24-0.266-2.379,1.009-1.681,2.186
					c0.876,1.476,3.516,1.036,4.125,2.063c0.428-0.746,0.857-1.493,1.285-2.239c-1.031,0-2.063,0-3.094,0
					c-1.672,0-2.038,2.506-0.396,2.923c2.804,0.713,4.85-0.609,7.615-0.978c-0.478-0.628-0.957-1.256-1.435-1.884
					c-1.016,2.952-2.883,3.625-3.147,6.866c-0.095,1.167,1.322,1.799,2.239,1.285c3.089-1.73,3.608-10.492,3.831-13.661
					c0.118-1.678-2.57-2.028-2.923-0.396c-1.103,5.096-1.149,10.342-2.063,15.47c0.974,0.132,1.949,0.264,2.923,0.396
					c-0.002-3.51-0.484-6.513-1.085-9.96c-0.25-1.435-2.605-1.417-2.87,0c-0.469,2.502-0.564,5.005-1.031,7.502
					c0.974,0.132,1.949,0.264,2.923,0.396c0-2.157,0-4.314,0-6.47c-0.974,0.132-1.949,0.264-2.923,0.396
					c2.656,7.183,4.525,14.474,6.188,21.941c0.61-0.61,1.22-1.22,1.831-1.831c-3.804-1.287-8.701,0-11.761,2.445
					c0.779,0.1,1.558,0.201,2.337,0.301c-1.839-2.611-2.253-6.877-2.944-9.958c-0.907,0.382-1.813,0.764-2.72,1.147
					c1.597,2.412,1.542,6.764,1.86,9.562c0.105,0.927,0.874,1.736,1.884,1.435c4.185-1.249,8.65-1.894,13.012-2.01
					c0.775-0.02,1.535-0.662,1.488-1.488c-0.176-3.108-0.856-6.174-1.031-9.282c-0.924,0.25-1.849,0.501-2.773,0.751
					c0.432,0.591,2.47,6.307,2.597,6.215c-0.685,0.499-0.931,1.256-0.534,2.036c0.145,0.285,0.29,0.569,0.435,0.854
					c0.794,1.558,3.087,0.443,2.72-1.147c-0.787-3.409-0.567-7.565-2.648-10.492c-0.686-0.965-2.426-1.015-2.72,0.355
					c-0.591,2.753-0.709,5.283-1.913,7.895c0.924,0.25,1.849,0.501,2.773,0.751c0-1.031,0-2.063,0-3.094
					c0-1.67-2.512-2.042-2.923-0.396c-0.344,1.375-0.688,2.75-1.031,4.125c0.729-0.296,1.457-0.593,2.186-0.889
					c-0.456-0.297-0.288-3.232-0.294-3.872c-0.017-1.922-2.927-1.916-2.976,0c-0.014,0.547,0.191,1.499-0.294,1.809
					c0.729,0.296,1.457,0.593,2.186,0.889c-0.344-1.031-0.688-2.063-1.031-3.094c-0.365-1.095-2.155-1.627-2.72-0.355
					c-0.771,1.735-0.572,2.343-0.15,4.241c0.829-0.483,1.658-0.965,2.487-1.448c-0.218-0.178-0.458-3.13-0.799-3.824
					c-0.671-1.369-2.773-0.664-2.773,0.751c0,1.719,0,3.438,0,5.157c0.924-0.25,1.849-0.501,2.773-0.751
					c-1.327-1.81-1.25-3.844-1.913-5.833c-0.45-1.349-2.485-1.489-2.87,0c-0.634,2.452,0.624,4.808,0,7.219c0.957,0,1.913,0,2.87,0
					c-0.72-2.395-0.313-4.829-1.031-7.219c-0.393-1.307-2.616-1.533-2.87,0c-0.417,2.517-0.922,5.066-1.085,7.615
					c0.924-0.25,1.849-0.501,2.773-0.751c-1.14-2.667-1.439-5.828-3.094-8.251c-0.999-1.462-2.954-0.498-2.72,1.147
					c0.395,2.78,1.948,5.131,3.244,7.575c0.857-0.501,1.713-1.001,2.57-1.502c-1.646-2.326-0.96-4.923-0.828-7.5
					c-0.992,0-1.984,0-2.976,0c0,2.618,1.183,4.192,1.386,6.786c0.181,2.314-0.051,4.795,0.73,7.017
					c0.302,0.858,1.335,1.452,2.186,0.889c2.865-1.893,8.274-1.77,11.625-1.86c0.811-0.022,1.488-0.661,1.488-1.488
					c0-2.063,0-4.125,0-6.188c0-1.919-2.976-1.919-2.976,0c0,1.031,0,2.063,0,3.094c0,0.493,0.276,1.061,0.737,1.285
					c0.051,0.025,0.102,0.05,0.153,0.075c0.896,0.435,1.861,0.067,2.186-0.889c0.836-2.463-1.441-6.779-2.216-9.117
					c-0.288-0.868-1.345-1.443-2.186-0.889c-2.378,1.566-7.563,1.801-10.198,0.881c0,0.957,0,1.913,0,2.87
					c1.968-0.289,4.355-1.145,5.942-2.375c0.76-0.589,0.465-1.916-0.301-2.337c-1.651-0.907-4.368,0.543-6.037,0.757
					c0.132,0.974,0.264,1.949,0.396,2.923c2.648-0.648,3.821-0.598,6.073,0.881c1.058,0.695,2.622-0.458,2.186-1.681
					c-2.367-6.638-7.241-11.02-10.464-17.139C112.022,36.632,109.453,38.136,110.347,39.833L110.347,39.833z"/>
			</g>
		</g>
	</g>
	<g>
		<path fill="#FFFFFF" d="M157.779,41.747c0.922-15.039,0.749-24.215-0.612-37.237C118.193,6.435,53.659,6.965,4.195,3.934
			c-0.527,8.593-3.73,25.649,0.176,32.357c53.765,3.295,98.444-1.992,153.539,3.308L157.779,41.747z"/>
		<g>
			<path fill="#3D3D3D" d="M159.267,41.747c0.737-12.478,0.654-24.797-0.612-37.237c-0.079-0.775-0.618-1.531-1.488-1.488
				C106.303,5.498,55.03,5.513,4.195,2.445C3.344,2.394,2.761,3.163,2.707,3.934C1.993,14.168-1.878,27.401,3.086,37.042
				c0.895,1.739,5.501,0.979,7.012,1.058c4.371,0.23,8.746,0.389,13.122,0.523c9.082,0.28,18.17,0.337,27.256,0.323
				c35.862-0.057,71.666-1.226,107.435,2.141c-0.496-0.496-0.992-0.992-1.488-1.488c-0.044,0.716-0.088,1.432-0.132,2.148
				C156.173,43.665,159.15,43.653,159.267,41.747c0.044-0.716,0.088-1.432,0.132-2.148c0.053-0.865-0.721-1.416-1.488-1.488
				c-32.788-3.086-65.638-2.459-98.522-2.188c-16.436,0.135-32.871,0.01-49.29-0.799c-3.79-0.187-5.08-0.107-5.792-3.901
				c-0.593-3.158-0.386-6.531-0.236-9.719C4.347,15.626,5.274,9.801,5.684,3.934C5.188,4.43,4.691,4.926,4.195,5.422
				C55.03,8.49,106.303,8.475,157.167,5.999c-0.496-0.496-0.992-0.992-1.488-1.488c1.266,12.44,1.349,24.759,0.612,37.237
				C156.177,43.665,159.154,43.654,159.267,41.747z"/>
		</g>
	</g>
	<g>
		<g>
			<g>
				<g>
					<path fill="#4B4B4B" d="M13.372,20.028c0,1.893,0,3.785,0,5.678c0,1.371,2.126,1.371,2.126,0c0-1.893,0-3.785,0-5.678
						C15.498,18.657,13.372,18.657,13.372,20.028L13.372,20.028z"/>
				</g>
			</g>
			<g>
				<g>
					<path fill="#4B4B4B" d="M14.435,27.58c1.127,0,2.254,0,3.381,0c1.371,0,1.371-2.126,0-2.126c-1.127,0-2.254,0-3.381,0
						C13.064,25.454,13.064,27.58,14.435,27.58L14.435,27.58z"/>
				</g>
			</g>
		</g>
		<g>
			<g>
				<g>
					<path fill="#4B4B4B" d="M21.77,19.731c-0.854,2.289-0.886,5.253-0.453,7.625c0.246,1.347,2.295,0.775,2.05-0.565
						c-0.367-2.009-0.267-4.566,0.453-6.495C24.301,19.009,22.245,18.459,21.77,19.731L21.77,19.731z"/>
				</g>
			</g>
			<g>
				<g>
					<path fill="#4B4B4B" d="M22.343,28.137c1.057,0,2.113,0,3.17,0c1.371,0,1.371-2.126,0-2.126c-1.057,0-2.113,0-3.17,0
						C20.972,26.011,20.972,28.137,22.343,28.137L22.343,28.137z"/>
				</g>
			</g>
			<g>
				<g>
					<path fill="#4B4B4B" d="M23.248,24.335c0.604,0,1.207,0,1.811,0c1.371,0,1.371-2.126,0-2.126c-0.604,0-1.207,0-1.811,0
						C21.877,22.21,21.877,24.335,23.248,24.335L23.248,24.335z"/>
				</g>
			</g>
			<g>
				<g>
					<path fill="#4B4B4B" d="M22.343,21.62c2.269-0.038,4.429-0.592,6.622-1.124c1.332-0.323,0.767-2.373-0.565-2.05
						c-2.009,0.488-3.976,1.013-6.057,1.048C20.973,19.517,20.971,21.643,22.343,21.62L22.343,21.62z"/>
				</g>
			</g>
		</g>
	</g>
	<g>
		<g>
			<g>
				<g>
					<path fill="#4B4B4B" d="M38.513,20.13c0,1.893,0,3.785,0,5.678c0,1.371,2.126,1.371,2.126,0c0-1.893,0-3.785,0-5.678
						C40.639,18.759,38.513,18.759,38.513,20.13L38.513,20.13z"/>
				</g>
			</g>
			<g>
				<g>
					<path fill="#4B4B4B" d="M39.576,27.682c1.127,0,2.254,0,3.381,0c1.371,0,1.371-2.126,0-2.126c-1.127,0-2.254,0-3.381,0
						C38.205,25.556,38.205,27.682,39.576,27.682L39.576,27.682z"/>
				</g>
			</g>
		</g>
		<g>
			<g>
				<g>
					<path fill="#4B4B4B" d="M48.814,23.518c0.239-1.184,0.163-2.964,1.692-3.021c-0.342-0.26-0.683-0.52-1.025-0.78
						c0.532,2.171,2.188,3.819,2.717,5.974c0.326,1.331,2.376,0.766,2.05-0.565c-0.532-2.171-2.188-3.819-2.717-5.974
						c-0.109-0.445-0.565-0.798-1.025-0.78c-2.817,0.105-3.269,2.237-3.742,4.582C46.495,24.291,48.544,24.861,48.814,23.518
						L48.814,23.518z"/>
				</g>
			</g>
			<g>
				<g>
					<path fill="#4B4B4B" d="M46.261,23.717c2.875-0.959,5.734-1.554,8.773-1.591c1.37-0.017,1.372-2.143,0-2.126
						c-3.222,0.04-6.287,0.649-9.338,1.667C44.402,22.099,44.957,24.152,46.261,23.717L46.261,23.717z"/>
				</g>
			</g>
		</g>
		<g>
			<g>
				<g>
					<path fill="#4B4B4B" d="M76.39,19.833c-0.854,2.289-0.886,5.253-0.453,7.625c0.246,1.347,2.295,0.775,2.05-0.565
						c-0.367-2.009-0.267-4.566,0.453-6.495C78.92,19.111,76.864,18.561,76.39,19.833L76.39,19.833z"/>
				</g>
			</g>
			<g>
				<g>
					<path fill="#4B4B4B" d="M76.962,28.239c1.057,0,2.113,0,3.17,0c1.371,0,1.371-2.126,0-2.126c-1.057,0-2.113,0-3.17,0
						C75.591,26.113,75.591,28.239,76.962,28.239L76.962,28.239z"/>
				</g>
			</g>
			<g>
				<g>
					<path fill="#4B4B4B" d="M77.868,24.438c0.604,0,1.207,0,1.811,0c1.371,0,1.371-2.126,0-2.126c-0.604,0-1.207,0-1.811,0
						C76.497,22.312,76.497,24.438,77.868,24.438L77.868,24.438z"/>
				</g>
			</g>
			<g>
				<g>
					<path fill="#4B4B4B" d="M76.962,21.722c2.269-0.038,4.429-0.592,6.622-1.124c1.332-0.323,0.767-2.373-0.565-2.05
						c-2.009,0.488-3.976,1.013-6.057,1.048C75.593,19.619,75.59,21.745,76.962,21.722L76.962,21.722z"/>
				</g>
			</g>
		</g>
		<g>
			<g>
				<g>
					<path fill="#4B4B4B" d="M69.595,18.376c-0.106,0.048-0.926-0.088-1.216-0.085c-0.692,0.007-1.417,0.276-1.933,0.738
						c-0.617,0.553-1.193,1.348-1.415,2.155c-0.234,0.85,0.471,2.098,0.842,2.847c1.571,3.173,5.095,1.942,7.881,2.3
						c1.357,0.174,1.34-1.954,0-2.126c-1.318-0.169-2.616-0.011-3.936-0.009c-1.798,0.002-2.323-1.478-2.736-3.012
						c-0.036,0.273-0.071,0.546-0.107,0.819c0.419-0.912,0.784-1.631,1.856-1.577c0.676,0.034,1.203,0.077,1.838-0.214
						C71.913,19.643,70.832,17.811,69.595,18.376L69.595,18.376z"/>
				</g>
			</g>
		</g>
		<g>
			<g>
				<g>
					<path fill="#4B4B4B" d="M57.483,20.92c-0.536,1.422-0.49,3.126-0.491,4.627c-0.001,1.371,2.125,1.371,2.126,0
						c0.001-1.325-0.059-2.805,0.415-4.062C60.017,20.199,57.961,19.649,57.483,20.92L57.483,20.92z"/>
				</g>
			</g>
			<g>
				<g>
					<path fill="#4B4B4B" d="M57.756,22.497c1.556,1.226,3.225,2.287,4.528,3.802c0.895,1.041,2.392-0.47,1.503-1.503
						c-1.305-1.517-2.97-2.575-4.528-3.802C58.195,20.155,56.68,21.649,57.756,22.497L57.756,22.497z"/>
				</g>
			</g>
			<g>
				<g>
					<path fill="#4B4B4B" d="M61.973,21.202c0,1.086,0,2.172,0,3.259c0,1.371,2.126,1.371,2.126,0c0-1.086,0-2.172,0-3.259
						C64.099,19.831,61.973,19.831,61.973,21.202L61.973,21.202z"/>
				</g>
			</g>
		</g>
	</g>
	<g>
		<g>
			<g>
				<g>
					<path fill="#4B4B4B" d="M129.667,19.411c0,1.663,0,3.325,0,4.988c0,1.371,2.126,1.371,2.126,0c0-1.663,0-3.325,0-4.988
						C131.792,18.04,129.667,18.04,129.667,19.411L129.667,19.411z"/>
				</g>
			</g>
			<g>
				<g>
					<path fill="#4B4B4B" d="M130.729,26.175c0.95,0,1.9,0,2.85,0c1.371,0,1.371-2.126,0-2.126c-0.95,0-1.9,0-2.85,0
						C129.359,24.049,129.359,26.175,130.729,26.175L130.729,26.175z"/>
				</g>
			</g>
		</g>
		<g>
			<g>
				<g>
					<path fill="#4B4B4B" d="M137.554,19.116c-0.733,2.047-0.752,4.652-0.382,6.768c0.236,1.349,2.285,0.775,2.05-0.565
						c-0.306-1.747-0.221-3.955,0.382-5.638C140.067,18.387,138.012,17.835,137.554,19.116L137.554,19.116z"/>
				</g>
			</g>
			<g>
				<g>
					<path fill="#4B4B4B" d="M138.197,26.664c0.891,0,1.781,0,2.672,0c1.371,0,1.371-2.126,0-2.126c-0.891,0-1.781,0-2.672,0
						C136.826,24.538,136.826,26.664,138.197,26.664L138.197,26.664z"/>
				</g>
			</g>
			<g>
				<g>
					<path fill="#4B4B4B" d="M138.961,23.324c0.509,0,1.018,0,1.527,0c1.371,0,1.371-2.126,0-2.126c-0.509,0-1.018,0-1.527,0
						C137.59,21.198,137.59,23.324,138.961,23.324L138.961,23.324z"/>
				</g>
			</g>
			<g>
				<g>
					<path fill="#4B4B4B" d="M138.197,20.938c1.933-0.034,3.764-0.521,5.627-0.992c1.328-0.336,0.765-2.386-0.565-2.05
						c-1.678,0.425-3.319,0.886-5.061,0.916C136.828,18.837,136.826,20.963,138.197,20.938L138.197,20.938z"/>
				</g>
			</g>
		</g>
		<g>
			<g>
				<g>
					<path fill="#4B4B4B" d="M115.328,19.895c0-0.089,0-0.178,0-0.267c0-1.371-2.126-1.371-2.126,0c0,1.361,0,2.723,0,4.084
						c0,1.371,2.126,1.371,2.126,0c0-1.361,0-2.723,0-4.084c0-1.371-2.126-1.371-2.126,0c0,0.089,0,0.178,0,0.267
						C113.202,21.266,115.328,21.266,115.328,19.895L115.328,19.895z"/>
				</g>
			</g>
			<g>
				<g>
					<path fill="#4B4B4B" d="M112.738,20.481c1.55-0.022,2.474-0.169,3.281,1.382c0.055-0.429,0.111-0.859,0.166-1.288
						c-1.074,1.34-2.153,2.697-3.602,3.651c-1.14,0.75-0.076,2.592,1.073,1.836c1.615-1.063,2.834-2.487,4.032-3.983
						c0.315-0.393,0.407-0.825,0.166-1.288c-0.501-0.963-1.196-1.858-2.256-2.229c-0.934-0.327-1.892-0.22-2.86-0.206
						C111.368,18.375,111.366,20.501,112.738,20.481L112.738,20.481z"/>
				</g>
			</g>
		</g>
		<g>
			<g>
				<g>
					<path fill="#4B4B4B" d="M119.692,20.097c0.391,2.48,0.075,4.681,2.116,6.515c0.624,0.56,1.498,0.297,1.777-0.469
						c0.884-2.425,0.747-4.954,0.499-7.48c-0.133-1.351-2.26-1.364-2.126,0c0.231,2.344,0.399,4.661-0.423,6.914
						c0.592-0.156,1.184-0.313,1.777-0.469c-1.634-1.469-1.255-3.58-1.569-5.576C121.529,18.18,119.48,18.756,119.692,20.097
						L119.692,20.097z"/>
				</g>
			</g>
		</g>
		<g>
			<g>
				<g>
					<path fill="#4B4B4B" d="M105.105,19.382c0.014,1.915,0.146,3.867,0.499,5.752c0.252,1.346,2.301,0.775,2.05-0.565
						c-0.318-1.697-0.41-3.463-0.423-5.187C107.221,18.012,105.095,18.011,105.105,19.382L105.105,19.382z"/>
				</g>
			</g>
			<g>
				<g>
					<path fill="#4B4B4B" d="M104.437,20.157c1.158-0.017,2.297-0.267,3.455-0.288c1.369-0.025,1.372-2.151,0-2.126
						c-1.157,0.021-2.296,0.271-3.455,0.288C103.068,18.052,103.066,20.178,104.437,20.157L104.437,20.157z"/>
				</g>
			</g>
			<g>
				<g>
					<path fill="#4B4B4B" d="M105.411,26.741c1.204-0.316,2.375-0.792,3.633-0.826c1.368-0.037,1.372-2.163,0-2.126
						c-1.462,0.039-2.8,0.535-4.198,0.902C103.521,25.038,104.083,27.089,105.411,26.741L105.411,26.741z"/>
				</g>
			</g>
		</g>
		<g>
			<g>
				<g>
					<path fill="#4B4B4B" d="M94.355,18.878c0,1.342-0.158,3.218,0.698,4.356c0.348,0.462,0.91,0.7,1.454,0.381
						c0.456-0.267,0.731-0.99,0.381-1.454c-0.614-0.816-0.408-2.324-0.408-3.283C96.48,17.507,94.354,17.507,94.355,18.878
						L94.355,18.878z"/>
				</g>
			</g>
			<g>
				<g>
					<path fill="#4B4B4B" d="M94.041,19.903c0.674-0.13,1.348-0.265,2.026-0.371c0.062-0.01,0.125-0.019,0.187-0.028
						c-0.131,0.017-0.136,0.018-0.015,0.003c0.136-0.017,0.271-0.029,0.408-0.038c0.117-0.008,0.235-0.01,0.353-0.009
						c0.041,0.001,0.083,0.003,0.124,0.006c0.22,0.013-0.266-0.047-0.066-0.008c0.251,0.049-0.178-0.101-0.048-0.033
						c-0.16-0.083-0.325-0.374-0.361-0.667c0,0.105,0.01,0.052,0.029-0.161c-0.012,0.076-0.09,0.24,0.04-0.059
						c-0.046,0.106-0.112,0.204-0.177,0.3c-0.067,0.092-0.065,0.09,0.007-0.003c-0.064,0.081-0.132,0.159-0.2,0.237
						c-0.137,0.157-0.284,0.306-0.431,0.454c-0.398,0.402-0.824,0.777-1.251,1.147c-0.438,0.38-0.388,1.115,0,1.503
						c0.431,0.431,1.066,0.379,1.503,0c1.077-0.934,3.852-3.107,1.945-4.567c-0.491-0.376-1.303-0.293-1.875-0.227
						c-0.929,0.106-1.846,0.295-2.764,0.471c-0.569,0.109-0.887,0.783-0.742,1.308C92.896,19.751,93.472,20.012,94.041,19.903
						L94.041,19.903z"/>
				</g>
			</g>
			<g>
				<g>
					<path fill="#4B4B4B" d="M97.211,22.892c0.725,0.197,1.452,0.4,2.115,0.759c0.15,0.081,0.253,0.162,0.365,0.281
						c-0.143-0.151-0.14-0.344-0.026-0.491c-0.738,0.952-2.536,1.32-3.607,1.66c-1.302,0.413-0.745,2.465,0.565,2.05
						c1.643-0.521,4.393-1.176,5.027-3.049c0.689-2.034-2.587-2.911-3.874-3.26C96.451,20.482,95.89,22.533,97.211,22.892
						L97.211,22.892z"/>
				</g>
			</g>
		</g>
	</g>
</g>
</svg>
