<?xml version="1.0" encoding="utf-8"?>
<!-- Generator: Adobe Illustrator 17.0.0, SVG Export Plug-In . SVG Version: 6.00 Build 0)  -->
<!DOCTYPE svg PUBLIC "-//W3C//DTD SVG 1.1//EN" "http://www.w3.org/Graphics/SVG/1.1/DTD/svg11.dtd">
<svg version="1.1" id="Calque_1" xmlns="http://www.w3.org/2000/svg" xmlns:xlink="http://www.w3.org/1999/xlink" x="0px" y="0px"
	 width="183.25px" height="347.05px" viewBox="0 0 183.25 347.05" enable-background="new 0 0 183.25 347.05" xml:space="preserve">
<g>
	<g>
		<path fill="#FFFFFF" d="M12.444,28.192c3.771,0,7.543,0,10.057-1.257l-2.514-1.257c1.257-10.057-1.257-16.343-7.543-16.343"/>
		<g>
			<path fill="#4B4B4B" d="M12.444,29.255c3.498-0.006,7.059,0.067,10.34-1.295c0.762-0.316,1.174-1.483,0.254-1.943
				c-0.621-0.31-1.242-0.621-1.862-0.931c-0.468-0.234,0.12-2.022,0.169-2.998c0.136-2.662-0.155-5.367-0.981-7.903
				c-1.188-3.65-4.156-5.754-7.92-5.914c-1.371-0.058-1.366,2.068,0,2.126c7.529,0.32,7.079,9.889,6.48,15.28
				c-0.038,0.343,0.225,0.767,0.526,0.918c0.838,0.419,1.676,0.838,2.514,1.257c0.085-0.648,0.169-1.295,0.254-1.943
				c-3.113,1.292-6.46,1.213-9.775,1.219C11.073,27.132,11.073,29.258,12.444,29.255L12.444,29.255z"/>
		</g>
	</g>
	<g>
		<path fill="#FFFFFF" d="M66.501,141.335C63.986,107.392,85.358-5.751,17.472,20.649l1.257-7.543
			c82.971-42.743,61.6,106.857,61.6,106.857c-1.257,6.286-1.257,13.829-1.257,21.371"/>
		<g>
			<path fill="#4B4B4B" d="M67.564,141.335c-2.252-32.297,18.351-142.484-45.4-123.447c-1.683,0.503-3.333,1.111-4.974,1.737
				c0.436,0.436,0.872,0.872,1.308,1.308c0.302-1.81,0.362-6.701,1.732-7.398c3.943-2.006,8.043-3.683,12.269-4.989
				c6.06-1.873,12.55-2.698,18.815-1.451C62.151,9.251,69.15,18.219,73.4,27.818c9.701,21.909,9.171,48.59,7.761,72.035
				c-0.846,14.065-3.147,27.366-3.152,41.482c-0.001,1.371,2.125,1.371,2.126,0c0.008-20.129,3.734-40.054,3.727-60.264
				c-0.007-21.826-1.191-49.614-16.451-66.87C61.174,7.148,52.308,3.956,43.012,4.43c-6.224,0.317-12.294,2.216-18.015,4.58
				c-1.371,0.566-7.029,2.233-7.292,3.814c-0.419,2.514-0.838,5.029-1.257,7.543c-0.119,0.711,0.471,1.626,1.308,1.308
				c11.895-4.533,25.875-6.627,35.591,3.363C62.25,34.192,64.478,48.91,65.73,61.041c1.532,14.849,1.078,29.873,0.479,44.761
				c-0.474,11.785-1.593,23.741-0.771,35.533C65.532,142.694,67.659,142.704,67.564,141.335L67.564,141.335z"/>
		</g>
	</g>
	<g>
		<path fill="#FFFFFF" d="M61,142.592c-5,13.829,4.007,20.114,25.379,16.343l2.632-5.029c0-1.257,0.059-5.196-1.198-7.71L86.615,141
			C79.072,141,70,141,61,141V142.592z"/>
		<g>
			<path fill="#4B4B4B" d="M60.447,142.309c-1.459,4.256-2.468,9.625,0.537,13.5c3.321,4.283,8.988,5.103,14.077,5.262
				c3.961,0.123,7.94-0.461,11.836-1.111c1.297-0.216,2.343-3.905,2.832-4.882c1.947-3.895-1.097-10.053-2.09-14.025
				c-0.114-0.457-0.561-0.78-1.025-0.78c-8.381,0-16.762,0-25.143,0c-0.579,0-1.063,0.484-1.063,1.063c0,0.419,0,0.838,0,1.257
				c0,1.371,2.126,1.371,2.126,0c0-0.419,0-0.838,0-1.257c-0.354,0.354-0.709,0.709-1.063,1.063c4.95,0,9.901,0,14.851,0
				c2.329,0,4.657,0,6.986,0c2.104,0,2.193-1.131,2.679,0.811c0.73,2.921,1.784,5.731,2.032,8.742
				c0.183,2.223-1.02,3.841-2.005,5.813c-0.754,1.509-8.902,1.182-10.953,1.181c-3.198-0.001-6.447-0.488-9.343-1.886
				c-5.664-2.734-4.931-9.195-3.221-14.184C62.943,141.574,60.889,141.02,60.447,142.309z"/>
		</g>
	</g>
	<g>
		<path fill="#FFFFFF" d="M128.1,138.82c33.943,69.143-49.571,97.571-57.114,20.886l13.829,1.257
			c6.286,47.771,45.303,27.677,30.217-16.323L128.1,138.82z"/>
		<g>
			<path fill="#4B4B4B" d="M127.183,139.357c9.655,20.002,14.089,53.586-12.057,63.457c-9.059,3.42-18.987,1.069-26.362-4.925
				c-11.174-9.083-15.278-24.49-16.715-38.183c-0.354,0.354-0.709,0.709-1.063,1.063c4.354,0.396,8.708,0.792,13.063,1.188
				c1.011,0.092-0.035,0.869,0.191,2.278c0.361,2.25,0.893,4.467,1.489,6.664c0.809,2.984,1.976,5.865,3.4,8.605
				c3.699,7.12,11.075,12.472,19.066,8.774c8.74-4.045,11.21-15.812,11.342-24.396c0.052-3.359-0.382-6.711-0.956-10.012
				c-0.312-1.797-0.764-3.567-1.23-5.328c-0.382-1.444-1.686-3.024-1.12-3.277c4.135-1.841,8.27-3.683,12.405-5.524
				c1.25-0.557,0.168-2.388-1.073-1.836c-4.356,1.94-8.712,3.88-13.068,5.82c-0.413,0.184-0.625,0.788-0.489,1.2
				c4.024,12.133,7.029,32.474-5.777,40.899c-14.209,9.347-21.146-16.319-22.39-25.141c-0.069-0.489-0.597-0.742-1.025-0.78
				c-4.61-0.419-9.219-0.838-13.829-1.257c-0.535-0.049-1.12,0.522-1.063,1.063c1.521,14.488,5.839,29.892,17.338,39.686
				c7.702,6.56,18.175,8.812,27.813,5.688c10.041-3.255,17.054-11.998,20.218-21.788c4.833-14.952,0.308-31.371-6.274-45.008
				C128.422,137.049,126.589,138.128,127.183,139.357z"/>
		</g>
	</g>
	<g>
		<path fill="#FFFFFF" d="M131.872,142.824c-1.257-2.514-1.257-7.824,0-9.824h1.257c-8.8,0-10.057,0-18.857,0L108,131.278
			c0,0,0,8.8,0,12.571c8,1.257,16.336,0.116,22.622-2.398"/>
		<g>
			<path fill="#4B4B4B" d="M132.897,142.309c-0.485-1.236-2.133-8.712,0.232-8.712c1.371,0,1.371-2.126,0-2.126
				c-8.384,0-16.628,0.427-24.86-1.219c-0.67-0.134-1.346,0.297-1.346,1.025c0,4.19,0,8.381,0,12.571c0,0.427,0.32,0.96,0.78,1.025
				c7.856,1.112,15.758,0.275,23.194-2.514c1.271-0.477,0.721-2.532-0.565-2.05c-2.036,0.764-21.283,4.862-21.283,2.659
				c0-3.897,0-7.794,0-11.691c-0.449,0.342-0.897,0.683-1.346,1.025c8.449,1.69,16.819,1.295,25.425,1.295
				c1.371,0,1.371-2.126,0-2.126c-0.419,0-0.838,0-1.257,0c-0.511,0-0.849,0.333-1.025,0.78c-1.325,3.376-1.325,7.246,0,10.622
				C131.342,144.135,133.398,143.587,132.897,142.309L132.897,142.309z"/>
		</g>
	</g>
	<g>
		<path fill="#FFFFFF" d="M125.329,132.049c5.029-5.029,3.771-11.314,12.571-13.829c37.714,42.743,3.257,219.056,3.257,219.056
			c-1.048,5.2,20.785,6.352,22.628-1.257c0,0,2.95-64.428,4.207-100.885c1.257-27.657,10.136-95.543-8.721-118.171
			c-18.857-20.114-34.943-13.343-45,15.571L125.329,132.049z"/>
		<g>
			<path fill="#4B4B4B" d="M126.081,132.801c2.961-3.227,4.089-7.543,7.001-10.759c0.224-0.248,3.967-3.185,4.482-2.591
				c0.503,0.581,0.972,1.192,1.434,1.807c0.942,1.256,1.779,2.588,2.58,3.937c3.36,5.658,5.503,11.987,7.2,18.314
				c4.266,15.911,5.313,32.666,5.642,49.067c0.708,35.233-2.951,70.599-7.899,105.44c-1.544,10.869-3.265,21.715-5.195,32.522
				c-0.369,2.069-0.747,4.137-1.144,6.202c-0.73,3.795,3.968,4.949,6.798,5.441c5.457,0.948,13.71,0.599,17.22-4.404
				c1.654-2.358,0.899-7.257,1.017-9.878c0.888-19.731,1.745-39.464,2.553-59.198c0.754-18.429,1.422-36.822,2.738-55.22
				c1.482-20.719,2.737-41.651,0.707-62.376c-1.699-17.349-5.995-34.31-21.955-43.713c-18.552-10.93-30.713,10.021-36.013,24.862
				c-0.228,0.639,0.367,1.374,1.025,1.346c3.686-0.162,7.371-0.324,11.057-0.486c1.365-0.06,1.371-2.186,0-2.126
				c-3.686,0.162-7.371,0.324-11.057,0.486c0.342,0.449,0.683,0.897,1.025,1.346c3.611-10.112,9.322-23.725,21.144-26.15
				c10.073-2.066,20.824,7.89,25.296,15.883c4.591,8.204,6.176,18.125,7.223,27.335c1.214,10.668,1.282,21.463,1.055,32.185
				c-0.401,18.883-2.538,37.66-3.207,56.524c-0.783,22.097-1.735,44.189-2.698,66.279c-0.355,8.142-0.716,16.284-1.083,24.425
				c-0.242,5.374,0.459,8.663-5.855,10.421c-2.233,0.622-15.757,1.853-14.88-2.732c0.455-2.377,0.884-4.759,1.306-7.142
				c4.891-27.584,8.586-55.421,10.915-83.339c2.098-25.151,3.13-50.6,0.892-75.777c-1.596-17.953-4.495-39.108-16.754-53.261
				c-0.234-0.27-0.699-0.385-1.034-0.273c-7.689,2.552-8.084,8.702-13.04,14.102C123.652,132.305,125.152,133.813,126.081,132.801z"
				/>
		</g>
	</g>
</g>
</svg>
