<?xml version="1.0" encoding="UTF-8" standalone="no"?>
<!DOCTYPE svg PUBLIC "-//W3C//DTD SVG 1.1//EN" "http://www.w3.org/Graphics/SVG/1.1/DTD/svg11.dtd">
<svg width="34" height="31" viewBox="0 0 34 31" version="1.1" xmlns="http://www.w3.org/2000/svg" xmlns:xlink="http://www.w3.org/1999/xlink" xml:space="preserve" xmlns:serif="http://www.serif.com/" style="fill-rule:evenodd;clip-rule:evenodd;stroke-linejoin:round;stroke-miterlimit:2;">
    <g>
        <g>
            <g>
                <g>
                    <path d="M6.43,7.768C6.496,12.135 6.599,18.929 6.643,21.84" style="fill:rgb(66,253,132);fill-rule:nonzero;"/>
                    <g>
                        <path d="M6.066,7.768C6.137,12.459 6.208,17.149 6.279,21.84C6.286,22.309 7.015,22.31 7.008,21.84C6.937,17.149 6.866,12.459 6.795,7.768C6.787,7.299 6.059,7.298 6.066,7.768Z" style="fill:rgb(61,61,61);fill-rule:nonzero;"/>
                    </g>
                </g>
                <g>
                    <path d="M27.067,24.444C19.788,24.554 12.51,24.664 5.231,24.774L6.201,24.759C5.642,19.914 6.047,14.569 6.459,9.709L6.9,6.79C12.708,5.732 19.994,6.107 26.295,5.526C27.346,10.849 28.904,17.621 28.015,22.973L27.067,24.444Z" style="fill:rgb(204,204,204);fill-rule:nonzero;"/>
                    <g>
                        <path d="M27.067,24.079C23.428,24.134 19.788,24.189 16.149,24.244C14.329,24.271 12.51,24.299 10.69,24.326C9.477,24.344 8.264,24.363 7.051,24.381C5.51,24.967 5.227,25.214 6.202,25.122C6.386,25.119 6.585,24.958 6.566,24.758C6.101,19.77 6.105,14.47 6.856,9.502C7.21,7.165 6.663,7.134 9.677,6.759C12.161,6.45 14.685,6.402 17.184,6.319C19.232,6.25 21.279,6.194 23.327,6.1C26.801,5.941 26.545,8.56 27.056,11.323C27.763,15.151 29.021,20.745 26.753,24.26C26.497,24.656 27.128,25.021 27.382,24.628C30.662,19.544 27.744,10.917 26.648,5.43C26.618,5.282 26.448,5.15 26.297,5.163C19.802,5.684 13.251,5.401 6.804,6.439C6.693,6.457 6.566,6.582 6.549,6.693C6.229,8.809 5.995,10.872 5.832,13.01C5.659,15.266 5.584,17.522 5.564,19.784C5.556,20.689 6.234,24.395 5.231,24.41C4.762,24.417 4.761,25.146 5.231,25.139C12.51,25.029 19.788,24.919 27.067,24.809C27.536,24.801 27.537,24.072 27.067,24.079Z" style="fill:rgb(61,61,61);fill-rule:nonzero;"/>
                    </g>
                </g>
            </g>
        </g>
    </g>
</svg>
