<?xml version="1.0" encoding="utf-8"?>
<!-- Generator: Adobe Illustrator 17.0.0, SVG Export Plug-In . SVG Version: 6.00 Build 0)  -->
<!DOCTYPE svg PUBLIC "-//W3C//DTD SVG 1.1//EN" "http://www.w3.org/Graphics/SVG/1.1/DTD/svg11.dtd" [
	<!ENTITY st0 "fill:#3D3D3D;">
]>
<svg version="1.1" id="Calque_1" xmlns="http://www.w3.org/2000/svg" xmlns:xlink="http://www.w3.org/1999/xlink" x="0px" y="0px"
	 width="120.73px" height="56.16px" viewBox="0 0 120.73 56.16" style="enable-background:new 0 0 120.73 56.16;"
	 xml:space="preserve">
<g>
	<g>
		<g>
			<g>
				<g>
					<path style="&st0;" d="M72.157,6.379c0,1.616,0,3.233,0,4.849c0,1.178,1.827,1.178,1.827,0c0-1.616,0-3.233,0-4.849
						C73.983,5.201,72.157,5.201,72.157,6.379L72.157,6.379z"/>
				</g>
			</g>
			<g>
				<g>
					<path style="&st0;" d="M73.07,12.834c1.185,0,2.371,0,3.556,0c1.178,0,1.178-1.827,0-1.827c-1.185,0-2.371,0-3.556,0
						C71.892,11.007,71.892,12.834,73.07,12.834L73.07,12.834z"/>
				</g>
			</g>
		</g>
		<g>
			<g>
				<g>
					<path style="&st0;" d="M82.306,5.906c-0.906,1.973-1.04,4.638-0.568,6.734c0.258,1.149,2.02,0.662,1.761-0.486
						c-0.355-1.578-0.303-3.829,0.384-5.326C84.371,5.765,82.797,4.836,82.306,5.906L82.306,5.906z"/>
				</g>
			</g>
			<g>
				<g>
					<path style="&st0;" d="M82.618,13.31c1.111,0,2.222,0,3.333,0c1.178,0,1.178-1.827,0-1.827c-1.111,0-2.222,0-3.333,0
						C81.44,11.483,81.44,13.31,82.618,13.31L82.618,13.31z"/>
				</g>
			</g>
			<g>
				<g>
					<path style="&st0;" d="M83.571,10.063c0.635,0,1.27,0,1.905,0c1.178,0,1.178-1.827,0-1.827c-0.635,0-1.27,0-1.905,0
						C82.393,8.236,82.393,10.063,83.571,10.063L83.571,10.063z"/>
				</g>
			</g>
			<g>
				<g>
					<path style="&st0;" d="M82.618,7.744c2.347-0.032,4.616-0.508,6.909-0.96c1.155-0.228,0.665-1.988-0.486-1.761
						c-2.135,0.421-4.238,0.865-6.424,0.895C81.441,5.933,81.44,7.76,82.618,7.744L82.618,7.744z"/>
				</g>
			</g>
		</g>
		<g>
			<g>
				<g>
					<path style="&st0;" d="M55.929,6.849c0-0.086,0-0.173,0-0.259c0-1.178-1.827-1.178-1.827,0c0,1.323,0,2.647,0,3.97
						c0,1.178,1.827,1.178,1.827,0c0-1.323,0-2.647,0-3.97c0-1.178-1.827-1.178-1.827,0c0,0.086,0,0.173,0,0.259
						C54.103,8.027,55.929,8.027,55.929,6.849L55.929,6.849z"/>
				</g>
			</g>
			<g>
				<g>
					<path style="&st0;" d="M53.111,7.299c1.768-0.018,3.343-0.266,4.449,1.403c0.048-0.369,0.095-0.738,0.143-1.107
						c-1.406,1.368-2.815,2.67-4.577,3.568c-1.05,0.535-0.125,2.111,0.922,1.577c1.894-0.965,3.435-2.382,4.947-3.854
						c0.281-0.274,0.366-0.77,0.143-1.107c-0.667-1.007-1.456-1.726-2.607-2.124c-1.076-0.371-2.307-0.196-3.419-0.184
						C51.934,5.484,51.933,7.311,53.111,7.299L53.111,7.299z"/>
				</g>
			</g>
		</g>
		<g>
			<g>
				<g>
					<path style="&st0;" d="M28.338,5.695c0.001,1.411-0.105,3.266,0.958,4.359c0.822,0.846,2.113-0.447,1.292-1.292
						c-0.626-0.643-0.422-2.248-0.423-3.067C30.165,4.517,28.338,4.517,28.338,5.695L28.338,5.695z"/>
				</g>
			</g>
			<g>
				<g>
					<path style="&st0;" d="M27.424,6.575c0.824-0.123,1.633-0.251,2.404-0.342c0.336-0.039,0.674-0.07,1.012-0.087
						c0.127-0.006,0.253-0.007,0.38-0.006c0.081,0.001,0.5,0.05,0.189,0.002c0.086,0.013,0.348,0.113,0.047-0.016
						c0.078,0.033,0.152,0.125-0.067-0.065c-0.094-0.082-0.126-0.154-0.16-0.273c-0.035-0.118-0.035-0.236-0.002-0.353
						c-0.012,0.073-0.087,0.184,0.032-0.059c-0.024,0.049-0.055,0.093-0.085,0.138c0.138-0.204,0.006-0.013-0.027,0.026
						c-0.65,0.742-1.546,1.296-2.354,1.842c-0.97,0.655-0.057,2.239,0.922,1.577c0.968-0.654,2.062-1.328,2.817-2.236
						c0.554-0.667,0.747-1.634-0.118-2.155c-0.62-0.373-1.506-0.265-2.19-0.202c-1.099,0.102-2.192,0.285-3.283,0.449
						c-0.493,0.074-0.758,0.688-0.638,1.124C26.445,6.46,26.932,6.649,27.424,6.575L27.424,6.575z"/>
				</g>
			</g>
			<g>
				<g>
					<path style="&st0;" d="M31.599,9.481c0.936,0.197,1.916,0.389,2.797,0.776c0.205,0.09,0.417,0.202,0.557,0.341
						c-0.176-0.175,0.002-0.498-0.051-0.44c-0.367,0.408-1.078,0.611-1.579,0.794c-1.03,0.374-2.098,0.646-3.161,0.908
						c-1.143,0.281-0.658,2.043,0.486,1.761c1.402-0.345,2.818-0.711,4.143-1.297c0.709-0.314,1.59-0.758,1.833-1.564
						c0.652-2.163-3.25-2.77-4.538-3.04C30.935,7.478,30.446,9.239,31.599,9.481L31.599,9.481z"/>
				</g>
			</g>
		</g>
		<g>
			<g>
				<g>
					<path style="&st0;" d="M63.264,7.014c0.239,1.168,0.199,2.369,0.457,3.534c0.282,1.275,1.232,2.174,2.261,2.889
						c0.382,0.266,1.05,0.099,1.25-0.328c1.128-2.411,1.026-4.872,0.699-7.457c-0.146-1.152-1.974-1.167-1.827,0
						c0.278,2.202,0.521,4.459-0.45,6.535c0.417-0.109,0.833-0.218,1.25-0.328c-1.892-1.315-1.467-3.319-1.879-5.331
						C64.789,5.374,63.029,5.864,63.264,7.014L63.264,7.014z"/>
				</g>
			</g>
		</g>
		<g>
			<g>
				<g>
					<path style="&st0;" d="M42.816,6.351c0.017,1.846,0.175,3.761,0.607,5.56c0.275,1.145,2.036,0.659,1.761-0.486
						c-0.395-1.646-0.527-3.385-0.542-5.074C44.632,5.174,42.805,5.173,42.816,6.351L42.816,6.351z"/>
				</g>
			</g>
			<g>
				<g>
					<path style="&st0;" d="M41.57,6.985c1.442-0.017,2.869-0.259,4.309-0.28c1.177-0.017,1.179-1.843,0-1.827
						c-1.441,0.02-2.868,0.263-4.309,0.28C40.393,5.172,40.392,6.998,41.57,6.985L41.57,6.985z"/>
				</g>
			</g>
			<g>
				<g>
					<path style="&st0;" d="M42.675,13.389c1.546-0.317,3.052-0.771,4.641-0.807c1.176-0.026,1.179-1.853,0-1.827
						c-1.754,0.039-3.42,0.522-5.127,0.872C41.036,11.864,41.525,13.624,42.675,13.389L42.675,13.389z"/>
				</g>
			</g>
		</g>
	</g>
	<g>
		<g>
			<path style="&st0;" d="M93.549,9.888c1.178,0,1.178-1.827,0-1.827S92.371,9.888,93.549,9.888L93.549,9.888z"/>
		</g>
	</g>
	<g>
		<g>
			<path style="&st0;" d="M93.549,13.788c1.178,0,1.178-1.827,0-1.827S92.371,13.788,93.549,13.788L93.549,13.788z"/>
		</g>
	</g>
</g>
<g>
	<g>
		<g>
			<g>
				<path style="&st0;" d="M42.672,44.135c0,1.659,0,3.319,0,4.978c0,1.194,1.851,1.194,1.851,0c0-1.659,0-3.319,0-4.978
					C44.523,42.941,42.672,42.941,42.672,44.135L42.672,44.135z"/>
			</g>
		</g>
		<g>
			<g>
				<path style="&st0;" d="M43.597,50.75c1.185,0,2.371,0,3.556,0c1.194,0,1.194-1.851,0-1.851c-1.185,0-2.371,0-3.556,0
					C42.404,48.899,42.404,50.75,43.597,50.75L43.597,50.75z"/>
			</g>
		</g>
	</g>
	<g>
		<g>
			<g>
				<path style="&st0;" d="M102.483,44.738c0.239,1.2,0.199,2.431,0.457,3.628c0.28,1.298,1.229,2.218,2.267,2.959
					c0.382,0.272,1.07,0.099,1.266-0.332c1.129-2.479,1.027-5,0.701-7.65c-0.144-1.169-1.996-1.183-1.851,0
					c0.278,2.258,0.525,4.58-0.448,6.715c0.422-0.111,0.844-0.221,1.266-0.332c-1.896-1.353-1.467-3.44-1.873-5.48
					C104.035,43.076,102.251,43.572,102.483,44.738L102.483,44.738z"/>
			</g>
		</g>
	</g>
	<g>
		<g>
			<g>
				<path style="&st0;" d="M53.475,44.608c-0.593,1.311-0.602,2.859-0.603,4.276c-0.001,1.194,1.85,1.194,1.851,0
					c0.001-1.046-0.09-2.369,0.35-3.342C55.561,44.463,53.966,43.522,53.475,44.608L53.475,44.608z"/>
			</g>
		</g>
		<g>
			<g>
				<path style="&st0;" d="M53.807,46.35c1.56,1.023,3.222,1.881,4.574,3.189c0.858,0.829,2.168-0.478,1.309-1.309
					c-1.468-1.419-3.255-2.367-4.949-3.478C53.74,44.095,52.814,45.699,53.807,46.35L53.807,46.35z"/>
			</g>
		</g>
		<g>
			<g>
				<path style="&st0;" d="M58.111,45.075c0,0.952,0,1.905,0,2.857c0,1.194,1.851,1.194,1.851,0c0-0.952,0-1.905,0-2.857
					C59.962,43.881,58.111,43.881,58.111,45.075L58.111,45.075z"/>
			</g>
		</g>
	</g>
	<g>
		<g>
			<g>
				<path style="&st0;" d="M68.112,44.855c1.169,0.479,2.599,1.108,3.381,2.153c0.756,1.01-0.911,1.524-1.638,1.774
					c-1.33,0.457-2.852,0.102-3.225-1.399c-0.312-1.257,0.955-2.192,1.974-2.528c1.128-0.373,0.644-2.161-0.492-1.785
					c-1.988,0.657-3.678,2.358-3.301,4.602c0.36,2.135,2.692,3.629,4.784,3.113c1.823-0.45,4.427-1.546,3.897-3.868
					c-0.46-2.02-3.216-3.16-4.889-3.847C67.5,42.617,67.024,44.409,68.112,44.855z"/>
			</g>
		</g>
	</g>
	<g>
		<g>
			<g>
				<path style="&st0;" d="M29.963,43.394c-0.91,2.035-1.042,4.749-0.569,6.903c0.255,1.166,2.04,0.671,1.785-0.492
					c-0.356-1.625-0.309-3.931,0.383-5.477C32.044,43.248,30.449,42.306,29.963,43.394L29.963,43.394z"/>
			</g>
		</g>
		<g>
			<g>
				<path style="&st0;" d="M30.285,50.977c1.111,0,2.222,0,3.333,0c1.194,0,1.194-1.851,0-1.851c-1.111,0-2.222,0-3.333,0
					C29.092,49.126,29.092,50.977,30.285,50.977L30.285,50.977z"/>
			</g>
		</g>
		<g>
			<g>
				<path style="&st0;" d="M31.238,47.643c0.635,0,1.27,0,1.905,0c1.194,0,1.194-1.851,0-1.851c-0.635,0-1.27,0-1.905,0
					C30.044,45.793,30.044,47.643,31.238,47.643L31.238,47.643z"/>
			</g>
		</g>
		<g>
			<g>
				<path style="&st0;" d="M30.285,45.262c2.35-0.033,4.618-0.521,6.912-0.985c1.169-0.237,0.673-2.021-0.492-1.785
					c-2.134,0.432-4.234,0.888-6.42,0.919C29.093,43.428,29.091,45.279,30.285,45.262L30.285,45.262z"/>
			</g>
		</g>
	</g>
	<g>
		<g>
			<g>
				<path style="&st0;" d="M79.781,45.066c0.192,1.857,0.402,3.755,0.891,5.561c0.269,0.993,1.81,0.571,1.54-0.425
					c-0.453-1.671-0.657-3.418-0.834-5.136C81.273,44.052,79.675,44.042,79.781,45.066L79.781,45.066z"/>
			</g>
		</g>
		<g>
			<g>
				<path style="&st0;" d="M80.12,45.065c0.81-0.533,2.567-1.42,3.318-0.294c0.771,1.157-1.022,2.285-1.862,2.63
					c-0.939,0.386-0.528,1.932,0.425,1.54c1.927-0.792,3.882-2.522,2.92-4.786c-0.969-2.28-4.055-1.489-5.605-0.469
					C78.457,44.249,79.256,45.633,80.12,45.065L80.12,45.065z"/>
			</g>
		</g>
	</g>
	<g>
		<g>
			<g>
				<g>
					<path style="&st0;" d="M90.894,45.112c0.192,1.857,0.402,3.755,0.891,5.561c0.269,0.993,1.81,0.571,1.54-0.425
						c-0.453-1.671-0.657-3.418-0.834-5.136C92.387,44.098,90.789,44.087,90.894,45.112L90.894,45.112z"/>
				</g>
			</g>
			<g>
				<g>
					<path style="&st0;" d="M91.233,45.111c0.81-0.533,2.567-1.42,3.318-0.294c0.771,1.157-1.022,2.285-1.862,2.63
						c-0.939,0.386-0.528,1.932,0.425,1.54c1.927-0.792,3.882-2.522,2.92-4.786c-0.969-2.28-4.055-1.489-5.605-0.469
						C89.571,44.295,90.37,45.679,91.233,45.111L91.233,45.111z"/>
				</g>
			</g>
		</g>
		<g>
			<g>
				<path style="&st0;" d="M93.359,49.264c1.24,0.455,2.036,1.712,2.925,2.619c0.836,0.854,2.144-0.456,1.309-1.309
					c-1.165-1.189-2.121-2.5-3.742-3.095C92.728,47.067,92.248,48.856,93.359,49.264L93.359,49.264z"/>
			</g>
		</g>
	</g>
	<g>
		<g>
			<g>
				<path style="&st0;" d="M16.722,47.905c0.32-1.339,0.31-2.644,1.959-2.693c-0.299-0.228-0.599-0.456-0.898-0.684
					c0.575,1.983,2.288,3.347,2.857,5.307c0.334,1.151,2.132,0.661,1.796-0.495c-0.575-1.983-2.288-3.347-2.857-5.307
					c-0.113-0.39-0.482-0.696-0.898-0.684c-1.07,0.032-2.116,0.275-2.778,1.183c-0.607,0.831-0.744,1.902-0.977,2.878
					C14.647,48.578,16.443,49.073,16.722,47.905L16.722,47.905z"/>
			</g>
		</g>
		<g>
			<g>
				<path style="&st0;" d="M14.167,48.073c3.054-0.861,6.098-1.381,9.276-1.414c1.201-0.013,1.202-1.876,0-1.863
					c-3.341,0.035-6.558,0.575-9.771,1.481C12.517,46.602,13.008,48.4,14.167,48.073L14.167,48.073z"/>
			</g>
		</g>
	</g>
	<g>
		<g>
			<g>
				<path style="&st0;" d="M64.145,35.311c1.341-1.046,2.673-2.104,4.075-3.067c0.854-0.587,0.046-1.99-0.816-1.397
					c-1.515,1.042-2.953,2.19-4.402,3.32C62.18,34.808,63.333,35.944,64.145,35.311L64.145,35.311z"/>
			</g>
		</g>
		<g>
			<g>
				<path style="&st0;" d="M66.866,31.679c0.081,2.367,0.044,4.733-0.001,7.1c-0.02,1.044,1.598,1.042,1.618,0
					c0.045-2.367,0.082-4.733,0.001-7.1C68.448,30.639,66.83,30.635,66.866,31.679L66.866,31.679z"/>
			</g>
		</g>
		<g>
			<g>
				<path style="&st0;" d="M65.376,39.952c1.443,0.018,2.879-0.073,4.316-0.189c1.032-0.083,1.041-1.702,0-1.618
					c-1.437,0.116-2.873,0.207-4.316,0.189C64.332,38.321,64.334,39.939,65.376,39.952L65.376,39.952z"/>
			</g>
		</g>
	</g>
	<g>
		<g>
			<g>
				<path style="&st0;" d="M76.518,35.311c1.341-1.046,2.673-2.104,4.075-3.067c0.854-0.587,0.046-1.99-0.816-1.397
					c-1.515,1.042-2.953,2.19-4.402,3.32C74.552,34.808,75.706,35.944,76.518,35.311L76.518,35.311z"/>
			</g>
		</g>
		<g>
			<g>
				<path style="&st0;" d="M79.239,31.679c0.081,2.367,0.044,4.733-0.001,7.1c-0.02,1.044,1.598,1.042,1.618,0
					c0.045-2.367,0.082-4.733,0.001-7.1C80.821,30.639,79.203,30.635,79.239,31.679L79.239,31.679z"/>
			</g>
		</g>
		<g>
			<g>
				<path style="&st0;" d="M77.749,39.952c1.443,0.018,2.879-0.073,4.316-0.189c1.032-0.083,1.041-1.702,0-1.618
					c-1.437,0.116-2.873,0.207-4.316,0.189C76.705,38.321,76.707,39.939,77.749,39.952L77.749,39.952z"/>
			</g>
		</g>
	</g>
	<g>
		<g>
			<g>
				<path style="&st0;" d="M89.264,35.311c1.341-1.046,2.673-2.104,4.075-3.067c0.854-0.587,0.046-1.99-0.816-1.397
					c-1.515,1.042-2.953,2.19-4.402,3.32C87.298,34.808,88.452,35.944,89.264,35.311L89.264,35.311z"/>
			</g>
		</g>
		<g>
			<g>
				<path style="&st0;" d="M91.984,31.679c0.081,2.367,0.044,4.733-0.001,7.1c-0.02,1.044,1.598,1.042,1.618,0
					c0.045-2.367,0.082-4.733,0.001-7.1C93.566,30.639,91.948,30.635,91.984,31.679L91.984,31.679z"/>
			</g>
		</g>
		<g>
			<g>
				<path style="&st0;" d="M90.494,39.952c1.443,0.018,2.879-0.073,4.316-0.189c1.032-0.083,1.041-1.702,0-1.618
					c-1.437,0.116-2.873,0.207-4.316,0.189C89.451,38.321,89.452,39.939,90.494,39.952L90.494,39.952z"/>
			</g>
		</g>
	</g>
	<g>
		<g>
			<g>
				<path style="&st0;" d="M101.264,35.311c1.341-1.046,2.673-2.104,4.075-3.067c0.854-0.587,0.046-1.99-0.816-1.397
					c-1.515,1.042-2.953,2.19-4.402,3.32C99.298,34.808,100.452,35.944,101.264,35.311L101.264,35.311z"/>
			</g>
		</g>
		<g>
			<g>
				<path style="&st0;" d="M103.984,31.679c0.081,2.367,0.044,4.733-0.001,7.1c-0.02,1.044,1.598,1.042,1.618,0
					c0.045-2.367,0.082-4.733,0.001-7.1C105.566,30.639,103.948,30.635,103.984,31.679L103.984,31.679z"/>
			</g>
		</g>
		<g>
			<g>
				<path style="&st0;" d="M102.494,39.952c1.443,0.018,2.879-0.073,4.316-0.189c1.032-0.083,1.041-1.702,0-1.618
					c-1.437,0.116-2.873,0.207-4.316,0.189C101.451,38.321,101.452,39.939,102.494,39.952L102.494,39.952z"/>
			</g>
		</g>
	</g>
	<g>
		<g>
			<g>
				<path style="&st0;" d="M16.84,34.363c-0.298-1.446,0.207-2.9,1.756-2.837c0.451,0.018,0.89,0.268,1.11,0.664
					c0.296,0.535-0.098,1.372-0.435,1.919c-0.549,0.891,0.851,1.703,1.397,0.816c0.664-1.078,0.984-2.269,0.475-3.47
					c-0.409-0.966-1.479-1.431-2.452-1.541c-0.983-0.111-2.028,0.324-2.688,1.045c-0.955,1.045-0.993,2.519-0.723,3.833
					C15.49,35.815,17.049,35.382,16.84,34.363L16.84,34.363z"/>
			</g>
		</g>
		<g>
			<g>
				<path style="&st0;" d="M19.4,33.81c-1.283,1.537-2.483,3.139-3.728,4.706c-0.642,0.807,0.495,1.96,1.144,1.144
					c1.246-1.566,2.446-3.169,3.728-4.706C21.207,34.159,20.069,33.008,19.4,33.81L19.4,33.81z"/>
			</g>
		</g>
		<g>
			<g>
				<path style="&st0;" d="M15.842,39.752c1.998-0.125,3.967-0.467,5.894-1.01c1.003-0.282,0.576-1.843-0.43-1.56
					c-1.79,0.504-3.607,0.836-5.464,0.952C14.806,38.199,14.8,39.817,15.842,39.752L15.842,39.752z"/>
			</g>
		</g>
	</g>
	<g>
		<g>
			<g>
				<path style="&st0;" d="M28.773,34.363c-0.298-1.446,0.207-2.9,1.756-2.837c0.451,0.018,0.89,0.268,1.11,0.664
					c0.296,0.535-0.098,1.372-0.435,1.919c-0.549,0.891,0.851,1.703,1.397,0.816c0.664-1.078,0.984-2.269,0.475-3.47
					c-0.409-0.966-1.479-1.431-2.452-1.541c-0.983-0.111-2.028,0.324-2.688,1.045c-0.955,1.045-0.993,2.519-0.723,3.833
					C27.423,35.815,28.982,35.382,28.773,34.363L28.773,34.363z"/>
			</g>
		</g>
		<g>
			<g>
				<path style="&st0;" d="M31.333,33.81c-1.283,1.537-2.483,3.139-3.728,4.706c-0.642,0.807,0.495,1.96,1.144,1.144
					c1.246-1.566,2.446-3.169,3.728-4.706C33.14,34.159,32.002,33.008,31.333,33.81L31.333,33.81z"/>
			</g>
		</g>
		<g>
			<g>
				<path style="&st0;" d="M27.775,39.752c1.998-0.125,3.967-0.467,5.894-1.01c1.003-0.282,0.576-1.843-0.43-1.56
					c-1.79,0.504-3.607,0.836-5.464,0.952C26.739,38.199,26.732,39.817,27.775,39.752L27.775,39.752z"/>
			</g>
		</g>
	</g>
	<g>
		<g>
			<g>
				<path style="&st0;" d="M40.706,34.363c-0.298-1.446,0.207-2.9,1.756-2.837c0.451,0.018,0.89,0.268,1.11,0.664
					c0.296,0.535-0.098,1.372-0.435,1.919c-0.549,0.891,0.851,1.703,1.397,0.816c0.664-1.078,0.984-2.269,0.475-3.47
					c-0.409-0.966-1.479-1.431-2.452-1.541c-0.983-0.111-2.028,0.324-2.688,1.045c-0.955,1.045-0.993,2.519-0.723,3.833
					C39.356,35.815,40.915,35.382,40.706,34.363L40.706,34.363z"/>
			</g>
		</g>
		<g>
			<g>
				<path style="&st0;" d="M43.266,33.81c-1.283,1.537-2.483,3.139-3.728,4.706c-0.642,0.807,0.495,1.96,1.144,1.144
					c1.246-1.566,2.446-3.169,3.728-4.706C45.073,34.159,43.935,33.008,43.266,33.81L43.266,33.81z"/>
			</g>
		</g>
		<g>
			<g>
				<path style="&st0;" d="M39.708,39.752c1.998-0.125,3.967-0.467,5.894-1.01c1.003-0.282,0.576-1.843-0.43-1.56
					c-1.79,0.504-3.607,0.836-5.464,0.952C38.672,38.199,38.665,39.817,39.708,39.752L39.708,39.752z"/>
			</g>
		</g>
	</g>
	<g>
		<g>
			<g>
				<path style="&st0;" d="M52.639,34.363c-0.298-1.446,0.207-2.9,1.756-2.837c0.451,0.018,0.89,0.268,1.11,0.664
					c0.296,0.535-0.098,1.372-0.435,1.919c-0.549,0.891,0.851,1.703,1.397,0.816c0.664-1.078,0.984-2.269,0.475-3.47
					c-0.409-0.966-1.479-1.431-2.452-1.541c-0.983-0.111-2.028,0.324-2.688,1.045c-0.955,1.045-0.993,2.519-0.723,3.833
					C51.289,35.815,52.848,35.382,52.639,34.363L52.639,34.363z"/>
			</g>
		</g>
		<g>
			<g>
				<path style="&st0;" d="M55.199,33.81c-1.283,1.537-2.483,3.139-3.728,4.706c-0.642,0.807,0.495,1.96,1.144,1.144
					c1.246-1.566,2.446-3.169,3.728-4.706C57.006,34.159,55.868,33.008,55.199,33.81L55.199,33.81z"/>
			</g>
		</g>
		<g>
			<g>
				<path style="&st0;" d="M51.641,39.752c1.998-0.125,3.967-0.467,5.894-1.01c1.003-0.282,0.576-1.843-0.43-1.56
					c-1.79,0.504-3.607,0.836-5.464,0.952C50.605,38.199,50.598,39.817,51.641,39.752L51.641,39.752z"/>
			</g>
		</g>
	</g>
</g>
</svg>
