<?xml version="1.0" encoding="utf-8"?>
<!-- Generator: Adobe Illustrator 17.0.0, SVG Export Plug-In . SVG Version: 6.00 Build 0)  -->
<!DOCTYPE svg PUBLIC "-//W3C//DTD SVG 1.1//EN" "http://www.w3.org/Graphics/SVG/1.1/DTD/svg11.dtd">
<svg version="1.1" id="Calque_1" xmlns="http://www.w3.org/2000/svg" xmlns:xlink="http://www.w3.org/1999/xlink" x="0px" y="0px"
	 width="213.174px" height="76.571px" viewBox="0 0 213.174 76.571" enable-background="new 0 0 213.174 76.571"
	 xml:space="preserve">
<g>
	<g>
		<g>
			<g>
				<path fill="#3D3D3D" d="M133.53,29.37c-1.301,0.675-3.219,1.877-2.838,3.635c0.377,1.742,2.518,2.425,4.012,2.818
					c1.156,0.304,1.645-1.481,0.492-1.785c-0.859-0.226-2.135-0.5-2.657-1.309c-0.409-0.635,1.59-1.587,1.926-1.761
					C135.524,30.418,134.588,28.821,133.53,29.37L133.53,29.37z"/>
			</g>
		</g>
		<g>
			<g>
				<path fill="#3D3D3D" d="M133.521,31.571c0.963,0.114,2.394,0.214,3.148,0.918c0.099,0.093,0.026,0.124-0.107,0.335
					c-0.353,0.562-1.062,0.962-1.603,1.308c-1.002,0.641-0.075,2.243,0.934,1.598c1.267-0.81,3.261-2.201,2.488-3.97
					c-0.722-1.651-3.351-1.862-4.859-2.04C132.337,29.58,132.351,31.432,133.521,31.571L133.521,31.571z"/>
			</g>
		</g>
		<g>
			<g>
				<path fill="#3D3D3D" d="M134.228,33.919c1.24,0.455,2.036,1.712,2.925,2.619c0.836,0.854,2.144-0.456,1.309-1.309
					c-1.165-1.189-2.121-2.5-3.742-3.095C133.597,31.722,133.117,33.511,134.228,33.919L134.228,33.919z"/>
			</g>
		</g>
	</g>
	<g>
		<g>
			<g>
				<path fill="#3D3D3D" d="M102.962,29.65c0.001,1.45-0.108,3.329,0.961,4.466c0.82,0.871,2.126-0.441,1.309-1.309
					c-0.631-0.67-0.419-2.316-0.419-3.157C104.812,28.456,102.961,28.456,102.962,29.65L102.962,29.65z"/>
			</g>
		</g>
		<g>
			<g>
				<path fill="#3D3D3D" d="M102.063,30.542c0.816-0.125,1.66-0.262,2.401-0.351c0.336-0.04,0.674-0.072,1.012-0.089
					c0.127-0.006,0.253-0.008,0.38-0.006c0.083,0.001,0.502,0.053,0.186,0.003c0.09,0.014,0.346,0.118,0.044-0.015
					c0.08,0.035,0.147,0.128-0.07-0.065c-0.035-0.031-0.184-0.348-0.163-0.275c-0.035-0.119-0.036-0.237-0.002-0.356
					c-0.012,0.072-0.086,0.192,0.033-0.058c-0.024,0.05-0.055,0.096-0.085,0.142c-0.12,0.182,0.135-0.159-0.025,0.029
					c-0.647,0.758-1.542,1.331-2.352,1.893c-0.414,0.287-0.602,0.805-0.332,1.266c0.24,0.41,0.851,0.62,1.266,0.332
					c0.888-0.616,4.921-3.114,2.699-4.487c-0.617-0.381-1.513-0.27-2.196-0.205c-1.1,0.105-2.194,0.292-3.286,0.46
					c-0.499,0.077-0.768,0.695-0.646,1.138C101.07,30.424,101.565,30.619,102.063,30.542L102.063,30.542z"/>
			</g>
		</g>
		<g>
			<g>
				<path fill="#3D3D3D" d="M106.231,33.525c0.907,0.196,1.851,0.389,2.707,0.758c0.218,0.094,0.448,0.202,0.62,0.369
					c-0.16-0.154,0.038-0.488-0.038-0.403c-0.35,0.393-1.001,0.596-1.477,0.777c-1.055,0.402-2.157,0.688-3.25,0.965
					c-1.157,0.292-0.666,2.077,0.492,1.785c1.376-0.348,2.763-0.718,4.065-1.295c0.733-0.325,1.68-0.793,1.92-1.636
					c0.626-2.191-3.212-2.815-4.548-3.104C105.559,31.489,105.065,33.273,106.231,33.525L106.231,33.525z"/>
			</g>
		</g>
	</g>
	<g>
		<g>
			<g>
				<path fill="#3D3D3D" d="M140.017,30.83c0.239,1.2,0.199,2.431,0.457,3.628c0.28,1.298,1.229,2.218,2.267,2.959
					c0.382,0.272,1.07,0.099,1.266-0.332c1.129-2.479,1.027-5,0.701-7.65c-0.144-1.169-1.996-1.183-1.851,0
					c0.278,2.258,0.525,4.58-0.448,6.715c0.422-0.111,0.844-0.221,1.266-0.332c-1.896-1.353-1.467-3.44-1.873-5.48
					C141.569,29.168,139.785,29.665,140.017,30.83L140.017,30.83z"/>
			</g>
		</g>
	</g>
	<g>
		<g>
			<g>
				<path fill="#3D3D3D" d="M123.957,30.153c0.017,1.895,0.175,3.856,0.608,5.705c0.272,1.162,2.056,0.669,1.785-0.492
					c-0.396-1.693-0.526-3.478-0.542-5.213C125.797,28.96,123.947,28.959,123.957,30.153L123.957,30.153z"/>
			</g>
		</g>
		<g>
			<g>
				<path fill="#3D3D3D" d="M122.724,30.791c1.442-0.017,2.869-0.266,4.309-0.287c1.192-0.017,1.194-1.868,0-1.851
					c-1.441,0.021-2.867,0.27-4.309,0.287C121.531,28.955,121.53,30.805,122.724,30.791L122.724,30.791z"/>
			</g>
		</g>
		<g>
			<g>
				<path fill="#3D3D3D" d="M123.832,37.366c1.545-0.325,3.048-0.792,4.638-0.829c1.192-0.027,1.194-1.878,0-1.851
					c-1.758,0.04-3.422,0.536-5.13,0.895C122.172,35.827,122.667,37.611,123.832,37.366L123.832,37.366z"/>
			</g>
		</g>
	</g>
	<g>
		<g>
			<g>
				<path fill="#3D3D3D" d="M147.017,29.702c-0.91,2.035-1.042,4.749-0.569,6.903c0.255,1.166,2.04,0.671,1.785-0.492
					c-0.356-1.625-0.309-3.931,0.383-5.477C149.098,29.556,147.503,28.614,147.017,29.702L147.017,29.702z"/>
			</g>
		</g>
		<g>
			<g>
				<path fill="#3D3D3D" d="M147.34,37.285c1.111,0,2.222,0,3.333,0c1.194,0,1.194-1.851,0-1.851c-1.111,0-2.222,0-3.333,0
					C146.146,35.434,146.146,37.285,147.34,37.285L147.34,37.285z"/>
			</g>
		</g>
		<g>
			<g>
				<path fill="#3D3D3D" d="M148.292,33.952c0.635,0,1.27,0,1.905,0c1.194,0,1.194-1.851,0-1.851c-0.635,0-1.27,0-1.905,0
					C147.098,32.101,147.098,33.952,148.292,33.952L148.292,33.952z"/>
			</g>
		</g>
		<g>
			<g>
				<path fill="#3D3D3D" d="M147.34,31.571c2.35-0.033,4.618-0.521,6.912-0.985c1.169-0.237,0.673-2.021-0.492-1.785
					c-2.134,0.432-4.234,0.888-6.42,0.919C146.147,29.737,146.145,31.588,147.34,31.571L147.34,31.571z"/>
			</g>
		</g>
	</g>
	<g>
		<g>
			<g>
				<path fill="#3D3D3D" d="M80.336,30.743c1.85,0.001,3.726-0.032,5.54,0.382c1.003,0.229,1.428-1.311,0.425-1.54
					c-1.956-0.447-3.968-0.439-5.965-0.439C79.306,29.146,79.306,30.743,80.336,30.743L80.336,30.743z"/>
			</g>
		</g>
		<g>
			<g>
				<path fill="#3D3D3D" d="M80.798,30.143c-0.468,2.051-0.382,4.119,0,6.177c0.188,1.012,1.727,0.582,1.54-0.425
					c-0.328-1.768-0.402-3.566,0-5.328C82.567,29.565,81.027,29.139,80.798,30.143L80.798,30.143z"/>
			</g>
		</g>
		<g>
			<g>
				<path fill="#3D3D3D" d="M79.925,34.441c1.233,0,2.465,0,3.698,0c1.03,0,1.03-1.597,0-1.597c-1.233,0-2.465,0-3.698,0
					C78.895,32.844,78.895,34.441,79.925,34.441L79.925,34.441z"/>
			</g>
		</g>
	</g>
	<g>
		<g>
			<g>
				<g>
					<path fill="#3D3D3D" d="M157.173,30.774c0.192,1.857,0.402,3.755,0.891,5.561c0.269,0.993,1.81,0.571,1.54-0.425
						c-0.453-1.671-0.657-3.418-0.834-5.136C158.665,29.76,157.067,29.75,157.173,30.774L157.173,30.774z"/>
				</g>
			</g>
			<g>
				<g>
					<path fill="#3D3D3D" d="M157.512,30.773c0.81-0.533,2.567-1.42,3.318-0.294c0.771,1.157-1.022,2.285-1.862,2.63
						c-0.939,0.386-0.528,1.932,0.425,1.54c1.927-0.792,3.882-2.522,2.92-4.786c-0.969-2.28-4.055-1.489-5.605-0.469
						C155.849,29.958,156.648,31.341,157.512,30.773L157.512,30.773z"/>
				</g>
			</g>
		</g>
		<g>
			<g>
				<path fill="#3D3D3D" d="M159.637,34.926c1.24,0.455,2.036,1.712,2.925,2.619c0.836,0.854,2.144-0.456,1.309-1.309
					c-1.165-1.189-2.121-2.5-3.742-3.095C159.006,32.73,158.527,34.519,159.637,34.926L159.637,34.926z"/>
			</g>
		</g>
	</g>
	<g>
		<g>
			<g>
				<g>
					<path fill="#3D3D3D" d="M113.577,30.774c0.192,1.857,0.402,3.755,0.891,5.561c0.269,0.993,1.81,0.571,1.54-0.425
						c-0.453-1.671-0.657-3.418-0.834-5.136C115.07,29.76,113.471,29.75,113.577,30.774L113.577,30.774z"/>
				</g>
			</g>
			<g>
				<g>
					<path fill="#3D3D3D" d="M113.916,30.773c0.81-0.533,2.567-1.42,3.318-0.294c0.771,1.157-1.022,2.285-1.862,2.63
						c-0.939,0.386-0.528,1.932,0.425,1.54c1.927-0.792,3.882-2.522,2.92-4.786c-0.969-2.28-4.055-1.489-5.605-0.469
						C112.254,29.958,113.053,31.341,113.916,30.773L113.916,30.773z"/>
				</g>
			</g>
		</g>
		<g>
			<g>
				<path fill="#3D3D3D" d="M116.042,34.926c1.24,0.455,2.036,1.712,2.925,2.619c0.836,0.854,2.144-0.456,1.309-1.309
					c-1.165-1.189-2.121-2.5-3.742-3.095C115.411,32.73,114.931,34.519,116.042,34.926L116.042,34.926z"/>
			</g>
		</g>
	</g>
	<g>
		<g>
			<g>
				<path fill="#3D3D3D" d="M54.352,33.997c0.32-1.339,0.31-2.644,1.959-2.693c-0.299-0.228-0.599-0.456-0.898-0.684
					c0.575,1.983,2.288,3.347,2.857,5.307c0.334,1.151,2.132,0.661,1.796-0.495c-0.575-1.983-2.288-3.347-2.857-5.307
					c-0.113-0.39-0.482-0.696-0.898-0.684c-1.07,0.032-2.116,0.275-2.778,1.183c-0.607,0.831-0.744,1.902-0.977,2.878
					C52.276,34.67,54.072,35.166,54.352,33.997L54.352,33.997z"/>
			</g>
		</g>
		<g>
			<g>
				<path fill="#3D3D3D" d="M51.796,34.166c3.054-0.861,6.098-1.381,9.276-1.414c1.201-0.013,1.202-1.876,0-1.863
					c-3.341,0.035-6.558,0.575-9.771,1.481C50.147,32.695,50.638,34.492,51.796,34.166L51.796,34.166z"/>
			</g>
		</g>
	</g>
	<g>
		<g>
			<g>
				<path fill="#3D3D3D" d="M92.369,33.997c0.32-1.339,0.31-2.644,1.959-2.693c-0.299-0.228-0.599-0.456-0.898-0.684
					c0.575,1.983,2.288,3.347,2.857,5.307c0.334,1.151,2.132,0.661,1.796-0.495c-0.575-1.983-2.288-3.347-2.857-5.307
					c-0.113-0.39-0.482-0.696-0.898-0.684c-1.07,0.032-2.116,0.275-2.778,1.183c-0.607,0.831-0.744,1.902-0.977,2.878
					C90.293,34.67,92.09,35.166,92.369,33.997L92.369,33.997z"/>
			</g>
		</g>
		<g>
			<g>
				<path fill="#3D3D3D" d="M89.813,34.166c3.054-0.861,6.098-1.381,9.276-1.414c1.201-0.013,1.202-1.876,0-1.863
					c-3.341,0.035-6.558,0.575-9.771,1.481C88.164,32.695,88.655,34.492,89.813,34.166L89.813,34.166z"/>
			</g>
		</g>
	</g>
</g>
<g>
	<g>
		<g>
			<g>
				<g>
					<path fill="#3D3D3D" d="M117.253,14.718c0-0.089,0-0.177,0-0.266c0-1.194-1.851-1.194-1.851,0c0,1.359,0,2.717,0,4.076
						c0,1.194,1.851,1.194,1.851,0c0-1.359,0-2.717,0-4.076c0-1.194-1.851-1.194-1.851,0c0,0.089,0,0.177,0,0.266
						C115.402,15.911,117.253,15.911,117.253,14.718L117.253,14.718z"/>
				</g>
			</g>
			<g>
				<g>
					<path fill="#3D3D3D" d="M114.423,15.167c1.792-0.019,3.338-0.259,4.439,1.446c0.048-0.374,0.096-0.748,0.145-1.121
						c-1.401,1.4-2.805,2.739-4.574,3.665c-1.058,0.554-0.122,2.151,0.934,1.598c1.903-0.996,3.441-2.448,4.949-3.954
						c0.284-0.284,0.369-0.774,0.145-1.121c-0.663-1.028-1.453-1.763-2.615-2.175c-1.073-0.38-2.311-0.2-3.422-0.189
						C113.23,13.329,113.229,15.18,114.423,15.167L114.423,15.167z"/>
				</g>
			</g>
		</g>
		<g>
			<g>
				<g>
					<path fill="#3D3D3D" d="M123.212,14.875c0.239,1.2,0.199,2.431,0.457,3.628c0.28,1.298,1.229,2.218,2.267,2.959
						c0.382,0.272,1.07,0.099,1.266-0.332c1.129-2.479,1.027-5,0.701-7.65c-0.144-1.169-1.996-1.183-1.851,0
						c0.278,2.258,0.525,4.58-0.448,6.715c0.422-0.111,0.844-0.221,1.266-0.332c-1.896-1.353-1.467-3.44-1.873-5.48
						C124.763,13.213,122.98,13.709,123.212,14.875L123.212,14.875z"/>
				</g>
			</g>
		</g>
	</g>
	<g>
		<g>
			<g>
				<g>
					<path fill="#3D3D3D" d="M169.589,14.71c0-0.089,0-0.177,0-0.266c0-1.194-1.851-1.194-1.851,0c0,1.359,0,2.717,0,4.076
						c0,1.194,1.851,1.194,1.851,0c0-1.359,0-2.717,0-4.076c0-1.194-1.851-1.194-1.851,0c0,0.089,0,0.177,0,0.266
						C167.738,15.903,169.589,15.903,169.589,14.71L169.589,14.71z"/>
				</g>
			</g>
			<g>
				<g>
					<path fill="#3D3D3D" d="M166.759,15.159c1.792-0.019,3.338-0.259,4.439,1.446c0.048-0.374,0.096-0.748,0.145-1.121
						c-1.401,1.4-2.805,2.739-4.574,3.665c-1.058,0.554-0.122,2.151,0.934,1.598c1.903-0.996,3.441-2.448,4.949-3.954
						c0.284-0.284,0.369-0.774,0.145-1.121c-0.663-1.028-1.453-1.763-2.615-2.175c-1.073-0.38-2.311-0.2-3.422-0.189
						C165.566,13.321,165.565,15.171,166.759,15.159L166.759,15.159z"/>
				</g>
			</g>
		</g>
		<g>
			<g>
				<g>
					<path fill="#3D3D3D" d="M144.429,13.694c0.001,1.45-0.108,3.329,0.961,4.466c0.82,0.871,2.126-0.441,1.309-1.309
						c-0.631-0.67-0.419-2.316-0.419-3.157C146.279,12.501,144.429,12.501,144.429,13.694L144.429,13.694z"/>
				</g>
			</g>
			<g>
				<g>
					<path fill="#3D3D3D" d="M143.53,14.587c0.816-0.125,1.66-0.262,2.401-0.351c0.336-0.04,0.674-0.072,1.012-0.089
						c0.127-0.006,0.253-0.008,0.38-0.006c0.083,0.001,0.502,0.053,0.186,0.003c0.09,0.014,0.346,0.118,0.044-0.015
						c0.08,0.035,0.147,0.128-0.07-0.065c-0.035-0.031-0.184-0.348-0.163-0.275c-0.035-0.119-0.036-0.237-0.002-0.356
						c-0.012,0.072-0.086,0.192,0.033-0.058c-0.024,0.05-0.055,0.096-0.085,0.142c-0.12,0.182,0.135-0.159-0.025,0.029
						c-0.647,0.758-1.542,1.331-2.352,1.893c-0.414,0.287-0.602,0.805-0.332,1.266c0.24,0.41,0.851,0.62,1.266,0.332
						c0.888-0.616,4.921-3.114,2.699-4.487c-0.617-0.381-1.513-0.27-2.196-0.205c-1.1,0.105-2.194,0.292-3.286,0.46
						c-0.501,0.074-0.77,0.692-0.648,1.135C142.537,14.469,143.032,14.663,143.53,14.587L143.53,14.587z"/>
				</g>
			</g>
			<g>
				<g>
					<path fill="#3D3D3D" d="M147.698,17.57c0.907,0.196,1.851,0.389,2.707,0.758c0.218,0.094,0.448,0.202,0.62,0.369
						c-0.16-0.154,0.038-0.488-0.038-0.403c-0.35,0.393-1.001,0.596-1.477,0.777c-1.055,0.402-2.157,0.688-3.25,0.965
						c-1.157,0.292-0.666,2.077,0.492,1.785c1.376-0.348,2.763-0.718,4.065-1.295c0.733-0.325,1.68-0.793,1.92-1.636
						c0.626-2.191-3.212-2.815-4.548-3.104C147.026,15.534,146.532,17.318,147.698,17.57L147.698,17.57z"/>
				</g>
			</g>
		</g>
		<g>
			<g>
				<g>
					<path fill="#3D3D3D" d="M175.672,14.875c0.239,1.2,0.199,2.431,0.457,3.628c0.28,1.298,1.229,2.218,2.267,2.959
						c0.382,0.272,1.07,0.099,1.266-0.332c1.129-2.479,1.027-5,0.701-7.65c-0.144-1.169-1.996-1.183-1.851,0
						c0.278,2.258,0.525,4.58-0.448,6.715c0.422-0.111,0.844-0.221,1.266-0.332c-1.896-1.353-1.467-3.44-1.873-5.48
						C177.224,13.213,175.44,13.709,175.672,14.875L175.672,14.875z"/>
				</g>
			</g>
		</g>
		<g>
			<g>
				<g>
					<path fill="#3D3D3D" d="M157.679,14.198c0.017,1.895,0.175,3.856,0.608,5.705c0.272,1.162,2.056,0.669,1.785-0.492
						c-0.396-1.693-0.526-3.478-0.542-5.213C159.519,13.005,157.668,13.004,157.679,14.198L157.679,14.198z"/>
				</g>
			</g>
			<g>
				<g>
					<path fill="#3D3D3D" d="M156.445,14.836c1.442-0.017,2.869-0.266,4.309-0.287c1.192-0.017,1.194-1.868,0-1.851
						c-1.441,0.021-2.867,0.27-4.309,0.287C155.252,12.999,155.251,14.85,156.445,14.836L156.445,14.836z"/>
				</g>
			</g>
			<g>
				<g>
					<path fill="#3D3D3D" d="M157.553,21.411c1.545-0.325,3.048-0.792,4.638-0.829c1.192-0.027,1.194-1.878,0-1.851
						c-1.758,0.04-3.422,0.536-5.13,0.895C155.893,19.872,156.389,21.656,157.553,21.411L157.553,21.411z"/>
				</g>
			</g>
		</g>
		<g>
			<g>
				<g>
					<path fill="#3D3D3D" d="M192.26,13.493c-0.91,2.035-1.042,4.749-0.569,6.903c0.255,1.166,2.04,0.671,1.785-0.492
						c-0.356-1.625-0.309-3.931,0.383-5.477C194.341,13.348,192.747,12.406,192.26,13.493L192.26,13.493z"/>
				</g>
			</g>
			<g>
				<g>
					<path fill="#3D3D3D" d="M192.583,21.076c1.111,0,2.222,0,3.333,0c1.194,0,1.194-1.851,0-1.851c-1.111,0-2.222,0-3.333,0
						C191.39,19.225,191.39,21.076,192.583,21.076L192.583,21.076z"/>
				</g>
			</g>
			<g>
				<g>
					<path fill="#3D3D3D" d="M193.535,17.743c0.635,0,1.27,0,1.905,0c1.194,0,1.194-1.851,0-1.851c-0.635,0-1.27,0-1.905,0
						C192.342,15.892,192.342,17.743,193.535,17.743L193.535,17.743z"/>
				</g>
			</g>
			<g>
				<g>
					<path fill="#3D3D3D" d="M192.583,15.362c2.35-0.033,4.618-0.521,6.912-0.985c1.169-0.237,0.673-2.021-0.492-1.785
						c-2.134,0.432-4.234,0.888-6.42,0.919C191.391,13.528,191.389,15.379,192.583,15.362L192.583,15.362z"/>
				</g>
			</g>
		</g>
		<g>
			<g>
				<g>
					<path fill="#3D3D3D" d="M183.337,14.226c0,1.659,0,3.319,0,4.978c0,1.194,1.851,1.194,1.851,0c0-1.659,0-3.319,0-4.978
						C185.188,13.033,183.337,13.033,183.337,14.226L183.337,14.226z"/>
				</g>
			</g>
			<g>
				<g>
					<path fill="#3D3D3D" d="M184.262,20.841c1.185,0,2.371,0,3.556,0c1.194,0,1.194-1.851,0-1.851c-1.185,0-2.371,0-3.556,0
						C183.069,18.99,183.069,20.841,184.262,20.841L184.262,20.841z"/>
				</g>
			</g>
		</g>
	</g>
	<g>
		<g>
			<g>
				<g>
					<path fill="#3D3D3D" d="M20.936,13.196c-1.47-0.215-3.73-0.581-4.764,0.817c-1.057,1.43,0.696,3.218,1.656,4.114
						c0.871,0.813,2.183-0.493,1.309-1.309c-0.458-0.428-0.909-0.868-1.242-1.403c-0.096-0.154-0.13-0.235-0.175-0.403
						c0.006,0.021-0.036,0.065,0.004-0.002c-0.069,0.116,0.053,0,0.011,0.017c0.186-0.077,0.396-0.123,0.595-0.144
						c0.698-0.074,1.423-0.004,2.115,0.097c0.499,0.073,0.992-0.116,1.138-0.646C21.704,13.894,21.436,13.269,20.936,13.196
						L20.936,13.196z"/>
				</g>
			</g>
			<g>
				<g>
					<path fill="#3D3D3D" d="M17.684,17.939c0.295,0.427,0.622,0.911,0.787,1.374c0.033,0.092,0.056,0.186,0.078,0.281
						c-0.043-0.185,0,0.036,0,0.078c0.002,0.232,0.05-0.182-0.013,0.02c0.06-0.195,0.065-0.169,0.158-0.23
						c-0.175,0.117,0.187-0.053-0.035,0.009c-0.237,0.067,0.19-0.006-0.084,0.01c-0.248,0.014-0.408-0.018-0.628-0.062
						c-0.674-0.136-1.334-0.389-1.964-0.661c-0.463-0.2-0.989-0.142-1.266,0.332c-0.231,0.395-0.131,1.066,0.332,1.266
						c1.239,0.535,3.317,1.546,4.632,0.669c1.479-0.986,0.336-2.957-0.399-4.019C18.608,16.031,17.003,16.955,17.684,17.939
						L17.684,17.939z"/>
				</g>
			</g>
		</g>
		<g>
			<g>
				<g>
					<path fill="#3D3D3D" d="M54.54,13.659c-1.214,0.439-2.385-0.249-3.555,0.707c-1.699,1.387-1.521,2.748-0.42,4.472
						c1.747,2.734,5.361,1.596,8.03,1.877c1.186,0.125,1.174-1.727,0-1.851c-1.809-0.19-4.276,0.529-5.899-0.429
						c-1.163-0.687-1.671-2.667,0.126-2.899c0.748-0.097,1.475,0.173,2.21-0.093C56.146,15.041,55.665,13.252,54.54,13.659
						L54.54,13.659z"/>
				</g>
			</g>
		</g>
		<g>
			<g>
				<g>
					<path fill="#3D3D3D" d="M73.078,14.297c0.017,1.895,0.175,3.856,0.608,5.705c0.272,1.162,2.056,0.669,1.785-0.492
						c-0.396-1.693-0.526-3.478-0.542-5.213C74.918,13.104,73.067,13.103,73.078,14.297L73.078,14.297z"/>
				</g>
			</g>
			<g>
				<g>
					<path fill="#3D3D3D" d="M71.844,14.935c1.442-0.017,2.869-0.266,4.309-0.287c1.192-0.017,1.194-1.868,0-1.851
						c-1.441,0.021-2.867,0.27-4.309,0.287C70.651,13.099,70.65,14.95,71.844,14.935L71.844,14.935z"/>
				</g>
			</g>
			<g>
				<g>
					<path fill="#3D3D3D" d="M72.952,21.51c1.545-0.325,3.048-0.792,4.638-0.829c1.192-0.027,1.194-1.878,0-1.851
						c-1.758,0.04-3.422,0.536-5.13,0.895C71.292,19.971,71.788,21.755,72.952,21.51L72.952,21.51z"/>
				</g>
			</g>
		</g>
		<g>
			<g>
				<g>
					<path fill="#3D3D3D" d="M90.505,14.799c-0.593,1.311-0.602,2.859-0.603,4.276c-0.001,1.194,1.85,1.194,1.851,0
						c0.001-1.046-0.09-2.369,0.35-3.342C92.59,14.654,90.996,13.712,90.505,14.799L90.505,14.799z"/>
				</g>
			</g>
			<g>
				<g>
					<path fill="#3D3D3D" d="M90.837,16.541c1.56,1.023,3.222,1.881,4.574,3.189c0.858,0.829,2.168-0.479,1.309-1.309
						c-1.468-1.419-3.255-2.367-4.949-3.478C90.77,14.286,89.843,15.889,90.837,16.541L90.837,16.541z"/>
				</g>
			</g>
			<g>
				<g>
					<path fill="#3D3D3D" d="M95.14,15.266c0,0.952,0,1.905,0,2.857c0,1.194,1.851,1.194,1.851,0c0-0.952,0-1.905,0-2.857
						C96.991,14.072,95.14,14.072,95.14,15.266L95.14,15.266z"/>
				</g>
			</g>
		</g>
		<g>
			<g>
				<g>
					<path fill="#3D3D3D" d="M83.528,15.046c1.169,0.479,2.599,1.108,3.381,2.153c0.756,1.01-0.911,1.524-1.638,1.774
						c-1.33,0.457-2.852,0.102-3.225-1.399c-0.312-1.257,0.955-2.192,1.974-2.528c1.128-0.373,0.644-2.161-0.492-1.785
						c-1.988,0.657-3.678,2.358-3.301,4.602c0.36,2.135,2.692,3.629,4.784,3.113c1.823-0.45,4.427-1.546,3.897-3.868
						c-0.46-2.02-3.216-3.16-4.889-3.847C82.915,12.808,82.439,14.599,83.528,15.046z"/>
				</g>
			</g>
		</g>
		<g>
			<g>
				<g>
					<path fill="#3D3D3D" d="M62.983,13.831c-0.017,1.236-0.119,2.472-0.159,3.707c-0.036,1.103-0.226,2.539,0.188,3.595
						c0.371,0.948,1.916,0.536,1.54-0.425c-0.395-1.008-0.155-2.44-0.12-3.495c0.037-1.127,0.133-2.255,0.149-3.383
						C64.595,12.8,62.998,12.802,62.983,13.831L62.983,13.831z"/>
				</g>
			</g>
			<g>
				<g>
					<path fill="#3D3D3D" d="M61.94,15.012c2.215-0.529,4.498-0.77,6.773-0.793c1.029-0.01,1.03-1.607,0-1.597
						c-2.411,0.024-4.85,0.29-7.197,0.85C60.514,13.711,60.938,15.251,61.94,15.012L61.94,15.012z"/>
				</g>
			</g>
		</g>
		<g>
			<g>
				<g>
					<path fill="#3D3D3D" d="M23.697,13.846c-0.91,2.035-1.042,4.749-0.569,6.903c0.255,1.166,2.04,0.671,1.785-0.492
						c-0.356-1.625-0.309-3.931,0.383-5.477C25.778,13.701,24.183,12.758,23.697,13.846L23.697,13.846z"/>
				</g>
			</g>
			<g>
				<g>
					<path fill="#3D3D3D" d="M24.019,21.429c1.111,0,2.222,0,3.333,0c1.194,0,1.194-1.851,0-1.851c-1.111,0-2.222,0-3.333,0
						C22.826,19.578,22.826,21.429,24.019,21.429L24.019,21.429z"/>
				</g>
			</g>
			<g>
				<g>
					<path fill="#3D3D3D" d="M24.972,18.096c0.635,0,1.27,0,1.905,0c1.194,0,1.194-1.851,0-1.851c-0.635,0-1.27,0-1.905,0
						C23.778,16.245,23.778,18.096,24.972,18.096L24.972,18.096z"/>
				</g>
			</g>
			<g>
				<g>
					<path fill="#3D3D3D" d="M24.019,15.715c2.35-0.033,4.618-0.521,6.912-0.985c1.169-0.237,0.673-2.021-0.492-1.785
						c-2.134,0.432-4.234,0.888-6.42,0.919C22.827,13.881,22.825,15.732,24.019,15.715L24.019,15.715z"/>
				</g>
			</g>
		</g>
		<g>
			<g>
				<g>
					<path fill="#3D3D3D" d="M40.38,13.846c-0.911,2.035-1.042,4.749-0.57,6.904c0.255,1.166,2.04,0.671,1.785-0.492
						c-0.356-1.625-0.309-3.932,0.383-5.478C42.461,13.701,40.866,12.758,40.38,13.846L40.38,13.846z"/>
				</g>
			</g>
			<g>
				<g>
					<path fill="#3D3D3D" d="M40.702,21.429c1.111,0,2.222,0,3.333,0c1.194,0,1.194-1.851,0-1.851c-1.111,0-2.222,0-3.333,0
						C39.509,19.578,39.509,21.429,40.702,21.429L40.702,21.429z"/>
				</g>
			</g>
			<g>
				<g>
					<path fill="#3D3D3D" d="M41.655,18.096c0.635,0,1.27,0,1.905,0c1.194,0,1.194-1.851,0-1.851c-0.635,0-1.27,0-1.905,0
						C40.461,16.245,40.461,18.096,41.655,18.096L41.655,18.096z"/>
				</g>
			</g>
			<g>
				<g>
					<path fill="#3D3D3D" d="M40.702,15.715c2.35-0.033,4.618-0.521,6.912-0.985c1.169-0.237,0.673-2.021-0.492-1.785
						c-2.133,0.432-4.233,0.888-6.42,0.919C39.51,13.881,39.508,15.732,40.702,15.715L40.702,15.715z"/>
				</g>
			</g>
		</g>
		<g>
			<g>
				<g>
					<path fill="#3D3D3D" d="M32.892,14.326c0,1.659,0,3.319,0,4.978c0,1.194,1.851,1.194,1.851,0c0-1.659,0-3.319,0-4.978
						C34.743,13.132,32.892,13.132,32.892,14.326L32.892,14.326z"/>
				</g>
			</g>
			<g>
				<g>
					<path fill="#3D3D3D" d="M33.818,20.94c1.185,0,2.371,0,3.556,0c1.194,0,1.194-1.851,0-1.851c-1.185,0-2.371,0-3.556,0
						C32.624,19.09,32.624,20.94,33.818,20.94L33.818,20.94z"/>
				</g>
			</g>
		</g>
		<g>
			<g>
				<path fill="#3D3D3D" d="M28.39,10.166c0.836-0.098,1.219-0.741,1.546-1.448c0.172-0.373,0.325-0.755,0.498-1.128
					c0.075-0.163,0.158-0.322,0.249-0.477c0.066-0.095,0.067-0.104,0.005-0.027c0.086-0.111-0.225,0.065-0.356,0.08
					c0.501-0.059,0.925-0.377,0.925-0.925c0-0.46-0.423-0.984-0.925-0.925c-0.836,0.098-1.219,0.741-1.546,1.448
					c-0.172,0.373-0.325,0.755-0.498,1.128c-0.075,0.163-0.158,0.322-0.249,0.477c-0.066,0.095-0.067,0.104-0.005,0.027
					c-0.086,0.111,0.225-0.065,0.356-0.08c-0.501,0.059-0.925,0.377-0.925,0.925C27.464,9.701,27.888,10.225,28.39,10.166
					L28.39,10.166z"/>
			</g>
		</g>
	</g>
</g>
<g>
	<g>
		<path fill="#3D3D3D" d="M169.252,32.379c1.194,0,1.194-1.851,0-1.851S168.059,32.379,169.252,32.379L169.252,32.379z"/>
	</g>
</g>
<g>
	<g>
		<path fill="#3D3D3D" d="M169.252,36.283c1.194,0,1.194-1.851,0-1.851S168.059,36.283,169.252,36.283L169.252,36.283z"/>
	</g>
</g>
<g>
	<g>
		<path fill="#3D3D3D" d="M90.816,44.971c12.657,0,25.315,0,37.972,0c0.548,0,0.548-0.85,0-0.85c-12.657,0-25.315,0-37.972,0
			C90.267,44.121,90.267,44.971,90.816,44.971L90.816,44.971z"/>
	</g>
</g>
<g>
	<g>
		<path fill="#3D3D3D" d="M55.573,28.775c0.502,0.059,0.926-0.465,0.925-0.925c0-0.548-0.424-0.866-0.925-0.925
			c0.131,0.015,0.442,0.191,0.356,0.08c0.062,0.077,0.061,0.068-0.005-0.027c-0.091-0.155-0.174-0.314-0.249-0.477
			c-0.173-0.373-0.326-0.755-0.498-1.128c-0.327-0.707-0.71-1.35-1.546-1.448c-0.502-0.059-0.925,0.465-0.925,0.925
			c0,0.548,0.508,0.777,0.574,0.872C53.371,25.877,54.737,28.677,55.573,28.775L55.573,28.775z"/>
	</g>
</g>
<g>
	<g>
		<g>
			<g>
				<path fill="#3D3D3D" d="M67.689,67.541c0.32-1.339,0.31-2.644,1.959-2.693c-0.299-0.228-0.599-0.456-0.898-0.684
					c0.575,1.983,2.288,3.347,2.857,5.307c0.334,1.151,2.132,0.661,1.796-0.495c-0.575-1.983-2.288-3.347-2.857-5.307
					c-0.113-0.39-0.482-0.696-0.898-0.684c-1.07,0.032-2.116,0.275-2.778,1.183c-0.607,0.831-0.744,1.902-0.977,2.878
					C65.613,68.214,67.409,68.709,67.689,67.541L67.689,67.541z"/>
			</g>
		</g>
		<g>
			<g>
				<path fill="#3D3D3D" d="M65.133,67.709c3.054-0.861,6.098-1.381,9.276-1.414c1.201-0.013,1.202-1.876,0-1.863
					c-3.341,0.035-6.558,0.575-9.771,1.481C63.484,66.238,63.975,68.036,65.133,67.709L65.133,67.709z"/>
			</g>
		</g>
	</g>
	<g>
		<g>
			<g>
				<path fill="#3D3D3D" d="M80.946,63.073c0.001,1.45-0.108,3.329,0.961,4.466c0.82,0.871,2.126-0.441,1.309-1.309
					c-0.631-0.67-0.419-2.316-0.419-3.157C82.796,61.879,80.945,61.879,80.946,63.073L80.946,63.073z"/>
			</g>
		</g>
		<g>
			<g>
				<path fill="#3D3D3D" d="M80.047,63.965c0.816-0.125,1.66-0.262,2.401-0.351c0.336-0.04,0.674-0.072,1.012-0.089
					c0.127-0.006,0.253-0.008,0.38-0.006c0.083,0.001,0.502,0.053,0.186,0.003c0.09,0.014,0.346,0.118,0.044-0.015
					c0.08,0.035,0.147,0.128-0.07-0.065c-0.035-0.031-0.184-0.348-0.163-0.275c-0.035-0.119-0.036-0.237-0.002-0.356
					c-0.012,0.072-0.086,0.192,0.033-0.058c-0.024,0.05-0.055,0.096-0.085,0.142c-0.12,0.182,0.135-0.159-0.025,0.029
					c-0.647,0.758-1.542,1.331-2.352,1.893c-0.414,0.287-0.602,0.805-0.332,1.266c0.24,0.41,0.851,0.62,1.266,0.332
					c0.888-0.616,4.921-3.114,2.699-4.487c-0.617-0.381-1.513-0.27-2.196-0.205c-1.1,0.105-2.194,0.292-3.286,0.46
					c-0.499,0.077-0.768,0.695-0.646,1.138C79.054,63.847,79.549,64.042,80.047,63.965L80.047,63.965z"/>
			</g>
		</g>
		<g>
			<g>
				<path fill="#3D3D3D" d="M84.215,66.949c0.907,0.196,1.851,0.389,2.707,0.758c0.218,0.094,0.448,0.202,0.62,0.369
					c-0.16-0.154,0.038-0.488-0.038-0.403c-0.35,0.393-1.001,0.596-1.477,0.777c-1.055,0.402-2.157,0.688-3.25,0.965
					c-1.157,0.292-0.666,2.077,0.492,1.785c1.376-0.348,2.763-0.718,4.065-1.295c0.733-0.325,1.68-0.793,1.92-1.636
					c0.626-2.191-3.212-2.815-4.548-3.104C83.543,64.913,83.049,66.697,84.215,66.949L84.215,66.949z"/>
			</g>
		</g>
	</g>
	<g>
		<g>
			<g>
				<path fill="#3D3D3D" d="M142.899,63.645c0.239,1.2,0.199,2.431,0.457,3.628c0.28,1.298,1.229,2.218,2.267,2.959
					c0.382,0.272,1.07,0.099,1.266-0.332c1.129-2.479,1.027-5,0.701-7.65c-0.144-1.169-1.996-1.183-1.851,0
					c0.278,2.258,0.525,4.58-0.448,6.715c0.422-0.111,0.844-0.221,1.266-0.332c-1.896-1.353-1.467-3.44-1.873-5.48
					C144.451,61.983,142.667,62.48,142.899,63.645L142.899,63.645z"/>
			</g>
		</g>
	</g>
	<g>
		<g>
			<g>
				<path fill="#3D3D3D" d="M109.929,63.209c0.017,1.895,0.175,3.856,0.608,5.705c0.272,1.162,2.056,0.669,1.785-0.492
					c-0.396-1.693-0.526-3.478-0.542-5.213C111.769,62.016,109.918,62.015,109.929,63.209L109.929,63.209z"/>
			</g>
		</g>
		<g>
			<g>
				<path fill="#3D3D3D" d="M108.695,63.847c1.442-0.017,2.869-0.266,4.309-0.287c1.192-0.017,1.194-1.868,0-1.851
					c-1.441,0.021-2.867,0.27-4.309,0.287C107.502,62.011,107.501,63.862,108.695,63.847L108.695,63.847z"/>
			</g>
		</g>
		<g>
			<g>
				<path fill="#3D3D3D" d="M109.803,70.422c1.545-0.325,3.048-0.792,4.638-0.829c1.192-0.027,1.194-1.878,0-1.851
					c-1.758,0.04-3.422,0.536-5.13,0.895C108.143,68.883,108.639,70.667,109.803,70.422L109.803,70.422z"/>
			</g>
		</g>
	</g>
	<g>
		<g>
			<g>
				<path fill="#3D3D3D" d="M119.828,63.711c-0.593,1.311-0.602,2.859-0.603,4.276c-0.001,1.194,1.85,1.194,1.851,0
					c0.001-1.046-0.09-2.369,0.35-3.342C121.913,63.566,120.319,62.624,119.828,63.711L119.828,63.711z"/>
			</g>
		</g>
		<g>
			<g>
				<path fill="#3D3D3D" d="M120.16,65.453c1.56,1.023,3.222,1.881,4.574,3.189c0.858,0.829,2.168-0.478,1.309-1.309
					c-1.468-1.419-3.255-2.367-4.949-3.478C120.092,63.198,119.166,64.801,120.16,65.453L120.16,65.453z"/>
			</g>
		</g>
		<g>
			<g>
				<path fill="#3D3D3D" d="M124.463,64.178c0,0.952,0,1.905,0,2.857c0,1.194,1.851,1.194,1.851,0c0-0.952,0-1.905,0-2.857
					C126.314,62.984,124.463,62.984,124.463,64.178L124.463,64.178z"/>
			</g>
		</g>
	</g>
	<g>
		<g>
			<g>
				<path fill="#3D3D3D" d="M132.353,62.609c-0.017,1.236-0.119,2.472-0.159,3.707c-0.036,1.103-0.226,2.539,0.188,3.595
					c0.371,0.948,1.916,0.536,1.54-0.425c-0.395-1.008-0.155-2.44-0.12-3.495c0.037-1.127,0.133-2.255,0.149-3.383
					C133.965,61.578,132.368,61.58,132.353,62.609L132.353,62.609z"/>
			</g>
		</g>
		<g>
			<g>
				<path fill="#3D3D3D" d="M131.31,63.79c2.215-0.529,4.498-0.77,6.773-0.793c1.029-0.01,1.03-1.607,0-1.597
					c-2.411,0.024-4.85,0.29-7.197,0.85C129.884,62.489,130.309,64.029,131.31,63.79L131.31,63.79z"/>
			</g>
		</g>
	</g>
	<g>
		<g>
			<g>
				<path fill="#3D3D3D" d="M66.775,52.781c1.341-1.046,2.673-2.104,4.075-3.067c0.854-0.587,0.046-1.99-0.816-1.397
					c-1.515,1.042-2.953,2.19-4.402,3.32C64.809,52.278,65.963,53.414,66.775,52.781L66.775,52.781z"/>
			</g>
		</g>
		<g>
			<g>
				<path fill="#3D3D3D" d="M69.495,49.149c0.081,2.367,0.044,4.733-0.001,7.1c-0.02,1.044,1.598,1.042,1.618,0
					c0.045-2.367,0.082-4.733,0.001-7.1C71.077,48.109,69.459,48.105,69.495,49.149L69.495,49.149z"/>
			</g>
		</g>
		<g>
			<g>
				<path fill="#3D3D3D" d="M68.005,57.422c1.443,0.018,2.879-0.073,4.316-0.189c1.032-0.083,1.041-1.702,0-1.618
					c-1.437,0.116-2.873,0.207-4.316,0.189C66.962,55.791,66.963,57.409,68.005,57.422L68.005,57.422z"/>
			</g>
		</g>
	</g>
	<g>
		<g>
			<g>
				<path fill="#3D3D3D" d="M79.775,52.781c1.341-1.046,2.673-2.104,4.075-3.067c0.854-0.587,0.046-1.99-0.816-1.397
					c-1.515,1.042-2.953,2.19-4.402,3.32C77.809,52.278,78.963,53.414,79.775,52.781L79.775,52.781z"/>
			</g>
		</g>
		<g>
			<g>
				<path fill="#3D3D3D" d="M82.495,49.149c0.081,2.367,0.044,4.733-0.001,7.1c-0.02,1.044,1.598,1.042,1.618,0
					c0.045-2.367,0.082-4.733,0.001-7.1C84.077,48.109,82.459,48.105,82.495,49.149L82.495,49.149z"/>
			</g>
		</g>
		<g>
			<g>
				<path fill="#3D3D3D" d="M81.005,57.422c1.443,0.018,2.879-0.073,4.316-0.189c1.032-0.083,1.041-1.702,0-1.618
					c-1.437,0.116-2.873,0.207-4.316,0.189C79.962,55.791,79.963,57.409,81.005,57.422L81.005,57.422z"/>
			</g>
		</g>
	</g>
	<g>
		<g>
			<g>
				<path fill="#3D3D3D" d="M92.14,52.781c1.341-1.046,2.673-2.104,4.075-3.067c0.854-0.587,0.046-1.99-0.816-1.397
					c-1.515,1.042-2.953,2.19-4.402,3.32C90.174,52.278,91.327,53.414,92.14,52.781L92.14,52.781z"/>
			</g>
		</g>
		<g>
			<g>
				<path fill="#3D3D3D" d="M94.86,49.149c0.081,2.367,0.044,4.733-0.001,7.1c-0.02,1.044,1.598,1.042,1.618,0
					c0.045-2.367,0.082-4.733,0.001-7.1C96.442,48.109,94.824,48.105,94.86,49.149L94.86,49.149z"/>
			</g>
		</g>
		<g>
			<g>
				<path fill="#3D3D3D" d="M93.37,57.422c1.443,0.018,2.879-0.073,4.316-0.189c1.032-0.083,1.041-1.702,0-1.618
					c-1.437,0.116-2.873,0.207-4.316,0.189C92.327,55.791,92.328,57.409,93.37,57.422L93.37,57.422z"/>
			</g>
		</g>
	</g>
	<g>
		<g>
			<g>
				<path fill="#3D3D3D" d="M104.822,52.781c1.341-1.046,2.673-2.104,4.075-3.067c0.854-0.587,0.046-1.99-0.816-1.397
					c-1.515,1.042-2.953,2.19-4.402,3.32C102.856,52.278,104.01,53.414,104.822,52.781L104.822,52.781z"/>
			</g>
		</g>
		<g>
			<g>
				<path fill="#3D3D3D" d="M107.543,49.149c0.081,2.367,0.044,4.733-0.001,7.1c-0.02,1.044,1.598,1.042,1.618,0
					c0.045-2.367,0.082-4.733,0.001-7.1C109.125,48.109,107.507,48.105,107.543,49.149L107.543,49.149z"/>
			</g>
		</g>
		<g>
			<g>
				<path fill="#3D3D3D" d="M106.053,57.422c1.443,0.018,2.879-0.073,4.316-0.189c1.032-0.083,1.041-1.702,0-1.618
					c-1.437,0.116-2.873,0.207-4.316,0.189C105.009,55.791,105.01,57.409,106.053,57.422L106.053,57.422z"/>
			</g>
		</g>
	</g>
	<g>
		<g>
			<g>
				<path fill="#3D3D3D" d="M117.505,52.781c1.341-1.046,2.673-2.104,4.075-3.067c0.854-0.587,0.046-1.99-0.816-1.397
					c-1.515,1.042-2.953,2.19-4.402,3.32C115.539,52.278,116.692,53.414,117.505,52.781L117.505,52.781z"/>
			</g>
		</g>
		<g>
			<g>
				<path fill="#3D3D3D" d="M120.225,49.149c0.081,2.367,0.044,4.733-0.001,7.1c-0.02,1.044,1.598,1.042,1.618,0
					c0.045-2.367,0.082-4.733,0.001-7.1C121.807,48.109,120.189,48.105,120.225,49.149L120.225,49.149z"/>
			</g>
		</g>
		<g>
			<g>
				<path fill="#3D3D3D" d="M118.735,57.422c1.443,0.018,2.879-0.073,4.316-0.189c1.032-0.083,1.041-1.702,0-1.618
					c-1.437,0.116-2.873,0.207-4.316,0.189C117.692,55.791,117.693,57.409,118.735,57.422L118.735,57.422z"/>
			</g>
		</g>
	</g>
	<g>
		<g>
			<g>
				<path fill="#3D3D3D" d="M130.187,52.781c1.341-1.046,2.673-2.104,4.075-3.067c0.854-0.587,0.046-1.99-0.816-1.397
					c-1.515,1.042-2.953,2.19-4.402,3.32C128.221,52.278,129.375,53.414,130.187,52.781L130.187,52.781z"/>
			</g>
		</g>
		<g>
			<g>
				<path fill="#3D3D3D" d="M132.907,49.149c0.081,2.367,0.044,4.733-0.001,7.1c-0.02,1.044,1.598,1.042,1.618,0
					c0.045-2.367,0.082-4.733,0.001-7.1C134.489,48.109,132.872,48.105,132.907,49.149L132.907,49.149z"/>
			</g>
		</g>
		<g>
			<g>
				<path fill="#3D3D3D" d="M131.418,57.422c1.443,0.018,2.879-0.073,4.316-0.189c1.032-0.083,1.041-1.702,0-1.618
					c-1.437,0.116-2.873,0.207-4.316,0.189C130.374,55.791,130.375,57.409,131.418,57.422L131.418,57.422z"/>
			</g>
		</g>
	</g>
	<g>
		<g>
			<g>
				<path fill="#3D3D3D" d="M142.869,52.781c1.341-1.046,2.673-2.104,4.075-3.067c0.854-0.587,0.046-1.99-0.816-1.397
					c-1.515,1.042-2.953,2.19-4.402,3.32C140.904,52.278,142.057,53.414,142.869,52.781L142.869,52.781z"/>
			</g>
		</g>
		<g>
			<g>
				<path fill="#3D3D3D" d="M145.59,49.149c0.081,2.367,0.044,4.733-0.001,7.1c-0.02,1.044,1.598,1.042,1.618,0
					c0.045-2.367,0.082-4.733,0.001-7.1C147.172,48.109,145.554,48.105,145.59,49.149L145.59,49.149z"/>
			</g>
		</g>
		<g>
			<g>
				<path fill="#3D3D3D" d="M144.1,57.422c1.443,0.018,2.879-0.073,4.316-0.189c1.032-0.083,1.041-1.702,0-1.618
					c-1.437,0.116-2.873,0.207-4.316,0.189C143.056,55.791,143.058,57.409,144.1,57.422L144.1,57.422z"/>
			</g>
		</g>
	</g>
	<g>
		<g>
			<g>
				<path fill="#3D3D3D" d="M101.487,61.536c-2.883,0.002-6.653,0.181-7.755,3.392c-1.061,3.091,1.467,4.901,4.204,5.352
					c1.167,0.192,1.668-1.591,0.492-1.785c-2.054-0.339-3.585-1.114-2.809-3.375c0.664-1.934,4.305-1.732,5.868-1.733
					C102.68,63.386,102.68,61.535,101.487,61.536L101.487,61.536z"/>
			</g>
		</g>
		<g>
			<g>
				<path fill="#3D3D3D" d="M97.714,70.186c1.15,0.509,2.425,0.685,3.422-0.233c0.888-0.818,0.876-2.221,0.606-3.296
					c-0.29-1.157-2.075-0.666-1.785,0.492c0.083,0.329,0.114,0.63,0.093,0.97c-0.01,0.158-0.122,0.413-0.155,0.453
					c-0.129,0.159-0.198,0.188-0.351,0.203c-0.306,0.029-0.619-0.063-0.897-0.186c-0.461-0.204-0.99-0.139-1.266,0.332
					C97.149,69.318,97.253,69.982,97.714,70.186L97.714,70.186z"/>
			</g>
		</g>
		<g>
			<g>
				<path fill="#3D3D3D" d="M97.648,67.332c1.725,0.001,3.402,0.089,5.092,0.464c1.163,0.258,1.657-1.526,0.492-1.785
					c-1.85-0.41-3.695-0.529-5.584-0.53C96.454,65.48,96.454,67.331,97.648,67.332L97.648,67.332z"/>
			</g>
		</g>
	</g>
</g>
</svg>
