<?xml version="1.0" encoding="utf-8"?>
<!-- Generator: Adobe Illustrator 17.0.0, SVG Export Plug-In . SVG Version: 6.00 Build 0)  -->
<!DOCTYPE svg PUBLIC "-//W3C//DTD SVG 1.1//EN" "http://www.w3.org/Graphics/SVG/1.1/DTD/svg11.dtd">
<svg version="1.1" id="Calque_1" xmlns="http://www.w3.org/2000/svg" xmlns:xlink="http://www.w3.org/1999/xlink" x="0px" y="0px"
	 width="120.73px" height="56.16px" viewBox="0 0 120.73 56.16" enable-background="new 0 0 120.73 56.16" xml:space="preserve">
<g>
	<g>
		<g>
			<g>
				<g>
					<path fill="#3D3D3D" d="M72.157,6.379c0,1.616,0,3.233,0,4.849c0,1.178,1.827,1.178,1.827,0c0-1.616,0-3.233,0-4.849
						C73.983,5.201,72.157,5.201,72.157,6.379L72.157,6.379z"/>
				</g>
			</g>
			<g>
				<g>
					<path fill="#3D3D3D" d="M73.07,12.834c1.185,0,2.371,0,3.556,0c1.178,0,1.178-1.827,0-1.827c-1.185,0-2.371,0-3.556,0
						C71.892,11.007,71.892,12.834,73.07,12.834L73.07,12.834z"/>
				</g>
			</g>
		</g>
		<g>
			<g>
				<g>
					<path fill="#3D3D3D" d="M82.306,5.906c-0.906,1.973-1.04,4.638-0.568,6.734c0.258,1.149,2.02,0.662,1.761-0.486
						c-0.355-1.578-0.303-3.829,0.384-5.326C84.371,5.765,82.797,4.836,82.306,5.906L82.306,5.906z"/>
				</g>
			</g>
			<g>
				<g>
					<path fill="#3D3D3D" d="M82.618,13.31c1.111,0,2.222,0,3.333,0c1.178,0,1.178-1.827,0-1.827c-1.111,0-2.222,0-3.333,0
						C81.44,11.483,81.44,13.31,82.618,13.31L82.618,13.31z"/>
				</g>
			</g>
			<g>
				<g>
					<path fill="#3D3D3D" d="M83.571,10.063c0.635,0,1.27,0,1.905,0c1.178,0,1.178-1.827,0-1.827c-0.635,0-1.27,0-1.905,0
						C82.393,8.236,82.393,10.063,83.571,10.063L83.571,10.063z"/>
				</g>
			</g>
			<g>
				<g>
					<path fill="#3D3D3D" d="M82.618,7.744c2.347-0.032,4.616-0.508,6.909-0.96c1.155-0.228,0.665-1.988-0.486-1.761
						c-2.135,0.421-4.238,0.865-6.424,0.895C81.441,5.933,81.44,7.76,82.618,7.744L82.618,7.744z"/>
				</g>
			</g>
		</g>
		<g>
			<g>
				<g>
					<path fill="#3D3D3D" d="M55.929,6.849c0-0.086,0-0.173,0-0.259c0-1.178-1.827-1.178-1.827,0c0,1.323,0,2.647,0,3.97
						c0,1.178,1.827,1.178,1.827,0c0-1.323,0-2.647,0-3.97c0-1.178-1.827-1.178-1.827,0c0,0.086,0,0.173,0,0.259
						C54.103,8.027,55.929,8.027,55.929,6.849L55.929,6.849z"/>
				</g>
			</g>
			<g>
				<g>
					<path fill="#3D3D3D" d="M53.111,7.299c1.768-0.018,3.343-0.266,4.449,1.403c0.048-0.369,0.095-0.738,0.143-1.107
						c-1.406,1.368-2.815,2.67-4.577,3.568c-1.05,0.535-0.125,2.111,0.922,1.577c1.894-0.965,3.435-2.382,4.947-3.854
						c0.281-0.274,0.366-0.77,0.143-1.107c-0.667-1.007-1.456-1.726-2.607-2.124c-1.076-0.371-2.307-0.196-3.419-0.184
						C51.934,5.484,51.933,7.311,53.111,7.299L53.111,7.299z"/>
				</g>
			</g>
		</g>
		<g>
			<g>
				<g>
					<path fill="#3D3D3D" d="M28.338,5.695c0.001,1.411-0.105,3.266,0.958,4.359c0.822,0.846,2.113-0.447,1.292-1.292
						c-0.626-0.643-0.422-2.248-0.423-3.067C30.165,4.517,28.338,4.517,28.338,5.695L28.338,5.695z"/>
				</g>
			</g>
			<g>
				<g>
					<path fill="#3D3D3D" d="M27.424,6.575c0.824-0.123,1.633-0.251,2.404-0.342c0.336-0.039,0.674-0.07,1.012-0.087
						c0.127-0.006,0.253-0.007,0.38-0.006c0.081,0.001,0.5,0.05,0.189,0.002c0.086,0.013,0.348,0.113,0.047-0.016
						c0.078,0.033,0.152,0.125-0.067-0.065c-0.094-0.082-0.126-0.154-0.16-0.273c-0.035-0.118-0.035-0.236-0.002-0.353
						c-0.012,0.073-0.087,0.184,0.032-0.059c-0.024,0.049-0.055,0.093-0.085,0.138c0.138-0.204,0.006-0.013-0.027,0.026
						c-0.65,0.742-1.546,1.296-2.354,1.842c-0.97,0.655-0.057,2.239,0.922,1.577c0.968-0.654,2.062-1.328,2.817-2.236
						c0.554-0.667,0.747-1.634-0.118-2.155c-0.62-0.373-1.506-0.265-2.19-0.202c-1.099,0.102-2.192,0.285-3.283,0.449
						c-0.493,0.074-0.758,0.688-0.638,1.124C26.445,6.46,26.932,6.649,27.424,6.575L27.424,6.575z"/>
				</g>
			</g>
			<g>
				<g>
					<path fill="#3D3D3D" d="M31.599,9.481c0.936,0.197,1.916,0.389,2.797,0.776c0.205,0.09,0.417,0.202,0.557,0.341
						c-0.176-0.175,0.002-0.498-0.051-0.44c-0.367,0.408-1.078,0.611-1.579,0.794c-1.03,0.374-2.098,0.646-3.161,0.908
						c-1.143,0.281-0.658,2.043,0.486,1.761c1.402-0.345,2.818-0.711,4.143-1.297c0.709-0.314,1.59-0.758,1.833-1.564
						c0.652-2.163-3.25-2.77-4.538-3.04C30.935,7.478,30.446,9.239,31.599,9.481L31.599,9.481z"/>
				</g>
			</g>
		</g>
		<g>
			<g>
				<g>
					<path fill="#3D3D3D" d="M63.264,7.014c0.239,1.168,0.199,2.369,0.457,3.534c0.282,1.275,1.232,2.174,2.261,2.889
						c0.382,0.266,1.05,0.099,1.25-0.328c1.128-2.411,1.026-4.872,0.699-7.457c-0.146-1.152-1.974-1.167-1.827,0
						c0.278,2.202,0.521,4.459-0.45,6.535c0.417-0.109,0.833-0.218,1.25-0.328c-1.892-1.315-1.467-3.319-1.879-5.331
						C64.789,5.374,63.029,5.864,63.264,7.014L63.264,7.014z"/>
				</g>
			</g>
		</g>
		<g>
			<g>
				<g>
					<path fill="#3D3D3D" d="M42.816,6.351c0.017,1.846,0.175,3.761,0.607,5.56c0.275,1.145,2.036,0.659,1.761-0.486
						c-0.395-1.646-0.527-3.385-0.542-5.074C44.632,5.174,42.805,5.173,42.816,6.351L42.816,6.351z"/>
				</g>
			</g>
			<g>
				<g>
					<path fill="#3D3D3D" d="M41.57,6.985c1.442-0.017,2.869-0.259,4.309-0.28c1.177-0.017,1.179-1.843,0-1.827
						c-1.441,0.02-2.868,0.263-4.309,0.28C40.393,5.172,40.392,6.998,41.57,6.985L41.57,6.985z"/>
				</g>
			</g>
			<g>
				<g>
					<path fill="#3D3D3D" d="M42.675,13.389c1.546-0.317,3.052-0.771,4.641-0.807c1.176-0.026,1.179-1.853,0-1.827
						c-1.754,0.039-3.42,0.522-5.127,0.872C41.036,11.864,41.525,13.624,42.675,13.389L42.675,13.389z"/>
				</g>
			</g>
		</g>
	</g>
	<g>
		<g>
			<path fill="#3D3D3D" d="M93.549,9.888c1.178,0,1.178-1.827,0-1.827S92.371,9.888,93.549,9.888L93.549,9.888z"/>
		</g>
	</g>
	<g>
		<g>
			<path fill="#3D3D3D" d="M93.549,13.788c1.178,0,1.178-1.827,0-1.827S92.371,13.788,93.549,13.788L93.549,13.788z"/>
		</g>
	</g>
</g>
<g>
	<g>
		<g>
			<g>
				<path fill="#3D3D3D" d="M28.461,43.467c-1.214,0.439-2.385-0.249-3.556,0.707c-1.699,1.387-1.521,2.749-0.419,4.472
					c1.747,2.734,5.361,1.596,8.03,1.877c1.187,0.125,1.174-1.727,0-1.851c-1.809-0.19-4.276,0.529-5.899-0.429
					c-1.163-0.687-1.672-2.666,0.126-2.898c0.748-0.097,1.475,0.173,2.21-0.093C30.067,44.849,29.586,43.06,28.461,43.467
					L28.461,43.467z"/>
			</g>
		</g>
	</g>
	<g>
		<g>
			<g>
				<path fill="#3D3D3D" d="M39.687,44.105c0.017,1.895,0.175,3.856,0.608,5.705c0.272,1.162,2.056,0.669,1.785-0.492
					c-0.396-1.693-0.526-3.478-0.542-5.213C41.527,42.912,39.676,42.911,39.687,44.105L39.687,44.105z"/>
			</g>
		</g>
		<g>
			<g>
				<path fill="#3D3D3D" d="M38.453,44.743c1.442-0.017,2.869-0.266,4.309-0.287c1.192-0.017,1.194-1.868,0-1.851
					c-1.441,0.021-2.867,0.27-4.309,0.287C37.26,42.907,37.259,44.758,38.453,44.743L38.453,44.743z"/>
			</g>
		</g>
		<g>
			<g>
				<path fill="#3D3D3D" d="M39.561,51.318c1.545-0.325,3.048-0.792,4.638-0.829c1.192-0.027,1.194-1.878,0-1.851
					c-1.758,0.04-3.422,0.536-5.13,0.895C37.901,49.779,38.397,51.563,39.561,51.318L39.561,51.318z"/>
			</g>
		</g>
	</g>
	<g>
		<g>
			<g>
				<path fill="#3D3D3D" d="M53.219,45.11c0.192,1.857,0.402,3.755,0.891,5.561c0.269,0.993,1.81,0.571,1.54-0.425
					c-0.453-1.671-0.657-3.418-0.834-5.136C54.712,44.096,53.114,44.086,53.219,45.11L53.219,45.11z"/>
			</g>
		</g>
		<g>
			<g>
				<path fill="#3D3D3D" d="M53.558,45.11c0.81-0.533,2.567-1.42,3.318-0.294c0.771,1.157-1.022,2.285-1.862,2.63
					c-0.939,0.386-0.528,1.932,0.425,1.54c1.927-0.792,3.882-2.522,2.92-4.786c-0.969-2.28-4.055-1.489-5.605-0.469
					C51.896,44.294,52.695,45.677,53.558,45.11L53.558,45.11z"/>
			</g>
		</g>
	</g>
	<g>
		<g>
			<g>
				<path fill="#3D3D3D" d="M87.272,42.74c-1.47-0.215-3.73-0.581-4.764,0.817c-1.057,1.43,0.696,3.218,1.656,4.114
					c0.871,0.813,2.183-0.493,1.309-1.309c-0.458-0.428-0.909-0.868-1.242-1.403c-0.096-0.154-0.13-0.235-0.175-0.403
					c0.006,0.021-0.036,0.065,0.004-0.002c-0.069,0.116,0.053,0,0.011,0.017c0.186-0.077,0.396-0.123,0.595-0.144
					c0.698-0.074,1.423-0.004,2.115,0.097c0.499,0.073,0.992-0.116,1.138-0.646C88.04,43.438,87.772,42.813,87.272,42.74
					L87.272,42.74z"/>
			</g>
		</g>
		<g>
			<g>
				<path fill="#3D3D3D" d="M84.02,47.483c0.295,0.427,0.622,0.911,0.787,1.374c0.033,0.092,0.056,0.186,0.078,0.281
					c-0.043-0.185,0,0.036,0,0.078c0.002,0.232,0.05-0.182-0.013,0.02c0.061-0.195,0.065-0.169,0.158-0.23
					c-0.175,0.117,0.187-0.053-0.035,0.009c-0.237,0.067,0.19-0.006-0.084,0.01c-0.248,0.014-0.408-0.018-0.628-0.062
					c-0.674-0.136-1.334-0.389-1.964-0.661c-0.463-0.2-0.989-0.142-1.266,0.332c-0.231,0.395-0.131,1.066,0.332,1.266
					c1.239,0.535,3.317,1.546,4.632,0.669c1.479-0.986,0.336-2.957-0.399-4.019C84.944,45.575,83.339,46.499,84.02,47.483
					L84.02,47.483z"/>
			</g>
		</g>
	</g>
	<g>
		<g>
			<g>
				<path fill="#3D3D3D" d="M108.031,44.584c0.239,1.2,0.199,2.431,0.457,3.628c0.28,1.298,1.229,2.218,2.267,2.959
					c0.382,0.272,1.07,0.099,1.266-0.332c1.129-2.479,1.027-5,0.701-7.65c-0.144-1.169-1.996-1.183-1.851,0
					c0.278,2.258,0.525,4.58-0.448,6.715c0.422-0.111,0.844-0.221,1.266-0.332c-1.896-1.353-1.467-3.44-1.873-5.48
					C109.583,42.922,107.799,43.419,108.031,44.584L108.031,44.584z"/>
			</g>
		</g>
	</g>
	<g>
		<g>
			<g>
				<path fill="#3D3D3D" d="M97.238,43.547c-0.017,1.236-0.119,2.472-0.159,3.707c-0.036,1.103-0.226,2.539,0.188,3.595
					c0.371,0.948,1.916,0.536,1.54-0.425c-0.395-1.008-0.155-2.44-0.12-3.495c0.037-1.127,0.133-2.255,0.149-3.383
					C98.85,42.517,97.253,42.518,97.238,43.547L97.238,43.547z"/>
			</g>
		</g>
		<g>
			<g>
				<path fill="#3D3D3D" d="M96.195,44.728c2.215-0.529,4.498-0.77,6.773-0.793c1.029-0.01,1.03-1.607,0-1.597
					c-2.411,0.024-4.85,0.29-7.197,0.85C94.768,43.427,95.193,44.967,96.195,44.728L96.195,44.728z"/>
			</g>
		</g>
	</g>
	<g>
		<g>
			<g>
				<g>
					<path fill="#3D3D3D" d="M66.852,44.726c0.192,1.857,0.402,3.755,0.891,5.561c0.269,0.993,1.81,0.571,1.54-0.425
						c-0.453-1.671-0.657-3.418-0.834-5.136C68.344,43.712,66.746,43.702,66.852,44.726L66.852,44.726z"/>
				</g>
			</g>
			<g>
				<g>
					<path fill="#3D3D3D" d="M67.191,44.726c0.81-0.533,2.567-1.42,3.318-0.294c0.771,1.157-1.022,2.285-1.862,2.63
						c-0.939,0.386-0.528,1.932,0.425,1.54c1.927-0.792,3.882-2.522,2.92-4.786c-0.969-2.28-4.055-1.489-5.605-0.469
						C65.528,43.91,66.327,45.293,67.191,44.726L67.191,44.726z"/>
				</g>
			</g>
		</g>
		<g>
			<g>
				<path fill="#3D3D3D" d="M69.316,48.878c1.24,0.455,2.036,1.712,2.925,2.619c0.836,0.854,2.144-0.456,1.309-1.309
					c-1.165-1.189-2.121-2.5-3.742-3.095C68.685,46.682,68.205,48.471,69.316,48.878L69.316,48.878z"/>
			</g>
		</g>
	</g>
	<g>
		<g>
			<g>
				<path fill="#3D3D3D" d="M11.726,47.95c0.32-1.339,0.31-2.644,1.959-2.693c-0.299-0.228-0.599-0.456-0.898-0.684
					c0.575,1.983,2.288,3.347,2.857,5.307c0.334,1.151,2.132,0.661,1.796-0.495c-0.575-1.983-2.288-3.347-2.857-5.307
					c-0.113-0.39-0.482-0.696-0.898-0.684c-1.07,0.032-2.116,0.275-2.778,1.183c-0.607,0.831-0.744,1.902-0.977,2.878
					C9.65,48.622,11.446,49.118,11.726,47.95L11.726,47.95z"/>
			</g>
		</g>
		<g>
			<g>
				<path fill="#3D3D3D" d="M9.17,48.118c3.054-0.861,6.098-1.381,9.276-1.414c1.201-0.013,1.202-1.876,0-1.863
					c-3.341,0.035-6.558,0.575-9.771,1.481C7.521,46.647,8.012,48.444,9.17,48.118L9.17,48.118z"/>
			</g>
		</g>
	</g>
	<g>
		<g>
			<g>
				<path fill="#3D3D3D" d="M10.558,34.72c1.341-1.046,2.673-2.104,4.075-3.067c0.854-0.587,0.046-1.99-0.816-1.397
					c-1.515,1.042-2.953,2.19-4.402,3.32C8.592,34.217,9.746,35.353,10.558,34.72L10.558,34.72z"/>
			</g>
		</g>
		<g>
			<g>
				<path fill="#3D3D3D" d="M13.279,31.088c0.081,2.367,0.044,4.733-0.001,7.1c-0.02,1.044,1.598,1.042,1.618,0
					c0.045-2.367,0.082-4.733,0.001-7.1C14.861,30.047,13.243,30.044,13.279,31.088L13.279,31.088z"/>
			</g>
		</g>
		<g>
			<g>
				<path fill="#3D3D3D" d="M11.789,39.361c1.443,0.018,2.879-0.073,4.316-0.189c1.032-0.083,1.041-1.702,0-1.618
					c-1.437,0.116-2.873,0.207-4.316,0.189C10.745,37.73,10.747,39.348,11.789,39.361L11.789,39.361z"/>
			</g>
		</g>
	</g>
	<g>
		<g>
			<g>
				<path fill="#3D3D3D" d="M24.558,34.72c1.341-1.046,2.673-2.104,4.075-3.067c0.854-0.587,0.046-1.99-0.816-1.397
					c-1.515,1.042-2.953,2.19-4.402,3.32C22.592,34.217,23.746,35.353,24.558,34.72L24.558,34.72z"/>
			</g>
		</g>
		<g>
			<g>
				<path fill="#3D3D3D" d="M27.279,31.088c0.081,2.367,0.044,4.733-0.001,7.1c-0.02,1.044,1.598,1.042,1.618,0
					c0.045-2.367,0.082-4.733,0.001-7.1C28.861,30.047,27.243,30.044,27.279,31.088L27.279,31.088z"/>
			</g>
		</g>
		<g>
			<g>
				<path fill="#3D3D3D" d="M25.789,39.361c1.443,0.018,2.879-0.073,4.316-0.189c1.032-0.083,1.041-1.702,0-1.618
					c-1.437,0.116-2.873,0.207-4.316,0.189C24.745,37.73,24.747,39.348,25.789,39.361L25.789,39.361z"/>
			</g>
		</g>
	</g>
	<g>
		<g>
			<g>
				<path fill="#3D3D3D" d="M37.987,34.72c1.341-1.046,2.673-2.104,4.075-3.067c0.854-0.587,0.046-1.99-0.816-1.397
					c-1.515,1.042-2.953,2.19-4.402,3.32C36.021,34.217,37.175,35.353,37.987,34.72L37.987,34.72z"/>
			</g>
		</g>
		<g>
			<g>
				<path fill="#3D3D3D" d="M40.707,31.088c0.081,2.367,0.044,4.733-0.001,7.1c-0.02,1.044,1.598,1.042,1.618,0
					c0.045-2.367,0.082-4.733,0.001-7.1C42.289,30.047,40.672,30.044,40.707,31.088L40.707,31.088z"/>
			</g>
		</g>
		<g>
			<g>
				<path fill="#3D3D3D" d="M39.218,39.361c1.443,0.018,2.879-0.073,4.316-0.189c1.032-0.083,1.041-1.702,0-1.618
					c-1.437,0.116-2.873,0.207-4.316,0.189C38.174,37.73,38.175,39.348,39.218,39.361L39.218,39.361z"/>
			</g>
		</g>
	</g>
	<g>
		<g>
			<g>
				<path fill="#3D3D3D" d="M51.701,34.72c1.341-1.046,2.673-2.104,4.075-3.067c0.854-0.587,0.046-1.99-0.816-1.397
					c-1.515,1.042-2.953,2.19-4.402,3.32C49.735,34.217,50.889,35.353,51.701,34.72L51.701,34.72z"/>
			</g>
		</g>
		<g>
			<g>
				<path fill="#3D3D3D" d="M54.422,31.088c0.081,2.367,0.044,4.733-0.001,7.1c-0.02,1.044,1.598,1.042,1.618,0
					c0.045-2.367,0.082-4.733,0.001-7.1C56.004,30.047,54.386,30.044,54.422,31.088L54.422,31.088z"/>
			</g>
		</g>
		<g>
			<g>
				<path fill="#3D3D3D" d="M52.932,39.361c1.443,0.018,2.879-0.073,4.316-0.189c1.032-0.083,1.041-1.702,0-1.618
					c-1.437,0.116-2.873,0.207-4.316,0.189C51.888,37.73,51.889,39.348,52.932,39.361L52.932,39.361z"/>
			</g>
		</g>
	</g>
	<g>
		<g>
			<g>
				<path fill="#3D3D3D" d="M65.415,34.72c1.341-1.046,2.673-2.104,4.075-3.067c0.854-0.587,0.046-1.99-0.816-1.397
					c-1.515,1.042-2.953,2.19-4.402,3.32C63.45,34.217,64.603,35.353,65.415,34.72L65.415,34.72z"/>
			</g>
		</g>
		<g>
			<g>
				<path fill="#3D3D3D" d="M68.136,31.088c0.081,2.367,0.044,4.733-0.001,7.1c-0.02,1.044,1.598,1.042,1.618,0
					c0.045-2.367,0.082-4.733,0.001-7.1C69.718,30.047,68.1,30.044,68.136,31.088L68.136,31.088z"/>
			</g>
		</g>
		<g>
			<g>
				<path fill="#3D3D3D" d="M66.646,39.361c1.443,0.018,2.879-0.073,4.316-0.189c1.032-0.083,1.041-1.702,0-1.618
					c-1.437,0.116-2.873,0.207-4.316,0.189C65.602,37.73,65.604,39.348,66.646,39.361L66.646,39.361z"/>
			</g>
		</g>
	</g>
	<g>
		<g>
			<g>
				<path fill="#3D3D3D" d="M79.13,34.72c1.341-1.046,2.673-2.104,4.075-3.067c0.854-0.587,0.046-1.99-0.816-1.397
					c-1.515,1.042-2.953,2.19-4.402,3.32C77.164,34.217,78.318,35.353,79.13,34.72L79.13,34.72z"/>
			</g>
		</g>
		<g>
			<g>
				<path fill="#3D3D3D" d="M81.85,31.088c0.081,2.367,0.044,4.733-0.001,7.1c-0.02,1.044,1.598,1.042,1.618,0
					c0.045-2.367,0.082-4.733,0.001-7.1C83.432,30.047,81.814,30.044,81.85,31.088L81.85,31.088z"/>
			</g>
		</g>
		<g>
			<g>
				<path fill="#3D3D3D" d="M80.36,39.361c1.443,0.018,2.879-0.073,4.316-0.189c1.032-0.083,1.041-1.702,0-1.618
					c-1.437,0.116-2.873,0.207-4.316,0.189C79.317,37.73,79.318,39.348,80.36,39.361L80.36,39.361z"/>
			</g>
		</g>
	</g>
	<g>
		<g>
			<g>
				<path fill="#3D3D3D" d="M92.844,34.72c1.341-1.046,2.673-2.104,4.075-3.067c0.854-0.587,0.046-1.99-0.816-1.397
					c-1.515,1.042-2.953,2.19-4.402,3.32C90.878,34.217,92.032,35.353,92.844,34.72L92.844,34.72z"/>
			</g>
		</g>
		<g>
			<g>
				<path fill="#3D3D3D" d="M95.565,31.088c0.081,2.367,0.044,4.733-0.001,7.1c-0.02,1.044,1.598,1.042,1.618,0
					c0.045-2.367,0.082-4.733,0.001-7.1C97.146,30.047,95.529,30.044,95.565,31.088L95.565,31.088z"/>
			</g>
		</g>
		<g>
			<g>
				<path fill="#3D3D3D" d="M94.075,39.361c1.443,0.018,2.879-0.073,4.316-0.189c1.032-0.083,1.041-1.702,0-1.618
					c-1.437,0.116-2.873,0.207-4.316,0.189C93.031,37.73,93.032,39.348,94.075,39.361L94.075,39.361z"/>
			</g>
		</g>
	</g>
	<g>
		<g>
			<g>
				<path fill="#3D3D3D" d="M106.558,34.72c1.341-1.046,2.673-2.104,4.075-3.067c0.854-0.587,0.046-1.99-0.816-1.397
					c-1.515,1.042-2.953,2.19-4.402,3.32C104.592,34.217,105.746,35.353,106.558,34.72L106.558,34.72z"/>
			</g>
		</g>
		<g>
			<g>
				<path fill="#3D3D3D" d="M109.279,31.088c0.081,2.367,0.044,4.733-0.001,7.1c-0.02,1.044,1.598,1.042,1.618,0
					c0.045-2.367,0.082-4.733,0.001-7.1C110.861,30.047,109.243,30.044,109.279,31.088L109.279,31.088z"/>
			</g>
		</g>
		<g>
			<g>
				<path fill="#3D3D3D" d="M107.789,39.361c1.443,0.018,2.879-0.073,4.316-0.189c1.032-0.083,1.041-1.702,0-1.618
					c-1.437,0.116-2.873,0.207-4.316,0.189C106.745,37.73,106.747,39.348,107.789,39.361L107.789,39.361z"/>
			</g>
		</g>
	</g>
</g>
</svg>
