<?xml version="1.0" encoding="utf-8"?>
<!-- Generator: Adobe Illustrator 17.0.0, SVG Export Plug-In . SVG Version: 6.00 Build 0)  -->
<!DOCTYPE svg PUBLIC "-//W3C//DTD SVG 1.1//EN" "http://www.w3.org/Graphics/SVG/1.1/DTD/svg11.dtd" [
	<!ENTITY st0 "fill:#3D3D3D;">
]>
<svg version="1.1" id="Calque_1" xmlns="http://www.w3.org/2000/svg" xmlns:xlink="http://www.w3.org/1999/xlink" x="0px" y="0px"
	 width="120.73px" height="56.16px" viewBox="0 0 120.73 56.16" style="enable-background:new 0 0 120.73 56.16;"
	 xml:space="preserve">
<g>
	<g>
		<g>
			<g>
				<g>
					<path style="&st0;" d="M72.157,6.379c0,1.616,0,3.233,0,4.849c0,1.178,1.827,1.178,1.827,0c0-1.616,0-3.233,0-4.849
						C73.983,5.201,72.157,5.201,72.157,6.379L72.157,6.379z"/>
				</g>
			</g>
			<g>
				<g>
					<path style="&st0;" d="M73.07,12.834c1.185,0,2.371,0,3.556,0c1.178,0,1.178-1.827,0-1.827c-1.185,0-2.371,0-3.556,0
						C71.892,11.007,71.892,12.834,73.07,12.834L73.07,12.834z"/>
				</g>
			</g>
		</g>
		<g>
			<g>
				<g>
					<path style="&st0;" d="M82.306,5.906c-0.906,1.973-1.04,4.638-0.568,6.734c0.258,1.149,2.02,0.662,1.761-0.486
						c-0.355-1.578-0.303-3.829,0.384-5.326C84.371,5.765,82.797,4.836,82.306,5.906L82.306,5.906z"/>
				</g>
			</g>
			<g>
				<g>
					<path style="&st0;" d="M82.618,13.31c1.111,0,2.222,0,3.333,0c1.178,0,1.178-1.827,0-1.827c-1.111,0-2.222,0-3.333,0
						C81.44,11.483,81.44,13.31,82.618,13.31L82.618,13.31z"/>
				</g>
			</g>
			<g>
				<g>
					<path style="&st0;" d="M83.571,10.063c0.635,0,1.27,0,1.905,0c1.178,0,1.178-1.827,0-1.827c-0.635,0-1.27,0-1.905,0
						C82.393,8.236,82.393,10.063,83.571,10.063L83.571,10.063z"/>
				</g>
			</g>
			<g>
				<g>
					<path style="&st0;" d="M82.618,7.744c2.347-0.032,4.616-0.508,6.909-0.96c1.155-0.228,0.665-1.988-0.486-1.761
						c-2.135,0.421-4.238,0.865-6.424,0.895C81.441,5.933,81.44,7.76,82.618,7.744L82.618,7.744z"/>
				</g>
			</g>
		</g>
		<g>
			<g>
				<g>
					<path style="&st0;" d="M55.929,6.849c0-0.086,0-0.173,0-0.259c0-1.178-1.827-1.178-1.827,0c0,1.323,0,2.647,0,3.97
						c0,1.178,1.827,1.178,1.827,0c0-1.323,0-2.647,0-3.97c0-1.178-1.827-1.178-1.827,0c0,0.086,0,0.173,0,0.259
						C54.103,8.027,55.929,8.027,55.929,6.849L55.929,6.849z"/>
				</g>
			</g>
			<g>
				<g>
					<path style="&st0;" d="M53.111,7.299c1.768-0.018,3.343-0.266,4.449,1.403c0.048-0.369,0.095-0.738,0.143-1.107
						c-1.406,1.368-2.815,2.67-4.577,3.568c-1.05,0.535-0.125,2.111,0.922,1.577c1.894-0.965,3.435-2.382,4.947-3.854
						c0.281-0.274,0.366-0.77,0.143-1.107c-0.667-1.007-1.456-1.726-2.607-2.124c-1.076-0.371-2.307-0.196-3.419-0.184
						C51.934,5.484,51.933,7.311,53.111,7.299L53.111,7.299z"/>
				</g>
			</g>
		</g>
		<g>
			<g>
				<g>
					<path style="&st0;" d="M28.338,5.695c0.001,1.411-0.105,3.266,0.958,4.359c0.822,0.846,2.113-0.447,1.292-1.292
						c-0.626-0.643-0.422-2.248-0.423-3.067C30.165,4.517,28.338,4.517,28.338,5.695L28.338,5.695z"/>
				</g>
			</g>
			<g>
				<g>
					<path style="&st0;" d="M27.424,6.575c0.824-0.123,1.633-0.251,2.404-0.342c0.336-0.039,0.674-0.07,1.012-0.087
						c0.127-0.006,0.253-0.007,0.38-0.006c0.081,0.001,0.5,0.05,0.189,0.002c0.086,0.013,0.348,0.113,0.047-0.016
						c0.078,0.033,0.152,0.125-0.067-0.065c-0.094-0.082-0.126-0.154-0.16-0.273c-0.035-0.118-0.035-0.236-0.002-0.353
						c-0.012,0.073-0.087,0.184,0.032-0.059c-0.024,0.049-0.055,0.093-0.085,0.138c0.138-0.204,0.006-0.013-0.027,0.026
						c-0.65,0.742-1.546,1.296-2.354,1.842c-0.97,0.655-0.057,2.239,0.922,1.577c0.968-0.654,2.062-1.328,2.817-2.236
						c0.554-0.667,0.747-1.634-0.118-2.155c-0.62-0.373-1.506-0.265-2.19-0.202c-1.099,0.102-2.192,0.285-3.283,0.449
						c-0.493,0.074-0.758,0.688-0.638,1.124C26.445,6.46,26.932,6.649,27.424,6.575L27.424,6.575z"/>
				</g>
			</g>
			<g>
				<g>
					<path style="&st0;" d="M31.599,9.481c0.936,0.197,1.916,0.389,2.797,0.776c0.205,0.09,0.417,0.202,0.557,0.341
						c-0.176-0.175,0.002-0.498-0.051-0.44c-0.367,0.408-1.078,0.611-1.579,0.794c-1.03,0.374-2.098,0.646-3.161,0.908
						c-1.143,0.281-0.658,2.043,0.486,1.761c1.402-0.345,2.818-0.711,4.143-1.297c0.709-0.314,1.59-0.758,1.833-1.564
						c0.652-2.163-3.25-2.77-4.538-3.04C30.935,7.478,30.446,9.239,31.599,9.481L31.599,9.481z"/>
				</g>
			</g>
		</g>
		<g>
			<g>
				<g>
					<path style="&st0;" d="M63.264,7.014c0.239,1.168,0.199,2.369,0.457,3.534c0.282,1.275,1.232,2.174,2.261,2.889
						c0.382,0.266,1.05,0.099,1.25-0.328c1.128-2.411,1.026-4.872,0.699-7.457c-0.146-1.152-1.974-1.167-1.827,0
						c0.278,2.202,0.521,4.459-0.45,6.535c0.417-0.109,0.833-0.218,1.25-0.328c-1.892-1.315-1.467-3.319-1.879-5.331
						C64.789,5.374,63.029,5.864,63.264,7.014L63.264,7.014z"/>
				</g>
			</g>
		</g>
		<g>
			<g>
				<g>
					<path style="&st0;" d="M42.816,6.351c0.017,1.846,0.175,3.761,0.607,5.56c0.275,1.145,2.036,0.659,1.761-0.486
						c-0.395-1.646-0.527-3.385-0.542-5.074C44.632,5.174,42.805,5.173,42.816,6.351L42.816,6.351z"/>
				</g>
			</g>
			<g>
				<g>
					<path style="&st0;" d="M41.57,6.985c1.442-0.017,2.869-0.259,4.309-0.28c1.177-0.017,1.179-1.843,0-1.827
						c-1.441,0.02-2.868,0.263-4.309,0.28C40.393,5.172,40.392,6.998,41.57,6.985L41.57,6.985z"/>
				</g>
			</g>
			<g>
				<g>
					<path style="&st0;" d="M42.675,13.389c1.546-0.317,3.052-0.771,4.641-0.807c1.176-0.026,1.179-1.853,0-1.827
						c-1.754,0.039-3.42,0.522-5.127,0.872C41.036,11.864,41.525,13.624,42.675,13.389L42.675,13.389z"/>
				</g>
			</g>
		</g>
	</g>
	<g>
		<g>
			<path style="&st0;" d="M93.549,9.888c1.178,0,1.178-1.827,0-1.827S92.371,9.888,93.549,9.888L93.549,9.888z"/>
		</g>
	</g>
	<g>
		<g>
			<path style="&st0;" d="M93.549,13.788c1.178,0,1.178-1.827,0-1.827S92.371,13.788,93.549,13.788L93.549,13.788z"/>
		</g>
	</g>
</g>
<g>
	<g>
		<g>
			<g>
				<path style="&st0;" d="M15.001,37.344c1.205-0.94,2.402-1.891,3.663-2.757c0.767-0.527,0.041-1.788-0.734-1.256
					c-1.362,0.936-2.654,1.968-3.957,2.984C13.234,36.891,14.271,37.913,15.001,37.344L15.001,37.344z"/>
			</g>
		</g>
		<g>
			<g>
				<path style="&st0;" d="M17.446,34.079c0.073,2.127,0.04,4.254-0.001,6.381c-0.018,0.938,1.436,0.936,1.454,0
					c0.04-2.127,0.074-4.254,0.001-6.381C18.868,33.144,17.414,33.141,17.446,34.079L17.446,34.079z"/>
			</g>
		</g>
		<g>
			<g>
				<path style="&st0;" d="M16.107,41.515c1.297,0.016,2.587-0.065,3.879-0.169c0.928-0.075,0.935-1.529,0-1.454
					c-1.292,0.104-2.583,0.186-3.879,0.169C15.169,40.049,15.171,41.503,16.107,41.515L16.107,41.515z"/>
			</g>
		</g>
	</g>
	<g>
		<g>
			<g>
				<path style="&st0;" d="M36.728,37.344c1.205-0.94,2.402-1.891,3.663-2.757c0.767-0.527,0.041-1.788-0.734-1.256
					c-1.362,0.936-2.654,1.968-3.957,2.984C34.961,36.891,35.998,37.913,36.728,37.344L36.728,37.344z"/>
			</g>
		</g>
		<g>
			<g>
				<path style="&st0;" d="M39.173,34.079c0.073,2.127,0.04,4.254-0.001,6.381c-0.018,0.938,1.436,0.936,1.454,0
					c0.04-2.127,0.074-4.254,0.001-6.381C40.595,33.144,39.141,33.141,39.173,34.079L39.173,34.079z"/>
			</g>
		</g>
		<g>
			<g>
				<path style="&st0;" d="M37.834,41.515c1.297,0.016,2.587-0.065,3.879-0.169c0.928-0.075,0.935-1.529,0-1.454
					c-1.292,0.104-2.583,0.186-3.879,0.169C36.896,40.049,36.897,41.503,37.834,41.515L37.834,41.515z"/>
			</g>
		</g>
	</g>
	<g>
		<g>
			<g>
				<path style="&st0;" d="M47.789,37.344c1.205-0.94,2.402-1.891,3.663-2.757c0.767-0.527,0.041-1.788-0.734-1.256
					c-1.362,0.936-2.654,1.968-3.957,2.984C46.022,36.891,47.059,37.913,47.789,37.344L47.789,37.344z"/>
			</g>
		</g>
		<g>
			<g>
				<path style="&st0;" d="M50.235,34.079c0.073,2.127,0.04,4.254-0.001,6.381c-0.018,0.938,1.436,0.936,1.454,0
					c0.04-2.127,0.074-4.254,0.001-6.381C51.657,33.144,50.202,33.141,50.235,34.079L50.235,34.079z"/>
			</g>
		</g>
		<g>
			<g>
				<path style="&st0;" d="M48.896,41.515c1.297,0.016,2.587-0.065,3.879-0.169c0.928-0.075,0.935-1.529,0-1.454
					c-1.292,0.104-2.583,0.186-3.879,0.169C47.958,40.049,47.959,41.503,48.896,41.515L48.896,41.515z"/>
			</g>
		</g>
	</g>
	<g>
		<g>
			<g>
				<path style="&st0;" d="M80.182,36.982c1.205-0.94,2.402-1.891,3.663-2.757c0.767-0.527,0.041-1.788-0.734-1.256
					c-1.362,0.936-2.654,1.968-3.957,2.984C78.415,36.53,79.452,37.551,80.182,36.982L80.182,36.982z"/>
			</g>
		</g>
		<g>
			<g>
				<path style="&st0;" d="M82.627,33.717c0.073,2.127,0.04,4.254-0.001,6.381c-0.018,0.938,1.436,0.936,1.454,0
					c0.04-2.127,0.074-4.254,0.001-6.381C84.049,32.782,82.595,32.779,82.627,33.717L82.627,33.717z"/>
			</g>
		</g>
		<g>
			<g>
				<path style="&st0;" d="M81.288,41.153c1.297,0.016,2.587-0.065,3.879-0.169c0.928-0.075,0.935-1.529,0-1.454
					c-1.292,0.104-2.583,0.186-3.879,0.169C80.35,39.687,80.351,41.141,81.288,41.153L81.288,41.153z"/>
			</g>
		</g>
	</g>
	<g>
		<g>
			<g>
				<path style="&st0;" d="M91.243,36.982c1.205-0.94,2.402-1.891,3.663-2.757c0.767-0.527,0.041-1.788-0.734-1.256
					c-1.362,0.936-2.654,1.968-3.957,2.984C89.476,36.53,90.513,37.551,91.243,36.982L91.243,36.982z"/>
			</g>
		</g>
		<g>
			<g>
				<path style="&st0;" d="M93.689,33.717c0.073,2.127,0.04,4.254-0.001,6.381c-0.018,0.938,1.436,0.936,1.454,0
					c0.04-2.127,0.074-4.254,0.001-6.381C95.111,32.782,93.656,32.779,93.689,33.717L93.689,33.717z"/>
			</g>
		</g>
		<g>
			<g>
				<path style="&st0;" d="M92.35,41.153c1.297,0.016,2.587-0.065,3.879-0.169c0.928-0.075,0.935-1.529,0-1.454
					c-1.292,0.104-2.583,0.186-3.879,0.169C91.411,39.687,91.413,41.141,92.35,41.153L92.35,41.153z"/>
			</g>
		</g>
	</g>
	<g>
		<g>
			<g>
				<path style="&st0;" d="M102.305,36.982c1.205-0.94,2.402-1.891,3.663-2.757c0.767-0.527,0.041-1.788-0.734-1.256
					c-1.362,0.936-2.654,1.968-3.957,2.984C100.538,36.53,101.575,37.551,102.305,36.982L102.305,36.982z"/>
			</g>
		</g>
		<g>
			<g>
				<path style="&st0;" d="M104.75,33.717c0.073,2.127,0.04,4.254-0.001,6.381c-0.018,0.938,1.436,0.936,1.454,0
					c0.04-2.127,0.074-4.254,0.001-6.381C106.172,32.782,104.718,32.779,104.75,33.717L104.75,33.717z"/>
			</g>
		</g>
		<g>
			<g>
				<path style="&st0;" d="M103.411,41.153c1.297,0.016,2.587-0.065,3.879-0.169c0.928-0.075,0.935-1.529,0-1.454
					c-1.292,0.104-2.583,0.186-3.879,0.169C102.473,39.687,102.474,41.141,103.411,41.153L103.411,41.153z"/>
			</g>
		</g>
	</g>
	<g>
		<g>
			<g>
				<path style="&st0;" d="M113.366,36.982c1.205-0.94,2.402-1.891,3.663-2.757c0.767-0.527,0.041-1.788-0.734-1.256
					c-1.362,0.936-2.654,1.968-3.957,2.984C111.599,36.53,112.636,37.551,113.366,36.982L113.366,36.982z"/>
			</g>
		</g>
		<g>
			<g>
				<path style="&st0;" d="M115.811,33.717c0.073,2.127,0.04,4.254-0.001,6.381c-0.018,0.938,1.436,0.936,1.454,0
					c0.04-2.127,0.074-4.254,0.001-6.381C117.233,32.782,115.779,32.779,115.811,33.717L115.811,33.717z"/>
			</g>
		</g>
		<g>
			<g>
				<path style="&st0;" d="M114.472,41.153c1.297,0.016,2.587-0.065,3.879-0.169c0.928-0.075,0.935-1.529,0-1.454
					c-1.292,0.104-2.583,0.186-3.879,0.169C113.534,39.687,113.535,41.141,114.472,41.153L114.472,41.153z"/>
			</g>
		</g>
	</g>
	<g>
		<g>
			<g>
				<path style="&st0;" d="M4.718,36.893c-0.268-1.299,0.186-2.606,1.579-2.55c0.405,0.016,0.8,0.241,0.997,0.597
					c0.266,0.481-0.088,1.233-0.391,1.725c-0.493,0.801,0.765,1.53,1.255,0.734c0.597-0.969,0.884-2.04,0.427-3.119
					c-0.368-0.868-1.33-1.286-2.204-1.385c-0.883-0.1-1.823,0.291-2.416,0.939c-0.859,0.939-0.893,2.264-0.65,3.445
					C3.505,38.198,4.907,37.808,4.718,36.893L4.718,36.893z"/>
			</g>
		</g>
		<g>
			<g>
				<path style="&st0;" d="M7.019,36.396c-1.153,1.381-2.231,2.822-3.351,4.229c-0.577,0.726,0.445,1.762,1.028,1.028
					c1.12-1.408,2.198-2.848,3.351-4.229C8.644,36.709,7.621,35.675,7.019,36.396L7.019,36.396z"/>
			</g>
		</g>
		<g>
			<g>
				<path style="&st0;" d="M3.821,41.736c1.796-0.112,3.566-0.42,5.297-0.908c0.901-0.254,0.518-1.657-0.387-1.402
					c-1.609,0.453-3.242,0.751-4.911,0.856C2.89,40.341,2.885,41.795,3.821,41.736L3.821,41.736z"/>
			</g>
		</g>
	</g>
	<g>
		<g>
			<g>
				<path style="&st0;" d="M26.445,36.893c-0.268-1.299,0.186-2.606,1.579-2.55c0.405,0.016,0.8,0.241,0.997,0.597
					c0.266,0.481-0.088,1.233-0.391,1.725c-0.493,0.801,0.765,1.53,1.256,0.734c0.597-0.969,0.884-2.04,0.427-3.119
					c-0.368-0.868-1.33-1.286-2.204-1.385c-0.883-0.1-1.823,0.291-2.416,0.939c-0.859,0.939-0.893,2.264-0.65,3.445
					C25.232,38.198,26.634,37.808,26.445,36.893L26.445,36.893z"/>
			</g>
		</g>
		<g>
			<g>
				<path style="&st0;" d="M28.746,36.396c-1.153,1.381-2.231,2.822-3.351,4.229c-0.577,0.726,0.445,1.762,1.028,1.028
					c1.12-1.408,2.198-2.848,3.351-4.229C30.371,36.709,29.348,35.675,28.746,36.396L28.746,36.396z"/>
			</g>
		</g>
		<g>
			<g>
				<path style="&st0;" d="M25.548,41.736c1.796-0.112,3.566-0.42,5.297-0.908c0.901-0.254,0.518-1.657-0.387-1.402
					c-1.609,0.453-3.242,0.751-4.911,0.856C24.617,40.341,24.612,41.795,25.548,41.736L25.548,41.736z"/>
			</g>
		</g>
	</g>
	<g>
		<g>
			<g>
				<path style="&st0;" d="M59.234,36.893c-0.268-1.299,0.186-2.606,1.579-2.55c0.405,0.016,0.8,0.241,0.997,0.597
					c0.266,0.481-0.088,1.233-0.391,1.725c-0.493,0.801,0.765,1.53,1.255,0.734c0.597-0.969,0.884-2.04,0.427-3.119
					c-0.368-0.868-1.33-1.286-2.204-1.385c-0.883-0.1-1.823,0.291-2.416,0.939c-0.859,0.939-0.893,2.264-0.65,3.445
					C58.021,38.198,59.422,37.808,59.234,36.893L59.234,36.893z"/>
			</g>
		</g>
		<g>
			<g>
				<path style="&st0;" d="M61.534,36.396c-1.153,1.381-2.231,2.822-3.351,4.229c-0.577,0.726,0.445,1.762,1.028,1.028
					c1.12-1.408,2.198-2.848,3.351-4.229C63.159,36.709,62.136,35.675,61.534,36.396L61.534,36.396z"/>
			</g>
		</g>
		<g>
			<g>
				<path style="&st0;" d="M58.337,41.736c1.796-0.112,3.566-0.42,5.297-0.908c0.901-0.254,0.518-1.657-0.387-1.402
					c-1.609,0.453-3.242,0.751-4.911,0.856C57.405,40.341,57.4,41.795,58.337,41.736L58.337,41.736z"/>
			</g>
		</g>
	</g>
	<g>
		<g>
			<g>
				<path style="&st0;" d="M70.331,36.893c-0.268-1.299,0.186-2.606,1.579-2.55c0.405,0.016,0.8,0.241,0.997,0.597
					c0.266,0.481-0.088,1.233-0.391,1.725c-0.493,0.801,0.765,1.53,1.256,0.734c0.597-0.969,0.884-2.04,0.427-3.119
					c-0.368-0.868-1.33-1.286-2.204-1.385c-0.883-0.1-1.823,0.291-2.416,0.939c-0.859,0.939-0.893,2.264-0.65,3.445
					C69.118,38.198,70.52,37.808,70.331,36.893L70.331,36.893z"/>
			</g>
		</g>
		<g>
			<g>
				<path style="&st0;" d="M72.632,36.396c-1.153,1.381-2.231,2.822-3.351,4.229c-0.577,0.726,0.445,1.762,1.028,1.028
					c1.12-1.408,2.198-2.848,3.351-4.229C74.257,36.709,73.234,35.675,72.632,36.396L72.632,36.396z"/>
			</g>
		</g>
		<g>
			<g>
				<path style="&st0;" d="M69.434,41.736c1.796-0.112,3.566-0.42,5.297-0.908c0.901-0.254,0.518-1.657-0.387-1.402
					c-1.609,0.453-3.242,0.751-4.911,0.856C68.503,40.341,68.498,41.795,69.434,41.736L69.434,41.736z"/>
			</g>
		</g>
	</g>
	<g>
		<g>
			<g>
				<path style="&st0;" d="M62.032,45.811c0,1.491,0,2.983,0,4.474c0,1.073,1.664,1.073,1.664,0c0-1.491,0-2.983,0-4.474
					C63.696,44.739,62.032,44.739,62.032,45.811L62.032,45.811z"/>
			</g>
		</g>
		<g>
			<g>
				<path style="&st0;" d="M62.864,51.757c1.065,0,2.131,0,3.196,0c1.073,0,1.073-1.664,0-1.664c-1.065,0-2.131,0-3.196,0
					C61.791,50.093,61.791,51.757,62.864,51.757L62.864,51.757z"/>
			</g>
		</g>
	</g>
	<g>
		<g>
			<g>
				<path style="&st0;" d="M98.061,45.233c-1.321-0.193-3.353-0.522-4.282,0.735c-0.95,1.285,0.626,2.892,1.489,3.698
					c0.783,0.731,1.962-0.443,1.176-1.176c-0.412-0.384-0.817-0.78-1.116-1.261c-0.086-0.139-0.117-0.211-0.158-0.362
					c0.005,0.019-0.033,0.058,0.003-0.002c-0.062,0.104,0.048,0,0.01,0.015c0.167-0.069,0.356-0.11,0.535-0.129
					c0.628-0.067,1.279-0.003,1.901,0.087c0.448,0.065,0.892-0.104,1.023-0.581C98.751,45.86,98.51,45.298,98.061,45.233
					L98.061,45.233z"/>
			</g>
		</g>
		<g>
			<g>
				<path style="&st0;" d="M95.138,49.496c0.265,0.384,0.559,0.819,0.708,1.235c0.03,0.083,0.05,0.168,0.07,0.253
					c-0.039-0.167,0,0.033,0,0.07c0.002,0.209,0.045-0.164-0.012,0.018c0.054-0.175,0.059-0.152,0.142-0.207
					c-0.157,0.105,0.168-0.048-0.032,0.008c-0.213,0.06,0.171-0.005-0.076,0.009c-0.223,0.013-0.366-0.016-0.565-0.056
					c-0.606-0.122-1.199-0.349-1.765-0.594c-0.416-0.18-0.889-0.128-1.138,0.298c-0.208,0.355-0.118,0.958,0.298,1.138
					c1.114,0.481,2.981,1.389,4.164,0.601c1.329-0.886,0.302-2.658-0.358-3.613C95.968,47.781,94.525,48.612,95.138,49.496
					L95.138,49.496z"/>
			</g>
		</g>
	</g>
	<g>
		<g>
			<g>
				<path style="&st0;" d="M19.693,45.649c-1.091,0.395-2.144-0.224-3.196,0.635c-1.527,1.247-1.367,2.47-0.377,4.02
					c1.57,2.458,4.818,1.434,7.218,1.687c1.066,0.112,1.056-1.552,0-1.664c-1.626-0.171-3.843,0.476-5.302-0.386
					c-1.046-0.617-1.502-2.396,0.113-2.605c0.673-0.087,1.326,0.156,1.987-0.083C21.136,46.891,20.704,45.284,19.693,45.649
					L19.693,45.649z"/>
			</g>
		</g>
	</g>
	<g>
		<g>
			<g>
				<path style="&st0;" d="M113.563,46.831c0.215,1.079,0.179,2.185,0.411,3.261c0.251,1.167,1.104,1.994,2.037,2.659
					c0.343,0.245,0.962,0.089,1.138-0.298c1.015-2.228,0.923-4.494,0.63-6.875c-0.129-1.05-1.794-1.063-1.664,0
					c0.25,2.03,0.472,4.117-0.403,6.036c0.379-0.099,0.759-0.199,1.138-0.298c-1.704-1.216-1.318-3.092-1.684-4.926
					C114.958,45.338,113.354,45.784,113.563,46.831L113.563,46.831z"/>
			</g>
		</g>
	</g>
	<g>
		<g>
			<g>
				<path style="&st0;" d="M53.685,46.223c0.015,1.703,0.157,3.465,0.546,5.127c0.244,1.044,1.848,0.601,1.604-0.442
					c-0.356-1.522-0.473-3.126-0.487-4.685C55.339,45.151,53.675,45.15,53.685,46.223L53.685,46.223z"/>
			</g>
		</g>
		<g>
			<g>
				<path style="&st0;" d="M52.576,46.796c1.296-0.015,2.578-0.239,3.873-0.258c1.072-0.016,1.073-1.679,0-1.664
					c-1.295,0.019-2.577,0.243-3.873,0.258C51.504,45.146,51.503,46.809,52.576,46.796L52.576,46.796z"/>
			</g>
		</g>
		<g>
			<g>
				<path style="&st0;" d="M53.572,52.706c1.388-0.292,2.74-0.712,4.169-0.745c1.071-0.025,1.073-1.688,0-1.664
					c-1.58,0.036-3.076,0.482-4.611,0.804C52.08,51.323,52.525,52.926,53.572,52.706L53.572,52.706z"/>
			</g>
		</g>
	</g>
	<g>
		<g>
			<g>
				<path style="&st0;" d="M73.368,46.896c1.05,0.431,2.336,0.996,3.039,1.935c0.68,0.907-0.818,1.37-1.472,1.595
					c-1.195,0.411-2.564,0.092-2.898-1.257c-0.28-1.13,0.859-1.97,1.774-2.273c1.013-0.335,0.579-1.942-0.442-1.604
					c-1.787,0.591-3.306,2.119-2.967,4.136c0.323,1.919,2.42,3.262,4.3,2.798c1.639-0.404,3.979-1.39,3.503-3.477
					c-0.414-1.815-2.891-2.841-4.394-3.457C72.818,44.884,72.39,46.494,73.368,46.896z"/>
			</g>
		</g>
	</g>
	<g>
		<g>
			<g>
				<path style="&st0;" d="M104.092,45.804c-0.016,1.111-0.107,2.221-0.143,3.332c-0.032,0.991-0.203,2.282,0.169,3.231
					c0.334,0.852,1.722,0.481,1.384-0.382c-0.355-0.906-0.139-2.194-0.108-3.141c0.033-1.013,0.119-2.027,0.134-3.04
					C105.54,44.878,104.105,44.879,104.092,45.804L104.092,45.804z"/>
			</g>
		</g>
		<g>
			<g>
				<path style="&st0;" d="M103.154,46.865c1.991-0.475,4.042-0.692,6.087-0.713c0.925-0.009,0.926-1.445,0-1.435
					c-2.167,0.022-4.359,0.26-6.469,0.764C101.872,45.696,102.254,47.08,103.154,46.865L103.154,46.865z"/>
			</g>
		</g>
	</g>
	<g>
		<g>
			<g>
				<path style="&st0;" d="M28.349,45.817c-0.818,1.829-0.936,4.268-0.512,6.205c0.23,1.048,1.833,0.603,1.604-0.442
					c-0.32-1.46-0.277-3.533,0.344-4.923C30.219,45.687,28.786,44.84,28.349,45.817L28.349,45.817z"/>
			</g>
		</g>
		<g>
			<g>
				<path style="&st0;" d="M28.639,52.633c0.999,0,1.997,0,2.996,0c1.073,0,1.073-1.664,0-1.664c-0.999,0-1.997,0-2.996,0
					C27.566,50.969,27.566,52.633,28.639,52.633L28.639,52.633z"/>
			</g>
		</g>
		<g>
			<g>
				<path style="&st0;" d="M29.495,49.637c0.571,0,1.141,0,1.712,0c1.073,0,1.073-1.664,0-1.664c-0.571,0-1.141,0-1.712,0
					C28.422,47.973,28.422,49.637,29.495,49.637L29.495,49.637z"/>
			</g>
		</g>
		<g>
			<g>
				<path style="&st0;" d="M28.639,47.497c2.112-0.03,4.151-0.468,6.213-0.886c1.051-0.213,0.605-1.816-0.442-1.604
					c-1.918,0.388-3.805,0.798-5.771,0.826C27.567,45.849,27.565,47.512,28.639,47.497L28.639,47.497z"/>
			</g>
		</g>
	</g>
	<g>
		<g>
			<g>
				<g>
					<path style="&st0;" d="M82.633,46.781c0.172,1.669,0.361,3.375,0.801,4.998c0.242,0.892,1.627,0.513,1.384-0.382
						c-0.407-1.502-0.59-3.072-0.75-4.617C83.974,45.87,82.538,45.86,82.633,46.781L82.633,46.781z"/>
				</g>
			</g>
			<g>
				<g>
					<path style="&st0;" d="M82.938,46.78c0.728-0.479,2.307-1.276,2.982-0.264c0.693,1.04-0.918,2.053-1.674,2.364
						c-0.844,0.347-0.475,1.736,0.382,1.384c1.732-0.711,3.489-2.267,2.624-4.302c-0.871-2.049-3.645-1.338-5.038-0.422
						C81.443,46.047,82.162,47.291,82.938,46.78L82.938,46.78z"/>
				</g>
			</g>
		</g>
		<g>
			<g>
				<path style="&st0;" d="M84.848,50.513c1.114,0.409,1.83,1.539,2.629,2.354c0.752,0.767,1.927-0.41,1.176-1.176
					c-1.047-1.069-1.907-2.247-3.363-2.782C84.281,48.539,83.85,50.147,84.848,50.513L84.848,50.513z"/>
			</g>
		</g>
	</g>
	<g>
		<g>
			<g>
				<path style="&st0;" d="M4.898,49.678c0.288-1.204,0.278-2.376,1.761-2.421c-0.269-0.205-0.538-0.41-0.807-0.615
					c0.517,1.782,2.057,3.008,2.568,4.77c0.3,1.035,1.916,0.594,1.615-0.445c-0.517-1.782-2.057-3.008-2.568-4.77
					c-0.102-0.35-0.433-0.626-0.807-0.615c-0.961,0.029-1.902,0.248-2.497,1.063c-0.545,0.747-0.668,1.71-0.878,2.587
					C3.032,50.283,4.647,50.728,4.898,49.678L4.898,49.678z"/>
			</g>
		</g>
		<g>
			<g>
				<path style="&st0;" d="M2.601,49.829c2.745-0.774,5.481-1.241,8.337-1.271c1.079-0.011,1.08-1.686,0-1.674
					c-3.003,0.031-5.895,0.517-8.782,1.331C1.119,48.507,1.56,50.123,2.601,49.829L2.601,49.829z"/>
			</g>
		</g>
	</g>
	<g>
		<g>
			<g>
				<path style="&st0;" d="M46.105,44.658c-2.592,0.002-5.98,0.162-6.971,3.049c-0.954,2.778,1.319,4.405,3.779,4.81
					c1.049,0.173,1.499-1.43,0.442-1.604c-1.846-0.304-3.222-1.001-2.524-3.034c0.597-1.738,3.869-1.557,5.274-1.558
					C47.178,46.321,47.178,44.657,46.105,44.658L46.105,44.658z"/>
			</g>
		</g>
		<g>
			<g>
				<path style="&st0;" d="M42.714,52.433c1.033,0.457,2.127,0.601,3.042-0.177c0.838-0.713,0.821-2.029,0.579-2.995
					c-0.26-1.04-1.865-0.599-1.604,0.442c0.12,0.478,0.146,0.961-0.099,1.336c-0.127,0.194-0.671,0.137-1.078-0.043
					c-0.415-0.183-0.89-0.125-1.138,0.298C42.206,51.653,42.299,52.25,42.714,52.433L42.714,52.433z"/>
			</g>
		</g>
		<g>
			<g>
				<path style="&st0;" d="M42.654,49.867c1.551,0.001,3.058,0.08,4.577,0.417c1.045,0.232,1.489-1.372,0.442-1.604
					c-1.662-0.369-3.321-0.476-5.019-0.476C41.581,48.203,41.581,49.867,42.654,49.867L42.654,49.867z"/>
			</g>
		</g>
	</g>
</g>
</svg>
