<?xml version="1.0" encoding="utf-8"?>
<!-- Generator: Adobe Illustrator 17.0.0, SVG Export Plug-In . SVG Version: 6.00 Build 0)  -->
<!DOCTYPE svg PUBLIC "-//W3C//DTD SVG 1.1//EN" "http://www.w3.org/Graphics/SVG/1.1/DTD/svg11.dtd" [
	<!ENTITY st0 "fill:#3D3D3D;">
]>
<svg version="1.1" id="Calque_1" xmlns="http://www.w3.org/2000/svg" xmlns:xlink="http://www.w3.org/1999/xlink" x="0px" y="0px"
	 width="213.174px" height="76.571px" viewBox="-46.743 -18.75 213.174 76.571"
	 style="enable-background:new -46.743 -18.75 213.174 76.571;" xml:space="preserve">
<g>
	<g>
		<g>
			<g>
				<path style="&st0;" d="M85.991,10.179c-1.301,0.675-3.219,1.877-2.838,3.635c0.377,1.742,2.518,2.425,4.012,2.818
					c1.156,0.304,1.645-1.481,0.492-1.785c-0.859-0.226-2.135-0.5-2.657-1.309c-0.409-0.635,1.59-1.587,1.926-1.761
					C87.985,11.227,87.049,9.63,85.991,10.179L85.991,10.179z"/>
			</g>
		</g>
		<g>
			<g>
				<path style="&st0;" d="M85.982,12.38c0.963,0.114,2.394,0.214,3.148,0.918c0.099,0.093,0.026,0.124-0.107,0.335
					c-0.353,0.562-1.062,0.962-1.603,1.308c-1.002,0.641-0.075,2.243,0.934,1.598c1.267-0.81,3.261-2.201,2.488-3.97
					c-0.722-1.651-3.351-1.862-4.859-2.04C84.798,10.389,84.812,12.241,85.982,12.38L85.982,12.38z"/>
			</g>
		</g>
		<g>
			<g>
				<path style="&st0;" d="M86.689,14.728c1.24,0.455,2.036,1.712,2.925,2.619c0.836,0.854,2.144-0.456,1.309-1.309
					c-1.165-1.189-2.121-2.5-3.742-3.095C86.058,12.531,85.578,14.32,86.689,14.728L86.689,14.728z"/>
			</g>
		</g>
	</g>
	<g>
		<g>
			<g>
				<path style="&st0;" d="M55.423,10.459c0.001,1.45-0.108,3.329,0.961,4.466c0.82,0.871,2.126-0.441,1.309-1.309
					c-0.631-0.67-0.419-2.316-0.419-3.157C57.273,9.265,55.422,9.265,55.423,10.459L55.423,10.459z"/>
			</g>
		</g>
		<g>
			<g>
				<path style="&st0;" d="M54.524,11.351c0.816-0.125,1.66-0.262,2.401-0.351c0.336-0.04,0.674-0.072,1.012-0.089
					c0.127-0.006,0.253-0.008,0.38-0.006c0.083,0.001,0.502,0.053,0.186,0.003c0.09,0.014,0.346,0.118,0.044-0.015
					c0.08,0.035,0.147,0.128-0.07-0.065c-0.035-0.031-0.184-0.348-0.163-0.275c-0.035-0.119-0.036-0.237-0.002-0.356
					c-0.012,0.072-0.086,0.192,0.033-0.058c-0.024,0.05-0.055,0.096-0.085,0.142c-0.12,0.182,0.135-0.159-0.025,0.029
					c-0.647,0.758-1.542,1.331-2.352,1.893c-0.414,0.287-0.602,0.805-0.332,1.266c0.24,0.41,0.851,0.62,1.266,0.332
					c0.888-0.616,4.921-3.114,2.699-4.487c-0.617-0.381-1.513-0.27-2.196-0.205c-1.1,0.105-2.194,0.292-3.286,0.46
					c-0.499,0.077-0.768,0.695-0.646,1.138C53.531,11.233,54.026,11.428,54.524,11.351L54.524,11.351z"/>
			</g>
		</g>
		<g>
			<g>
				<path style="&st0;" d="M58.692,14.334c0.907,0.196,1.851,0.389,2.707,0.758c0.218,0.094,0.448,0.202,0.62,0.369
					c-0.16-0.154,0.038-0.488-0.038-0.403c-0.35,0.393-1.001,0.596-1.477,0.777c-1.055,0.402-2.157,0.688-3.25,0.965
					c-1.157,0.292-0.666,2.077,0.492,1.785c1.376-0.348,2.763-0.718,4.065-1.295c0.733-0.325,1.68-0.793,1.92-1.636
					c0.626-2.191-3.212-2.815-4.548-3.104C58.02,12.298,57.526,14.082,58.692,14.334L58.692,14.334z"/>
			</g>
		</g>
	</g>
	<g>
		<g>
			<g>
				<path style="&st0;" d="M92.478,11.639c0.239,1.2,0.199,2.431,0.457,3.628c0.28,1.298,1.229,2.218,2.267,2.959
					c0.382,0.272,1.07,0.099,1.266-0.332c1.129-2.479,1.027-5,0.701-7.65c-0.144-1.169-1.996-1.183-1.851,0
					c0.278,2.258,0.525,4.58-0.448,6.715c0.422-0.111,0.844-0.221,1.266-0.332c-1.896-1.353-1.467-3.44-1.873-5.48
					C94.03,9.977,92.246,10.474,92.478,11.639L92.478,11.639z"/>
			</g>
		</g>
	</g>
	<g>
		<g>
			<g>
				<path style="&st0;" d="M76.418,10.962c0.017,1.895,0.175,3.856,0.608,5.705c0.272,1.162,2.056,0.669,1.785-0.492
					c-0.396-1.693-0.526-3.478-0.542-5.213C78.258,9.769,76.408,9.768,76.418,10.962L76.418,10.962z"/>
			</g>
		</g>
		<g>
			<g>
				<path style="&st0;" d="M75.185,11.6c1.442-0.017,2.869-0.266,4.309-0.287c1.192-0.017,1.194-1.868,0-1.851
					c-1.441,0.021-2.867,0.27-4.309,0.287C73.992,9.764,73.991,11.614,75.185,11.6L75.185,11.6z"/>
			</g>
		</g>
		<g>
			<g>
				<path style="&st0;" d="M76.293,18.175c1.545-0.325,3.048-0.792,4.638-0.829c1.192-0.027,1.194-1.878,0-1.851
					c-1.758,0.04-3.422,0.536-5.13,0.895C74.633,16.636,75.128,18.42,76.293,18.175L76.293,18.175z"/>
			</g>
		</g>
	</g>
	<g>
		<g>
			<g>
				<path style="&st0;" d="M99.478,10.511c-0.91,2.035-1.042,4.749-0.569,6.903c0.255,1.166,2.04,0.671,1.785-0.492
					c-0.356-1.625-0.309-3.931,0.383-5.477C101.559,10.365,99.964,9.423,99.478,10.511L99.478,10.511z"/>
			</g>
		</g>
		<g>
			<g>
				<path style="&st0;" d="M99.801,18.094c1.111,0,2.222,0,3.333,0c1.194,0,1.194-1.851,0-1.851c-1.111,0-2.222,0-3.333,0
					C98.607,16.243,98.607,18.094,99.801,18.094L99.801,18.094z"/>
			</g>
		</g>
		<g>
			<g>
				<path style="&st0;" d="M100.753,14.761c0.635,0,1.27,0,1.905,0c1.194,0,1.194-1.851,0-1.851c-0.635,0-1.27,0-1.905,0
					C99.559,12.91,99.559,14.761,100.753,14.761L100.753,14.761z"/>
			</g>
		</g>
		<g>
			<g>
				<path style="&st0;" d="M99.801,12.38c2.35-0.033,4.618-0.521,6.912-0.985c1.169-0.237,0.673-2.021-0.492-1.785
					c-2.134,0.432-4.234,0.888-6.42,0.919C98.608,10.546,98.606,12.397,99.801,12.38L99.801,12.38z"/>
			</g>
		</g>
	</g>
	<g>
		<g>
			<g>
				<path style="&st0;" d="M32.797,11.552c1.85,0.001,3.726-0.032,5.54,0.382c1.003,0.229,1.428-1.311,0.425-1.54
					c-1.956-0.447-3.968-0.439-5.965-0.439C31.767,9.955,31.767,11.552,32.797,11.552L32.797,11.552z"/>
			</g>
		</g>
		<g>
			<g>
				<path style="&st0;" d="M33.259,10.952c-0.468,2.051-0.382,4.119,0,6.177c0.188,1.012,1.727,0.582,1.54-0.425
					c-0.328-1.768-0.402-3.566,0-5.328C35.028,10.374,33.488,9.948,33.259,10.952L33.259,10.952z"/>
			</g>
		</g>
		<g>
			<g>
				<path style="&st0;" d="M32.386,15.25c1.233,0,2.465,0,3.698,0c1.03,0,1.03-1.597,0-1.597c-1.233,0-2.465,0-3.698,0
					C31.356,13.653,31.356,15.25,32.386,15.25L32.386,15.25z"/>
			</g>
		</g>
	</g>
	<g>
		<g>
			<g>
				<g>
					<path style="&st0;" d="M109.634,11.583c0.192,1.857,0.402,3.755,0.891,5.561c0.269,0.993,1.81,0.571,1.54-0.425
						c-0.453-1.671-0.657-3.418-0.834-5.136C111.126,10.569,109.528,10.559,109.634,11.583L109.634,11.583z"/>
				</g>
			</g>
			<g>
				<g>
					<path style="&st0;" d="M109.973,11.582c0.81-0.533,2.567-1.42,3.318-0.294c0.771,1.157-1.022,2.285-1.862,2.63
						c-0.939,0.386-0.528,1.932,0.425,1.54c1.927-0.792,3.882-2.522,2.92-4.786c-0.969-2.28-4.055-1.489-5.605-0.469
						C108.31,10.767,109.109,12.15,109.973,11.582L109.973,11.582z"/>
				</g>
			</g>
		</g>
		<g>
			<g>
				<path style="&st0;" d="M112.098,15.735c1.24,0.455,2.036,1.712,2.925,2.619c0.836,0.854,2.144-0.456,1.309-1.309
					c-1.165-1.189-2.121-2.5-3.742-3.095C111.467,13.539,110.988,15.328,112.098,15.735L112.098,15.735z"/>
			</g>
		</g>
	</g>
	<g>
		<g>
			<g>
				<g>
					<path style="&st0;" d="M66.038,11.583c0.192,1.857,0.402,3.755,0.891,5.561c0.269,0.993,1.81,0.571,1.54-0.425
						c-0.453-1.671-0.657-3.418-0.834-5.136C67.531,10.569,65.932,10.559,66.038,11.583L66.038,11.583z"/>
				</g>
			</g>
			<g>
				<g>
					<path style="&st0;" d="M66.377,11.582c0.81-0.533,2.567-1.42,3.318-0.294c0.771,1.157-1.022,2.285-1.862,2.63
						c-0.939,0.386-0.528,1.932,0.425,1.54c1.927-0.792,3.882-2.522,2.92-4.786c-0.969-2.28-4.055-1.489-5.605-0.469
						C64.715,10.767,65.514,12.15,66.377,11.582L66.377,11.582z"/>
				</g>
			</g>
		</g>
		<g>
			<g>
				<path style="&st0;" d="M68.503,15.735c1.24,0.455,2.036,1.712,2.925,2.619c0.836,0.854,2.144-0.456,1.309-1.309
					c-1.165-1.189-2.121-2.5-3.742-3.095C67.872,13.539,67.392,15.328,68.503,15.735L68.503,15.735z"/>
			</g>
		</g>
	</g>
	<g>
		<g>
			<g>
				<path style="&st0;" d="M6.813,14.806c0.32-1.339,0.31-2.644,1.959-2.693c-0.299-0.228-0.599-0.456-0.898-0.684
					c0.575,1.983,2.288,3.347,2.857,5.307c0.334,1.151,2.132,0.661,1.796-0.495c-0.575-1.983-2.288-3.347-2.857-5.307
					c-0.113-0.39-0.482-0.696-0.898-0.684c-1.07,0.032-2.116,0.275-2.778,1.183c-0.607,0.831-0.744,1.902-0.977,2.878
					C4.737,15.479,6.533,15.975,6.813,14.806L6.813,14.806z"/>
			</g>
		</g>
		<g>
			<g>
				<path style="&st0;" d="M4.257,14.975c3.054-0.861,6.098-1.381,9.276-1.414c1.201-0.013,1.202-1.876,0-1.863
					c-3.341,0.035-6.558,0.575-9.771,1.481C2.608,13.504,3.099,15.301,4.257,14.975L4.257,14.975z"/>
			</g>
		</g>
	</g>
	<g>
		<g>
			<g>
				<path style="&st0;" d="M44.83,14.806c0.32-1.339,0.31-2.644,1.959-2.693c-0.299-0.228-0.599-0.456-0.898-0.684
					c0.575,1.983,2.288,3.347,2.857,5.307c0.334,1.151,2.132,0.661,1.796-0.495c-0.575-1.983-2.288-3.347-2.857-5.307
					c-0.113-0.39-0.482-0.696-0.898-0.684c-1.07,0.032-2.116,0.275-2.778,1.183c-0.607,0.831-0.744,1.902-0.977,2.878
					C42.754,15.479,44.551,15.975,44.83,14.806L44.83,14.806z"/>
			</g>
		</g>
		<g>
			<g>
				<path style="&st0;" d="M42.274,14.975c3.054-0.861,6.098-1.381,9.276-1.414c1.201-0.013,1.202-1.876,0-1.863
					c-3.341,0.035-6.558,0.575-9.771,1.481C40.625,13.504,41.116,15.301,42.274,14.975L42.274,14.975z"/>
			</g>
		</g>
	</g>
</g>
<g>
	<g>
		<g>
			<g>
				<g>
					<path style="&st0;" d="M69.714-4.473c0-0.089,0-0.177,0-0.266c0-1.194-1.851-1.194-1.851,0c0,1.359,0,2.717,0,4.076
						c0,1.194,1.851,1.194,1.851,0c0-1.359,0-2.717,0-4.076c0-1.194-1.851-1.194-1.851,0c0,0.089,0,0.177,0,0.266
						C67.863-3.28,69.714-3.28,69.714-4.473L69.714-4.473z"/>
				</g>
			</g>
			<g>
				<g>
					<path style="&st0;" d="M66.884-4.024c1.792-0.019,3.338-0.259,4.439,1.446c0.048-0.374,0.096-0.748,0.145-1.121
						c-1.401,1.4-2.805,2.739-4.574,3.665c-1.058,0.554-0.122,2.151,0.934,1.598c1.903-0.996,3.441-2.448,4.949-3.954
						c0.284-0.284,0.369-0.774,0.145-1.121c-0.663-1.028-1.453-1.763-2.615-2.175c-1.073-0.38-2.311-0.2-3.422-0.189
						C65.691-5.862,65.69-4.011,66.884-4.024L66.884-4.024z"/>
				</g>
			</g>
		</g>
		<g>
			<g>
				<g>
					<path style="&st0;" d="M75.673-4.316c0.239,1.2,0.199,2.431,0.457,3.628c0.28,1.298,1.229,2.218,2.267,2.959
						c0.382,0.272,1.07,0.099,1.266-0.332c1.129-2.479,1.027-5,0.701-7.65c-0.144-1.169-1.996-1.183-1.851,0
						c0.278,2.258,0.525,4.58-0.448,6.715c0.422-0.111,0.844-0.221,1.266-0.332c-1.896-1.353-1.467-3.44-1.873-5.48
						C77.224-5.978,75.441-5.482,75.673-4.316L75.673-4.316z"/>
				</g>
			</g>
		</g>
	</g>
	<g>
		<g>
			<g>
				<g>
					<path style="&st0;" d="M122.05-4.481c0-0.089,0-0.177,0-0.266c0-1.194-1.851-1.194-1.851,0c0,1.359,0,2.717,0,4.076
						c0,1.194,1.851,1.194,1.851,0c0-1.359,0-2.717,0-4.076c0-1.194-1.851-1.194-1.851,0c0,0.089,0,0.177,0,0.266
						C120.199-3.288,122.05-3.288,122.05-4.481L122.05-4.481z"/>
				</g>
			</g>
			<g>
				<g>
					<path style="&st0;" d="M119.22-4.032c1.792-0.019,3.338-0.259,4.439,1.446c0.048-0.374,0.096-0.748,0.145-1.121
						c-1.401,1.4-2.805,2.739-4.574,3.665c-1.058,0.554-0.122,2.151,0.934,1.598c1.903-0.996,3.441-2.448,4.949-3.954
						c0.284-0.284,0.369-0.774,0.145-1.121c-0.663-1.028-1.453-1.763-2.615-2.175c-1.073-0.38-2.311-0.2-3.422-0.189
						C118.027-5.87,118.026-4.02,119.22-4.032L119.22-4.032z"/>
				</g>
			</g>
		</g>
		<g>
			<g>
				<g>
					<path style="&st0;" d="M96.89-5.497c0.001,1.45-0.108,3.329,0.961,4.466c0.82,0.871,2.126-0.441,1.309-1.309
						c-0.631-0.67-0.419-2.316-0.419-3.157C98.74-6.69,96.89-6.69,96.89-5.497L96.89-5.497z"/>
				</g>
			</g>
			<g>
				<g>
					<path style="&st0;" d="M95.991-4.604c0.816-0.125,1.66-0.262,2.401-0.351c0.336-0.04,0.674-0.072,1.012-0.089
						c0.127-0.006,0.253-0.008,0.38-0.006c0.083,0.001,0.502,0.053,0.186,0.003c0.09,0.014,0.346,0.118,0.044-0.015
						c0.08,0.035,0.147,0.128-0.07-0.065c-0.035-0.031-0.184-0.348-0.163-0.275c-0.035-0.119-0.036-0.237-0.002-0.356
						c-0.012,0.072-0.086,0.192,0.033-0.058c-0.024,0.05-0.055,0.096-0.085,0.142c-0.12,0.182,0.135-0.159-0.025,0.029
						c-0.647,0.758-1.542,1.331-2.352,1.893c-0.414,0.287-0.602,0.805-0.332,1.266c0.24,0.41,0.851,0.62,1.266,0.332
						c0.888-0.616,4.921-3.114,2.699-4.487c-0.617-0.381-1.513-0.27-2.196-0.205c-1.1,0.105-2.194,0.292-3.286,0.46
						C95-6.312,94.731-5.694,94.853-5.251C94.998-4.722,95.493-4.528,95.991-4.604L95.991-4.604z"/>
				</g>
			</g>
			<g>
				<g>
					<path style="&st0;" d="M100.159-1.621c0.907,0.196,1.851,0.389,2.707,0.758c0.218,0.094,0.448,0.202,0.62,0.369
						c-0.16-0.154,0.038-0.488-0.038-0.403c-0.35,0.393-1.001,0.596-1.477,0.777c-1.055,0.402-2.157,0.688-3.25,0.965
						c-1.157,0.292-0.666,2.077,0.492,1.785c1.376-0.348,2.763-0.718,4.065-1.295c0.733-0.325,1.68-0.793,1.92-1.636
						c0.626-2.191-3.212-2.815-4.548-3.104C99.487-3.657,98.993-1.873,100.159-1.621L100.159-1.621z"/>
				</g>
			</g>
		</g>
		<g>
			<g>
				<g>
					<path style="&st0;" d="M128.133-4.316c0.239,1.2,0.199,2.431,0.457,3.628c0.28,1.298,1.229,2.218,2.267,2.959
						c0.382,0.272,1.07,0.099,1.266-0.332c1.129-2.479,1.027-5,0.701-7.65c-0.144-1.169-1.996-1.183-1.851,0
						c0.278,2.258,0.525,4.58-0.448,6.715c0.422-0.111,0.844-0.221,1.266-0.332c-1.896-1.353-1.467-3.44-1.873-5.48
						C129.685-5.978,127.901-5.482,128.133-4.316L128.133-4.316z"/>
				</g>
			</g>
		</g>
		<g>
			<g>
				<g>
					<path style="&st0;" d="M110.14-4.993c0.017,1.895,0.175,3.856,0.608,5.705c0.272,1.162,2.056,0.669,1.785-0.492
						c-0.396-1.693-0.526-3.478-0.542-5.213C111.98-6.186,110.129-6.187,110.14-4.993L110.14-4.993z"/>
				</g>
			</g>
			<g>
				<g>
					<path style="&st0;" d="M108.906-4.355c1.442-0.017,2.869-0.266,4.309-0.287c1.192-0.017,1.194-1.868,0-1.851
						c-1.441,0.021-2.867,0.27-4.309,0.287C107.713-6.192,107.712-4.341,108.906-4.355L108.906-4.355z"/>
				</g>
			</g>
			<g>
				<g>
					<path style="&st0;" d="M110.014,2.22c1.545-0.325,3.048-0.792,4.638-0.829c1.192-0.027,1.194-1.878,0-1.851
						c-1.758,0.04-3.422,0.536-5.13,0.895C108.354,0.681,108.85,2.465,110.014,2.22L110.014,2.22z"/>
				</g>
			</g>
		</g>
		<g>
			<g>
				<g>
					<path style="&st0;" d="M144.721-5.698c-0.91,2.035-1.042,4.749-0.569,6.903c0.255,1.166,2.04,0.671,1.785-0.492
						c-0.356-1.625-0.309-3.931,0.383-5.477C146.802-5.843,145.208-6.785,144.721-5.698L144.721-5.698z"/>
				</g>
			</g>
			<g>
				<g>
					<path style="&st0;" d="M145.044,1.885c1.111,0,2.222,0,3.333,0c1.194,0,1.194-1.851,0-1.851c-1.111,0-2.222,0-3.333,0
						C143.851,0.034,143.851,1.885,145.044,1.885L145.044,1.885z"/>
				</g>
			</g>
			<g>
				<g>
					<path style="&st0;" d="M145.996-1.448c0.635,0,1.27,0,1.905,0c1.194,0,1.194-1.851,0-1.851c-0.635,0-1.27,0-1.905,0
						C144.803-3.299,144.803-1.448,145.996-1.448L145.996-1.448z"/>
				</g>
			</g>
			<g>
				<g>
					<path style="&st0;" d="M145.044-3.829c2.35-0.033,4.618-0.521,6.912-0.985c1.169-0.237,0.673-2.021-0.492-1.785
						c-2.134,0.432-4.234,0.888-6.42,0.919C143.852-5.663,143.85-3.812,145.044-3.829L145.044-3.829z"/>
				</g>
			</g>
		</g>
		<g>
			<g>
				<g>
					<path style="&st0;" d="M135.798-4.965c0,1.659,0,3.319,0,4.978c0,1.194,1.851,1.194,1.851,0c0-1.659,0-3.319,0-4.978
						C137.649-6.158,135.798-6.158,135.798-4.965L135.798-4.965z"/>
				</g>
			</g>
			<g>
				<g>
					<path style="&st0;" d="M136.723,1.65c1.185,0,2.371,0,3.556,0c1.194,0,1.194-1.851,0-1.851c-1.185,0-2.371,0-3.556,0
						C135.53-0.201,135.53,1.65,136.723,1.65L136.723,1.65z"/>
				</g>
			</g>
		</g>
	</g>
	<g>
		<g>
			<g>
				<g>
					<path style="&st0;" d="M-26.603-5.995c-1.47-0.215-3.73-0.581-4.764,0.817c-1.057,1.43,0.696,3.218,1.656,4.114
						c0.871,0.813,2.183-0.493,1.309-1.309c-0.458-0.428-0.909-0.868-1.242-1.403c-0.096-0.154-0.13-0.235-0.175-0.403
						c0.006,0.021-0.036,0.065,0.004-0.002c-0.069,0.116,0.053,0,0.011,0.017c0.186-0.077,0.396-0.123,0.595-0.144
						c0.698-0.074,1.423-0.004,2.115,0.097c0.499,0.073,0.992-0.116,1.138-0.646C-25.835-5.297-26.103-5.922-26.603-5.995
						L-26.603-5.995z"/>
				</g>
			</g>
			<g>
				<g>
					<path style="&st0;" d="M-29.855-1.252c0.295,0.427,0.622,0.911,0.787,1.374c0.033,0.092,0.056,0.186,0.078,0.281
						c-0.043-0.185,0,0.036,0,0.078c0.002,0.232,0.05-0.182-0.013,0.02c0.06-0.195,0.065-0.169,0.158-0.23
						c-0.175,0.117,0.187-0.053-0.035,0.009c-0.237,0.067,0.19-0.006-0.084,0.01c-0.248,0.014-0.408-0.018-0.628-0.062
						c-0.674-0.136-1.334-0.389-1.964-0.661c-0.463-0.2-0.989-0.142-1.266,0.332c-0.231,0.395-0.131,1.066,0.332,1.266
						c1.239,0.535,3.317,1.546,4.632,0.669c1.479-0.986,0.336-2.957-0.399-4.019C-28.931-3.16-30.536-2.236-29.855-1.252
						L-29.855-1.252z"/>
				</g>
			</g>
		</g>
		<g>
			<g>
				<g>
					<path style="&st0;" d="M7.001-5.532C5.787-5.093,4.616-5.781,3.446-4.825C1.747-3.438,1.925-2.077,3.026-0.353
						c1.747,2.734,5.361,1.596,8.03,1.877c1.186,0.125,1.174-1.727,0-1.851c-1.809-0.19-4.276,0.529-5.899-0.429
						C3.994-1.443,3.486-3.423,5.283-3.655c0.748-0.097,1.475,0.173,2.21-0.093C8.607-4.15,8.126-5.939,7.001-5.532L7.001-5.532z"/>
				</g>
			</g>
		</g>
		<g>
			<g>
				<g>
					<path style="&st0;" d="M25.539-4.894c0.017,1.895,0.175,3.856,0.608,5.705c0.272,1.162,2.056,0.669,1.785-0.492
						c-0.396-1.693-0.526-3.478-0.542-5.213C27.379-6.087,25.528-6.088,25.539-4.894L25.539-4.894z"/>
				</g>
			</g>
			<g>
				<g>
					<path style="&st0;" d="M24.305-4.256c1.442-0.017,2.869-0.266,4.309-0.287c1.192-0.017,1.194-1.868,0-1.851
						c-1.441,0.021-2.867,0.27-4.309,0.287C23.112-6.092,23.111-4.241,24.305-4.256L24.305-4.256z"/>
				</g>
			</g>
			<g>
				<g>
					<path style="&st0;" d="M25.413,2.319c1.545-0.325,3.048-0.792,4.638-0.829c1.192-0.027,1.194-1.878,0-1.851
						c-1.758,0.04-3.422,0.536-5.13,0.895C23.753,0.78,24.249,2.564,25.413,2.319L25.413,2.319z"/>
				</g>
			</g>
		</g>
		<g>
			<g>
				<g>
					<path style="&st0;" d="M42.966-4.392c-0.593,1.311-0.602,2.859-0.603,4.276c-0.001,1.194,1.85,1.194,1.851,0
						c0.001-1.046-0.09-2.369,0.35-3.342C45.051-4.537,43.457-5.479,42.966-4.392L42.966-4.392z"/>
				</g>
			</g>
			<g>
				<g>
					<path style="&st0;" d="M43.298-2.65c1.56,1.023,3.222,1.881,4.574,3.189C48.73,1.368,50.04,0.06,49.181-0.77
						c-1.468-1.419-3.255-2.367-4.949-3.478C43.231-4.905,42.304-3.302,43.298-2.65L43.298-2.65z"/>
				</g>
			</g>
			<g>
				<g>
					<path style="&st0;" d="M47.601-3.925c0,0.952,0,1.905,0,2.857c0,1.194,1.851,1.194,1.851,0c0-0.952,0-1.905,0-2.857
						C49.452-5.119,47.601-5.119,47.601-3.925L47.601-3.925z"/>
				</g>
			</g>
		</g>
		<g>
			<g>
				<g>
					<path style="&st0;" d="M35.989-4.145c1.169,0.479,2.599,1.108,3.381,2.153c0.756,1.01-0.911,1.524-1.638,1.774
						c-1.33,0.457-2.852,0.102-3.225-1.399c-0.312-1.257,0.955-2.192,1.974-2.528c1.128-0.373,0.644-2.161-0.492-1.785
						c-1.988,0.657-3.678,2.358-3.301,4.602c0.36,2.135,2.692,3.629,4.784,3.113c1.823-0.45,4.427-1.546,3.897-3.868
						c-0.46-2.02-3.216-3.16-4.889-3.847C35.376-6.383,34.9-4.592,35.989-4.145z"/>
				</g>
			</g>
		</g>
		<g>
			<g>
				<g>
					<path style="&st0;" d="M15.444-5.36c-0.017,1.236-0.119,2.472-0.159,3.707c-0.036,1.103-0.226,2.539,0.188,3.595
						c0.371,0.948,1.916,0.536,1.54-0.425c-0.395-1.008-0.155-2.44-0.12-3.495c0.037-1.127,0.133-2.255,0.149-3.383
						C17.056-6.391,15.459-6.389,15.444-5.36L15.444-5.36z"/>
				</g>
			</g>
			<g>
				<g>
					<path style="&st0;" d="M14.401-4.179c2.215-0.529,4.498-0.77,6.773-0.793c1.029-0.01,1.03-1.607,0-1.597
						c-2.411,0.024-4.85,0.29-7.197,0.85C12.975-5.48,13.399-3.94,14.401-4.179L14.401-4.179z"/>
				</g>
			</g>
		</g>
		<g>
			<g>
				<g>
					<path style="&st0;" d="M-23.842-5.345c-0.91,2.035-1.042,4.749-0.569,6.903c0.255,1.166,2.04,0.671,1.785-0.492
						c-0.356-1.625-0.309-3.931,0.383-5.477C-21.761-5.49-23.356-6.433-23.842-5.345L-23.842-5.345z"/>
				</g>
			</g>
			<g>
				<g>
					<path style="&st0;" d="M-23.52,2.238c1.111,0,2.222,0,3.333,0c1.194,0,1.194-1.851,0-1.851c-1.111,0-2.222,0-3.333,0
						C-24.713,0.387-24.713,2.238-23.52,2.238L-23.52,2.238z"/>
				</g>
			</g>
			<g>
				<g>
					<path style="&st0;" d="M-22.567-1.095c0.635,0,1.27,0,1.905,0c1.194,0,1.194-1.851,0-1.851c-0.635,0-1.27,0-1.905,0
						C-23.761-2.946-23.761-1.095-22.567-1.095L-22.567-1.095z"/>
				</g>
			</g>
			<g>
				<g>
					<path style="&st0;" d="M-23.52-3.476c2.35-0.033,4.618-0.521,6.912-0.985c1.169-0.237,0.673-2.021-0.492-1.785
						c-2.134,0.432-4.234,0.888-6.42,0.919C-24.712-5.31-24.714-3.459-23.52-3.476L-23.52-3.476z"/>
				</g>
			</g>
		</g>
		<g>
			<g>
				<g>
					<path style="&st0;" d="M-7.159-5.345C-8.07-3.31-8.201-0.596-7.729,1.559c0.255,1.166,2.04,0.671,1.785-0.492
						C-6.3-0.558-6.253-2.865-5.561-4.411C-5.078-5.49-6.673-6.433-7.159-5.345L-7.159-5.345z"/>
				</g>
			</g>
			<g>
				<g>
					<path style="&st0;" d="M-6.837,2.238c1.111,0,2.222,0,3.333,0c1.194,0,1.194-1.851,0-1.851c-1.111,0-2.222,0-3.333,0
						C-8.03,0.387-8.03,2.238-6.837,2.238L-6.837,2.238z"/>
				</g>
			</g>
			<g>
				<g>
					<path style="&st0;" d="M-5.884-1.095c0.635,0,1.27,0,1.905,0c1.194,0,1.194-1.851,0-1.851c-0.635,0-1.27,0-1.905,0
						C-7.078-2.946-7.078-1.095-5.884-1.095L-5.884-1.095z"/>
				</g>
			</g>
			<g>
				<g>
					<path style="&st0;" d="M-6.837-3.476c2.35-0.033,4.618-0.521,6.912-0.985c1.169-0.237,0.673-2.021-0.492-1.785
						C-2.55-5.814-4.65-5.358-6.837-5.327C-8.029-5.31-8.031-3.459-6.837-3.476L-6.837-3.476z"/>
				</g>
			</g>
		</g>
		<g>
			<g>
				<g>
					<path style="&st0;" d="M-14.647-4.865c0,1.659,0,3.319,0,4.978c0,1.194,1.851,1.194,1.851,0c0-1.659,0-3.319,0-4.978
						C-12.796-6.059-14.647-6.059-14.647-4.865L-14.647-4.865z"/>
				</g>
			</g>
			<g>
				<g>
					<path style="&st0;" d="M-13.721,1.749c1.185,0,2.371,0,3.556,0c1.194,0,1.194-1.851,0-1.851c-1.185,0-2.371,0-3.556,0
						C-14.915-0.101-14.915,1.749-13.721,1.749L-13.721,1.749z"/>
				</g>
			</g>
		</g>
		<g>
			<g>
				<path style="&st0;" d="M-19.149-9.025c0.836-0.098,1.219-0.741,1.546-1.448c0.172-0.373,0.325-0.755,0.498-1.128
					c0.075-0.163,0.158-0.322,0.249-0.477c0.066-0.095,0.067-0.104,0.005-0.027c0.086-0.111-0.225,0.065-0.356,0.08
					c0.501-0.059,0.925-0.377,0.925-0.925c0-0.46-0.423-0.984-0.925-0.925c-0.836,0.098-1.219,0.741-1.546,1.448
					c-0.172,0.373-0.325,0.755-0.498,1.128c-0.075,0.163-0.158,0.322-0.249,0.477c-0.066,0.095-0.067,0.104-0.005,0.027
					c-0.086,0.111,0.225-0.065,0.356-0.08c-0.501,0.059-0.925,0.377-0.925,0.925C-20.075-9.49-19.651-8.966-19.149-9.025
					L-19.149-9.025z"/>
			</g>
		</g>
	</g>
</g>
<g>
	<g>
		<path style="&st0;" d="M121.713,13.188c1.194,0,1.194-1.851,0-1.851S120.52,13.188,121.713,13.188L121.713,13.188z"/>
	</g>
</g>
<g>
	<g>
		<path style="&st0;" d="M121.713,17.092c1.194,0,1.194-1.851,0-1.851S120.52,17.092,121.713,17.092L121.713,17.092z"/>
	</g>
</g>
<g>
	<g>
		<path style="&st0;" d="M43.277,25.78c12.657,0,25.315,0,37.972,0c0.548,0,0.548-0.85,0-0.85c-12.657,0-25.315,0-37.972,0
			C42.728,24.93,42.728,25.78,43.277,25.78L43.277,25.78z"/>
	</g>
</g>
<g>
	<g>
		<g>
			<g>
				<path style="&st0;" d="M14.537,38.098c1.205-0.94,2.402-1.891,3.663-2.757c0.767-0.527,0.041-1.788-0.734-1.256
					c-1.362,0.936-2.654,1.968-3.957,2.984C12.77,37.645,13.807,38.667,14.537,38.098L14.537,38.098z"/>
			</g>
		</g>
		<g>
			<g>
				<path style="&st0;" d="M16.982,34.833c0.073,2.127,0.04,4.254-0.001,6.381c-0.018,0.938,1.436,0.936,1.454,0
					c0.04-2.127,0.074-4.254,0.001-6.381C18.404,33.898,16.95,33.895,16.982,34.833L16.982,34.833z"/>
			</g>
		</g>
		<g>
			<g>
				<path style="&st0;" d="M15.643,42.269c1.297,0.016,2.587-0.065,3.879-0.169c0.928-0.075,0.935-1.529,0-1.454
					c-1.292,0.104-2.583,0.186-3.879,0.169C14.705,40.803,14.707,42.257,15.643,42.269L15.643,42.269z"/>
			</g>
		</g>
	</g>
	<g>
		<g>
			<g>
				<path style="&st0;" d="M36.264,38.098c1.205-0.94,2.402-1.891,3.663-2.757c0.767-0.527,0.041-1.788-0.734-1.256
					c-1.362,0.936-2.654,1.968-3.957,2.984C34.497,37.645,35.534,38.667,36.264,38.098L36.264,38.098z"/>
			</g>
		</g>
		<g>
			<g>
				<path style="&st0;" d="M38.709,34.833c0.073,2.127,0.04,4.254-0.001,6.381c-0.018,0.938,1.436,0.936,1.454,0
					c0.04-2.127,0.074-4.254,0.001-6.381C40.131,33.898,38.677,33.895,38.709,34.833L38.709,34.833z"/>
			</g>
		</g>
		<g>
			<g>
				<path style="&st0;" d="M37.37,42.269c1.297,0.016,2.587-0.065,3.879-0.169c0.928-0.075,0.935-1.529,0-1.454
					c-1.292,0.104-2.583,0.186-3.879,0.169C36.432,40.803,36.433,42.257,37.37,42.269L37.37,42.269z"/>
			</g>
		</g>
	</g>
	<g>
		<g>
			<g>
				<path style="&st0;" d="M47.325,38.098c1.205-0.94,2.402-1.891,3.663-2.757c0.767-0.527,0.041-1.788-0.734-1.256
					c-1.362,0.936-2.654,1.968-3.957,2.984C45.558,37.645,46.595,38.667,47.325,38.098L47.325,38.098z"/>
			</g>
		</g>
		<g>
			<g>
				<path style="&st0;" d="M49.771,34.833c0.073,2.127,0.04,4.254-0.001,6.381c-0.018,0.938,1.436,0.936,1.454,0
					c0.04-2.127,0.074-4.254,0.001-6.381C51.193,33.898,49.738,33.895,49.771,34.833L49.771,34.833z"/>
			</g>
		</g>
		<g>
			<g>
				<path style="&st0;" d="M48.432,42.269c1.297,0.016,2.587-0.065,3.879-0.169c0.928-0.075,0.935-1.529,0-1.454
					c-1.292,0.104-2.583,0.186-3.879,0.169C47.494,40.803,47.495,42.257,48.432,42.269L48.432,42.269z"/>
			</g>
		</g>
	</g>
	<g>
		<g>
			<g>
				<path style="&st0;" d="M79.718,37.736c1.205-0.94,2.402-1.891,3.663-2.757c0.767-0.527,0.041-1.788-0.734-1.256
					c-1.362,0.936-2.654,1.968-3.957,2.984C77.951,37.284,78.988,38.305,79.718,37.736L79.718,37.736z"/>
			</g>
		</g>
		<g>
			<g>
				<path style="&st0;" d="M82.163,34.471c0.073,2.127,0.04,4.254-0.001,6.381c-0.018,0.938,1.436,0.936,1.454,0
					c0.04-2.127,0.074-4.254,0.001-6.381C83.585,33.536,82.131,33.533,82.163,34.471L82.163,34.471z"/>
			</g>
		</g>
		<g>
			<g>
				<path style="&st0;" d="M80.824,41.907c1.297,0.016,2.587-0.065,3.879-0.169c0.928-0.075,0.935-1.529,0-1.454
					c-1.292,0.104-2.583,0.186-3.879,0.169C79.886,40.441,79.887,41.895,80.824,41.907L80.824,41.907z"/>
			</g>
		</g>
	</g>
	<g>
		<g>
			<g>
				<path style="&st0;" d="M90.779,37.736c1.205-0.94,2.402-1.891,3.663-2.757c0.767-0.527,0.041-1.788-0.734-1.256
					c-1.362,0.936-2.654,1.968-3.957,2.984C89.012,37.284,90.049,38.305,90.779,37.736L90.779,37.736z"/>
			</g>
		</g>
		<g>
			<g>
				<path style="&st0;" d="M93.225,34.471c0.073,2.127,0.04,4.254-0.001,6.381c-0.018,0.938,1.436,0.936,1.454,0
					c0.04-2.127,0.074-4.254,0.001-6.381C94.647,33.536,93.192,33.533,93.225,34.471L93.225,34.471z"/>
			</g>
		</g>
		<g>
			<g>
				<path style="&st0;" d="M91.886,41.907c1.297,0.016,2.587-0.065,3.879-0.169c0.928-0.075,0.935-1.529,0-1.454
					c-1.292,0.104-2.583,0.186-3.879,0.169C90.947,40.441,90.949,41.895,91.886,41.907L91.886,41.907z"/>
			</g>
		</g>
	</g>
	<g>
		<g>
			<g>
				<path style="&st0;" d="M101.841,37.736c1.205-0.94,2.402-1.891,3.663-2.757c0.767-0.527,0.041-1.788-0.734-1.256
					c-1.362,0.936-2.654,1.968-3.957,2.984C100.074,37.284,101.111,38.305,101.841,37.736L101.841,37.736z"/>
			</g>
		</g>
		<g>
			<g>
				<path style="&st0;" d="M104.286,34.471c0.073,2.127,0.04,4.254-0.001,6.381c-0.018,0.938,1.436,0.936,1.454,0
					c0.04-2.127,0.074-4.254,0.001-6.381C105.708,33.536,104.254,33.533,104.286,34.471L104.286,34.471z"/>
			</g>
		</g>
		<g>
			<g>
				<path style="&st0;" d="M102.947,41.907c1.297,0.016,2.587-0.065,3.879-0.169c0.928-0.075,0.935-1.529,0-1.454
					c-1.292,0.104-2.583,0.186-3.879,0.169C102.009,40.441,102.01,41.895,102.947,41.907L102.947,41.907z"/>
			</g>
		</g>
	</g>
	<g>
		<g>
			<g>
				<path style="&st0;" d="M112.902,37.736c1.205-0.94,2.402-1.891,3.663-2.757c0.767-0.527,0.041-1.788-0.734-1.256
					c-1.362,0.936-2.654,1.968-3.957,2.984C111.135,37.284,112.172,38.305,112.902,37.736L112.902,37.736z"/>
			</g>
		</g>
		<g>
			<g>
				<path style="&st0;" d="M115.347,34.471c0.073,2.127,0.04,4.254-0.001,6.381c-0.018,0.938,1.436,0.936,1.454,0
					c0.04-2.127,0.074-4.254,0.001-6.381C116.769,33.536,115.315,33.533,115.347,34.471L115.347,34.471z"/>
			</g>
		</g>
		<g>
			<g>
				<path style="&st0;" d="M114.008,41.907c1.297,0.016,2.587-0.065,3.879-0.169c0.928-0.075,0.935-1.529,0-1.454
					c-1.292,0.104-2.583,0.186-3.879,0.169C113.07,40.441,113.071,41.895,114.008,41.907L114.008,41.907z"/>
			</g>
		</g>
	</g>
	<g>
		<g>
			<g>
				<path style="&st0;" d="M4.254,37.647c-0.268-1.299,0.186-2.606,1.579-2.55c0.405,0.016,0.8,0.241,0.997,0.597
					c0.266,0.481-0.088,1.233-0.391,1.725c-0.493,0.801,0.765,1.53,1.255,0.734c0.597-0.969,0.884-2.04,0.427-3.119
					c-0.368-0.868-1.33-1.286-2.204-1.385c-0.883-0.1-1.823,0.291-2.416,0.939c-0.859,0.939-0.893,2.264-0.65,3.445
					C3.041,38.952,4.443,38.562,4.254,37.647L4.254,37.647z"/>
			</g>
		</g>
		<g>
			<g>
				<path style="&st0;" d="M6.555,37.15c-1.153,1.381-2.231,2.822-3.351,4.229c-0.577,0.726,0.445,1.762,1.028,1.028
					c1.12-1.408,2.198-2.848,3.351-4.229C8.18,37.463,7.157,36.429,6.555,37.15L6.555,37.15z"/>
			</g>
		</g>
		<g>
			<g>
				<path style="&st0;" d="M3.357,42.49c1.796-0.112,3.566-0.42,5.297-0.908c0.901-0.254,0.518-1.657-0.387-1.402
					c-1.609,0.453-3.242,0.751-4.911,0.856C2.426,41.095,2.421,42.549,3.357,42.49L3.357,42.49z"/>
			</g>
		</g>
	</g>
	<g>
		<g>
			<g>
				<path style="&st0;" d="M25.981,37.647c-0.268-1.299,0.186-2.606,1.579-2.55c0.405,0.016,0.8,0.241,0.997,0.597
					c0.266,0.481-0.088,1.233-0.391,1.725c-0.493,0.801,0.765,1.53,1.256,0.734c0.597-0.969,0.884-2.04,0.427-3.119
					c-0.368-0.868-1.33-1.286-2.204-1.385c-0.883-0.1-1.823,0.291-2.416,0.939c-0.859,0.939-0.893,2.264-0.65,3.445
					C24.768,38.952,26.17,38.562,25.981,37.647L25.981,37.647z"/>
			</g>
		</g>
		<g>
			<g>
				<path style="&st0;" d="M28.282,37.15c-1.153,1.381-2.231,2.822-3.351,4.229c-0.577,0.726,0.445,1.762,1.028,1.028
					c1.12-1.408,2.198-2.848,3.351-4.229C29.907,37.463,28.884,36.429,28.282,37.15L28.282,37.15z"/>
			</g>
		</g>
		<g>
			<g>
				<path style="&st0;" d="M25.084,42.49c1.796-0.112,3.566-0.42,5.297-0.908c0.901-0.254,0.518-1.657-0.387-1.402
					c-1.609,0.453-3.242,0.751-4.911,0.856C24.153,41.095,24.148,42.549,25.084,42.49L25.084,42.49z"/>
			</g>
		</g>
	</g>
	<g>
		<g>
			<g>
				<path style="&st0;" d="M58.77,37.647c-0.268-1.299,0.186-2.606,1.579-2.55c0.405,0.016,0.8,0.241,0.997,0.597
					c0.266,0.481-0.088,1.233-0.391,1.725c-0.493,0.801,0.765,1.53,1.255,0.734c0.597-0.969,0.884-2.04,0.427-3.119
					c-0.368-0.868-1.33-1.286-2.204-1.385c-0.883-0.1-1.823,0.291-2.416,0.939c-0.859,0.939-0.893,2.264-0.65,3.445
					C57.557,38.952,58.958,38.562,58.77,37.647L58.77,37.647z"/>
			</g>
		</g>
		<g>
			<g>
				<path style="&st0;" d="M61.07,37.15c-1.153,1.381-2.231,2.822-3.351,4.229c-0.577,0.726,0.445,1.762,1.028,1.028
					c1.12-1.408,2.198-2.848,3.351-4.229C62.695,37.463,61.672,36.429,61.07,37.15L61.07,37.15z"/>
			</g>
		</g>
		<g>
			<g>
				<path style="&st0;" d="M57.873,42.49c1.796-0.112,3.566-0.42,5.297-0.908c0.901-0.254,0.518-1.657-0.387-1.402
					c-1.609,0.453-3.242,0.751-4.911,0.856C56.941,41.095,56.936,42.549,57.873,42.49L57.873,42.49z"/>
			</g>
		</g>
	</g>
	<g>
		<g>
			<g>
				<path style="&st0;" d="M69.867,37.647c-0.268-1.299,0.186-2.606,1.579-2.55c0.405,0.016,0.8,0.241,0.997,0.597
					c0.266,0.481-0.088,1.233-0.391,1.725c-0.493,0.801,0.765,1.53,1.256,0.734c0.597-0.969,0.884-2.04,0.427-3.119
					c-0.368-0.868-1.33-1.286-2.204-1.385c-0.883-0.1-1.823,0.291-2.416,0.939c-0.859,0.939-0.893,2.264-0.65,3.445
					C68.654,38.952,70.056,38.562,69.867,37.647L69.867,37.647z"/>
			</g>
		</g>
		<g>
			<g>
				<path style="&st0;" d="M72.168,37.15c-1.153,1.381-2.231,2.822-3.351,4.229c-0.577,0.726,0.445,1.762,1.028,1.028
					c1.12-1.408,2.198-2.848,3.351-4.229C73.793,37.463,72.77,36.429,72.168,37.15L72.168,37.15z"/>
			</g>
		</g>
		<g>
			<g>
				<path style="&st0;" d="M68.97,42.49c1.796-0.112,3.566-0.42,5.297-0.908c0.901-0.254,0.518-1.657-0.387-1.402
					c-1.609,0.453-3.242,0.751-4.911,0.856C68.039,41.095,68.034,42.549,68.97,42.49L68.97,42.49z"/>
			</g>
		</g>
	</g>
	<g>
		<g>
			<g>
				<path style="&st0;" d="M61.568,46.565c0,1.491,0,2.983,0,4.474c0,1.073,1.664,1.073,1.664,0c0-1.491,0-2.983,0-4.474
					C63.232,45.493,61.568,45.493,61.568,46.565L61.568,46.565z"/>
			</g>
		</g>
		<g>
			<g>
				<path style="&st0;" d="M62.4,52.511c1.065,0,2.131,0,3.196,0c1.073,0,1.073-1.664,0-1.664c-1.065,0-2.131,0-3.196,0
					C61.327,50.847,61.327,52.511,62.4,52.511L62.4,52.511z"/>
			</g>
		</g>
	</g>
	<g>
		<g>
			<g>
				<path style="&st0;" d="M97.597,45.987c-1.321-0.193-3.353-0.522-4.282,0.735c-0.95,1.285,0.626,2.892,1.489,3.698
					c0.783,0.731,1.962-0.443,1.176-1.176c-0.412-0.384-0.817-0.78-1.116-1.261c-0.086-0.139-0.117-0.211-0.158-0.362
					c0.005,0.019-0.033,0.058,0.003-0.002c-0.062,0.104,0.048,0,0.01,0.015c0.167-0.069,0.356-0.11,0.535-0.129
					c0.628-0.067,1.279-0.003,1.901,0.087c0.448,0.065,0.892-0.104,1.023-0.581C98.287,46.614,98.046,46.052,97.597,45.987
					L97.597,45.987z"/>
			</g>
		</g>
		<g>
			<g>
				<path style="&st0;" d="M94.674,50.25c0.265,0.384,0.559,0.819,0.708,1.235c0.03,0.083,0.05,0.168,0.07,0.253
					c-0.039-0.167,0,0.033,0,0.07c0.002,0.209,0.045-0.164-0.012,0.018c0.054-0.175,0.059-0.152,0.142-0.207
					c-0.157,0.105,0.168-0.048-0.032,0.008c-0.213,0.06,0.171-0.005-0.076,0.009c-0.223,0.013-0.366-0.016-0.565-0.056
					c-0.606-0.122-1.199-0.349-1.765-0.594c-0.416-0.18-0.889-0.128-1.138,0.298c-0.208,0.355-0.118,0.958,0.298,1.138
					c1.114,0.481,2.981,1.389,4.164,0.601c1.329-0.886,0.302-2.658-0.358-3.613C95.504,48.535,94.061,49.366,94.674,50.25
					L94.674,50.25z"/>
			</g>
		</g>
	</g>
	<g>
		<g>
			<g>
				<path style="&st0;" d="M19.229,46.403c-1.091,0.395-2.144-0.224-3.196,0.635c-1.527,1.247-1.367,2.47-0.377,4.02
					c1.57,2.458,4.818,1.434,7.218,1.687c1.066,0.112,1.056-1.552,0-1.664c-1.626-0.171-3.843,0.476-5.302-0.386
					c-1.046-0.617-1.502-2.396,0.113-2.605c0.673-0.087,1.326,0.156,1.987-0.083C20.672,47.645,20.24,46.038,19.229,46.403
					L19.229,46.403z"/>
			</g>
		</g>
	</g>
	<g>
		<g>
			<g>
				<path style="&st0;" d="M113.099,47.585c0.215,1.079,0.179,2.185,0.411,3.261c0.251,1.167,1.104,1.994,2.037,2.659
					c0.343,0.245,0.962,0.089,1.138-0.298c1.015-2.228,0.923-4.494,0.63-6.875c-0.129-1.05-1.794-1.063-1.664,0
					c0.25,2.03,0.472,4.117-0.403,6.036c0.379-0.099,0.759-0.199,1.138-0.298c-1.704-1.216-1.318-3.092-1.684-4.926
					C114.494,46.092,112.89,46.538,113.099,47.585L113.099,47.585z"/>
			</g>
		</g>
	</g>
	<g>
		<g>
			<g>
				<path style="&st0;" d="M53.221,46.977c0.015,1.703,0.157,3.465,0.546,5.127c0.244,1.044,1.848,0.601,1.604-0.442
					c-0.356-1.522-0.473-3.126-0.487-4.685C54.875,45.905,53.211,45.904,53.221,46.977L53.221,46.977z"/>
			</g>
		</g>
		<g>
			<g>
				<path style="&st0;" d="M52.112,47.55c1.296-0.015,2.578-0.239,3.873-0.258c1.072-0.016,1.073-1.679,0-1.664
					c-1.295,0.019-2.577,0.243-3.873,0.258C51.04,45.9,51.039,47.563,52.112,47.55L52.112,47.55z"/>
			</g>
		</g>
		<g>
			<g>
				<path style="&st0;" d="M53.108,53.46c1.388-0.292,2.74-0.712,4.169-0.745c1.071-0.025,1.073-1.688,0-1.664
					c-1.58,0.036-3.076,0.482-4.611,0.804C51.616,52.077,52.061,53.68,53.108,53.46L53.108,53.46z"/>
			</g>
		</g>
	</g>
	<g>
		<g>
			<g>
				<path style="&st0;" d="M72.904,47.65c1.05,0.431,2.336,0.996,3.039,1.935c0.68,0.907-0.818,1.37-1.472,1.595
					c-1.195,0.411-2.564,0.092-2.898-1.257c-0.28-1.13,0.859-1.97,1.774-2.273c1.013-0.335,0.579-1.942-0.442-1.604
					c-1.787,0.591-3.306,2.119-2.967,4.136c0.323,1.919,2.42,3.262,4.3,2.798c1.639-0.404,3.979-1.39,3.503-3.477
					c-0.414-1.815-2.891-2.841-4.394-3.457C72.354,45.638,71.926,47.248,72.904,47.65z"/>
			</g>
		</g>
	</g>
	<g>
		<g>
			<g>
				<path style="&st0;" d="M103.628,46.558c-0.016,1.111-0.107,2.221-0.143,3.332c-0.032,0.991-0.203,2.282,0.169,3.231
					c0.334,0.852,1.722,0.481,1.384-0.382c-0.355-0.906-0.139-2.194-0.108-3.141c0.033-1.013,0.119-2.027,0.134-3.04
					C105.076,45.632,103.641,45.633,103.628,46.558L103.628,46.558z"/>
			</g>
		</g>
		<g>
			<g>
				<path style="&st0;" d="M102.69,47.619c1.991-0.475,4.042-0.692,6.087-0.713c0.925-0.009,0.926-1.445,0-1.435
					c-2.167,0.022-4.359,0.26-6.469,0.764C101.408,46.45,101.79,47.834,102.69,47.619L102.69,47.619z"/>
			</g>
		</g>
	</g>
	<g>
		<g>
			<g>
				<path style="&st0;" d="M27.885,46.571c-0.818,1.829-0.936,4.268-0.512,6.205c0.23,1.048,1.833,0.603,1.604-0.442
					c-0.32-1.46-0.277-3.533,0.344-4.923C29.755,46.441,28.322,45.594,27.885,46.571L27.885,46.571z"/>
			</g>
		</g>
		<g>
			<g>
				<path style="&st0;" d="M28.175,53.387c0.999,0,1.997,0,2.996,0c1.073,0,1.073-1.664,0-1.664c-0.999,0-1.997,0-2.996,0
					C27.102,51.723,27.102,53.387,28.175,53.387L28.175,53.387z"/>
			</g>
		</g>
		<g>
			<g>
				<path style="&st0;" d="M29.031,50.391c0.571,0,1.141,0,1.712,0c1.073,0,1.073-1.664,0-1.664c-0.571,0-1.141,0-1.712,0
					C27.958,48.727,27.958,50.391,29.031,50.391L29.031,50.391z"/>
			</g>
		</g>
		<g>
			<g>
				<path style="&st0;" d="M28.175,48.251c2.112-0.03,4.151-0.468,6.213-0.886c1.051-0.213,0.605-1.816-0.442-1.604
					c-1.918,0.388-3.805,0.798-5.771,0.826C27.103,46.603,27.101,48.266,28.175,48.251L28.175,48.251z"/>
			</g>
		</g>
	</g>
	<g>
		<g>
			<g>
				<g>
					<path style="&st0;" d="M82.169,47.535c0.172,1.669,0.361,3.375,0.801,4.998c0.242,0.892,1.627,0.513,1.384-0.382
						c-0.407-1.502-0.59-3.072-0.75-4.617C83.51,46.624,82.074,46.614,82.169,47.535L82.169,47.535z"/>
				</g>
			</g>
			<g>
				<g>
					<path style="&st0;" d="M82.474,47.534c0.728-0.479,2.307-1.276,2.982-0.264c0.693,1.04-0.918,2.053-1.674,2.364
						c-0.844,0.347-0.475,1.736,0.382,1.384c1.732-0.711,3.489-2.267,2.624-4.302c-0.871-2.049-3.645-1.338-5.038-0.422
						C80.979,46.801,81.698,48.045,82.474,47.534L82.474,47.534z"/>
				</g>
			</g>
		</g>
		<g>
			<g>
				<path style="&st0;" d="M84.384,51.267c1.114,0.409,1.83,1.539,2.629,2.354c0.752,0.767,1.927-0.41,1.176-1.176
					c-1.047-1.069-1.907-2.247-3.363-2.782C83.817,49.293,83.386,50.901,84.384,51.267L84.384,51.267z"/>
			</g>
		</g>
	</g>
	<g>
		<g>
			<g>
				<path style="&st0;" d="M4.434,50.432c0.288-1.204,0.278-2.376,1.761-2.421c-0.269-0.205-0.538-0.41-0.807-0.615
					c0.517,1.782,2.057,3.008,2.568,4.77c0.3,1.035,1.916,0.594,1.615-0.445c-0.517-1.782-2.057-3.008-2.568-4.77
					c-0.102-0.35-0.433-0.626-0.807-0.615c-0.961,0.029-1.902,0.248-2.497,1.063c-0.545,0.747-0.668,1.71-0.878,2.587
					C2.568,51.037,4.183,51.482,4.434,50.432L4.434,50.432z"/>
			</g>
		</g>
		<g>
			<g>
				<path style="&st0;" d="M2.137,50.583c2.745-0.774,5.481-1.241,8.337-1.271c1.079-0.011,1.08-1.686,0-1.674
					c-3.003,0.031-5.895,0.517-8.782,1.331C0.655,49.261,1.096,50.877,2.137,50.583L2.137,50.583z"/>
			</g>
		</g>
	</g>
	<g>
		<g>
			<g>
				<path style="&st0;" d="M45.641,45.412c-2.592,0.002-5.98,0.162-6.971,3.049c-0.954,2.778,1.319,4.405,3.779,4.81
					c1.049,0.173,1.499-1.43,0.442-1.604c-1.846-0.304-3.222-1.001-2.524-3.034c0.597-1.738,3.869-1.557,5.274-1.558
					C46.714,47.075,46.714,45.411,45.641,45.412L45.641,45.412z"/>
			</g>
		</g>
		<g>
			<g>
				<path style="&st0;" d="M42.25,53.187c1.033,0.457,2.127,0.601,3.042-0.177c0.838-0.713,0.821-2.029,0.579-2.995
					c-0.26-1.04-1.865-0.599-1.604,0.442c0.12,0.478,0.146,0.961-0.099,1.336c-0.127,0.194-0.671,0.137-1.078-0.043
					c-0.415-0.183-0.89-0.125-1.138,0.298C41.742,52.407,41.835,53.004,42.25,53.187L42.25,53.187z"/>
			</g>
		</g>
		<g>
			<g>
				<path style="&st0;" d="M42.19,50.621c1.551,0.001,3.058,0.08,4.577,0.417c1.045,0.232,1.489-1.372,0.442-1.604
					c-1.662-0.369-3.321-0.476-5.019-0.476C41.117,48.957,41.117,50.621,42.19,50.621L42.19,50.621z"/>
			</g>
		</g>
	</g>
</g>
</svg>
