<?xml version="1.0" encoding="utf-8"?>
<!-- Generator: Adobe Illustrator 17.0.0, SVG Export Plug-In . SVG Version: 6.00 Build 0)  -->
<!DOCTYPE svg PUBLIC "-//W3C//DTD SVG 1.1//EN" "http://www.w3.org/Graphics/SVG/1.1/DTD/svg11.dtd">
<svg version="1.1" id="Calque_1" xmlns="http://www.w3.org/2000/svg" xmlns:xlink="http://www.w3.org/1999/xlink" x="0px" y="0px"
	 width="213.174px" height="76.571px" viewBox="0 0 213.174 76.571" enable-background="new 0 0 213.174 76.571"
	 xml:space="preserve">
<g>
	<g>
		<g>
			<g>
				<path fill="#3D3D3D" d="M132.726,29.37c-1.301,0.675-3.219,1.877-2.838,3.635c0.377,1.742,2.518,2.425,4.012,2.818
					c1.156,0.304,1.645-1.481,0.492-1.785c-0.859-0.226-2.135-0.5-2.657-1.309c-0.409-0.635,1.59-1.587,1.926-1.761
					C134.72,30.418,133.784,28.821,132.726,29.37L132.726,29.37z"/>
			</g>
		</g>
		<g>
			<g>
				<path fill="#3D3D3D" d="M132.717,31.571c0.963,0.114,2.394,0.214,3.148,0.918c0.099,0.093,0.026,0.124-0.107,0.335
					c-0.353,0.562-1.062,0.962-1.603,1.308c-1.002,0.641-0.075,2.243,0.934,1.598c1.267-0.81,3.261-2.201,2.488-3.97
					c-0.722-1.651-3.351-1.862-4.859-2.04C131.533,29.58,131.547,31.432,132.717,31.571L132.717,31.571z"/>
			</g>
		</g>
		<g>
			<g>
				<path fill="#3D3D3D" d="M133.424,33.919c1.24,0.455,2.036,1.712,2.925,2.619c0.836,0.854,2.144-0.456,1.309-1.309
					c-1.165-1.189-2.121-2.5-3.742-3.095C132.793,31.722,132.313,33.511,133.424,33.919L133.424,33.919z"/>
			</g>
		</g>
	</g>
	<g>
		<g>
			<g>
				<path fill="#3D3D3D" d="M102.158,29.65c0.001,1.45-0.108,3.329,0.961,4.466c0.82,0.871,2.126-0.441,1.309-1.309
					c-0.631-0.67-0.419-2.316-0.419-3.157C104.008,28.456,102.157,28.456,102.158,29.65L102.158,29.65z"/>
			</g>
		</g>
		<g>
			<g>
				<path fill="#3D3D3D" d="M101.259,30.542c0.816-0.125,1.66-0.262,2.401-0.351c0.336-0.04,0.674-0.072,1.012-0.089
					c0.127-0.006,0.253-0.008,0.38-0.006c0.083,0.001,0.502,0.053,0.186,0.003c0.09,0.014,0.346,0.118,0.044-0.015
					c0.08,0.035,0.147,0.128-0.07-0.065c-0.035-0.031-0.184-0.348-0.163-0.275c-0.035-0.119-0.036-0.237-0.002-0.356
					c-0.012,0.072-0.086,0.192,0.033-0.058c-0.024,0.05-0.055,0.096-0.085,0.142c-0.12,0.182,0.135-0.159-0.025,0.029
					c-0.647,0.758-1.542,1.331-2.352,1.893c-0.414,0.287-0.602,0.805-0.332,1.266c0.24,0.41,0.851,0.62,1.266,0.332
					c0.888-0.616,4.921-3.114,2.699-4.487c-0.617-0.381-1.513-0.27-2.196-0.205c-1.1,0.105-2.194,0.292-3.286,0.46
					c-0.499,0.077-0.768,0.695-0.646,1.138C100.266,30.424,100.761,30.619,101.259,30.542L101.259,30.542z"/>
			</g>
		</g>
		<g>
			<g>
				<path fill="#3D3D3D" d="M105.427,33.525c0.907,0.196,1.851,0.389,2.707,0.758c0.218,0.094,0.448,0.202,0.62,0.369
					c-0.16-0.154,0.038-0.488-0.038-0.403c-0.35,0.393-1.001,0.596-1.477,0.777c-1.055,0.402-2.157,0.688-3.25,0.965
					c-1.157,0.292-0.666,2.077,0.492,1.785c1.376-0.348,2.763-0.718,4.065-1.295c0.733-0.325,1.68-0.793,1.92-1.636
					c0.626-2.191-3.212-2.815-4.548-3.104C104.755,31.489,104.261,33.273,105.427,33.525L105.427,33.525z"/>
			</g>
		</g>
	</g>
	<g>
		<g>
			<g>
				<path fill="#3D3D3D" d="M139.213,30.83c0.239,1.2,0.199,2.431,0.457,3.628c0.28,1.298,1.229,2.218,2.267,2.959
					c0.382,0.272,1.07,0.099,1.266-0.332c1.129-2.479,1.027-5,0.701-7.65c-0.144-1.169-1.996-1.183-1.851,0
					c0.278,2.258,0.525,4.58-0.448,6.715c0.422-0.111,0.844-0.221,1.266-0.332c-1.896-1.353-1.467-3.44-1.873-5.48
					C140.765,29.168,138.981,29.665,139.213,30.83L139.213,30.83z"/>
			</g>
		</g>
	</g>
	<g>
		<g>
			<g>
				<path fill="#3D3D3D" d="M123.153,30.153c0.017,1.895,0.175,3.856,0.608,5.705c0.272,1.162,2.056,0.669,1.785-0.492
					c-0.396-1.693-0.526-3.478-0.542-5.213C124.993,28.96,123.143,28.959,123.153,30.153L123.153,30.153z"/>
			</g>
		</g>
		<g>
			<g>
				<path fill="#3D3D3D" d="M121.92,30.791c1.442-0.017,2.869-0.266,4.309-0.287c1.192-0.017,1.194-1.868,0-1.851
					c-1.441,0.021-2.867,0.27-4.309,0.287C120.727,28.955,120.726,30.805,121.92,30.791L121.92,30.791z"/>
			</g>
		</g>
		<g>
			<g>
				<path fill="#3D3D3D" d="M123.028,37.366c1.545-0.325,3.048-0.792,4.638-0.829c1.192-0.027,1.194-1.878,0-1.851
					c-1.758,0.04-3.422,0.536-5.13,0.895C121.368,35.827,121.863,37.611,123.028,37.366L123.028,37.366z"/>
			</g>
		</g>
	</g>
	<g>
		<g>
			<g>
				<path fill="#3D3D3D" d="M146.213,29.702c-0.91,2.035-1.042,4.749-0.569,6.903c0.255,1.166,2.04,0.671,1.785-0.492
					c-0.356-1.625-0.309-3.931,0.383-5.477C148.294,29.556,146.699,28.614,146.213,29.702L146.213,29.702z"/>
			</g>
		</g>
		<g>
			<g>
				<path fill="#3D3D3D" d="M146.536,37.285c1.111,0,2.222,0,3.333,0c1.194,0,1.194-1.851,0-1.851c-1.111,0-2.222,0-3.333,0
					C145.342,35.434,145.342,37.285,146.536,37.285L146.536,37.285z"/>
			</g>
		</g>
		<g>
			<g>
				<path fill="#3D3D3D" d="M147.488,33.952c0.635,0,1.27,0,1.905,0c1.194,0,1.194-1.851,0-1.851c-0.635,0-1.27,0-1.905,0
					C146.294,32.101,146.294,33.952,147.488,33.952L147.488,33.952z"/>
			</g>
		</g>
		<g>
			<g>
				<path fill="#3D3D3D" d="M146.536,31.571c2.35-0.033,4.618-0.521,6.912-0.985c1.169-0.237,0.673-2.021-0.492-1.785
					c-2.134,0.432-4.234,0.888-6.42,0.919C145.343,29.737,145.341,31.588,146.536,31.571L146.536,31.571z"/>
			</g>
		</g>
	</g>
	<g>
		<g>
			<g>
				<path fill="#3D3D3D" d="M79.532,30.743c1.85,0.001,3.726-0.032,5.54,0.382c1.003,0.229,1.428-1.311,0.425-1.54
					c-1.956-0.447-3.968-0.439-5.965-0.439C78.502,29.146,78.502,30.743,79.532,30.743L79.532,30.743z"/>
			</g>
		</g>
		<g>
			<g>
				<path fill="#3D3D3D" d="M79.994,30.143c-0.468,2.051-0.382,4.119,0,6.177c0.188,1.012,1.727,0.582,1.54-0.425
					c-0.328-1.768-0.402-3.566,0-5.328C81.763,29.565,80.223,29.139,79.994,30.143L79.994,30.143z"/>
			</g>
		</g>
		<g>
			<g>
				<path fill="#3D3D3D" d="M79.121,34.441c1.233,0,2.465,0,3.698,0c1.03,0,1.03-1.597,0-1.597c-1.233,0-2.465,0-3.698,0
					C78.091,32.844,78.091,34.441,79.121,34.441L79.121,34.441z"/>
			</g>
		</g>
	</g>
	<g>
		<g>
			<g>
				<g>
					<path fill="#3D3D3D" d="M156.369,30.774c0.192,1.857,0.402,3.755,0.891,5.561c0.269,0.993,1.81,0.571,1.54-0.425
						c-0.453-1.671-0.657-3.418-0.834-5.136C157.861,29.76,156.263,29.75,156.369,30.774L156.369,30.774z"/>
				</g>
			</g>
			<g>
				<g>
					<path fill="#3D3D3D" d="M156.708,30.773c0.81-0.533,2.567-1.42,3.318-0.294c0.771,1.157-1.022,2.285-1.862,2.63
						c-0.939,0.386-0.528,1.932,0.425,1.54c1.927-0.792,3.882-2.522,2.92-4.786c-0.969-2.28-4.055-1.489-5.605-0.469
						C155.045,29.958,155.844,31.341,156.708,30.773L156.708,30.773z"/>
				</g>
			</g>
		</g>
		<g>
			<g>
				<path fill="#3D3D3D" d="M158.833,34.926c1.24,0.455,2.036,1.712,2.925,2.619c0.836,0.854,2.144-0.456,1.309-1.309
					c-1.165-1.189-2.121-2.5-3.742-3.095C158.202,32.73,157.723,34.519,158.833,34.926L158.833,34.926z"/>
			</g>
		</g>
	</g>
	<g>
		<g>
			<g>
				<g>
					<path fill="#3D3D3D" d="M112.773,30.774c0.192,1.857,0.402,3.755,0.891,5.561c0.269,0.993,1.81,0.571,1.54-0.425
						c-0.453-1.671-0.657-3.418-0.834-5.136C114.266,29.76,112.667,29.75,112.773,30.774L112.773,30.774z"/>
				</g>
			</g>
			<g>
				<g>
					<path fill="#3D3D3D" d="M113.112,30.773c0.81-0.533,2.567-1.42,3.318-0.294c0.771,1.157-1.022,2.285-1.862,2.63
						c-0.939,0.386-0.528,1.932,0.425,1.54c1.927-0.792,3.882-2.522,2.92-4.786c-0.969-2.28-4.055-1.489-5.605-0.469
						C111.45,29.958,112.249,31.341,113.112,30.773L113.112,30.773z"/>
				</g>
			</g>
		</g>
		<g>
			<g>
				<path fill="#3D3D3D" d="M115.238,34.926c1.24,0.455,2.036,1.712,2.925,2.619c0.836,0.854,2.144-0.456,1.309-1.309
					c-1.165-1.189-2.121-2.5-3.742-3.095C114.607,32.73,114.127,34.519,115.238,34.926L115.238,34.926z"/>
			</g>
		</g>
	</g>
	<g>
		<g>
			<g>
				<path fill="#3D3D3D" d="M53.548,33.997c0.32-1.339,0.31-2.644,1.959-2.693c-0.299-0.228-0.599-0.456-0.898-0.684
					c0.575,1.983,2.288,3.347,2.857,5.307c0.334,1.151,2.132,0.661,1.796-0.495c-0.575-1.983-2.288-3.347-2.857-5.307
					c-0.113-0.39-0.482-0.696-0.898-0.684c-1.07,0.032-2.116,0.275-2.778,1.183c-0.607,0.831-0.744,1.902-0.977,2.878
					C51.472,34.67,53.268,35.166,53.548,33.997L53.548,33.997z"/>
			</g>
		</g>
		<g>
			<g>
				<path fill="#3D3D3D" d="M50.992,34.166c3.054-0.861,6.098-1.381,9.276-1.414c1.201-0.013,1.202-1.876,0-1.863
					c-3.341,0.035-6.558,0.575-9.771,1.481C49.343,32.695,49.834,34.492,50.992,34.166L50.992,34.166z"/>
			</g>
		</g>
	</g>
	<g>
		<g>
			<g>
				<path fill="#3D3D3D" d="M91.565,33.997c0.32-1.339,0.31-2.644,1.959-2.693c-0.299-0.228-0.599-0.456-0.898-0.684
					c0.575,1.983,2.288,3.347,2.857,5.307c0.334,1.151,2.132,0.661,1.796-0.495c-0.575-1.983-2.288-3.347-2.857-5.307
					c-0.113-0.39-0.482-0.696-0.898-0.684c-1.07,0.032-2.116,0.275-2.778,1.183c-0.607,0.831-0.744,1.902-0.977,2.878
					C89.489,34.67,91.286,35.166,91.565,33.997L91.565,33.997z"/>
			</g>
		</g>
		<g>
			<g>
				<path fill="#3D3D3D" d="M89.009,34.166c3.054-0.861,6.098-1.381,9.276-1.414c1.201-0.013,1.202-1.876,0-1.863
					c-3.341,0.035-6.558,0.575-9.771,1.481C87.36,32.695,87.851,34.492,89.009,34.166L89.009,34.166z"/>
			</g>
		</g>
	</g>
</g>
<g>
	<g>
		<g>
			<g>
				<g>
					<path fill="#3D3D3D" d="M116.46,14.718c0-0.089,0-0.177,0-0.266c0-1.194-1.851-1.194-1.851,0c0,1.359,0,2.717,0,4.076
						c0,1.194,1.851,1.194,1.851,0c0-1.359,0-2.717,0-4.076c0-1.194-1.851-1.194-1.851,0c0,0.089,0,0.177,0,0.266
						C114.609,15.911,116.46,15.911,116.46,14.718L116.46,14.718z"/>
				</g>
			</g>
			<g>
				<g>
					<path fill="#3D3D3D" d="M113.63,15.167c1.792-0.019,3.338-0.259,4.439,1.446c0.048-0.374,0.096-0.748,0.145-1.121
						c-1.401,1.4-2.805,2.739-4.574,3.665c-1.058,0.554-0.122,2.151,0.934,1.598c1.903-0.996,3.441-2.448,4.949-3.954
						c0.284-0.284,0.369-0.774,0.145-1.121c-0.663-1.028-1.453-1.763-2.615-2.175c-1.073-0.38-2.311-0.2-3.422-0.189
						C112.437,13.329,112.436,15.18,113.63,15.167L113.63,15.167z"/>
				</g>
			</g>
		</g>
		<g>
			<g>
				<g>
					<path fill="#3D3D3D" d="M122.419,14.875c0.239,1.2,0.199,2.431,0.457,3.628c0.28,1.298,1.229,2.218,2.267,2.959
						c0.382,0.272,1.07,0.099,1.266-0.332c1.129-2.479,1.027-5,0.701-7.65c-0.144-1.169-1.996-1.183-1.851,0
						c0.278,2.258,0.525,4.58-0.448,6.715c0.422-0.111,0.844-0.221,1.266-0.332c-1.896-1.353-1.467-3.44-1.873-5.48
						C123.97,13.213,122.187,13.709,122.419,14.875L122.419,14.875z"/>
				</g>
			</g>
		</g>
	</g>
	<g>
		<g>
			<g>
				<g>
					<path fill="#3D3D3D" d="M168.796,14.71c0-0.089,0-0.177,0-0.266c0-1.194-1.851-1.194-1.851,0c0,1.359,0,2.717,0,4.076
						c0,1.194,1.851,1.194,1.851,0c0-1.359,0-2.717,0-4.076c0-1.194-1.851-1.194-1.851,0c0,0.089,0,0.177,0,0.266
						C166.945,15.903,168.796,15.903,168.796,14.71L168.796,14.71z"/>
				</g>
			</g>
			<g>
				<g>
					<path fill="#3D3D3D" d="M165.966,15.159c1.792-0.019,3.338-0.259,4.439,1.446c0.048-0.374,0.096-0.748,0.145-1.121
						c-1.401,1.4-2.805,2.739-4.574,3.665c-1.058,0.554-0.122,2.151,0.934,1.598c1.903-0.996,3.441-2.448,4.949-3.954
						c0.284-0.284,0.369-0.774,0.145-1.121c-0.663-1.028-1.453-1.763-2.615-2.175c-1.073-0.38-2.311-0.2-3.422-0.189
						C164.773,13.321,164.772,15.171,165.966,15.159L165.966,15.159z"/>
				</g>
			</g>
		</g>
		<g>
			<g>
				<g>
					<path fill="#3D3D3D" d="M143.636,13.694c0.001,1.45-0.108,3.329,0.961,4.466c0.82,0.871,2.126-0.441,1.309-1.309
						c-0.631-0.67-0.419-2.316-0.419-3.157C145.486,12.501,143.636,12.501,143.636,13.694L143.636,13.694z"/>
				</g>
			</g>
			<g>
				<g>
					<path fill="#3D3D3D" d="M142.737,14.587c0.816-0.125,1.66-0.262,2.401-0.351c0.336-0.04,0.674-0.072,1.012-0.089
						c0.127-0.006,0.253-0.008,0.38-0.006c0.083,0.001,0.502,0.053,0.186,0.003c0.09,0.014,0.346,0.118,0.044-0.015
						c0.08,0.035,0.147,0.128-0.07-0.065c-0.035-0.031-0.184-0.348-0.163-0.275c-0.035-0.119-0.036-0.237-0.002-0.356
						c-0.012,0.072-0.086,0.192,0.033-0.058c-0.024,0.05-0.055,0.096-0.085,0.142c-0.12,0.182,0.135-0.159-0.025,0.029
						c-0.647,0.758-1.542,1.331-2.352,1.893c-0.414,0.287-0.602,0.805-0.332,1.266c0.24,0.41,0.851,0.62,1.266,0.332
						c0.888-0.616,4.921-3.114,2.699-4.487c-0.617-0.381-1.513-0.27-2.196-0.205c-1.1,0.105-2.194,0.292-3.286,0.46
						c-0.501,0.074-0.77,0.692-0.648,1.135C141.744,14.469,142.239,14.663,142.737,14.587L142.737,14.587z"/>
				</g>
			</g>
			<g>
				<g>
					<path fill="#3D3D3D" d="M146.905,17.57c0.907,0.196,1.851,0.389,2.707,0.758c0.218,0.094,0.448,0.202,0.62,0.369
						c-0.16-0.154,0.038-0.488-0.038-0.403c-0.35,0.393-1.001,0.596-1.477,0.777c-1.055,0.402-2.157,0.688-3.25,0.965
						c-1.157,0.292-0.666,2.077,0.492,1.785c1.376-0.348,2.763-0.718,4.065-1.295c0.733-0.325,1.68-0.793,1.92-1.636
						c0.626-2.191-3.212-2.815-4.548-3.104C146.233,15.534,145.739,17.318,146.905,17.57L146.905,17.57z"/>
				</g>
			</g>
		</g>
		<g>
			<g>
				<g>
					<path fill="#3D3D3D" d="M174.879,14.875c0.239,1.2,0.199,2.431,0.457,3.628c0.28,1.298,1.229,2.218,2.267,2.959
						c0.382,0.272,1.07,0.099,1.266-0.332c1.129-2.479,1.027-5,0.701-7.65c-0.144-1.169-1.996-1.183-1.851,0
						c0.278,2.258,0.525,4.58-0.448,6.715c0.422-0.111,0.844-0.221,1.266-0.332c-1.896-1.353-1.467-3.44-1.873-5.48
						C176.431,13.213,174.647,13.709,174.879,14.875L174.879,14.875z"/>
				</g>
			</g>
		</g>
		<g>
			<g>
				<g>
					<path fill="#3D3D3D" d="M156.886,14.198c0.017,1.895,0.175,3.856,0.608,5.705c0.272,1.162,2.056,0.669,1.785-0.492
						c-0.396-1.693-0.526-3.478-0.542-5.213C158.726,13.005,156.875,13.004,156.886,14.198L156.886,14.198z"/>
				</g>
			</g>
			<g>
				<g>
					<path fill="#3D3D3D" d="M155.652,14.836c1.442-0.017,2.869-0.266,4.309-0.287c1.192-0.017,1.194-1.868,0-1.851
						c-1.441,0.021-2.867,0.27-4.309,0.287C154.459,12.999,154.458,14.85,155.652,14.836L155.652,14.836z"/>
				</g>
			</g>
			<g>
				<g>
					<path fill="#3D3D3D" d="M156.76,21.411c1.545-0.325,3.048-0.792,4.638-0.829c1.192-0.027,1.194-1.878,0-1.851
						c-1.758,0.04-3.422,0.536-5.13,0.895C155.1,19.872,155.596,21.656,156.76,21.411L156.76,21.411z"/>
				</g>
			</g>
		</g>
		<g>
			<g>
				<g>
					<path fill="#3D3D3D" d="M191.467,13.493c-0.91,2.035-1.042,4.749-0.569,6.903c0.255,1.166,2.04,0.671,1.785-0.492
						c-0.356-1.625-0.309-3.931,0.383-5.477C193.548,13.348,191.954,12.406,191.467,13.493L191.467,13.493z"/>
				</g>
			</g>
			<g>
				<g>
					<path fill="#3D3D3D" d="M191.79,21.076c1.111,0,2.222,0,3.333,0c1.194,0,1.194-1.851,0-1.851c-1.111,0-2.222,0-3.333,0
						C190.597,19.225,190.597,21.076,191.79,21.076L191.79,21.076z"/>
				</g>
			</g>
			<g>
				<g>
					<path fill="#3D3D3D" d="M192.742,17.743c0.635,0,1.27,0,1.905,0c1.194,0,1.194-1.851,0-1.851c-0.635,0-1.27,0-1.905,0
						C191.549,15.892,191.549,17.743,192.742,17.743L192.742,17.743z"/>
				</g>
			</g>
			<g>
				<g>
					<path fill="#3D3D3D" d="M191.79,15.362c2.35-0.033,4.618-0.521,6.912-0.985c1.169-0.237,0.673-2.021-0.492-1.785
						c-2.134,0.432-4.234,0.888-6.42,0.919C190.598,13.528,190.596,15.379,191.79,15.362L191.79,15.362z"/>
				</g>
			</g>
		</g>
		<g>
			<g>
				<g>
					<path fill="#3D3D3D" d="M182.544,14.226c0,1.659,0,3.319,0,4.978c0,1.194,1.851,1.194,1.851,0c0-1.659,0-3.319,0-4.978
						C184.395,13.033,182.544,13.033,182.544,14.226L182.544,14.226z"/>
				</g>
			</g>
			<g>
				<g>
					<path fill="#3D3D3D" d="M183.469,20.841c1.185,0,2.371,0,3.556,0c1.194,0,1.194-1.851,0-1.851c-1.185,0-2.371,0-3.556,0
						C182.276,18.99,182.276,20.841,183.469,20.841L183.469,20.841z"/>
				</g>
			</g>
		</g>
	</g>
	<g>
		<g>
			<g>
				<g>
					<path fill="#3D3D3D" d="M20.143,13.196c-1.47-0.215-3.73-0.581-4.764,0.817c-1.057,1.43,0.696,3.218,1.656,4.114
						c0.871,0.813,2.183-0.493,1.309-1.309c-0.458-0.428-0.909-0.868-1.242-1.403c-0.096-0.154-0.13-0.235-0.175-0.403
						c0.006,0.021-0.036,0.065,0.004-0.002c-0.069,0.116,0.053,0,0.011,0.017c0.186-0.077,0.396-0.123,0.595-0.144
						c0.698-0.074,1.423-0.004,2.115,0.097c0.499,0.073,0.992-0.116,1.138-0.646C20.911,13.894,20.643,13.269,20.143,13.196
						L20.143,13.196z"/>
				</g>
			</g>
			<g>
				<g>
					<path fill="#3D3D3D" d="M16.891,17.939c0.295,0.427,0.622,0.911,0.787,1.374c0.033,0.092,0.056,0.186,0.078,0.281
						c-0.043-0.185,0,0.036,0,0.078c0.002,0.232,0.05-0.182-0.013,0.02c0.06-0.195,0.065-0.169,0.158-0.23
						c-0.175,0.117,0.187-0.053-0.035,0.009c-0.237,0.067,0.19-0.006-0.084,0.01c-0.248,0.014-0.408-0.018-0.628-0.062
						c-0.674-0.136-1.334-0.389-1.964-0.661c-0.463-0.2-0.989-0.142-1.266,0.332c-0.231,0.395-0.131,1.066,0.332,1.266
						c1.239,0.535,3.317,1.546,4.632,0.669c1.479-0.986,0.336-2.957-0.399-4.019C17.815,16.031,16.21,16.955,16.891,17.939
						L16.891,17.939z"/>
				</g>
			</g>
		</g>
		<g>
			<g>
				<g>
					<path fill="#3D3D3D" d="M53.747,13.659c-1.214,0.439-2.385-0.249-3.555,0.707c-1.699,1.387-1.521,2.748-0.42,4.472
						c1.747,2.734,5.361,1.596,8.03,1.877c1.186,0.125,1.174-1.727,0-1.851c-1.809-0.19-4.276,0.529-5.899-0.429
						c-1.163-0.687-1.671-2.667,0.126-2.899c0.748-0.097,1.475,0.173,2.21-0.093C55.353,15.041,54.872,13.252,53.747,13.659
						L53.747,13.659z"/>
				</g>
			</g>
		</g>
		<g>
			<g>
				<g>
					<path fill="#3D3D3D" d="M72.285,14.297c0.017,1.895,0.175,3.856,0.608,5.705c0.272,1.162,2.056,0.669,1.785-0.492
						c-0.396-1.693-0.526-3.478-0.542-5.213C74.125,13.104,72.274,13.103,72.285,14.297L72.285,14.297z"/>
				</g>
			</g>
			<g>
				<g>
					<path fill="#3D3D3D" d="M71.051,14.935c1.442-0.017,2.869-0.266,4.309-0.287c1.192-0.017,1.194-1.868,0-1.851
						c-1.441,0.021-2.867,0.27-4.309,0.287C69.858,13.099,69.857,14.95,71.051,14.935L71.051,14.935z"/>
				</g>
			</g>
			<g>
				<g>
					<path fill="#3D3D3D" d="M72.159,21.51c1.545-0.325,3.048-0.792,4.638-0.829c1.192-0.027,1.194-1.878,0-1.851
						c-1.758,0.04-3.422,0.536-5.13,0.895C70.499,19.971,70.995,21.755,72.159,21.51L72.159,21.51z"/>
				</g>
			</g>
		</g>
		<g>
			<g>
				<g>
					<path fill="#3D3D3D" d="M89.712,14.799c-0.593,1.311-0.602,2.859-0.603,4.276c-0.001,1.194,1.85,1.194,1.851,0
						c0.001-1.046-0.09-2.369,0.35-3.342C91.797,14.654,90.203,13.712,89.712,14.799L89.712,14.799z"/>
				</g>
			</g>
			<g>
				<g>
					<path fill="#3D3D3D" d="M90.044,16.541c1.56,1.023,3.222,1.881,4.574,3.189c0.858,0.829,2.168-0.479,1.309-1.309
						c-1.468-1.419-3.255-2.367-4.949-3.478C89.977,14.286,89.05,15.889,90.044,16.541L90.044,16.541z"/>
				</g>
			</g>
			<g>
				<g>
					<path fill="#3D3D3D" d="M94.347,15.266c0,0.952,0,1.905,0,2.857c0,1.194,1.851,1.194,1.851,0c0-0.952,0-1.905,0-2.857
						C96.198,14.072,94.347,14.072,94.347,15.266L94.347,15.266z"/>
				</g>
			</g>
		</g>
		<g>
			<g>
				<g>
					<path fill="#3D3D3D" d="M82.735,15.046c1.169,0.479,2.599,1.108,3.381,2.153c0.756,1.01-0.911,1.524-1.638,1.774
						c-1.33,0.457-2.852,0.102-3.225-1.399c-0.312-1.257,0.955-2.192,1.974-2.528c1.128-0.373,0.644-2.161-0.492-1.785
						c-1.988,0.657-3.678,2.358-3.301,4.602c0.36,2.135,2.692,3.629,4.784,3.113c1.823-0.45,4.427-1.546,3.897-3.868
						c-0.46-2.02-3.216-3.16-4.889-3.847C82.122,12.808,81.646,14.599,82.735,15.046z"/>
				</g>
			</g>
		</g>
		<g>
			<g>
				<g>
					<path fill="#3D3D3D" d="M62.19,13.831c-0.017,1.236-0.119,2.472-0.159,3.707c-0.036,1.103-0.226,2.539,0.188,3.595
						c0.371,0.948,1.916,0.536,1.54-0.425c-0.395-1.008-0.155-2.44-0.12-3.495c0.037-1.127,0.133-2.255,0.149-3.383
						C63.802,12.8,62.205,12.802,62.19,13.831L62.19,13.831z"/>
				</g>
			</g>
			<g>
				<g>
					<path fill="#3D3D3D" d="M61.147,15.012c2.215-0.529,4.498-0.77,6.773-0.793c1.029-0.01,1.03-1.607,0-1.597
						c-2.411,0.024-4.85,0.29-7.197,0.85C59.721,13.711,60.145,15.251,61.147,15.012L61.147,15.012z"/>
				</g>
			</g>
		</g>
		<g>
			<g>
				<g>
					<path fill="#3D3D3D" d="M22.904,13.846c-0.91,2.035-1.042,4.749-0.569,6.903c0.255,1.166,2.04,0.671,1.785-0.492
						c-0.356-1.625-0.309-3.931,0.383-5.477C24.985,13.701,23.39,12.758,22.904,13.846L22.904,13.846z"/>
				</g>
			</g>
			<g>
				<g>
					<path fill="#3D3D3D" d="M23.226,21.429c1.111,0,2.222,0,3.333,0c1.194,0,1.194-1.851,0-1.851c-1.111,0-2.222,0-3.333,0
						C22.033,19.578,22.033,21.429,23.226,21.429L23.226,21.429z"/>
				</g>
			</g>
			<g>
				<g>
					<path fill="#3D3D3D" d="M24.179,18.096c0.635,0,1.27,0,1.905,0c1.194,0,1.194-1.851,0-1.851c-0.635,0-1.27,0-1.905,0
						C22.985,16.245,22.985,18.096,24.179,18.096L24.179,18.096z"/>
				</g>
			</g>
			<g>
				<g>
					<path fill="#3D3D3D" d="M23.226,15.715c2.35-0.033,4.618-0.521,6.912-0.985c1.169-0.237,0.673-2.021-0.492-1.785
						c-2.134,0.432-4.234,0.888-6.42,0.919C22.034,13.881,22.032,15.732,23.226,15.715L23.226,15.715z"/>
				</g>
			</g>
		</g>
		<g>
			<g>
				<g>
					<path fill="#3D3D3D" d="M39.587,13.846c-0.911,2.035-1.042,4.749-0.57,6.904c0.255,1.166,2.04,0.671,1.785-0.492
						c-0.356-1.625-0.309-3.932,0.383-5.478C41.668,13.701,40.073,12.758,39.587,13.846L39.587,13.846z"/>
				</g>
			</g>
			<g>
				<g>
					<path fill="#3D3D3D" d="M39.909,21.429c1.111,0,2.222,0,3.333,0c1.194,0,1.194-1.851,0-1.851c-1.111,0-2.222,0-3.333,0
						C38.716,19.578,38.716,21.429,39.909,21.429L39.909,21.429z"/>
				</g>
			</g>
			<g>
				<g>
					<path fill="#3D3D3D" d="M40.862,18.096c0.635,0,1.27,0,1.905,0c1.194,0,1.194-1.851,0-1.851c-0.635,0-1.27,0-1.905,0
						C39.668,16.245,39.668,18.096,40.862,18.096L40.862,18.096z"/>
				</g>
			</g>
			<g>
				<g>
					<path fill="#3D3D3D" d="M39.909,15.715c2.35-0.033,4.618-0.521,6.912-0.985c1.169-0.237,0.673-2.021-0.492-1.785
						c-2.133,0.432-4.233,0.888-6.42,0.919C38.717,13.881,38.715,15.732,39.909,15.715L39.909,15.715z"/>
				</g>
			</g>
		</g>
		<g>
			<g>
				<g>
					<path fill="#3D3D3D" d="M32.099,14.326c0,1.659,0,3.319,0,4.978c0,1.194,1.851,1.194,1.851,0c0-1.659,0-3.319,0-4.978
						C33.95,13.132,32.099,13.132,32.099,14.326L32.099,14.326z"/>
				</g>
			</g>
			<g>
				<g>
					<path fill="#3D3D3D" d="M33.025,20.94c1.185,0,2.371,0,3.556,0c1.194,0,1.194-1.851,0-1.851c-1.185,0-2.371,0-3.556,0
						C31.831,19.09,31.831,20.94,33.025,20.94L33.025,20.94z"/>
				</g>
			</g>
		</g>
		<g>
			<g>
				<path fill="#3D3D3D" d="M27.597,10.166c0.836-0.098,1.219-0.741,1.546-1.448c0.172-0.373,0.325-0.755,0.498-1.128
					c0.075-0.163,0.158-0.322,0.249-0.477c0.066-0.095,0.067-0.104,0.005-0.027c0.086-0.111-0.225,0.065-0.356,0.08
					c0.501-0.059,0.925-0.377,0.925-0.925c0-0.46-0.423-0.984-0.925-0.925c-0.836,0.098-1.219,0.741-1.546,1.448
					c-0.172,0.373-0.325,0.755-0.498,1.128c-0.075,0.163-0.158,0.322-0.249,0.477c-0.066,0.095-0.067,0.104-0.005,0.027
					c-0.086,0.111,0.225-0.065,0.356-0.08c-0.501,0.059-0.925,0.377-0.925,0.925C26.671,9.701,27.095,10.225,27.597,10.166
					L27.597,10.166z"/>
			</g>
		</g>
	</g>
</g>
<g>
	<g>
		<path fill="#3D3D3D" d="M169.252,32.379c1.194,0,1.194-1.851,0-1.851S168.059,32.379,169.252,32.379L169.252,32.379z"/>
	</g>
</g>
<g>
	<g>
		<path fill="#3D3D3D" d="M169.252,36.283c1.194,0,1.194-1.851,0-1.851S168.059,36.283,169.252,36.283L169.252,36.283z"/>
	</g>
</g>
<g>
	<g>
		<path fill="#3D3D3D" d="M87.601,44.971c12.657,0,25.315,0,37.972,0c0.548,0,0.548-0.85,0-0.85c-12.657,0-25.315,0-37.972,0
			C87.052,44.121,87.052,44.971,87.601,44.971L87.601,44.971z"/>
	</g>
</g>
<g>
	<g>
		<path fill="#3D3D3D" d="M55.573,28.775c0.502,0.059,0.926-0.465,0.925-0.925c0-0.548-0.424-0.866-0.925-0.925
			c0.131,0.015,0.442,0.191,0.356,0.08c0.062,0.077,0.061,0.068-0.005-0.027c-0.091-0.155-0.174-0.314-0.249-0.477
			c-0.173-0.373-0.326-0.755-0.498-1.128c-0.327-0.707-0.71-1.35-1.546-1.448c-0.502-0.059-0.925,0.465-0.925,0.925
			c0,0.548,0.508,0.777,0.574,0.872C53.371,25.877,54.737,28.677,55.573,28.775L55.573,28.775z"/>
	</g>
</g>
<g>
	<g>
		<g>
			<g>
				<path fill="#3D3D3D" d="M61.281,54.615c1.205-0.94,2.402-1.891,3.663-2.757c0.767-0.527,0.041-1.788-0.734-1.256
					c-1.362,0.936-2.654,1.968-3.957,2.984C59.514,54.162,60.551,55.184,61.281,54.615L61.281,54.615z"/>
			</g>
		</g>
		<g>
			<g>
				<path fill="#3D3D3D" d="M63.726,51.35c0.073,2.127,0.04,4.254-0.001,6.381c-0.018,0.938,1.436,0.936,1.454,0
					c0.04-2.127,0.074-4.254,0.001-6.381C65.148,50.415,63.694,50.412,63.726,51.35L63.726,51.35z"/>
			</g>
		</g>
		<g>
			<g>
				<path fill="#3D3D3D" d="M62.387,58.786c1.297,0.016,2.587-0.065,3.879-0.169c0.928-0.075,0.935-1.529,0-1.454
					c-1.292,0.104-2.583,0.186-3.879,0.169C61.449,57.32,61.451,58.774,62.387,58.786L62.387,58.786z"/>
			</g>
		</g>
	</g>
	<g>
		<g>
			<g>
				<path fill="#3D3D3D" d="M83.008,54.615c1.205-0.94,2.402-1.891,3.663-2.757c0.767-0.527,0.041-1.788-0.734-1.256
					c-1.362,0.936-2.654,1.968-3.957,2.984C81.241,54.162,82.278,55.184,83.008,54.615L83.008,54.615z"/>
			</g>
		</g>
		<g>
			<g>
				<path fill="#3D3D3D" d="M85.453,51.35c0.073,2.127,0.04,4.254-0.001,6.381c-0.018,0.938,1.436,0.936,1.454,0
					c0.04-2.127,0.074-4.254,0.001-6.381C86.875,50.415,85.421,50.412,85.453,51.35L85.453,51.35z"/>
			</g>
		</g>
		<g>
			<g>
				<path fill="#3D3D3D" d="M84.114,58.786c1.297,0.016,2.587-0.065,3.879-0.169c0.928-0.075,0.935-1.529,0-1.454
					c-1.292,0.104-2.583,0.186-3.879,0.169C83.176,57.32,83.177,58.774,84.114,58.786L84.114,58.786z"/>
			</g>
		</g>
	</g>
	<g>
		<g>
			<g>
				<path fill="#3D3D3D" d="M94.069,54.615c1.205-0.94,2.402-1.891,3.663-2.757c0.767-0.527,0.041-1.788-0.734-1.256
					c-1.362,0.936-2.654,1.968-3.957,2.984C92.302,54.162,93.339,55.184,94.069,54.615L94.069,54.615z"/>
			</g>
		</g>
		<g>
			<g>
				<path fill="#3D3D3D" d="M96.515,51.35c0.073,2.127,0.04,4.254-0.001,6.381c-0.018,0.938,1.436,0.936,1.454,0
					c0.04-2.127,0.074-4.254,0.001-6.381C97.937,50.415,96.482,50.412,96.515,51.35L96.515,51.35z"/>
			</g>
		</g>
		<g>
			<g>
				<path fill="#3D3D3D" d="M95.176,58.786c1.297,0.016,2.587-0.065,3.879-0.169c0.928-0.075,0.935-1.529,0-1.454
					c-1.292,0.104-2.583,0.186-3.879,0.169C94.238,57.32,94.239,58.774,95.176,58.786L95.176,58.786z"/>
			</g>
		</g>
	</g>
	<g>
		<g>
			<g>
				<path fill="#3D3D3D" d="M126.462,54.253c1.205-0.94,2.402-1.891,3.663-2.757c0.767-0.527,0.041-1.788-0.734-1.256
					c-1.362,0.936-2.654,1.968-3.957,2.984C124.695,53.801,125.732,54.822,126.462,54.253L126.462,54.253z"/>
			</g>
		</g>
		<g>
			<g>
				<path fill="#3D3D3D" d="M128.907,50.988c0.073,2.127,0.04,4.254-0.001,6.381c-0.018,0.938,1.436,0.936,1.454,0
					c0.04-2.127,0.074-4.254,0.001-6.381C130.329,50.053,128.875,50.05,128.907,50.988L128.907,50.988z"/>
			</g>
		</g>
		<g>
			<g>
				<path fill="#3D3D3D" d="M127.568,58.424c1.297,0.016,2.587-0.065,3.879-0.169c0.928-0.075,0.935-1.529,0-1.454
					c-1.292,0.104-2.583,0.186-3.879,0.169C126.63,56.958,126.631,58.412,127.568,58.424L127.568,58.424z"/>
			</g>
		</g>
	</g>
	<g>
		<g>
			<g>
				<path fill="#3D3D3D" d="M137.523,54.253c1.205-0.94,2.402-1.891,3.663-2.757c0.767-0.527,0.041-1.788-0.734-1.256
					c-1.362,0.936-2.654,1.968-3.957,2.984C135.756,53.801,136.793,54.822,137.523,54.253L137.523,54.253z"/>
			</g>
		</g>
		<g>
			<g>
				<path fill="#3D3D3D" d="M139.969,50.988c0.073,2.127,0.04,4.254-0.001,6.381c-0.018,0.938,1.436,0.936,1.454,0
					c0.04-2.127,0.074-4.254,0.001-6.381C141.391,50.053,139.936,50.05,139.969,50.988L139.969,50.988z"/>
			</g>
		</g>
		<g>
			<g>
				<path fill="#3D3D3D" d="M138.63,58.424c1.297,0.016,2.587-0.065,3.879-0.169c0.928-0.075,0.935-1.529,0-1.454
					c-1.292,0.104-2.583,0.186-3.879,0.169C137.691,56.958,137.693,58.412,138.63,58.424L138.63,58.424z"/>
			</g>
		</g>
	</g>
	<g>
		<g>
			<g>
				<path fill="#3D3D3D" d="M148.585,54.253c1.205-0.94,2.402-1.891,3.663-2.757c0.767-0.527,0.041-1.788-0.734-1.256
					c-1.362,0.936-2.654,1.968-3.957,2.984C146.818,53.801,147.855,54.822,148.585,54.253L148.585,54.253z"/>
			</g>
		</g>
		<g>
			<g>
				<path fill="#3D3D3D" d="M151.03,50.988c0.073,2.127,0.04,4.254-0.001,6.381c-0.018,0.938,1.436,0.936,1.454,0
					c0.04-2.127,0.074-4.254,0.001-6.381C152.452,50.053,150.998,50.05,151.03,50.988L151.03,50.988z"/>
			</g>
		</g>
		<g>
			<g>
				<path fill="#3D3D3D" d="M149.691,58.424c1.297,0.016,2.587-0.065,3.879-0.169c0.928-0.075,0.935-1.529,0-1.454
					c-1.292,0.104-2.583,0.186-3.879,0.169C148.753,56.958,148.754,58.412,149.691,58.424L149.691,58.424z"/>
			</g>
		</g>
	</g>
	<g>
		<g>
			<g>
				<path fill="#3D3D3D" d="M159.646,54.253c1.205-0.94,2.402-1.891,3.663-2.757c0.767-0.527,0.041-1.788-0.734-1.256
					c-1.362,0.936-2.654,1.968-3.957,2.984C157.879,53.801,158.916,54.822,159.646,54.253L159.646,54.253z"/>
			</g>
		</g>
		<g>
			<g>
				<path fill="#3D3D3D" d="M162.091,50.988c0.073,2.127,0.04,4.254-0.001,6.381c-0.018,0.938,1.436,0.936,1.454,0
					c0.04-2.127,0.074-4.254,0.001-6.381C163.513,50.053,162.059,50.05,162.091,50.988L162.091,50.988z"/>
			</g>
		</g>
		<g>
			<g>
				<path fill="#3D3D3D" d="M160.752,58.424c1.297,0.016,2.587-0.065,3.879-0.169c0.928-0.075,0.935-1.529,0-1.454
					c-1.292,0.104-2.583,0.186-3.879,0.169C159.814,56.958,159.815,58.412,160.752,58.424L160.752,58.424z"/>
			</g>
		</g>
	</g>
	<g>
		<g>
			<g>
				<path fill="#3D3D3D" d="M50.998,54.164c-0.268-1.299,0.186-2.606,1.579-2.55c0.405,0.016,0.8,0.241,0.997,0.597
					c0.266,0.481-0.088,1.233-0.391,1.725c-0.493,0.801,0.765,1.53,1.255,0.734c0.597-0.969,0.884-2.04,0.427-3.119
					c-0.368-0.868-1.33-1.286-2.204-1.385c-0.883-0.1-1.823,0.291-2.416,0.939c-0.859,0.939-0.893,2.264-0.65,3.445
					C49.785,55.469,51.187,55.079,50.998,54.164L50.998,54.164z"/>
			</g>
		</g>
		<g>
			<g>
				<path fill="#3D3D3D" d="M53.299,53.667c-1.153,1.381-2.231,2.822-3.351,4.229c-0.577,0.726,0.445,1.762,1.028,1.028
					c1.12-1.408,2.198-2.848,3.351-4.229C54.924,53.98,53.901,52.946,53.299,53.667L53.299,53.667z"/>
			</g>
		</g>
		<g>
			<g>
				<path fill="#3D3D3D" d="M50.101,59.007c1.796-0.112,3.566-0.42,5.297-0.908c0.901-0.254,0.518-1.657-0.387-1.402
					c-1.609,0.453-3.242,0.751-4.911,0.856C49.17,57.612,49.165,59.066,50.101,59.007L50.101,59.007z"/>
			</g>
		</g>
	</g>
	<g>
		<g>
			<g>
				<path fill="#3D3D3D" d="M72.725,54.164c-0.268-1.299,0.186-2.606,1.579-2.55c0.405,0.016,0.8,0.241,0.997,0.597
					c0.266,0.481-0.088,1.233-0.391,1.725c-0.493,0.801,0.765,1.53,1.256,0.734c0.597-0.969,0.884-2.04,0.427-3.119
					c-0.368-0.868-1.33-1.286-2.204-1.385c-0.883-0.1-1.823,0.291-2.416,0.939c-0.859,0.939-0.893,2.264-0.65,3.445
					C71.512,55.469,72.914,55.079,72.725,54.164L72.725,54.164z"/>
			</g>
		</g>
		<g>
			<g>
				<path fill="#3D3D3D" d="M75.026,53.667c-1.153,1.381-2.231,2.822-3.351,4.229c-0.577,0.726,0.445,1.762,1.028,1.028
					c1.12-1.408,2.198-2.848,3.351-4.229C76.651,53.98,75.628,52.946,75.026,53.667L75.026,53.667z"/>
			</g>
		</g>
		<g>
			<g>
				<path fill="#3D3D3D" d="M71.828,59.007c1.796-0.112,3.566-0.42,5.297-0.908c0.901-0.254,0.518-1.657-0.387-1.402
					c-1.609,0.453-3.242,0.751-4.911,0.856C70.897,57.612,70.892,59.066,71.828,59.007L71.828,59.007z"/>
			</g>
		</g>
	</g>
	<g>
		<g>
			<g>
				<path fill="#3D3D3D" d="M105.514,54.164c-0.268-1.299,0.186-2.606,1.579-2.55c0.405,0.016,0.8,0.241,0.997,0.597
					c0.266,0.481-0.088,1.233-0.391,1.725c-0.493,0.801,0.765,1.53,1.255,0.734c0.597-0.969,0.884-2.04,0.427-3.119
					c-0.368-0.868-1.33-1.286-2.204-1.385c-0.883-0.1-1.823,0.291-2.416,0.939c-0.859,0.939-0.893,2.264-0.65,3.445
					C104.301,55.469,105.702,55.079,105.514,54.164L105.514,54.164z"/>
			</g>
		</g>
		<g>
			<g>
				<path fill="#3D3D3D" d="M107.814,53.667c-1.153,1.381-2.231,2.822-3.351,4.229c-0.577,0.726,0.445,1.762,1.028,1.028
					c1.12-1.408,2.198-2.848,3.351-4.229C109.439,53.98,108.416,52.946,107.814,53.667L107.814,53.667z"/>
			</g>
		</g>
		<g>
			<g>
				<path fill="#3D3D3D" d="M104.617,59.007c1.796-0.112,3.566-0.42,5.297-0.908c0.901-0.254,0.518-1.657-0.387-1.402
					c-1.609,0.453-3.242,0.751-4.911,0.856C103.685,57.612,103.68,59.066,104.617,59.007L104.617,59.007z"/>
			</g>
		</g>
	</g>
	<g>
		<g>
			<g>
				<path fill="#3D3D3D" d="M116.611,54.164c-0.268-1.299,0.186-2.606,1.579-2.55c0.405,0.016,0.8,0.241,0.997,0.597
					c0.266,0.481-0.088,1.233-0.391,1.725c-0.493,0.801,0.765,1.53,1.256,0.734c0.597-0.969,0.884-2.04,0.427-3.119
					c-0.368-0.868-1.33-1.286-2.204-1.385c-0.883-0.1-1.823,0.291-2.416,0.939c-0.859,0.939-0.893,2.264-0.65,3.445
					C115.398,55.469,116.8,55.079,116.611,54.164L116.611,54.164z"/>
			</g>
		</g>
		<g>
			<g>
				<path fill="#3D3D3D" d="M118.912,53.667c-1.153,1.381-2.231,2.822-3.351,4.229c-0.577,0.726,0.445,1.762,1.028,1.028
					c1.12-1.408,2.198-2.848,3.351-4.229C120.537,53.98,119.514,52.946,118.912,53.667L118.912,53.667z"/>
			</g>
		</g>
		<g>
			<g>
				<path fill="#3D3D3D" d="M115.714,59.007c1.796-0.112,3.566-0.42,5.297-0.908c0.901-0.254,0.518-1.657-0.387-1.402
					c-1.609,0.453-3.242,0.751-4.911,0.856C114.783,57.612,114.778,59.066,115.714,59.007L115.714,59.007z"/>
			</g>
		</g>
	</g>
	<g>
		<g>
			<g>
				<path fill="#3D3D3D" d="M108.312,63.082c0,1.491,0,2.983,0,4.474c0,1.073,1.664,1.073,1.664,0c0-1.491,0-2.983,0-4.474
					C109.976,62.01,108.312,62.01,108.312,63.082L108.312,63.082z"/>
			</g>
		</g>
		<g>
			<g>
				<path fill="#3D3D3D" d="M109.144,69.028c1.065,0,2.131,0,3.196,0c1.073,0,1.073-1.664,0-1.664c-1.065,0-2.131,0-3.196,0
					C108.071,67.364,108.071,69.028,109.144,69.028L109.144,69.028z"/>
			</g>
		</g>
	</g>
	<g>
		<g>
			<g>
				<path fill="#3D3D3D" d="M144.341,62.504c-1.321-0.193-3.353-0.522-4.282,0.735c-0.95,1.285,0.626,2.892,1.489,3.698
					c0.783,0.731,1.962-0.443,1.176-1.176c-0.412-0.384-0.817-0.78-1.116-1.261c-0.086-0.139-0.117-0.211-0.158-0.362
					c0.005,0.019-0.033,0.058,0.003-0.002c-0.062,0.104,0.048,0,0.01,0.015c0.167-0.069,0.356-0.11,0.535-0.129
					c0.628-0.067,1.279-0.003,1.901,0.087c0.448,0.065,0.892-0.104,1.023-0.581C145.031,63.131,144.79,62.569,144.341,62.504
					L144.341,62.504z"/>
			</g>
		</g>
		<g>
			<g>
				<path fill="#3D3D3D" d="M141.418,66.767c0.265,0.384,0.559,0.819,0.708,1.235c0.03,0.083,0.05,0.168,0.07,0.253
					c-0.039-0.167,0,0.033,0,0.07c0.002,0.209,0.045-0.164-0.012,0.018c0.054-0.175,0.059-0.152,0.142-0.207
					c-0.157,0.105,0.168-0.048-0.032,0.008c-0.213,0.06,0.171-0.005-0.076,0.009c-0.223,0.013-0.366-0.016-0.565-0.056
					c-0.606-0.122-1.199-0.349-1.765-0.594c-0.416-0.18-0.889-0.128-1.138,0.298c-0.208,0.355-0.118,0.958,0.298,1.138
					c1.114,0.481,2.981,1.389,4.164,0.601c1.329-0.886,0.302-2.658-0.358-3.613C142.248,65.052,140.805,65.883,141.418,66.767
					L141.418,66.767z"/>
			</g>
		</g>
	</g>
	<g>
		<g>
			<g>
				<path fill="#3D3D3D" d="M65.973,62.92c-1.091,0.395-2.144-0.224-3.196,0.635c-1.527,1.247-1.367,2.47-0.377,4.02
					c1.57,2.458,4.818,1.434,7.218,1.687c1.066,0.112,1.056-1.552,0-1.664c-1.626-0.171-3.843,0.476-5.302-0.386
					c-1.046-0.617-1.502-2.396,0.113-2.605c0.673-0.087,1.326,0.156,1.987-0.083C67.416,64.162,66.984,62.555,65.973,62.92
					L65.973,62.92z"/>
			</g>
		</g>
	</g>
	<g>
		<g>
			<g>
				<path fill="#3D3D3D" d="M159.843,64.102c0.215,1.079,0.179,2.185,0.411,3.261c0.251,1.167,1.104,1.994,2.037,2.659
					c0.343,0.245,0.962,0.089,1.138-0.298c1.015-2.228,0.923-4.494,0.63-6.875c-0.129-1.05-1.794-1.063-1.664,0
					c0.25,2.03,0.472,4.117-0.403,6.036c0.379-0.099,0.759-0.199,1.138-0.298c-1.704-1.216-1.318-3.092-1.684-4.926
					C161.238,62.609,159.634,63.055,159.843,64.102L159.843,64.102z"/>
			</g>
		</g>
	</g>
	<g>
		<g>
			<g>
				<path fill="#3D3D3D" d="M99.965,63.494c0.015,1.703,0.157,3.465,0.546,5.127c0.244,1.044,1.848,0.601,1.604-0.442
					c-0.356-1.522-0.473-3.126-0.487-4.685C101.619,62.422,99.955,62.421,99.965,63.494L99.965,63.494z"/>
			</g>
		</g>
		<g>
			<g>
				<path fill="#3D3D3D" d="M98.856,64.067c1.296-0.015,2.578-0.239,3.873-0.258c1.072-0.016,1.073-1.679,0-1.664
					c-1.295,0.019-2.577,0.243-3.873,0.258C97.784,62.417,97.783,64.08,98.856,64.067L98.856,64.067z"/>
			</g>
		</g>
		<g>
			<g>
				<path fill="#3D3D3D" d="M99.852,69.977c1.388-0.292,2.74-0.712,4.169-0.745c1.071-0.025,1.073-1.688,0-1.664
					c-1.58,0.036-3.076,0.482-4.611,0.804C98.36,68.594,98.805,70.197,99.852,69.977L99.852,69.977z"/>
			</g>
		</g>
	</g>
	<g>
		<g>
			<g>
				<path fill="#3D3D3D" d="M119.648,64.167c1.05,0.431,2.336,0.996,3.039,1.935c0.68,0.907-0.818,1.37-1.472,1.595
					c-1.195,0.411-2.564,0.092-2.898-1.257c-0.28-1.13,0.859-1.97,1.774-2.273c1.013-0.335,0.579-1.942-0.442-1.604
					c-1.787,0.591-3.306,2.119-2.967,4.136c0.323,1.919,2.42,3.262,4.3,2.798c1.639-0.404,3.979-1.39,3.503-3.477
					c-0.414-1.815-2.891-2.841-4.394-3.457C119.098,62.155,118.67,63.765,119.648,64.167z"/>
			</g>
		</g>
	</g>
	<g>
		<g>
			<g>
				<path fill="#3D3D3D" d="M150.372,63.075c-0.016,1.111-0.107,2.221-0.143,3.332c-0.032,0.991-0.203,2.282,0.169,3.231
					c0.334,0.852,1.722,0.481,1.384-0.382c-0.355-0.906-0.139-2.194-0.108-3.141c0.033-1.013,0.119-2.027,0.134-3.04
					C151.82,62.149,150.385,62.15,150.372,63.075L150.372,63.075z"/>
			</g>
		</g>
		<g>
			<g>
				<path fill="#3D3D3D" d="M149.434,64.136c1.991-0.475,4.042-0.692,6.087-0.713c0.925-0.009,0.926-1.445,0-1.435
					c-2.167,0.022-4.359,0.26-6.469,0.764C148.152,62.967,148.534,64.351,149.434,64.136L149.434,64.136z"/>
			</g>
		</g>
	</g>
	<g>
		<g>
			<g>
				<path fill="#3D3D3D" d="M74.629,63.088c-0.818,1.829-0.936,4.268-0.512,6.205c0.23,1.048,1.833,0.603,1.604-0.442
					c-0.32-1.46-0.277-3.533,0.344-4.923C76.499,62.958,75.066,62.111,74.629,63.088L74.629,63.088z"/>
			</g>
		</g>
		<g>
			<g>
				<path fill="#3D3D3D" d="M74.919,69.904c0.999,0,1.997,0,2.996,0c1.073,0,1.073-1.664,0-1.664c-0.999,0-1.997,0-2.996,0
					C73.846,68.24,73.846,69.904,74.919,69.904L74.919,69.904z"/>
			</g>
		</g>
		<g>
			<g>
				<path fill="#3D3D3D" d="M75.775,66.908c0.571,0,1.141,0,1.712,0c1.073,0,1.073-1.664,0-1.664c-0.571,0-1.141,0-1.712,0
					C74.702,65.244,74.702,66.908,75.775,66.908L75.775,66.908z"/>
			</g>
		</g>
		<g>
			<g>
				<path fill="#3D3D3D" d="M74.919,64.768c2.112-0.03,4.151-0.468,6.213-0.886c1.051-0.213,0.605-1.816-0.442-1.604
					c-1.918,0.388-3.805,0.798-5.771,0.826C73.847,63.12,73.845,64.783,74.919,64.768L74.919,64.768z"/>
			</g>
		</g>
	</g>
	<g>
		<g>
			<g>
				<g>
					<path fill="#3D3D3D" d="M128.913,64.052c0.172,1.669,0.361,3.375,0.801,4.998c0.242,0.892,1.627,0.513,1.384-0.382
						c-0.407-1.502-0.59-3.072-0.75-4.617C130.254,63.141,128.818,63.131,128.913,64.052L128.913,64.052z"/>
				</g>
			</g>
			<g>
				<g>
					<path fill="#3D3D3D" d="M129.218,64.051c0.728-0.479,2.307-1.276,2.982-0.264c0.693,1.04-0.918,2.053-1.674,2.364
						c-0.844,0.347-0.475,1.736,0.382,1.384c1.732-0.711,3.489-2.267,2.624-4.302c-0.871-2.049-3.645-1.338-5.038-0.422
						C127.723,63.318,128.442,64.562,129.218,64.051L129.218,64.051z"/>
				</g>
			</g>
		</g>
		<g>
			<g>
				<path fill="#3D3D3D" d="M131.128,67.784c1.114,0.409,1.83,1.539,2.629,2.354c0.752,0.767,1.927-0.41,1.176-1.176
					c-1.047-1.069-1.907-2.247-3.363-2.782C130.561,65.81,130.13,67.418,131.128,67.784L131.128,67.784z"/>
			</g>
		</g>
	</g>
	<g>
		<g>
			<g>
				<path fill="#3D3D3D" d="M51.178,66.949c0.288-1.204,0.278-2.376,1.761-2.421c-0.269-0.205-0.538-0.41-0.807-0.615
					c0.517,1.782,2.057,3.008,2.568,4.77c0.3,1.035,1.916,0.594,1.615-0.445c-0.517-1.782-2.057-3.008-2.568-4.77
					c-0.102-0.35-0.433-0.626-0.807-0.615c-0.961,0.029-1.902,0.248-2.497,1.063c-0.545,0.747-0.668,1.71-0.878,2.587
					C49.312,67.554,50.927,67.999,51.178,66.949L51.178,66.949z"/>
			</g>
		</g>
		<g>
			<g>
				<path fill="#3D3D3D" d="M48.881,67.1c2.745-0.774,5.481-1.241,8.337-1.271c1.079-0.011,1.08-1.686,0-1.674
					c-3.003,0.031-5.895,0.517-8.782,1.331C47.399,65.778,47.84,67.394,48.881,67.1L48.881,67.1z"/>
			</g>
		</g>
	</g>
	<g>
		<g>
			<g>
				<path fill="#3D3D3D" d="M92.385,61.929c-2.592,0.002-5.98,0.162-6.971,3.049c-0.954,2.778,1.319,4.405,3.779,4.81
					c1.049,0.173,1.499-1.43,0.442-1.604c-1.846-0.304-3.222-1.001-2.524-3.034c0.597-1.738,3.869-1.557,5.274-1.558
					C93.458,63.592,93.458,61.928,92.385,61.929L92.385,61.929z"/>
			</g>
		</g>
		<g>
			<g>
				<path fill="#3D3D3D" d="M88.994,69.704c1.033,0.457,2.127,0.601,3.042-0.177c0.838-0.713,0.821-2.029,0.579-2.995
					c-0.26-1.04-1.865-0.599-1.604,0.442c0.12,0.478,0.146,0.961-0.099,1.336c-0.127,0.194-0.671,0.137-1.078-0.043
					c-0.415-0.183-0.89-0.125-1.138,0.298C88.486,68.924,88.579,69.521,88.994,69.704L88.994,69.704z"/>
			</g>
		</g>
		<g>
			<g>
				<path fill="#3D3D3D" d="M88.934,67.138c1.551,0.001,3.058,0.08,4.577,0.417c1.045,0.232,1.489-1.372,0.442-1.604
					c-1.662-0.369-3.321-0.476-5.019-0.476C87.861,65.474,87.861,67.138,88.934,67.138L88.934,67.138z"/>
			</g>
		</g>
	</g>
</g>
</svg>
