<?xml version="1.0" encoding="utf-8"?>
<!-- Generator: Adobe Illustrator 17.0.0, SVG Export Plug-In . SVG Version: 6.00 Build 0)  -->
<!DOCTYPE svg PUBLIC "-//W3C//DTD SVG 1.1//EN" "http://www.w3.org/Graphics/SVG/1.1/DTD/svg11.dtd" [
	<!ENTITY st0 "fill:#3D3D3D;">
]>
<svg version="1.1" id="Calque_1" xmlns="http://www.w3.org/2000/svg" xmlns:xlink="http://www.w3.org/1999/xlink" x="0px" y="0px"
	 width="120.73px" height="56.16px" viewBox="0 0 120.73 56.16" style="enable-background:new 0 0 120.73 56.16;"
	 xml:space="preserve">
<g>
	<g>
		<g>
			<g>
				<g>
					<path style="&st0;" d="M72.157,6.379c0,1.616,0,3.233,0,4.849c0,1.178,1.827,1.178,1.827,0c0-1.616,0-3.233,0-4.849
						C73.983,5.201,72.157,5.201,72.157,6.379L72.157,6.379z"/>
				</g>
			</g>
			<g>
				<g>
					<path style="&st0;" d="M73.07,12.834c1.185,0,2.371,0,3.556,0c1.178,0,1.178-1.827,0-1.827c-1.185,0-2.371,0-3.556,0
						C71.892,11.007,71.892,12.834,73.07,12.834L73.07,12.834z"/>
				</g>
			</g>
		</g>
		<g>
			<g>
				<g>
					<path style="&st0;" d="M82.306,5.906c-0.906,1.973-1.04,4.638-0.568,6.734c0.258,1.149,2.02,0.662,1.761-0.486
						c-0.355-1.578-0.303-3.829,0.384-5.326C84.371,5.765,82.797,4.836,82.306,5.906L82.306,5.906z"/>
				</g>
			</g>
			<g>
				<g>
					<path style="&st0;" d="M82.618,13.31c1.111,0,2.222,0,3.333,0c1.178,0,1.178-1.827,0-1.827c-1.111,0-2.222,0-3.333,0
						C81.44,11.483,81.44,13.31,82.618,13.31L82.618,13.31z"/>
				</g>
			</g>
			<g>
				<g>
					<path style="&st0;" d="M83.571,10.063c0.635,0,1.27,0,1.905,0c1.178,0,1.178-1.827,0-1.827c-0.635,0-1.27,0-1.905,0
						C82.393,8.236,82.393,10.063,83.571,10.063L83.571,10.063z"/>
				</g>
			</g>
			<g>
				<g>
					<path style="&st0;" d="M82.618,7.744c2.347-0.032,4.616-0.508,6.909-0.96c1.155-0.228,0.665-1.988-0.486-1.761
						c-2.135,0.421-4.238,0.865-6.424,0.895C81.441,5.933,81.44,7.76,82.618,7.744L82.618,7.744z"/>
				</g>
			</g>
		</g>
		<g>
			<g>
				<g>
					<path style="&st0;" d="M55.929,6.849c0-0.086,0-0.173,0-0.259c0-1.178-1.827-1.178-1.827,0c0,1.323,0,2.647,0,3.97
						c0,1.178,1.827,1.178,1.827,0c0-1.323,0-2.647,0-3.97c0-1.178-1.827-1.178-1.827,0c0,0.086,0,0.173,0,0.259
						C54.103,8.027,55.929,8.027,55.929,6.849L55.929,6.849z"/>
				</g>
			</g>
			<g>
				<g>
					<path style="&st0;" d="M53.111,7.299c1.768-0.018,3.343-0.266,4.449,1.403c0.048-0.369,0.095-0.738,0.143-1.107
						c-1.406,1.368-2.815,2.67-4.577,3.568c-1.05,0.535-0.125,2.111,0.922,1.577c1.894-0.965,3.435-2.382,4.947-3.854
						c0.281-0.274,0.366-0.77,0.143-1.107c-0.667-1.007-1.456-1.726-2.607-2.124c-1.076-0.371-2.307-0.196-3.419-0.184
						C51.934,5.484,51.933,7.311,53.111,7.299L53.111,7.299z"/>
				</g>
			</g>
		</g>
		<g>
			<g>
				<g>
					<path style="&st0;" d="M28.338,5.695c0.001,1.411-0.105,3.266,0.958,4.359c0.822,0.846,2.113-0.447,1.292-1.292
						c-0.626-0.643-0.422-2.248-0.423-3.067C30.165,4.517,28.338,4.517,28.338,5.695L28.338,5.695z"/>
				</g>
			</g>
			<g>
				<g>
					<path style="&st0;" d="M27.424,6.575c0.824-0.123,1.633-0.251,2.404-0.342c0.336-0.039,0.674-0.07,1.012-0.087
						c0.127-0.006,0.253-0.007,0.38-0.006c0.081,0.001,0.5,0.05,0.189,0.002c0.086,0.013,0.348,0.113,0.047-0.016
						c0.078,0.033,0.152,0.125-0.067-0.065c-0.094-0.082-0.126-0.154-0.16-0.273c-0.035-0.118-0.035-0.236-0.002-0.353
						c-0.012,0.073-0.087,0.184,0.032-0.059c-0.024,0.049-0.055,0.093-0.085,0.138c0.138-0.204,0.006-0.013-0.027,0.026
						c-0.65,0.742-1.546,1.296-2.354,1.842c-0.97,0.655-0.057,2.239,0.922,1.577c0.968-0.654,2.062-1.328,2.817-2.236
						c0.554-0.667,0.747-1.634-0.118-2.155c-0.62-0.373-1.506-0.265-2.19-0.202c-1.099,0.102-2.192,0.285-3.283,0.449
						c-0.493,0.074-0.758,0.688-0.638,1.124C26.445,6.46,26.932,6.649,27.424,6.575L27.424,6.575z"/>
				</g>
			</g>
			<g>
				<g>
					<path style="&st0;" d="M31.599,9.481c0.936,0.197,1.916,0.389,2.797,0.776c0.205,0.09,0.417,0.202,0.557,0.341
						c-0.176-0.175,0.002-0.498-0.051-0.44c-0.367,0.408-1.078,0.611-1.579,0.794c-1.03,0.374-2.098,0.646-3.161,0.908
						c-1.143,0.281-0.658,2.043,0.486,1.761c1.402-0.345,2.818-0.711,4.143-1.297c0.709-0.314,1.59-0.758,1.833-1.564
						c0.652-2.163-3.25-2.77-4.538-3.04C30.935,7.478,30.446,9.239,31.599,9.481L31.599,9.481z"/>
				</g>
			</g>
		</g>
		<g>
			<g>
				<g>
					<path style="&st0;" d="M63.264,7.014c0.239,1.168,0.199,2.369,0.457,3.534c0.282,1.275,1.232,2.174,2.261,2.889
						c0.382,0.266,1.05,0.099,1.25-0.328c1.128-2.411,1.026-4.872,0.699-7.457c-0.146-1.152-1.974-1.167-1.827,0
						c0.278,2.202,0.521,4.459-0.45,6.535c0.417-0.109,0.833-0.218,1.25-0.328c-1.892-1.315-1.467-3.319-1.879-5.331
						C64.789,5.374,63.029,5.864,63.264,7.014L63.264,7.014z"/>
				</g>
			</g>
		</g>
		<g>
			<g>
				<g>
					<path style="&st0;" d="M42.816,6.351c0.017,1.846,0.175,3.761,0.607,5.56c0.275,1.145,2.036,0.659,1.761-0.486
						c-0.395-1.646-0.527-3.385-0.542-5.074C44.632,5.174,42.805,5.173,42.816,6.351L42.816,6.351z"/>
				</g>
			</g>
			<g>
				<g>
					<path style="&st0;" d="M41.57,6.985c1.442-0.017,2.869-0.259,4.309-0.28c1.177-0.017,1.179-1.843,0-1.827
						c-1.441,0.02-2.868,0.263-4.309,0.28C40.393,5.172,40.392,6.998,41.57,6.985L41.57,6.985z"/>
				</g>
			</g>
			<g>
				<g>
					<path style="&st0;" d="M42.675,13.389c1.546-0.317,3.052-0.771,4.641-0.807c1.176-0.026,1.179-1.853,0-1.827
						c-1.754,0.039-3.42,0.522-5.127,0.872C41.036,11.864,41.525,13.624,42.675,13.389L42.675,13.389z"/>
				</g>
			</g>
		</g>
	</g>
	<g>
		<g>
			<path style="&st0;" d="M93.549,9.888c1.178,0,1.178-1.827,0-1.827S92.371,9.888,93.549,9.888L93.549,9.888z"/>
		</g>
	</g>
	<g>
		<g>
			<path style="&st0;" d="M93.549,13.788c1.178,0,1.178-1.827,0-1.827S92.371,13.788,93.549,13.788L93.549,13.788z"/>
		</g>
	</g>
</g>
<g>
	<g>
		<g>
			<g>
				<path style="&st0;" d="M60.511,42.557c-0.785,1.714-0.836,3.59-0.838,5.445c-0.001,1.194,1.85,1.194,1.851,0
					c0.001-1.49-0.05-3.126,0.585-4.511C62.603,42.415,61.008,41.473,60.511,42.557L60.511,42.557z"/>
			</g>
		</g>
		<g>
			<g>
				<path style="&st0;" d="M60.656,43.679c0.93,0.93,2.096,2.306,3.499,2.405c1.192,0.084,1.184-1.768,0-1.851
					c0.227,0.016-0.08-0.046,0.008-0.006c-0.113-0.052-0.218-0.121-0.323-0.186c-0.226-0.142-0.428-0.314-0.63-0.487
					c-0.435-0.372-0.84-0.778-1.245-1.182C61.12,41.526,59.811,42.834,60.656,43.679L60.656,43.679z"/>
			</g>
		</g>
		<g>
			<g>
				<path style="&st0;" d="M64.098,45.812c0.859-0.821,1.982-1.309,2.845-2.133c0.864-0.826-0.446-2.133-1.309-1.309
					c-0.859,0.821-1.982,1.309-2.845,2.133C61.925,45.33,63.236,46.637,64.098,45.812L64.098,45.812z"/>
			</g>
		</g>
		<g>
			<g>
				<path style="&st0;" d="M64.652,43.024c0.001,2.253,0.072,4.478,0.744,6.646c0.352,1.136,2.139,0.651,1.785-0.492
					c-0.625-2.016-0.677-4.061-0.678-6.154C66.502,41.831,64.651,41.831,64.652,43.024L64.652,43.024z"/>
			</g>
		</g>
	</g>
	<g>
		<g>
			<g>
				<path style="&st0;" d="M89.358,42.25c-1.47-0.215-3.73-0.581-4.764,0.817c-1.057,1.43,0.696,3.218,1.656,4.114
					c0.871,0.813,2.183-0.493,1.309-1.309c-0.458-0.428-0.909-0.868-1.242-1.403c-0.096-0.154-0.13-0.235-0.175-0.403
					c0.006,0.021-0.036,0.065,0.004-0.002c-0.069,0.116,0.053,0,0.011,0.017c0.186-0.077,0.396-0.123,0.595-0.144
					c0.698-0.074,1.423-0.004,2.115,0.097c0.499,0.073,0.992-0.116,1.138-0.646C90.125,42.948,89.858,42.323,89.358,42.25
					L89.358,42.25z"/>
			</g>
		</g>
		<g>
			<g>
				<path style="&st0;" d="M86.105,46.994c0.295,0.427,0.622,0.911,0.787,1.374c0.033,0.092,0.056,0.186,0.078,0.281
					c-0.043-0.185,0,0.036,0,0.078c0.002,0.232,0.05-0.182-0.013,0.02c0.06-0.195,0.065-0.169,0.158-0.23
					c-0.175,0.117,0.187-0.053-0.035,0.009c-0.237,0.067,0.19-0.006-0.084,0.01c-0.248,0.014-0.408-0.018-0.628-0.062
					c-0.674-0.136-1.334-0.389-1.964-0.661c-0.463-0.2-0.989-0.142-1.266,0.332c-0.231,0.395-0.131,1.066,0.332,1.266
					c1.239,0.535,3.317,1.546,4.632,0.669c1.479-0.986,0.336-2.957-0.399-4.019C87.029,45.085,85.424,46.01,86.105,46.994
					L86.105,46.994z"/>
			</g>
		</g>
	</g>
	<g>
		<g>
			<g>
				<path style="&st0;" d="M94.083,44.549c1.154,1.716,2.429,3.422,4.141,4.618c0.981,0.685,1.905-0.921,0.934-1.598
					c-1.437-1.003-2.512-2.517-3.477-3.954C95.019,42.63,93.415,43.555,94.083,44.549L94.083,44.549z"/>
			</g>
		</g>
		<g>
			<g>
				<path style="&st0;" d="M99.014,48.835c0.731-1.462,1.484-2.917,2.381-4.286c0.656-1.001-0.947-1.928-1.598-0.934
					c-0.897,1.369-1.649,2.823-2.381,4.286C96.884,48.965,98.48,49.902,99.014,48.835L99.014,48.835z"/>
			</g>
		</g>
	</g>
	<g>
		<g>
			<g>
				<path style="&st0;" d="M49.941,43.107c0.017,1.895,0.175,3.856,0.608,5.705c0.272,1.162,2.056,0.669,1.785-0.492
					c-0.396-1.693-0.526-3.478-0.542-5.213C51.782,41.914,49.931,41.913,49.941,43.107L49.941,43.107z"/>
			</g>
		</g>
		<g>
			<g>
				<path style="&st0;" d="M48.708,43.745c1.442-0.017,2.869-0.266,4.309-0.287c1.192-0.017,1.194-1.868,0-1.851
					c-1.441,0.021-2.867,0.27-4.309,0.287C47.515,41.908,47.514,43.759,48.708,43.745L48.708,43.745z"/>
			</g>
		</g>
		<g>
			<g>
				<path style="&st0;" d="M49.816,50.319c1.545-0.325,3.048-0.792,4.638-0.829c1.192-0.027,1.194-1.878,0-1.851
					c-1.758,0.04-3.422,0.536-5.13,0.895C48.156,48.78,48.652,50.564,49.816,50.319L49.816,50.319z"/>
			</g>
		</g>
	</g>
	<g>
		<g>
			<g>
				<path style="&st0;" d="M28.271,43.618c0-0.089,0-0.177,0-0.266c0-1.194-1.851-1.194-1.851,0c0,1.359,0,2.717,0,4.076
					c0,1.194,1.851,1.194,1.851,0c0-1.359,0-2.717,0-4.076c0-1.194-1.851-1.194-1.851,0c0,0.089,0,0.177,0,0.266
					C26.42,44.812,28.271,44.812,28.271,43.618L28.271,43.618z"/>
			</g>
		</g>
		<g>
			<g>
				<path style="&st0;" d="M25.441,44.067c1.792-0.019,3.338-0.259,4.439,1.446c0.048-0.374,0.096-0.748,0.145-1.121
					c-1.401,1.4-2.805,2.739-4.574,3.665c-1.058,0.554-0.122,2.151,0.934,1.598c1.903-0.996,3.441-2.448,4.949-3.954
					c0.284-0.284,0.369-0.774,0.145-1.121c-0.663-1.028-1.453-1.763-2.615-2.174c-1.073-0.38-2.311-0.2-3.422-0.189
					C24.248,42.229,24.247,44.08,25.441,44.067L25.441,44.067z"/>
			</g>
		</g>
	</g>
	<g>
		<g>
			<g>
				<path style="&st0;" d="M36.323,42.901c-0.91,2.035-1.042,4.749-0.569,6.903c0.255,1.166,2.04,0.671,1.785-0.492
					c-0.356-1.625-0.309-3.931,0.383-5.477C38.405,42.755,36.81,41.813,36.323,42.901L36.323,42.901z"/>
			</g>
		</g>
		<g>
			<g>
				<path style="&st0;" d="M36.646,50.483c1.111,0,2.222,0,3.333,0c1.194,0,1.194-1.851,0-1.851c-1.111,0-2.222,0-3.333,0
					C35.453,48.632,35.453,50.483,36.646,50.483L36.646,50.483z"/>
			</g>
		</g>
		<g>
			<g>
				<path style="&st0;" d="M37.599,47.15c0.635,0,1.27,0,1.905,0c1.194,0,1.194-1.851,0-1.851c-0.635,0-1.27,0-1.905,0
					C36.405,45.299,36.405,47.15,37.599,47.15L37.599,47.15z"/>
			</g>
		</g>
		<g>
			<g>
				<path style="&st0;" d="M36.646,44.769c2.35-0.033,4.618-0.521,6.912-0.985c1.169-0.237,0.673-2.021-0.492-1.785
					c-2.134,0.432-4.234,0.888-6.42,0.919C35.454,42.935,35.452,44.786,36.646,44.769L36.646,44.769z"/>
			</g>
		</g>
	</g>
	<g>
		<g>
			<g>
				<g>
					<path style="&st0;" d="M72.123,43.973c0.192,1.857,0.402,3.755,0.891,5.561c0.269,0.993,1.81,0.571,1.54-0.425
						c-0.453-1.671-0.657-3.418-0.834-5.136C73.615,42.959,72.017,42.948,72.123,43.973L72.123,43.973z"/>
				</g>
			</g>
			<g>
				<g>
					<path style="&st0;" d="M72.462,43.972c0.81-0.533,2.567-1.42,3.318-0.294c0.771,1.157-1.022,2.285-1.862,2.63
						c-0.939,0.386-0.528,1.932,0.425,1.54c1.927-0.792,3.882-2.522,2.92-4.786c-0.969-2.28-4.055-1.489-5.605-0.469
						C70.799,43.156,71.598,44.54,72.462,43.972L72.462,43.972z"/>
				</g>
			</g>
		</g>
		<g>
			<g>
				<path style="&st0;" d="M74.587,48.125c1.24,0.455,2.036,1.712,2.925,2.619c0.836,0.854,2.144-0.456,1.309-1.309
					c-1.165-1.189-2.121-2.5-3.742-3.095C73.956,45.928,73.477,47.717,74.587,48.125L74.587,48.125z"/>
			</g>
		</g>
	</g>
	<g>
		<g>
			<g>
				<path style="&st0;" d="M12.95,47.071c0.32-1.339,0.31-2.644,1.959-2.693c-0.299-0.228-0.599-0.456-0.898-0.684
					c0.575,1.983,2.288,3.347,2.857,5.307c0.334,1.151,2.132,0.661,1.796-0.495c-0.575-1.983-2.288-3.347-2.857-5.307
					c-0.113-0.39-0.482-0.696-0.898-0.684c-1.07,0.032-2.116,0.275-2.778,1.183c-0.607,0.831-0.744,1.902-0.977,2.878
					C10.874,47.744,12.671,48.239,12.95,47.071L12.95,47.071z"/>
			</g>
		</g>
		<g>
			<g>
				<path style="&st0;" d="M10.395,47.239c3.054-0.861,6.098-1.381,9.276-1.414c1.201-0.013,1.202-1.876,0-1.863
					c-3.341,0.035-6.558,0.575-9.771,1.481C8.745,45.768,9.236,47.566,10.395,47.239L10.395,47.239z"/>
			</g>
		</g>
	</g>
	<g>
		<g>
			<g>
				<path style="&st0;" d="M24.237,32.311c1.341-1.046,2.673-2.104,4.075-3.067c0.854-0.587,0.046-1.99-0.816-1.397
					c-1.515,1.042-2.953,2.19-4.402,3.32C22.271,31.808,23.425,32.944,24.237,32.311L24.237,32.311z"/>
			</g>
		</g>
		<g>
			<g>
				<path style="&st0;" d="M26.958,28.679c0.081,2.367,0.044,4.733-0.001,7.1c-0.02,1.044,1.598,1.042,1.618,0
					c0.045-2.367,0.082-4.733,0.001-7.1C28.54,27.639,26.922,27.635,26.958,28.679L26.958,28.679z"/>
			</g>
		</g>
		<g>
			<g>
				<path style="&st0;" d="M25.468,36.952c1.443,0.018,2.879-0.073,4.316-0.189c1.032-0.083,1.041-1.702,0-1.618
					c-1.437,0.116-2.873,0.207-4.316,0.189C24.424,35.321,24.426,36.939,25.468,36.952L25.468,36.952z"/>
			</g>
		</g>
	</g>
	<g>
		<g>
			<g>
				<path style="&st0;" d="M46.96,32.311c1.341-1.046,2.673-2.104,4.075-3.067c0.854-0.587,0.046-1.99-0.816-1.397
					c-1.515,1.042-2.953,2.19-4.402,3.32C44.994,31.808,46.148,32.944,46.96,32.311L46.96,32.311z"/>
			</g>
		</g>
		<g>
			<g>
				<path style="&st0;" d="M49.681,28.679c0.081,2.367,0.044,4.733-0.001,7.1c-0.02,1.044,1.598,1.042,1.618,0
					c0.045-2.367,0.082-4.733,0.001-7.1C51.263,27.639,49.645,27.635,49.681,28.679L49.681,28.679z"/>
			</g>
		</g>
		<g>
			<g>
				<path style="&st0;" d="M48.191,36.952c1.443,0.018,2.879-0.073,4.316-0.189c1.032-0.083,1.041-1.702,0-1.618
					c-1.437,0.116-2.873,0.207-4.316,0.189C47.147,35.321,47.149,36.939,48.191,36.952L48.191,36.952z"/>
			</g>
		</g>
	</g>
	<g>
		<g>
			<g>
				<path style="&st0;" d="M58.663,32.311c1.341-1.046,2.673-2.104,4.075-3.067c0.854-0.587,0.046-1.99-0.816-1.397
					c-1.515,1.042-2.953,2.19-4.402,3.32C56.698,31.808,57.851,32.944,58.663,32.311L58.663,32.311z"/>
			</g>
		</g>
		<g>
			<g>
				<path style="&st0;" d="M61.384,28.679c0.081,2.367,0.044,4.733-0.001,7.1c-0.02,1.044,1.598,1.042,1.618,0
					c0.045-2.367,0.082-4.733,0.001-7.1C62.966,27.639,61.348,27.635,61.384,28.679L61.384,28.679z"/>
			</g>
		</g>
		<g>
			<g>
				<path style="&st0;" d="M59.894,36.952c1.443,0.018,2.879-0.073,4.316-0.189c1.032-0.083,1.041-1.702,0-1.618
					c-1.437,0.116-2.873,0.207-4.316,0.189C58.85,35.321,58.852,36.939,59.894,36.952L59.894,36.952z"/>
			</g>
		</g>
	</g>
	<g>
		<g>
			<g>
				<path style="&st0;" d="M93.333,32.311c1.341-1.046,2.673-2.104,4.075-3.067c0.854-0.587,0.046-1.99-0.816-1.397
					c-1.515,1.042-2.953,2.19-4.402,3.32C91.367,31.808,92.521,32.944,93.333,32.311L93.333,32.311z"/>
			</g>
		</g>
		<g>
			<g>
				<path style="&st0;" d="M96.053,28.679c0.081,2.367,0.044,4.733-0.001,7.1c-0.02,1.044,1.598,1.042,1.618,0
					c0.045-2.367,0.082-4.733,0.001-7.1C97.635,27.639,96.018,27.635,96.053,28.679L96.053,28.679z"/>
			</g>
		</g>
		<g>
			<g>
				<path style="&st0;" d="M94.564,36.952c1.443,0.018,2.879-0.073,4.316-0.189c1.032-0.083,1.041-1.702,0-1.618
					c-1.437,0.116-2.873,0.207-4.316,0.189C93.52,35.321,93.521,36.939,94.564,36.952L94.564,36.952z"/>
			</g>
		</g>
	</g>
	<g>
		<g>
			<g>
				<path style="&st0;" d="M105.036,32.311c1.341-1.046,2.673-2.104,4.075-3.067c0.854-0.587,0.046-1.99-0.816-1.397
					c-1.515,1.042-2.953,2.19-4.402,3.32C103.07,31.808,104.224,32.944,105.036,32.311L105.036,32.311z"/>
			</g>
		</g>
		<g>
			<g>
				<path style="&st0;" d="M107.757,28.679c0.081,2.367,0.044,4.733-0.001,7.1c-0.02,1.044,1.598,1.042,1.618,0
					c0.045-2.367,0.082-4.733,0.001-7.1C109.339,27.639,107.721,27.635,107.757,28.679L107.757,28.679z"/>
			</g>
		</g>
		<g>
			<g>
				<path style="&st0;" d="M106.267,36.952c1.443,0.018,2.879-0.073,4.316-0.189c1.032-0.083,1.041-1.702,0-1.618
					c-1.437,0.116-2.873,0.207-4.316,0.189C105.223,35.321,105.224,36.939,106.267,36.952L106.267,36.952z"/>
			</g>
		</g>
	</g>
	<g>
		<g>
			<g>
				<path style="&st0;" d="M70.367,32.311c1.341-1.046,2.673-2.104,4.075-3.067c0.854-0.587,0.046-1.99-0.816-1.397
					c-1.515,1.042-2.953,2.19-4.402,3.32C68.401,31.808,69.554,32.944,70.367,32.311L70.367,32.311z"/>
			</g>
		</g>
		<g>
			<g>
				<path style="&st0;" d="M73.087,28.679c0.081,2.367,0.044,4.733-0.001,7.1c-0.02,1.044,1.598,1.042,1.618,0
					c0.045-2.367,0.082-4.733,0.001-7.1C74.669,27.639,73.051,27.635,73.087,28.679L73.087,28.679z"/>
			</g>
		</g>
		<g>
			<g>
				<path style="&st0;" d="M71.597,36.952c1.443,0.018,2.879-0.073,4.316-0.189c1.032-0.083,1.041-1.702,0-1.618
					c-1.437,0.116-2.873,0.207-4.316,0.189C70.554,35.321,70.555,36.939,71.597,36.952L71.597,36.952z"/>
			</g>
		</g>
	</g>
	<g>
		<g>
			<g>
				<path style="&st0;" d="M36.61,31.417c-0.298-1.446,0.207-2.9,1.756-2.837c0.451,0.018,0.89,0.268,1.11,0.664
					c0.296,0.535-0.098,1.372-0.435,1.919c-0.549,0.891,0.851,1.703,1.397,0.816c0.664-1.078,0.984-2.269,0.475-3.47
					c-0.409-0.966-1.479-1.431-2.452-1.541c-0.983-0.111-2.028,0.324-2.688,1.045c-0.955,1.045-0.993,2.519-0.723,3.833
					C35.26,32.868,36.819,32.435,36.61,31.417L36.61,31.417z"/>
			</g>
		</g>
		<g>
			<g>
				<path style="&st0;" d="M39.17,30.864c-1.283,1.537-2.483,3.139-3.728,4.706c-0.642,0.807,0.495,1.96,1.144,1.144
					c1.246-1.566,2.446-3.169,3.728-4.706C40.977,31.213,39.839,30.062,39.17,30.864L39.17,30.864z"/>
			</g>
		</g>
		<g>
			<g>
				<path style="&st0;" d="M35.612,36.806c1.998-0.125,3.967-0.467,5.894-1.01c1.003-0.282,0.576-1.843-0.43-1.56
					c-1.79,0.504-3.607,0.836-5.464,0.952C34.576,35.253,34.569,36.871,35.612,36.806L35.612,36.806z"/>
			</g>
		</g>
	</g>
	<g>
		<g>
			<g>
				<path style="&st0;" d="M13.157,32.417c-0.298-1.446,0.207-2.9,1.756-2.837c0.451,0.018,0.89,0.268,1.11,0.664
					c0.296,0.535-0.098,1.372-0.435,1.919c-0.549,0.891,0.851,1.703,1.397,0.816c0.664-1.078,0.984-2.269,0.475-3.47
					c-0.409-0.966-1.479-1.431-2.452-1.541c-0.983-0.111-2.028,0.324-2.688,1.045c-0.955,1.045-0.993,2.519-0.723,3.833
					C11.807,33.868,13.366,33.435,13.157,32.417L13.157,32.417z"/>
			</g>
		</g>
		<g>
			<g>
				<path style="&st0;" d="M15.717,31.864c-1.283,1.537-2.483,3.139-3.728,4.706c-0.642,0.807,0.495,1.96,1.144,1.144
					c1.246-1.566,2.446-3.169,3.728-4.706C17.524,32.213,16.386,31.062,15.717,31.864L15.717,31.864z"/>
			</g>
		</g>
		<g>
			<g>
				<path style="&st0;" d="M12.159,37.806c1.998-0.125,3.967-0.467,5.894-1.01c1.003-0.282,0.576-1.843-0.43-1.56
					c-1.79,0.504-3.607,0.836-5.464,0.952C11.123,36.253,11.116,37.871,12.159,37.806L12.159,37.806z"/>
			</g>
		</g>
	</g>
	<g>
		<g>
			<g>
				<path style="&st0;" d="M82.496,32.417c-0.298-1.446,0.207-2.9,1.756-2.837c0.451,0.018,0.89,0.268,1.11,0.664
					c0.296,0.535-0.098,1.372-0.435,1.919c-0.549,0.891,0.851,1.703,1.397,0.816c0.664-1.078,0.984-2.269,0.475-3.47
					c-0.409-0.966-1.479-1.431-2.452-1.541c-0.983-0.111-2.028,0.324-2.688,1.045c-0.955,1.045-0.993,2.519-0.723,3.833
					C81.146,33.868,82.705,33.435,82.496,32.417L82.496,32.417z"/>
			</g>
		</g>
		<g>
			<g>
				<path style="&st0;" d="M85.056,31.864c-1.283,1.537-2.483,3.139-3.728,4.706c-0.642,0.807,0.495,1.96,1.144,1.144
					c1.246-1.566,2.446-3.169,3.728-4.706C86.863,32.213,85.725,31.062,85.056,31.864L85.056,31.864z"/>
			</g>
		</g>
		<g>
			<g>
				<path style="&st0;" d="M81.498,37.806c1.998-0.125,3.967-0.467,5.894-1.01c1.003-0.282,0.576-1.843-0.43-1.56
					c-1.79,0.504-3.607,0.836-5.464,0.952C80.462,36.253,80.455,37.871,81.498,37.806L81.498,37.806z"/>
			</g>
		</g>
	</g>
	<g>
		<g>
			<path style="&st0;" d="M106.366,47.377c1.111,0,2.222,0,3.333,0c1.194,0,1.194-1.851,0-1.851c-1.111,0-2.222,0-3.333,0
				C105.173,45.526,105.173,47.377,106.366,47.377L106.366,47.377z"/>
		</g>
	</g>
</g>
</svg>
