<?xml version="1.0" encoding="utf-8"?>
<!-- Generator: Adobe Illustrator 17.0.0, SVG Export Plug-In . SVG Version: 6.00 Build 0)  -->
<!DOCTYPE svg PUBLIC "-//W3C//DTD SVG 1.1//EN" "http://www.w3.org/Graphics/SVG/1.1/DTD/svg11.dtd" [
	<!ENTITY st0 "fill:#3D3D3D;">
]>
<svg version="1.1" id="Calque_1" xmlns="http://www.w3.org/2000/svg" xmlns:xlink="http://www.w3.org/1999/xlink" x="0px" y="0px"
	 width="213.174px" height="76.571px" viewBox="-46.743 -18.75 213.174 76.571"
	 style="enable-background:new -46.743 -18.75 213.174 76.571;" xml:space="preserve">
<g>
	<g>
		<g>
			<g>
				<path style="&st0;" d="M85.991,10.179c-1.301,0.675-3.219,1.877-2.838,3.635c0.377,1.742,2.518,2.425,4.012,2.818
					c1.156,0.304,1.645-1.481,0.492-1.785c-0.859-0.226-2.135-0.5-2.657-1.309c-0.409-0.635,1.59-1.587,1.926-1.761
					C87.985,11.227,87.049,9.63,85.991,10.179L85.991,10.179z"/>
			</g>
		</g>
		<g>
			<g>
				<path style="&st0;" d="M85.982,12.38c0.963,0.114,2.394,0.214,3.148,0.918c0.099,0.093,0.026,0.124-0.107,0.335
					c-0.353,0.562-1.062,0.962-1.603,1.308c-1.002,0.641-0.075,2.243,0.934,1.598c1.267-0.81,3.261-2.201,2.488-3.97
					c-0.722-1.651-3.351-1.862-4.859-2.04C84.798,10.389,84.812,12.241,85.982,12.38L85.982,12.38z"/>
			</g>
		</g>
		<g>
			<g>
				<path style="&st0;" d="M86.689,14.728c1.24,0.455,2.036,1.712,2.925,2.619c0.836,0.854,2.144-0.456,1.309-1.309
					c-1.165-1.189-2.121-2.5-3.742-3.095C86.058,12.531,85.578,14.32,86.689,14.728L86.689,14.728z"/>
			</g>
		</g>
	</g>
	<g>
		<g>
			<g>
				<path style="&st0;" d="M55.423,10.459c0.001,1.45-0.108,3.329,0.961,4.466c0.82,0.871,2.126-0.441,1.309-1.309
					c-0.631-0.67-0.419-2.316-0.419-3.157C57.273,9.265,55.422,9.265,55.423,10.459L55.423,10.459z"/>
			</g>
		</g>
		<g>
			<g>
				<path style="&st0;" d="M54.524,11.351c0.816-0.125,1.66-0.262,2.401-0.351c0.336-0.04,0.674-0.072,1.012-0.089
					c0.127-0.006,0.253-0.008,0.38-0.006c0.083,0.001,0.502,0.053,0.186,0.003c0.09,0.014,0.346,0.118,0.044-0.015
					c0.08,0.035,0.147,0.128-0.07-0.065c-0.035-0.031-0.184-0.348-0.163-0.275c-0.035-0.119-0.036-0.237-0.002-0.356
					c-0.012,0.072-0.086,0.192,0.033-0.058c-0.024,0.05-0.055,0.096-0.085,0.142c-0.12,0.182,0.135-0.159-0.025,0.029
					c-0.647,0.758-1.542,1.331-2.352,1.893c-0.414,0.287-0.602,0.805-0.332,1.266c0.24,0.41,0.851,0.62,1.266,0.332
					c0.888-0.616,4.921-3.114,2.699-4.487c-0.617-0.381-1.513-0.27-2.196-0.205c-1.1,0.105-2.194,0.292-3.286,0.46
					c-0.499,0.077-0.768,0.695-0.646,1.138C53.531,11.233,54.026,11.428,54.524,11.351L54.524,11.351z"/>
			</g>
		</g>
		<g>
			<g>
				<path style="&st0;" d="M58.692,14.334c0.907,0.196,1.851,0.389,2.707,0.758c0.218,0.094,0.448,0.202,0.62,0.369
					c-0.16-0.154,0.038-0.488-0.038-0.403c-0.35,0.393-1.001,0.596-1.477,0.777c-1.055,0.402-2.157,0.688-3.25,0.965
					c-1.157,0.292-0.666,2.077,0.492,1.785c1.376-0.348,2.763-0.718,4.065-1.295c0.733-0.325,1.68-0.793,1.92-1.636
					c0.626-2.191-3.212-2.815-4.548-3.104C58.02,12.298,57.526,14.082,58.692,14.334L58.692,14.334z"/>
			</g>
		</g>
	</g>
	<g>
		<g>
			<g>
				<path style="&st0;" d="M92.478,11.639c0.239,1.2,0.199,2.431,0.457,3.628c0.28,1.298,1.229,2.218,2.267,2.959
					c0.382,0.272,1.07,0.099,1.266-0.332c1.129-2.479,1.027-5,0.701-7.65c-0.144-1.169-1.996-1.183-1.851,0
					c0.278,2.258,0.525,4.58-0.448,6.715c0.422-0.111,0.844-0.221,1.266-0.332c-1.896-1.353-1.467-3.44-1.873-5.48
					C94.03,9.977,92.246,10.474,92.478,11.639L92.478,11.639z"/>
			</g>
		</g>
	</g>
	<g>
		<g>
			<g>
				<path style="&st0;" d="M76.418,10.962c0.017,1.895,0.175,3.856,0.608,5.705c0.272,1.162,2.056,0.669,1.785-0.492
					c-0.396-1.693-0.526-3.478-0.542-5.213C78.258,9.769,76.408,9.768,76.418,10.962L76.418,10.962z"/>
			</g>
		</g>
		<g>
			<g>
				<path style="&st0;" d="M75.185,11.6c1.442-0.017,2.869-0.266,4.309-0.287c1.192-0.017,1.194-1.868,0-1.851
					c-1.441,0.021-2.867,0.27-4.309,0.287C73.992,9.764,73.991,11.614,75.185,11.6L75.185,11.6z"/>
			</g>
		</g>
		<g>
			<g>
				<path style="&st0;" d="M76.293,18.175c1.545-0.325,3.048-0.792,4.638-0.829c1.192-0.027,1.194-1.878,0-1.851
					c-1.758,0.04-3.422,0.536-5.13,0.895C74.633,16.636,75.128,18.42,76.293,18.175L76.293,18.175z"/>
			</g>
		</g>
	</g>
	<g>
		<g>
			<g>
				<path style="&st0;" d="M99.478,10.511c-0.91,2.035-1.042,4.749-0.569,6.903c0.255,1.166,2.04,0.671,1.785-0.492
					c-0.356-1.625-0.309-3.931,0.383-5.477C101.559,10.365,99.964,9.423,99.478,10.511L99.478,10.511z"/>
			</g>
		</g>
		<g>
			<g>
				<path style="&st0;" d="M99.801,18.094c1.111,0,2.222,0,3.333,0c1.194,0,1.194-1.851,0-1.851c-1.111,0-2.222,0-3.333,0
					C98.607,16.243,98.607,18.094,99.801,18.094L99.801,18.094z"/>
			</g>
		</g>
		<g>
			<g>
				<path style="&st0;" d="M100.753,14.761c0.635,0,1.27,0,1.905,0c1.194,0,1.194-1.851,0-1.851c-0.635,0-1.27,0-1.905,0
					C99.559,12.91,99.559,14.761,100.753,14.761L100.753,14.761z"/>
			</g>
		</g>
		<g>
			<g>
				<path style="&st0;" d="M99.801,12.38c2.35-0.033,4.618-0.521,6.912-0.985c1.169-0.237,0.673-2.021-0.492-1.785
					c-2.134,0.432-4.234,0.888-6.42,0.919C98.608,10.546,98.606,12.397,99.801,12.38L99.801,12.38z"/>
			</g>
		</g>
	</g>
	<g>
		<g>
			<g>
				<path style="&st0;" d="M32.797,11.552c1.85,0.001,3.726-0.032,5.54,0.382c1.003,0.229,1.428-1.311,0.425-1.54
					c-1.956-0.447-3.968-0.439-5.965-0.439C31.767,9.955,31.767,11.552,32.797,11.552L32.797,11.552z"/>
			</g>
		</g>
		<g>
			<g>
				<path style="&st0;" d="M33.259,10.952c-0.468,2.051-0.382,4.119,0,6.177c0.188,1.012,1.727,0.582,1.54-0.425
					c-0.328-1.768-0.402-3.566,0-5.328C35.028,10.374,33.488,9.948,33.259,10.952L33.259,10.952z"/>
			</g>
		</g>
		<g>
			<g>
				<path style="&st0;" d="M32.386,15.25c1.233,0,2.465,0,3.698,0c1.03,0,1.03-1.597,0-1.597c-1.233,0-2.465,0-3.698,0
					C31.356,13.653,31.356,15.25,32.386,15.25L32.386,15.25z"/>
			</g>
		</g>
	</g>
	<g>
		<g>
			<g>
				<g>
					<path style="&st0;" d="M109.634,11.583c0.192,1.857,0.402,3.755,0.891,5.561c0.269,0.993,1.81,0.571,1.54-0.425
						c-0.453-1.671-0.657-3.418-0.834-5.136C111.126,10.569,109.528,10.559,109.634,11.583L109.634,11.583z"/>
				</g>
			</g>
			<g>
				<g>
					<path style="&st0;" d="M109.973,11.582c0.81-0.533,2.567-1.42,3.318-0.294c0.771,1.157-1.022,2.285-1.862,2.63
						c-0.939,0.386-0.528,1.932,0.425,1.54c1.927-0.792,3.882-2.522,2.92-4.786c-0.969-2.28-4.055-1.489-5.605-0.469
						C108.31,10.767,109.109,12.15,109.973,11.582L109.973,11.582z"/>
				</g>
			</g>
		</g>
		<g>
			<g>
				<path style="&st0;" d="M112.098,15.735c1.24,0.455,2.036,1.712,2.925,2.619c0.836,0.854,2.144-0.456,1.309-1.309
					c-1.165-1.189-2.121-2.5-3.742-3.095C111.467,13.539,110.988,15.328,112.098,15.735L112.098,15.735z"/>
			</g>
		</g>
	</g>
	<g>
		<g>
			<g>
				<g>
					<path style="&st0;" d="M66.038,11.583c0.192,1.857,0.402,3.755,0.891,5.561c0.269,0.993,1.81,0.571,1.54-0.425
						c-0.453-1.671-0.657-3.418-0.834-5.136C67.531,10.569,65.932,10.559,66.038,11.583L66.038,11.583z"/>
				</g>
			</g>
			<g>
				<g>
					<path style="&st0;" d="M66.377,11.582c0.81-0.533,2.567-1.42,3.318-0.294c0.771,1.157-1.022,2.285-1.862,2.63
						c-0.939,0.386-0.528,1.932,0.425,1.54c1.927-0.792,3.882-2.522,2.92-4.786c-0.969-2.28-4.055-1.489-5.605-0.469
						C64.715,10.767,65.514,12.15,66.377,11.582L66.377,11.582z"/>
				</g>
			</g>
		</g>
		<g>
			<g>
				<path style="&st0;" d="M68.503,15.735c1.24,0.455,2.036,1.712,2.925,2.619c0.836,0.854,2.144-0.456,1.309-1.309
					c-1.165-1.189-2.121-2.5-3.742-3.095C67.872,13.539,67.392,15.328,68.503,15.735L68.503,15.735z"/>
			</g>
		</g>
	</g>
	<g>
		<g>
			<g>
				<path style="&st0;" d="M6.813,14.806c0.32-1.339,0.31-2.644,1.959-2.693c-0.299-0.228-0.599-0.456-0.898-0.684
					c0.575,1.983,2.288,3.347,2.857,5.307c0.334,1.151,2.132,0.661,1.796-0.495c-0.575-1.983-2.288-3.347-2.857-5.307
					c-0.113-0.39-0.482-0.696-0.898-0.684c-1.07,0.032-2.116,0.275-2.778,1.183c-0.607,0.831-0.744,1.902-0.977,2.878
					C4.737,15.479,6.533,15.975,6.813,14.806L6.813,14.806z"/>
			</g>
		</g>
		<g>
			<g>
				<path style="&st0;" d="M4.257,14.975c3.054-0.861,6.098-1.381,9.276-1.414c1.201-0.013,1.202-1.876,0-1.863
					c-3.341,0.035-6.558,0.575-9.771,1.481C2.608,13.504,3.099,15.301,4.257,14.975L4.257,14.975z"/>
			</g>
		</g>
	</g>
	<g>
		<g>
			<g>
				<path style="&st0;" d="M44.83,14.806c0.32-1.339,0.31-2.644,1.959-2.693c-0.299-0.228-0.599-0.456-0.898-0.684
					c0.575,1.983,2.288,3.347,2.857,5.307c0.334,1.151,2.132,0.661,1.796-0.495c-0.575-1.983-2.288-3.347-2.857-5.307
					c-0.113-0.39-0.482-0.696-0.898-0.684c-1.07,0.032-2.116,0.275-2.778,1.183c-0.607,0.831-0.744,1.902-0.977,2.878
					C42.754,15.479,44.551,15.975,44.83,14.806L44.83,14.806z"/>
			</g>
		</g>
		<g>
			<g>
				<path style="&st0;" d="M42.274,14.975c3.054-0.861,6.098-1.381,9.276-1.414c1.201-0.013,1.202-1.876,0-1.863
					c-3.341,0.035-6.558,0.575-9.771,1.481C40.625,13.504,41.116,15.301,42.274,14.975L42.274,14.975z"/>
			</g>
		</g>
	</g>
</g>
<g>
	<g>
		<g>
			<g>
				<g>
					<path style="&st0;" d="M69.714-4.473c0-0.089,0-0.177,0-0.266c0-1.194-1.851-1.194-1.851,0c0,1.359,0,2.717,0,4.076
						c0,1.194,1.851,1.194,1.851,0c0-1.359,0-2.717,0-4.076c0-1.194-1.851-1.194-1.851,0c0,0.089,0,0.177,0,0.266
						C67.863-3.28,69.714-3.28,69.714-4.473L69.714-4.473z"/>
				</g>
			</g>
			<g>
				<g>
					<path style="&st0;" d="M66.884-4.024c1.792-0.019,3.338-0.259,4.439,1.446c0.048-0.374,0.096-0.748,0.145-1.121
						c-1.401,1.4-2.805,2.739-4.574,3.665c-1.058,0.554-0.122,2.151,0.934,1.598c1.903-0.996,3.441-2.448,4.949-3.954
						c0.284-0.284,0.369-0.774,0.145-1.121c-0.663-1.028-1.453-1.763-2.615-2.175c-1.073-0.38-2.311-0.2-3.422-0.189
						C65.691-5.862,65.69-4.011,66.884-4.024L66.884-4.024z"/>
				</g>
			</g>
		</g>
		<g>
			<g>
				<g>
					<path style="&st0;" d="M75.673-4.316c0.239,1.2,0.199,2.431,0.457,3.628c0.28,1.298,1.229,2.218,2.267,2.959
						c0.382,0.272,1.07,0.099,1.266-0.332c1.129-2.479,1.027-5,0.701-7.65c-0.144-1.169-1.996-1.183-1.851,0
						c0.278,2.258,0.525,4.58-0.448,6.715c0.422-0.111,0.844-0.221,1.266-0.332c-1.896-1.353-1.467-3.44-1.873-5.48
						C77.224-5.978,75.441-5.482,75.673-4.316L75.673-4.316z"/>
				</g>
			</g>
		</g>
	</g>
	<g>
		<g>
			<g>
				<g>
					<path style="&st0;" d="M122.05-4.481c0-0.089,0-0.177,0-0.266c0-1.194-1.851-1.194-1.851,0c0,1.359,0,2.717,0,4.076
						c0,1.194,1.851,1.194,1.851,0c0-1.359,0-2.717,0-4.076c0-1.194-1.851-1.194-1.851,0c0,0.089,0,0.177,0,0.266
						C120.199-3.288,122.05-3.288,122.05-4.481L122.05-4.481z"/>
				</g>
			</g>
			<g>
				<g>
					<path style="&st0;" d="M119.22-4.032c1.792-0.019,3.338-0.259,4.439,1.446c0.048-0.374,0.096-0.748,0.145-1.121
						c-1.401,1.4-2.805,2.739-4.574,3.665c-1.058,0.554-0.122,2.151,0.934,1.598c1.903-0.996,3.441-2.448,4.949-3.954
						c0.284-0.284,0.369-0.774,0.145-1.121c-0.663-1.028-1.453-1.763-2.615-2.175c-1.073-0.38-2.311-0.2-3.422-0.189
						C118.027-5.87,118.026-4.02,119.22-4.032L119.22-4.032z"/>
				</g>
			</g>
		</g>
		<g>
			<g>
				<g>
					<path style="&st0;" d="M96.89-5.497c0.001,1.45-0.108,3.329,0.961,4.466c0.82,0.871,2.126-0.441,1.309-1.309
						c-0.631-0.67-0.419-2.316-0.419-3.157C98.74-6.69,96.89-6.69,96.89-5.497L96.89-5.497z"/>
				</g>
			</g>
			<g>
				<g>
					<path style="&st0;" d="M95.991-4.604c0.816-0.125,1.66-0.262,2.401-0.351c0.336-0.04,0.674-0.072,1.012-0.089
						c0.127-0.006,0.253-0.008,0.38-0.006c0.083,0.001,0.502,0.053,0.186,0.003c0.09,0.014,0.346,0.118,0.044-0.015
						c0.08,0.035,0.147,0.128-0.07-0.065c-0.035-0.031-0.184-0.348-0.163-0.275c-0.035-0.119-0.036-0.237-0.002-0.356
						c-0.012,0.072-0.086,0.192,0.033-0.058c-0.024,0.05-0.055,0.096-0.085,0.142c-0.12,0.182,0.135-0.159-0.025,0.029
						c-0.647,0.758-1.542,1.331-2.352,1.893c-0.414,0.287-0.602,0.805-0.332,1.266c0.24,0.41,0.851,0.62,1.266,0.332
						c0.888-0.616,4.921-3.114,2.699-4.487c-0.617-0.381-1.513-0.27-2.196-0.205c-1.1,0.105-2.194,0.292-3.286,0.46
						C95-6.312,94.731-5.694,94.853-5.251C94.998-4.722,95.493-4.528,95.991-4.604L95.991-4.604z"/>
				</g>
			</g>
			<g>
				<g>
					<path style="&st0;" d="M100.159-1.621c0.907,0.196,1.851,0.389,2.707,0.758c0.218,0.094,0.448,0.202,0.62,0.369
						c-0.16-0.154,0.038-0.488-0.038-0.403c-0.35,0.393-1.001,0.596-1.477,0.777c-1.055,0.402-2.157,0.688-3.25,0.965
						c-1.157,0.292-0.666,2.077,0.492,1.785c1.376-0.348,2.763-0.718,4.065-1.295c0.733-0.325,1.68-0.793,1.92-1.636
						c0.626-2.191-3.212-2.815-4.548-3.104C99.487-3.657,98.993-1.873,100.159-1.621L100.159-1.621z"/>
				</g>
			</g>
		</g>
		<g>
			<g>
				<g>
					<path style="&st0;" d="M128.133-4.316c0.239,1.2,0.199,2.431,0.457,3.628c0.28,1.298,1.229,2.218,2.267,2.959
						c0.382,0.272,1.07,0.099,1.266-0.332c1.129-2.479,1.027-5,0.701-7.65c-0.144-1.169-1.996-1.183-1.851,0
						c0.278,2.258,0.525,4.58-0.448,6.715c0.422-0.111,0.844-0.221,1.266-0.332c-1.896-1.353-1.467-3.44-1.873-5.48
						C129.685-5.978,127.901-5.482,128.133-4.316L128.133-4.316z"/>
				</g>
			</g>
		</g>
		<g>
			<g>
				<g>
					<path style="&st0;" d="M110.14-4.993c0.017,1.895,0.175,3.856,0.608,5.705c0.272,1.162,2.056,0.669,1.785-0.492
						c-0.396-1.693-0.526-3.478-0.542-5.213C111.98-6.186,110.129-6.187,110.14-4.993L110.14-4.993z"/>
				</g>
			</g>
			<g>
				<g>
					<path style="&st0;" d="M108.906-4.355c1.442-0.017,2.869-0.266,4.309-0.287c1.192-0.017,1.194-1.868,0-1.851
						c-1.441,0.021-2.867,0.27-4.309,0.287C107.713-6.192,107.712-4.341,108.906-4.355L108.906-4.355z"/>
				</g>
			</g>
			<g>
				<g>
					<path style="&st0;" d="M110.014,2.22c1.545-0.325,3.048-0.792,4.638-0.829c1.192-0.027,1.194-1.878,0-1.851
						c-1.758,0.04-3.422,0.536-5.13,0.895C108.354,0.681,108.85,2.465,110.014,2.22L110.014,2.22z"/>
				</g>
			</g>
		</g>
		<g>
			<g>
				<g>
					<path style="&st0;" d="M144.721-5.698c-0.91,2.035-1.042,4.749-0.569,6.903c0.255,1.166,2.04,0.671,1.785-0.492
						c-0.356-1.625-0.309-3.931,0.383-5.477C146.802-5.843,145.208-6.785,144.721-5.698L144.721-5.698z"/>
				</g>
			</g>
			<g>
				<g>
					<path style="&st0;" d="M145.044,1.885c1.111,0,2.222,0,3.333,0c1.194,0,1.194-1.851,0-1.851c-1.111,0-2.222,0-3.333,0
						C143.851,0.034,143.851,1.885,145.044,1.885L145.044,1.885z"/>
				</g>
			</g>
			<g>
				<g>
					<path style="&st0;" d="M145.996-1.448c0.635,0,1.27,0,1.905,0c1.194,0,1.194-1.851,0-1.851c-0.635,0-1.27,0-1.905,0
						C144.803-3.299,144.803-1.448,145.996-1.448L145.996-1.448z"/>
				</g>
			</g>
			<g>
				<g>
					<path style="&st0;" d="M145.044-3.829c2.35-0.033,4.618-0.521,6.912-0.985c1.169-0.237,0.673-2.021-0.492-1.785
						c-2.134,0.432-4.234,0.888-6.42,0.919C143.852-5.663,143.85-3.812,145.044-3.829L145.044-3.829z"/>
				</g>
			</g>
		</g>
		<g>
			<g>
				<g>
					<path style="&st0;" d="M135.798-4.965c0,1.659,0,3.319,0,4.978c0,1.194,1.851,1.194,1.851,0c0-1.659,0-3.319,0-4.978
						C137.649-6.158,135.798-6.158,135.798-4.965L135.798-4.965z"/>
				</g>
			</g>
			<g>
				<g>
					<path style="&st0;" d="M136.723,1.65c1.185,0,2.371,0,3.556,0c1.194,0,1.194-1.851,0-1.851c-1.185,0-2.371,0-3.556,0
						C135.53-0.201,135.53,1.65,136.723,1.65L136.723,1.65z"/>
				</g>
			</g>
		</g>
	</g>
	<g>
		<g>
			<g>
				<g>
					<path style="&st0;" d="M-26.603-5.995c-1.47-0.215-3.73-0.581-4.764,0.817c-1.057,1.43,0.696,3.218,1.656,4.114
						c0.871,0.813,2.183-0.493,1.309-1.309c-0.458-0.428-0.909-0.868-1.242-1.403c-0.096-0.154-0.13-0.235-0.175-0.403
						c0.006,0.021-0.036,0.065,0.004-0.002c-0.069,0.116,0.053,0,0.011,0.017c0.186-0.077,0.396-0.123,0.595-0.144
						c0.698-0.074,1.423-0.004,2.115,0.097c0.499,0.073,0.992-0.116,1.138-0.646C-25.835-5.297-26.103-5.922-26.603-5.995
						L-26.603-5.995z"/>
				</g>
			</g>
			<g>
				<g>
					<path style="&st0;" d="M-29.855-1.252c0.295,0.427,0.622,0.911,0.787,1.374c0.033,0.092,0.056,0.186,0.078,0.281
						c-0.043-0.185,0,0.036,0,0.078c0.002,0.232,0.05-0.182-0.013,0.02c0.06-0.195,0.065-0.169,0.158-0.23
						c-0.175,0.117,0.187-0.053-0.035,0.009c-0.237,0.067,0.19-0.006-0.084,0.01c-0.248,0.014-0.408-0.018-0.628-0.062
						c-0.674-0.136-1.334-0.389-1.964-0.661c-0.463-0.2-0.989-0.142-1.266,0.332c-0.231,0.395-0.131,1.066,0.332,1.266
						c1.239,0.535,3.317,1.546,4.632,0.669c1.479-0.986,0.336-2.957-0.399-4.019C-28.931-3.16-30.536-2.236-29.855-1.252
						L-29.855-1.252z"/>
				</g>
			</g>
		</g>
		<g>
			<g>
				<g>
					<path style="&st0;" d="M7.001-5.532C5.787-5.093,4.616-5.781,3.446-4.825C1.747-3.438,1.925-2.077,3.026-0.353
						c1.747,2.734,5.361,1.596,8.03,1.877c1.186,0.125,1.174-1.727,0-1.851c-1.809-0.19-4.276,0.529-5.899-0.429
						C3.994-1.443,3.486-3.423,5.283-3.655c0.748-0.097,1.475,0.173,2.21-0.093C8.607-4.15,8.126-5.939,7.001-5.532L7.001-5.532z"/>
				</g>
			</g>
		</g>
		<g>
			<g>
				<g>
					<path style="&st0;" d="M25.539-4.894c0.017,1.895,0.175,3.856,0.608,5.705c0.272,1.162,2.056,0.669,1.785-0.492
						c-0.396-1.693-0.526-3.478-0.542-5.213C27.379-6.087,25.528-6.088,25.539-4.894L25.539-4.894z"/>
				</g>
			</g>
			<g>
				<g>
					<path style="&st0;" d="M24.305-4.256c1.442-0.017,2.869-0.266,4.309-0.287c1.192-0.017,1.194-1.868,0-1.851
						c-1.441,0.021-2.867,0.27-4.309,0.287C23.112-6.092,23.111-4.241,24.305-4.256L24.305-4.256z"/>
				</g>
			</g>
			<g>
				<g>
					<path style="&st0;" d="M25.413,2.319c1.545-0.325,3.048-0.792,4.638-0.829c1.192-0.027,1.194-1.878,0-1.851
						c-1.758,0.04-3.422,0.536-5.13,0.895C23.753,0.78,24.249,2.564,25.413,2.319L25.413,2.319z"/>
				</g>
			</g>
		</g>
		<g>
			<g>
				<g>
					<path style="&st0;" d="M42.966-4.392c-0.593,1.311-0.602,2.859-0.603,4.276c-0.001,1.194,1.85,1.194,1.851,0
						c0.001-1.046-0.09-2.369,0.35-3.342C45.051-4.537,43.457-5.479,42.966-4.392L42.966-4.392z"/>
				</g>
			</g>
			<g>
				<g>
					<path style="&st0;" d="M43.298-2.65c1.56,1.023,3.222,1.881,4.574,3.189C48.73,1.368,50.04,0.06,49.181-0.77
						c-1.468-1.419-3.255-2.367-4.949-3.478C43.231-4.905,42.304-3.302,43.298-2.65L43.298-2.65z"/>
				</g>
			</g>
			<g>
				<g>
					<path style="&st0;" d="M47.601-3.925c0,0.952,0,1.905,0,2.857c0,1.194,1.851,1.194,1.851,0c0-0.952,0-1.905,0-2.857
						C49.452-5.119,47.601-5.119,47.601-3.925L47.601-3.925z"/>
				</g>
			</g>
		</g>
		<g>
			<g>
				<g>
					<path style="&st0;" d="M35.989-4.145c1.169,0.479,2.599,1.108,3.381,2.153c0.756,1.01-0.911,1.524-1.638,1.774
						c-1.33,0.457-2.852,0.102-3.225-1.399c-0.312-1.257,0.955-2.192,1.974-2.528c1.128-0.373,0.644-2.161-0.492-1.785
						c-1.988,0.657-3.678,2.358-3.301,4.602c0.36,2.135,2.692,3.629,4.784,3.113c1.823-0.45,4.427-1.546,3.897-3.868
						c-0.46-2.02-3.216-3.16-4.889-3.847C35.376-6.383,34.9-4.592,35.989-4.145z"/>
				</g>
			</g>
		</g>
		<g>
			<g>
				<g>
					<path style="&st0;" d="M15.444-5.36c-0.017,1.236-0.119,2.472-0.159,3.707c-0.036,1.103-0.226,2.539,0.188,3.595
						c0.371,0.948,1.916,0.536,1.54-0.425c-0.395-1.008-0.155-2.44-0.12-3.495c0.037-1.127,0.133-2.255,0.149-3.383
						C17.056-6.391,15.459-6.389,15.444-5.36L15.444-5.36z"/>
				</g>
			</g>
			<g>
				<g>
					<path style="&st0;" d="M14.401-4.179c2.215-0.529,4.498-0.77,6.773-0.793c1.029-0.01,1.03-1.607,0-1.597
						c-2.411,0.024-4.85,0.29-7.197,0.85C12.975-5.48,13.399-3.94,14.401-4.179L14.401-4.179z"/>
				</g>
			</g>
		</g>
		<g>
			<g>
				<g>
					<path style="&st0;" d="M-23.842-5.345c-0.91,2.035-1.042,4.749-0.569,6.903c0.255,1.166,2.04,0.671,1.785-0.492
						c-0.356-1.625-0.309-3.931,0.383-5.477C-21.761-5.49-23.356-6.433-23.842-5.345L-23.842-5.345z"/>
				</g>
			</g>
			<g>
				<g>
					<path style="&st0;" d="M-23.52,2.238c1.111,0,2.222,0,3.333,0c1.194,0,1.194-1.851,0-1.851c-1.111,0-2.222,0-3.333,0
						C-24.713,0.387-24.713,2.238-23.52,2.238L-23.52,2.238z"/>
				</g>
			</g>
			<g>
				<g>
					<path style="&st0;" d="M-22.567-1.095c0.635,0,1.27,0,1.905,0c1.194,0,1.194-1.851,0-1.851c-0.635,0-1.27,0-1.905,0
						C-23.761-2.946-23.761-1.095-22.567-1.095L-22.567-1.095z"/>
				</g>
			</g>
			<g>
				<g>
					<path style="&st0;" d="M-23.52-3.476c2.35-0.033,4.618-0.521,6.912-0.985c1.169-0.237,0.673-2.021-0.492-1.785
						c-2.134,0.432-4.234,0.888-6.42,0.919C-24.712-5.31-24.714-3.459-23.52-3.476L-23.52-3.476z"/>
				</g>
			</g>
		</g>
		<g>
			<g>
				<g>
					<path style="&st0;" d="M-7.159-5.345C-8.07-3.31-8.201-0.596-7.729,1.559c0.255,1.166,2.04,0.671,1.785-0.492
						C-6.3-0.558-6.253-2.865-5.561-4.411C-5.078-5.49-6.673-6.433-7.159-5.345L-7.159-5.345z"/>
				</g>
			</g>
			<g>
				<g>
					<path style="&st0;" d="M-6.837,2.238c1.111,0,2.222,0,3.333,0c1.194,0,1.194-1.851,0-1.851c-1.111,0-2.222,0-3.333,0
						C-8.03,0.387-8.03,2.238-6.837,2.238L-6.837,2.238z"/>
				</g>
			</g>
			<g>
				<g>
					<path style="&st0;" d="M-5.884-1.095c0.635,0,1.27,0,1.905,0c1.194,0,1.194-1.851,0-1.851c-0.635,0-1.27,0-1.905,0
						C-7.078-2.946-7.078-1.095-5.884-1.095L-5.884-1.095z"/>
				</g>
			</g>
			<g>
				<g>
					<path style="&st0;" d="M-6.837-3.476c2.35-0.033,4.618-0.521,6.912-0.985c1.169-0.237,0.673-2.021-0.492-1.785
						C-2.55-5.814-4.65-5.358-6.837-5.327C-8.029-5.31-8.031-3.459-6.837-3.476L-6.837-3.476z"/>
				</g>
			</g>
		</g>
		<g>
			<g>
				<g>
					<path style="&st0;" d="M-14.647-4.865c0,1.659,0,3.319,0,4.978c0,1.194,1.851,1.194,1.851,0c0-1.659,0-3.319,0-4.978
						C-12.796-6.059-14.647-6.059-14.647-4.865L-14.647-4.865z"/>
				</g>
			</g>
			<g>
				<g>
					<path style="&st0;" d="M-13.721,1.749c1.185,0,2.371,0,3.556,0c1.194,0,1.194-1.851,0-1.851c-1.185,0-2.371,0-3.556,0
						C-14.915-0.101-14.915,1.749-13.721,1.749L-13.721,1.749z"/>
				</g>
			</g>
		</g>
		<g>
			<g>
				<path style="&st0;" d="M-19.149-9.025c0.836-0.098,1.219-0.741,1.546-1.448c0.172-0.373,0.325-0.755,0.498-1.128
					c0.075-0.163,0.158-0.322,0.249-0.477c0.066-0.095,0.067-0.104,0.005-0.027c0.086-0.111-0.225,0.065-0.356,0.08
					c0.501-0.059,0.925-0.377,0.925-0.925c0-0.46-0.423-0.984-0.925-0.925c-0.836,0.098-1.219,0.741-1.546,1.448
					c-0.172,0.373-0.325,0.755-0.498,1.128c-0.075,0.163-0.158,0.322-0.249,0.477c-0.066,0.095-0.067,0.104-0.005,0.027
					c-0.086,0.111,0.225-0.065,0.356-0.08c-0.501,0.059-0.925,0.377-0.925,0.925C-20.075-9.49-19.651-8.966-19.149-9.025
					L-19.149-9.025z"/>
			</g>
		</g>
	</g>
</g>
<g>
	<g>
		<path style="&st0;" d="M121.713,13.188c1.194,0,1.194-1.851,0-1.851S120.52,13.188,121.713,13.188L121.713,13.188z"/>
	</g>
</g>
<g>
	<g>
		<path style="&st0;" d="M121.713,17.092c1.194,0,1.194-1.851,0-1.851S120.52,17.092,121.713,17.092L121.713,17.092z"/>
	</g>
</g>
<g>
	<g>
		<path style="&st0;" d="M43.277,25.78c12.657,0,25.315,0,37.972,0c0.548,0,0.548-0.85,0-0.85c-12.657,0-25.315,0-37.972,0
			C42.728,24.93,42.728,25.78,43.277,25.78L43.277,25.78z"/>
	</g>
</g>
<g>
	<g>
		<g>
			<g>
				<path style="&st0;" d="M46.331,47.889c0,1.659,0,3.319,0,4.978c0,1.194,1.851,1.194,1.851,0c0-1.659,0-3.319,0-4.978
					C48.182,46.695,46.331,46.695,46.331,47.889L46.331,47.889z"/>
			</g>
		</g>
		<g>
			<g>
				<path style="&st0;" d="M47.257,54.504c1.185,0,2.371,0,3.556,0c1.194,0,1.194-1.851,0-1.851c-1.185,0-2.371,0-3.556,0
					C46.063,52.653,46.063,54.504,47.257,54.504L47.257,54.504z"/>
			</g>
		</g>
	</g>
	<g>
		<g>
			<g>
				<path style="&st0;" d="M55.959,46.617c-0.785,1.714-0.836,3.59-0.838,5.445c-0.001,1.194,1.85,1.194,1.851,0
					c0.001-1.49-0.05-3.126,0.585-4.511C58.05,46.475,56.455,45.534,55.959,46.617L55.959,46.617z"/>
			</g>
		</g>
		<g>
			<g>
				<path style="&st0;" d="M56.103,47.739c0.93,0.93,2.096,2.306,3.499,2.405c1.192,0.084,1.184-1.768,0-1.851
					c0.227,0.016-0.08-0.046,0.008-0.006c-0.113-0.052-0.218-0.121-0.323-0.186c-0.226-0.142-0.428-0.314-0.63-0.487
					c-0.435-0.372-0.84-0.778-1.245-1.182C56.567,45.586,55.258,46.894,56.103,47.739L56.103,47.739z"/>
			</g>
		</g>
		<g>
			<g>
				<path style="&st0;" d="M59.545,49.872c0.859-0.821,1.982-1.309,2.845-2.133c0.864-0.826-0.446-2.133-1.309-1.309
					c-0.859,0.821-1.982,1.309-2.845,2.133C57.373,49.39,58.683,50.697,59.545,49.872L59.545,49.872z"/>
			</g>
		</g>
		<g>
			<g>
				<path style="&st0;" d="M60.099,47.085c0.001,2.253,0.072,4.478,0.744,6.646c0.352,1.136,2.139,0.651,1.785-0.492
					c-0.625-2.016-0.677-4.061-0.678-6.154C61.949,45.891,60.098,45.891,60.099,47.085L60.099,47.085z"/>
			</g>
		</g>
	</g>
	<g>
		<g>
			<g>
				<path style="&st0;" d="M95.94,46.085c-1.47-0.215-3.73-0.581-4.764,0.817c-1.057,1.43,0.696,3.218,1.656,4.114
					c0.871,0.813,2.183-0.493,1.309-1.309c-0.458-0.428-0.909-0.868-1.242-1.403c-0.096-0.154-0.13-0.235-0.175-0.403
					c0.006,0.021-0.036,0.065,0.004-0.002c-0.069,0.116,0.053,0,0.011,0.017c0.186-0.077,0.396-0.123,0.595-0.144
					c0.698-0.074,1.423-0.004,2.115,0.097c0.499,0.073,0.992-0.116,1.138-0.646C96.707,46.783,96.44,46.158,95.94,46.085
					L95.94,46.085z"/>
			</g>
		</g>
		<g>
			<g>
				<path style="&st0;" d="M92.688,50.829c0.295,0.427,0.622,0.911,0.787,1.374c0.033,0.092,0.056,0.186,0.078,0.281
					c-0.043-0.185,0,0.036,0,0.078c0.002,0.232,0.05-0.182-0.013,0.02c0.06-0.195,0.065-0.169,0.158-0.23
					c-0.175,0.117,0.187-0.053-0.035,0.009c-0.237,0.067,0.19-0.006-0.084,0.01c-0.248,0.014-0.408-0.018-0.628-0.062
					c-0.674-0.136-1.334-0.389-1.964-0.661c-0.463-0.2-0.989-0.142-1.266,0.332c-0.231,0.395-0.131,1.066,0.332,1.266
					c1.239,0.535,3.317,1.546,4.632,0.669c1.479-0.986,0.336-2.957-0.399-4.019C93.612,48.921,92.006,49.845,92.688,50.829
					L92.688,50.829z"/>
			</g>
		</g>
	</g>
	<g>
		<g>
			<g>
				<path style="&st0;" d="M25.536,46.773c-1.214,0.439-2.385-0.249-3.556,0.707c-1.699,1.387-1.521,2.749-0.419,4.472
					c1.747,2.734,5.361,1.596,8.03,1.877c1.186,0.125,1.174-1.727,0-1.851c-1.809-0.19-4.276,0.529-5.899-0.429
					c-1.163-0.687-1.672-2.666,0.126-2.898c0.748-0.097,1.475,0.173,2.21-0.093C27.142,48.156,26.662,46.367,25.536,46.773
					L25.536,46.773z"/>
			</g>
		</g>
	</g>
	<g>
		<g>
			<g>
				<path style="&st0;" d="M100.036,47.929c0.239,1.2,0.199,2.431,0.457,3.628c0.28,1.298,1.229,2.218,2.267,2.959
					c0.382,0.272,1.07,0.099,1.266-0.332c1.129-2.479,1.027-5,0.701-7.65c-0.144-1.169-1.996-1.183-1.851,0
					c0.278,2.258,0.525,4.58-0.448,6.715c0.422-0.111,0.844-0.221,1.266-0.332c-1.896-1.353-1.467-3.44-1.873-5.48
					C101.587,46.267,99.803,46.764,100.036,47.929L100.036,47.929z"/>
			</g>
		</g>
	</g>
	<g>
		<g>
			<g>
				<path style="&st0;" d="M69.4,48.609c1.169,0.479,2.599,1.108,3.381,2.153c0.756,1.01-0.911,1.524-1.638,1.774
					c-1.33,0.457-2.852,0.102-3.225-1.399c-0.312-1.257,0.955-2.192,1.974-2.528c1.128-0.373,0.644-2.161-0.492-1.785
					c-1.988,0.657-3.678,2.358-3.301,4.602c0.36,2.135,2.692,3.629,4.784,3.113c1.823-0.45,4.427-1.546,3.897-3.868
					c-0.46-2.02-3.216-3.16-4.889-3.847C68.788,46.371,68.312,48.163,69.4,48.609z"/>
			</g>
		</g>
	</g>
	<g>
		<g>
			<g>
				<path style="&st0;" d="M35.033,46.961c-0.91,2.035-1.042,4.749-0.569,6.903c0.255,1.166,2.04,0.671,1.785-0.492
					c-0.356-1.625-0.309-3.931,0.383-5.477C37.115,46.815,35.52,45.873,35.033,46.961L35.033,46.961z"/>
			</g>
		</g>
		<g>
			<g>
				<path style="&st0;" d="M35.356,54.543c1.111,0,2.222,0,3.333,0c1.194,0,1.194-1.851,0-1.851c-1.111,0-2.222,0-3.333,0
					C34.163,52.693,34.163,54.543,35.356,54.543L35.356,54.543z"/>
			</g>
		</g>
		<g>
			<g>
				<path style="&st0;" d="M36.309,51.21c0.635,0,1.27,0,1.905,0c1.194,0,1.194-1.851,0-1.851c-0.635,0-1.27,0-1.905,0
					C35.115,49.359,35.115,51.21,36.309,51.21L36.309,51.21z"/>
			</g>
		</g>
		<g>
			<g>
				<path style="&st0;" d="M35.356,48.829c2.35-0.033,4.618-0.521,6.912-0.985c1.169-0.237,0.673-2.021-0.492-1.785
					c-2.134,0.432-4.234,0.888-6.42,0.919C34.164,46.995,34.162,48.846,35.356,48.829L35.356,48.829z"/>
			</g>
		</g>
	</g>
	<g>
		<g>
			<g>
				<g>
					<path style="&st0;" d="M79.242,48.033c0.192,1.857,0.402,3.755,0.891,5.561c0.269,0.993,1.81,0.571,1.54-0.425
						c-0.453-1.671-0.657-3.418-0.834-5.136C80.734,47.019,79.136,47.009,79.242,48.033L79.242,48.033z"/>
				</g>
			</g>
			<g>
				<g>
					<path style="&st0;" d="M79.581,48.032c0.81-0.533,2.567-1.42,3.318-0.294c0.771,1.157-1.022,2.285-1.862,2.63
						c-0.939,0.386-0.528,1.932,0.425,1.54c1.927-0.792,3.882-2.522,2.92-4.786c-0.969-2.28-4.055-1.489-5.605-0.469
						C77.918,47.216,78.717,48.6,79.581,48.032L79.581,48.032z"/>
				</g>
			</g>
		</g>
		<g>
			<g>
				<path style="&st0;" d="M81.706,52.185c1.24,0.455,2.036,1.712,2.925,2.619c0.836,0.854,2.144-0.456,1.309-1.309
					c-1.165-1.189-2.121-2.5-3.742-3.095C81.075,49.988,80.595,51.777,81.706,52.185L81.706,52.185z"/>
			</g>
		</g>
	</g>
	<g>
		<g>
			<g>
				<path style="&st0;" d="M9.876,51.256c0.32-1.339,0.31-2.644,1.959-2.693c-0.299-0.228-0.599-0.456-0.898-0.684
					c0.575,1.983,2.288,3.347,2.857,5.307c0.334,1.151,2.132,0.661,1.796-0.495c-0.575-1.983-2.288-3.347-2.857-5.307
					c-0.113-0.39-0.482-0.696-0.898-0.684c-1.07,0.032-2.116,0.275-2.778,1.183c-0.607,0.831-0.744,1.902-0.977,2.878
					C7.8,51.929,9.597,52.424,9.876,51.256L9.876,51.256z"/>
			</g>
		</g>
		<g>
			<g>
				<path style="&st0;" d="M7.32,51.424c3.054-0.861,6.098-1.381,9.276-1.414c1.201-0.013,1.202-1.876,0-1.863
					c-3.341,0.035-6.558,0.575-9.771,1.481C5.671,49.953,6.162,51.751,7.32,51.424L7.32,51.424z"/>
			</g>
		</g>
	</g>
	<g>
		<g>
			<g>
				<path style="&st0;" d="M20.226,35.065c1.341-1.046,2.673-2.104,4.075-3.067c0.854-0.587,0.046-1.99-0.816-1.397
					c-1.515,1.042-2.953,2.19-4.402,3.32C18.26,34.562,19.413,35.698,20.226,35.065L20.226,35.065z"/>
			</g>
		</g>
		<g>
			<g>
				<path style="&st0;" d="M22.946,31.433c0.081,2.367,0.044,4.733-0.001,7.1c-0.02,1.044,1.598,1.042,1.618,0
					c0.045-2.367,0.082-4.733,0.001-7.1C24.528,30.393,22.91,30.389,22.946,31.433L22.946,31.433z"/>
			</g>
		</g>
		<g>
			<g>
				<path style="&st0;" d="M21.456,39.706c1.443,0.018,2.879-0.073,4.316-0.189c1.032-0.083,1.041-1.702,0-1.618
					c-1.437,0.116-2.873,0.207-4.316,0.189C20.413,38.075,20.414,39.693,21.456,39.706L21.456,39.706z"/>
			</g>
		</g>
	</g>
	<g>
		<g>
			<g>
				<path style="&st0;" d="M31.235,35.065c1.341-1.046,2.673-2.104,4.075-3.067c0.854-0.587,0.046-1.99-0.816-1.397
					c-1.515,1.042-2.953,2.19-4.402,3.32C29.269,34.562,30.423,35.698,31.235,35.065L31.235,35.065z"/>
			</g>
		</g>
		<g>
			<g>
				<path style="&st0;" d="M33.955,31.433c0.081,2.367,0.044,4.733-0.001,7.1c-0.02,1.044,1.598,1.042,1.618,0
					c0.045-2.367,0.082-4.733,0.001-7.1C35.537,30.393,33.919,30.389,33.955,31.433L33.955,31.433z"/>
			</g>
		</g>
		<g>
			<g>
				<path style="&st0;" d="M32.466,39.706c1.443,0.018,2.879-0.073,4.316-0.189c1.032-0.083,1.041-1.702,0-1.618
					c-1.437,0.116-2.873,0.207-4.316,0.189C31.422,38.075,31.423,39.693,32.466,39.706L32.466,39.706z"/>
			</g>
		</g>
	</g>
	<g>
		<g>
			<g>
				<path style="&st0;" d="M42.244,35.065c1.341-1.046,2.673-2.104,4.075-3.067c0.854-0.587,0.046-1.99-0.816-1.397
					c-1.515,1.042-2.953,2.19-4.402,3.32C40.278,34.562,41.432,35.698,42.244,35.065L42.244,35.065z"/>
			</g>
		</g>
		<g>
			<g>
				<path style="&st0;" d="M44.965,31.433c0.081,2.367,0.044,4.733-0.001,7.1c-0.02,1.044,1.598,1.042,1.618,0
					c0.045-2.367,0.082-4.733,0.001-7.1C46.546,30.393,44.929,30.389,44.965,31.433L44.965,31.433z"/>
			</g>
		</g>
		<g>
			<g>
				<path style="&st0;" d="M43.475,39.706c1.443,0.018,2.879-0.073,4.316-0.189c1.032-0.083,1.041-1.702,0-1.618
					c-1.437,0.116-2.873,0.207-4.316,0.189C42.431,38.075,42.432,39.693,43.475,39.706L43.475,39.706z"/>
			</g>
		</g>
	</g>
	<g>
		<g>
			<g>
				<path style="&st0;" d="M53.253,35.065c1.341-1.046,2.673-2.104,4.075-3.067c0.854-0.587,0.046-1.99-0.816-1.397
					c-1.515,1.042-2.953,2.19-4.402,3.32C51.287,34.562,52.441,35.698,53.253,35.065L53.253,35.065z"/>
			</g>
		</g>
		<g>
			<g>
				<path style="&st0;" d="M55.974,31.433c0.081,2.367,0.044,4.733-0.001,7.1c-0.02,1.044,1.598,1.042,1.618,0
					c0.045-2.367,0.082-4.733,0.001-7.1C57.556,30.393,55.938,30.389,55.974,31.433L55.974,31.433z"/>
			</g>
		</g>
		<g>
			<g>
				<path style="&st0;" d="M54.484,39.706c1.443,0.018,2.879-0.073,4.316-0.189c1.032-0.083,1.041-1.702,0-1.618
					c-1.437,0.116-2.873,0.207-4.316,0.189C53.44,38.075,53.441,39.693,54.484,39.706L54.484,39.706z"/>
			</g>
		</g>
	</g>
	<g>
		<g>
			<g>
				<path style="&st0;" d="M64.262,35.065c1.341-1.046,2.673-2.104,4.075-3.067c0.854-0.587,0.046-1.99-0.816-1.397
					c-1.515,1.042-2.953,2.19-4.402,3.32C62.297,34.562,63.45,35.698,64.262,35.065L64.262,35.065z"/>
			</g>
		</g>
		<g>
			<g>
				<path style="&st0;" d="M66.983,31.433c0.081,2.367,0.044,4.733-0.001,7.1c-0.02,1.044,1.598,1.042,1.618,0
					c0.045-2.367,0.082-4.733,0.001-7.1C68.565,30.393,66.947,30.389,66.983,31.433L66.983,31.433z"/>
			</g>
		</g>
		<g>
			<g>
				<path style="&st0;" d="M65.493,39.706c1.443,0.018,2.879-0.073,4.316-0.189c1.032-0.083,1.041-1.702,0-1.618
					c-1.437,0.116-2.873,0.207-4.316,0.189C64.449,38.075,64.451,39.693,65.493,39.706L65.493,39.706z"/>
			</g>
		</g>
	</g>
	<g>
		<g>
			<g>
				<path style="&st0;" d="M75.272,35.065c1.341-1.046,2.673-2.104,4.075-3.067c0.854-0.587,0.046-1.99-0.816-1.397
					c-1.515,1.042-2.953,2.19-4.402,3.32C73.306,34.562,74.459,35.698,75.272,35.065L75.272,35.065z"/>
			</g>
		</g>
		<g>
			<g>
				<path style="&st0;" d="M77.992,31.433c0.081,2.367,0.044,4.733-0.001,7.1c-0.02,1.044,1.598,1.042,1.618,0
					c0.045-2.367,0.082-4.733,0.001-7.1C79.574,30.393,77.956,30.389,77.992,31.433L77.992,31.433z"/>
			</g>
		</g>
		<g>
			<g>
				<path style="&st0;" d="M76.502,39.706c1.443,0.018,2.879-0.073,4.316-0.189c1.032-0.083,1.041-1.702,0-1.618
					c-1.437,0.116-2.873,0.207-4.316,0.189C75.459,38.075,75.46,39.693,76.502,39.706L76.502,39.706z"/>
			</g>
		</g>
	</g>
	<g>
		<g>
			<g>
				<path style="&st0;" d="M95.962,35.087c1.341-1.046,2.673-2.104,4.075-3.067c0.854-0.587,0.046-1.99-0.816-1.397
					c-1.515,1.042-2.953,2.19-4.402,3.32C93.996,34.584,95.15,35.72,95.962,35.087L95.962,35.087z"/>
			</g>
		</g>
		<g>
			<g>
				<path style="&st0;" d="M98.682,31.455c0.081,2.367,0.044,4.733-0.001,7.1c-0.02,1.044,1.598,1.042,1.618,0
					c0.045-2.367,0.082-4.733,0.001-7.1C100.264,30.414,98.646,30.411,98.682,31.455L98.682,31.455z"/>
			</g>
		</g>
		<g>
			<g>
				<path style="&st0;" d="M97.193,39.728c1.443,0.018,2.879-0.073,4.316-0.189c1.032-0.083,1.041-1.702,0-1.618
					c-1.437,0.116-2.873,0.207-4.316,0.189C96.149,38.097,96.15,39.715,97.193,39.728L97.193,39.728z"/>
			</g>
		</g>
	</g>
	<g>
		<g>
			<g>
				<path style="&st0;" d="M106.962,35.065c1.341-1.046,2.673-2.104,4.075-3.067c0.854-0.587,0.046-1.99-0.816-1.397
					c-1.515,1.042-2.953,2.19-4.402,3.32C104.996,34.562,106.15,35.698,106.962,35.065L106.962,35.065z"/>
			</g>
		</g>
		<g>
			<g>
				<path style="&st0;" d="M109.682,31.433c0.081,2.367,0.044,4.733-0.001,7.1c-0.02,1.044,1.598,1.042,1.618,0
					c0.045-2.367,0.082-4.733,0.001-7.1C111.264,30.393,109.646,30.389,109.682,31.433L109.682,31.433z"/>
			</g>
		</g>
		<g>
			<g>
				<path style="&st0;" d="M108.193,39.706c1.443,0.018,2.879-0.073,4.316-0.189c1.032-0.083,1.041-1.702,0-1.618
					c-1.437,0.116-2.873,0.207-4.316,0.189C107.149,38.075,107.15,39.693,108.193,39.706L108.193,39.706z"/>
			</g>
		</g>
	</g>
	<g>
		<g>
			<g>
				<path style="&st0;" d="M86.117,33.175c0.458-0.334,0.941-0.643,1.48-0.827c0.193-0.066,0.427-0.119,0.545-0.131
					c0.086-0.009,0.173-0.01,0.26-0.01c0.034,0,0.346,0.033,0.187,0.008c0.075,0.012,0.149,0.032,0.222,0.052
					c0.047,0.014,0.094,0.029,0.14,0.046c-0.081-0.037-0.08-0.036,0.004,0.003c0.063,0.03,0.123,0.066,0.183,0.102
					c0.18,0.11,0.016,0,0.106,0.079c0.05,0.044,0.096,0.093,0.141,0.142c0.087,0.094-0.046-0.081,0.073,0.098
					c0.036,0.054,0.067,0.112,0.098,0.17c0.062,0.116-0.029-0.104,0.044,0.106c0.021,0.061,0.037,0.124,0.053,0.187
					c0.057,0.226,0.008-0.034,0.02,0.102c0.008,0.086-0.027,0.49,0.005,0.294c-0.014,0.086-0.148,0.451-0.074,0.29
					c-0.027,0.058-0.06,0.113-0.093,0.168c-0.111,0.184,0.013,0-0.072,0.095c-0.18,0.201-0.315,0.271-0.652,0.358
					c-0.174,0.045-0.267,0.047-0.512,0.049c-0.269,0.002-0.527-0.04-0.789-0.097c-1.017-0.221-1.449,1.339-0.43,1.56
					c1.2,0.261,2.474,0.222,3.432-0.631c0.741-0.66,0.941-1.751,0.708-2.681c-0.247-0.988-1.057-1.758-2.029-2.02
					c-1.364-0.368-2.791,0.306-3.869,1.092C84.467,32.386,85.273,33.79,86.117,33.175L86.117,33.175z"/>
			</g>
		</g>
		<g>
			<g>
				<path style="&st0;" d="M87.271,36.183c0.427-0.043,0.87-0.072,1.294,0.006c0.158,0.029,0.311,0.078,0.462,0.134
					c-0.085-0.032,0.316,0.222,0.192,0.118c0.036,0.031,0.07,0.064,0.102,0.099c0.154,0.157-0.078-0.126,0.038,0.052
					c0.02,0.031,0.103,0.223,0.031,0.04c0.023,0.059,0.038,0.122,0.052,0.184c-0.058-0.253-0.024,0.33,0.009,0.082
					c-0.009,0.069-0.121,0.408-0.054,0.254c-0.209,0.482-0.523,0.7-1.006,0.834c-0.61,0.169-1.342-0.074-1.98-0.468
					c-0.891-0.549-1.702,0.85-0.816,1.397c1.672,1.032,4.32,1.086,5.227-1.009c0.376-0.87,0.284-1.789-0.357-2.509
					c-0.766-0.861-2.136-0.937-3.194-0.831C86.243,34.668,86.233,36.286,87.271,36.183L87.271,36.183z"/>
			</g>
		</g>
	</g>
	<g>
		<g>
			<g>
				<path style="&st0;" d="M10.082,34.585c-0.298-1.446,0.207-2.9,1.756-2.837c0.451,0.018,0.89,0.268,1.11,0.664
					c0.296,0.535-0.098,1.372-0.435,1.919c-0.549,0.891,0.851,1.703,1.397,0.816c0.664-1.078,0.984-2.269,0.475-3.47
					c-0.409-0.966-1.479-1.431-2.452-1.541c-0.983-0.111-2.028,0.324-2.688,1.045C8.29,32.226,8.252,33.7,8.522,35.014
					C8.733,36.037,10.292,35.603,10.082,34.585L10.082,34.585z"/>
			</g>
		</g>
		<g>
			<g>
				<path style="&st0;" d="M12.642,34.032c-1.283,1.537-2.483,3.139-3.728,4.706c-0.642,0.807,0.495,1.96,1.144,1.144
					c1.246-1.566,2.446-3.169,3.728-4.706C14.45,34.381,13.312,33.23,12.642,34.032L12.642,34.032z"/>
			</g>
		</g>
		<g>
			<g>
				<path style="&st0;" d="M9.084,39.974c1.998-0.125,3.967-0.467,5.894-1.01c1.003-0.282,0.576-1.843-0.43-1.56
					c-1.79,0.504-3.607,0.836-5.464,0.952C8.048,38.421,8.042,40.039,9.084,39.974L9.084,39.974z"/>
			</g>
		</g>
	</g>
	<g>
		<g>
			<path style="&st0;" d="M109.292,50.99c1.111,0,2.222,0,3.333,0c1.194,0,1.194-1.851,0-1.851c-1.111,0-2.222,0-3.333,0
				C108.098,49.139,108.098,50.99,109.292,50.99L109.292,50.99z"/>
		</g>
	</g>
</g>
</svg>
