<?xml version="1.0" encoding="utf-8"?>
<!-- Generator: Adobe Illustrator 17.0.0, SVG Export Plug-In . SVG Version: 6.00 Build 0)  -->
<!DOCTYPE svg PUBLIC "-//W3C//DTD SVG 1.1//EN" "http://www.w3.org/Graphics/SVG/1.1/DTD/svg11.dtd" [
	<!ENTITY st0 "fill:#3D3D3D;">
]>
<svg version="1.1" id="Calque_1" xmlns="http://www.w3.org/2000/svg" xmlns:xlink="http://www.w3.org/1999/xlink" x="0px" y="0px"
	 width="120.73px" height="56.16px" viewBox="0 0 120.73 56.16" style="enable-background:new 0 0 120.73 56.16;"
	 xml:space="preserve">
<g>
	<g>
		<g>
			<g>
				<g>
					<path style="&st0;" d="M72.157,6.379c0,1.616,0,3.233,0,4.849c0,1.178,1.827,1.178,1.827,0c0-1.616,0-3.233,0-4.849
						C73.983,5.201,72.157,5.201,72.157,6.379L72.157,6.379z"/>
				</g>
			</g>
			<g>
				<g>
					<path style="&st0;" d="M73.07,12.834c1.185,0,2.371,0,3.556,0c1.178,0,1.178-1.827,0-1.827c-1.185,0-2.371,0-3.556,0
						C71.892,11.007,71.892,12.834,73.07,12.834L73.07,12.834z"/>
				</g>
			</g>
		</g>
		<g>
			<g>
				<g>
					<path style="&st0;" d="M82.306,5.906c-0.906,1.973-1.04,4.638-0.568,6.734c0.258,1.149,2.02,0.662,1.761-0.486
						c-0.355-1.578-0.303-3.829,0.384-5.326C84.371,5.765,82.797,4.836,82.306,5.906L82.306,5.906z"/>
				</g>
			</g>
			<g>
				<g>
					<path style="&st0;" d="M82.618,13.31c1.111,0,2.222,0,3.333,0c1.178,0,1.178-1.827,0-1.827c-1.111,0-2.222,0-3.333,0
						C81.44,11.483,81.44,13.31,82.618,13.31L82.618,13.31z"/>
				</g>
			</g>
			<g>
				<g>
					<path style="&st0;" d="M83.571,10.063c0.635,0,1.27,0,1.905,0c1.178,0,1.178-1.827,0-1.827c-0.635,0-1.27,0-1.905,0
						C82.393,8.236,82.393,10.063,83.571,10.063L83.571,10.063z"/>
				</g>
			</g>
			<g>
				<g>
					<path style="&st0;" d="M82.618,7.744c2.347-0.032,4.616-0.508,6.909-0.96c1.155-0.228,0.665-1.988-0.486-1.761
						c-2.135,0.421-4.238,0.865-6.424,0.895C81.441,5.933,81.44,7.76,82.618,7.744L82.618,7.744z"/>
				</g>
			</g>
		</g>
		<g>
			<g>
				<g>
					<path style="&st0;" d="M55.929,6.849c0-0.086,0-0.173,0-0.259c0-1.178-1.827-1.178-1.827,0c0,1.323,0,2.647,0,3.97
						c0,1.178,1.827,1.178,1.827,0c0-1.323,0-2.647,0-3.97c0-1.178-1.827-1.178-1.827,0c0,0.086,0,0.173,0,0.259
						C54.103,8.027,55.929,8.027,55.929,6.849L55.929,6.849z"/>
				</g>
			</g>
			<g>
				<g>
					<path style="&st0;" d="M53.111,7.299c1.768-0.018,3.343-0.266,4.449,1.403c0.048-0.369,0.095-0.738,0.143-1.107
						c-1.406,1.368-2.815,2.67-4.577,3.568c-1.05,0.535-0.125,2.111,0.922,1.577c1.894-0.965,3.435-2.382,4.947-3.854
						c0.281-0.274,0.366-0.77,0.143-1.107c-0.667-1.007-1.456-1.726-2.607-2.124c-1.076-0.371-2.307-0.196-3.419-0.184
						C51.934,5.484,51.933,7.311,53.111,7.299L53.111,7.299z"/>
				</g>
			</g>
		</g>
		<g>
			<g>
				<g>
					<path style="&st0;" d="M28.338,5.695c0.001,1.411-0.105,3.266,0.958,4.359c0.822,0.846,2.113-0.447,1.292-1.292
						c-0.626-0.643-0.422-2.248-0.423-3.067C30.165,4.517,28.338,4.517,28.338,5.695L28.338,5.695z"/>
				</g>
			</g>
			<g>
				<g>
					<path style="&st0;" d="M27.424,6.575c0.824-0.123,1.633-0.251,2.404-0.342c0.336-0.039,0.674-0.07,1.012-0.087
						c0.127-0.006,0.253-0.007,0.38-0.006c0.081,0.001,0.5,0.05,0.189,0.002c0.086,0.013,0.348,0.113,0.047-0.016
						c0.078,0.033,0.152,0.125-0.067-0.065c-0.094-0.082-0.126-0.154-0.16-0.273c-0.035-0.118-0.035-0.236-0.002-0.353
						c-0.012,0.073-0.087,0.184,0.032-0.059c-0.024,0.049-0.055,0.093-0.085,0.138c0.138-0.204,0.006-0.013-0.027,0.026
						c-0.65,0.742-1.546,1.296-2.354,1.842c-0.97,0.655-0.057,2.239,0.922,1.577c0.968-0.654,2.062-1.328,2.817-2.236
						c0.554-0.667,0.747-1.634-0.118-2.155c-0.62-0.373-1.506-0.265-2.19-0.202c-1.099,0.102-2.192,0.285-3.283,0.449
						c-0.493,0.074-0.758,0.688-0.638,1.124C26.445,6.46,26.932,6.649,27.424,6.575L27.424,6.575z"/>
				</g>
			</g>
			<g>
				<g>
					<path style="&st0;" d="M31.599,9.481c0.936,0.197,1.916,0.389,2.797,0.776c0.205,0.09,0.417,0.202,0.557,0.341
						c-0.176-0.175,0.002-0.498-0.051-0.44c-0.367,0.408-1.078,0.611-1.579,0.794c-1.03,0.374-2.098,0.646-3.161,0.908
						c-1.143,0.281-0.658,2.043,0.486,1.761c1.402-0.345,2.818-0.711,4.143-1.297c0.709-0.314,1.59-0.758,1.833-1.564
						c0.652-2.163-3.25-2.77-4.538-3.04C30.935,7.478,30.446,9.239,31.599,9.481L31.599,9.481z"/>
				</g>
			</g>
		</g>
		<g>
			<g>
				<g>
					<path style="&st0;" d="M63.264,7.014c0.239,1.168,0.199,2.369,0.457,3.534c0.282,1.275,1.232,2.174,2.261,2.889
						c0.382,0.266,1.05,0.099,1.25-0.328c1.128-2.411,1.026-4.872,0.699-7.457c-0.146-1.152-1.974-1.167-1.827,0
						c0.278,2.202,0.521,4.459-0.45,6.535c0.417-0.109,0.833-0.218,1.25-0.328c-1.892-1.315-1.467-3.319-1.879-5.331
						C64.789,5.374,63.029,5.864,63.264,7.014L63.264,7.014z"/>
				</g>
			</g>
		</g>
		<g>
			<g>
				<g>
					<path style="&st0;" d="M42.816,6.351c0.017,1.846,0.175,3.761,0.607,5.56c0.275,1.145,2.036,0.659,1.761-0.486
						c-0.395-1.646-0.527-3.385-0.542-5.074C44.632,5.174,42.805,5.173,42.816,6.351L42.816,6.351z"/>
				</g>
			</g>
			<g>
				<g>
					<path style="&st0;" d="M41.57,6.985c1.442-0.017,2.869-0.259,4.309-0.28c1.177-0.017,1.179-1.843,0-1.827
						c-1.441,0.02-2.868,0.263-4.309,0.28C40.393,5.172,40.392,6.998,41.57,6.985L41.57,6.985z"/>
				</g>
			</g>
			<g>
				<g>
					<path style="&st0;" d="M42.675,13.389c1.546-0.317,3.052-0.771,4.641-0.807c1.176-0.026,1.179-1.853,0-1.827
						c-1.754,0.039-3.42,0.522-5.127,0.872C41.036,11.864,41.525,13.624,42.675,13.389L42.675,13.389z"/>
				</g>
			</g>
		</g>
	</g>
	<g>
		<g>
			<path style="&st0;" d="M93.549,9.888c1.178,0,1.178-1.827,0-1.827S92.371,9.888,93.549,9.888L93.549,9.888z"/>
		</g>
	</g>
	<g>
		<g>
			<path style="&st0;" d="M93.549,13.788c1.178,0,1.178-1.827,0-1.827S92.371,13.788,93.549,13.788L93.549,13.788z"/>
		</g>
	</g>
</g>
<g>
	<g>
		<g>
			<g>
				<g>
					<path style="&st0;" d="M26.123,42.691c-0.482,0.18-1.074,0.019-1.581,0.019c-0.674,0.001-1.303,0.236-1.859,0.6
						c-0.616,0.404-1.301,1.249-1.497,1.96c-0.196,0.713,0.44,1.74,0.765,2.353c1.644,3.098,5.426,1.905,8.228,2.204
						c1.194,0.127,1.182-1.737,0-1.863c-1.808-0.193-4.278,0.532-5.896-0.436c-1.171-0.701-1.599-2.432-0.044-2.917
						c0.768-0.239,1.595,0.168,2.378-0.125C27.733,44.071,27.251,42.27,26.123,42.691L26.123,42.691z"/>
				</g>
			</g>
		</g>
		<g>
			<g>
				<g>
					<path style="&st0;" d="M80.397,42.783c-0.017,1.252-0.119,2.504-0.159,3.756c-0.036,1.119-0.227,2.568,0.188,3.641
						c0.37,0.956,1.925,0.541,1.55-0.427c-0.396-1.024-0.154-2.472-0.12-3.542c0.037-1.142,0.133-2.285,0.149-3.427
						C82.019,41.746,80.412,41.747,80.397,42.783L80.397,42.783z"/>
				</g>
			</g>
			<g>
				<g>
					<path style="&st0;" d="M79.36,43.974c2.214-0.536,4.496-0.781,6.771-0.804c1.036-0.011,1.037-1.618,0-1.608
						c-2.412,0.025-4.852,0.294-7.199,0.861C77.926,42.668,78.353,44.218,79.36,43.974L79.36,43.974z"/>
				</g>
			</g>
		</g>
		<g>
			<g>
				<g>
					<path style="&st0;" d="M38.171,42.801c-0.912,2.066-1.043,4.805-0.57,6.989c0.254,1.174,2.05,0.676,1.796-0.495
						c-0.356-1.649-0.311-3.983,0.382-5.554C40.26,42.653,38.656,41.704,38.171,42.801L38.171,42.801z"/>
				</g>
			</g>
			<g>
				<g>
					<path style="&st0;" d="M38.499,50.475c1.111,0,2.222,0,3.333,0c1.201,0,1.201-1.863,0-1.863c-1.111,0-2.222,0-3.333,0
						C37.298,48.612,37.298,50.475,38.499,50.475L38.499,50.475z"/>
				</g>
			</g>
			<g>
				<g>
					<path style="&st0;" d="M39.452,47.098c0.635,0,1.27,0,1.905,0c1.201,0,1.201-1.863,0-1.863c-0.635,0-1.27,0-1.905,0
						C38.25,45.235,38.25,47.098,39.452,47.098L39.452,47.098z"/>
				</g>
			</g>
			<g>
				<g>
					<path style="&st0;" d="M38.499,44.686c2.352-0.034,4.62-0.528,6.914-0.998c1.176-0.241,0.677-2.037-0.495-1.796
						c-2.133,0.437-4.232,0.9-6.419,0.932C37.299,42.84,37.297,44.703,38.499,44.686L38.499,44.686z"/>
				</g>
			</g>
		</g>
		<g>
			<g>
				<g>
					<path style="&st0;" d="M52.717,44.35c0.192,1.881,0.402,3.802,0.891,5.633c0.268,1,1.818,0.575,1.55-0.427
						c-0.453-1.694-0.657-3.464-0.834-5.205C54.22,43.33,52.612,43.319,52.717,44.35L52.717,44.35z"/>
				</g>
			</g>
			<g>
				<g>
					<path style="&st0;" d="M53.064,44.345c0.812-0.541,2.56-1.436,3.31-0.296c0.769,1.168-1.004,2.316-1.859,2.672
						c-0.943,0.392-0.53,1.948,0.427,1.55c1.831-0.762,4.02-2.62,2.923-4.841c-1.1-2.226-3.955-1.578-5.613-0.474
						C51.394,43.529,52.198,44.922,53.064,44.345L53.064,44.345z"/>
				</g>
			</g>
		</g>
		<g>
			<g>
				<g>
					<g>
						<path style="&st0;" d="M65.05,44.35c0.192,1.881,0.402,3.802,0.891,5.633c0.268,1,1.818,0.575,1.55-0.427
							c-0.453-1.694-0.657-3.464-0.834-5.205C66.554,43.33,64.945,43.319,65.05,44.35L65.05,44.35z"/>
					</g>
				</g>
				<g>
					<g>
						<path style="&st0;" d="M65.397,44.345c0.812-0.541,2.56-1.436,3.31-0.296c0.769,1.168-1.004,2.316-1.859,2.672
							c-0.943,0.392-0.53,1.948,0.427,1.55c1.831-0.762,4.02-2.62,2.923-4.841c-1.1-2.226-3.955-1.578-5.613-0.474
							C63.728,43.529,64.531,44.922,65.397,44.345L65.397,44.345z"/>
					</g>
				</g>
			</g>
			<g>
				<g>
					<path style="&st0;" d="M67.518,48.551c1.242,0.462,2.037,1.74,2.922,2.655c0.836,0.865,2.152-0.454,1.317-1.317
						c-1.164-1.204-2.116-2.529-3.744-3.134C66.885,46.335,66.403,48.137,67.518,48.551L67.518,48.551z"/>
				</g>
			</g>
		</g>
		<g>
			<g>
				<g>
					<path style="&st0;" d="M37.378,31.255c0.458-0.334,0.941-0.643,1.48-0.827c0.193-0.066,0.427-0.119,0.545-0.131
						c0.086-0.009,0.173-0.01,0.26-0.01c0.034,0,0.346,0.033,0.187,0.008c0.075,0.012,0.149,0.032,0.222,0.052
						c0.047,0.014,0.094,0.029,0.14,0.046c-0.081-0.037-0.08-0.036,0.004,0.003c0.063,0.03,0.123,0.066,0.183,0.102
						c0.18,0.11,0.016,0,0.106,0.079c0.05,0.044,0.096,0.093,0.141,0.142c0.087,0.094-0.046-0.081,0.073,0.098
						c0.036,0.054,0.067,0.112,0.098,0.17c0.062,0.116-0.029-0.104,0.044,0.106c0.021,0.061,0.037,0.124,0.053,0.187
						c0.057,0.226,0.008-0.034,0.02,0.102c0.008,0.086-0.027,0.49,0.005,0.294c-0.014,0.086-0.148,0.451-0.074,0.29
						c-0.027,0.058-0.06,0.113-0.093,0.168c-0.111,0.184,0.014,0-0.072,0.095c-0.18,0.201-0.315,0.271-0.652,0.358
						c-0.174,0.045-0.267,0.047-0.512,0.049c-0.269,0.002-0.527-0.04-0.789-0.097c-1.017-0.221-1.449,1.339-0.43,1.56
						c1.2,0.261,2.474,0.222,3.432-0.631c0.741-0.66,0.941-1.751,0.708-2.681c-0.247-0.988-1.057-1.758-2.029-2.02
						c-1.364-0.368-2.791,0.306-3.869,1.092C35.728,30.467,36.534,31.871,37.378,31.255L37.378,31.255z"/>
				</g>
			</g>
			<g>
				<g>
					<path style="&st0;" d="M38.532,34.264c0.427-0.043,0.87-0.072,1.294,0.006c0.158,0.029,0.311,0.078,0.462,0.134
						c-0.085-0.032,0.316,0.222,0.192,0.118c0.036,0.031,0.07,0.064,0.102,0.099c0.154,0.157-0.078-0.126,0.038,0.052
						c0.02,0.031,0.103,0.223,0.031,0.04c0.023,0.059,0.038,0.122,0.052,0.184c-0.058-0.253-0.024,0.33,0.009,0.082
						c-0.009,0.069-0.121,0.408-0.054,0.254c-0.209,0.482-0.523,0.7-1.006,0.834c-0.61,0.169-1.342-0.074-1.98-0.468
						c-0.891-0.549-1.702,0.85-0.816,1.397c1.672,1.032,4.32,1.086,5.226-1.009c0.376-0.87,0.284-1.789-0.357-2.509
						c-0.766-0.861-2.136-0.937-3.194-0.831C37.504,32.749,37.494,34.367,38.532,34.264L38.532,34.264z"/>
				</g>
			</g>
		</g>
		<g>
			<g>
				<g>
					<path style="&st0;" d="M51,33.311c1.341-1.046,2.673-2.104,4.075-3.067c0.854-0.587,0.046-1.99-0.816-1.397
						c-1.515,1.042-2.953,2.19-4.402,3.32C49.035,32.808,50.188,33.944,51,33.311L51,33.311z"/>
				</g>
			</g>
			<g>
				<g>
					<path style="&st0;" d="M53.721,29.679c0.081,2.367,0.044,4.733-0.001,7.1c-0.02,1.044,1.598,1.042,1.618,0
						c0.045-2.367,0.082-4.733,0.001-7.1C55.303,28.639,53.685,28.635,53.721,29.679L53.721,29.679z"/>
				</g>
			</g>
			<g>
				<g>
					<path style="&st0;" d="M52.231,37.952c1.443,0.018,2.879-0.073,4.316-0.189c1.032-0.083,1.041-1.702,0-1.618
						c-1.437,0.116-2.873,0.207-4.316,0.189C51.187,36.321,51.189,37.939,52.231,37.952L52.231,37.952z"/>
				</g>
			</g>
		</g>
		<g>
			<g>
				<g>
					<path style="&st0;" d="M80.152,33.311c1.341-1.046,2.673-2.104,4.075-3.067c0.854-0.587,0.046-1.99-0.816-1.397
						c-1.515,1.042-2.953,2.19-4.402,3.32C78.186,32.808,79.34,33.944,80.152,33.311L80.152,33.311z"/>
				</g>
			</g>
			<g>
				<g>
					<path style="&st0;" d="M82.872,29.679c0.081,2.367,0.044,4.733-0.001,7.1c-0.02,1.044,1.598,1.042,1.618,0
						c0.045-2.367,0.082-4.733,0.001-7.1C84.454,28.639,82.837,28.635,82.872,29.679L82.872,29.679z"/>
				</g>
			</g>
			<g>
				<g>
					<path style="&st0;" d="M81.383,37.952c1.443,0.018,2.879-0.073,4.316-0.189c1.032-0.083,1.041-1.702,0-1.618
						c-1.437,0.116-2.873,0.207-4.316,0.189C80.339,36.321,80.34,37.939,81.383,37.952L81.383,37.952z"/>
				</g>
			</g>
		</g>
		<g>
			<g>
				<g>
					<path style="&st0;" d="M22.746,33.311c1.341-1.046,2.673-2.104,4.075-3.067c0.854-0.587,0.046-1.99-0.816-1.397
						c-1.515,1.042-2.953,2.19-4.402,3.32C20.781,32.808,21.934,33.944,22.746,33.311L22.746,33.311z"/>
				</g>
			</g>
			<g>
				<g>
					<path style="&st0;" d="M25.467,29.679c0.081,2.367,0.044,4.733-0.001,7.1c-0.02,1.044,1.598,1.042,1.618,0
						c0.045-2.367,0.082-4.733,0.001-7.1C27.049,28.639,25.431,28.635,25.467,29.679L25.467,29.679z"/>
				</g>
			</g>
			<g>
				<g>
					<path style="&st0;" d="M23.977,37.952c1.443,0.018,2.879-0.073,4.316-0.189c1.032-0.083,1.041-1.702,0-1.618
						c-1.437,0.116-2.873,0.207-4.316,0.189C22.933,36.321,22.935,37.939,23.977,37.952L23.977,37.952z"/>
				</g>
			</g>
		</g>
		<g>
			<g>
				<g>
					<path style="&st0;" d="M66.204,32.81c-0.298-1.446,0.207-2.9,1.756-2.837c0.451,0.018,0.89,0.268,1.11,0.664
						c0.296,0.535-0.098,1.372-0.435,1.919c-0.549,0.891,0.851,1.703,1.397,0.816c0.664-1.078,0.984-2.269,0.475-3.47
						c-0.409-0.966-1.479-1.431-2.452-1.541c-0.983-0.111-2.028,0.324-2.688,1.045c-0.955,1.045-0.993,2.519-0.723,3.833
						C64.854,34.261,66.413,33.828,66.204,32.81L66.204,32.81z"/>
				</g>
			</g>
			<g>
				<g>
					<path style="&st0;" d="M68.764,32.257c-1.283,1.537-2.483,3.139-3.728,4.706c-0.642,0.807,0.495,1.96,1.144,1.144
						c1.246-1.566,2.446-3.169,3.728-4.706C70.571,32.606,69.433,31.455,68.764,32.257L68.764,32.257z"/>
				</g>
			</g>
			<g>
				<g>
					<path style="&st0;" d="M65.206,38.199c1.998-0.125,3.967-0.467,5.894-1.01c1.003-0.282,0.576-1.843-0.43-1.56
						c-1.79,0.504-3.607,0.836-5.464,0.952C64.17,36.646,64.163,38.264,65.206,38.199L65.206,38.199z"/>
				</g>
			</g>
		</g>
	</g>
	<g>
		<g>
			<g>
				<path style="&st0;" d="M92.317,43.764c0.239,1.2,0.199,2.431,0.457,3.628c0.28,1.298,1.229,2.218,2.267,2.959
					c0.382,0.272,1.07,0.099,1.266-0.332c1.129-2.479,1.027-5,0.701-7.65c-0.144-1.169-1.996-1.183-1.851,0
					c0.278,2.258,0.525,4.58-0.448,6.715c0.422-0.111,0.844-0.221,1.266-0.332c-1.896-1.353-1.467-3.44-1.873-5.48
					C93.869,42.102,92.085,42.598,92.317,43.764L92.317,43.764z"/>
			</g>
		</g>
	</g>
	<g>
		<g>
			<g>
				<path style="&st0;" d="M93.098,33.311c1.341-1.046,2.673-2.104,4.075-3.067c0.854-0.587,0.046-1.99-0.816-1.397
					c-1.515,1.042-2.953,2.19-4.402,3.32C91.132,32.808,92.286,33.944,93.098,33.311L93.098,33.311z"/>
			</g>
		</g>
		<g>
			<g>
				<path style="&st0;" d="M95.819,29.679c0.081,2.367,0.044,4.733-0.001,7.1c-0.02,1.044,1.598,1.042,1.618,0
					c0.045-2.367,0.082-4.733,0.001-7.1C97.4,28.639,95.783,28.635,95.819,29.679L95.819,29.679z"/>
			</g>
		</g>
		<g>
			<g>
				<path style="&st0;" d="M94.329,37.952c1.443,0.018,2.879-0.073,4.316-0.189c1.032-0.083,1.041-1.702,0-1.618
					c-1.437,0.116-2.873,0.207-4.316,0.189C93.285,36.321,93.286,37.939,94.329,37.952L94.329,37.952z"/>
			</g>
		</g>
	</g>
</g>
</svg>
