<?xml version="1.0" encoding="utf-8"?>
<!-- Generator: Adobe Illustrator 17.0.0, SVG Export Plug-In . SVG Version: 6.00 Build 0)  -->
<!DOCTYPE svg PUBLIC "-//W3C//DTD SVG 1.1//EN" "http://www.w3.org/Graphics/SVG/1.1/DTD/svg11.dtd">
<svg version="1.1" id="Calque_1" xmlns="http://www.w3.org/2000/svg" xmlns:xlink="http://www.w3.org/1999/xlink" x="0px" y="0px"
	 width="213.174px" height="76.571px" viewBox="0 0 213.174 76.571" enable-background="new 0 0 213.174 76.571"
	 xml:space="preserve">
<g>
	<g>
		<g>
			<g>
				<path fill="#3D3D3D" d="M132.726,29.37c-1.301,0.675-3.219,1.877-2.838,3.635c0.377,1.742,2.518,2.425,4.012,2.818
					c1.156,0.304,1.645-1.481,0.492-1.785c-0.859-0.226-2.135-0.5-2.657-1.309c-0.409-0.635,1.59-1.587,1.926-1.761
					C134.72,30.418,133.784,28.821,132.726,29.37L132.726,29.37z"/>
			</g>
		</g>
		<g>
			<g>
				<path fill="#3D3D3D" d="M132.717,31.571c0.963,0.114,2.394,0.214,3.148,0.918c0.099,0.093,0.026,0.124-0.107,0.335
					c-0.353,0.562-1.062,0.962-1.603,1.308c-1.002,0.641-0.075,2.243,0.934,1.598c1.267-0.81,3.261-2.201,2.488-3.97
					c-0.722-1.651-3.351-1.862-4.859-2.04C131.533,29.58,131.547,31.432,132.717,31.571L132.717,31.571z"/>
			</g>
		</g>
		<g>
			<g>
				<path fill="#3D3D3D" d="M133.424,33.919c1.24,0.455,2.036,1.712,2.925,2.619c0.836,0.854,2.144-0.456,1.309-1.309
					c-1.165-1.189-2.121-2.5-3.742-3.095C132.793,31.722,132.313,33.511,133.424,33.919L133.424,33.919z"/>
			</g>
		</g>
	</g>
	<g>
		<g>
			<g>
				<path fill="#3D3D3D" d="M102.158,29.65c0.001,1.45-0.108,3.329,0.961,4.466c0.82,0.871,2.126-0.441,1.309-1.309
					c-0.631-0.67-0.419-2.316-0.419-3.157C104.008,28.456,102.157,28.456,102.158,29.65L102.158,29.65z"/>
			</g>
		</g>
		<g>
			<g>
				<path fill="#3D3D3D" d="M101.259,30.542c0.816-0.125,1.66-0.262,2.401-0.351c0.336-0.04,0.674-0.072,1.012-0.089
					c0.127-0.006,0.253-0.008,0.38-0.006c0.083,0.001,0.502,0.053,0.186,0.003c0.09,0.014,0.346,0.118,0.044-0.015
					c0.08,0.035,0.147,0.128-0.07-0.065c-0.035-0.031-0.184-0.348-0.163-0.275c-0.035-0.119-0.036-0.237-0.002-0.356
					c-0.012,0.072-0.086,0.192,0.033-0.058c-0.024,0.05-0.055,0.096-0.085,0.142c-0.12,0.182,0.135-0.159-0.025,0.029
					c-0.647,0.758-1.542,1.331-2.352,1.893c-0.414,0.287-0.602,0.805-0.332,1.266c0.24,0.41,0.851,0.62,1.266,0.332
					c0.888-0.616,4.921-3.114,2.699-4.487c-0.617-0.381-1.513-0.27-2.196-0.205c-1.1,0.105-2.194,0.292-3.286,0.46
					c-0.499,0.077-0.768,0.695-0.646,1.138C100.266,30.424,100.761,30.619,101.259,30.542L101.259,30.542z"/>
			</g>
		</g>
		<g>
			<g>
				<path fill="#3D3D3D" d="M105.427,33.525c0.907,0.196,1.851,0.389,2.707,0.758c0.218,0.094,0.448,0.202,0.62,0.369
					c-0.16-0.154,0.038-0.488-0.038-0.403c-0.35,0.393-1.001,0.596-1.477,0.777c-1.055,0.402-2.157,0.688-3.25,0.965
					c-1.157,0.292-0.666,2.077,0.492,1.785c1.376-0.348,2.763-0.718,4.065-1.295c0.733-0.325,1.68-0.793,1.92-1.636
					c0.626-2.191-3.212-2.815-4.548-3.104C104.755,31.489,104.261,33.273,105.427,33.525L105.427,33.525z"/>
			</g>
		</g>
	</g>
	<g>
		<g>
			<g>
				<path fill="#3D3D3D" d="M139.213,30.83c0.239,1.2,0.199,2.431,0.457,3.628c0.28,1.298,1.229,2.218,2.267,2.959
					c0.382,0.272,1.07,0.099,1.266-0.332c1.129-2.479,1.027-5,0.701-7.65c-0.144-1.169-1.996-1.183-1.851,0
					c0.278,2.258,0.525,4.58-0.448,6.715c0.422-0.111,0.844-0.221,1.266-0.332c-1.896-1.353-1.467-3.44-1.873-5.48
					C140.765,29.168,138.981,29.665,139.213,30.83L139.213,30.83z"/>
			</g>
		</g>
	</g>
	<g>
		<g>
			<g>
				<path fill="#3D3D3D" d="M123.153,30.153c0.017,1.895,0.175,3.856,0.608,5.705c0.272,1.162,2.056,0.669,1.785-0.492
					c-0.396-1.693-0.526-3.478-0.542-5.213C124.993,28.96,123.143,28.959,123.153,30.153L123.153,30.153z"/>
			</g>
		</g>
		<g>
			<g>
				<path fill="#3D3D3D" d="M121.92,30.791c1.442-0.017,2.869-0.266,4.309-0.287c1.192-0.017,1.194-1.868,0-1.851
					c-1.441,0.021-2.867,0.27-4.309,0.287C120.727,28.955,120.726,30.805,121.92,30.791L121.92,30.791z"/>
			</g>
		</g>
		<g>
			<g>
				<path fill="#3D3D3D" d="M123.028,37.366c1.545-0.325,3.048-0.792,4.638-0.829c1.192-0.027,1.194-1.878,0-1.851
					c-1.758,0.04-3.422,0.536-5.13,0.895C121.368,35.827,121.863,37.611,123.028,37.366L123.028,37.366z"/>
			</g>
		</g>
	</g>
	<g>
		<g>
			<g>
				<path fill="#3D3D3D" d="M146.213,29.702c-0.91,2.035-1.042,4.749-0.569,6.903c0.255,1.166,2.04,0.671,1.785-0.492
					c-0.356-1.625-0.309-3.931,0.383-5.477C148.294,29.556,146.699,28.614,146.213,29.702L146.213,29.702z"/>
			</g>
		</g>
		<g>
			<g>
				<path fill="#3D3D3D" d="M146.536,37.285c1.111,0,2.222,0,3.333,0c1.194,0,1.194-1.851,0-1.851c-1.111,0-2.222,0-3.333,0
					C145.342,35.434,145.342,37.285,146.536,37.285L146.536,37.285z"/>
			</g>
		</g>
		<g>
			<g>
				<path fill="#3D3D3D" d="M147.488,33.952c0.635,0,1.27,0,1.905,0c1.194,0,1.194-1.851,0-1.851c-0.635,0-1.27,0-1.905,0
					C146.294,32.101,146.294,33.952,147.488,33.952L147.488,33.952z"/>
			</g>
		</g>
		<g>
			<g>
				<path fill="#3D3D3D" d="M146.536,31.571c2.35-0.033,4.618-0.521,6.912-0.985c1.169-0.237,0.673-2.021-0.492-1.785
					c-2.134,0.432-4.234,0.888-6.42,0.919C145.343,29.737,145.341,31.588,146.536,31.571L146.536,31.571z"/>
			</g>
		</g>
	</g>
	<g>
		<g>
			<g>
				<path fill="#3D3D3D" d="M79.532,30.743c1.85,0.001,3.726-0.032,5.54,0.382c1.003,0.229,1.428-1.311,0.425-1.54
					c-1.956-0.447-3.968-0.439-5.965-0.439C78.502,29.146,78.502,30.743,79.532,30.743L79.532,30.743z"/>
			</g>
		</g>
		<g>
			<g>
				<path fill="#3D3D3D" d="M79.994,30.143c-0.468,2.051-0.382,4.119,0,6.177c0.188,1.012,1.727,0.582,1.54-0.425
					c-0.328-1.768-0.402-3.566,0-5.328C81.763,29.565,80.223,29.139,79.994,30.143L79.994,30.143z"/>
			</g>
		</g>
		<g>
			<g>
				<path fill="#3D3D3D" d="M79.121,34.441c1.233,0,2.465,0,3.698,0c1.03,0,1.03-1.597,0-1.597c-1.233,0-2.465,0-3.698,0
					C78.091,32.844,78.091,34.441,79.121,34.441L79.121,34.441z"/>
			</g>
		</g>
	</g>
	<g>
		<g>
			<g>
				<g>
					<path fill="#3D3D3D" d="M156.369,30.774c0.192,1.857,0.402,3.755,0.891,5.561c0.269,0.993,1.81,0.571,1.54-0.425
						c-0.453-1.671-0.657-3.418-0.834-5.136C157.861,29.76,156.263,29.75,156.369,30.774L156.369,30.774z"/>
				</g>
			</g>
			<g>
				<g>
					<path fill="#3D3D3D" d="M156.708,30.773c0.81-0.533,2.567-1.42,3.318-0.294c0.771,1.157-1.022,2.285-1.862,2.63
						c-0.939,0.386-0.528,1.932,0.425,1.54c1.927-0.792,3.882-2.522,2.92-4.786c-0.969-2.28-4.055-1.489-5.605-0.469
						C155.045,29.958,155.844,31.341,156.708,30.773L156.708,30.773z"/>
				</g>
			</g>
		</g>
		<g>
			<g>
				<path fill="#3D3D3D" d="M158.833,34.926c1.24,0.455,2.036,1.712,2.925,2.619c0.836,0.854,2.144-0.456,1.309-1.309
					c-1.165-1.189-2.121-2.5-3.742-3.095C158.202,32.73,157.723,34.519,158.833,34.926L158.833,34.926z"/>
			</g>
		</g>
	</g>
	<g>
		<g>
			<g>
				<g>
					<path fill="#3D3D3D" d="M112.773,30.774c0.192,1.857,0.402,3.755,0.891,5.561c0.269,0.993,1.81,0.571,1.54-0.425
						c-0.453-1.671-0.657-3.418-0.834-5.136C114.266,29.76,112.667,29.75,112.773,30.774L112.773,30.774z"/>
				</g>
			</g>
			<g>
				<g>
					<path fill="#3D3D3D" d="M113.112,30.773c0.81-0.533,2.567-1.42,3.318-0.294c0.771,1.157-1.022,2.285-1.862,2.63
						c-0.939,0.386-0.528,1.932,0.425,1.54c1.927-0.792,3.882-2.522,2.92-4.786c-0.969-2.28-4.055-1.489-5.605-0.469
						C111.45,29.958,112.249,31.341,113.112,30.773L113.112,30.773z"/>
				</g>
			</g>
		</g>
		<g>
			<g>
				<path fill="#3D3D3D" d="M115.238,34.926c1.24,0.455,2.036,1.712,2.925,2.619c0.836,0.854,2.144-0.456,1.309-1.309
					c-1.165-1.189-2.121-2.5-3.742-3.095C114.607,32.73,114.127,34.519,115.238,34.926L115.238,34.926z"/>
			</g>
		</g>
	</g>
	<g>
		<g>
			<g>
				<path fill="#3D3D3D" d="M53.548,33.997c0.32-1.339,0.31-2.644,1.959-2.693c-0.299-0.228-0.599-0.456-0.898-0.684
					c0.575,1.983,2.288,3.347,2.857,5.307c0.334,1.151,2.132,0.661,1.796-0.495c-0.575-1.983-2.288-3.347-2.857-5.307
					c-0.113-0.39-0.482-0.696-0.898-0.684c-1.07,0.032-2.116,0.275-2.778,1.183c-0.607,0.831-0.744,1.902-0.977,2.878
					C51.472,34.67,53.268,35.166,53.548,33.997L53.548,33.997z"/>
			</g>
		</g>
		<g>
			<g>
				<path fill="#3D3D3D" d="M50.992,34.166c3.054-0.861,6.098-1.381,9.276-1.414c1.201-0.013,1.202-1.876,0-1.863
					c-3.341,0.035-6.558,0.575-9.771,1.481C49.343,32.695,49.834,34.492,50.992,34.166L50.992,34.166z"/>
			</g>
		</g>
	</g>
	<g>
		<g>
			<g>
				<path fill="#3D3D3D" d="M91.565,33.997c0.32-1.339,0.31-2.644,1.959-2.693c-0.299-0.228-0.599-0.456-0.898-0.684
					c0.575,1.983,2.288,3.347,2.857,5.307c0.334,1.151,2.132,0.661,1.796-0.495c-0.575-1.983-2.288-3.347-2.857-5.307
					c-0.113-0.39-0.482-0.696-0.898-0.684c-1.07,0.032-2.116,0.275-2.778,1.183c-0.607,0.831-0.744,1.902-0.977,2.878
					C89.489,34.67,91.286,35.166,91.565,33.997L91.565,33.997z"/>
			</g>
		</g>
		<g>
			<g>
				<path fill="#3D3D3D" d="M89.009,34.166c3.054-0.861,6.098-1.381,9.276-1.414c1.201-0.013,1.202-1.876,0-1.863
					c-3.341,0.035-6.558,0.575-9.771,1.481C87.36,32.695,87.851,34.492,89.009,34.166L89.009,34.166z"/>
			</g>
		</g>
	</g>
</g>
<g>
	<g>
		<g>
			<g>
				<g>
					<path fill="#3D3D3D" d="M116.46,14.718c0-0.089,0-0.177,0-0.266c0-1.194-1.851-1.194-1.851,0c0,1.359,0,2.717,0,4.076
						c0,1.194,1.851,1.194,1.851,0c0-1.359,0-2.717,0-4.076c0-1.194-1.851-1.194-1.851,0c0,0.089,0,0.177,0,0.266
						C114.609,15.911,116.46,15.911,116.46,14.718L116.46,14.718z"/>
				</g>
			</g>
			<g>
				<g>
					<path fill="#3D3D3D" d="M113.63,15.167c1.792-0.019,3.338-0.259,4.439,1.446c0.048-0.374,0.096-0.748,0.145-1.121
						c-1.401,1.4-2.805,2.739-4.574,3.665c-1.058,0.554-0.122,2.151,0.934,1.598c1.903-0.996,3.441-2.448,4.949-3.954
						c0.284-0.284,0.369-0.774,0.145-1.121c-0.663-1.028-1.453-1.763-2.615-2.175c-1.073-0.38-2.311-0.2-3.422-0.189
						C112.437,13.329,112.436,15.18,113.63,15.167L113.63,15.167z"/>
				</g>
			</g>
		</g>
		<g>
			<g>
				<g>
					<path fill="#3D3D3D" d="M122.419,14.875c0.239,1.2,0.199,2.431,0.457,3.628c0.28,1.298,1.229,2.218,2.267,2.959
						c0.382,0.272,1.07,0.099,1.266-0.332c1.129-2.479,1.027-5,0.701-7.65c-0.144-1.169-1.996-1.183-1.851,0
						c0.278,2.258,0.525,4.58-0.448,6.715c0.422-0.111,0.844-0.221,1.266-0.332c-1.896-1.353-1.467-3.44-1.873-5.48
						C123.97,13.213,122.187,13.709,122.419,14.875L122.419,14.875z"/>
				</g>
			</g>
		</g>
	</g>
	<g>
		<g>
			<g>
				<g>
					<path fill="#3D3D3D" d="M168.796,14.71c0-0.089,0-0.177,0-0.266c0-1.194-1.851-1.194-1.851,0c0,1.359,0,2.717,0,4.076
						c0,1.194,1.851,1.194,1.851,0c0-1.359,0-2.717,0-4.076c0-1.194-1.851-1.194-1.851,0c0,0.089,0,0.177,0,0.266
						C166.945,15.903,168.796,15.903,168.796,14.71L168.796,14.71z"/>
				</g>
			</g>
			<g>
				<g>
					<path fill="#3D3D3D" d="M165.966,15.159c1.792-0.019,3.338-0.259,4.439,1.446c0.048-0.374,0.096-0.748,0.145-1.121
						c-1.401,1.4-2.805,2.739-4.574,3.665c-1.058,0.554-0.122,2.151,0.934,1.598c1.903-0.996,3.441-2.448,4.949-3.954
						c0.284-0.284,0.369-0.774,0.145-1.121c-0.663-1.028-1.453-1.763-2.615-2.175c-1.073-0.38-2.311-0.2-3.422-0.189
						C164.773,13.321,164.772,15.171,165.966,15.159L165.966,15.159z"/>
				</g>
			</g>
		</g>
		<g>
			<g>
				<g>
					<path fill="#3D3D3D" d="M143.636,13.694c0.001,1.45-0.108,3.329,0.961,4.466c0.82,0.871,2.126-0.441,1.309-1.309
						c-0.631-0.67-0.419-2.316-0.419-3.157C145.486,12.501,143.636,12.501,143.636,13.694L143.636,13.694z"/>
				</g>
			</g>
			<g>
				<g>
					<path fill="#3D3D3D" d="M142.737,14.587c0.816-0.125,1.66-0.262,2.401-0.351c0.336-0.04,0.674-0.072,1.012-0.089
						c0.127-0.006,0.253-0.008,0.38-0.006c0.083,0.001,0.502,0.053,0.186,0.003c0.09,0.014,0.346,0.118,0.044-0.015
						c0.08,0.035,0.147,0.128-0.07-0.065c-0.035-0.031-0.184-0.348-0.163-0.275c-0.035-0.119-0.036-0.237-0.002-0.356
						c-0.012,0.072-0.086,0.192,0.033-0.058c-0.024,0.05-0.055,0.096-0.085,0.142c-0.12,0.182,0.135-0.159-0.025,0.029
						c-0.647,0.758-1.542,1.331-2.352,1.893c-0.414,0.287-0.602,0.805-0.332,1.266c0.24,0.41,0.851,0.62,1.266,0.332
						c0.888-0.616,4.921-3.114,2.699-4.487c-0.617-0.381-1.513-0.27-2.196-0.205c-1.1,0.105-2.194,0.292-3.286,0.46
						c-0.501,0.074-0.77,0.692-0.648,1.135C141.744,14.469,142.239,14.663,142.737,14.587L142.737,14.587z"/>
				</g>
			</g>
			<g>
				<g>
					<path fill="#3D3D3D" d="M146.905,17.57c0.907,0.196,1.851,0.389,2.707,0.758c0.218,0.094,0.448,0.202,0.62,0.369
						c-0.16-0.154,0.038-0.488-0.038-0.403c-0.35,0.393-1.001,0.596-1.477,0.777c-1.055,0.402-2.157,0.688-3.25,0.965
						c-1.157,0.292-0.666,2.077,0.492,1.785c1.376-0.348,2.763-0.718,4.065-1.295c0.733-0.325,1.68-0.793,1.92-1.636
						c0.626-2.191-3.212-2.815-4.548-3.104C146.233,15.534,145.739,17.318,146.905,17.57L146.905,17.57z"/>
				</g>
			</g>
		</g>
		<g>
			<g>
				<g>
					<path fill="#3D3D3D" d="M174.879,14.875c0.239,1.2,0.199,2.431,0.457,3.628c0.28,1.298,1.229,2.218,2.267,2.959
						c0.382,0.272,1.07,0.099,1.266-0.332c1.129-2.479,1.027-5,0.701-7.65c-0.144-1.169-1.996-1.183-1.851,0
						c0.278,2.258,0.525,4.58-0.448,6.715c0.422-0.111,0.844-0.221,1.266-0.332c-1.896-1.353-1.467-3.44-1.873-5.48
						C176.431,13.213,174.647,13.709,174.879,14.875L174.879,14.875z"/>
				</g>
			</g>
		</g>
		<g>
			<g>
				<g>
					<path fill="#3D3D3D" d="M156.886,14.198c0.017,1.895,0.175,3.856,0.608,5.705c0.272,1.162,2.056,0.669,1.785-0.492
						c-0.396-1.693-0.526-3.478-0.542-5.213C158.726,13.005,156.875,13.004,156.886,14.198L156.886,14.198z"/>
				</g>
			</g>
			<g>
				<g>
					<path fill="#3D3D3D" d="M155.652,14.836c1.442-0.017,2.869-0.266,4.309-0.287c1.192-0.017,1.194-1.868,0-1.851
						c-1.441,0.021-2.867,0.27-4.309,0.287C154.459,12.999,154.458,14.85,155.652,14.836L155.652,14.836z"/>
				</g>
			</g>
			<g>
				<g>
					<path fill="#3D3D3D" d="M156.76,21.411c1.545-0.325,3.048-0.792,4.638-0.829c1.192-0.027,1.194-1.878,0-1.851
						c-1.758,0.04-3.422,0.536-5.13,0.895C155.1,19.872,155.596,21.656,156.76,21.411L156.76,21.411z"/>
				</g>
			</g>
		</g>
		<g>
			<g>
				<g>
					<path fill="#3D3D3D" d="M191.467,13.493c-0.91,2.035-1.042,4.749-0.569,6.903c0.255,1.166,2.04,0.671,1.785-0.492
						c-0.356-1.625-0.309-3.931,0.383-5.477C193.548,13.348,191.954,12.406,191.467,13.493L191.467,13.493z"/>
				</g>
			</g>
			<g>
				<g>
					<path fill="#3D3D3D" d="M191.79,21.076c1.111,0,2.222,0,3.333,0c1.194,0,1.194-1.851,0-1.851c-1.111,0-2.222,0-3.333,0
						C190.597,19.225,190.597,21.076,191.79,21.076L191.79,21.076z"/>
				</g>
			</g>
			<g>
				<g>
					<path fill="#3D3D3D" d="M192.742,17.743c0.635,0,1.27,0,1.905,0c1.194,0,1.194-1.851,0-1.851c-0.635,0-1.27,0-1.905,0
						C191.549,15.892,191.549,17.743,192.742,17.743L192.742,17.743z"/>
				</g>
			</g>
			<g>
				<g>
					<path fill="#3D3D3D" d="M191.79,15.362c2.35-0.033,4.618-0.521,6.912-0.985c1.169-0.237,0.673-2.021-0.492-1.785
						c-2.134,0.432-4.234,0.888-6.42,0.919C190.598,13.528,190.596,15.379,191.79,15.362L191.79,15.362z"/>
				</g>
			</g>
		</g>
		<g>
			<g>
				<g>
					<path fill="#3D3D3D" d="M182.544,14.226c0,1.659,0,3.319,0,4.978c0,1.194,1.851,1.194,1.851,0c0-1.659,0-3.319,0-4.978
						C184.395,13.033,182.544,13.033,182.544,14.226L182.544,14.226z"/>
				</g>
			</g>
			<g>
				<g>
					<path fill="#3D3D3D" d="M183.469,20.841c1.185,0,2.371,0,3.556,0c1.194,0,1.194-1.851,0-1.851c-1.185,0-2.371,0-3.556,0
						C182.276,18.99,182.276,20.841,183.469,20.841L183.469,20.841z"/>
				</g>
			</g>
		</g>
	</g>
	<g>
		<g>
			<g>
				<g>
					<path fill="#3D3D3D" d="M20.143,13.196c-1.47-0.215-3.73-0.581-4.764,0.817c-1.057,1.43,0.696,3.218,1.656,4.114
						c0.871,0.813,2.183-0.493,1.309-1.309c-0.458-0.428-0.909-0.868-1.242-1.403c-0.096-0.154-0.13-0.235-0.175-0.403
						c0.006,0.021-0.036,0.065,0.004-0.002c-0.069,0.116,0.053,0,0.011,0.017c0.186-0.077,0.396-0.123,0.595-0.144
						c0.698-0.074,1.423-0.004,2.115,0.097c0.499,0.073,0.992-0.116,1.138-0.646C20.911,13.894,20.643,13.269,20.143,13.196
						L20.143,13.196z"/>
				</g>
			</g>
			<g>
				<g>
					<path fill="#3D3D3D" d="M16.891,17.939c0.295,0.427,0.622,0.911,0.787,1.374c0.033,0.092,0.056,0.186,0.078,0.281
						c-0.043-0.185,0,0.036,0,0.078c0.002,0.232,0.05-0.182-0.013,0.02c0.06-0.195,0.065-0.169,0.158-0.23
						c-0.175,0.117,0.187-0.053-0.035,0.009c-0.237,0.067,0.19-0.006-0.084,0.01c-0.248,0.014-0.408-0.018-0.628-0.062
						c-0.674-0.136-1.334-0.389-1.964-0.661c-0.463-0.2-0.989-0.142-1.266,0.332c-0.231,0.395-0.131,1.066,0.332,1.266
						c1.239,0.535,3.317,1.546,4.632,0.669c1.479-0.986,0.336-2.957-0.399-4.019C17.815,16.031,16.21,16.955,16.891,17.939
						L16.891,17.939z"/>
				</g>
			</g>
		</g>
		<g>
			<g>
				<g>
					<path fill="#3D3D3D" d="M53.747,13.659c-1.214,0.439-2.385-0.249-3.555,0.707c-1.699,1.387-1.521,2.748-0.42,4.472
						c1.747,2.734,5.361,1.596,8.03,1.877c1.186,0.125,1.174-1.727,0-1.851c-1.809-0.19-4.276,0.529-5.899-0.429
						c-1.163-0.687-1.671-2.667,0.126-2.899c0.748-0.097,1.475,0.173,2.21-0.093C55.353,15.041,54.872,13.252,53.747,13.659
						L53.747,13.659z"/>
				</g>
			</g>
		</g>
		<g>
			<g>
				<g>
					<path fill="#3D3D3D" d="M72.285,14.297c0.017,1.895,0.175,3.856,0.608,5.705c0.272,1.162,2.056,0.669,1.785-0.492
						c-0.396-1.693-0.526-3.478-0.542-5.213C74.125,13.104,72.274,13.103,72.285,14.297L72.285,14.297z"/>
				</g>
			</g>
			<g>
				<g>
					<path fill="#3D3D3D" d="M71.051,14.935c1.442-0.017,2.869-0.266,4.309-0.287c1.192-0.017,1.194-1.868,0-1.851
						c-1.441,0.021-2.867,0.27-4.309,0.287C69.858,13.099,69.857,14.95,71.051,14.935L71.051,14.935z"/>
				</g>
			</g>
			<g>
				<g>
					<path fill="#3D3D3D" d="M72.159,21.51c1.545-0.325,3.048-0.792,4.638-0.829c1.192-0.027,1.194-1.878,0-1.851
						c-1.758,0.04-3.422,0.536-5.13,0.895C70.499,19.971,70.995,21.755,72.159,21.51L72.159,21.51z"/>
				</g>
			</g>
		</g>
		<g>
			<g>
				<g>
					<path fill="#3D3D3D" d="M89.712,14.799c-0.593,1.311-0.602,2.859-0.603,4.276c-0.001,1.194,1.85,1.194,1.851,0
						c0.001-1.046-0.09-2.369,0.35-3.342C91.797,14.654,90.203,13.712,89.712,14.799L89.712,14.799z"/>
				</g>
			</g>
			<g>
				<g>
					<path fill="#3D3D3D" d="M90.044,16.541c1.56,1.023,3.222,1.881,4.574,3.189c0.858,0.829,2.168-0.479,1.309-1.309
						c-1.468-1.419-3.255-2.367-4.949-3.478C89.977,14.286,89.05,15.889,90.044,16.541L90.044,16.541z"/>
				</g>
			</g>
			<g>
				<g>
					<path fill="#3D3D3D" d="M94.347,15.266c0,0.952,0,1.905,0,2.857c0,1.194,1.851,1.194,1.851,0c0-0.952,0-1.905,0-2.857
						C96.198,14.072,94.347,14.072,94.347,15.266L94.347,15.266z"/>
				</g>
			</g>
		</g>
		<g>
			<g>
				<g>
					<path fill="#3D3D3D" d="M82.735,15.046c1.169,0.479,2.599,1.108,3.381,2.153c0.756,1.01-0.911,1.524-1.638,1.774
						c-1.33,0.457-2.852,0.102-3.225-1.399c-0.312-1.257,0.955-2.192,1.974-2.528c1.128-0.373,0.644-2.161-0.492-1.785
						c-1.988,0.657-3.678,2.358-3.301,4.602c0.36,2.135,2.692,3.629,4.784,3.113c1.823-0.45,4.427-1.546,3.897-3.868
						c-0.46-2.02-3.216-3.16-4.889-3.847C82.122,12.808,81.646,14.599,82.735,15.046z"/>
				</g>
			</g>
		</g>
		<g>
			<g>
				<g>
					<path fill="#3D3D3D" d="M62.19,13.831c-0.017,1.236-0.119,2.472-0.159,3.707c-0.036,1.103-0.226,2.539,0.188,3.595
						c0.371,0.948,1.916,0.536,1.54-0.425c-0.395-1.008-0.155-2.44-0.12-3.495c0.037-1.127,0.133-2.255,0.149-3.383
						C63.802,12.8,62.205,12.802,62.19,13.831L62.19,13.831z"/>
				</g>
			</g>
			<g>
				<g>
					<path fill="#3D3D3D" d="M61.147,15.012c2.215-0.529,4.498-0.77,6.773-0.793c1.029-0.01,1.03-1.607,0-1.597
						c-2.411,0.024-4.85,0.29-7.197,0.85C59.721,13.711,60.145,15.251,61.147,15.012L61.147,15.012z"/>
				</g>
			</g>
		</g>
		<g>
			<g>
				<g>
					<path fill="#3D3D3D" d="M22.904,13.846c-0.91,2.035-1.042,4.749-0.569,6.903c0.255,1.166,2.04,0.671,1.785-0.492
						c-0.356-1.625-0.309-3.931,0.383-5.477C24.985,13.701,23.39,12.758,22.904,13.846L22.904,13.846z"/>
				</g>
			</g>
			<g>
				<g>
					<path fill="#3D3D3D" d="M23.226,21.429c1.111,0,2.222,0,3.333,0c1.194,0,1.194-1.851,0-1.851c-1.111,0-2.222,0-3.333,0
						C22.033,19.578,22.033,21.429,23.226,21.429L23.226,21.429z"/>
				</g>
			</g>
			<g>
				<g>
					<path fill="#3D3D3D" d="M24.179,18.096c0.635,0,1.27,0,1.905,0c1.194,0,1.194-1.851,0-1.851c-0.635,0-1.27,0-1.905,0
						C22.985,16.245,22.985,18.096,24.179,18.096L24.179,18.096z"/>
				</g>
			</g>
			<g>
				<g>
					<path fill="#3D3D3D" d="M23.226,15.715c2.35-0.033,4.618-0.521,6.912-0.985c1.169-0.237,0.673-2.021-0.492-1.785
						c-2.134,0.432-4.234,0.888-6.42,0.919C22.034,13.881,22.032,15.732,23.226,15.715L23.226,15.715z"/>
				</g>
			</g>
		</g>
		<g>
			<g>
				<g>
					<path fill="#3D3D3D" d="M39.587,13.846c-0.911,2.035-1.042,4.749-0.57,6.904c0.255,1.166,2.04,0.671,1.785-0.492
						c-0.356-1.625-0.309-3.932,0.383-5.478C41.668,13.701,40.073,12.758,39.587,13.846L39.587,13.846z"/>
				</g>
			</g>
			<g>
				<g>
					<path fill="#3D3D3D" d="M39.909,21.429c1.111,0,2.222,0,3.333,0c1.194,0,1.194-1.851,0-1.851c-1.111,0-2.222,0-3.333,0
						C38.716,19.578,38.716,21.429,39.909,21.429L39.909,21.429z"/>
				</g>
			</g>
			<g>
				<g>
					<path fill="#3D3D3D" d="M40.862,18.096c0.635,0,1.27,0,1.905,0c1.194,0,1.194-1.851,0-1.851c-0.635,0-1.27,0-1.905,0
						C39.668,16.245,39.668,18.096,40.862,18.096L40.862,18.096z"/>
				</g>
			</g>
			<g>
				<g>
					<path fill="#3D3D3D" d="M39.909,15.715c2.35-0.033,4.618-0.521,6.912-0.985c1.169-0.237,0.673-2.021-0.492-1.785
						c-2.133,0.432-4.233,0.888-6.42,0.919C38.717,13.881,38.715,15.732,39.909,15.715L39.909,15.715z"/>
				</g>
			</g>
		</g>
		<g>
			<g>
				<g>
					<path fill="#3D3D3D" d="M32.099,14.326c0,1.659,0,3.319,0,4.978c0,1.194,1.851,1.194,1.851,0c0-1.659,0-3.319,0-4.978
						C33.95,13.132,32.099,13.132,32.099,14.326L32.099,14.326z"/>
				</g>
			</g>
			<g>
				<g>
					<path fill="#3D3D3D" d="M33.025,20.94c1.185,0,2.371,0,3.556,0c1.194,0,1.194-1.851,0-1.851c-1.185,0-2.371,0-3.556,0
						C31.831,19.09,31.831,20.94,33.025,20.94L33.025,20.94z"/>
				</g>
			</g>
		</g>
		<g>
			<g>
				<path fill="#3D3D3D" d="M27.597,10.166c0.836-0.098,1.219-0.741,1.546-1.448c0.172-0.373,0.325-0.755,0.498-1.128
					c0.075-0.163,0.158-0.322,0.249-0.477c0.066-0.095,0.067-0.104,0.005-0.027c0.086-0.111-0.225,0.065-0.356,0.08
					c0.501-0.059,0.925-0.377,0.925-0.925c0-0.46-0.423-0.984-0.925-0.925c-0.836,0.098-1.219,0.741-1.546,1.448
					c-0.172,0.373-0.325,0.755-0.498,1.128c-0.075,0.163-0.158,0.322-0.249,0.477c-0.066,0.095-0.067,0.104-0.005,0.027
					c-0.086,0.111,0.225-0.065,0.356-0.08c-0.501,0.059-0.925,0.377-0.925,0.925C26.671,9.701,27.095,10.225,27.597,10.166
					L27.597,10.166z"/>
			</g>
		</g>
	</g>
</g>
<g>
	<g>
		<path fill="#3D3D3D" d="M169.252,32.379c1.194,0,1.194-1.851,0-1.851S168.059,32.379,169.252,32.379L169.252,32.379z"/>
	</g>
</g>
<g>
	<g>
		<path fill="#3D3D3D" d="M169.252,36.283c1.194,0,1.194-1.851,0-1.851S168.059,36.283,169.252,36.283L169.252,36.283z"/>
	</g>
</g>
<g>
	<g>
		<path fill="#3D3D3D" d="M87.601,44.971c12.657,0,25.315,0,37.972,0c0.548,0,0.548-0.85,0-0.85c-12.657,0-25.315,0-37.972,0
			C87.052,44.121,87.052,44.971,87.601,44.971L87.601,44.971z"/>
	</g>
</g>
<g>
	<g>
		<path fill="#3D3D3D" d="M55.573,28.775c0.502,0.059,0.926-0.465,0.925-0.925c0-0.548-0.424-0.866-0.925-0.925
			c0.131,0.015,0.442,0.191,0.356,0.08c0.062,0.077,0.061,0.068-0.005-0.027c-0.091-0.155-0.174-0.314-0.249-0.477
			c-0.173-0.373-0.326-0.755-0.498-1.128c-0.327-0.707-0.71-1.35-1.546-1.448c-0.502-0.059-0.925,0.465-0.925,0.925
			c0,0.548,0.508,0.777,0.574,0.872C53.371,25.877,54.737,28.677,55.573,28.775L55.573,28.775z"/>
	</g>
</g>
<g>
	<g>
		<g>
			<g>
				<g>
					<path fill="#3D3D3D" d="M72.424,65.761c-0.482,0.18-1.074,0.019-1.581,0.019c-0.674,0.001-1.303,0.236-1.859,0.6
						c-0.616,0.404-1.301,1.249-1.497,1.96c-0.196,0.713,0.44,1.74,0.765,2.353c1.644,3.098,5.426,1.905,8.228,2.204
						c1.194,0.127,1.182-1.737,0-1.863c-1.808-0.193-4.278,0.532-5.896-0.436c-1.171-0.701-1.599-2.432-0.044-2.917
						c0.768-0.239,1.595,0.168,2.378-0.125C74.034,67.141,73.552,65.34,72.424,65.761L72.424,65.761z"/>
				</g>
			</g>
		</g>
		<g>
			<g>
				<g>
					<path fill="#3D3D3D" d="M126.698,65.853c-0.017,1.252-0.119,2.504-0.159,3.756c-0.036,1.119-0.227,2.568,0.188,3.641
						c0.37,0.956,1.925,0.541,1.55-0.427c-0.396-1.024-0.154-2.472-0.12-3.542c0.037-1.142,0.133-2.285,0.149-3.427
						C128.32,64.816,126.713,64.817,126.698,65.853L126.698,65.853z"/>
				</g>
			</g>
			<g>
				<g>
					<path fill="#3D3D3D" d="M125.661,67.044c2.214-0.536,4.496-0.781,6.771-0.804c1.036-0.011,1.037-1.618,0-1.608
						c-2.412,0.025-4.852,0.294-7.199,0.861C124.227,65.738,124.654,67.288,125.661,67.044L125.661,67.044z"/>
				</g>
			</g>
		</g>
		<g>
			<g>
				<g>
					<path fill="#3D3D3D" d="M84.472,65.871c-0.912,2.066-1.043,4.805-0.57,6.989c0.254,1.174,2.05,0.676,1.796-0.495
						c-0.356-1.649-0.311-3.983,0.382-5.554C86.561,65.723,84.957,64.774,84.472,65.871L84.472,65.871z"/>
				</g>
			</g>
			<g>
				<g>
					<path fill="#3D3D3D" d="M84.8,73.545c1.111,0,2.222,0,3.333,0c1.201,0,1.201-1.863,0-1.863c-1.111,0-2.222,0-3.333,0
						C83.599,71.682,83.599,73.545,84.8,73.545L84.8,73.545z"/>
				</g>
			</g>
			<g>
				<g>
					<path fill="#3D3D3D" d="M85.753,70.168c0.635,0,1.27,0,1.905,0c1.201,0,1.201-1.863,0-1.863c-0.635,0-1.27,0-1.905,0
						C84.551,68.305,84.551,70.168,85.753,70.168L85.753,70.168z"/>
				</g>
			</g>
			<g>
				<g>
					<path fill="#3D3D3D" d="M84.8,67.756c2.352-0.034,4.62-0.528,6.914-0.998c1.176-0.241,0.677-2.037-0.495-1.796
						c-2.133,0.437-4.232,0.9-6.419,0.932C83.6,65.91,83.598,67.773,84.8,67.756L84.8,67.756z"/>
				</g>
			</g>
		</g>
		<g>
			<g>
				<g>
					<path fill="#3D3D3D" d="M99.018,67.42c0.192,1.881,0.402,3.802,0.891,5.633c0.268,1,1.818,0.575,1.55-0.427
						c-0.453-1.694-0.657-3.464-0.834-5.205C100.521,66.4,98.913,66.389,99.018,67.42L99.018,67.42z"/>
				</g>
			</g>
			<g>
				<g>
					<path fill="#3D3D3D" d="M99.365,67.415c0.812-0.541,2.56-1.436,3.31-0.296c0.769,1.168-1.004,2.316-1.859,2.672
						c-0.943,0.392-0.53,1.948,0.427,1.55c1.831-0.762,4.02-2.62,2.923-4.841c-1.1-2.226-3.955-1.578-5.613-0.474
						C97.695,66.599,98.499,67.992,99.365,67.415L99.365,67.415z"/>
				</g>
			</g>
		</g>
		<g>
			<g>
				<g>
					<g>
						<path fill="#3D3D3D" d="M111.351,67.42c0.192,1.881,0.402,3.802,0.891,5.633c0.268,1,1.818,0.575,1.55-0.427
							c-0.453-1.694-0.657-3.464-0.834-5.205C112.855,66.4,111.246,66.389,111.351,67.42L111.351,67.42z"/>
					</g>
				</g>
				<g>
					<g>
						<path fill="#3D3D3D" d="M111.698,67.415c0.812-0.541,2.56-1.436,3.31-0.296c0.769,1.168-1.004,2.316-1.859,2.672
							c-0.943,0.392-0.53,1.948,0.427,1.55c1.831-0.762,4.02-2.62,2.923-4.841c-1.1-2.226-3.955-1.578-5.613-0.474
							C110.029,66.599,110.832,67.992,111.698,67.415L111.698,67.415z"/>
					</g>
				</g>
			</g>
			<g>
				<g>
					<path fill="#3D3D3D" d="M113.819,71.621c1.242,0.462,2.037,1.74,2.922,2.655c0.836,0.865,2.152-0.454,1.317-1.317
						c-1.164-1.204-2.116-2.529-3.744-3.134C113.186,69.405,112.704,71.207,113.819,71.621L113.819,71.621z"/>
				</g>
			</g>
		</g>
		<g>
			<g>
				<g>
					<path fill="#3D3D3D" d="M83.679,54.325c0.458-0.334,0.941-0.643,1.48-0.827c0.193-0.066,0.427-0.119,0.545-0.131
						c0.086-0.009,0.173-0.01,0.26-0.01c0.034,0,0.346,0.033,0.187,0.008c0.075,0.012,0.149,0.032,0.222,0.052
						c0.047,0.014,0.094,0.029,0.14,0.046c-0.081-0.037-0.08-0.036,0.004,0.003c0.063,0.03,0.123,0.066,0.183,0.102
						c0.18,0.11,0.016,0,0.106,0.079c0.05,0.044,0.096,0.093,0.141,0.142c0.087,0.094-0.046-0.081,0.073,0.098
						c0.036,0.054,0.067,0.112,0.098,0.17c0.062,0.116-0.029-0.104,0.044,0.106c0.021,0.061,0.037,0.124,0.053,0.187
						c0.057,0.226,0.008-0.034,0.02,0.102c0.008,0.086-0.027,0.49,0.005,0.294c-0.014,0.086-0.148,0.451-0.074,0.29
						c-0.027,0.058-0.06,0.113-0.093,0.168c-0.111,0.184,0.014,0-0.072,0.095c-0.18,0.201-0.315,0.271-0.652,0.358
						c-0.174,0.045-0.267,0.047-0.512,0.049c-0.269,0.002-0.527-0.04-0.789-0.097c-1.017-0.221-1.449,1.339-0.43,1.56
						c1.2,0.261,2.474,0.222,3.432-0.631c0.741-0.66,0.941-1.751,0.708-2.681c-0.247-0.988-1.057-1.758-2.029-2.02
						c-1.364-0.368-2.791,0.306-3.869,1.092C82.029,53.537,82.835,54.941,83.679,54.325L83.679,54.325z"/>
				</g>
			</g>
			<g>
				<g>
					<path fill="#3D3D3D" d="M84.833,57.334c0.427-0.043,0.87-0.072,1.294,0.006c0.158,0.029,0.311,0.078,0.462,0.134
						c-0.085-0.032,0.316,0.222,0.192,0.118c0.036,0.031,0.07,0.064,0.102,0.099c0.154,0.157-0.078-0.126,0.038,0.052
						c0.02,0.031,0.103,0.223,0.031,0.04c0.023,0.059,0.038,0.122,0.052,0.184c-0.058-0.253-0.024,0.33,0.009,0.082
						c-0.009,0.069-0.121,0.408-0.054,0.254c-0.209,0.482-0.523,0.7-1.006,0.834c-0.61,0.169-1.342-0.074-1.98-0.468
						c-0.891-0.549-1.702,0.85-0.816,1.397c1.672,1.032,4.32,1.086,5.226-1.009c0.376-0.87,0.284-1.789-0.357-2.509
						c-0.766-0.861-2.136-0.937-3.194-0.831C83.805,55.819,83.795,57.437,84.833,57.334L84.833,57.334z"/>
				</g>
			</g>
		</g>
		<g>
			<g>
				<g>
					<path fill="#3D3D3D" d="M97.301,56.381c1.341-1.046,2.673-2.104,4.075-3.067c0.854-0.587,0.046-1.99-0.816-1.397
						c-1.515,1.042-2.953,2.19-4.402,3.32C95.336,55.878,96.489,57.014,97.301,56.381L97.301,56.381z"/>
				</g>
			</g>
			<g>
				<g>
					<path fill="#3D3D3D" d="M100.022,52.749c0.081,2.367,0.044,4.733-0.001,7.1c-0.02,1.044,1.598,1.042,1.618,0
						c0.045-2.367,0.082-4.733,0.001-7.1C101.604,51.709,99.986,51.705,100.022,52.749L100.022,52.749z"/>
				</g>
			</g>
			<g>
				<g>
					<path fill="#3D3D3D" d="M98.532,61.022c1.443,0.018,2.879-0.073,4.316-0.189c1.032-0.083,1.041-1.702,0-1.618
						c-1.437,0.116-2.873,0.207-4.316,0.189C97.488,59.391,97.49,61.009,98.532,61.022L98.532,61.022z"/>
				</g>
			</g>
		</g>
		<g>
			<g>
				<g>
					<path fill="#3D3D3D" d="M126.453,56.381c1.341-1.046,2.673-2.104,4.075-3.067c0.854-0.587,0.046-1.99-0.816-1.397
						c-1.515,1.042-2.953,2.19-4.402,3.32C124.487,55.878,125.641,57.014,126.453,56.381L126.453,56.381z"/>
				</g>
			</g>
			<g>
				<g>
					<path fill="#3D3D3D" d="M129.173,52.749c0.081,2.367,0.044,4.733-0.001,7.1c-0.02,1.044,1.598,1.042,1.618,0
						c0.045-2.367,0.082-4.733,0.001-7.1C130.755,51.709,129.138,51.705,129.173,52.749L129.173,52.749z"/>
				</g>
			</g>
			<g>
				<g>
					<path fill="#3D3D3D" d="M127.684,61.022c1.443,0.018,2.879-0.073,4.316-0.189c1.032-0.083,1.041-1.702,0-1.618
						c-1.437,0.116-2.873,0.207-4.316,0.189C126.64,59.391,126.641,61.009,127.684,61.022L127.684,61.022z"/>
				</g>
			</g>
		</g>
		<g>
			<g>
				<g>
					<path fill="#3D3D3D" d="M69.047,56.381c1.341-1.046,2.673-2.104,4.075-3.067c0.854-0.587,0.046-1.99-0.816-1.397
						c-1.515,1.042-2.953,2.19-4.402,3.32C67.082,55.878,68.235,57.014,69.047,56.381L69.047,56.381z"/>
				</g>
			</g>
			<g>
				<g>
					<path fill="#3D3D3D" d="M71.768,52.749c0.081,2.367,0.044,4.733-0.001,7.1c-0.02,1.044,1.598,1.042,1.618,0
						c0.045-2.367,0.082-4.733,0.001-7.1C73.35,51.709,71.732,51.705,71.768,52.749L71.768,52.749z"/>
				</g>
			</g>
			<g>
				<g>
					<path fill="#3D3D3D" d="M70.278,61.022c1.443,0.018,2.879-0.073,4.316-0.189c1.032-0.083,1.041-1.702,0-1.618
						c-1.437,0.116-2.873,0.207-4.316,0.189C69.234,59.391,69.236,61.009,70.278,61.022L70.278,61.022z"/>
				</g>
			</g>
		</g>
		<g>
			<g>
				<g>
					<path fill="#3D3D3D" d="M112.505,55.88c-0.298-1.446,0.207-2.9,1.756-2.837c0.451,0.018,0.89,0.268,1.11,0.664
						c0.296,0.535-0.098,1.372-0.435,1.919c-0.549,0.891,0.851,1.703,1.397,0.816c0.664-1.078,0.984-2.269,0.475-3.47
						c-0.409-0.966-1.479-1.431-2.452-1.541c-0.983-0.111-2.028,0.324-2.688,1.045c-0.955,1.045-0.993,2.519-0.723,3.833
						C111.155,57.331,112.714,56.898,112.505,55.88L112.505,55.88z"/>
				</g>
			</g>
			<g>
				<g>
					<path fill="#3D3D3D" d="M115.065,55.327c-1.283,1.537-2.483,3.139-3.728,4.706c-0.642,0.807,0.495,1.96,1.144,1.144
						c1.246-1.566,2.446-3.169,3.728-4.706C116.872,55.676,115.734,54.525,115.065,55.327L115.065,55.327z"/>
				</g>
			</g>
			<g>
				<g>
					<path fill="#3D3D3D" d="M111.507,61.269c1.998-0.125,3.967-0.467,5.894-1.01c1.003-0.282,0.576-1.843-0.43-1.56
						c-1.79,0.504-3.607,0.836-5.464,0.952C110.471,59.716,110.464,61.334,111.507,61.269L111.507,61.269z"/>
				</g>
			</g>
		</g>
	</g>
	<g>
		<g>
			<g>
				<path fill="#3D3D3D" d="M138.618,66.834c0.239,1.2,0.199,2.431,0.457,3.628c0.28,1.298,1.229,2.218,2.267,2.959
					c0.382,0.272,1.07,0.099,1.266-0.332c1.129-2.479,1.027-5,0.701-7.65c-0.144-1.169-1.996-1.183-1.851,0
					c0.278,2.258,0.525,4.58-0.448,6.715c0.422-0.111,0.844-0.221,1.266-0.332c-1.896-1.353-1.467-3.44-1.873-5.48
					C140.17,65.172,138.386,65.668,138.618,66.834L138.618,66.834z"/>
			</g>
		</g>
	</g>
	<g>
		<g>
			<g>
				<path fill="#3D3D3D" d="M139.399,56.381c1.341-1.046,2.673-2.104,4.075-3.067c0.854-0.587,0.046-1.99-0.816-1.397
					c-1.515,1.042-2.953,2.19-4.402,3.32C137.433,55.878,138.587,57.014,139.399,56.381L139.399,56.381z"/>
			</g>
		</g>
		<g>
			<g>
				<path fill="#3D3D3D" d="M142.12,52.749c0.081,2.367,0.044,4.733-0.001,7.1c-0.02,1.044,1.598,1.042,1.618,0
					c0.045-2.367,0.082-4.733,0.001-7.1C143.701,51.709,142.084,51.705,142.12,52.749L142.12,52.749z"/>
			</g>
		</g>
		<g>
			<g>
				<path fill="#3D3D3D" d="M140.63,61.022c1.443,0.018,2.879-0.073,4.316-0.189c1.032-0.083,1.041-1.702,0-1.618
					c-1.437,0.116-2.873,0.207-4.316,0.189C139.586,59.391,139.587,61.009,140.63,61.022L140.63,61.022z"/>
			</g>
		</g>
	</g>
</g>
</svg>
