<?xml version="1.0" encoding="utf-8"?>
<!-- Generator: Adobe Illustrator 17.0.0, SVG Export Plug-In . SVG Version: 6.00 Build 0)  -->
<!DOCTYPE svg PUBLIC "-//W3C//DTD SVG 1.1//EN" "http://www.w3.org/Graphics/SVG/1.1/DTD/svg11.dtd" [
	<!ENTITY st0 "fill:#3D3D3D;">
]>
<svg version="1.1" id="Calque_1" xmlns="http://www.w3.org/2000/svg" xmlns:xlink="http://www.w3.org/1999/xlink" x="0px" y="0px"
	 width="120.73px" height="56.16px" viewBox="0 0 120.73 56.16" style="enable-background:new 0 0 120.73 56.16;"
	 xml:space="preserve">
<g>
	<g>
		<g>
			<g>
				<g>
					<path style="&st0;" d="M72.157,6.379c0,1.616,0,3.233,0,4.849c0,1.178,1.827,1.178,1.827,0c0-1.616,0-3.233,0-4.849
						C73.983,5.201,72.157,5.201,72.157,6.379L72.157,6.379z"/>
				</g>
			</g>
			<g>
				<g>
					<path style="&st0;" d="M73.07,12.834c1.185,0,2.371,0,3.556,0c1.178,0,1.178-1.827,0-1.827c-1.185,0-2.371,0-3.556,0
						C71.892,11.007,71.892,12.834,73.07,12.834L73.07,12.834z"/>
				</g>
			</g>
		</g>
		<g>
			<g>
				<g>
					<path style="&st0;" d="M82.306,5.906c-0.906,1.973-1.04,4.638-0.568,6.734c0.258,1.149,2.02,0.662,1.761-0.486
						c-0.355-1.578-0.303-3.829,0.384-5.326C84.371,5.765,82.797,4.836,82.306,5.906L82.306,5.906z"/>
				</g>
			</g>
			<g>
				<g>
					<path style="&st0;" d="M82.618,13.31c1.111,0,2.222,0,3.333,0c1.178,0,1.178-1.827,0-1.827c-1.111,0-2.222,0-3.333,0
						C81.44,11.483,81.44,13.31,82.618,13.31L82.618,13.31z"/>
				</g>
			</g>
			<g>
				<g>
					<path style="&st0;" d="M83.571,10.063c0.635,0,1.27,0,1.905,0c1.178,0,1.178-1.827,0-1.827c-0.635,0-1.27,0-1.905,0
						C82.393,8.236,82.393,10.063,83.571,10.063L83.571,10.063z"/>
				</g>
			</g>
			<g>
				<g>
					<path style="&st0;" d="M82.618,7.744c2.347-0.032,4.616-0.508,6.909-0.96c1.155-0.228,0.665-1.988-0.486-1.761
						c-2.135,0.421-4.238,0.865-6.424,0.895C81.441,5.933,81.44,7.76,82.618,7.744L82.618,7.744z"/>
				</g>
			</g>
		</g>
		<g>
			<g>
				<g>
					<path style="&st0;" d="M55.929,6.849c0-0.086,0-0.173,0-0.259c0-1.178-1.827-1.178-1.827,0c0,1.323,0,2.647,0,3.97
						c0,1.178,1.827,1.178,1.827,0c0-1.323,0-2.647,0-3.97c0-1.178-1.827-1.178-1.827,0c0,0.086,0,0.173,0,0.259
						C54.103,8.027,55.929,8.027,55.929,6.849L55.929,6.849z"/>
				</g>
			</g>
			<g>
				<g>
					<path style="&st0;" d="M53.111,7.299c1.768-0.018,3.343-0.266,4.449,1.403c0.048-0.369,0.095-0.738,0.143-1.107
						c-1.406,1.368-2.815,2.67-4.577,3.568c-1.05,0.535-0.125,2.111,0.922,1.577c1.894-0.965,3.435-2.382,4.947-3.854
						c0.281-0.274,0.366-0.77,0.143-1.107c-0.667-1.007-1.456-1.726-2.607-2.124c-1.076-0.371-2.307-0.196-3.419-0.184
						C51.934,5.484,51.933,7.311,53.111,7.299L53.111,7.299z"/>
				</g>
			</g>
		</g>
		<g>
			<g>
				<g>
					<path style="&st0;" d="M28.338,5.695c0.001,1.411-0.105,3.266,0.958,4.359c0.822,0.846,2.113-0.447,1.292-1.292
						c-0.626-0.643-0.422-2.248-0.423-3.067C30.165,4.517,28.338,4.517,28.338,5.695L28.338,5.695z"/>
				</g>
			</g>
			<g>
				<g>
					<path style="&st0;" d="M27.424,6.575c0.824-0.123,1.633-0.251,2.404-0.342c0.336-0.039,0.674-0.07,1.012-0.087
						c0.127-0.006,0.253-0.007,0.38-0.006c0.081,0.001,0.5,0.05,0.189,0.002c0.086,0.013,0.348,0.113,0.047-0.016
						c0.078,0.033,0.152,0.125-0.067-0.065c-0.094-0.082-0.126-0.154-0.16-0.273c-0.035-0.118-0.035-0.236-0.002-0.353
						c-0.012,0.073-0.087,0.184,0.032-0.059c-0.024,0.049-0.055,0.093-0.085,0.138c0.138-0.204,0.006-0.013-0.027,0.026
						c-0.65,0.742-1.546,1.296-2.354,1.842c-0.97,0.655-0.057,2.239,0.922,1.577c0.968-0.654,2.062-1.328,2.817-2.236
						c0.554-0.667,0.747-1.634-0.118-2.155c-0.62-0.373-1.506-0.265-2.19-0.202c-1.099,0.102-2.192,0.285-3.283,0.449
						c-0.493,0.074-0.758,0.688-0.638,1.124C26.445,6.46,26.932,6.649,27.424,6.575L27.424,6.575z"/>
				</g>
			</g>
			<g>
				<g>
					<path style="&st0;" d="M31.599,9.481c0.936,0.197,1.916,0.389,2.797,0.776c0.205,0.09,0.417,0.202,0.557,0.341
						c-0.176-0.175,0.002-0.498-0.051-0.44c-0.367,0.408-1.078,0.611-1.579,0.794c-1.03,0.374-2.098,0.646-3.161,0.908
						c-1.143,0.281-0.658,2.043,0.486,1.761c1.402-0.345,2.818-0.711,4.143-1.297c0.709-0.314,1.59-0.758,1.833-1.564
						c0.652-2.163-3.25-2.77-4.538-3.04C30.935,7.478,30.446,9.239,31.599,9.481L31.599,9.481z"/>
				</g>
			</g>
		</g>
		<g>
			<g>
				<g>
					<path style="&st0;" d="M63.264,7.014c0.239,1.168,0.199,2.369,0.457,3.534c0.282,1.275,1.232,2.174,2.261,2.889
						c0.382,0.266,1.05,0.099,1.25-0.328c1.128-2.411,1.026-4.872,0.699-7.457c-0.146-1.152-1.974-1.167-1.827,0
						c0.278,2.202,0.521,4.459-0.45,6.535c0.417-0.109,0.833-0.218,1.25-0.328c-1.892-1.315-1.467-3.319-1.879-5.331
						C64.789,5.374,63.029,5.864,63.264,7.014L63.264,7.014z"/>
				</g>
			</g>
		</g>
		<g>
			<g>
				<g>
					<path style="&st0;" d="M42.816,6.351c0.017,1.846,0.175,3.761,0.607,5.56c0.275,1.145,2.036,0.659,1.761-0.486
						c-0.395-1.646-0.527-3.385-0.542-5.074C44.632,5.174,42.805,5.173,42.816,6.351L42.816,6.351z"/>
				</g>
			</g>
			<g>
				<g>
					<path style="&st0;" d="M41.57,6.985c1.442-0.017,2.869-0.259,4.309-0.28c1.177-0.017,1.179-1.843,0-1.827
						c-1.441,0.02-2.868,0.263-4.309,0.28C40.393,5.172,40.392,6.998,41.57,6.985L41.57,6.985z"/>
				</g>
			</g>
			<g>
				<g>
					<path style="&st0;" d="M42.675,13.389c1.546-0.317,3.052-0.771,4.641-0.807c1.176-0.026,1.179-1.853,0-1.827
						c-1.754,0.039-3.42,0.522-5.127,0.872C41.036,11.864,41.525,13.624,42.675,13.389L42.675,13.389z"/>
				</g>
			</g>
		</g>
	</g>
	<g>
		<g>
			<path style="&st0;" d="M93.549,9.888c1.178,0,1.178-1.827,0-1.827S92.371,9.888,93.549,9.888L93.549,9.888z"/>
		</g>
	</g>
	<g>
		<g>
			<path style="&st0;" d="M93.549,13.788c1.178,0,1.178-1.827,0-1.827S92.371,13.788,93.549,13.788L93.549,13.788z"/>
		</g>
	</g>
</g>
<g>
	<g>
		<g>
			<g>
				<path style="&st0;" d="M35.825,43.115c0,1.659,0,3.319,0,4.978c0,1.194,1.851,1.194,1.851,0c0-1.659,0-3.319,0-4.978
					C37.675,41.922,35.825,41.922,35.825,43.115L35.825,43.115z"/>
			</g>
		</g>
		<g>
			<g>
				<path style="&st0;" d="M36.75,49.73c1.185,0,2.371,0,3.556,0c1.194,0,1.194-1.851,0-1.851c-1.185,0-2.371,0-3.556,0
					C35.556,47.879,35.556,49.73,36.75,49.73L36.75,49.73z"/>
			</g>
		</g>
	</g>
	<g>
		<g>
			<g>
				<path style="&st0;" d="M74.226,41.985c-1.47-0.215-3.73-0.581-4.764,0.817c-1.057,1.43,0.696,3.218,1.656,4.114
					c0.871,0.813,2.183-0.493,1.309-1.309c-0.458-0.428-0.909-0.868-1.242-1.403c-0.096-0.154-0.13-0.235-0.175-0.403
					c0.006,0.021-0.036,0.065,0.004-0.002c-0.069,0.116,0.053,0,0.011,0.017c0.186-0.077,0.396-0.123,0.595-0.144
					c0.698-0.074,1.423-0.004,2.115,0.097c0.499,0.073,0.992-0.116,1.138-0.646C74.993,42.683,74.726,42.058,74.226,41.985
					L74.226,41.985z"/>
			</g>
		</g>
		<g>
			<g>
				<path style="&st0;" d="M70.973,46.729c0.295,0.427,0.622,0.911,0.787,1.374c0.033,0.092,0.056,0.186,0.078,0.281
					c-0.043-0.185,0,0.036,0,0.078c0.002,0.232,0.05-0.182-0.013,0.02c0.06-0.195,0.065-0.169,0.158-0.23
					c-0.175,0.117,0.187-0.053-0.035,0.009c-0.237,0.067,0.19-0.006-0.084,0.01c-0.248,0.014-0.408-0.018-0.628-0.062
					c-0.674-0.136-1.334-0.389-1.964-0.661c-0.463-0.2-0.989-0.142-1.266,0.332c-0.231,0.395-0.131,1.066,0.332,1.266
					c1.239,0.535,3.317,1.546,4.632,0.669c1.479-0.986,0.336-2.957-0.399-4.019C71.897,44.821,70.292,45.745,70.973,46.729
					L70.973,46.729z"/>
			</g>
		</g>
	</g>
	<g>
		<g>
			<g>
				<path style="&st0;" d="M90.597,43.764c0.239,1.2,0.199,2.431,0.457,3.628c0.28,1.298,1.229,2.218,2.267,2.959
					c0.382,0.272,1.07,0.099,1.266-0.332c1.129-2.479,1.027-5,0.701-7.65c-0.144-1.169-1.996-1.183-1.851,0
					c0.278,2.258,0.525,4.58-0.448,6.715c0.422-0.111,0.844-0.221,1.266-0.332c-1.896-1.353-1.467-3.44-1.873-5.48
					C92.149,42.102,90.365,42.598,90.597,43.764L90.597,43.764z"/>
			</g>
		</g>
	</g>
	<g>
		<g>
			<g>
				<path style="&st0;" d="M27.475,42.98c0.017,1.895,0.175,3.856,0.608,5.705c0.272,1.162,2.056,0.669,1.785-0.492
					c-0.396-1.693-0.526-3.478-0.542-5.213C29.315,41.787,27.465,41.786,27.475,42.98L27.475,42.98z"/>
			</g>
		</g>
		<g>
			<g>
				<path style="&st0;" d="M26.242,43.618c1.442-0.017,2.869-0.266,4.309-0.287c1.192-0.017,1.194-1.868,0-1.851
					c-1.441,0.021-2.867,0.27-4.309,0.287C25.049,41.782,25.048,43.632,26.242,43.618L26.242,43.618z"/>
			</g>
		</g>
		<g>
			<g>
				<path style="&st0;" d="M27.35,50.193c1.545-0.325,3.048-0.792,4.638-0.829c1.192-0.027,1.194-1.878,0-1.851
					c-1.758,0.04-3.422,0.536-5.13,0.895C25.69,48.654,26.185,50.438,27.35,50.193L27.35,50.193z"/>
			</g>
		</g>
	</g>
	<g>
		<g>
			<g>
				<path style="&st0;" d="M45.745,43.588c-0.593,1.311-0.602,2.859-0.603,4.276c-0.001,1.194,1.85,1.194,1.851,0
					c0.001-1.046-0.09-2.369,0.35-3.342C47.831,43.444,46.236,42.502,45.745,43.588L45.745,43.588z"/>
			</g>
		</g>
		<g>
			<g>
				<path style="&st0;" d="M46.077,45.331c1.56,1.023,3.222,1.881,4.574,3.189c0.858,0.829,2.168-0.478,1.309-1.309
					c-1.468-1.419-3.255-2.367-4.949-3.478C46.01,43.076,45.084,44.679,46.077,45.331L46.077,45.331z"/>
			</g>
		</g>
		<g>
			<g>
				<path style="&st0;" d="M50.381,44.055c0,0.952,0,1.905,0,2.857c0,1.194,1.851,1.194,1.851,0c0-0.952,0-1.905,0-2.857
					C52.232,42.862,50.381,42.862,50.381,44.055L50.381,44.055z"/>
			</g>
		</g>
	</g>
	<g>
		<g>
			<g>
				<path style="&st0;" d="M58.999,43.836c1.169,0.479,2.599,1.108,3.381,2.153c0.756,1.01-0.911,1.524-1.638,1.774
					c-1.33,0.457-2.852,0.102-3.225-1.399c-0.312-1.257,0.955-2.192,1.974-2.528c1.128-0.373,0.644-2.161-0.492-1.785
					c-1.988,0.657-3.678,2.358-3.301,4.602c0.36,2.135,2.692,3.629,4.784,3.113c1.823-0.45,4.427-1.546,3.897-3.868
					c-0.46-2.02-3.216-3.16-4.889-3.847C58.387,41.598,57.911,43.389,58.999,43.836z"/>
			</g>
		</g>
	</g>
	<g>
		<g>
			<g>
				<path style="&st0;" d="M80.498,42.621c-0.017,1.236-0.119,2.472-0.159,3.707c-0.036,1.103-0.226,2.539,0.188,3.595
					c0.371,0.948,1.916,0.536,1.54-0.425c-0.395-1.008-0.155-2.44-0.12-3.495c0.037-1.127,0.133-2.255,0.149-3.383
					C82.109,41.59,80.512,41.592,80.498,42.621L80.498,42.621z"/>
			</g>
		</g>
		<g>
			<g>
				<path style="&st0;" d="M79.454,43.801c2.215-0.529,4.498-0.77,6.773-0.793c1.029-0.01,1.03-1.607,0-1.597
					c-2.411,0.024-4.85,0.29-7.197,0.85C78.028,42.501,78.453,44.041,79.454,43.801L79.454,43.801z"/>
			</g>
		</g>
	</g>
	<g>
		<g>
			<g>
				<path style="&st0;" d="M24.378,31.311c1.341-1.046,2.673-2.104,4.075-3.067c0.854-0.587,0.046-1.99-0.816-1.397
					c-1.515,1.042-2.953,2.19-4.402,3.32C22.412,30.808,23.565,31.944,24.378,31.311L24.378,31.311z"/>
			</g>
		</g>
		<g>
			<g>
				<path style="&st0;" d="M27.098,27.679c0.081,2.367,0.044,4.733-0.001,7.1c-0.02,1.044,1.598,1.042,1.618,0
					c0.045-2.367,0.082-4.733,0.001-7.1C28.68,26.639,27.062,26.635,27.098,27.679L27.098,27.679z"/>
			</g>
		</g>
		<g>
			<g>
				<path style="&st0;" d="M25.608,35.952c1.443,0.018,2.879-0.073,4.316-0.189c1.032-0.083,1.041-1.702,0-1.618
					c-1.437,0.116-2.873,0.207-4.316,0.189C24.565,34.321,24.566,35.939,25.608,35.952L25.608,35.952z"/>
			</g>
		</g>
	</g>
	<g>
		<g>
			<g>
				<path style="&st0;" d="M35.618,31.311c1.341-1.046,2.673-2.104,4.075-3.067c0.854-0.587,0.046-1.99-0.816-1.397
					c-1.515,1.042-2.953,2.19-4.402,3.32C33.652,30.808,34.805,31.944,35.618,31.311L35.618,31.311z"/>
			</g>
		</g>
		<g>
			<g>
				<path style="&st0;" d="M38.338,27.679c0.081,2.367,0.044,4.733-0.001,7.1c-0.02,1.044,1.598,1.042,1.618,0
					c0.045-2.367,0.082-4.733,0.001-7.1C39.92,26.639,38.302,26.635,38.338,27.679L38.338,27.679z"/>
			</g>
		</g>
		<g>
			<g>
				<path style="&st0;" d="M36.848,35.952c1.443,0.018,2.879-0.073,4.316-0.189c1.032-0.083,1.041-1.702,0-1.618
					c-1.437,0.116-2.873,0.207-4.316,0.189C35.805,34.321,35.806,35.939,36.848,35.952L36.848,35.952z"/>
			</g>
		</g>
	</g>
	<g>
		<g>
			<g>
				<path style="&st0;" d="M46.858,31.311c1.341-1.046,2.673-2.104,4.075-3.067c0.854-0.587,0.046-1.99-0.816-1.397
					c-1.515,1.042-2.953,2.19-4.402,3.32C44.892,30.808,46.045,31.944,46.858,31.311L46.858,31.311z"/>
			</g>
		</g>
		<g>
			<g>
				<path style="&st0;" d="M49.578,27.679c0.081,2.367,0.044,4.733-0.001,7.1c-0.02,1.044,1.598,1.042,1.618,0
					c0.045-2.367,0.082-4.733,0.001-7.1C51.16,26.639,49.542,26.635,49.578,27.679L49.578,27.679z"/>
			</g>
		</g>
		<g>
			<g>
				<path style="&st0;" d="M48.088,35.952c1.443,0.018,2.879-0.073,4.316-0.189c1.032-0.083,1.041-1.702,0-1.618
					c-1.437,0.116-2.873,0.207-4.316,0.189C47.045,34.321,47.046,35.939,48.088,35.952L48.088,35.952z"/>
			</g>
		</g>
	</g>
	<g>
		<g>
			<g>
				<path style="&st0;" d="M68.898,31.311c1.341-1.046,2.673-2.104,4.075-3.067c0.854-0.587,0.046-1.99-0.816-1.397
					c-1.515,1.042-2.953,2.19-4.402,3.32C66.932,30.808,68.085,31.944,68.898,31.311L68.898,31.311z"/>
			</g>
		</g>
		<g>
			<g>
				<path style="&st0;" d="M71.618,27.679c0.081,2.367,0.044,4.733-0.001,7.1c-0.02,1.044,1.598,1.042,1.618,0
					c0.045-2.367,0.082-4.733,0.001-7.1C73.2,26.639,71.582,26.635,71.618,27.679L71.618,27.679z"/>
			</g>
		</g>
		<g>
			<g>
				<path style="&st0;" d="M70.128,35.952c1.443,0.018,2.879-0.073,4.316-0.189c1.032-0.083,1.041-1.702,0-1.618
					c-1.437,0.116-2.873,0.207-4.316,0.189C69.085,34.321,69.086,35.939,70.128,35.952L70.128,35.952z"/>
			</g>
		</g>
	</g>
	<g>
		<g>
			<g>
				<path style="&st0;" d="M80.138,31.311c1.341-1.046,2.673-2.104,4.075-3.067c0.854-0.587,0.046-1.99-0.816-1.397
					c-1.515,1.042-2.953,2.19-4.402,3.32C78.172,30.808,79.325,31.944,80.138,31.311L80.138,31.311z"/>
			</g>
		</g>
		<g>
			<g>
				<path style="&st0;" d="M82.858,27.679c0.081,2.367,0.044,4.733-0.001,7.1c-0.02,1.044,1.598,1.042,1.618,0
					c0.045-2.367,0.082-4.733,0.001-7.1C84.44,26.639,82.822,26.635,82.858,27.679L82.858,27.679z"/>
			</g>
		</g>
		<g>
			<g>
				<path style="&st0;" d="M81.368,35.952c1.443,0.018,2.879-0.073,4.316-0.189c1.032-0.083,1.041-1.702,0-1.618
					c-1.437,0.116-2.873,0.207-4.316,0.189C80.325,34.321,80.326,35.939,81.368,35.952L81.368,35.952z"/>
			</g>
		</g>
	</g>
	<g>
		<g>
			<g>
				<path style="&st0;" d="M91.378,31.311c1.341-1.046,2.673-2.104,4.075-3.067c0.854-0.587,0.046-1.99-0.816-1.397
					c-1.515,1.042-2.953,2.19-4.402,3.32C89.412,30.808,90.565,31.944,91.378,31.311L91.378,31.311z"/>
			</g>
		</g>
		<g>
			<g>
				<path style="&st0;" d="M94.098,27.679c0.081,2.367,0.044,4.733-0.001,7.1c-0.02,1.044,1.598,1.042,1.618,0
					c0.045-2.367,0.082-4.733,0.001-7.1C95.68,26.639,94.062,26.635,94.098,27.679L94.098,27.679z"/>
			</g>
		</g>
		<g>
			<g>
				<path style="&st0;" d="M92.608,35.952c1.443,0.018,2.879-0.073,4.316-0.189c1.032-0.083,1.041-1.702,0-1.618
					c-1.437,0.116-2.873,0.207-4.316,0.189C91.565,34.321,91.566,35.939,92.608,35.952L92.608,35.952z"/>
			</g>
		</g>
	</g>
	<g>
		<g>
			<g>
				<path style="&st0;" d="M58.524,30.417c-0.298-1.446,0.207-2.9,1.756-2.837c0.451,0.018,0.89,0.268,1.11,0.664
					c0.296,0.535-0.098,1.372-0.435,1.919c-0.549,0.891,0.851,1.703,1.397,0.816c0.664-1.078,0.984-2.269,0.475-3.47
					c-0.409-0.966-1.479-1.431-2.452-1.541c-0.983-0.111-2.028,0.324-2.688,1.045c-0.955,1.045-0.993,2.519-0.723,3.833
					C57.174,31.868,58.733,31.435,58.524,30.417L58.524,30.417z"/>
			</g>
		</g>
		<g>
			<g>
				<path style="&st0;" d="M61.084,29.864c-1.283,1.537-2.483,3.139-3.728,4.706c-0.642,0.807,0.495,1.96,1.144,1.144
					c1.246-1.566,2.446-3.169,3.728-4.706C62.891,30.213,61.753,29.062,61.084,29.864L61.084,29.864z"/>
			</g>
		</g>
		<g>
			<g>
				<path style="&st0;" d="M57.526,35.806c1.998-0.125,3.967-0.467,5.894-1.01c1.003-0.282,0.576-1.843-0.43-1.56
					c-1.79,0.504-3.607,0.836-5.464,0.952C56.49,34.253,56.483,35.871,57.526,35.806L57.526,35.806z"/>
			</g>
		</g>
	</g>
</g>
</svg>
