<?xml version="1.0" encoding="utf-8"?>
<!-- Generator: Adobe Illustrator 17.0.0, SVG Export Plug-In . SVG Version: 6.00 Build 0)  -->
<!DOCTYPE svg PUBLIC "-//W3C//DTD SVG 1.1//EN" "http://www.w3.org/Graphics/SVG/1.1/DTD/svg11.dtd" [
	<!ENTITY st0 "fill:#3D3D3D;">
]>
<svg version="1.1" id="Calque_1" xmlns="http://www.w3.org/2000/svg" xmlns:xlink="http://www.w3.org/1999/xlink" x="0px" y="0px"
	 width="120.73px" height="56.16px" viewBox="0 0 120.73 56.16" style="enable-background:new 0 0 120.73 56.16;"
	 xml:space="preserve">
<g>
	<g>
		<g>
			<g>
				<g>
					<path style="&st0;" d="M72.157,6.379c0,1.616,0,3.233,0,4.849c0,1.178,1.827,1.178,1.827,0c0-1.616,0-3.233,0-4.849
						C73.983,5.201,72.157,5.201,72.157,6.379L72.157,6.379z"/>
				</g>
			</g>
			<g>
				<g>
					<path style="&st0;" d="M73.07,12.834c1.185,0,2.371,0,3.556,0c1.178,0,1.178-1.827,0-1.827c-1.185,0-2.371,0-3.556,0
						C71.892,11.007,71.892,12.834,73.07,12.834L73.07,12.834z"/>
				</g>
			</g>
		</g>
		<g>
			<g>
				<g>
					<path style="&st0;" d="M82.306,5.906c-0.906,1.973-1.04,4.638-0.568,6.734c0.258,1.149,2.02,0.662,1.761-0.486
						c-0.355-1.578-0.303-3.829,0.384-5.326C84.371,5.765,82.797,4.836,82.306,5.906L82.306,5.906z"/>
				</g>
			</g>
			<g>
				<g>
					<path style="&st0;" d="M82.618,13.31c1.111,0,2.222,0,3.333,0c1.178,0,1.178-1.827,0-1.827c-1.111,0-2.222,0-3.333,0
						C81.44,11.483,81.44,13.31,82.618,13.31L82.618,13.31z"/>
				</g>
			</g>
			<g>
				<g>
					<path style="&st0;" d="M83.571,10.063c0.635,0,1.27,0,1.905,0c1.178,0,1.178-1.827,0-1.827c-0.635,0-1.27,0-1.905,0
						C82.393,8.236,82.393,10.063,83.571,10.063L83.571,10.063z"/>
				</g>
			</g>
			<g>
				<g>
					<path style="&st0;" d="M82.618,7.744c2.347-0.032,4.616-0.508,6.909-0.96c1.155-0.228,0.665-1.988-0.486-1.761
						c-2.135,0.421-4.238,0.865-6.424,0.895C81.441,5.933,81.44,7.76,82.618,7.744L82.618,7.744z"/>
				</g>
			</g>
		</g>
		<g>
			<g>
				<g>
					<path style="&st0;" d="M55.929,6.849c0-0.086,0-0.173,0-0.259c0-1.178-1.827-1.178-1.827,0c0,1.323,0,2.647,0,3.97
						c0,1.178,1.827,1.178,1.827,0c0-1.323,0-2.647,0-3.97c0-1.178-1.827-1.178-1.827,0c0,0.086,0,0.173,0,0.259
						C54.103,8.027,55.929,8.027,55.929,6.849L55.929,6.849z"/>
				</g>
			</g>
			<g>
				<g>
					<path style="&st0;" d="M53.111,7.299c1.768-0.018,3.343-0.266,4.449,1.403c0.048-0.369,0.095-0.738,0.143-1.107
						c-1.406,1.368-2.815,2.67-4.577,3.568c-1.05,0.535-0.125,2.111,0.922,1.577c1.894-0.965,3.435-2.382,4.947-3.854
						c0.281-0.274,0.366-0.77,0.143-1.107c-0.667-1.007-1.456-1.726-2.607-2.124c-1.076-0.371-2.307-0.196-3.419-0.184
						C51.934,5.484,51.933,7.311,53.111,7.299L53.111,7.299z"/>
				</g>
			</g>
		</g>
		<g>
			<g>
				<g>
					<path style="&st0;" d="M28.338,5.695c0.001,1.411-0.105,3.266,0.958,4.359c0.822,0.846,2.113-0.447,1.292-1.292
						c-0.626-0.643-0.422-2.248-0.423-3.067C30.165,4.517,28.338,4.517,28.338,5.695L28.338,5.695z"/>
				</g>
			</g>
			<g>
				<g>
					<path style="&st0;" d="M27.424,6.575c0.824-0.123,1.633-0.251,2.404-0.342c0.336-0.039,0.674-0.07,1.012-0.087
						c0.127-0.006,0.253-0.007,0.38-0.006c0.081,0.001,0.5,0.05,0.189,0.002c0.086,0.013,0.348,0.113,0.047-0.016
						c0.078,0.033,0.152,0.125-0.067-0.065c-0.094-0.082-0.126-0.154-0.16-0.273c-0.035-0.118-0.035-0.236-0.002-0.353
						c-0.012,0.073-0.087,0.184,0.032-0.059c-0.024,0.049-0.055,0.093-0.085,0.138c0.138-0.204,0.006-0.013-0.027,0.026
						c-0.65,0.742-1.546,1.296-2.354,1.842c-0.97,0.655-0.057,2.239,0.922,1.577c0.968-0.654,2.062-1.328,2.817-2.236
						c0.554-0.667,0.747-1.634-0.118-2.155c-0.62-0.373-1.506-0.265-2.19-0.202c-1.099,0.102-2.192,0.285-3.283,0.449
						c-0.493,0.074-0.758,0.688-0.638,1.124C26.445,6.46,26.932,6.649,27.424,6.575L27.424,6.575z"/>
				</g>
			</g>
			<g>
				<g>
					<path style="&st0;" d="M31.599,9.481c0.936,0.197,1.916,0.389,2.797,0.776c0.205,0.09,0.417,0.202,0.557,0.341
						c-0.176-0.175,0.002-0.498-0.051-0.44c-0.367,0.408-1.078,0.611-1.579,0.794c-1.03,0.374-2.098,0.646-3.161,0.908
						c-1.143,0.281-0.658,2.043,0.486,1.761c1.402-0.345,2.818-0.711,4.143-1.297c0.709-0.314,1.59-0.758,1.833-1.564
						c0.652-2.163-3.25-2.77-4.538-3.04C30.935,7.478,30.446,9.239,31.599,9.481L31.599,9.481z"/>
				</g>
			</g>
		</g>
		<g>
			<g>
				<g>
					<path style="&st0;" d="M63.264,7.014c0.239,1.168,0.199,2.369,0.457,3.534c0.282,1.275,1.232,2.174,2.261,2.889
						c0.382,0.266,1.05,0.099,1.25-0.328c1.128-2.411,1.026-4.872,0.699-7.457c-0.146-1.152-1.974-1.167-1.827,0
						c0.278,2.202,0.521,4.459-0.45,6.535c0.417-0.109,0.833-0.218,1.25-0.328c-1.892-1.315-1.467-3.319-1.879-5.331
						C64.789,5.374,63.029,5.864,63.264,7.014L63.264,7.014z"/>
				</g>
			</g>
		</g>
		<g>
			<g>
				<g>
					<path style="&st0;" d="M42.816,6.351c0.017,1.846,0.175,3.761,0.607,5.56c0.275,1.145,2.036,0.659,1.761-0.486
						c-0.395-1.646-0.527-3.385-0.542-5.074C44.632,5.174,42.805,5.173,42.816,6.351L42.816,6.351z"/>
				</g>
			</g>
			<g>
				<g>
					<path style="&st0;" d="M41.57,6.985c1.442-0.017,2.869-0.259,4.309-0.28c1.177-0.017,1.179-1.843,0-1.827
						c-1.441,0.02-2.868,0.263-4.309,0.28C40.393,5.172,40.392,6.998,41.57,6.985L41.57,6.985z"/>
				</g>
			</g>
			<g>
				<g>
					<path style="&st0;" d="M42.675,13.389c1.546-0.317,3.052-0.771,4.641-0.807c1.176-0.026,1.179-1.853,0-1.827
						c-1.754,0.039-3.42,0.522-5.127,0.872C41.036,11.864,41.525,13.624,42.675,13.389L42.675,13.389z"/>
				</g>
			</g>
		</g>
	</g>
	<g>
		<g>
			<path style="&st0;" d="M93.549,9.888c1.178,0,1.178-1.827,0-1.827S92.371,9.888,93.549,9.888L93.549,9.888z"/>
		</g>
	</g>
	<g>
		<g>
			<path style="&st0;" d="M93.549,13.788c1.178,0,1.178-1.827,0-1.827S92.371,13.788,93.549,13.788L93.549,13.788z"/>
		</g>
	</g>
</g>
<g>
	<g>
		<g>
			<g>
				<path style="&st0;" d="M35.43,43.224c0,1.659,0,3.319,0,4.978c0,1.194,1.851,1.194,1.851,0c0-1.659,0-3.319,0-4.978
					C37.281,42.03,35.43,42.03,35.43,43.224L35.43,43.224z"/>
			</g>
		</g>
		<g>
			<g>
				<path style="&st0;" d="M36.355,49.838c1.185,0,2.371,0,3.556,0c1.194,0,1.194-1.851,0-1.851c-1.185,0-2.371,0-3.556,0
					C35.162,47.988,35.162,49.838,36.355,49.838L36.355,49.838z"/>
			</g>
		</g>
	</g>
	<g>
		<g>
			<g>
				<path style="&st0;" d="M45.047,42.312c-0.785,1.714-0.836,3.59-0.838,5.445c-0.001,1.194,1.85,1.194,1.851,0
					c0.001-1.49-0.05-3.126,0.585-4.511C47.139,42.17,45.544,41.228,45.047,42.312L45.047,42.312z"/>
			</g>
		</g>
		<g>
			<g>
				<path style="&st0;" d="M45.192,43.434c0.93,0.93,2.096,2.306,3.499,2.405c1.192,0.084,1.184-1.768,0-1.851
					c0.227,0.016-0.08-0.046,0.008-0.006c-0.113-0.052-0.218-0.121-0.323-0.186c-0.226-0.142-0.428-0.314-0.63-0.487
					c-0.435-0.372-0.84-0.778-1.245-1.182C45.656,41.28,44.347,42.589,45.192,43.434L45.192,43.434z"/>
			</g>
		</g>
		<g>
			<g>
				<path style="&st0;" d="M48.634,45.567c0.859-0.821,1.982-1.309,2.845-2.133c0.864-0.826-0.446-2.133-1.309-1.309
					c-0.859,0.821-1.982,1.309-2.845,2.133C46.461,45.085,47.772,46.391,48.634,45.567L48.634,45.567z"/>
			</g>
		</g>
		<g>
			<g>
				<path style="&st0;" d="M49.188,42.779c0.001,2.253,0.072,4.478,0.744,6.646c0.352,1.136,2.139,0.651,1.785-0.492
					c-0.625-2.016-0.677-4.061-0.678-6.154C51.038,41.586,49.187,41.586,49.188,42.779L49.188,42.779z"/>
			</g>
		</g>
	</g>
	<g>
		<g>
			<g>
				<path style="&st0;" d="M58.479,43.944c1.169,0.479,2.599,1.108,3.381,2.153c0.756,1.01-0.911,1.524-1.638,1.774
					c-1.33,0.457-2.852,0.102-3.225-1.399c-0.312-1.257,0.955-2.192,1.974-2.528c1.128-0.373,0.644-2.161-0.492-1.785
					c-1.988,0.657-3.678,2.358-3.301,4.602c0.36,2.135,2.692,3.629,4.784,3.113c1.823-0.45,4.427-1.546,3.897-3.868
					c-0.46-2.02-3.216-3.16-4.889-3.847C57.866,41.706,57.39,43.497,58.479,43.944z"/>
			</g>
		</g>
	</g>
	<g>
		<g>
			<g>
				<path style="&st0;" d="M90.733,42.729c-0.017,1.236-0.119,2.472-0.159,3.707c-0.036,1.103-0.226,2.539,0.188,3.595
					c0.371,0.948,1.916,0.536,1.54-0.425c-0.395-1.008-0.155-2.44-0.12-3.495c0.037-1.127,0.133-2.255,0.149-3.383
					C92.344,41.698,90.747,41.7,90.733,42.729L90.733,42.729z"/>
			</g>
		</g>
		<g>
			<g>
				<path style="&st0;" d="M89.689,43.91c2.215-0.529,4.498-0.77,6.773-0.793c1.029-0.01,1.03-1.607,0-1.597
					c-2.411,0.024-4.85,0.29-7.197,0.85C88.263,42.609,88.688,44.149,89.689,43.91L89.689,43.91z"/>
			</g>
		</g>
	</g>
	<g>
		<g>
			<g>
				<path style="&st0;" d="M24.142,42.394c-0.91,2.035-1.042,4.749-0.569,6.903c0.255,1.166,2.04,0.671,1.785-0.492
					c-0.356-1.625-0.309-3.931,0.383-5.477C26.224,42.248,24.629,41.306,24.142,42.394L24.142,42.394z"/>
			</g>
		</g>
		<g>
			<g>
				<path style="&st0;" d="M24.465,49.977c1.111,0,2.222,0,3.333,0c1.194,0,1.194-1.851,0-1.851c-1.111,0-2.222,0-3.333,0
					C23.272,48.126,23.272,49.977,24.465,49.977L24.465,49.977z"/>
			</g>
		</g>
		<g>
			<g>
				<path style="&st0;" d="M25.418,46.643c0.635,0,1.27,0,1.905,0c1.194,0,1.194-1.851,0-1.851c-0.635,0-1.27,0-1.905,0
					C24.224,44.793,24.224,46.643,25.418,46.643L25.418,46.643z"/>
			</g>
		</g>
		<g>
			<g>
				<path style="&st0;" d="M24.465,44.262c2.35-0.033,4.618-0.521,6.912-0.985c1.169-0.237,0.673-2.021-0.492-1.785
					c-2.134,0.432-4.234,0.888-6.42,0.919C23.273,42.428,23.271,44.279,24.465,44.262L24.465,44.262z"/>
			</g>
		</g>
	</g>
	<g>
		<g>
			<g>
				<path style="&st0;" d="M68.31,44.112c0.192,1.857,0.402,3.755,0.891,5.561c0.269,0.993,1.81,0.571,1.54-0.425
					c-0.453-1.671-0.657-3.418-0.834-5.136C69.802,43.098,68.204,43.087,68.31,44.112L68.31,44.112z"/>
			</g>
		</g>
		<g>
			<g>
				<path style="&st0;" d="M68.648,44.111c0.81-0.533,2.567-1.42,3.318-0.294c0.771,1.157-1.022,2.285-1.862,2.63
					c-0.939,0.386-0.528,1.932,0.425,1.54c1.927-0.792,3.882-2.522,2.92-4.786c-0.969-2.28-4.055-1.489-5.605-0.469
					C66.986,43.295,67.785,44.679,68.648,44.111L68.648,44.111z"/>
			</g>
		</g>
	</g>
	<g>
		<g>
			<g>
				<g>
					<path style="&st0;" d="M78.21,43.816c0.192,1.857,0.402,3.755,0.891,5.561c0.269,0.993,1.81,0.571,1.54-0.425
						c-0.453-1.671-0.657-3.418-0.834-5.136C79.702,42.802,78.104,42.792,78.21,43.816L78.21,43.816z"/>
				</g>
			</g>
			<g>
				<g>
					<path style="&st0;" d="M78.548,43.816c0.81-0.533,2.567-1.42,3.318-0.294c0.771,1.157-1.022,2.285-1.862,2.63
						c-0.939,0.386-0.528,1.932,0.425,1.54c1.927-0.792,3.882-2.522,2.92-4.786c-0.969-2.28-4.055-1.489-5.605-0.469
						C76.886,43,77.685,44.383,78.548,43.816L78.548,43.816z"/>
				</g>
			</g>
		</g>
		<g>
			<g>
				<path style="&st0;" d="M80.674,47.968c1.24,0.455,2.036,1.712,2.925,2.619c0.836,0.854,2.144-0.456,1.309-1.309
					c-1.165-1.189-2.121-2.5-3.742-3.095C80.043,45.772,79.563,47.561,80.674,47.968L80.674,47.968z"/>
			</g>
		</g>
	</g>
	<g>
		<g>
			<g>
				<path style="&st0;" d="M36.021,32.311c1.341-1.046,2.673-2.104,4.075-3.067c0.854-0.587,0.046-1.99-0.816-1.397
					c-1.515,1.042-2.953,2.19-4.402,3.32C34.056,31.808,35.209,32.944,36.021,32.311L36.021,32.311z"/>
			</g>
		</g>
		<g>
			<g>
				<path style="&st0;" d="M38.742,28.679c0.081,2.367,0.044,4.733-0.001,7.1c-0.02,1.044,1.598,1.042,1.618,0
					c0.045-2.367,0.082-4.733,0.001-7.1C40.324,27.639,38.706,27.635,38.742,28.679L38.742,28.679z"/>
			</g>
		</g>
		<g>
			<g>
				<path style="&st0;" d="M37.252,36.952c1.443,0.018,2.879-0.073,4.316-0.189c1.032-0.083,1.041-1.702,0-1.618
					c-1.437,0.116-2.873,0.207-4.316,0.189C36.208,35.321,36.21,36.939,37.252,36.952L37.252,36.952z"/>
			</g>
		</g>
	</g>
	<g>
		<g>
			<g>
				<path style="&st0;" d="M46.914,32.311c1.341-1.046,2.673-2.104,4.075-3.067c0.854-0.587,0.046-1.99-0.816-1.397
					c-1.515,1.042-2.953,2.19-4.402,3.32C44.948,31.808,46.101,32.944,46.914,32.311L46.914,32.311z"/>
			</g>
		</g>
		<g>
			<g>
				<path style="&st0;" d="M49.634,28.679c0.081,2.367,0.044,4.733-0.001,7.1c-0.02,1.044,1.598,1.042,1.618,0
					c0.045-2.367,0.082-4.733,0.001-7.1C51.216,27.639,49.598,27.635,49.634,28.679L49.634,28.679z"/>
			</g>
		</g>
		<g>
			<g>
				<path style="&st0;" d="M48.144,36.952c1.443,0.018,2.879-0.073,4.316-0.189c1.032-0.083,1.041-1.702,0-1.618
					c-1.437,0.116-2.873,0.207-4.316,0.189C47.101,35.321,47.102,36.939,48.144,36.952L48.144,36.952z"/>
			</g>
		</g>
	</g>
	<g>
		<g>
			<g>
				<path style="&st0;" d="M57.806,32.311c1.341-1.046,2.673-2.104,4.075-3.067c0.854-0.587,0.046-1.99-0.816-1.397
					c-1.515,1.042-2.953,2.19-4.402,3.32C55.84,31.808,56.994,32.944,57.806,32.311L57.806,32.311z"/>
			</g>
		</g>
		<g>
			<g>
				<path style="&st0;" d="M60.526,28.679c0.081,2.367,0.044,4.733-0.001,7.1c-0.02,1.044,1.598,1.042,1.618,0
					c0.045-2.367,0.082-4.733,0.001-7.1C62.108,27.639,60.49,27.635,60.526,28.679L60.526,28.679z"/>
			</g>
		</g>
		<g>
			<g>
				<path style="&st0;" d="M59.036,36.952c1.443,0.018,2.879-0.073,4.316-0.189c1.032-0.083,1.041-1.702,0-1.618
					c-1.437,0.116-2.873,0.207-4.316,0.189C57.993,35.321,57.994,36.939,59.036,36.952L59.036,36.952z"/>
			</g>
		</g>
	</g>
	<g>
		<g>
			<g>
				<path style="&st0;" d="M68.698,32.311c1.341-1.046,2.673-2.104,4.075-3.067c0.854-0.587,0.046-1.99-0.816-1.397
					c-1.515,1.042-2.953,2.19-4.402,3.32C66.732,31.808,67.886,32.944,68.698,32.311L68.698,32.311z"/>
			</g>
		</g>
		<g>
			<g>
				<path style="&st0;" d="M71.418,28.679c0.081,2.367,0.044,4.733-0.001,7.1c-0.02,1.044,1.598,1.042,1.618,0
					c0.045-2.367,0.082-4.733,0.001-7.1C73,27.639,71.382,27.635,71.418,28.679L71.418,28.679z"/>
			</g>
		</g>
		<g>
			<g>
				<path style="&st0;" d="M69.929,36.952c1.443,0.018,2.879-0.073,4.316-0.189c1.032-0.083,1.041-1.702,0-1.618
					c-1.437,0.116-2.873,0.207-4.316,0.189C68.885,35.321,68.886,36.939,69.929,36.952L69.929,36.952z"/>
			</g>
		</g>
	</g>
	<g>
		<g>
			<g>
				<path style="&st0;" d="M79.59,32.311c1.341-1.046,2.673-2.104,4.075-3.067c0.854-0.587,0.046-1.99-0.816-1.397
					c-1.515,1.042-2.953,2.19-4.402,3.32C77.624,31.808,78.778,32.944,79.59,32.311L79.59,32.311z"/>
			</g>
		</g>
		<g>
			<g>
				<path style="&st0;" d="M82.31,28.679c0.081,2.367,0.044,4.733-0.001,7.1c-0.02,1.044,1.598,1.042,1.618,0
					c0.045-2.367,0.082-4.733,0.001-7.1C83.892,27.639,82.275,27.635,82.31,28.679L82.31,28.679z"/>
			</g>
		</g>
		<g>
			<g>
				<path style="&st0;" d="M80.821,36.952c1.443,0.018,2.879-0.073,4.316-0.189c1.032-0.083,1.041-1.702,0-1.618
					c-1.437,0.116-2.873,0.207-4.316,0.189C79.777,35.321,79.778,36.939,80.821,36.952L80.821,36.952z"/>
			</g>
		</g>
	</g>
	<g>
		<g>
			<g>
				<path style="&st0;" d="M90.482,32.311c1.341-1.046,2.673-2.104,4.075-3.067c0.854-0.587,0.046-1.99-0.816-1.397
					c-1.515,1.042-2.953,2.19-4.402,3.32C88.516,31.808,89.67,32.944,90.482,32.311L90.482,32.311z"/>
			</g>
		</g>
		<g>
			<g>
				<path style="&st0;" d="M93.203,28.679c0.081,2.367,0.044,4.733-0.001,7.1c-0.02,1.044,1.598,1.042,1.618,0
					c0.045-2.367,0.082-4.733,0.001-7.1C94.785,27.639,93.167,27.635,93.203,28.679L93.203,28.679z"/>
			</g>
		</g>
		<g>
			<g>
				<path style="&st0;" d="M91.713,36.952c1.443,0.018,2.879-0.073,4.316-0.189c1.032-0.083,1.041-1.702,0-1.618
					c-1.437,0.116-2.873,0.207-4.316,0.189C90.669,35.321,90.67,36.939,91.713,36.952L91.713,36.952z"/>
			</g>
		</g>
	</g>
	<g>
		<g>
			<g>
				<path style="&st0;" d="M25.995,31.897c-0.298-1.446,0.207-2.9,1.756-2.837c0.451,0.018,0.89,0.268,1.11,0.664
					c0.296,0.535-0.098,1.372-0.435,1.919c-0.549,0.891,0.851,1.703,1.397,0.816c0.664-1.078,0.984-2.269,0.475-3.47
					c-0.409-0.966-1.479-1.431-2.452-1.541c-0.983-0.111-2.028,0.324-2.688,1.045c-0.955,1.045-0.993,2.519-0.723,3.833
					C24.646,33.348,26.205,32.915,25.995,31.897L25.995,31.897z"/>
			</g>
		</g>
		<g>
			<g>
				<path style="&st0;" d="M28.555,31.343c-1.283,1.537-2.483,3.139-3.728,4.706c-0.642,0.807,0.495,1.96,1.144,1.144
					c1.246-1.566,2.446-3.169,3.728-4.706C30.363,31.692,29.224,30.541,28.555,31.343L28.555,31.343z"/>
			</g>
		</g>
		<g>
			<g>
				<path style="&st0;" d="M24.997,37.285c1.998-0.125,3.967-0.467,5.894-1.01c1.003-0.282,0.576-1.843-0.43-1.56
					c-1.79,0.504-3.607,0.836-5.464,0.952C23.961,35.732,23.955,37.35,24.997,37.285L24.997,37.285z"/>
			</g>
		</g>
	</g>
</g>
<g>
	<g>
		<g>
			<g>
				<path style="&st0;" d="M85.381-125.673c-1.47-0.215-3.73-0.581-4.764,0.817c-1.057,1.43,0.696,3.218,1.656,4.114
					c0.871,0.813,2.183-0.493,1.309-1.309c-0.458-0.428-0.909-0.868-1.242-1.403c-0.096-0.154-0.13-0.235-0.175-0.403
					c0.006,0.021-0.036,0.065,0.004-0.002c-0.069,0.116,0.053,0,0.011,0.017c0.186-0.077,0.396-0.123,0.595-0.144
					c0.698-0.074,1.423-0.004,2.115,0.097c0.499,0.073,0.992-0.116,1.138-0.646C86.148-124.975,85.881-125.6,85.381-125.673
					L85.381-125.673z"/>
			</g>
		</g>
		<g>
			<g>
				<path style="&st0;" d="M82.128-120.929c0.295,0.427,0.622,0.911,0.787,1.374c0.033,0.092,0.056,0.186,0.078,0.281
					c-0.043-0.185,0,0.036,0,0.078c0.002,0.232,0.05-0.182-0.013,0.02c0.06-0.195,0.065-0.169,0.158-0.23
					c-0.175,0.117,0.187-0.053-0.035,0.009c-0.237,0.067,0.19-0.006-0.084,0.01c-0.248,0.014-0.408-0.018-0.628-0.062
					c-0.674-0.136-1.334-0.389-1.964-0.661c-0.463-0.2-0.989-0.142-1.266,0.332c-0.231,0.395-0.131,1.066,0.332,1.266
					c1.239,0.535,3.317,1.546,4.632,0.669c1.479-0.986,0.336-2.957-0.399-4.019C83.052-122.838,81.447-121.913,82.128-120.929
					L82.128-120.929z"/>
			</g>
		</g>
	</g>
	<g>
		<g>
			<g>
				<path style="&st0;" d="M22.949-124.382c0-0.089,0-0.177,0-0.266c0-1.194-1.851-1.194-1.851,0c0,1.359,0,2.717,0,4.076
					c0,1.194,1.851,1.194,1.851,0c0-1.359,0-2.717,0-4.076c0-1.194-1.851-1.194-1.851,0c0,0.089,0,0.177,0,0.266
					C21.098-123.188,22.949-123.188,22.949-124.382L22.949-124.382z"/>
			</g>
		</g>
		<g>
			<g>
				<path style="&st0;" d="M20.119-123.933c1.792-0.019,3.338-0.259,4.439,1.446c0.048-0.374,0.096-0.748,0.145-1.121
					c-1.401,1.4-2.805,2.739-4.574,3.665c-1.058,0.554-0.122,2.151,0.934,1.598c1.903-0.996,3.441-2.448,4.949-3.954
					c0.284-0.284,0.369-0.774,0.145-1.121c-0.663-1.028-1.453-1.763-2.615-2.175c-1.073-0.38-2.311-0.2-3.422-0.189
					C18.926-125.771,18.925-123.92,20.119-123.933L20.119-123.933z"/>
			</g>
		</g>
	</g>
	<g>
		<g>
			<g>
				<path style="&st0;" d="M90.473-123.894c0.239,1.2,0.199,2.431,0.457,3.628c0.28,1.298,1.229,2.218,2.267,2.959
					c0.382,0.272,1.07,0.099,1.266-0.332c1.129-2.479,1.027-5,0.701-7.65c-0.144-1.169-1.996-1.183-1.851,0
					c0.278,2.258,0.525,4.58-0.448,6.715c0.422-0.111,0.844-0.221,1.266-0.332c-1.896-1.353-1.467-3.44-1.873-5.48
					C92.025-125.556,90.241-125.06,90.473-123.894L90.473-123.894z"/>
			</g>
		</g>
	</g>
	<g>
		<g>
			<g>
				<path style="&st0;" d="M58.351-124.893c0.017,1.895,0.175,3.856,0.608,5.705c0.272,1.162,2.056,0.669,1.785-0.492
					c-0.396-1.693-0.526-3.478-0.542-5.213C60.192-126.086,58.341-126.087,58.351-124.893L58.351-124.893z"/>
			</g>
		</g>
		<g>
			<g>
				<path style="&st0;" d="M57.118-124.255c1.442-0.017,2.869-0.266,4.309-0.287c1.192-0.017,1.194-1.868,0-1.851
					c-1.441,0.021-2.867,0.27-4.309,0.287C55.925-126.092,55.924-124.241,57.118-124.255L57.118-124.255z"/>
			</g>
		</g>
		<g>
			<g>
				<path style="&st0;" d="M58.226-117.681c1.545-0.325,3.048-0.792,4.638-0.829c1.192-0.027,1.194-1.878,0-1.851
					c-1.758,0.04-3.422,0.536-5.13,0.895C56.566-119.22,57.061-117.436,58.226-117.681L58.226-117.681z"/>
			</g>
		</g>
	</g>
	<g>
		<g>
			<g>
				<path style="&st0;" d="M31.462-125.022c-0.91,2.035-1.042,4.749-0.569,6.903c0.255,1.166,2.04,0.671,1.785-0.492
					c-0.356-1.625-0.309-3.931,0.383-5.477C33.543-125.168,31.949-126.11,31.462-125.022L31.462-125.022z"/>
			</g>
		</g>
		<g>
			<g>
				<path style="&st0;" d="M31.785-117.44c1.111,0,2.222,0,3.333,0c1.194,0,1.194-1.851,0-1.851c-1.111,0-2.222,0-3.333,0
					C30.591-119.291,30.591-117.44,31.785-117.44L31.785-117.44z"/>
			</g>
		</g>
		<g>
			<g>
				<path style="&st0;" d="M32.737-120.773c0.635,0,1.27,0,1.905,0c1.194,0,1.194-1.851,0-1.851c-0.635,0-1.27,0-1.905,0
					C31.544-122.624,31.544-120.773,32.737-120.773L32.737-120.773z"/>
			</g>
		</g>
		<g>
			<g>
				<path style="&st0;" d="M31.785-123.154c2.35-0.033,4.618-0.521,6.912-0.985c1.169-0.237,0.673-2.021-0.492-1.785
					c-2.134,0.432-4.234,0.888-6.42,0.919C30.593-124.988,30.591-123.137,31.785-123.154L31.785-123.154z"/>
			</g>
		</g>
	</g>
	<g>
		<g>
			<g>
				<path style="&st0;" d="M45.093-124.304c1.85,0.001,3.726-0.032,5.54,0.382c1.003,0.229,1.428-1.311,0.425-1.54
					c-1.956-0.447-3.968-0.439-5.965-0.439C44.063-125.901,44.063-124.304,45.093-124.304L45.093-124.304z"/>
			</g>
		</g>
		<g>
			<g>
				<path style="&st0;" d="M45.556-124.903c-0.468,2.051-0.382,4.119,0,6.177c0.188,1.012,1.727,0.582,1.54-0.425
					c-0.328-1.768-0.402-3.566,0-5.328C47.325-125.482,45.785-125.907,45.556-124.903L45.556-124.903z"/>
			</g>
		</g>
		<g>
			<g>
				<path style="&st0;" d="M44.682-120.606c1.233,0,2.465,0,3.698,0c1.03,0,1.03-1.597,0-1.597c-1.233,0-2.465,0-3.698,0
					C43.652-122.203,43.652-120.606,44.682-120.606L44.682-120.606z"/>
			</g>
		</g>
	</g>
	<g>
		<g>
			<g>
				<path style="&st0;" d="M69.117-123.888c0.192,1.857,0.402,3.755,0.891,5.561c0.269,0.993,1.81,0.571,1.54-0.425
					c-0.453-1.671-0.657-3.418-0.834-5.136C70.609-124.902,69.011-124.913,69.117-123.888L69.117-123.888z"/>
			</g>
		</g>
		<g>
			<g>
				<path style="&st0;" d="M69.456-123.889c0.81-0.533,2.567-1.42,3.318-0.294c0.771,1.157-1.022,2.285-1.862,2.63
					c-0.939,0.386-0.528,1.932,0.425,1.54c1.927-0.792,3.882-2.522,2.92-4.786c-0.969-2.28-4.055-1.489-5.605-0.469
					C67.794-124.705,68.593-123.321,69.456-123.889L69.456-123.889z"/>
			</g>
		</g>
	</g>
	<g>
		<g>
			<g>
				<path style="&st0;" d="M7.168-120.929c0.32-1.339,0.31-2.644,1.959-2.693c-0.299-0.228-0.599-0.456-0.898-0.684
					c0.575,1.983,2.288,3.347,2.857,5.307c0.334,1.151,2.132,0.661,1.796-0.495c-0.575-1.983-2.288-3.347-2.857-5.307
					c-0.113-0.39-0.482-0.696-0.898-0.684c-1.07,0.032-2.116,0.275-2.778,1.183c-0.607,0.831-0.744,1.902-0.977,2.878
					C5.092-120.256,6.889-119.761,7.168-120.929L7.168-120.929z"/>
			</g>
		</g>
		<g>
			<g>
				<path style="&st0;" d="M4.612-120.761c3.054-0.861,6.098-1.381,9.276-1.414c1.201-0.013,1.202-1.876,0-1.863
					c-3.341,0.035-6.558,0.575-9.771,1.481C2.963-122.232,3.454-120.434,4.612-120.761L4.612-120.761z"/>
			</g>
		</g>
	</g>
	<g>
		<g>
			<g>
				<path style="&st0;" d="M17.026-135.689c1.341-1.046,2.673-2.104,4.075-3.067c0.854-0.587,0.046-1.99-0.816-1.397
					c-1.515,1.042-2.953,2.19-4.402,3.32C15.06-136.192,16.214-135.056,17.026-135.689L17.026-135.689z"/>
			</g>
		</g>
		<g>
			<g>
				<path style="&st0;" d="M19.747-139.321c0.081,2.367,0.044,4.733-0.001,7.1c-0.02,1.044,1.598,1.042,1.618,0
					c0.045-2.367,0.082-4.733,0.001-7.1C21.329-140.361,19.711-140.365,19.747-139.321L19.747-139.321z"/>
			</g>
		</g>
		<g>
			<g>
				<path style="&st0;" d="M18.257-131.048c1.443,0.018,2.879-0.073,4.316-0.189c1.032-0.083,1.041-1.702,0-1.618
					c-1.437,0.116-2.873,0.207-4.316,0.189C17.213-132.679,17.215-131.061,18.257-131.048L18.257-131.048z"/>
			</g>
		</g>
	</g>
	<g>
		<g>
			<g>
				<path style="&st0;" d="M40.724-135.689c1.341-1.046,2.673-2.104,4.075-3.067c0.854-0.587,0.046-1.99-0.816-1.397
					c-1.515,1.042-2.953,2.19-4.402,3.32C38.759-136.192,39.912-135.056,40.724-135.689L40.724-135.689z"/>
			</g>
		</g>
		<g>
			<g>
				<path style="&st0;" d="M43.445-139.321c0.081,2.367,0.044,4.733-0.001,7.1c-0.02,1.044,1.598,1.042,1.618,0
					c0.045-2.367,0.082-4.733,0.001-7.1C45.027-140.361,43.409-140.365,43.445-139.321L43.445-139.321z"/>
			</g>
		</g>
		<g>
			<g>
				<path style="&st0;" d="M41.955-131.048c1.443,0.018,2.879-0.073,4.316-0.189c1.032-0.083,1.041-1.702,0-1.618
					c-1.437,0.116-2.873,0.207-4.316,0.189C40.911-132.679,40.913-131.061,41.955-131.048L41.955-131.048z"/>
			</g>
		</g>
	</g>
	<g>
		<g>
			<g>
				<path style="&st0;" d="M89.254-135.689c1.341-1.046,2.673-2.104,4.075-3.067c0.854-0.587,0.046-1.99-0.816-1.397
					c-1.515,1.042-2.953,2.19-4.402,3.32C87.288-136.192,88.442-135.056,89.254-135.689L89.254-135.689z"/>
			</g>
		</g>
		<g>
			<g>
				<path style="&st0;" d="M91.974-139.321c0.081,2.367,0.044,4.733-0.001,7.1c-0.02,1.044,1.598,1.042,1.618,0
					c0.045-2.367,0.082-4.733,0.001-7.1C93.556-140.361,91.938-140.365,91.974-139.321L91.974-139.321z"/>
			</g>
		</g>
		<g>
			<g>
				<path style="&st0;" d="M90.485-131.048c1.443,0.018,2.879-0.073,4.316-0.189c1.032-0.083,1.041-1.702,0-1.618
					c-1.437,0.116-2.873,0.207-4.316,0.189C89.441-132.679,89.442-131.061,90.485-131.048L90.485-131.048z"/>
			</g>
		</g>
	</g>
	<g>
		<g>
			<g>
				<path style="&st0;" d="M65.32-135.689c1.341-1.046,2.673-2.104,4.075-3.067c0.854-0.587,0.046-1.99-0.816-1.397
					c-1.515,1.042-2.953,2.19-4.402,3.32C63.354-136.192,64.508-135.056,65.32-135.689L65.32-135.689z"/>
			</g>
		</g>
		<g>
			<g>
				<path style="&st0;" d="M68.04-139.321c0.081,2.367,0.044,4.733-0.001,7.1c-0.02,1.044,1.598,1.042,1.618,0
					c0.045-2.367,0.082-4.733,0.001-7.1C69.622-140.361,68.005-140.365,68.04-139.321L68.04-139.321z"/>
			</g>
		</g>
		<g>
			<g>
				<path style="&st0;" d="M66.551-131.048c1.443,0.018,2.879-0.073,4.316-0.189c1.032-0.083,1.041-1.702,0-1.618
					c-1.437,0.116-2.873,0.207-4.316,0.189C65.507-132.679,65.508-131.061,66.551-131.048L66.551-131.048z"/>
			</g>
		</g>
	</g>
	<g>
		<g>
			<g>
				<path style="&st0;" d="M29.38-137.621c0.458-0.334,0.941-0.643,1.48-0.827c0.193-0.066,0.427-0.119,0.545-0.131
					c0.086-0.009,0.173-0.01,0.26-0.01c0.034,0,0.346,0.033,0.187,0.008c0.075,0.012,0.149,0.032,0.222,0.052
					c0.047,0.014,0.094,0.029,0.14,0.046c-0.081-0.037-0.08-0.036,0.004,0.003c0.063,0.03,0.123,0.066,0.183,0.102
					c0.18,0.11,0.016,0,0.106,0.079c0.05,0.044,0.096,0.093,0.141,0.142c0.087,0.094-0.046-0.081,0.073,0.098
					c0.036,0.054,0.067,0.112,0.098,0.17c0.062,0.116-0.029-0.104,0.044,0.106c0.021,0.061,0.037,0.124,0.053,0.187
					c0.057,0.226,0.008-0.034,0.02,0.102c0.008,0.086-0.027,0.49,0.005,0.294c-0.014,0.086-0.148,0.451-0.074,0.29
					c-0.027,0.058-0.06,0.113-0.093,0.168c-0.111,0.184,0.013,0-0.072,0.095c-0.18,0.201-0.315,0.271-0.652,0.358
					c-0.174,0.045-0.267,0.047-0.512,0.049c-0.269,0.002-0.527-0.04-0.789-0.097c-1.017-0.221-1.449,1.339-0.43,1.56
					c1.2,0.261,2.474,0.222,3.432-0.631c0.741-0.66,0.941-1.751,0.708-2.681c-0.247-0.988-1.057-1.758-2.029-2.02
					c-1.364-0.368-2.791,0.306-3.869,1.092C27.73-138.41,28.536-137.005,29.38-137.621L29.38-137.621z"/>
			</g>
		</g>
		<g>
			<g>
				<path style="&st0;" d="M30.534-134.613c0.427-0.043,0.87-0.072,1.294,0.006c0.158,0.029,0.311,0.078,0.462,0.134
					c-0.085-0.032,0.316,0.222,0.192,0.118c0.036,0.031,0.07,0.064,0.102,0.099c0.154,0.157-0.078-0.126,0.038,0.052
					c0.02,0.031,0.103,0.223,0.031,0.04c0.023,0.059,0.038,0.122,0.052,0.184c-0.058-0.253-0.024,0.33,0.009,0.082
					c-0.009,0.069-0.121,0.408-0.054,0.254c-0.209,0.482-0.523,0.7-1.006,0.834c-0.61,0.169-1.342-0.074-1.98-0.468
					c-0.891-0.549-1.702,0.85-0.816,1.397c1.672,1.032,4.32,1.086,5.226-1.009c0.376-0.87,0.284-1.789-0.357-2.509
					c-0.766-0.861-2.136-0.937-3.194-0.831C29.506-136.128,29.496-134.509,30.534-134.613L30.534-134.613z"/>
			</g>
		</g>
	</g>
	<g>
		<g>
			<g>
				<path style="&st0;" d="M5.374-136.21c-0.298-1.446,0.207-2.9,1.756-2.837c0.451,0.018,0.89,0.268,1.11,0.664
					c0.296,0.535-0.098,1.372-0.435,1.919c-0.549,0.891,0.851,1.703,1.397,0.816c0.664-1.078,0.984-2.269,0.475-3.47
					c-0.409-0.966-1.479-1.431-2.452-1.541c-0.983-0.111-2.028,0.324-2.688,1.045c-0.955,1.045-0.993,2.519-0.723,3.833
					C4.025-134.759,5.584-135.192,5.374-136.21L5.374-136.21z"/>
			</g>
		</g>
		<g>
			<g>
				<path style="&st0;" d="M7.934-136.763c-1.283,1.537-2.483,3.139-3.728,4.706c-0.642,0.807,0.495,1.96,1.144,1.144
					c1.246-1.566,2.446-3.169,3.728-4.706C9.742-136.414,8.604-137.565,7.934-136.763L7.934-136.763z"/>
			</g>
		</g>
		<g>
			<g>
				<path style="&st0;" d="M4.376-130.821c1.998-0.125,3.967-0.467,5.894-1.01c1.003-0.282,0.576-1.843-0.43-1.56
					c-1.79,0.504-3.607,0.836-5.464,0.952C3.34-132.374,3.334-130.756,4.376-130.821L4.376-130.821z"/>
			</g>
		</g>
	</g>
	<g>
		<g>
			<g>
				<path style="&st0;" d="M53.668-136.21c-0.298-1.446,0.207-2.9,1.756-2.837c0.451,0.018,0.89,0.268,1.11,0.664
					c0.296,0.535-0.098,1.372-0.435,1.919c-0.549,0.891,0.851,1.703,1.397,0.816c0.664-1.078,0.984-2.269,0.475-3.47
					c-0.409-0.966-1.479-1.431-2.452-1.541c-0.983-0.111-2.028,0.324-2.688,1.045c-0.955,1.045-0.993,2.519-0.723,3.833
					C52.319-134.759,53.878-135.192,53.668-136.21L53.668-136.21z"/>
			</g>
		</g>
		<g>
			<g>
				<path style="&st0;" d="M56.228-136.763c-1.283,1.537-2.483,3.139-3.728,4.706c-0.642,0.807,0.495,1.96,1.144,1.144
					c1.246-1.566,2.446-3.169,3.728-4.706C58.035-136.414,56.897-137.565,56.228-136.763L56.228-136.763z"/>
			</g>
		</g>
		<g>
			<g>
				<path style="&st0;" d="M52.67-130.821c1.998-0.125,3.967-0.467,5.894-1.01c1.003-0.282,0.576-1.843-0.43-1.56
					c-1.79,0.504-3.607,0.836-5.464,0.952C51.634-132.374,51.628-130.756,52.67-130.821L52.67-130.821z"/>
			</g>
		</g>
	</g>
	<g>
		<g>
			<g>
				<path style="&st0;" d="M77.372-138.779c1.388,0,2.776,0,4.163,0c1.043,0,1.043-1.618,0-1.618c-1.388,0-2.776,0-4.163,0
					C76.329-140.397,76.329-138.779,77.372-138.779L77.372-138.779z"/>
			</g>
		</g>
		<g>
			<g>
				<path style="&st0;" d="M76.901-138.908c0.266,1.079,0.28,2.168,0.281,3.274c0.001,1.043,1.618,1.043,1.618,0
					c-0.001-1.249-0.038-2.485-0.338-3.704C78.212-140.35,76.652-139.921,76.901-138.908L76.901-138.908z"/>
			</g>
		</g>
		<g>
			<g>
				<path style="&st0;" d="M78.206-134.389c0.868-0.142,1.783-0.21,2.641,0.023c0.195,0.053,0.476,0.195,0.566,0.273
					c0.126,0.109,0.084,0.076,0.133,0.155c0.011,0.018,0.04,0.183,0.034,0.091c0.005,0.078-0.021,0.184-0.116,0.34
					c-0.075,0.123-0.257,0.283-0.427,0.398c-0.65,0.438-1.468,0.578-2.235,0.621c-1.037,0.059-1.043,1.677,0,1.618
					c1.657-0.094,4.542-0.857,4.391-3.05c-0.173-2.502-3.725-2.303-5.416-2.027C76.748-135.781,77.186-134.223,78.206-134.389
					L78.206-134.389z"/>
			</g>
		</g>
	</g>
</g>
<g>
	<g>
		<g>
			<g>
				<path style="&st0;" d="M7.168-86.929c0.32-1.339,0.31-2.644,1.959-2.693c-0.299-0.228-0.599-0.456-0.898-0.684
					c0.575,1.983,2.288,3.347,2.857,5.307c0.334,1.151,2.132,0.661,1.796-0.495c-0.575-1.983-2.288-3.347-2.857-5.307
					c-0.113-0.39-0.482-0.696-0.898-0.684c-1.07,0.032-2.116,0.275-2.778,1.183c-0.607,0.831-0.744,1.902-0.977,2.878
					C5.092-86.256,6.889-85.761,7.168-86.929L7.168-86.929z"/>
			</g>
		</g>
		<g>
			<g>
				<path style="&st0;" d="M4.612-86.761c3.054-0.861,6.098-1.381,9.276-1.414c1.201-0.013,1.202-1.876,0-1.863
					c-3.341,0.035-6.558,0.575-9.771,1.481C2.963-88.232,3.454-86.434,4.612-86.761L4.612-86.761z"/>
			</g>
		</g>
	</g>
	<g>
		<g>
			<g>
				<path style="&st0;" d="M20.425-91.397c0.001,1.45-0.108,3.329,0.961,4.466c0.82,0.871,2.126-0.441,1.309-1.309
					c-0.631-0.67-0.419-2.316-0.419-3.157C22.275-92.591,20.424-92.591,20.425-91.397L20.425-91.397z"/>
			</g>
		</g>
		<g>
			<g>
				<path style="&st0;" d="M19.526-90.505c0.816-0.125,1.66-0.262,2.401-0.351c0.336-0.04,0.674-0.072,1.012-0.089
					c0.127-0.006,0.253-0.008,0.38-0.006c0.083,0.001,0.502,0.053,0.186,0.003c0.09,0.014,0.346,0.118,0.044-0.015
					c0.08,0.035,0.147,0.128-0.07-0.065c-0.035-0.031-0.184-0.348-0.163-0.275c-0.035-0.119-0.036-0.237-0.002-0.356
					c-0.012,0.072-0.086,0.192,0.033-0.058c-0.024,0.05-0.055,0.096-0.085,0.142c-0.12,0.182,0.135-0.159-0.025,0.029
					c-0.647,0.758-1.542,1.331-2.352,1.893c-0.414,0.287-0.602,0.805-0.332,1.266c0.24,0.41,0.851,0.62,1.266,0.332
					c0.888-0.616,4.921-3.114,2.699-4.487c-0.617-0.381-1.513-0.27-2.196-0.205c-1.1,0.105-2.194,0.292-3.286,0.46
					c-0.499,0.077-0.768,0.695-0.646,1.138C18.533-90.623,19.028-90.428,19.526-90.505L19.526-90.505z"/>
			</g>
		</g>
		<g>
			<g>
				<path style="&st0;" d="M23.694-87.521c0.907,0.196,1.851,0.389,2.707,0.758c0.218,0.094,0.448,0.202,0.62,0.369
					c-0.16-0.154,0.038-0.488-0.038-0.403c-0.35,0.393-1.001,0.596-1.477,0.777c-1.055,0.402-2.157,0.688-3.25,0.965
					c-1.157,0.292-0.666,2.077,0.492,1.785c1.376-0.348,2.763-0.718,4.065-1.295c0.733-0.325,1.68-0.793,1.92-1.636
					c0.626-2.191-3.212-2.815-4.548-3.104C23.022-89.557,22.528-87.773,23.694-87.521L23.694-87.521z"/>
			</g>
		</g>
	</g>
	<g>
		<g>
			<g>
				<path style="&st0;" d="M82.379-90.825c0.239,1.2,0.199,2.431,0.457,3.628c0.28,1.298,1.229,2.218,2.267,2.959
					c0.382,0.272,1.07,0.099,1.266-0.332c1.129-2.479,1.027-5,0.701-7.65c-0.144-1.169-1.996-1.183-1.851,0
					c0.278,2.258,0.525,4.58-0.448,6.715c0.422-0.111,0.844-0.221,1.266-0.332c-1.896-1.353-1.467-3.44-1.873-5.48
					C83.93-92.487,82.146-91.99,82.379-90.825L82.379-90.825z"/>
			</g>
		</g>
	</g>
	<g>
		<g>
			<g>
				<path style="&st0;" d="M49.408-91.261c0.017,1.895,0.175,3.856,0.608,5.705c0.272,1.162,2.056,0.669,1.785-0.492
					c-0.396-1.693-0.526-3.478-0.542-5.213C51.248-92.454,49.397-92.455,49.408-91.261L49.408-91.261z"/>
			</g>
		</g>
		<g>
			<g>
				<path style="&st0;" d="M48.174-90.623c1.442-0.017,2.869-0.266,4.309-0.287c1.192-0.017,1.194-1.868,0-1.851
					c-1.441,0.021-2.867,0.27-4.309,0.287C46.982-92.459,46.98-90.608,48.174-90.623L48.174-90.623z"/>
			</g>
		</g>
		<g>
			<g>
				<path style="&st0;" d="M49.282-84.048c1.545-0.325,3.048-0.792,4.638-0.829c1.192-0.027,1.194-1.878,0-1.851
					c-1.758,0.04-3.422,0.536-5.13,0.895C47.622-85.587,48.118-83.803,49.282-84.048L49.282-84.048z"/>
			</g>
		</g>
	</g>
	<g>
		<g>
			<g>
				<path style="&st0;" d="M59.307-90.759c-0.593,1.311-0.602,2.859-0.603,4.276c-0.001,1.194,1.85,1.194,1.851,0
					c0.001-1.046-0.09-2.369,0.35-3.342C61.392-90.904,59.798-91.846,59.307-90.759L59.307-90.759z"/>
			</g>
		</g>
		<g>
			<g>
				<path style="&st0;" d="M59.639-89.017c1.56,1.023,3.222,1.881,4.574,3.189c0.858,0.829,2.168-0.478,1.309-1.309
					c-1.468-1.419-3.255-2.367-4.949-3.478C59.571-91.272,58.645-89.669,59.639-89.017L59.639-89.017z"/>
			</g>
		</g>
		<g>
			<g>
				<path style="&st0;" d="M63.942-90.292c0,0.952,0,1.905,0,2.857c0,1.194,1.851,1.194,1.851,0c0-0.952,0-1.905,0-2.857
					C65.793-91.486,63.942-91.486,63.942-90.292L63.942-90.292z"/>
			</g>
		</g>
	</g>
	<g>
		<g>
			<g>
				<path style="&st0;" d="M71.832-91.861c-0.017,1.236-0.119,2.472-0.159,3.707c-0.036,1.103-0.226,2.539,0.188,3.595
					c0.371,0.948,1.916,0.536,1.54-0.425c-0.395-1.008-0.155-2.44-0.12-3.495c0.037-1.127,0.133-2.255,0.149-3.383
					C73.444-92.892,71.847-92.89,71.832-91.861L71.832-91.861z"/>
			</g>
		</g>
		<g>
			<g>
				<path style="&st0;" d="M70.789-90.68c2.215-0.529,4.498-0.77,6.773-0.793c1.029-0.01,1.03-1.607,0-1.597
					c-2.411,0.024-4.85,0.29-7.197,0.85C69.363-91.981,69.788-90.441,70.789-90.68L70.789-90.68z"/>
			</g>
		</g>
	</g>
	<g>
		<g>
			<g>
				<path style="&st0;" d="M6.254-101.689c1.341-1.046,2.673-2.104,4.075-3.067c0.854-0.587,0.046-1.99-0.816-1.397
					c-1.515,1.042-2.953,2.19-4.402,3.32C4.288-102.192,5.442-101.056,6.254-101.689L6.254-101.689z"/>
			</g>
		</g>
		<g>
			<g>
				<path style="&st0;" d="M8.974-105.321c0.081,2.367,0.044,4.733-0.001,7.1c-0.02,1.044,1.598,1.042,1.618,0
					c0.045-2.367,0.082-4.733,0.001-7.1C10.556-106.361,8.938-106.365,8.974-105.321L8.974-105.321z"/>
			</g>
		</g>
		<g>
			<g>
				<path style="&st0;" d="M7.485-97.048c1.443,0.018,2.879-0.073,4.316-0.189c1.032-0.083,1.041-1.702,0-1.618
					c-1.437,0.116-2.873,0.207-4.316,0.189C6.441-98.679,6.442-97.061,7.485-97.048L7.485-97.048z"/>
			</g>
		</g>
	</g>
	<g>
		<g>
			<g>
				<path style="&st0;" d="M19.254-101.689c1.341-1.046,2.673-2.104,4.075-3.067c0.854-0.587,0.046-1.99-0.816-1.397
					c-1.515,1.042-2.953,2.19-4.402,3.32C17.288-102.192,18.442-101.056,19.254-101.689L19.254-101.689z"/>
			</g>
		</g>
		<g>
			<g>
				<path style="&st0;" d="M21.974-105.321c0.081,2.367,0.044,4.733-0.001,7.1c-0.02,1.044,1.598,1.042,1.618,0
					c0.045-2.367,0.082-4.733,0.001-7.1C23.556-106.361,21.938-106.365,21.974-105.321L21.974-105.321z"/>
			</g>
		</g>
		<g>
			<g>
				<path style="&st0;" d="M20.485-97.048c1.443,0.018,2.879-0.073,4.316-0.189c1.032-0.083,1.041-1.702,0-1.618
					c-1.437,0.116-2.873,0.207-4.316,0.189C19.441-98.679,19.442-97.061,20.485-97.048L20.485-97.048z"/>
			</g>
		</g>
	</g>
	<g>
		<g>
			<g>
				<path style="&st0;" d="M31.619-101.689c1.341-1.046,2.673-2.104,4.075-3.067c0.854-0.587,0.046-1.99-0.816-1.397
					c-1.515,1.042-2.953,2.19-4.402,3.32C29.653-102.192,30.806-101.056,31.619-101.689L31.619-101.689z"/>
			</g>
		</g>
		<g>
			<g>
				<path style="&st0;" d="M34.339-105.321c0.081,2.367,0.044,4.733-0.001,7.1c-0.02,1.044,1.598,1.042,1.618,0
					c0.045-2.367,0.082-4.733,0.001-7.1C35.921-106.361,34.303-106.365,34.339-105.321L34.339-105.321z"/>
			</g>
		</g>
		<g>
			<g>
				<path style="&st0;" d="M32.849-97.048c1.443,0.018,2.879-0.073,4.316-0.189c1.032-0.083,1.041-1.702,0-1.618
					c-1.437,0.116-2.873,0.207-4.316,0.189C31.806-98.679,31.807-97.061,32.849-97.048L32.849-97.048z"/>
			</g>
		</g>
	</g>
	<g>
		<g>
			<g>
				<path style="&st0;" d="M44.301-101.689c1.341-1.046,2.673-2.104,4.075-3.067c0.854-0.587,0.046-1.99-0.816-1.397
					c-1.515,1.042-2.953,2.19-4.402,3.32C42.335-102.192,43.489-101.056,44.301-101.689L44.301-101.689z"/>
			</g>
		</g>
		<g>
			<g>
				<path style="&st0;" d="M47.022-105.321c0.081,2.367,0.044,4.733-0.001,7.1c-0.02,1.044,1.598,1.042,1.618,0
					c0.045-2.367,0.082-4.733,0.001-7.1C48.604-106.361,46.986-106.365,47.022-105.321L47.022-105.321z"/>
			</g>
		</g>
		<g>
			<g>
				<path style="&st0;" d="M45.532-97.048c1.443,0.018,2.879-0.073,4.316-0.189c1.032-0.083,1.041-1.702,0-1.618
					c-1.437,0.116-2.873,0.207-4.316,0.189C44.488-98.679,44.489-97.061,45.532-97.048L45.532-97.048z"/>
			</g>
		</g>
	</g>
	<g>
		<g>
			<g>
				<path style="&st0;" d="M56.984-101.689c1.341-1.046,2.673-2.104,4.075-3.067c0.854-0.587,0.046-1.99-0.816-1.397
					c-1.515,1.042-2.953,2.19-4.402,3.32C55.018-102.192,56.171-101.056,56.984-101.689L56.984-101.689z"/>
			</g>
		</g>
		<g>
			<g>
				<path style="&st0;" d="M59.704-105.321c0.081,2.367,0.044,4.733-0.001,7.1c-0.02,1.044,1.598,1.042,1.618,0
					c0.045-2.367,0.082-4.733,0.001-7.1C61.286-106.361,59.668-106.365,59.704-105.321L59.704-105.321z"/>
			</g>
		</g>
		<g>
			<g>
				<path style="&st0;" d="M58.214-97.048c1.443,0.018,2.879-0.073,4.316-0.189c1.032-0.083,1.041-1.702,0-1.618
					c-1.437,0.116-2.873,0.207-4.316,0.189C57.171-98.679,57.172-97.061,58.214-97.048L58.214-97.048z"/>
			</g>
		</g>
	</g>
	<g>
		<g>
			<g>
				<path style="&st0;" d="M69.666-101.689c1.341-1.046,2.673-2.104,4.075-3.067c0.854-0.587,0.046-1.99-0.816-1.397
					c-1.515,1.042-2.953,2.19-4.402,3.32C67.7-102.192,68.854-101.056,69.666-101.689L69.666-101.689z"/>
			</g>
		</g>
		<g>
			<g>
				<path style="&st0;" d="M72.387-105.321c0.081,2.367,0.044,4.733-0.001,7.1c-0.02,1.044,1.598,1.042,1.618,0
					c0.045-2.367,0.082-4.733,0.001-7.1C73.968-106.361,72.351-106.365,72.387-105.321L72.387-105.321z"/>
			</g>
		</g>
		<g>
			<g>
				<path style="&st0;" d="M70.897-97.048c1.443,0.018,2.879-0.073,4.316-0.189c1.032-0.083,1.041-1.702,0-1.618
					c-1.437,0.116-2.873,0.207-4.316,0.189C69.853-98.679,69.854-97.061,70.897-97.048L70.897-97.048z"/>
			</g>
		</g>
	</g>
	<g>
		<g>
			<g>
				<path style="&st0;" d="M82.348-101.689c1.341-1.046,2.673-2.104,4.075-3.067c0.854-0.587,0.046-1.99-0.816-1.397
					c-1.515,1.042-2.953,2.19-4.402,3.32C80.383-102.192,81.536-101.056,82.348-101.689L82.348-101.689z"/>
			</g>
		</g>
		<g>
			<g>
				<path style="&st0;" d="M85.069-105.321c0.081,2.367,0.044,4.733-0.001,7.1c-0.02,1.044,1.598,1.042,1.618,0
					c0.045-2.367,0.082-4.733,0.001-7.1C86.651-106.361,85.033-106.365,85.069-105.321L85.069-105.321z"/>
			</g>
		</g>
		<g>
			<g>
				<path style="&st0;" d="M83.579-97.048c1.443,0.018,2.879-0.073,4.316-0.189c1.032-0.083,1.041-1.702,0-1.618
					c-1.437,0.116-2.873,0.207-4.316,0.189C82.535-98.679,82.537-97.061,83.579-97.048L83.579-97.048z"/>
			</g>
		</g>
	</g>
	<g>
		<g>
			<g>
				<path style="&st0;" d="M40.966-92.934c-2.883,0.002-6.653,0.181-7.755,3.392c-1.061,3.091,1.467,4.901,4.204,5.352
					c1.167,0.192,1.668-1.591,0.492-1.785c-2.054-0.339-3.585-1.114-2.809-3.375c0.664-1.934,4.305-1.732,5.868-1.733
					C42.159-91.084,42.159-92.935,40.966-92.934L40.966-92.934z"/>
			</g>
		</g>
		<g>
			<g>
				<path style="&st0;" d="M37.193-84.284c1.15,0.509,2.425,0.685,3.422-0.233c0.888-0.818,0.876-2.221,0.606-3.296
					c-0.29-1.157-2.075-0.666-1.785,0.492c0.083,0.329,0.114,0.63,0.093,0.97c-0.01,0.158-0.122,0.413-0.155,0.453
					c-0.129,0.159-0.198,0.188-0.351,0.203c-0.306,0.029-0.619-0.063-0.897-0.186c-0.461-0.204-0.99-0.139-1.266,0.332
					C36.628-85.152,36.732-84.488,37.193-84.284L37.193-84.284z"/>
			</g>
		</g>
		<g>
			<g>
				<path style="&st0;" d="M37.127-87.138c1.725,0.001,3.402,0.089,5.092,0.464c1.163,0.258,1.657-1.526,0.492-1.785
					c-1.85-0.41-3.695-0.529-5.584-0.53C35.933-88.99,35.933-87.139,37.127-87.138L37.127-87.138z"/>
			</g>
		</g>
	</g>
</g>
<g>
	<g>
		<g>
			<g>
				<path style="&st0;" d="M18.408-61.286c1.341-1.046,2.673-2.104,4.075-3.067c0.854-0.587,0.046-1.99-0.816-1.397
					c-1.515,1.042-2.953,2.19-4.402,3.32C16.443-61.789,17.596-60.653,18.408-61.286L18.408-61.286z"/>
			</g>
		</g>
		<g>
			<g>
				<path style="&st0;" d="M21.129-64.918c0.081,2.367,0.044,4.733-0.001,7.1c-0.02,1.044,1.598,1.042,1.618,0
					c0.045-2.367,0.082-4.733,0.001-7.1C22.711-65.958,21.093-65.962,21.129-64.918L21.129-64.918z"/>
			</g>
		</g>
		<g>
			<g>
				<path style="&st0;" d="M19.639-56.645c1.443,0.018,2.879-0.073,4.316-0.189c1.032-0.083,1.041-1.702,0-1.618
					c-1.437,0.116-2.873,0.207-4.316,0.189C18.595-58.276,18.597-56.658,19.639-56.645L19.639-56.645z"/>
			</g>
		</g>
	</g>
	<g>
		<g>
			<g>
				<path style="&st0;" d="M42.582-61.286c1.341-1.046,2.673-2.104,4.075-3.067c0.854-0.587,0.046-1.99-0.816-1.397
					c-1.515,1.042-2.953,2.19-4.402,3.32C40.616-61.789,41.769-60.653,42.582-61.286L42.582-61.286z"/>
			</g>
		</g>
		<g>
			<g>
				<path style="&st0;" d="M45.302-64.918c0.081,2.367,0.044,4.733-0.001,7.1c-0.02,1.044,1.598,1.042,1.618,0
					c0.045-2.367,0.082-4.733,0.001-7.1C46.884-65.958,45.266-65.962,45.302-64.918L45.302-64.918z"/>
			</g>
		</g>
		<g>
			<g>
				<path style="&st0;" d="M43.812-56.645c1.443,0.018,2.879-0.073,4.316-0.189c1.032-0.083,1.041-1.702,0-1.618
					c-1.437,0.116-2.873,0.207-4.316,0.189C42.769-58.276,42.77-56.658,43.812-56.645L43.812-56.645z"/>
			</g>
		</g>
	</g>
	<g>
		<g>
			<g>
				<path style="&st0;" d="M54.888-61.286c1.341-1.046,2.673-2.104,4.075-3.067c0.854-0.587,0.046-1.99-0.816-1.397
					c-1.515,1.042-2.953,2.19-4.402,3.32C52.922-61.789,54.076-60.653,54.888-61.286L54.888-61.286z"/>
			</g>
		</g>
		<g>
			<g>
				<path style="&st0;" d="M57.609-64.918c0.081,2.367,0.044,4.733-0.001,7.1c-0.02,1.044,1.598,1.042,1.618,0
					c0.045-2.367,0.082-4.733,0.001-7.1C59.19-65.958,57.573-65.962,57.609-64.918L57.609-64.918z"/>
			</g>
		</g>
		<g>
			<g>
				<path style="&st0;" d="M56.119-56.645c1.443,0.018,2.879-0.073,4.316-0.189c1.032-0.083,1.041-1.702,0-1.618
					c-1.437,0.116-2.873,0.207-4.316,0.189C55.075-58.276,55.076-56.658,56.119-56.645L56.119-56.645z"/>
			</g>
		</g>
	</g>
	<g>
		<g>
			<g>
				<path style="&st0;" d="M90.928-61.689c1.341-1.046,2.673-2.104,4.075-3.067c0.854-0.587,0.046-1.99-0.816-1.397
					c-1.515,1.042-2.953,2.19-4.402,3.32C88.962-62.192,90.116-61.056,90.928-61.689L90.928-61.689z"/>
			</g>
		</g>
		<g>
			<g>
				<path style="&st0;" d="M93.648-65.321c0.081,2.367,0.044,4.733-0.001,7.1c-0.02,1.044,1.598,1.042,1.618,0
					c0.045-2.367,0.082-4.733,0.001-7.1C95.23-66.361,93.612-66.365,93.648-65.321L93.648-65.321z"/>
			</g>
		</g>
		<g>
			<g>
				<path style="&st0;" d="M92.158-57.048c1.443,0.018,2.879-0.073,4.316-0.189c1.032-0.083,1.041-1.702,0-1.618
					c-1.437,0.116-2.873,0.207-4.316,0.189C91.115-58.679,91.116-57.061,92.158-57.048L92.158-57.048z"/>
			</g>
		</g>
	</g>
	<g>
		<g>
			<g>
				<path style="&st0;" d="M103.234-61.689c1.341-1.046,2.673-2.104,4.075-3.067c0.854-0.587,0.046-1.99-0.816-1.397
					c-1.515,1.042-2.953,2.19-4.402,3.32C101.268-62.192,102.422-61.056,103.234-61.689L103.234-61.689z"/>
			</g>
		</g>
		<g>
			<g>
				<path style="&st0;" d="M105.955-65.321c0.081,2.367,0.044,4.733-0.001,7.1c-0.02,1.044,1.598,1.042,1.618,0
					c0.045-2.367,0.082-4.733,0.001-7.1C107.537-66.361,105.919-66.365,105.955-65.321L105.955-65.321z"/>
			</g>
		</g>
		<g>
			<g>
				<path style="&st0;" d="M104.465-57.048c1.443,0.018,2.879-0.073,4.316-0.189c1.032-0.083,1.041-1.702,0-1.618
					c-1.437,0.116-2.873,0.207-4.316,0.189C103.421-58.679,103.423-57.061,104.465-57.048L104.465-57.048z"/>
			</g>
		</g>
	</g>
	<g>
		<g>
			<g>
				<path style="&st0;" d="M115.541-61.689c1.341-1.046,2.673-2.104,4.075-3.067c0.854-0.587,0.046-1.99-0.816-1.397
					c-1.515,1.042-2.953,2.19-4.402,3.32C113.575-62.192,114.729-61.056,115.541-61.689L115.541-61.689z"/>
			</g>
		</g>
		<g>
			<g>
				<path style="&st0;" d="M118.261-65.321c0.081,2.367,0.044,4.733-0.001,7.1c-0.02,1.044,1.598,1.042,1.618,0
					c0.045-2.367,0.082-4.733,0.001-7.1C119.843-66.361,118.225-66.365,118.261-65.321L118.261-65.321z"/>
			</g>
		</g>
		<g>
			<g>
				<path style="&st0;" d="M116.771-57.048c1.443,0.018,2.879-0.073,4.316-0.189c1.032-0.083,1.041-1.702,0-1.618
					c-1.437,0.116-2.873,0.207-4.316,0.189C115.728-58.679,115.729-57.061,116.771-57.048L116.771-57.048z"/>
			</g>
		</g>
	</g>
	<g>
		<g>
			<g>
				<path style="&st0;" d="M127.847-61.689c1.341-1.046,2.673-2.104,4.075-3.067c0.854-0.587,0.046-1.99-0.816-1.397
					c-1.515,1.042-2.953,2.19-4.402,3.32C125.881-62.192,127.035-61.056,127.847-61.689L127.847-61.689z"/>
			</g>
		</g>
		<g>
			<g>
				<path style="&st0;" d="M130.568-65.321c0.081,2.367,0.044,4.733-0.001,7.1c-0.02,1.044,1.598,1.042,1.618,0
					c0.045-2.367,0.082-4.733,0.001-7.1C132.15-66.361,130.532-66.365,130.568-65.321L130.568-65.321z"/>
			</g>
		</g>
		<g>
			<g>
				<path style="&st0;" d="M129.078-57.048c1.443,0.018,2.879-0.073,4.316-0.189c1.032-0.083,1.041-1.702,0-1.618
					c-1.437,0.116-2.873,0.207-4.316,0.189C128.034-58.679,128.036-57.061,129.078-57.048L129.078-57.048z"/>
			</g>
		</g>
	</g>
	<g>
		<g>
			<g>
				<path style="&st0;" d="M6.968-61.788c-0.298-1.446,0.207-2.9,1.756-2.837c0.451,0.018,0.89,0.268,1.11,0.664
					c0.296,0.535-0.098,1.372-0.435,1.919c-0.549,0.891,0.851,1.703,1.397,0.816c0.664-1.078,0.984-2.269,0.475-3.47
					c-0.409-0.966-1.479-1.431-2.452-1.541c-0.983-0.111-2.028,0.324-2.688,1.045c-0.955,1.045-0.993,2.519-0.723,3.833
					C5.618-60.336,7.177-60.769,6.968-61.788L6.968-61.788z"/>
			</g>
		</g>
		<g>
			<g>
				<path style="&st0;" d="M9.528-62.341c-1.283,1.537-2.483,3.139-3.728,4.706c-0.642,0.807,0.495,1.96,1.144,1.144
					c1.246-1.566,2.446-3.169,3.728-4.706C11.335-61.992,10.197-63.143,9.528-62.341L9.528-62.341z"/>
			</g>
		</g>
		<g>
			<g>
				<path style="&st0;" d="M5.97-56.399c1.998-0.125,3.967-0.467,5.894-1.01c1.003-0.282,0.576-1.843-0.43-1.56
					c-1.79,0.504-3.607,0.836-5.464,0.952C4.934-57.952,4.928-56.334,5.97-56.399L5.97-56.399z"/>
			</g>
		</g>
	</g>
	<g>
		<g>
			<g>
				<path style="&st0;" d="M31.141-61.788c-0.298-1.446,0.207-2.9,1.756-2.837c0.451,0.018,0.89,0.268,1.11,0.664
					c0.296,0.535-0.098,1.372-0.435,1.919c-0.549,0.891,0.851,1.703,1.397,0.816c0.664-1.078,0.984-2.269,0.475-3.47
					c-0.409-0.966-1.479-1.431-2.452-1.541c-0.983-0.111-2.028,0.324-2.688,1.045c-0.955,1.045-0.993,2.519-0.723,3.833
					C29.791-60.336,31.351-60.769,31.141-61.788L31.141-61.788z"/>
			</g>
		</g>
		<g>
			<g>
				<path style="&st0;" d="M33.701-62.341c-1.283,1.537-2.483,3.139-3.728,4.706c-0.642,0.807,0.495,1.96,1.144,1.144
					c1.246-1.566,2.446-3.169,3.728-4.706C35.508-61.992,34.37-63.143,33.701-62.341L33.701-62.341z"/>
			</g>
		</g>
		<g>
			<g>
				<path style="&st0;" d="M30.143-56.399c1.998-0.125,3.967-0.467,5.894-1.01c1.003-0.282,0.576-1.843-0.43-1.56
					c-1.79,0.504-3.607,0.836-5.464,0.952C29.107-57.952,29.101-56.334,30.143-56.399L30.143-56.399z"/>
			</g>
		</g>
	</g>
	<g>
		<g>
			<g>
				<path style="&st0;" d="M67.621-61.788c-0.298-1.446,0.207-2.9,1.756-2.837c0.451,0.018,0.89,0.268,1.11,0.664
					c0.296,0.535-0.098,1.372-0.435,1.919c-0.549,0.891,0.851,1.703,1.397,0.816c0.664-1.078,0.984-2.269,0.475-3.47
					c-0.409-0.966-1.479-1.431-2.452-1.541c-0.983-0.111-2.028,0.324-2.688,1.045c-0.955,1.045-0.993,2.519-0.723,3.833
					C66.271-60.336,67.83-60.769,67.621-61.788L67.621-61.788z"/>
			</g>
		</g>
		<g>
			<g>
				<path style="&st0;" d="M70.181-62.341c-1.283,1.537-2.483,3.139-3.728,4.706c-0.642,0.807,0.495,1.96,1.144,1.144
					c1.246-1.566,2.446-3.169,3.728-4.706C71.988-61.992,70.85-63.143,70.181-62.341L70.181-62.341z"/>
			</g>
		</g>
		<g>
			<g>
				<path style="&st0;" d="M66.623-56.399c1.998-0.125,3.967-0.467,5.894-1.01c1.003-0.282,0.576-1.843-0.43-1.56
					c-1.79,0.504-3.607,0.836-5.464,0.952C65.587-57.952,65.58-56.334,66.623-56.399L66.623-56.399z"/>
			</g>
		</g>
	</g>
	<g>
		<g>
			<g>
				<path style="&st0;" d="M79.968-61.788c-0.298-1.446,0.207-2.9,1.756-2.837c0.451,0.018,0.89,0.268,1.11,0.664
					c0.296,0.535-0.098,1.372-0.435,1.919c-0.549,0.891,0.851,1.703,1.397,0.816c0.664-1.078,0.984-2.269,0.475-3.47
					c-0.409-0.966-1.479-1.431-2.452-1.541c-0.983-0.111-2.028,0.324-2.688,1.045c-0.955,1.045-0.993,2.519-0.723,3.833
					C78.618-60.336,80.177-60.769,79.968-61.788L79.968-61.788z"/>
			</g>
		</g>
		<g>
			<g>
				<path style="&st0;" d="M82.528-62.341c-1.283,1.537-2.483,3.139-3.728,4.706c-0.642,0.807,0.495,1.96,1.144,1.144
					c1.246-1.566,2.446-3.169,3.728-4.706C84.335-61.992,83.197-63.143,82.528-62.341L82.528-62.341z"/>
			</g>
		</g>
		<g>
			<g>
				<path style="&st0;" d="M78.97-56.399c1.998-0.125,3.967-0.467,5.894-1.01c1.003-0.282,0.576-1.843-0.43-1.56
					c-1.79,0.504-3.607,0.836-5.464,0.952C77.934-57.952,77.928-56.334,78.97-56.399L78.97-56.399z"/>
			</g>
		</g>
	</g>
	<g>
		<g>
			<g>
				<path style="&st0;" d="M70.734-51.865c0,1.659,0,3.319,0,4.978c0,1.194,1.851,1.194,1.851,0c0-1.659,0-3.319,0-4.978
					C72.585-53.059,70.734-53.059,70.734-51.865L70.734-51.865z"/>
			</g>
		</g>
		<g>
			<g>
				<path style="&st0;" d="M71.66-45.25c1.185,0,2.371,0,3.556,0c1.194,0,1.194-1.851,0-1.851c-1.185,0-2.371,0-3.556,0
					C70.466-47.101,70.466-45.25,71.66-45.25L71.66-45.25z"/>
			</g>
		</g>
	</g>
	<g>
		<g>
			<g>
				<path style="&st0;" d="M110.819-52.509c-1.47-0.215-3.73-0.581-4.764,0.817c-1.057,1.43,0.696,3.218,1.656,4.114
					c0.871,0.813,2.183-0.493,1.309-1.309c-0.458-0.428-0.909-0.868-1.242-1.403c-0.096-0.154-0.13-0.235-0.175-0.403
					c0.006,0.021-0.036,0.065,0.004-0.002c-0.069,0.116,0.053,0,0.011,0.017c0.186-0.077,0.396-0.123,0.595-0.144
					c0.698-0.074,1.423-0.004,2.115,0.097c0.499,0.073,0.992-0.116,1.138-0.646C111.587-51.811,111.319-52.436,110.819-52.509
					L110.819-52.509z"/>
			</g>
		</g>
		<g>
			<g>
				<path style="&st0;" d="M107.567-47.765c0.295,0.427,0.622,0.911,0.787,1.374c0.033,0.092,0.056,0.186,0.078,0.281
					c-0.043-0.185,0,0.036,0,0.078c0.002,0.232,0.05-0.182-0.013,0.02c0.06-0.195,0.065-0.169,0.158-0.23
					c-0.175,0.117,0.187-0.053-0.035,0.009c-0.237,0.067,0.19-0.006-0.084,0.01c-0.248,0.014-0.408-0.018-0.628-0.062
					c-0.674-0.136-1.334-0.389-1.964-0.661c-0.463-0.2-0.989-0.142-1.266,0.332c-0.231,0.395-0.131,1.066,0.332,1.266
					c1.239,0.535,3.317,1.546,4.632,0.669c1.479-0.986,0.336-2.957-0.399-4.019C108.491-49.673,106.886-48.749,107.567-47.765
					L107.567-47.765z"/>
			</g>
		</g>
	</g>
	<g>
		<g>
			<g>
				<path style="&st0;" d="M23.628-52.046c-1.214,0.439-2.385-0.249-3.556,0.707c-1.699,1.387-1.521,2.749-0.419,4.472
					c1.747,2.734,5.361,1.596,8.03,1.877c1.186,0.125,1.174-1.727,0-1.851c-1.809-0.19-4.276,0.529-5.899-0.429
					c-1.163-0.687-1.672-2.666,0.126-2.898c0.748-0.097,1.475,0.173,2.21-0.093C25.234-50.663,24.753-52.452,23.628-52.046
					L23.628-52.046z"/>
			</g>
		</g>
	</g>
	<g>
		<g>
			<g>
				<path style="&st0;" d="M128.067-50.73c0.239,1.2,0.199,2.431,0.457,3.628c0.28,1.298,1.229,2.218,2.267,2.959
					c0.382,0.272,1.07,0.099,1.266-0.332c1.129-2.479,1.027-5,0.701-7.65c-0.144-1.169-1.996-1.183-1.851,0
					c0.278,2.258,0.525,4.58-0.448,6.715c0.422-0.111,0.844-0.221,1.266-0.332c-1.896-1.353-1.467-3.44-1.873-5.48
					C129.618-52.392,127.834-51.896,128.067-50.73L128.067-50.73z"/>
			</g>
		</g>
	</g>
	<g>
		<g>
			<g>
				<path style="&st0;" d="M61.447-51.407c0.017,1.895,0.175,3.856,0.608,5.705c0.272,1.162,2.056,0.669,1.785-0.492
					c-0.396-1.693-0.526-3.478-0.542-5.213C63.287-52.6,61.436-52.601,61.447-51.407L61.447-51.407z"/>
			</g>
		</g>
		<g>
			<g>
				<path style="&st0;" d="M60.213-50.769c1.442-0.017,2.869-0.266,4.309-0.287c1.192-0.017,1.194-1.868,0-1.851
					c-1.441,0.021-2.867,0.27-4.309,0.287C59.021-52.606,59.019-50.755,60.213-50.769L60.213-50.769z"/>
			</g>
		</g>
		<g>
			<g>
				<path style="&st0;" d="M61.321-44.194c1.545-0.325,3.048-0.792,4.638-0.829c1.192-0.027,1.194-1.878,0-1.851
					c-1.758,0.04-3.422,0.536-5.13,0.895C59.662-45.733,60.157-43.949,61.321-44.194L61.321-44.194z"/>
			</g>
		</g>
	</g>
	<g>
		<g>
			<g>
				<path style="&st0;" d="M83.347-50.659c1.169,0.479,2.599,1.108,3.381,2.153c0.756,1.01-0.911,1.524-1.638,1.774
					c-1.33,0.457-2.852,0.102-3.225-1.399c-0.312-1.257,0.955-2.192,1.974-2.528c1.128-0.373,0.644-2.161-0.492-1.785
					c-1.988,0.657-3.678,2.358-3.301,4.602c0.36,2.135,2.692,3.629,4.784,3.113c1.823-0.45,4.427-1.546,3.897-3.868
					c-0.46-2.02-3.216-3.16-4.889-3.847C82.734-52.896,82.258-51.105,83.347-50.659z"/>
			</g>
		</g>
	</g>
	<g>
		<g>
			<g>
				<path style="&st0;" d="M117.529-51.874c-0.017,1.236-0.119,2.472-0.159,3.707c-0.036,1.103-0.226,2.539,0.188,3.595
					c0.371,0.948,1.916,0.536,1.54-0.425c-0.395-1.008-0.155-2.44-0.12-3.495c0.037-1.127,0.133-2.255,0.149-3.383
					C119.141-52.904,117.544-52.903,117.529-51.874L117.529-51.874z"/>
			</g>
		</g>
		<g>
			<g>
				<path style="&st0;" d="M116.486-50.693c2.215-0.529,4.498-0.77,6.773-0.793c1.029-0.01,1.03-1.607,0-1.597
					c-2.411,0.024-4.85,0.29-7.197,0.85C115.06-51.994,115.485-50.454,116.486-50.693L116.486-50.693z"/>
			</g>
		</g>
	</g>
	<g>
		<g>
			<g>
				<path style="&st0;" d="M33.258-51.858c-0.91,2.035-1.042,4.749-0.569,6.903c0.255,1.166,2.04,0.671,1.785-0.492
					c-0.356-1.625-0.309-3.931,0.383-5.477C35.34-52.004,33.745-52.946,33.258-51.858L33.258-51.858z"/>
			</g>
		</g>
		<g>
			<g>
				<path style="&st0;" d="M33.581-44.276c1.111,0,2.222,0,3.333,0c1.194,0,1.194-1.851,0-1.851c-1.111,0-2.222,0-3.333,0
					C32.388-46.126,32.388-44.276,33.581-44.276L33.581-44.276z"/>
			</g>
		</g>
		<g>
			<g>
				<path style="&st0;" d="M34.534-47.609c0.635,0,1.27,0,1.905,0c1.194,0,1.194-1.851,0-1.851c-0.635,0-1.27,0-1.905,0
					C33.34-49.46,33.34-47.609,34.534-47.609L34.534-47.609z"/>
			</g>
		</g>
		<g>
			<g>
				<path style="&st0;" d="M33.581-49.99c2.35-0.033,4.618-0.521,6.912-0.985c1.169-0.237,0.673-2.021-0.492-1.785
					c-2.134,0.432-4.234,0.888-6.42,0.919C32.389-51.824,32.387-49.973,33.581-49.99L33.581-49.99z"/>
			</g>
		</g>
	</g>
	<g>
		<g>
			<g>
				<g>
					<path style="&st0;" d="M93.654-50.786c0.192,1.857,0.402,3.755,0.891,5.561c0.269,0.993,1.81,0.571,1.54-0.425
						c-0.453-1.671-0.657-3.418-0.834-5.136C95.147-51.8,93.549-51.81,93.654-50.786L93.654-50.786z"/>
				</g>
			</g>
			<g>
				<g>
					<path style="&st0;" d="M93.993-50.787c0.81-0.533,2.567-1.42,3.318-0.294c0.771,1.157-1.022,2.285-1.862,2.63
						c-0.939,0.386-0.528,1.932,0.425,1.54c1.927-0.792,3.882-2.522,2.92-4.786c-0.969-2.28-4.055-1.489-5.605-0.469
						C92.331-51.603,93.13-50.219,93.993-50.787L93.993-50.787z"/>
				</g>
			</g>
		</g>
		<g>
			<g>
				<path style="&st0;" d="M96.119-46.634c1.24,0.455,2.036,1.712,2.925,2.619c0.836,0.854,2.144-0.456,1.309-1.309
					c-1.165-1.189-2.121-2.5-3.742-3.095C95.488-48.831,95.008-47.042,96.119-46.634L96.119-46.634z"/>
			</g>
		</g>
	</g>
	<g>
		<g>
			<g>
				<path style="&st0;" d="M7.168-47.563c0.32-1.339,0.31-2.644,1.959-2.693c-0.299-0.228-0.599-0.456-0.898-0.684
					c0.575,1.983,2.288,3.347,2.857,5.307c0.334,1.151,2.132,0.661,1.796-0.495c-0.575-1.983-2.288-3.347-2.857-5.307
					c-0.113-0.39-0.482-0.696-0.898-0.684c-1.07,0.032-2.116,0.275-2.778,1.183c-0.607,0.831-0.744,1.902-0.977,2.878
					C5.092-46.89,6.889-46.395,7.168-47.563L7.168-47.563z"/>
			</g>
		</g>
		<g>
			<g>
				<path style="&st0;" d="M4.612-47.395c3.054-0.861,6.098-1.381,9.276-1.414c1.201-0.013,1.202-1.876,0-1.863
					c-3.341,0.035-6.558,0.575-9.771,1.481C2.963-48.866,3.454-47.068,4.612-47.395L4.612-47.395z"/>
			</g>
		</g>
	</g>
	<g>
		<g>
			<g>
				<path style="&st0;" d="M53.014-53.148c-2.883,0.002-6.653,0.181-7.755,3.392c-1.061,3.091,1.467,4.901,4.204,5.352
					c1.167,0.192,1.668-1.591,0.492-1.785c-2.054-0.339-3.585-1.114-2.809-3.375c0.664-1.934,4.305-1.732,5.868-1.733
					C54.207-51.298,54.207-53.149,53.014-53.148L53.014-53.148z"/>
			</g>
		</g>
		<g>
			<g>
				<path style="&st0;" d="M49.241-44.498c1.15,0.509,2.425,0.685,3.422-0.233c0.888-0.818,0.876-2.221,0.606-3.296
					c-0.29-1.157-2.075-0.666-1.785,0.492c0.083,0.329,0.114,0.63,0.093,0.97c-0.01,0.158-0.122,0.413-0.155,0.453
					c-0.129,0.159-0.198,0.188-0.351,0.203c-0.306,0.029-0.619-0.063-0.897-0.186c-0.461-0.204-0.99-0.139-1.266,0.332
					C48.676-45.366,48.78-44.702,49.241-44.498L49.241-44.498z"/>
			</g>
		</g>
		<g>
			<g>
				<path style="&st0;" d="M49.175-47.352c1.725,0.001,3.402,0.089,5.092,0.464c1.163,0.258,1.657-1.526,0.492-1.785
					c-1.85-0.41-3.695-0.529-5.584-0.53C47.981-49.204,47.981-47.353,49.175-47.352L49.175-47.352z"/>
			</g>
		</g>
	</g>
</g>
<text transform="matrix(1 0 0 1 137.9795 -200.663)"><tspan x="0" y="0" style="font-family:'MyriadPro-Regular'; font-size:12;">Attrape Eternuement</tspan><tspan x="0" y="14.4" style="font-family:'MyriadPro-Regular'; font-size:12;">Annule Parole</tspan><tspan x="0" y="28.8" style="font-family:'MyriadPro-Regular'; font-size:12;">Temporel</tspan><tspan x="0" y="43.2" style="font-family:'MyriadPro-Regular'; font-size:12;">Aspi fausses ides</tspan><tspan x="0" y="57.6" style="font-family:'MyriadPro-Regular'; font-size:12;">Antibug</tspan><tspan x="0" y="72" style="font-family:'MyriadPro-Regular'; font-size:12;">Golocalisateur</tspan></text>
</svg>
