<?xml version="1.0" encoding="utf-8"?>
<!-- Generator: Adobe Illustrator 17.0.0, SVG Export Plug-In . SVG Version: 6.00 Build 0)  -->
<!DOCTYPE svg PUBLIC "-//W3C//DTD SVG 1.1//EN" "http://www.w3.org/Graphics/SVG/1.1/DTD/svg11.dtd">
<svg version="1.1" id="Calque_1" xmlns="http://www.w3.org/2000/svg" xmlns:xlink="http://www.w3.org/1999/xlink" x="0px" y="0px"
	 width="42.555px" height="40.57px" viewBox="0 0 42.555 40.57" enable-background="new 0 0 42.555 40.57" xml:space="preserve">
<g>
	<g>
		<path fill="#4B4B4B" d="M4.271,19.827c-0.512,2.845,0.128,5.7,1.796,8.062c0.521,0.738,1.746,0.033,1.219-0.713
			c-1.44-2.04-2.099-4.496-1.653-6.974C5.793,19.313,4.432,18.932,4.271,19.827L4.271,19.827z"/>
	</g>
</g>
<g>
	<g>
		<path fill="#4B4B4B" d="M7.084,20.255c-0.204,1.787,0.105,3.59,0.752,5.26c0.326,0.84,1.691,0.475,1.362-0.375
			c-0.608-1.569-0.894-3.205-0.702-4.885C8.6,19.352,7.186,19.361,7.084,20.255L7.084,20.255z"/>
	</g>
</g>
<g>
	<g>
		<path fill="#4B4B4B" d="M12.879,18.086c1.959-12.588,19.209-4.923,20.173,4.508c1.076,10.534-16.155,11.918-19.878,3.524
			c-0.369-0.831-1.585-0.112-1.219,0.713c4.66,10.507,23.663,7.054,22.42-5.107c-1.108-10.846-20.759-17.501-22.858-4.013
			C11.378,18.601,12.739,18.984,12.879,18.086L12.879,18.086z"/>
	</g>
</g>
<g>
	<g>
		<path fill="#4B4B4B" d="M27.439,17.364c-1.428-1.782-3.546-2.703-5.815-2.68c-0.91,0.009-0.911,1.421,0,1.412
			c1.931-0.019,3.606,0.757,4.816,2.267C27.01,19.073,28.002,18.067,27.439,17.364L27.439,17.364z"/>
	</g>
</g>
<g>
	<g>
		<path fill="#4B4B4B" d="M11.051,18.219c-2.06-0.186-4.156-0.037-6.166,0.451C4,18.885,4.375,20.247,5.26,20.032
			c1.893-0.46,3.852-0.575,5.791-0.4C11.958,19.713,11.95,18.3,11.051,18.219L11.051,18.219z"/>
	</g>
</g>
<g>
	<g>
		<path fill="#4B4B4B" d="M12.601,27.102c-1.54,0.781-3.176,0.762-4.8,0.263c-0.873-0.268-1.243,1.095-0.375,1.362
			c1.996,0.613,4.013,0.545,5.889-0.406C14.126,27.909,13.411,26.691,12.601,27.102L12.601,27.102z"/>
	</g>
</g>
<g>
	<g>
		<g>
			<path fill="#4B4B4B" d="M20.481,19.994c-3.008,0.184-5.986,0.671-8.994,0.856c-0.905,0.055-0.91,1.468,0,1.412
				c3.008-0.184,5.986-0.671,8.994-0.856C21.386,21.351,21.391,19.938,20.481,19.994L20.481,19.994z"/>
		</g>
	</g>
	<g>
		<g>
			<path fill="#4B4B4B" d="M16.916,20.678c1.019,1.144,2.033,2.343,3.25,3.284c0.711,0.55,1.718-0.442,0.999-0.999
				c-1.217-0.942-2.231-2.14-3.25-3.284C17.308,18.998,16.312,20,16.916,20.678L16.916,20.678z"/>
		</g>
	</g>
	<g>
		<g>
			<path fill="#4B4B4B" d="M26.151,23.074c-5.043,0.04-10.081,0.059-15.114,0.408c-0.903,0.063-0.909,1.475,0,1.412
				c5.033-0.349,10.071-0.368,15.114-0.408C27.061,24.479,27.062,23.067,26.151,23.074L26.151,23.074z"/>
		</g>
	</g>
</g>
<g>
	<g>
		<path fill="#4B4B4B" d="M10.249,19.402c-0.537,2.431-0.417,4.841,0.124,7.26c0.199,0.889,1.56,0.512,1.362-0.375
			c-0.485-2.17-0.606-4.327-0.124-6.509C11.807,18.89,10.446,18.513,10.249,19.402L10.249,19.402z"/>
	</g>
</g>
<g>
	<g>
		<path fill="#4B4B4B" d="M4.452,19.516c-2.52,2.274-0.703,7.251,1.867,8.627c0.803,0.43,1.516-0.789,0.713-1.219
			c-1.779-0.952-3.426-4.745-1.582-6.409C6.128,19.903,5.126,18.908,4.452,19.516L4.452,19.516z"/>
	</g>
</g>
</svg>
