<?xml version="1.0" encoding="utf-8"?>
<!-- Generator: Adobe Illustrator 17.0.0, SVG Export Plug-In . SVG Version: 6.00 Build 0)  -->
<!DOCTYPE svg PUBLIC "-//W3C//DTD SVG 1.1//EN" "http://www.w3.org/Graphics/SVG/1.1/DTD/svg11.dtd" [
	<!ENTITY st0 "fill:#FFFFFF;">
	<!ENTITY st1 "fill:#4B4B4B;">
	<!ENTITY st2 "fill:#42FD84;">
]>
<svg version="1.1" xmlns="http://www.w3.org/2000/svg" xmlns:xlink="http://www.w3.org/1999/xlink" x="0px" y="0px"
	 width="1280px" height="205px" viewBox="0 0 1280 205" style="enable-background:new 0 0 1280 205;"
	 xml:space="preserve">
<g id="Calque_1">
<linearGradient id="SVGID_1" gradientUnits="userSpaceOnUse" x1="640.4825" y1="4.0867" x2="640.4825" y2="200">
		<stop  offset="0" style="stop-color:#4B4B4B"/>
		<stop  offset="0.0112" style="stop-color:#515151"/>
		<stop  offset="0.1043" style="stop-color:#7F7F7F"/>
		<stop  offset="0.2009" style="stop-color:#A6A6A6"/>
		<stop  offset="0.2998" style="stop-color:#C6C6C6"/>
		<stop  offset="0.4016" style="stop-color:#DFDFDF"/>
		<stop  offset="0.5077" style="stop-color:#F1F1F1"/>
		<stop  offset="0.6207" style="stop-color:#FCFCFC"/>
		<stop  offset="0.7524" style="stop-color:#FFFFFF"/>
	</linearGradient>
	<g>
		<path fill="url(#SVGID_1)" d="M1255.01,200.008c20.172-39.224,20.907-110.033,21.158-126.439l-1.413,1.18
			c-217.6-66.079-449.439-61.214-678.343-70.654c-179.373,1.676-336.272-0.16-591.4,74.479l0.771,3.782
			c-5.652,7.42,1.901,83.172,21.683,117.392L1255.01,200.008z"/>
		<g>
			<path d="M1256.264,200.742c10.886-21.599,15.115-46.144,17.956-69.949c2.266-18.991,3.111-38.111,3.401-57.224
				c0.021-1.36-1.556-1.799-2.481-1.027c-1.797,1.501-6.778-1.228-9.17-1.934c-4.585-1.354-9.184-2.663-13.787-3.957
				c-9.958-2.8-19.964-5.43-29.994-7.959c-19.26-4.857-38.655-9.17-58.124-13.101c-38.315-7.736-76.976-13.683-115.764-18.471
				c-79.483-9.812-159.529-14.25-239.52-17.314c-40.224-1.541-80.461-2.697-120.694-3.947c-37.365-1.162-74.77-3.355-112.151-3.034
				c-56.139,0.482-112.29,0.992-168.367,3.902c-134.41,6.973-266.406,31.056-395.66,68.33c-2.43,0.701-4.858,1.41-7.286,2.118
				C3.827,77.406,3.45,78.175,3.61,78.96c0.708,3.475,0.47,2.558-0.282,5.799c-0.734,3.166-0.772,6.533-0.819,9.763
				c-0.152,10.501,0.979,21.088,2.404,31.476c3.456,25.201,8.612,52.107,21.297,74.482c0.252,0.444,0.748,0.72,1.255,0.72
				c21.234,0.005,42.469,0.009,63.703,0.014c55.095,0.012,110.19,0.023,165.285,0.035c76.044,0.016,152.089,0.032,228.133,0.048
				c84.082,0.018,168.164,0.036,252.245,0.054c79.208,0.017,158.415,0.034,237.623,0.05c61.422,0.013,122.844,0.026,184.266,0.039
				c30.724,0.007,61.449,0.013,92.173,0.02c1.372,0,2.744,0.001,4.116,0.001c1.874,0,1.874-2.906,0-2.906
				c-21.234-0.005-42.469-0.009-63.703-0.014c-55.095-0.012-110.19-0.023-165.285-0.035c-76.044-0.016-152.089-0.032-228.133-0.048
				c-84.082-0.018-168.164-0.036-252.245-0.054c-79.208-0.017-158.415-0.034-237.623-0.05
				c-61.422-0.013-122.844-0.026-184.266-0.039c-30.724-0.007-61.449-0.013-92.173-0.02c-1.274,0-2.548-0.001-3.822-0.001
				c0.163,0-2.094-5.078-2.716-6.393c-4.079-8.622-6.947-17.826-9.461-27.007c-5.032-18.382-8.164-37.418-9.634-56.411
				c-0.496-6.409-0.786-12.892-0.312-19.311c0.324-4.391,1.674-6.58,0.776-10.985c-0.338,0.596-0.677,1.192-1.015,1.787
				C136.209,41.783,269.716,17.018,405.863,9.721C461.936,6.716,518.1,6.225,574.239,5.744c37.15-0.318,74.301,1.783,111.435,2.944
				c40.234,1.258,80.471,2.419,120.697,3.931c80.013,3.007,160.036,7.511,239.559,17.116c40.125,4.846,80.079,11.129,119.698,19.129
				c19.471,3.932,38.841,8.356,58.101,13.212c9.26,2.335,18.483,4.811,27.681,7.376c4.605,1.284,9.198,2.613,13.787,3.957
				c2.124,0.622,8.266,3.78,10.29,2.594c0.62-0.363,1.158-0.949,1.707-1.407c-0.827-0.342-1.654-0.685-2.48-1.027
				c-0.264,17.413-1.048,34.794-2.834,52.123c-2.566,24.884-6.759,51.03-18.125,73.583
				C1252.914,200.944,1255.421,202.415,1256.264,200.742z"/>
		</g>
	</g>
	<g>
		<g>
			<g>
				<path style="&st1;" d="M224.736,103.183c0.229-1.129,0.171-2.737,1.624-2.791c-0.28-0.213-0.561-0.427-0.841-0.64
					c0.483,1.961,1.985,3.445,2.465,5.393c0.269,1.092,1.951,0.629,1.682-0.464c-0.483-1.961-1.985-3.445-2.465-5.393
					c-0.09-0.365-0.463-0.654-0.841-0.64c-2.501,0.093-2.885,1.992-3.306,4.072C222.831,103.817,224.512,104.285,224.736,103.183
					L224.736,103.183z"/>
			</g>
		</g>
		<g>
			<g>
				<path style="&st1;" d="M222.483,103.302c2.617-0.869,5.221-1.406,7.986-1.44c1.124-0.014,1.126-1.758,0-1.745
					c-2.915,0.036-5.687,0.585-8.45,1.502C220.957,101.972,221.412,103.657,222.483,103.302L222.483,103.302z"/>
			</g>
		</g>
	</g>
	<g>
		<g>
			<g>
				<path style="&st1;" d="M257.998,99.901c1.524-0.029,2.997-0.461,4.52-0.49c1.124-0.022,1.126-1.766,0-1.745
					c-1.524,0.029-2.997,0.461-4.52,0.49C256.874,98.178,256.872,99.923,257.998,99.901L257.998,99.901z"/>
			</g>
		</g>
		<g>
			<g>
				<path style="&st1;" d="M261.265,99.287c-0.335,1.197-0.631,2.541-1.419,3.537c-0.69,0.872,0.536,2.116,1.234,1.234
					c0.999-1.263,1.44-2.778,1.868-4.307C263.251,98.665,261.568,98.205,261.265,99.287L261.265,99.287z"/>
			</g>
		</g>
		<g>
			<g>
				<path style="&st1;" d="M259.463,104.803c1.592,0.001,3.154,0.031,4.699,0.459c1.086,0.301,1.546-1.382,0.464-1.682
					c-1.691-0.469-3.418-0.521-5.162-0.521C258.338,103.058,258.338,104.803,259.463,104.803L259.463,104.803z"/>
			</g>
		</g>
		<g>
			<g>
				<path style="&st1;" d="M259.873,102.321c2.314-0.434,4.671-0.547,6.985-0.981c1.105-0.207,0.636-1.888-0.464-1.682
					c-2.314,0.434-4.671,0.547-6.985,0.981C258.305,100.846,258.774,102.527,259.873,102.321L259.873,102.321z"/>
			</g>
		</g>
	</g>
	<g>
		<g>
			<g>
				<path style="&st1;" d="M327.705,98.306c-0.769,2.05-0.801,4.712-0.411,6.837c0.203,1.105,1.884,0.636,1.682-0.464
					c-0.336-1.828-0.247-4.155,0.411-5.91C329.783,97.715,328.096,97.263,327.705,98.306L327.705,98.306z"/>
			</g>
		</g>
		<g>
			<g>
				<path style="&st1;" d="M328.135,105.784c0.959,0,1.917,0,2.876,0c1.125,0,1.125-1.745,0-1.745c-0.959,0-1.917,0-2.876,0
					C327.01,104.039,327.01,105.784,328.135,105.784L328.135,105.784z"/>
			</g>
		</g>
		<g>
			<g>
				<path style="&st1;" d="M328.957,102.352c0.548,0,1.096,0,1.644,0c1.125,0,1.125-1.745,0-1.745c-0.548,0-1.096,0-1.644,0
					C327.832,100.608,327.832,102.352,328.957,102.352L328.957,102.352z"/>
			</g>
		</g>
		<g>
			<g>
				<path style="&st1;" d="M328.135,99.901c2.051-0.035,4.002-0.533,5.984-1.012c1.093-0.264,0.629-1.946-0.464-1.682
					c-1.831,0.442-3.625,0.917-5.52,0.949C327.011,98.175,327.009,99.92,328.135,99.901L328.135,99.901z"/>
			</g>
		</g>
	</g>
	<g>
		<g>
			<path style="&st1;" d="M365.307,99.079c-0.458,0.653-0.53,1.653-0.653,2.415c-0.129,0.8-0.269,1.626-0.288,2.438
				c-0.026,1.126,1.719,1.123,1.745,0c0.015-0.659,0.126-1.324,0.226-1.974c0.092-0.596,0.135-1.509,0.477-1.998
				C367.46,99.035,365.947,98.165,365.307,99.079L365.307,99.079z"/>
		</g>
	</g>
	<g>
		<g>
			<path style="&st1;" d="M366.06,100.391c0.722-0.054,1.234-0.421,1.782-0.861c0.12-0.096,0.344-0.288,0.436-0.322
				c-0.374,0.136-0.5-0.331-0.381,0.003c0.116,0.327,0.152,0.688,0.198,1.03c0.134-0.328,0.267-0.657,0.401-0.985
				c-1.281,0.968-2.793,1.419-4.311,1.873c-1.075,0.321-0.617,2.005,0.464,1.682c1.649-0.493,3.337-0.998,4.728-2.049
				c0.351-0.265,0.46-0.551,0.401-0.985c-0.136-1.006-0.516-2.548-1.872-2.27c-0.421,0.086-0.749,0.356-1.078,0.613
				c-0.189,0.148-0.514,0.508-0.767,0.527C364.945,98.729,364.937,100.475,366.06,100.391L366.06,100.391z"/>
		</g>
	</g>
	<g>
		<g>
			<path style="&st1;" d="M367.908,102.097c0.841,0.958,2.037,1.495,2.876,2.451c0.743,0.847,1.972-0.392,1.234-1.234
				c-0.841-0.958-2.037-1.495-2.876-2.451C368.398,100.016,367.17,101.255,367.908,102.097L367.908,102.097z"/>
		</g>
	</g>
	<g>
		<g>
			<g>
				<path style="&st1;" d="M401.756,99.029c0,1.93-0.225,4.274,0.442,6.115c0.38,1.049,2.066,0.596,1.682-0.464
					c-0.614-1.694-0.379-3.873-0.38-5.651C403.5,97.904,401.756,97.904,401.756,99.029L401.756,99.029z"/>
			</g>
		</g>
		<g>
			<g>
				<path style="&st1;" d="M400.806,100.36c2.193-0.625,4.476-0.922,6.753-0.949c1.124-0.014,1.126-1.758,0-1.745
					c-2.423,0.029-4.884,0.347-7.217,1.012C399.262,98.985,399.722,100.669,400.806,100.36L400.806,100.36z"/>
			</g>
		</g>
	</g>
	<g>
		<g>
			<g>
				<path style="&st1;" d="M223.679,135.437c-1.249,0.807-2.875,2.125-2.481,3.832c0.377,1.631,2.072,2.398,3.515,2.872
					c1.091,0.358,1.555-1.357,0.472-1.713c-0.746-0.245-1.928-0.616-2.232-1.448c-0.302-0.828,1.106-1.677,1.622-2.01
					C225.534,136.351,224.644,134.813,223.679,135.437L223.679,135.437z"/>
			</g>
		</g>
		<g>
			<g>
				<path style="&st1;" d="M223.48,137.568c0.792,0.117,2.261,0.229,2.806,0.936c0.514,0.666-1.168,1.846-1.554,2.153
					c-0.897,0.712,0.369,1.96,1.256,1.256c1.111-0.882,2.585-2.26,2.053-3.85c-0.531-1.587-2.667-1.997-4.089-2.207
					C222.832,135.69,222.351,137.401,223.48,137.568L223.48,137.568z"/>
			</g>
		</g>
		<g>
			<g>
				<path style="&st1;" d="M224.09,140.019c1.225,0.552,1.895,1.9,2.696,2.91c0.301,0.38,0.943,0.313,1.256,0
					c0.371-0.371,0.301-0.877,0-1.256c-0.911-1.148-1.658-2.558-3.056-3.187c-0.441-0.199-0.951-0.131-1.215,0.319
					C223.546,139.188,223.648,139.82,224.09,140.019L224.09,140.019z"/>
			</g>
		</g>
	</g>
	<g>
		<g>
			<path style="&st1;" d="M261.144,135.437c-1.221-0.556-3.163-1.397-4.312-0.242c-1.202,1.208-0.026,3.351,0.632,4.506
				c0.566,0.995,2.101,0.101,1.533-0.896c-0.318-0.559-0.613-1.123-0.795-1.742c-0.065-0.22-0.083-0.325-0.088-0.52
				c-0.002-0.094,0.064-0.201-0.026-0.092c0.058-0.07-0.118,0.014,0.117-0.043c-0.181,0.044,0.096-0.002,0.12-0.002
				c0.103-0.002,0.207,0.009,0.31,0.019c0.51,0.05,1.123,0.323,1.613,0.546C261.281,137.441,262.185,135.911,261.144,135.437
				L261.144,135.437z"/>
		</g>
	</g>
	<g>
		<g>
			<path style="&st1;" d="M257.374,139.488c0.18,0.531,0.372,1.086,0.431,1.646c0.011,0.104,0.013,0.208,0.013,0.312
				c0,0.024-0.039,0.311-0.003,0.109c-0.01,0.054-0.101,0.252-0.003,0.052c-0.079,0.161,0.215-0.155,0.073-0.075
				c0.038-0.022,0.329-0.065,0.149-0.058c-0.223,0.009,0.182,0.046-0.063-0.009c-0.205-0.046-0.26-0.086-0.434-0.177
				c-0.571-0.299-1.072-0.72-1.555-1.142c-0.858-0.75-2.12,0.501-1.256,1.256c1.039,0.908,2.567,2.304,4.055,1.663
				c1.443-0.621,0.649-3.04,0.305-4.051C258.72,137.938,257.004,138.401,257.374,139.488L257.374,139.488z"/>
		</g>
	</g>
	<g>
		<g>
			<path style="&st1;" d="M294.043,137.22c0-0.095,0-0.189,0-0.284c0-1.145-1.776-1.145-1.776,0c0,1.45,0,2.899,0,4.349
				c0,1.145,1.776,1.145,1.776,0c0-1.45,0-2.899,0-4.349c0-1.145-1.776-1.145-1.776,0c0,0.095,0,0.189,0,0.284
				C292.267,138.365,294.043,138.365,294.043,137.22L294.043,137.22z"/>
		</g>
	</g>
	<g>
		<g>
			<path style="&st1;" d="M291.512,137.6c1.737-0.025,2.837-0.149,3.753,1.593c0.046-0.359,0.093-0.717,0.139-1.076
				c-1.173,1.449-2.352,2.899-3.929,3.926c-0.956,0.622-0.066,2.16,0.896,1.533c1.714-1.116,3.012-2.627,4.289-4.203
				c0.264-0.326,0.341-0.692,0.139-1.076c-0.508-0.966-1.203-1.89-2.276-2.261c-0.983-0.34-1.991-0.226-3.011-0.211
				C290.368,135.84,290.366,137.616,291.512,137.6L291.512,137.6z"/>
		</g>
	</g>
	<g>
		<g>
			<g>
				<path style="&st1;" d="M363.238,135.6c1.85,0.001,3.722-0.031,5.516,0.476c1.104,0.312,1.572-1.402,0.472-1.713
					c-1.946-0.55-3.983-0.539-5.988-0.54C362.093,133.823,362.093,135.599,363.238,135.6L363.238,135.6z"/>
			</g>
		</g>
		<g>
			<g>
				<path style="&st1;" d="M363.614,134.984c-0.467,2.529-0.381,5.05,0,7.585c0.17,1.129,1.881,0.648,1.713-0.472
					c-0.33-2.199-0.405-4.447,0-6.641C365.533,134.336,363.822,133.858,363.614,134.984L363.614,134.984z"/>
			</g>
		</g>
		<g>
			<g>
				<path style="&st1;" d="M363.827,139.172c1.233,0,2.465,0,3.698,0c1.145,0,1.145-1.776,0-1.776c-1.233,0-2.465,0-3.698,0
					C362.682,137.396,362.682,139.172,363.827,139.172L363.827,139.172z"/>
			</g>
		</g>
	</g>
	<g>
		<g>
			<g>
				<path style="&st1;" d="M220.849,174.961c0.517,1.667,1.257,3.277,2.139,4.781c0.55,0.937,2.007,0.089,1.456-0.851
					c-0.812-1.383-1.493-2.845-1.969-4.379C222.153,173.478,220.526,173.92,220.849,174.961L220.849,174.961z"/>
			</g>
		</g>
		<g>
			<g>
				<path style="&st1;" d="M224.855,180.2c0.411-0.916,0.822-1.832,1.233-2.748c0.188-0.419,0.125-0.903-0.302-1.153
					c-0.364-0.213-0.965-0.117-1.153,0.302c-0.411,0.916-0.822,1.832-1.233,2.748c-0.188,0.419-0.125,0.903,0.302,1.153
					C224.066,180.716,224.667,180.62,224.855,180.2L224.855,180.2z"/>
			</g>
		</g>
		<g>
			<g>
				<path style="&st1;" d="M224.221,177.452c0.502,1.063,1.342,1.997,2.357,2.592c0.94,0.551,1.788-0.906,0.851-1.456
					c-0.783-0.459-1.367-1.172-1.752-1.988C225.213,175.618,223.76,176.475,224.221,177.452L224.221,177.452z"/>
			</g>
		</g>
		<g>
			<g>
				<path style="&st1;" d="M227.731,179.742c0.957-1.637,1.698-3.394,2.139-5.239c0.253-1.057-1.373-1.506-1.626-0.448
					c-0.409,1.713-1.081,3.318-1.969,4.837C225.725,179.832,227.183,180.68,227.731,179.742L227.731,179.742z"/>
			</g>
		</g>
	</g>
	<g>
		<g>
			<g>
				<path style="&st1;" d="M257.502,175.162c1.224,1.811,2.499,3.845,4.241,5.209c0.846,0.662,2.048-0.522,1.192-1.192
					c-1.64-1.284-2.824-3.161-3.977-4.867C258.353,173.416,256.892,174.259,257.502,175.162L257.502,175.162z"/>
			</g>
		</g>
		<g>
			<g>
				<path style="&st1;" d="M261.2,174.311c-1.177,1.784-2.111,3.712-3.287,5.496c-0.601,0.911,0.86,1.754,1.456,0.851
					c1.177-1.784,2.111-3.712,3.287-5.496C263.257,174.252,261.796,173.408,261.2,174.311L261.2,174.311z"/>
			</g>
		</g>
	</g>
	<g>
		<g>
			<g>
				<path style="&st1;" d="M295.397,174.84c-0.381,0.159-0.847,0.028-1.25,0.018c-0.616-0.016-1.241,0.191-1.724,0.568
					c-0.564,0.439-1.121,1.137-1.313,1.835c-0.196,0.713,0.441,1.788,0.776,2.402c1.442,2.646,4.612,1.585,7.022,1.871
					c1.078,0.128,1.066-1.56,0-1.686c-1.509-0.179-3.98,0.567-5.195-0.545c-0.891-0.816-1.264-2.371,0.213-2.749
					c0.635-0.162,1.277,0.181,1.919-0.088C296.832,176.053,296.399,174.42,295.397,174.84L295.397,174.84z"/>
			</g>
		</g>
	</g>
	<g>
		<g>
			<g>
				<path style="&st1;" d="M327.476,175.62c1.157,1.89,2.659,3.926,4.419,5.293c0.848,0.658,2.05-0.526,1.192-1.192
					c-1.659-1.289-3.065-3.17-4.155-4.951C328.366,173.844,326.907,174.69,327.476,175.62L327.476,175.62z"/>
			</g>
		</g>
		<g>
			<g>
				<path style="&st1;" d="M332.893,180.541c0.603-1.566,0.151-3.407,0.969-4.921c0.517-0.956-0.939-1.808-1.456-0.851
					c-0.909,1.681-0.479,3.608-1.139,5.323C330.876,181.109,332.507,181.545,332.893,180.541L332.893,180.541z"/>
			</g>
		</g>
	</g>
	<g>
		<g>
			<g>
				<path style="&st1;" d="M364.354,175.346c0.001,1.391-0.112,3.132,0.842,4.262c0.702,0.832,1.889-0.367,1.192-1.192
					c-0.245-0.29-0.26-0.858-0.294-1.216c-0.06-0.615-0.054-1.237-0.054-1.854C366.039,174.259,364.353,174.259,364.354,175.346
					L364.354,175.346z"/>
			</g>
		</g>
		<g>
			<g>
				<path style="&st1;" d="M363.634,176.159c0.667-0.114,1.491-0.263,2.066-0.34c0.289-0.039,0.58-0.069,0.871-0.085
					c0.119-0.007,0.238-0.007,0.357-0.005c0.042,0.001,0.084,0.003,0.126,0.006c0.206,0.013-0.189-0.035-0.004-0.002
					c0.031,0.006,0.062,0.014,0.093,0.023c0.161,0.043-0.183-0.094-0.051-0.021c-0.148-0.081-0.251-0.248-0.269-0.486
					c0.003,0.038,0.072-0.219,0.027-0.13c-0.021,0.043-0.196,0.286-0.102,0.167c-0.592,0.741-1.405,1.332-2.149,1.907
					c-0.364,0.282-0.294,0.898,0,1.192c0.356,0.356,0.829,0.281,1.192,0c0.861-0.666,4.027-2.86,2.151-4.107
					c-0.515-0.343-1.293-0.25-1.872-0.191c-0.968,0.099-1.927,0.281-2.886,0.445c-0.453,0.078-0.701,0.628-0.589,1.037
					C362.728,176.045,363.182,176.236,363.634,176.159L363.634,176.159z"/>
			</g>
		</g>
		<g>
			<g>
				<path style="&st1;" d="M367.207,179.028c0.79,0.191,1.6,0.385,2.336,0.74c0.183,0.088,0.352,0.188,0.494,0.333
					c-0.11-0.111,0.049-0.415-0.066-0.226c-0.189,0.309-0.864,0.536-1.191,0.684c-0.897,0.403-1.87,0.666-2.813,0.932
					c-1.045,0.295-0.6,1.922,0.448,1.626c1.219-0.344,2.43-0.723,3.576-1.269c0.635-0.302,1.385-0.772,1.608-1.485
					c0.62-1.985-2.704-2.661-3.943-2.96C366.599,177.147,366.15,178.773,367.207,179.028L367.207,179.028z"/>
			</g>
		</g>
	</g>
	<g>
		<g>
			<g>
				<path style="&st1;" d="M397.939,174.513c-0.479,1.182-0.44,2.631-0.441,3.888c0,1.087,1.686,1.087,1.686,0
					c0.001-1.122-0.047-2.385,0.381-3.44C399.974,173.953,398.342,173.519,397.939,174.513L397.939,174.513z"/>
			</g>
		</g>
		<g>
			<g>
				<path style="&st1;" d="M398.327,175.923c1.353,0.99,2.789,1.834,3.938,3.074c0.741,0.799,1.93-0.396,1.192-1.192
					c-1.245-1.344-2.814-2.265-4.279-3.338C398.299,173.824,397.459,175.288,398.327,175.923L398.327,175.923z"/>
			</g>
		</g>
		<g>
			<g>
				<path style="&st1;" d="M402.018,174.737c0,0.916,0,1.832,0,2.748c0,1.087,1.686,1.087,1.686,0c0-0.916,0-1.832,0-2.748
					C403.704,173.649,402.018,173.649,402.018,174.737L402.018,174.737z"/>
			</g>
		</g>
	</g>
	<g>
		<g>
			<g>
				<path style="&st1;" d="M544.391,175.332c0,1.636,0,3.273,0,4.909c0,1.03,1.597,1.03,1.597,0c0-1.636,0-3.273,0-4.909
					C545.988,174.302,544.391,174.302,544.391,175.332L544.391,175.332z"/>
			</g>
		</g>
		<g>
			<g>
				<path style="&st1;" d="M544.977,178.268c1.439,0.366,3.266,0.211,4.72,0c1.016-0.147,0.582-1.686-0.425-1.54
					c-0.687,0.1-1.407,0.08-2.1,0.082c-0.552,0.002-1.31,0.035-1.771-0.082C544.403,176.474,543.979,178.015,544.977,178.268
					L544.977,178.268z"/>
			</g>
		</g>
		<g>
			<g>
				<path style="&st1;" d="M548.073,174.718c0.001,1.796-0.032,3.645,0.723,5.312c0.424,0.937,1.8,0.124,1.379-0.806
					c-0.621-1.372-0.504-3.037-0.505-4.506C549.669,173.689,548.072,173.688,548.073,174.718L548.073,174.718z"/>
			</g>
		</g>
	</g>
	<g>
		<g>
			<g>
				<path style="&st1;" d="M604.425,176.445c1.841,0,3.682,0,5.523,0c1.03,0,1.03-1.597,0-1.597c-1.841,0-3.682,0-5.523,0
					C603.395,174.848,603.395,176.445,604.425,176.445L604.425,176.445z"/>
			</g>
		</g>
		<g>
			<g>
				<path style="&st1;" d="M606.081,175.646c-0.004,1.06,0.072,2.373-0.508,3.313c-0.485,0.785-2.054-0.062-2.586-0.321
					c-0.922-0.449-1.732,0.928-0.806,1.379c1.369,0.667,3.112,1.347,4.414,0.191c1.162-1.032,1.078-3.169,1.084-4.563
					C607.682,174.616,606.085,174.617,606.081,175.646L606.081,175.646z"/>
			</g>
		</g>
	</g>
	<g>
		<g>
			<g>
				<path style="&st1;" d="M662.249,174.105c0,2.25,0,4.5,0,6.75c0,1.03,1.597,1.03,1.597,0c0-2.25,0-4.5,0-6.75
					C663.846,173.075,662.249,173.075,662.249,174.105L662.249,174.105z"/>
			</g>
		</g>
		<g>
			<g>
				<path style="&st1;" d="M663.817,178.613c0.565-1.589,1.693-2.773,2.863-3.943c0.729-0.729-0.401-1.858-1.129-1.129
					c-1.378,1.38-2.61,2.783-3.274,4.648C661.931,179.161,663.475,179.576,663.817,178.613L663.817,178.613z"/>
			</g>
		</g>
		<g>
			<g>
				<path style="&st1;" d="M664.199,176.962c1.032,1.709,2.319,3.432,3.968,4.582c0.847,0.591,1.644-0.795,0.806-1.379
					c-1.415-0.987-2.512-2.545-3.395-4.009C665.046,175.276,663.665,176.078,664.199,176.962L664.199,176.962z"/>
			</g>
		</g>
	</g>
	<g>
		<g>
			<g>
				<path style="&st1;" d="M720.871,174.559c0,1.432,0,2.864,0,4.296c0,1.03,1.597,1.03,1.597,0c0-1.432,0-2.864,0-4.296
					C722.468,173.529,720.871,173.529,720.871,174.559L720.871,174.559z"/>
			</g>
		</g>
		<g>
			<g>
				<path style="&st1;" d="M721.67,180.267c1.023,0,2.046,0,3.068,0c1.03,0,1.03-1.597,0-1.597c-1.023,0-2.045,0-3.068,0
					C720.64,178.67,720.64,180.267,721.67,180.267L721.67,180.267z"/>
			</g>
		</g>
	</g>
	<g>
		<g>
			<g>
				<path style="&st1;" d="M777.761,174.304c-0.678,1.479-0.722,3.097-0.723,4.699c-0.001,1.03,1.596,1.03,1.597,0
					c0.001-1.286-0.043-2.698,0.505-3.893C779.566,174.181,778.19,173.369,777.761,174.304L777.761,174.304z"/>
			</g>
		</g>
		<g>
			<g>
				<path style="&st1;" d="M777.886,175.272c0.803,0.802,1.809,1.99,3.019,2.075c1.028,0.072,1.021-1.525,0-1.597
					c0.196,0.014-0.069-0.04,0.007-0.006c-0.097-0.044-0.188-0.104-0.279-0.161c-0.195-0.122-0.37-0.271-0.544-0.421
					c-0.375-0.321-0.725-0.671-1.074-1.02C778.286,173.414,777.157,174.543,777.886,175.272L777.886,175.272z"/>
			</g>
		</g>
		<g>
			<g>
				<path style="&st1;" d="M780.856,177.113c0.741-0.709,1.711-1.13,2.455-1.841c0.746-0.713-0.385-1.841-1.129-1.129
					c-0.741,0.709-1.71,1.13-2.455,1.841C778.981,176.696,780.112,177.824,780.856,177.113L780.856,177.113z"/>
			</g>
		</g>
		<g>
			<g>
				<path style="&st1;" d="M781.334,174.707c0.001,1.944,0.062,3.864,0.642,5.735c0.304,0.98,1.846,0.562,1.54-0.425
					c-0.54-1.74-0.584-3.504-0.585-5.311C782.931,173.677,781.334,173.677,781.334,174.707L781.334,174.707z"/>
			</g>
		</g>
	</g>
	<g>
		<g>
			<g>
				<path style="&st1;" d="M490.796,174.086c-2.476,0.002-5.734,0.142-6.692,2.896c-0.924,2.656,1.291,4.191,3.628,4.571
					c1.007,0.164,1.439-1.375,0.425-1.54c-1.747-0.284-3.097-0.925-2.423-2.862c0.573-1.648,3.73-1.467,5.063-1.468
					C491.826,175.682,491.826,174.085,490.796,174.086L490.796,174.086z"/>
			</g>
		</g>
		<g>
			<g>
				<path style="&st1;" d="M487.541,181.473c0.998,0.434,2.03,0.569,2.917-0.167c0.807-0.67,0.791-1.934,0.559-2.851
					c-0.252-0.998-1.792-0.574-1.54,0.425c0.11,0.435,0.149,0.883-0.09,1.251c-0.035,0.054-0.149,0.093-0.298,0.127
					c-0.21,0.047-0.544-0.078-0.742-0.164c-0.399-0.174-0.853-0.122-1.093,0.286C487.054,180.722,487.142,181.299,487.541,181.473
					L487.541,181.473z"/>
			</g>
		</g>
		<g>
			<g>
				<path style="&st1;" d="M487.483,179.043c1.488,0.001,2.936,0.075,4.394,0.395c1.004,0.22,1.43-1.32,0.425-1.54
					c-1.596-0.35-3.189-0.451-4.819-0.452C486.454,177.446,486.454,179.043,487.483,179.043L487.483,179.043z"/>
			</g>
		</g>
	</g>
	<g>
		<g>
			<g>
				<path style="&st1;" d="M1038,55.571c0.675,1.265,1.892,2.168,3.013,3.013c0.349,0.263,0.892,0.056,1.093-0.286
					c0.239-0.409,0.06-0.831-0.286-1.093c-0.903-0.68-1.898-1.424-2.441-2.44C1038.894,53.856,1037.515,54.663,1038,55.571
					L1038,55.571z"/>
			</g>
		</g>
		<g>
			<g>
				<path style="&st1;" d="M1041.886,54.708c-0.51,2.311-0.978,4.631-1.487,6.941c-0.221,1.004,1.318,1.43,1.54,0.425
					c0.51-2.311,0.978-4.631,1.487-6.941C1043.647,54.129,1042.108,53.702,1041.886,54.708L1041.886,54.708z"/>
			</g>
		</g>
	</g>
	<g>
		<g>
			<path style="&st1;" d="M1037.277,84.625c0.206,1.035,0.172,2.098,0.394,3.13c0.241,1.12,1.06,1.914,1.956,2.553
				c0.329,0.235,0.923,0.085,1.093-0.286c0.974-2.139,0.886-4.315,0.605-6.601c-0.124-1.008-1.723-1.021-1.597,0
				c0.24,1.949,0.453,3.952-0.387,5.795c0.364-0.095,0.728-0.191,1.093-0.286c-1.636-1.167-1.265-2.968-1.616-4.729
				C1038.616,83.191,1037.077,83.619,1037.277,84.625L1037.277,84.625z"/>
		</g>
	</g>
	<g>
		<g>
			<g>
				<path style="&st1;" d="M1037.983,111.674c0.014,1.635,0.151,3.327,0.524,4.922c0.235,1.003,1.774,0.577,1.54-0.425
					c-0.342-1.461-0.454-3.001-0.467-4.498C1039.571,110.645,1037.974,110.644,1037.983,111.674L1037.983,111.674z"/>
			</g>
		</g>
		<g>
			<g>
				<path style="&st1;" d="M1036.919,112.225c1.244-0.015,2.475-0.23,3.719-0.248c1.029-0.015,1.031-1.612,0-1.597
					c-1.243,0.018-2.474,0.233-3.719,0.248C1035.89,110.64,1035.888,112.237,1036.919,112.225L1036.919,112.225z"/>
			</g>
		</g>
		<g>
			<g>
				<path style="&st1;" d="M1037.875,117.898c1.333-0.28,2.63-0.684,4.002-0.715c1.028-0.024,1.031-1.621,0-1.597
					c-1.517,0.035-2.953,0.462-4.427,0.772C1036.443,116.57,1036.87,118.11,1037.875,117.898L1037.875,117.898z"/>
			</g>
		</g>
	</g>
	<g>
		<g>
			<g>
				<path style="&st1;" d="M1038.531,139.458c1.008,0.414,2.242,0.956,2.917,1.857c0.652,0.871-0.786,1.315-1.413,1.531
					c-1.147,0.394-2.461,0.088-2.783-1.207c-0.269-1.085,0.824-1.891,1.703-2.182c0.973-0.322,0.556-1.864-0.425-1.54
					c-1.715,0.567-3.174,2.035-2.848,3.971c0.31,1.842,2.323,3.132,4.128,2.686c1.573-0.388,3.82-1.334,3.363-3.338
					c-0.397-1.743-2.775-2.727-4.219-3.319C1038.002,137.527,1037.591,139.073,1038.531,139.458z"/>
			</g>
		</g>
	</g>
	<g>
		<g>
			<g>
				<path style="&st1;" d="M1038.296,167.067c0.192,1.857,0.402,3.755,0.891,5.561c0.269,0.993,1.81,0.571,1.54-0.425
					c-0.453-1.671-0.657-3.418-0.834-5.136C1039.788,166.053,1038.19,166.042,1038.296,167.067L1038.296,167.067z"/>
			</g>
		</g>
		<g>
			<g>
				<path style="&st1;" d="M1038.635,167.066c0.81-0.533,2.567-1.42,3.318-0.294c0.771,1.157-1.021,2.285-1.862,2.63
					c-0.939,0.386-0.528,1.932,0.425,1.54c1.927-0.792,3.882-2.522,2.92-4.786c-0.969-2.28-4.055-1.489-5.605-0.469
					C1036.972,166.25,1037.772,167.634,1038.635,167.066L1038.635,167.066z"/>
			</g>
		</g>
	</g>
	<g>
		<g>
			<g>
				<path style="&st1;" d="M1204.578,121.667c5.98-0.462,11.952-0.91,17.952-0.945c1.205-0.007,1.206-1.876,0-1.869
					c-6,0.035-11.972,0.483-17.952,0.945C1203.384,119.889,1203.375,121.759,1204.578,121.667L1204.578,121.667z"/>
			</g>
		</g>
		<g>
			<g>
				<path style="&st1;" d="M1204.294,121.865c1.575-1.575,3.149-3.149,4.724-4.724c0.853-0.853-0.469-2.175-1.322-1.322
					c-1.575,1.575-3.149,3.149-4.724,4.724C1202.119,121.397,1203.441,122.718,1204.294,121.865L1204.294,121.865z"/>
			</g>
		</g>
		<g>
			<g>
				<path style="&st1;" d="M1203.162,122.484c2.11,1.559,4.366,2.903,6.614,4.252c1.036,0.622,1.976-0.995,0.944-1.614
					c-2.248-1.349-4.503-2.693-6.614-4.252C1203.134,120.152,1202.203,121.776,1203.162,122.484L1203.162,122.484z"/>
			</g>
		</g>
	</g>
	<g>
		<g>
			<g>
				<path style="&st1;" d="M1212.753,178.632c3.022-0.231,6.044-0.462,9.065-0.692c-0.312-0.312-0.623-0.623-0.935-0.935
					c0.189,2.472,0.378,4.945,0.567,7.417c0.312-0.312,0.623-0.623,0.935-0.935c-6.051,0.208-12.107,0.453-18.146,0.896
					c-1.195,0.088-1.203,1.958,0,1.869c6.039-0.444,12.094-0.688,18.146-0.896c0.479-0.016,0.974-0.414,0.935-0.935
					c-0.189-2.472-0.378-4.945-0.567-7.417c-0.036-0.477-0.398-0.976-0.935-0.935c-3.022,0.231-6.044,0.462-9.065,0.692
					C1211.558,176.853,1211.55,178.724,1212.753,178.632L1212.753,178.632z"/>
			</g>
		</g>
		<g>
			<g>
				<path style="&st1;" d="M1205.019,185.803c1.033-1.265,2.157-2.453,3.19-3.717c0.756-0.925-0.559-2.256-1.322-1.322
					c-1.033,1.265-2.156,2.453-3.19,3.717C1202.942,185.406,1204.256,186.737,1205.019,185.803L1205.019,185.803z"/>
			</g>
		</g>
		<g>
			<g>
				<path style="&st1;" d="M1203.507,185.791c0.981,1.332,2.06,2.64,3.204,3.835c0.835,0.872,2.155-0.452,1.322-1.322
					c-1.033-1.079-2.026-2.254-2.911-3.456C1204.415,183.888,1202.791,184.818,1203.507,185.791L1203.507,185.791z"/>
			</g>
		</g>
	</g>
	<g>
		<g>
			<g>
				<path style="&st1;" d="M1112.286,180.249c-0.002-0.284-0.009-0.565-0.151-0.82c-0.293-0.524-1.051-0.614-1.468-0.189
					c-0.738,0.752-0.551,2.861-0.637,3.814c-0.133,1.478-0.314,2.974-0.339,4.459c-0.021,1.206,1.849,1.204,1.869,0
					c0.021-1.219,0.166-2.445,0.269-3.658c0.071-0.837,0.148-1.674,0.233-2.51c0.031-0.304,0.065-0.608,0.102-0.911
					c0.044-0.357,0.172-0.224-0.175,0.129c-0.489-0.063-0.979-0.126-1.468-0.189c-0.209-0.372-0.106-0.442-0.104-0.123
					C1110.426,181.454,1112.295,181.455,1112.286,180.249L1112.286,180.249z"/>
			</g>
		</g>
		<g>
			<g>
				<path style="&st1;" d="M1116.953,179.522c-0.05,3.162-0.677,6.28-0.726,9.442c-0.019,1.206,1.85,1.204,1.869,0
					c0.05-3.162,0.677-6.28,0.726-9.442C1118.841,178.316,1116.972,178.318,1116.953,179.522L1116.953,179.522z"/>
			</g>
		</g>
		<g>
			<g>
				<path style="&st1;" d="M1105.54,182.636c6.33,0.049,12.607,0.676,18.884,1.453c1.194,0.148,1.18-1.723,0-1.869
					c-6.277-0.777-12.554-1.404-18.884-1.453C1104.334,180.757,1104.335,182.627,1105.54,182.636L1105.54,182.636z"/>
			</g>
		</g>
		<g>
			<g>
				<path style="&st1;" d="M1104.088,185.541c7.017,0.751,13.927,2.081,20.814,3.598c1.175,0.259,1.674-1.543,0.497-1.803
					c-7.051-1.553-14.129-2.896-21.311-3.665C1102.89,183.544,1102.902,185.414,1104.088,185.541L1104.088,185.541z"/>
			</g>
		</g>
	</g>
</g>
<g id="annuler">
	<g class="clavier_focus_annuler">
		<g>
			<path class="clavier_focus_cancel" d="M1189.323,77.239c-7.635,3.939-19.998,11.727-14.956,22.031c4.467,9.128,18.161,12.405,27.145,13.831
				c12.675,2.012,26.666,0.992,38.088-5.234c7.566-4.124,19.841-16.408,10.987-24.707c-7.553-7.079-20.814-8.467-30.576-9.405
				C1210.498,72.84,1197.828,71.965,1189.323,77.239c-1.083,0.672-0.089,2.386,1,1.711c6.086-3.774,14.246-3.72,21.185-3.663
				c8.955,0.074,18.023,1.265,26.611,3.829c4.975,1.485,15.193,5.01,13.53,11.969c-1.562,6.537-7.476,11.878-13.05,15.07
				c-12.112,6.937-27.959,7.047-41.252,4.154c-7.647-1.664-24.561-6.989-21.929-17.86c1.583-6.541,9.488-10.706,14.905-13.5
				C1191.459,78.364,1190.456,76.654,1189.323,77.239z"/>
		</g>
	</g>
</g>
<g id="valider">
	<g class="clavier_focus_valider_1_">
		<g>
			<path class="clavier_focus_submit" d="M1189.323,136.152c-7.635,3.939-19.998,11.727-14.956,22.031c4.467,9.128,18.161,12.405,27.145,13.831
				c12.675,2.012,26.666,0.992,38.088-5.234c7.566-4.124,19.841-16.408,10.987-24.707c-7.553-7.079-20.814-8.467-30.576-9.405
				C1210.498,131.754,1197.828,130.878,1189.323,136.152c-1.083,0.672-0.089,2.386,1,1.711c6.086-3.774,14.246-3.72,21.185-3.663
				c8.955,0.074,18.023,1.265,26.611,3.829c4.975,1.485,15.193,5.01,13.53,11.969c-1.562,6.537-7.476,11.878-13.05,15.07
				c-12.112,6.937-27.959,7.047-41.252,4.154c-7.647-1.664-24.561-6.989-21.929-17.86c1.583-6.541,9.488-10.706,14.905-13.5
				C1191.459,137.277,1190.456,135.567,1189.323,136.152z"/>
		</g>
	</g>
</g>
<g id="message">
	<g class="clavier_focus_message">
		<g>
			<path class="clavier_focus_mailbox" d="M1090.669,139.014c-7.635,3.939-19.998,11.727-14.957,22.031c4.467,9.128,18.161,12.405,27.145,13.831
				c12.675,2.012,26.666,0.992,38.088-5.234c7.566-4.124,19.841-16.408,10.987-24.707c-7.553-7.079-20.814-8.467-30.576-9.405
				C1111.844,134.616,1099.174,133.74,1090.669,139.014c-1.083,0.672-0.089,2.386,1,1.711c6.086-3.774,14.246-3.72,21.185-3.663
				c8.955,0.074,18.023,1.265,26.611,3.829c4.975,1.486,15.193,5.01,13.53,11.969c-1.562,6.537-7.476,11.878-13.05,15.07
				c-12.112,6.937-27.959,7.047-41.252,4.154c-7.648-1.664-24.561-6.989-21.929-17.86c1.583-6.541,9.488-10.706,14.904-13.5
				C1092.805,140.139,1091.802,138.429,1090.669,139.014z"/>
		</g>
	</g>
</g>
<g id="simon">
	<g class="clavier_focus_simon">
		<g>
			<path class="clavier_focus_simon" d="M998.522,41.812c17.53,0,35.06,0,52.591,0c2.542,0,2.269,0.236,2.444,2.613
				c0.123,1.67,0.22,3.342,0.315,5.013c0.228,4.015,0.365,8.035,0.475,12.055c0.229,8.33,0.242,16.666,0.193,24.998
				c-0.193,33.473-2.169,66.978-1.266,100.451c0.015,0.54,0.44,0.991,0.991,0.991c0.017,0,0.033,0,0.05,0c0-0.66,0-1.321,0-1.981
				c-29.713,3.062-59.661,2.039-89.457,1.04c-14.297-0.479-28.596-0.989-42.903-1.039c-1.151-0.004-0.795-30.687-0.819-33.815
				c-0.21-26.619-0.469-53.238-0.346-79.858c0.027-5.942,0.083-11.884,0.166-17.825c0.039-2.779,0.09-5.557,0.147-8.335
				c0.027-1.331,0.059-2.663,0.091-3.994c0.019-0.774,5.916-0.613,6.56-0.635c13.968-0.486,27.941,0.112,41.908,0.282
				c2.506,0.031,5.012,0.038,7.517,0.04c1.278,0.001,1.278-1.98,0-1.981c-18.994-0.016-37.956-0.963-56.943,0
				c-0.55,0.028-0.976,0.43-0.991,0.991c-1.244,48.694,0.048,97.421,0.1,146.121c0.001,0.54,0.45,0.99,0.991,0.991
				c44.644,0.03,89.419,4.592,133.977,0c1.244-0.128,1.303-1.981,0-1.981c1.644,0,0.814-4.978,0.796-6.351
				c-0.034-2.616-0.041-5.233-0.042-7.849c-0.003-6.141,0.08-12.281,0.18-18.421c0.212-12.887,0.56-25.772,0.839-38.658
				c0.533-24.575,1.208-49.326-0.833-73.851c-0.045-0.538-0.417-0.991-0.991-0.991c-18.581,0-37.162,0-55.743,0
				C997.244,39.831,997.244,41.812,998.522,41.812L998.522,41.812z"/>
		</g>
	</g>
</g>
<g id="fusible">
	<g class="clavier_focus_fusible">
		<g>
			<path class="clavier_focus_fuses" d="M883.271,34.475c3.744-1.386,8.834-0.415,12.724-0.17c0.895,0.056,1.791,0.114,2.687,0.165
				c0.976,0.056,0.204-0.524,0.341,0.756c0.232,2.164,0.4,4.335,0.555,6.505c0.681,9.554,0.817,19.149,0.87,28.724
				c0.127,22.889-0.581,45.779-1.143,68.658c-0.255,10.357-0.497,20.715-0.597,31.075c-0.04,4.107-0.045,8.213-0.001,12.32
				c0.019,1.77,0.056,3.54,0.104,5.309c-0.003-0.096-8.603,0.138-9.365,0.146c-13.758,0.145-27.512-0.589-41.269-0.637
				c-3.078-0.011-6.156,0.038-9.233,0.128c-3.071,0.09-3.328,1.026-3.407-2.018c-0.106-4.084-0.153-8.17-0.187-12.255
				c-0.226-26.647,0.216-53.301,0.439-79.947c0.108-12.961,0.197-25.924,0.152-38.885c-0.017-5.013-0.064-10.027-0.16-15.04
				c-0.022-1.139-0.05-2.277-0.08-3.415c-0.048-1.849-0.344-1.383,1.588-1.476c4.309-0.206,8.604-0.791,12.884,0.056
				c1.248,0.247,1.78-1.663,0.527-1.911c-5.322-1.053-10.694-0.142-16.061-0.035c-0.526,0.01-1.008,0.443-0.991,0.991
				c1.664,51.685-1.664,103.437,0,155.121c0.017,0.517,0.438,1.021,0.991,0.991c21.719-1.174,43.469,1.174,65.188,0
				c0.526-0.028,1.008-0.429,0.991-0.991c-0.784-25.713,0.568-51.518,1.139-77.225c0.573-25.823,1.778-52.17-1.139-77.897
				c-0.062-0.546-0.404-0.978-0.991-0.991c-5.319-0.116-11.968-1.857-17.082,0.035C881.557,33.004,882.07,34.919,883.271,34.475
				L883.271,34.475z"/>
		</g>
	</g>
</g>
<g id="piece">
	<g class="clavier_focus_piece">
		<g>
			<path class="clavier_focus_coloredbuttons" d="M648.426,131.964c45.291-3.957,91.029-0.887,136.384,0.205c7.539,0.181,15.09,0.347,22.631,0.135
				c1.24-0.035,2.48-0.094,3.718-0.171c0.525-0.033,1.048-0.077,1.572-0.123c-0.785,0.069-0.065,4.337-0.034,4.744
				c0.569,7.487,0.801,14.999,0.832,22.507c0.035,8.713-0.285,17.454-1.111,26.13c-0.241,2.528-0.312,0.9,0.655,0.884
				c-0.542,0.009-1.083,0.017-1.625,0.025c-61.298,0.945-122.606,1.478-183.911,1.636c-43.924,0.113-87.853,0.023-131.773-0.652
				c-9.765-0.15-19.53-0.338-29.293-0.57c-4.359-0.104-8.717-0.22-13.075-0.347c-1.126-0.033-2.166,0.497-2.172-0.913
				c-0.007-1.673-0.053-3.346-0.1-5.018c-0.093-3.273-0.305-6.542-0.553-9.806c-0.787-10.37-1.567-20.412-0.519-30.809
				c0.237-2.352-0.554-7.947,2.197-7.586c2.15,0.282,4.309,0.491,6.468,0.688c5.326,0.484,10.674,0.732,16.018,0.916
				c40.761,1.406,81.54-1.832,122.3-1.875c1.278-0.001,1.278-1.983,0-1.981c-25.564,0.026-51.116,1.201-76.67,1.796
				c-23.153,0.539-46.85,1.436-69.86-1.76c-0.482-0.067-1.13,0.11-1.219,0.692c-1.438,9.449-2.228,18.851-1.641,28.404
				c0.578,9.405,1.568,18.711,1.606,28.151c0.002,0.553,0.449,0.974,0.991,0.991c84.595,2.576,169.317,1.926,253.937,1.248
				c36.345-0.291,72.691-0.666,109.033-1.248c0.589-0.009,0.926-0.448,0.991-0.991c2.213-18.576,1.651-37.712,0-56.291
				c-0.044-0.496-0.419-1.046-0.991-0.991c-8.677,0.847-17.524,0.441-26.223,0.255c-14.363-0.308-28.721-0.832-43.082-1.234
				c-31.764-0.888-63.782-1.79-95.48,0.979C647.163,130.093,647.153,132.076,648.426,131.964L648.426,131.964z"/>
		</g>
	</g>
</g>
<g id="nombre">
	<g class="clavier_focus_nombre_1_">
		<g>
			<path class="clavier_focus_keypad" d="M737.582,21.486c15.413,0.015,30.823,0.38,46.232,0.677c7.392,0.142,14.784,0.259,22.177,0.318
				c1.808,0.015,3.617,0.02,5.426,0.026c1.074,0.003,0.803-1.161,0.803,0.446c0,3.638-0.27,7.295-0.36,10.933
				c-0.318,12.847-0.171,25.701-0.001,38.549c0.089,6.712,0.187,13.423,0.258,20.135c0.039,3.639,0.065,7.279,0.084,10.918
				c0.01,1.909,0.014,3.818,0.017,5.727c0.003,1.74-4.389,0.962-5.439,0.962c-57.7,0-115.4,0-173.1,0
				c-0.841,0-0.606,1.476-0.606-0.558c0-1.224,0-2.448,0-3.672c0-2.928-0.034-5.855-0.09-8.783
				c-0.151-7.84-0.502-15.677-0.779-23.513c-0.613-17.312-0.726-34.617,0.87-51.882c-0.66,0-1.321,0-1.981,0
				c0,0.032,0,0.065,0,0.097c0,0.527,0.451,1.008,0.991,0.991c21.963-0.715,43.943-0.655,65.906-1.37
				c1.274-0.041,1.278-2.023,0-1.981c-10.981,0.357-21.968,0.52-32.953,0.685c-5.349,0.081-10.697,0.163-16.046,0.262
				c-1.891,0.035-15.917-0.492-15.917,1.317c0-1.298-1.866-1.25-1.981,0c-2.752,29.78,0,59.577,0,89.4
				c0,0.54,0.451,0.991,0.991,0.991c60.376,0,120.751,0,181.127,0c0.54,0,0.991-0.451,0.991-0.991
				c-0.01-16.069-0.307-32.135-0.475-48.203c-0.145-13.827,0.475-27.631,0.475-41.447c0-0.54-0.451-0.99-0.991-0.991
				c-25.214-0.025-50.415-0.998-75.629-1.023C736.304,19.503,736.304,21.484,737.582,21.486L737.582,21.486z"/>
		</g>
	</g>
</g>
<g id="cable">
	<g class="clavier_focus_cable_1_">
		<g>
			<path class="clavier_focus_wires" d="M539.507,48.273c-29.749-0.242-59.523-1.021-89.266,0c-0.582,0.02-0.935,0.439-0.991,0.991
				c-1.013,9.968-0.454,20.225-0.364,30.224c0.095,10.56,0.35,21.121,0.364,31.681c0.001,0.555,0.451,0.971,0.991,0.991
				c54.074,1.966,108.206,1,162.29,0c0.567-0.01,0.955-0.444,0.991-0.991c1.342-20.494-0.53-41.448-1.883-61.905
				c-0.036-0.539-0.424-0.991-0.991-0.991c-16.546,0-33.092,0-49.638,0c-1.278,0-1.278,1.981,0,1.981c13.521,0,27.043,0,40.564,0
				c1.766,0,3.532,0,5.298,0c1.459,0,2.804-0.72,2.903,0.81c0.137,2.106,0.266,4.213,0.392,6.32
				c0.337,5.626,0.63,11.254,0.891,16.883c0.5,10.77,0.936,21.575,0.689,32.358c-0.022,0.952-0.063,1.902-0.106,2.853
				c-0.064,1.42-1.349,0.741-2.736,0.767c-3.654,0.067-7.309,0.134-10.963,0.199c-8.04,0.143-16.08,0.277-24.12,0.397
				c-31.398,0.469-62.803,0.68-94.201,0.132c-7.373-0.129-14.744-0.315-22.114-0.545c-1.819-0.057-3.637-0.12-5.455-0.184
				c-1.126-0.039-0.818,0.695-0.826-0.781c-0.01-1.794-0.032-3.588-0.054-5.382c-0.113-9.417-0.262-18.833-0.335-28.25
				c-0.052-6.749-0.083-13.501,0.071-20.248c0.028-1.228,0.073-2.456,0.131-3.683c0.02-0.397,0.043-0.794,0.069-1.19
				c0.09-1.435-0.16-0.479,0.772-0.511c5.674-0.195,11.35-0.292,17.027-0.36c23.533-0.283,47.069,0.224,70.6,0.416
				C540.785,50.264,540.784,48.283,539.507,48.273L539.507,48.273z"/>
		</g>
	</g>
</g>
<g id="tuyaux">
	<g class="clavier_focus_tuyaux_1_">
		<g>
			<path class="clavier_focus_pipes" d="M309.568,68.561c32.442-0.867,64.866,1.148,97.308,0.741c3.913-0.049,7.825-0.156,11.735-0.287
				c1.964-0.066,3.928-0.156,5.891-0.246c1.921-0.088,2.947-0.762,2.947,1.299c0,5.934,0,11.868,0,17.803c0,12.99,0,25.979,0,38.969
				c0,13.038,0,26.076,0,39.114c0,5.567,0,11.133,0,16.7c0,1.279-0.654,4.103,0.915,4.075c-0.25,0.004-0.501,0.009-0.751,0.013
				c-8.553,0.148-17.107,0.274-25.661,0.391c-38.497,0.53-76.997,0.86-115.498,0.841c-20.89-0.011-41.78-0.131-62.667-0.512
				c-8.875-0.162-17.749-0.382-26.619-0.699c-0.162-0.006,0.027-37.4,0.027-40.66c0-25.659,0-51.318,0-76.977
				c0-2.219,60.258-0.572,66.569-0.564c1.278,0.002,1.278-1.98,0-1.981c-22.508-0.03-45.066-1.251-67.559,0
				c-0.539,0.03-0.991,0.428-0.991,0.991c0,40.049,0,80.098,0,120.147c0,0.555,0.451,0.971,0.991,0.991
				c73.956,2.716,148.156,1.319,222.136,0.166c3.366-0.052,6.733-0.106,10.099-0.166c0.54-0.01,0.991-0.443,0.991-0.991
				c0-40.049,0-80.098,0-120.147c0-0.518-0.451-1.02-0.991-0.991c-39.612,2.173-79.245-1.059-118.873,0
				C308.293,66.614,308.29,68.595,309.568,68.561L309.568,68.561z"/>
		</g>
	</g>
</g>
<g id="fleche">
	<g class="clavier_focus_fleche_1_">
		<g>
			<path class="clavier_focus_arrows" d="M122.478,82.354c13.001-0.886,26.047-1.091,39.068-0.558c2.497,0.102,4.991,0.262,7.484,0.445
				c0.918,0.067,1.654,0.113,2.551,0.113c0.324,0,0.647,0,0.971,0c0.982-0.149,1.075-0.032,0.279,0.35
				c0.495,5.783,0.87,11.576,1.199,17.371c1.414,24.907,1.799,49.967,0.533,74.889c-0.119,2.34-0.271,4.677-0.434,7.014
				c-0.243,3.486,0.26,4.32-3.41,4.524c-5.713,0.318-11.43,0.55-17.149,0.751c-12.756,0.447-25.521,0.643-38.284,0.707
				c-24.555,0.123-49.142-0.271-73.66-1.686c0,0.66,0,1.321,0,1.981c0.444,0,0.888,0,1.332,0c0.508,0,1.033-0.452,0.991-0.991
				c-2.078-26.291-1.769-52.834-1.624-79.187c0.046-8.33,0.131-16.659,0.263-24.988c0.009-0.551,0.018-1.102,0.028-1.654
				c-0.015,0.864,11.779-0.071,13.293-0.088c9.764-0.11,19.511,0.953,29.276,1.007c1.278,0.007,1.277-1.974,0-1.981
				c-14.578-0.08-29.02-1.922-43.559,0c-0.543,0.072-0.98,0.397-0.991,0.991c-0.245,13.537-0.329,27.079-0.333,40.618
				c-0.003,11.83,0.089,23.66,0.347,35.487c0.121,5.549,0.294,11.097,0.532,16.642c0.107,2.479,0.238,4.956,0.385,7.433
				c0.058,0.981,0.125,1.962,0.192,2.943c0.101,1.475,0.76,1.787-0.132,1.787c-1.286,0-1.266,1.908,0,1.981
				c44.2,2.551,88.869,2.64,133.067,0c0.576-0.034,0.941-0.427,0.991-0.991c3.079-35.048,2.011-70.882-0.986-105.9
				c-0.046-0.538-0.416-0.991-0.991-0.991c-7.326,0-14.65-0.72-21.985-0.825c-9.752-0.14-19.514,0.162-29.244,0.825
				C121.211,80.459,121.202,82.441,122.478,82.354L122.478,82.354z"/>
		</g>
	</g>
</g>
</svg>
