<?xml version="1.0" encoding="utf-8"?>
<!-- Generator: Adobe Illustrator 17.0.0, SVG Export Plug-In . SVG Version: 6.00 Build 0)  -->
<!DOCTYPE svg PUBLIC "-//W3C//DTD SVG 1.1//EN" "http://www.w3.org/Graphics/SVG/1.1/DTD/svg11.dtd" [
	<!ENTITY st0 "fill:#FDAE4C;">
	<!ENTITY st1 "fill:#FFF035;">
]>
<svg version="1.1" id="Calque_1" xmlns="http://www.w3.org/2000/svg" xmlns:xlink="http://www.w3.org/1999/xlink" x="0px" y="0px"
	 width="11.82px" height="19.88px" viewBox="0 0 11.82 19.88" style="enable-background:new 0 0 11.82 19.88;" xml:space="preserve"
	>
<g id="Calque_1_1_">
	<g>
		<path style="&st0;" d="M3.177,19.047c1.867-0.05,3.733-0.1,4.961-0.756l1.228-0.656c1.111-5.011-0.317-11.822-0.451-16.8
			c-2.472,0.69-4.338,0.74-6.827,0.806C2.138,3.508,3.077,15.314,3.177,19.047z"/>
		<g>
			<path d="M3.177,19.305c2.214-0.069,6.126,0.088,6.627-2.626c0.955-5.165-0.413-10.661-0.631-15.843
				c-0.007-0.17-0.159-0.29-0.327-0.249c-2.25,0.556-4.454,0.729-6.758,0.796C1.951,1.387,1.824,1.498,1.83,1.641
				C2.048,7.45,2.729,13.235,2.92,19.046c0.011,0.332,0.527,0.333,0.516,0c-0.188-5.72-0.793-11.419-1.08-17.134
				C2.365,2.101,7.13,1.5,7.793,1.379c1.422-0.261,1.31,5.143,1.401,6.078c0.226,2.328,0.363,4.647,0.307,6.986
				c-0.03,1.259,0.045,2.805-1.174,3.456c-1.59,0.849-3.396,0.836-5.149,0.89C2.845,18.799,2.844,19.315,3.177,19.305z"/>
		</g>
	</g>
	<g>
		<g>
			<path style="&st1;" d="M7.52,12.216c0.341,0,0.341-0.529,0-0.529C7.179,11.687,7.179,12.216,7.52,12.216L7.52,12.216z"/>
		</g>
	</g>
	<g>
		<g>
			<path style="&st1;" d="M6.054,4.443c0.341,0,0.341-0.529,0-0.529C5.713,3.914,5.713,4.443,6.054,4.443L6.054,4.443z"/>
		</g>
	</g>
	<g>
		<g>
			<path style="&st1;" d="M5.901,5.671c0.341,0,0.341-0.529,0-0.529S5.559,5.671,5.901,5.671L5.901,5.671z"/>
		</g>
	</g>
	<g>
		<g>
			<path style="&st1;" d="M5.483,6.94c0,0.051,0,0.102,0,0.153c0,0.341,0.529,0.341,0.529,0c0-0.051,0-0.102,0-0.153
				C6.012,6.598,5.483,6.598,5.483,6.94L5.483,6.94z"/>
		</g>
	</g>
	<g>
		<g>
			<path style="&st1;" d="M4.833,12.125c0.341,0,0.341-0.529,0-0.529C4.492,11.595,4.492,12.125,4.833,12.125L4.833,12.125z"/>
		</g>
	</g>
	<g>
		<g>
			<path style="&st1;" d="M7.22,10.358c0.341,0,0.341-0.529,0-0.529C6.878,9.828,6.878,10.358,7.22,10.358L7.22,10.358z"/>
		</g>
	</g>
	<g>
		<g>
			<path style="&st1;" d="M6.747,14.879c0.341,0,0.341-0.529,0-0.529C6.406,14.35,6.406,14.879,6.747,14.879L6.747,14.879z"/>
		</g>
	</g>
	<g>
		<g>
			<path style="&st1;" d="M5.6,14.947c0.341,0,0.341-0.529,0-0.529S5.259,14.947,5.6,14.947L5.6,14.947z"/>
		</g>
	</g>
</g>
<g id="Calque_6">
	<g id="jauge_x5F_point_x5F_5">
		<g>
			<path style="&st1;" d="M3.828,3.217c0.341,0,0.341-0.529,0-0.529S3.487,3.217,3.828,3.217L3.828,3.217z"/>
		</g>
	</g>
</g>
<g id="Calque_5">
	<g id="jauge_x5F_point_x5F_4_1_">
		<g>
			<path style="&st1;" d="M3.557,6.606c0.341,0,0.341-0.529,0-0.529S3.215,6.606,3.557,6.606L3.557,6.606z"/>
		</g>
	</g>
</g>
<g id="Calque_4">
	<g id="jauge_x5F_point_x5F_3">
		<g>
			<path style="&st1;" d="M5.096,9.223C5.144,9.167,5.192,9.11,5.24,9.053c0.219-0.259-0.154-0.636-0.374-0.374
				C4.818,8.736,4.77,8.792,4.722,8.849C4.503,9.108,4.876,9.484,5.096,9.223L5.096,9.223z"/>
		</g>
	</g>
</g>
<g id="Calque_3">
	<g id="jauge_x5F_point_x5F_2">
		<g>
			<path style="&st1;" d="M7.096,7.223C7.144,7.167,7.192,7.11,7.24,7.053c0.219-0.259-0.154-0.636-0.374-0.374
				C6.818,6.736,6.77,6.792,6.722,6.849C6.503,7.108,6.876,7.484,7.096,7.223L7.096,7.223z"/>
		</g>
	</g>
</g>
<g>
	<g id="point_x5F_1">
		<g>
			<path style="&st1;" d="M5.734,3.371c0.341,0,0.341-0.529,0-0.529S5.393,3.371,5.734,3.371L5.734,3.371z"/>
		</g>
	</g>
</g>
</svg>
