<?xml version="1.0" encoding="utf-8"?>
<!-- Generator: Adobe Illustrator 17.0.0, SVG Export Plug-In . SVG Version: 6.00 Build 0)  -->
<!DOCTYPE svg PUBLIC "-//W3C//DTD SVG 1.1//EN" "http://www.w3.org/Graphics/SVG/1.1/DTD/svg11.dtd" [
	<!ENTITY st0 "fill:#84FFF5;">
	<!ENTITY st1 "fill:#FFF035;">
	<!ENTITY st2 "fill:#715DDF;">
	<!ENTITY st3 "fill:#006837;">
]>
<svg version="1.1" xmlns="http://www.w3.org/2000/svg" xmlns:xlink="http://www.w3.org/1999/xlink" x="0px" y="0px" width="11.82px"
	 height="19.88px" viewBox="0 0 11.82 19.88" style="enable-background:new 0 0 11.82 19.88;" xml:space="preserve">
<g id="Calque_1">
	<g>
		<path style="&st0;" d="M3.177,19.047c1.867-0.05,3.733-0.1,4.961-0.756l1.228-0.656c1.111-5.011-0.317-11.822-0.451-16.8
			C6.443,1.525,4.577,1.575,2.088,1.641C2.138,3.508,3.077,15.314,3.177,19.047z"/>
		<g>
			<path d="M3.177,19.305c2.214-0.069,6.126,0.088,6.627-2.626c0.955-5.165-0.413-10.661-0.631-15.843
				c-0.007-0.17-0.159-0.29-0.327-0.249C6.596,1.143,4.392,1.316,2.088,1.383C1.951,1.387,1.824,1.498,1.83,1.641
				c0.218,5.809,0.899,11.594,1.09,17.405c0.011,0.332,0.527,0.333,0.516,0C3.248,13.326,2.643,7.627,2.356,1.912
				C2.365,2.101,7.13,1.5,7.793,1.379c1.422-0.261,1.31,5.143,1.401,6.078c0.226,2.328,0.363,4.647,0.307,6.986
				c-0.03,1.259,0.045,2.805-1.174,3.456c-1.59,0.849-3.396,0.836-5.149,0.89C2.845,18.799,2.844,19.315,3.177,19.305z"/>
		</g>
	</g>
	<g>
		<g>
			<g>
				<path style="&st1;" d="M18.833,0.523c0.341,0,0.341-0.529,0-0.529S18.492,0.523,18.833,0.523L18.833,0.523z"/>
			</g>
		</g>
		<g>
			<g>
				<path style="&st1;" d="M20.52,0.216c0.341,0,0.341-0.529,0-0.529S20.179,0.216,20.52,0.216L20.52,0.216z"/>
			</g>
		</g>
		<g>
			<g>
				<path style="&st1;" d="M22.054,1.443c0.341,0,0.341-0.529,0-0.529S21.713,1.443,22.054,1.443L22.054,1.443z"/>
			</g>
		</g>
		<g>
			<g>
				<path style="&st1;" d="M21.901,2.671c0.341,0,0.341-0.529,0-0.529C21.559,2.141,21.559,2.671,21.901,2.671L21.901,2.671z"/>
			</g>
		</g>
		<g>
			<g>
				<path style="&st1;" d="M21.483,3.94c0,0.051,0,0.102,0,0.153c0,0.341,0.529,0.341,0.529,0c0-0.051,0-0.102,0-0.153
					C22.012,3.598,21.483,3.598,21.483,3.94L21.483,3.94z"/>
			</g>
		</g>
		<g>
			<g>
				<path style="&st1;" d="M18.833,5.125c0.341,0,0.341-0.529,0-0.529S18.492,5.125,18.833,5.125L18.833,5.125z"/>
			</g>
		</g>
		<g>
			<g>
				<path style="&st1;" d="M18.22,4.358c0.341,0,0.341-0.529,0-0.529S17.878,4.358,18.22,4.358L18.22,4.358z"/>
			</g>
		</g>
		<g>
			<g>
				<path style="&st1;" d="M18.987,8.039c0.341,0,0.341-0.529,0-0.529C18.645,7.509,18.645,8.039,18.987,8.039L18.987,8.039z"/>
			</g>
		</g>
		<g>
			<g>
				<path style="&st1;" d="M20.214,7.579c0.341,0,0.341-0.529,0-0.529C19.872,7.049,19.872,7.579,20.214,7.579L20.214,7.579z"/>
			</g>
		</g>
		<g>
			<g>
				<path style="&st1;" d="M21.441,5.892c0.341,0,0.341-0.529,0-0.529S21.099,5.892,21.441,5.892L21.441,5.892z"/>
			</g>
		</g>
		<g>
			<g>
				<path style="&st1;" d="M21.747,9.879c0.341,0,0.341-0.529,0-0.529S21.406,9.879,21.747,9.879L21.747,9.879z"/>
			</g>
		</g>
		<g>
			<g>
				<path style="&st1;" d="M19.6,12.947c0.341,0,0.341-0.529,0-0.529S19.259,12.947,19.6,12.947L19.6,12.947z"/>
			</g>
		</g>
		<g>
			<g>
				<path style="&st1;" d="M20.674,11.567c0.051,0,0.102,0,0.153,0c0.341,0,0.341-0.529,0-0.529c-0.051,0-0.102,0-0.153,0
					C20.332,11.037,20.332,11.567,20.674,11.567L20.674,11.567z"/>
			</g>
		</g>
		<g>
			<g>
				<path style="&st1;" d="M17.955,8.541c0,0.051,0,0.102,0,0.153c0,0.341,0.529,0.341,0.529,0c0-0.051,0-0.102,0-0.153
					C18.484,8.2,17.955,8.2,17.955,8.541L17.955,8.541z"/>
			</g>
		</g>
	</g>
	<g>
		<g>
			<g>
				<path style="&st2;" d="M10.01-3.154C9.988-3.152,9.966-3.15,9.944-3.149c-0.489,0.041-0.493,0.809,0,0.767
					c0.061-0.005,0.121-0.01,0.182-0.015c0-0.256,0-0.512,0-0.767C9.983-3.152,9.84-3.14,9.697-3.128
					c-0.489,0.041-0.493,0.809,0,0.767c0.143-0.012,0.286-0.024,0.429-0.036c0.489-0.041,0.493-0.809,0-0.767
					c-0.061,0.005-0.121,0.01-0.182,0.015c0,0.256,0,0.512,0,0.767c0.022-0.002,0.044-0.004,0.066-0.006
					C10.499-2.428,10.503-3.196,10.01-3.154L10.01-3.154z"/>
			</g>
		</g>
		<g>
			<g>
				<path style="&st2;" d="M8.157-3.18C8.079-3.245,8.001-3.311,7.923-3.377C7.548-3.694,7.002-3.154,7.381-2.834
					C7.414-2.806,7.447-2.778,7.48-2.75c0.181-0.181,0.362-0.362,0.543-0.543c-0.012-0.01-0.024-0.02-0.035-0.03
					C7.611-3.64,7.065-3.1,7.444-2.78C7.456-2.77,7.468-2.76,7.48-2.75c0.376,0.317,0.921-0.223,0.543-0.543
					C7.989-3.321,7.956-3.349,7.923-3.377C7.743-3.196,7.562-3.015,7.381-2.834c0.078,0.066,0.156,0.131,0.233,0.197
					C7.99-2.32,8.535-2.86,8.157-3.18L8.157-3.18z"/>
			</g>
		</g>
		<g>
			<g>
				<path style="&st2;" d="M11.622-3.514c0.495,0,0.495-0.767,0-0.767C11.127-4.281,11.127-3.514,11.622-3.514L11.622-3.514z"/>
			</g>
		</g>
		<g>
			<g>
				<path style="&st2;" d="M10.738-4.973c0.495,0,0.495-0.767,0-0.767C10.243-5.74,10.243-4.973,10.738-4.973L10.738-4.973z"/>
			</g>
		</g>
	</g>
	<g>
		<g>
			<path style="&st3;" d="M-13.222,3.927c1.006-0.059,1.995-0.158,2.975-0.403c0.48-0.12,0.276-0.86-0.204-0.74
				c-0.914,0.229-1.832,0.321-2.771,0.376C-13.714,3.188-13.717,3.956-13.222,3.927L-13.222,3.927z"/>
		</g>
	</g>
	<g>
		<g>
			<path style="&st3;" d="M-12.922,7.008c0.883,0.212,1.782,0.112,2.646-0.142c0.474-0.139,0.272-0.88-0.204-0.74
				c-0.731,0.215-1.488,0.322-2.238,0.142C-13.199,6.152-13.403,6.892-12.922,7.008L-12.922,7.008z"/>
		</g>
	</g>
	<g>
		<g>
			<path style="&st3;" d="M-12.655,10.312c0.291-0.149,0.58-0.214,0.903-0.234c0.491-0.031,0.494-0.798,0-0.767
				c-0.461,0.029-0.878,0.127-1.291,0.339C-13.483,9.875-13.095,10.537-12.655,10.312L-12.655,10.312z"/>
		</g>
	</g>
	<g>
		<g>
			<path style="&st3;" d="M-9.449,3.708c0.495,0,0.495-0.767,0-0.767S-9.944,3.708-9.449,3.708L-9.449,3.708z"/>
		</g>
	</g>
	<g>
		<g>
			<path style="&st3;" d="M-9.252,6.926c0.495,0,0.495-0.767,0-0.767C-9.747,6.159-9.747,6.926-9.252,6.926L-9.252,6.926z"/>
		</g>
	</g>
	<g>
		<g>
			<path style="&st3;" d="M-12.557,13.439c1.631-0.009,3.261-0.018,4.892-0.027c0.495-0.003,0.495-0.77,0-0.767
				c-1.631,0.009-3.261,0.018-4.892,0.027C-13.052,12.674-13.053,13.441-12.557,13.439L-12.557,13.439z"/>
		</g>
	</g>
	<g>
		<g>
			<path style="&st3;" d="M-14.32,23.105c1.076-0.006,2.161-0.007,3.214-0.253c0.482-0.113,0.277-0.853-0.204-0.74
				c-0.985,0.231-2.003,0.22-3.01,0.226C-14.815,22.341-14.815,23.108-14.32,23.105L-14.32,23.105z"/>
		</g>
	</g>
	<g>
		<g>
			<path style="&st3;" d="M-10.097,22.86c0.495,0,0.495-0.767,0-0.767C-10.592,22.092-10.592,22.86-10.097,22.86L-10.097,22.86z"/>
		</g>
	</g>
</g>
<g id="Calque_6">
	<g id="jauge_x5F_point_x5F_5">
		<g>
			<path style="&st2;" d="M3.828,3.336c0.495,0,0.495-0.767,0-0.767S3.333,3.336,3.828,3.336L3.828,3.336z"/>
		</g>
	</g>
</g>
<g id="Calque_5">
	<g id="jauge_x5F_point_x5F_4_1_">
		<g>
			<path style="&st2;" d="M3.557,6.725c0.495,0,0.495-0.767,0-0.767S3.062,6.725,3.557,6.725L3.557,6.725z"/>
		</g>
	</g>
</g>
<g id="Calque_4">
	<g id="jauge_x5F_point_x5F_3">
		<g>
			<path style="&st2;" d="M5.18,9.307c0.048-0.057,0.096-0.113,0.143-0.17c0.317-0.376-0.223-0.921-0.543-0.543
				c-0.048,0.057-0.096,0.113-0.143,0.17C4.321,9.14,4.861,9.686,5.18,9.307L5.18,9.307z"/>
		</g>
	</g>
</g>
<g id="Calque_3">
	<g id="jauge_x5F_point_x5F_2">
		<g>
			<path style="&st2;" d="M7.18,7.307c0.048-0.057,0.096-0.113,0.143-0.17c0.317-0.376-0.223-0.921-0.543-0.543
				c-0.048,0.057-0.096,0.113-0.143,0.17C6.321,7.14,6.861,7.686,7.18,7.307L7.18,7.307z"/>
		</g>
	</g>
</g>
<g>
	<g id="point_x5F_1">
		<g>
			<path style="&st2;" d="M5.734,3.49c0.495,0,0.495-0.767,0-0.767S5.239,3.49,5.734,3.49L5.734,3.49z"/>
		</g>
	</g>
</g>
</svg>
