<?xml version="1.0" encoding="utf-8"?>
<!-- Generator: Adobe Illustrator 17.0.0, SVG Export Plug-In . SVG Version: 6.00 Build 0)  -->
<!DOCTYPE svg PUBLIC "-//W3C//DTD SVG 1.1//EN" "http://www.w3.org/Graphics/SVG/1.1/DTD/svg11.dtd" [
	<!ENTITY st0 "fill:#FFFFFF;">
]>
<svg version="1.1" id="Calque_1" xmlns="http://www.w3.org/2000/svg" xmlns:xlink="http://www.w3.org/1999/xlink" x="0px" y="0px"
	 width="11.82px" height="19.88px" viewBox="0 0 11.82 19.88" style="enable-background:new 0 0 11.82 19.88;" xml:space="preserve"
	>
<g>
	<path style="&st0;" d="M3.177,19.047c1.867-0.05,3.733-0.1,4.961-0.756l1.228-0.656c1.111-5.011-0.317-11.822-0.451-16.8
		C6.443,1.525,4.577,1.575,2.088,1.641C2.138,3.508,3.077,15.314,3.177,19.047z"/>
	<g>
		<path d="M3.177,19.305c2.214-0.069,6.126,0.088,6.627-2.626c0.955-5.165-0.413-10.661-0.631-15.843
			c-0.007-0.17-0.159-0.29-0.327-0.249C6.596,1.143,4.392,1.316,2.088,1.383C1.951,1.387,1.824,1.498,1.83,1.641
			c0.218,5.809,0.899,11.594,1.09,17.405c0.011,0.332,0.527,0.333,0.516,0C3.248,13.326,2.643,7.627,2.356,1.912
			C2.365,2.101,7.13,1.5,7.793,1.379c1.422-0.261,1.31,5.143,1.401,6.078c0.226,2.328,0.363,4.647,0.307,6.986
			c-0.03,1.259,0.045,2.805-1.174,3.456c-1.59,0.849-3.396,0.836-5.149,0.89C2.845,18.799,2.844,19.315,3.177,19.305z"/>
	</g>
</g>
</svg>
