<?xml version="1.0" encoding="utf-8"?>
<!-- Generator: Adobe Illustrator 17.0.0, SVG Export Plug-In . SVG Version: 6.00 Build 0)  -->
<!DOCTYPE svg PUBLIC "-//W3C//DTD SVG 1.1//EN" "http://www.w3.org/Graphics/SVG/1.1/DTD/svg11.dtd" [
	<!ENTITY st0 "fill:#42FD84;">
	<!ENTITY st1 "fill:#006837;">
]>
<svg version="1.1" xmlns="http://www.w3.org/2000/svg" xmlns:xlink="http://www.w3.org/1999/xlink" x="0px" y="0px" width="11.82px"
	 height="19.88px" viewBox="0 0 11.82 19.88" style="enable-background:new 0 0 11.82 19.88;" xml:space="preserve">
<g id="Calque_1">
	<g>
		<path style="&st0;" d="M3.177,19.047c1.867-0.05,3.733-0.1,4.961-0.756l1.228-0.656c1.111-5.011-0.317-11.822-0.451-16.8
			C6.443,1.525,4.577,1.575,2.088,1.641C2.138,3.508,3.077,15.314,3.177,19.047z"/>
		<g>
			<path d="M3.177,19.305c2.214-0.069,6.126,0.088,6.627-2.626c0.955-5.165-0.413-10.661-0.631-15.843
				c-0.007-0.17-0.159-0.29-0.327-0.249C6.596,1.143,4.392,1.316,2.088,1.383C1.951,1.387,1.824,1.498,1.83,1.641
				c0.218,5.809,0.899,11.594,1.09,17.405c0.011,0.332,0.527,0.333,0.516,0C3.248,13.326,2.643,7.627,2.356,1.912
				C2.365,2.101,7.13,1.5,7.793,1.379c1.422-0.261,1.31,5.143,1.401,6.078c0.226,2.328,0.363,4.647,0.307,6.986
				c-0.03,1.259,0.045,2.805-1.174,3.456c-1.59,0.849-3.396,0.836-5.149,0.89C2.845,18.799,2.844,19.315,3.177,19.305z"/>
		</g>
	</g>
	<g>
		<g>
			<path style="&st1;" d="M-14.32,23.105c1.076-0.006,2.161-0.007,3.214-0.253c0.482-0.113,0.277-0.853-0.204-0.74
				c-0.985,0.231-2.003,0.22-3.01,0.226C-14.815,22.341-14.815,23.108-14.32,23.105L-14.32,23.105z"/>
		</g>
	</g>
	<g>
		<g>
			<path style="&st1;" d="M-10.097,22.86c0.495,0,0.495-0.767,0-0.767C-10.592,22.092-10.592,22.86-10.097,22.86L-10.097,22.86z"/>
		</g>
	</g>
</g>
<g id="Calque_5">
	<g>
		<g>
			<path style="&st1;" d="M3.443,13.439c1.631-0.009,3.261-0.018,4.892-0.027c0.495-0.003,0.495-0.77,0-0.767
				c-1.631,0.009-3.261,0.018-4.892,0.027C2.948,12.674,2.947,13.441,3.443,13.439L3.443,13.439z"/>
		</g>
	</g>
</g>
<g id="Calque_4">
	<g>
		<g>
			<path style="&st1;" d="M3.345,10.312c0.291-0.149,0.58-0.214,0.903-0.234c0.491-0.031,0.494-0.798,0-0.767
				C3.787,9.339,3.371,9.437,2.958,9.649C2.517,9.875,2.905,10.537,3.345,10.312L3.345,10.312z"/>
		</g>
	</g>
</g>
<g id="Calque_3">
	<g>
		<g>
			<path style="&st1;" d="M3.078,7.008C3.961,7.22,4.86,7.12,5.724,6.866c0.474-0.139,0.272-0.88-0.204-0.74
				C4.789,6.341,4.032,6.448,3.282,6.268C2.801,6.152,2.597,6.892,3.078,7.008L3.078,7.008z"/>
		</g>
	</g>
	<g>
		<g>
			<path style="&st1;" d="M6.748,6.926c0.495,0,0.495-0.767,0-0.767S6.253,6.926,6.748,6.926L6.748,6.926z"/>
		</g>
	</g>
</g>
<g>
	<g>
		<g>
			<path style="&st1;" d="M2.778,3.927c1.006-0.059,1.995-0.158,2.975-0.403c0.48-0.12,0.276-0.86-0.204-0.74
				C4.634,3.012,3.716,3.105,2.778,3.159C2.286,3.188,2.283,3.956,2.778,3.927L2.778,3.927z"/>
		</g>
	</g>
	<g>
		<g>
			<path style="&st1;" d="M6.551,3.708c0.495,0,0.495-0.767,0-0.767S6.056,3.708,6.551,3.708L6.551,3.708z"/>
		</g>
	</g>
</g>
</svg>
