<?xml version="1.0" encoding="utf-8"?>
<!-- Generator: Adobe Illustrator 17.0.0, SVG Export Plug-In . SVG Version: 6.00 Build 0)  -->
<!DOCTYPE svg PUBLIC "-//W3C//DTD SVG 1.1//EN" "http://www.w3.org/Graphics/SVG/1.1/DTD/svg11.dtd">
<svg version="1.1" id="Calque_1" xmlns="http://www.w3.org/2000/svg" xmlns:xlink="http://www.w3.org/1999/xlink" x="0px" y="0px"
	 width="17.71px" height="17.71px" viewBox="0 0 17.71 17.71" enable-background="new 0 0 17.71 17.71" xml:space="preserve">
<g>
	<circle fill="none" cx="8.939" cy="8.856" r="8.856"/>
	<g>
		<path fill="#F7F7F7" d="M11.647,11.797c-0.071-3.396,0-6.793-0.136-10.629l-4.98,0.066c0.036,2.168-0.044,3.011,0,4.864
			c-1.455,0-5.528-0.086-5.528-0.086s-0.037,4.091,0.017,5.83L11.647,11.797z"/>
		<g>
			<path fill="#3D3D3D" d="M12.094,11.797C12.03,8.254,12.071,4.71,11.958,1.168c-0.008-0.241-0.197-0.45-0.447-0.447
				c-1.66,0.022-3.32,0.044-4.98,0.066C6.29,0.79,6.082,0.988,6.085,1.234c0.019,1.621-0.028,3.242,0,4.864
				C6.234,5.949,6.383,5.8,6.532,5.651C4.689,5.644,2.846,5.603,1.003,5.564C0.758,5.559,0.559,5.772,0.557,6.011
				c-0.017,1.943-0.032,3.887,0.017,5.83c0.006,0.243,0.199,0.448,0.447,0.447c3.542-0.015,7.084-0.029,10.627-0.044
				c0.576-0.002,0.576-0.896,0-0.893c-3.542,0.015-7.084,0.029-10.627,0.044c0.149,0.149,0.298,0.298,0.447,0.447
				C1.418,9.898,1.434,7.954,1.45,6.011C1.301,6.16,1.152,6.309,1.003,6.458c1.842,0.039,3.685,0.08,5.528,0.086
				c0.24,0.001,0.451-0.204,0.447-0.447c-0.028-1.621,0.019-3.242,0-4.864C6.829,1.382,6.68,1.531,6.531,1.68
				c1.66-0.022,3.32-0.044,4.98-0.066c-0.149-0.149-0.298-0.298-0.447-0.447c0.113,3.542,0.072,7.086,0.136,10.629
				C11.211,12.372,12.104,12.373,12.094,11.797z"/>
		</g>
	</g>
</g>
</svg>
