<?xml version="1.0" encoding="utf-8"?>
<!-- Generator: Adobe Illustrator 17.0.0, SVG Export Plug-In . SVG Version: 6.00 Build 0)  -->
<!DOCTYPE svg PUBLIC "-//W3C//DTD SVG 1.1//EN" "http://www.w3.org/Graphics/SVG/1.1/DTD/svg11.dtd" [
	<!ENTITY st0 "fill:#3D3D3D;">
]>
<svg version="1.1" id="Calque_1" xmlns="http://www.w3.org/2000/svg" xmlns:xlink="http://www.w3.org/1999/xlink" x="0px" y="0px"
	 width="122.68px" height="23.77px" viewBox="0 0 122.68 23.77" style="enable-background:new 0 0 122.68 23.77;"
	 xml:space="preserve">
<g>
	<g>
		<g>
			<g>
				<path style="&st0;" d="M9.534,10.45c3.207-0.49,6.414-0.88,9.66-0.946c0.788-0.016,0.79-1.24,0-1.224
					c-3.355,0.068-6.672,0.483-9.986,0.99C8.43,9.389,8.762,10.568,9.534,10.45L9.534,10.45z"/>
			</g>
		</g>
		<g>
			<g>
				<path style="&st0;" d="M17.816,9.021c-1.621,2.534-2.993,5.215-4.614,7.749c-0.427,0.667,0.633,1.28,1.057,0.618
					c1.621-2.534,2.993-5.215,4.614-7.749C19.3,8.972,18.24,8.358,17.816,9.021L17.816,9.021z"/>
			</g>
		</g>
		<g>
			<g>
				<path style="&st0;" d="M8.088,10.73c2.446,1.961,4.464,4.391,6.491,6.767c0.513,0.601,1.375-0.269,0.866-0.866
					c-2.027-2.376-4.045-4.806-6.491-6.767C8.344,9.376,7.472,10.237,8.088,10.73L8.088,10.73z"/>
			</g>
		</g>
		<g>
			<g>
				<path style="&st0;" d="M7.194,7.077c3.711-0.043,7.424-0.087,11.111-0.555c0.772-0.098,0.782-1.323,0-1.224
					c-3.687,0.468-7.4,0.512-11.111,0.555C6.406,5.862,6.405,7.086,7.194,7.077L7.194,7.077z"/>
			</g>
		</g>
	</g>
	<g>
		<g>
			<g>
				<path style="&st0;" d="M93.977,11.852c-3.287,0.264-6.57,0.433-9.867,0.263c-0.789-0.041-0.785,1.184,0,1.224
					c3.297,0.169,6.58,0.001,9.867-0.263C94.758,13.014,94.764,11.789,93.977,11.852L93.977,11.852z"/>
			</g>
		</g>
		<g>
			<g>
				<path style="&st0;" d="M85.517,12.661c1.799-2.411,3.357-4.989,5.157-7.4c0.473-0.633-0.591-1.243-1.057-0.618
					c-1.799,2.411-3.357,4.989-5.157,7.4C83.988,12.677,85.051,13.286,85.517,12.661L85.517,12.661z"/>
			</g>
		</g>
		<g>
			<g>
				<path style="&st0;" d="M95.289,11.656c-2.262-2.098-4.073-4.615-5.895-7.09c-0.463-0.628-1.526-0.019-1.057,0.618
					c1.882,2.555,3.751,5.17,6.087,7.337C95.001,13.058,95.869,12.194,95.289,11.656L95.289,11.656z"/>
			</g>
		</g>
		<g>
			<g>
				<path style="&st0;" d="M95.905,15.395c-3.705-0.222-7.411-0.441-11.122-0.241c-0.785,0.042-0.789,1.267,0,1.224
					c3.711-0.201,7.417,0.019,11.122,0.241C96.694,16.666,96.69,15.442,95.905,15.395L95.905,15.395z"/>
			</g>
		</g>
	</g>
	<g>
		<g>
			<g>
				<path style="&st0;" d="M30.576,5.002c-1.031,1.779-1.959,3.607-2.857,5.455c-0.335,0.69,0.695,1.295,1.031,0.603
					c0.898-1.849,1.826-3.677,2.857-5.455C31.994,4.938,30.962,4.337,30.576,5.002L30.576,5.002z"/>
			</g>
		</g>
		<g>
			<g>
				<path style="&st0;" d="M28.234,11.356c2.846-0.033,5.675-0.126,8.495-0.534c0.76-0.11,0.435-1.26-0.317-1.152
					c-2.712,0.392-5.442,0.459-8.178,0.491C27.465,10.171,27.464,11.365,28.234,11.356L28.234,11.356z"/>
			</g>
		</g>
		<g>
			<g>
				<path style="&st0;" d="M30.435,7.145c0.394-1.159,1.052-2.211,1.894-3.097c0.53-0.558-0.313-1.404-0.844-0.844
					c-0.986,1.039-1.74,2.267-2.201,3.624C29.035,7.559,30.189,7.87,30.435,7.145L30.435,7.145z"/>
			</g>
		</g>
		<g>
			<g>
				<path style="&st0;" d="M31.803,3.506c1.411,2.22,3.295,4.073,5.165,5.902c0.551,0.538,1.396-0.305,0.844-0.844
					c-1.797-1.757-3.623-3.528-4.978-5.661C32.423,2.255,31.389,2.854,31.803,3.506L31.803,3.506z"/>
			</g>
		</g>
		<g>
			<g>
				<path style="&st0;" d="M28.254,13.025c3.209-0.037,6.402-0.116,9.588-0.527c0.753-0.097,0.762-1.292,0-1.194
					c-3.186,0.411-6.379,0.49-9.588,0.527C27.484,11.839,27.483,13.034,28.254,13.025L28.254,13.025z"/>
			</g>
		</g>
		<g>
			<g>
				<path style="&st0;" d="M37.137,12.641c-1.971,1.254-3.384,2.991-4.749,4.855c-0.456,0.622,0.581,1.217,1.031,0.603
					c1.242-1.695,2.527-3.285,4.321-4.426C38.387,13.26,37.789,12.226,37.137,12.641L37.137,12.641z"/>
			</g>
		</g>
		<g>
			<g>
				<path style="&st0;" d="M27.419,13.271c2.353,1.865,4.515,4.015,6.239,6.48c0.438,0.626,1.474,0.03,1.031-0.603
					c-1.785-2.552-3.988-4.79-6.426-6.722C27.667,11.954,26.816,12.793,27.419,13.271L27.419,13.271z"/>
			</g>
		</g>
	</g>
	<g>
		<g>
			<g>
				<path style="&st0;" d="M115.159,8.079c-1.779-1.031-3.607-1.959-5.455-2.857c-0.69-0.335-1.295,0.695-0.603,1.031
					c1.849,0.898,3.677,1.826,5.455,2.857C115.224,9.497,115.825,8.465,115.159,8.079L115.159,8.079z"/>
			</g>
		</g>
		<g>
			<g>
				<path style="&st0;" d="M108.805,5.737c0.033,2.846,0.126,5.675,0.534,8.495c0.11,0.76,1.26,0.435,1.152-0.317
					c-0.392-2.712-0.459-5.442-0.491-8.178C109.99,4.968,108.796,4.967,108.805,5.737L108.805,5.737z"/>
			</g>
		</g>
		<g>
			<g>
				<path style="&st0;" d="M113.016,7.938c1.159,0.394,2.211,1.052,3.097,1.894c0.558,0.53,1.404-0.313,0.844-0.844
					c-1.039-0.986-2.267-1.74-3.624-2.201C112.603,6.538,112.291,7.692,113.016,7.938L113.016,7.938z"/>
			</g>
		</g>
		<g>
			<g>
				<path style="&st0;" d="M116.656,9.306c-2.22,1.411-4.073,3.295-5.902,5.165c-0.538,0.551,0.305,1.396,0.844,0.844
					c1.757-1.797,3.528-3.623,5.661-4.978C117.906,9.926,117.308,8.892,116.656,9.306L116.656,9.306z"/>
			</g>
		</g>
		<g>
			<g>
				<path style="&st0;" d="M107.137,5.756c0.037,3.209,0.116,6.402,0.527,9.588c0.097,0.753,1.292,0.762,1.194,0
					c-0.411-3.186-0.49-6.379-0.527-9.588C108.322,4.987,107.128,4.986,107.137,5.756L107.137,5.756z"/>
			</g>
		</g>
		<g>
			<g>
				<path style="&st0;" d="M107.521,14.64c-1.254-1.971-2.991-3.384-4.855-4.749c-0.622-0.456-1.217,0.581-0.603,1.031
					c1.695,1.242,3.285,2.527,4.426,4.321C106.901,15.89,107.935,15.292,107.521,14.64L107.521,14.64z"/>
			</g>
		</g>
		<g>
			<g>
				<path style="&st0;" d="M106.89,4.922c-1.865,2.353-4.015,4.515-6.48,6.239c-0.626,0.438-0.03,1.474,0.603,1.031
					c2.552-1.785,4.79-3.988,6.722-6.426C108.207,5.17,107.368,4.319,106.89,4.922L106.89,4.922z"/>
			</g>
		</g>
	</g>
	<g>
		<g>
			<g>
				<path style="&st0;" d="M52.916,5.61c0.075,3.245,0.568,6.455,1.131,9.647c0.16,0.905,1.535,0.52,1.376-0.379
					c-0.541-3.068-1.008-6.147-1.08-9.267C54.322,4.692,52.895,4.69,52.916,5.61L52.916,5.61z"/>
			</g>
		</g>
		<g>
			<g>
				<path style="&st0;" d="M51.786,6.008c-2.1,1.619-4.197,3.278-6.067,5.163c-0.649,0.654,0.36,1.663,1.009,1.009
					c1.784-1.798,3.775-3.396,5.778-4.94C53.223,6.687,52.514,5.446,51.786,6.008L51.786,6.008z"/>
			</g>
		</g>
		<g>
			<g>
				<path style="&st0;" d="M44.379,13.306c2.768,1.596,5.652,2.955,8.688,3.961c0.876,0.29,1.248-1.088,0.379-1.376
					c-2.921-0.968-5.684-2.282-8.347-3.818C44.301,11.613,43.583,12.846,44.379,13.306L44.379,13.306z"/>
			</g>
		</g>
		<g>
			<g>
				<path style="&st0;" d="M55.917,6.573c0.036,3.156,0.072,6.312,0.109,9.468c0.011,0.92,1.437,0.921,1.427,0
					c-0.036-3.156-0.072-6.312-0.109-9.468C57.334,5.653,55.907,5.652,55.917,6.573L55.917,6.573z"/>
			</g>
		</g>
	</g>
	<g>
		<g>
			<g>
				<path style="&st0;" d="M70.107,16.371c-0.075-3.245-0.568-6.455-1.131-9.647c-0.16-0.905-1.535-0.52-1.376,0.379
					c0.541,3.068,1.008,6.147,1.08,9.267C68.701,17.29,70.128,17.292,70.107,16.371L70.107,16.371z"/>
			</g>
		</g>
		<g>
			<g>
				<path style="&st0;" d="M71.237,15.973c2.1-1.619,4.197-3.278,6.067-5.163c0.649-0.654-0.36-1.663-1.009-1.009
					c-1.784,1.798-3.775,3.396-5.778,4.94C69.8,15.295,70.509,16.535,71.237,15.973L71.237,15.973z"/>
			</g>
		</g>
		<g>
			<g>
				<path style="&st0;" d="M78.644,8.676c-2.768-1.596-5.652-2.955-8.688-3.961c-0.876-0.29-1.248,1.088-0.379,1.376
					c2.921,0.968,5.684,2.282,8.347,3.818C78.722,10.368,79.44,9.135,78.644,8.676L78.644,8.676z"/>
			</g>
		</g>
		<g>
			<g>
				<path style="&st0;" d="M67.106,15.409c-0.036-3.156-0.072-6.312-0.109-9.468c-0.011-0.92-1.437-0.921-1.427,0
					c0.036,3.156,0.072,6.312,0.109,9.468C65.689,16.328,67.116,16.329,67.106,15.409L67.106,15.409z"/>
			</g>
		</g>
	</g>
</g>
</svg>
