<?xml version="1.0" encoding="UTF-8" standalone="no"?>
<!DOCTYPE svg PUBLIC "-//W3C//DTD SVG 1.1//EN" "http://www.w3.org/Graphics/SVG/1.1/DTD/svg11.dtd">
<svg width="100%" height="100%" viewBox="0 0 143 151" version="1.1" xmlns="http://www.w3.org/2000/svg" xmlns:xlink="http://www.w3.org/1999/xlink" xml:space="preserve" xmlns:serif="http://www.serif.com/" style="fill-rule:evenodd;clip-rule:evenodd;stroke-linecap:round;stroke-linejoin:round;stroke-miterlimit:2;">
  <g>

    <path
      id="sparkle1" class="sparkle"
      d="M5.95 0.22L6.72 3.04L8.26 1.94L8.07 3.82L10.9 3.09L8.85 5.17L10.57 5.95L8.85 6.72L10.9 8.81L8.07 8.07L8.26 9.95L6.72 8.85L5.95 11.67L5.17 8.85L3.63 9.95L3.82 8.07L0.99 8.81L3.04 6.72L1.32 5.95L3.04 5.17L0.99 3.09L3.82 3.82L3.63 1.94L5.17 3.04L5.95 0.22z"
      style="fill:rgb(125,101,251);stroke:rgb(100,241,251);stroke-width:0.3px;stroke-miterlimit:1.5;"
      transform="translate(0 -6)">
      <animateMotion
          xlink:href="#sparkle1"
          dur="800ms"
          repeatCount="indefinite"
          rotate="auto"
          fill="freeze">
        <mpath xlink:href="#fil1" />
      </animateMotion>
    </path>
  </g>
  <g>
    <path
      id="sparkle2" class="sparkle"
      d="M5.95 0.22L6.72 3.04L8.26 1.94L8.07 3.82L10.9 3.09L8.85 5.17L10.57 5.95L8.85 6.72L10.9 8.81L8.07 8.07L8.26 9.95L6.72 8.85L5.95 11.67L5.17 8.85L3.63 9.95L3.82 8.07L0.99 8.81L3.04 6.72L1.32 5.95L3.04 5.17L0.99 3.09L3.82 3.82L3.63 1.94L5.17 3.04L5.95 0.22z"
      style="fill:rgb(125,101,251);stroke:rgb(100,241,251);stroke-width:0.3px;stroke-miterlimit:1.5;"
      transform="translate(0 -6)">
      <animateMotion
          xlink:href="#sparkle2"
          dur="900ms"
          repeatCount="indefinite"
          rotate="auto"
          fill="freeze">
        <mpath xlink:href="#fil2" />
      </animateMotion>
    </path>
  </g>
  <g>
    <path
      id="sparkle3" class="sparkle"
      d="M5.95 0.22L6.72 3.04L8.26 1.94L8.07 3.82L10.9 3.09L8.85 5.17L10.57 5.95L8.85 6.72L10.9 8.81L8.07 8.07L8.26 9.95L6.72 8.85L5.95 11.67L5.17 8.85L3.63 9.95L3.82 8.07L0.99 8.81L3.04 6.72L1.32 5.95L3.04 5.17L0.99 3.09L3.82 3.82L3.63 1.94L5.17 3.04L5.95 0.22z"
      style="fill:rgb(125,101,251);stroke:rgb(100,241,251);stroke-width:0.3px;stroke-miterlimit:1.5;"
      transform="translate(0 -6)">
      <animateMotion
          xlink:href="#sparkle3"
          dur="700ms"
          repeatCount="indefinite"
          rotate="auto"
          fill="freeze">
        <mpath xlink:href="#fil3" />
      </animateMotion>
    </path>
  </g>

  <g>
    <path id="fil1" d="M138.113,4.438C132.522,6.341 127.631,10.155 125.685,15.128C121.918,24.756 119.545,34.953 117.117,44.98C111.623,67.67 125.648,81.348 115.765,102.66" style="fill:none;fill-rule:nonzero;stroke:rgb(125,101,251);stroke-width:2px;"/>
  </g>
  <g>
    <path id="fil2" d="M134.094,19.473C115.548,33.007 128.267,78.747 127.863,86.513C127.363,96.159 126.386,98.582 122.597,109.036" style="fill:none;fill-rule:nonzero;stroke:rgb(125,101,251);stroke-width:2px;"/>
  </g>
  <g>
    <path id="fil3" d="M135.857,37.704C129.646,40.711 132.431,59.822 134.996,79.016C137.55,98.13 138.107,98.551 131.42,116.476" style="fill:none;fill-rule:nonzero;stroke:rgb(125,101,251);stroke-width:2px;"/>
  </g>
</svg>
