<?xml version="1.0" encoding="UTF-8" standalone="no"?>
<!DOCTYPE svg PUBLIC "-//W3C//DTD SVG 1.1//EN" "http://www.w3.org/Graphics/SVG/1.1/DTD/svg11.dtd">
<svg width="100%" height="100%" viewBox="0 0 143 151" version="1.1" xmlns="http://www.w3.org/2000/svg" xmlns:xlink="http://www.w3.org/1999/xlink" xml:space="preserve" xmlns:serif="http://www.serif.com/" style="fill-rule:evenodd;clip-rule:evenodd;stroke-linecap:round;stroke-linejoin:round;stroke-miterlimit:2;">
  <g>
    <path
      id="sparkle1"
      d="M52.396,38.479L53.366,42.407L55.355,40.272L55.24,42.698L59.462,39.578L56.919,43.262L60.481,41.99L58.291,44.058L64.635,42.581L59.26,45.033L63.44,44.966L59.762,46.121L66.529,46.684L59.762,47.247L63.44,48.402L59.26,48.335L64.635,50.786L58.291,49.31L60.481,51.378L56.919,50.106L59.462,53.79L55.24,50.669L55.355,53.096L53.366,50.961L52.396,54.889L51.426,50.961L49.437,53.096L49.553,50.669L45.33,53.79L47.873,50.106L44.312,51.378L46.502,49.31L40.157,50.786L45.532,48.335L41.353,48.402L45.03,47.247L38.264,46.684L45.03,46.121L41.353,44.966L45.532,45.033L40.157,42.581L46.502,44.058L44.312,41.99L47.873,43.262L45.33,39.578L49.553,42.698L49.437,40.272L51.426,42.407L52.396,38.479Z"
      style="fill:rgb(125,101,251);stroke:rgb(100,241,251);stroke-width:0.3px;stroke-miterlimit:1.5;"
      transform="translate(-52.396 -45.479)">
      <animateMotion
          xlink:href="#sparkle1"
          dur="800ms"
          repeatCount="indefinite"
          rotate="auto"
          fill="freeze">
        <mpath xlink:href="#fil1" />
      </animateMotion>
    </path>
  </g>
  <g>
    <path
      id="sparkle2"
      d="M52.396,38.479L53.366,42.407L55.355,40.272L55.24,42.698L59.462,39.578L56.919,43.262L60.481,41.99L58.291,44.058L64.635,42.581L59.26,45.033L63.44,44.966L59.762,46.121L66.529,46.684L59.762,47.247L63.44,48.402L59.26,48.335L64.635,50.786L58.291,49.31L60.481,51.378L56.919,50.106L59.462,53.79L55.24,50.669L55.355,53.096L53.366,50.961L52.396,54.889L51.426,50.961L49.437,53.096L49.553,50.669L45.33,53.79L47.873,50.106L44.312,51.378L46.502,49.31L40.157,50.786L45.532,48.335L41.353,48.402L45.03,47.247L38.264,46.684L45.03,46.121L41.353,44.966L45.532,45.033L40.157,42.581L46.502,44.058L44.312,41.99L47.873,43.262L45.33,39.578L49.553,42.698L49.437,40.272L51.426,42.407L52.396,38.479Z"
      style="fill:rgb(125,101,251);stroke:rgb(100,241,251);stroke-width:0.3px;stroke-miterlimit:1.5;"
      transform="translate(-52.396 -45.479)">
      <animateMotion
          xlink:href="#sparkle2"
          dur="800ms"
          repeatCount="indefinite"
          rotate="auto"
          fill="freeze">
        <mpath xlink:href="#fil2" />
      </animateMotion>
    </path>
  </g>
  <g>
    <path
      id="sparkle3"
      d="M52.396,38.479L53.366,42.407L55.355,40.272L55.24,42.698L59.462,39.578L56.919,43.262L60.481,41.99L58.291,44.058L64.635,42.581L59.26,45.033L63.44,44.966L59.762,46.121L66.529,46.684L59.762,47.247L63.44,48.402L59.26,48.335L64.635,50.786L58.291,49.31L60.481,51.378L56.919,50.106L59.462,53.79L55.24,50.669L55.355,53.096L53.366,50.961L52.396,54.889L51.426,50.961L49.437,53.096L49.553,50.669L45.33,53.79L47.873,50.106L44.312,51.378L46.502,49.31L40.157,50.786L45.532,48.335L41.353,48.402L45.03,47.247L38.264,46.684L45.03,46.121L41.353,44.966L45.532,45.033L40.157,42.581L46.502,44.058L44.312,41.99L47.873,43.262L45.33,39.578L49.553,42.698L49.437,40.272L51.426,42.407L52.396,38.479Z"
      style="fill:rgb(125,101,251);stroke:rgb(100,241,251);stroke-width:0.3px;stroke-miterlimit:1.5;"
      transform="translate(-52.396 -45.479)">
      <animateMotion
          xlink:href="#sparkle3"
          dur="800ms"
          repeatCount="indefinite"
          rotate="auto"
          fill="freeze">
        <mpath xlink:href="#fil3" />
      </animateMotion>
    </path>
  </g>

  <g>
    <path id="fil1" d="M138.113,4.438C132.522,6.341 127.631,10.155 125.685,15.128C121.918,24.756 119.545,34.953 117.117,44.98C111.623,67.67 125.648,81.348 115.765,102.66" style="fill:none;fill-rule:nonzero;stroke:rgb(125,101,251);stroke-width:2px;"/>
  </g>
  <g>
    <path id="fil2" d="M134.094,19.473C115.548,33.007 128.267,78.747 127.863,86.513C127.363,96.159 126.386,98.582 122.597,109.036" style="fill:none;fill-rule:nonzero;stroke:rgb(125,101,251);stroke-width:2px;"/>
  </g>
  <g>
    <path id="fil3" d="M135.857,37.704C129.646,40.711 132.431,59.822 134.996,79.016C137.55,98.13 138.107,98.551 131.42,116.476" style="fill:none;fill-rule:nonzero;stroke:rgb(125,101,251);stroke-width:2px;"/>
  </g>
</svg>
