<?xml version="1.0" encoding="utf-8"?>
<!-- Generator: Adobe Illustrator 17.0.0, SVG Export Plug-In . SVG Version: 6.00 Build 0)  -->
<!DOCTYPE svg PUBLIC "-//W3C//DTD SVG 1.1//EN" "http://www.w3.org/Graphics/SVG/1.1/DTD/svg11.dtd" [
	<!ENTITY st0 "fill:#4B4B4B;">
	<!ENTITY st1 "fill:#FFFFFF;">
]>
<svg version="1.1" id="Calque_1" xmlns="http://www.w3.org/2000/svg" xmlns:xlink="http://www.w3.org/1999/xlink" x="0px" y="0px"
	 width="198.141px" height="275.515px" viewBox="0 0 198.141 275.515" style="enable-background:new 0 0 198.141 275.515;"
	 xml:space="preserve">
<g>
	<g>
		<path style="&st0;" d="M13.824,14.262c2.901-1.083,6.039-1.122,8.94-2.204c1.484-0.554,0.842-2.951-0.659-2.391
			c-2.901,1.083-6.039,1.122-8.94,2.204C11.681,12.425,12.323,14.822,13.824,14.262L13.824,14.262z"/>
	</g>
</g>
<g>
	<g>
		<path style="&st0;" d="M20.73,15.813c-3.156,2.898-6.439,5.8-8.75,9.449c-0.255,0.403,0.383,0.772,0.636,0.372
			c2.275-3.592,5.528-6.448,8.635-9.3C21.602,16.012,21.08,15.492,20.73,15.813L20.73,15.813z"/>
	</g>
</g>
<g>
	<g>
		<g>
			<g>
				<path style="&st1;" d="M37.321,162.024c40.371,0.155,82.744,11.857,122.012-2.296c9.766-3.52,16.232-12.844,13.314-23.45
					c-2.595-9.433-13.667-16.84-23.45-13.314c-4.116,1.484-8.284,2.687-12.552,3.648c-2.111,0.475-4.248,0.83-6.384,1.171
					c4.79-0.764-2.14,0.18-3.018,0.258c-9.439,0.841-18.964,0.517-28.407-0.057c-20.53-1.247-40.916-4.007-61.515-4.086
					c-10.392-0.04-19.063,8.702-19.063,19.063C18.258,153.383,26.93,161.984,37.321,162.024L37.321,162.024z"/>
			</g>
		</g>
		<g>
			<g>
				<path style="&st1;" d="M30.264,132.469c48.235,1.214,97.108,9.4,143.671-7.87c9.733-3.61,16.251-12.774,13.314-23.45
					c-2.576-9.364-13.698-16.931-23.45-13.314c-10.578,3.923-21.444,6.651-32.592,8.359c3.976-0.609-3.269,0.355-3.973,0.428
					c-3.008,0.31-6.026,0.512-9.044,0.692c-6.031,0.359-12.078,0.415-18.118,0.368c-23.303-0.182-46.517-2.751-69.809-3.338
					c-10.392-0.262-19.063,8.869-19.063,19.063C11.201,123.995,19.878,132.207,30.264,132.469L30.264,132.469z"/>
			</g>
		</g>
		<g>
			<g>
				<path style="&st1;" d="M31.616,96.583c45.895,2.254,93.862,7.056,138.968-4.344c10.071-2.545,16.025-13.596,13.314-23.45
					c-2.797-10.169-13.383-15.859-23.45-13.314c-4.445,1.123-8.922,2.052-13.44,2.833c-1.036,0.175-2.073,0.341-3.112,0.498
					c-5.292,0.825,4.099-0.488-1.277,0.183c-2.707,0.338-5.422,0.601-8.138,0.848c-11.384,1.039-22.835,1.289-34.26,1.271
					c-22.89-0.035-45.753-1.53-68.606-2.652c-10.387-0.51-19.063,9.058-19.063,19.063C12.553,88.297,21.241,96.073,31.616,96.583
					L31.616,96.583z"/>
			</g>
		</g>
		<g>
			<g>
				<path style="&st1;" d="M34.321,39.718c23.173,0.034,46.321,1.326,69.492,1.516c21.971,0.18,44.514-0.483,65.925-5.858
					c8.394-2.107,13.348-11.337,11.093-19.537c-2.333-8.483-11.146-13.199-19.537-11.093c-4.55,1.142-9.141,2.025-13.777,2.736
					c-1.88,0.269-1.939,0.28-0.179,0.031c-1.501,0.192-3.006,0.348-4.51,0.506c-2.574,0.27-5.155,0.469-7.737,0.655
					c-10.97,0.792-21.988,0.871-32.981,0.781C79.507,9.27,56.927,7.986,34.321,7.953c-8.658-0.013-15.882,7.234-15.882,15.882
					C18.439,32.503,25.664,39.705,34.321,39.718L34.321,39.718z"/>
			</g>
		</g>
		<g>
			<g>
				<path style="&st1;" d="M42.301,65.686c37.529,1.223,75.005-2.698,112.531-1.478c9.464,0.308,17.363-8.131,17.363-17.363
					c0-9.697-7.906-17.056-17.363-17.363c-37.526-1.22-75.002,2.701-112.531,1.478c-9.464-0.308-17.363,8.131-17.363,17.363
					C24.938,58.021,32.844,65.378,42.301,65.686L42.301,65.686z"/>
			</g>
		</g>
		<g>
			<g>
				<path style="&st0;" d="M23.796,39.052c30.837,12.078,66.582,10.261,98.835,6.297c1.628-0.2,1.647-2.78,0-2.578
					c-32.052,3.939-67.517,5.793-98.15-6.205C22.932,35.959,22.267,38.453,23.796,39.052L23.796,39.052z"/>
			</g>
		</g>
		<g>
			<g>
				<path style="&st0;" d="M18.968,89.498c26.235,17.682,62.875,14.629,92.234,8.155c1.782-0.393,1.026-3.121-0.752-2.729
					c-28.624,6.313-64.47,9.373-90.054-7.869C18.878,86.031,17.463,88.484,18.968,89.498L18.968,89.498z"/>
			</g>
		</g>
		<g>
			<g>
				<path style="&st0;" d="M5.278,84.775c18.095,10.129,40.221,11.918,60.503,9.876c0.51-0.051,0.515-0.854,0-0.802
					c-20.159,2.029-42.114,0.3-60.098-9.767C5.231,83.829,4.827,84.523,5.278,84.775L5.278,84.775z"/>
			</g>
		</g>
		<g>
			<g>
				<path style="&st0;" d="M39.406,98.692c0.517,0,0.517-0.802,0-0.802C38.888,97.89,38.888,98.692,39.406,98.692L39.406,98.692z"/>
			</g>
		</g>
		<g>
			<g>
				<path style="&st0;" d="M5.197,118.506c11.278-8.997,23.01-17.177,35.94-23.634c0.463-0.231,0.056-0.923-0.405-0.693
					c-12.989,6.485-24.777,14.724-36.103,23.759C4.226,118.262,4.797,118.826,5.197,118.506L5.197,118.506z"/>
			</g>
		</g>
		<g>
			<g>
				<path style="&st0;" d="M18.86,116.518c10.658-9.759,23.045-17.225,35.94-23.634c0.463-0.23,0.057-0.922-0.405-0.693
					c-12.956,6.439-25.397,13.957-36.103,23.759C17.91,116.301,18.479,116.866,18.86,116.518L18.86,116.518z"/>
			</g>
		</g>
		<g>
			<g>
				<path style="&st0;" d="M33.377,116.588c8.923-6.864,18.882-12.219,29.334-16.363c0.475-0.188,0.268-0.965-0.213-0.774
					c-10.517,4.169-20.545,9.535-29.525,16.443C32.568,116.206,32.966,116.903,33.377,116.588L33.377,116.588z"/>
			</g>
		</g>
		<g>
			<g>
				<path style="&st0;" d="M29.513,107.657c7.864,4.854,16.365,8.683,25.203,11.381c0.496,0.151,0.707-0.623,0.213-0.774
					c-8.776-2.679-17.203-6.481-25.011-11.3C29.477,106.692,29.074,107.386,29.513,107.657L29.513,107.657z"/>
			</g>
		</g>
		<g>
			<g>
				<path style="&st0;" d="M45.858,104.881c2.376,1.003,4.576,2.36,6.952,3.364c0.471,0.199,0.88-0.492,0.405-0.693
					c-2.376-1.003-4.576-2.36-6.952-3.364C45.792,103.989,45.383,104.68,45.858,104.881L45.858,104.881z"/>
			</g>
		</g>
		<g>
			<g>
				<path style="&st0;" d="M10.83,128.44c10.082,5.377,20.848,7.276,32.203,7.003c2.008-0.048,2.012-3.167,0-3.119
					c-10.815,0.26-21.016-1.451-30.629-6.577C10.63,124.801,9.054,127.493,10.83,128.44L10.83,128.44z"/>
			</g>
		</g>
		<g>
			<g>
				<path style="&st0;" d="M28.36,132.817c39.559,7.231,79.846,1.934,119.23-3.825c1.406-0.206,0.806-2.335-0.588-2.131
					c-38.959,5.697-78.919,10.979-118.055,3.825C27.555,130.431,26.96,132.56,28.36,132.817L28.36,132.817z"/>
			</g>
		</g>
		<g>
			<g>
				<path style="&st0;" d="M15.671,33.844c45.747,6.796,92.955,9.471,138.85,2.531c1.22-0.185,0.7-2.033-0.51-1.85
					c-45.522,6.883-92.455,4.21-137.829-2.531C14.971,31.813,14.451,33.662,15.671,33.844L15.671,33.844z"/>
			</g>
		</g>
		<g>
			<g>
				<path style="&st0;" d="M50.653,53.659C40.221,58.751,30.658,65.15,22.167,73.075c-1.044,0.974,0.522,2.534,1.563,1.563
					c8.361-7.804,17.774-14.059,28.039-19.07C53.05,54.943,51.929,53.037,50.653,53.659L50.653,53.659z"/>
			</g>
		</g>
		<g>
			<g>
				<path style="&st0;" d="M73.748,54.214c-5.51,4.757-12.463,7.49-18.498,11.49c-1.182,0.783-0.076,2.698,1.116,1.908
					C62.57,63.5,69.642,60.67,75.311,55.776C76.391,54.844,74.821,53.287,73.748,54.214L73.748,54.214z"/>
			</g>
		</g>
		<g>
			<g>
				<path style="&st0;" d="M12.002,19.125c4.861,5.08,11.525,8.087,17.729,11.172c0.472,0.235,0.887-0.472,0.414-0.708
					c-6.134-3.051-12.758-6.023-17.563-11.044C12.215,18.162,11.636,18.743,12.002,19.125L12.002,19.125z"/>
			</g>
		</g>
		<g>
			<g>
				<path style="&st0;" d="M17.276,12.419c7.902,5.314,16.193,9.953,24.534,14.532c0.464,0.255,0.877-0.454,0.414-0.708
					c-8.341-4.579-16.633-9.218-24.534-14.532C17.25,11.415,16.84,12.126,17.276,12.419L17.276,12.419z"/>
			</g>
		</g>
		<g>
			<g>
				<path style="&st0;" d="M31.895,12.248c11.111,5.709,22.544,10.952,32.873,18.04c0.437,0.3,0.847-0.411,0.414-0.708
					C54.853,22.493,43.42,17.25,32.309,11.54C31.84,11.299,31.425,12.007,31.895,12.248L31.895,12.248z"/>
			</g>
		</g>
		<g>
			<g>
				<path style="&st0;" d="M32.018,29.979c15.788,2.332,31.729,3.926,47.703,3.846c0.475-0.002,0.475-0.739,0-0.737
					c-15.907,0.079-31.785-1.498-47.507-3.82C31.749,29.2,31.549,29.91,32.018,29.979L32.018,29.979z"/>
			</g>
		</g>
		<g>
			<g>
				<path style="&st0;" d="M11.968,65.304c8.859,5.599,18.056,10.586,27.675,14.757c0.517,0.224,0.968-0.537,0.446-0.763
					c-9.618-4.171-18.816-9.158-27.675-14.757C11.931,64.235,11.488,65.001,11.968,65.304L11.968,65.304z"/>
			</g>
		</g>
		<g>
			<g>
				<path style="&st0;" d="M41.673,61.454c7.638,1.831,15.079,4.379,22.717,6.21c0.554,0.133,0.789-0.72,0.235-0.853
					c-7.638-1.831-15.079-4.379-22.717-6.21C41.354,60.469,41.118,61.321,41.673,61.454L41.673,61.454z"/>
			</g>
		</g>
		<g>
			<g>
				<path style="&st0;" d="M65.469,48.861c0.519,0,0.519-0.805,0-0.805C64.95,48.056,64.95,48.861,65.469,48.861L65.469,48.861z"/>
			</g>
		</g>
		<g>
			<g>
				<path style="&st0;" d="M58.701,40.762c19.089-0.81,38.178-1.62,57.267-2.43c0.493-0.021,0.495-0.789,0-0.768
					c-19.089,0.81-38.178,1.62-57.267,2.43C58.208,40.015,58.206,40.783,58.701,40.762L58.701,40.762z"/>
			</g>
		</g>
		<g>
			<g>
				<path style="&st0;" d="M13.657,92.451c22.051,7.382,45.398,7.481,68.262,4.561c0.558-0.071,0.564-0.956,0-0.884
					c-22.784,2.91-46.046,2.83-68.027-4.529C13.35,91.417,13.12,92.271,13.657,92.451L13.657,92.451z"/>
			</g>
		</g>
		<g>
			<g>
				<path style="&st0;" d="M8.359,129.658c38.926,6.072,78.307,8.646,117.678,6.683c0.567-0.028,0.57-0.913,0-0.884
					c-39.29,1.959-78.594-0.592-117.443-6.651C8.036,128.718,7.797,129.57,8.359,129.658L8.359,129.658z"/>
			</g>
		</g>
		<g>
			<g>
				<path style="&st0;" d="M185.173,118.804c1.357-5.83,4.017-11.499,4.761-17.454c0.783-6.273-0.927-11.57-4.217-16.886
					c-0.137-0.222-0.509-0.319-0.694-0.089c-2.856,3.531-1.792,8.295-5.552,11.367c-0.341,0.278,0.024,0.885,0.43,0.739
					c2.431-0.877,2.385-6.347,2.616-8.49c0.036-0.334-0.402-0.551-0.665-0.382c-3.205,2.067-6.899,3.638-9.51,6.483
					c-0.258,0.281-0.084,0.751,0.313,0.755c6.136,0.052,8.488-4.632,13.888-6.14c0.548-0.153,0.315-1.006-0.235-0.853
					c-1.686,0.471-3.034,1.316-4.406,2.406c-1.525,1.212-11.661,5.937-6.128,2.078c1.258-0.877,2.642-1.605,3.966-2.376
					c1.6-0.932,2.043-2.928,1.677-0.25c-0.121,0.89-1.258,8.117,0.688,4.671c1.176-2.082,1.445-4.296,1.997-6.595
					c1.203-5.011,4.063,3.416,3.936,3.099c0.85,2.11,1.163,4.396,1.277,6.65c0.357,7.094-3.412,14.239-4.993,21.03
					C184.191,119.124,185.043,119.359,185.173,118.804L185.173,118.804z"/>
			</g>
		</g>
		<g>
			<g>
				<path style="&st0;" d="M178.831,38.815c-2.194,1.239-4.389,2.479-6.562,3.756c-1.648,0.968-3.344,1.924-4.853,3.104
					c-0.267,0.209-0.71,0.534-0.684,0.923c0.035,0.526,0.595,0.51,0.981,0.457c0.886-0.123,1.764-0.478,2.602-0.773
					c1.795-0.632,3.562-1.342,5.325-2.056c0.475-0.192,0.268-0.971-0.214-0.776c-2.42,0.979-4.87,2.055-7.403,2.717
					c-0.198,0.052-0.4,0.103-0.605,0.118c-0.247,0.019,0.068,0.425,0.116,0.367c0.298-0.359,0.736-0.626,1.115-0.887
					c3.365-2.323,7.032-4.245,10.588-6.254C179.689,39.255,179.283,38.559,178.831,38.815L178.831,38.815z"/>
			</g>
		</g>
		<g>
			<g>
				<path style="&st0;" d="M171.333,10.772c-0.142-1.277-0.258-2.639,0.14-3.883c0.078-0.245,0.204-0.482,0.385-0.667
					c0.213-0.218,0.13,0.039-0.115-0.145c-0.049-0.187-0.098-0.374-0.147-0.561c0.137-0.265,0.335-0.15-0.072-0.168
					c-0.529-0.023-0.527,0.797,0,0.82c0.25,0.011,0.642,0.029,0.78-0.239c0.112-0.217,0.039-0.421-0.147-0.561
					c-0.427-0.321-1.012,0.393-1.193,0.676c-0.839,1.311-0.611,3.284-0.451,4.727C170.57,11.291,171.391,11.297,171.333,10.772
					L171.333,10.772z"/>
			</g>
		</g>
		<g>
			<g>
				<path style="&st0;" d="M180.803,124.322c-0.854,7.456-3.476,13.943-9.164,19.021c-0.426,0.38,0.201,1.003,0.625,0.625
					c5.869-5.239,8.541-11.943,9.423-19.647C181.752,123.756,180.867,123.762,180.803,124.322L180.803,124.322z"/>
			</g>
		</g>
		<g>
			<g>
				<path style="&st0;" d="M33.579,70.312c1.508,0.166,2.704,1.288,4.229,1.456c0.566,0.062,0.56-0.822,0-0.884
					c-1.508-0.166-2.704-1.288-4.229-1.456C33.012,69.366,33.018,70.251,33.579,70.312L33.579,70.312z"/>
			</g>
		</g>
		<g>
			<g>
				<path style="&st0;" d="M31.761,59.627c0.57,0,0.57-0.884,0-0.884C31.191,58.743,31.191,59.627,31.761,59.627L31.761,59.627z"/>
			</g>
		</g>
		<g>
			<g>
				<path style="&st0;" d="M38.89,61.276c0.57,0,0.57-0.884,0-0.884S38.32,61.276,38.89,61.276L38.89,61.276z"/>
			</g>
		</g>
		<g>
			<g>
				<path style="&st1;" d="M33.264,266.167c49.399,1.24,100.2,9.966,147.887-7.712c9.734-3.608,16.251-12.775,13.314-23.45
					c-2.576-9.365-13.697-16.93-23.45-13.314c-5.202,1.928-10.474,3.571-15.845,4.959c-2.943,0.761-5.921,1.382-8.902,1.971
					c-1.19,0.229-2.383,0.444-3.578,0.648c-0.369,0.065-6.302,0.953-2.115,0.391c-12.021,1.612-24.193,1.927-36.307,1.786
					c-23.702-0.277-47.312-2.81-71.004-3.405c-10.392-0.261-19.063,8.869-19.063,19.063
					C14.201,257.693,22.878,265.906,33.264,266.167L33.264,266.167z"/>
			</g>
		</g>
		<g>
			<g>
				<path style="&st1;" d="M34.616,230.28c45.909,2.246,93.89,6.372,138.968-5.031c10.07-2.547,16.025-13.594,13.314-23.45
					c-2.797-10.168-13.383-15.861-23.45-13.314c-4.446,1.125-8.924,2.062-13.44,2.858c-1.114,0.196-9.16,1.341-4.388,0.722
					c-2.706,0.351-5.422,0.629-8.138,0.893c-11.381,1.105-22.831,1.445-34.26,1.512c-22.886,0.134-45.757-1.197-68.606-2.315
					c-10.387-0.508-19.063,9.056-19.063,19.063C15.553,221.993,24.241,229.773,34.616,230.28L34.616,230.28z"/>
			</g>
		</g>
		<g>
			<g>
				<path style="&st1;" d="M37.321,186.024c22.898,0.048,45.748,1.866,68.641,2.175c22.478,0.304,46.285-0.574,67.622-8.293
					c9.762-3.532,16.234-12.835,13.314-23.45c-2.592-9.424-13.671-16.852-23.45-13.314c-4.451,1.61-8.981,2.877-13.601,3.904
					c-2.415,0.537-4.856,0.958-7.297,1.357c-2.176,0.321-1.992,0.309,0.552-0.035c-1.533,0.204-3.071,0.366-4.609,0.53
					c-10.794,1.146-21.687,1.286-32.532,1.177c-22.895-0.231-45.741-2.127-68.641-2.175c-10.392-0.022-19.063,8.688-19.063,19.063
					C18.258,177.369,26.93,186.002,37.321,186.024L37.321,186.024z"/>
			</g>
		</g>
		<g>
			<g>
				<path style="&st1;" d="M45.301,210.509c37.538,1.475,74.998-3.252,112.531-1.782c10.389,0.407,19.063-8.979,19.063-19.063
					c0-10.699-8.683-18.656-19.063-19.063c-37.533-1.47-74.993,3.257-112.531,1.782c-10.389-0.408-19.063,8.98-19.063,19.063
					C26.238,202.146,34.921,210.102,45.301,210.509L45.301,210.509z"/>
			</g>
		</g>
		<g>
			<g>
				<path style="&st0;" d="M170.523,7.298c12.066,9.793,21,29.717,8.861,42.988c-0.423,0.462-0.567,1.158-0.221,1.715
					c6.488,10.453,10.577,21.181,6.898,33.542c-0.962,3.231,0.9,4.771,2.657,7.601c1.697,2.734,1.269,5.799,0.681,8.851
					c-2.515,13.043-9.548,25.834-16.096,37.286c-0.291,0.509-0.269,1.317,0.221,1.715c12.066,9.793,21,29.717,8.861,42.988
					c-0.423,0.462-0.567,1.158-0.221,1.715c2.937,4.732,5.622,9.343,7.212,14.755c1.331,4.531,1.486,9.341,0.848,13.995
					c-0.24,1.749-2.526,5.917-1.576,7.448c2.284,3.68,4.458,6.914,5.508,11.195c2.138,8.711-2.976,16.814-8.952,22.61
					c-1.312,1.273,0.691,3.272,2.001,2.001c5.557-5.39,9.521-11.633,10.175-19.48c0.5-5.991-2.131-11.057-5.161-15.938
					c-0.878-1.414-0.872-1.049-0.43-2.293c0.735-2.069,1.089-4.251,1.385-6.416c0.562-4.101,0.138-8.211-0.668-12.243
					c-1.256-6.281-4.576-11.708-7.9-17.064c-0.074,0.572-0.148,1.143-0.221,1.715c13.165-14.392,4.52-36.13-8.861-46.991
					c0.074,0.572,0.148,1.143,0.221,1.715c6.922-12.106,14.356-25.748,16.68-39.621c0.421-2.512,0.647-5.377-0.373-7.78
					c-0.588-1.386-1.548-2.648-2.34-3.924c-0.432-0.695-0.863-1.391-1.295-2.086c-0.285-0.46,1.021-3.32,1.23-4.183
					c2.862-11.81-1.956-22.737-8.041-32.542c-0.074,0.572-0.148,1.143-0.221,1.715c13.165-14.392,4.52-36.13-8.861-46.991
					C171.121,4.158,169.106,6.147,170.523,7.298L170.523,7.298z"/>
			</g>
		</g>
		<g>
			<g>
				<path style="&st0;" d="M26.425,179.995c30.49,14.401,67.072,12.495,99.583,7.678c1.8-0.267,1.032-2.994-0.752-2.729
					c-31.683,4.694-67.689,6.641-97.402-7.393C26.213,176.776,24.775,179.216,26.425,179.995L26.425,179.995z"/>
			</g>
		</g>
		<g>
			<g>
				<path style="&st0;" d="M21.968,223.195c26.235,17.682,62.875,14.629,92.234,8.155c1.782-0.393,1.026-3.121-0.752-2.729
					c-28.624,6.313-64.47,9.373-90.054-7.869C21.878,219.728,20.463,222.181,21.968,223.195L21.968,223.195z"/>
			</g>
		</g>
		<g>
			<g>
				<path style="&st0;" d="M8.278,218.473c18.095,10.129,40.221,11.918,60.503,9.876c0.51-0.051,0.515-0.854,0-0.802
					c-20.159,2.029-42.114,0.3-60.098-9.767C8.231,217.527,7.827,218.22,8.278,218.473L8.278,218.473z"/>
			</g>
		</g>
		<g>
			<g>
				<path style="&st0;" d="M29.258,232.479c0.517,0,0.517-0.802,0-0.802S28.74,232.479,29.258,232.479L29.258,232.479z"/>
			</g>
		</g>
		<g>
			<g>
				<path style="&st0;" d="M42.406,232.39c0.517,0,0.517-0.802,0-0.802C41.888,231.587,41.888,232.39,42.406,232.39L42.406,232.39z"
					/>
			</g>
		</g>
		<g>
			<g>
				<path style="&st0;" d="M8.197,252.204c11.278-8.997,23.01-17.177,35.94-23.634c0.463-0.231,0.056-0.923-0.405-0.693
					c-12.989,6.485-24.777,14.724-36.103,23.759C7.226,251.959,7.797,252.523,8.197,252.204L8.197,252.204z"/>
			</g>
		</g>
		<g>
			<g>
				<path style="&st0;" d="M21.86,250.215c10.658-9.759,23.045-17.225,35.94-23.634c0.463-0.23,0.057-0.922-0.405-0.693
					c-12.956,6.439-25.397,13.957-36.103,23.759C20.91,249.998,21.479,250.564,21.86,250.215L21.86,250.215z"/>
			</g>
		</g>
		<g>
			<g>
				<path style="&st0;" d="M36.377,250.285c8.923-6.864,18.882-12.219,29.334-16.363c0.475-0.188,0.268-0.965-0.213-0.774
					c-10.517,4.169-20.545,9.535-29.525,16.443C35.568,249.903,35.966,250.601,36.377,250.285L36.377,250.285z"/>
			</g>
		</g>
		<g>
			<g>
				<path style="&st0;" d="M32.513,241.355c7.864,4.854,16.365,8.683,25.203,11.381c0.496,0.151,0.707-0.623,0.213-0.774
					c-8.776-2.679-17.203-6.481-25.011-11.3C32.477,240.39,32.074,241.084,32.513,241.355L32.513,241.355z"/>
			</g>
		</g>
		<g>
			<g>
				<path style="&st0;" d="M48.858,238.579c2.376,1.003,4.576,2.36,6.952,3.364c0.471,0.199,0.88-0.492,0.405-0.693
					c-2.376-1.003-4.576-2.36-6.952-3.364C48.792,237.687,48.383,238.378,48.858,238.579L48.858,238.579z"/>
			</g>
		</g>
		<g>
			<g>
				<path style="&st0;" d="M24.218,259.801c-0.199,2.546,2.247,3.681,4.248,4.517c0.477,0.199,0.683-0.577,0.213-0.774
					c-1.668-0.697-3.826-1.607-3.659-3.743C25.06,259.285,24.258,259.289,24.218,259.801L24.218,259.801z"/>
			</g>
		</g>
		<g>
			<g>
				<path style="&st0;" d="M13.83,262.137c10.082,5.377,20.848,7.276,32.203,7.003c2.008-0.048,2.012-3.167,0-3.119
					c-10.815,0.26-21.016-1.451-30.629-6.577C13.63,258.498,12.054,261.191,13.83,262.137L13.83,262.137z"/>
			</g>
		</g>
		<g>
			<g>
				<path style="&st0;" d="M31.36,266.514c39.559,7.231,79.846,1.934,119.23-3.825c1.406-0.206,0.806-2.335-0.588-2.131
					c-38.959,5.697-78.919,10.979-118.055,3.825C30.555,264.128,29.96,266.258,31.36,266.514L31.36,266.514z"/>
			</g>
		</g>
		<g>
			<g>
				<path style="&st0;" d="M18.633,177.634c45.421,8.952,93.249,12.523,138.927,3.358c1.397-0.28,0.804-2.41-0.588-2.131
					c-45.261,9.081-92.752,5.512-137.752-3.358C17.828,175.228,17.235,177.358,18.633,177.634L18.633,177.634z"/>
			</g>
		</g>
		<g>
			<g>
				<path style="&st0;" d="M28.301,190.549c-4.65,4.155-9.722,7.798-14.372,11.953c-1.065,0.952,0.504,2.509,1.563,1.563
					c4.65-4.155,9.722-7.798,14.372-11.953C30.928,191.16,29.36,189.602,28.301,190.549L28.301,190.549z"/>
			</g>
		</g>
		<g>
			<g>
				<path style="&st0;" d="M53.653,187.357c-10.432,5.092-19.995,11.491-28.486,19.415c-1.044,0.974,0.522,2.534,1.563,1.563
					c8.361-7.804,17.774-14.059,28.039-19.07C56.05,188.64,54.929,186.734,53.653,187.357L53.653,187.357z"/>
			</g>
		</g>
		<g>
			<g>
				<path style="&st0;" d="M76.748,187.911c-5.51,4.757-12.463,7.49-18.498,11.49c-1.182,0.783-0.076,2.698,1.116,1.908
					c6.204-4.112,13.277-6.942,18.945-11.836C79.391,188.541,77.821,186.985,76.748,187.911L76.748,187.911z"/>
			</g>
		</g>
		<g>
			<g>
				<path style="&st0;" d="M14.979,155.51c4.691,5.715,11.433,9.339,17.735,12.984c0.494,0.286,0.939-0.478,0.446-0.763
					c-6.243-3.61-12.911-7.187-17.556-12.845C15.242,154.444,14.621,155.074,14.979,155.51L14.979,155.51z"/>
			</g>
		</g>
		<g>
			<g>
				<path style="&st0;" d="M20.171,147.64c7.869,6.152,16.21,11.595,24.624,16.964c0.482,0.308,0.925-0.458,0.446-0.763
					c-8.349-5.328-16.636-10.72-24.445-16.826C20.352,146.668,19.722,147.289,20.171,147.64L20.171,147.64z"/>
			</g>
		</g>
		<g>
			<g>
				<path style="&st0;" d="M34.879,147.511c11.121,6.643,22.625,12.8,32.783,20.903c0.441,0.352,1.071-0.27,0.625-0.625
					c-10.22-8.153-21.773-14.358-32.962-21.042C34.835,146.454,34.39,147.219,34.879,147.511L34.879,147.511z"/>
			</g>
		</g>
		<g>
			<g>
				<path style="&st0;" d="M34.998,175.726c15.674,3.336,31.667,5.654,47.723,5.538c0.57-0.004,0.57-0.888,0-0.884
					c-15.981,0.115-31.886-2.187-47.488-5.507C34.677,174.756,34.44,175.608,34.998,175.726L34.998,175.726z"/>
			</g>
		</g>
		<g>
			<g>
				<path style="&st0;" d="M14.968,199.002c8.859,5.599,18.056,10.586,27.675,14.757c0.517,0.224,0.968-0.537,0.446-0.763
					c-9.618-4.171-18.816-9.158-27.675-14.757C14.931,197.933,14.488,198.698,14.968,199.002L14.968,199.002z"/>
			</g>
		</g>
		<g>
			<g>
				<path style="&st0;" d="M44.673,195.152c7.638,1.831,15.079,4.379,22.717,6.21c0.554,0.133,0.789-0.72,0.235-0.853
					c-7.638-1.831-15.079-4.379-22.717-6.21C44.354,194.166,44.118,195.019,44.673,195.152L44.673,195.152z"/>
			</g>
		</g>
		<g>
			<g>
				<path style="&st0;" d="M68.469,192.052c0.57,0,0.57-0.884,0-0.884S67.899,192.052,68.469,192.052L68.469,192.052z"/>
			</g>
		</g>
		<g>
			<g>
				<path style="&st0;" d="M61.701,186.905c19.089-1.074,38.178-2.149,57.267-3.223c0.567-0.032,0.57-0.916,0-0.884
					c-19.089,1.074-38.178,2.149-57.267,3.223C61.134,186.053,61.131,186.937,61.701,186.905L61.701,186.905z"/>
			</g>
		</g>
		<g>
			<g>
				<path style="&st0;" d="M16.657,226.148c22.051,7.382,45.398,7.481,68.262,4.561c0.558-0.071,0.564-0.956,0-0.884
					c-22.784,2.91-46.046,2.83-68.027-4.529C16.35,225.114,16.12,225.968,16.657,226.148L16.657,226.148z"/>
			</g>
		</g>
		<g>
			<g>
				<path style="&st0;" d="M11.359,263.355c38.926,6.072,78.307,8.646,117.678,6.683c0.567-0.028,0.57-0.913,0-0.884
					c-39.29,1.959-78.594-0.592-117.443-6.651C11.036,262.416,10.797,263.268,11.359,263.355L11.359,263.355z"/>
			</g>
		</g>
		<g>
			<g>
				<path style="&st0;" d="M188.173,252.501c1.357-5.83,4.017-11.499,4.761-17.454c0.783-6.273-0.927-11.57-4.217-16.886
					c-0.137-0.222-0.509-0.319-0.694-0.089c-2.856,3.531-1.792,8.295-5.552,11.367c-0.341,0.278,0.024,0.885,0.43,0.739
					c2.431-0.877,2.385-6.347,2.616-8.49c0.036-0.334-0.402-0.551-0.665-0.382c-3.205,2.067-6.899,3.638-9.51,6.483
					c-0.258,0.281-0.084,0.751,0.313,0.755c6.136,0.052,8.488-4.632,13.888-6.14c0.548-0.153,0.315-1.006-0.235-0.853
					c-1.686,0.471-3.034,1.316-4.406,2.406c-1.525,1.212-11.661,5.937-6.128,2.078c1.258-0.877,2.642-1.605,3.966-2.376
					c1.6-0.932,2.043-2.928,1.677-0.25c-0.121,0.89-1.258,8.117,0.688,4.671c1.176-2.082,1.445-4.296,1.997-6.595
					c1.203-5.011,4.063,3.416,3.936,3.099c0.85,2.11,1.163,4.396,1.277,6.65c0.357,7.094-3.412,14.239-4.993,21.03
					C187.191,252.821,188.043,253.057,188.173,252.501L188.173,252.501z"/>
			</g>
		</g>
		<g>
			<g>
				<path style="&st0;" d="M181.811,180.022c-2.23,1.519-4.461,3.037-6.662,4.598c-1.649,1.17-3.384,2.331-4.842,3.742
					c-0.704,0.681-0.844,1.735,0.443,1.508c0.857-0.151,1.701-0.555,2.495-0.892c1.864-0.792,3.691-1.669,5.512-2.557
					c0.512-0.25,0.064-1.012-0.446-0.763c-2.365,1.153-4.761,2.421-7.276,3.224c-0.2,0.064-0.413,0.132-0.622,0.151
					c-0.073,0.007,0.056,0.525,0.207,0.297c0.281-0.427,0.777-0.772,1.164-1.094c3.286-2.73,6.948-5.048,10.475-7.45
					C182.725,180.467,182.283,179.7,181.811,180.022L181.811,180.022z"/>
			</g>
		</g>
		<g>
			<g>
				<path style="&st0;" d="M36.579,204.01c1.508,0.166,2.704,1.288,4.229,1.456c0.566,0.062,0.56-0.822,0-0.884
					c-1.508-0.166-2.704-1.288-4.229-1.456C36.012,203.063,36.018,203.948,36.579,204.01L36.579,204.01z"/>
			</g>
		</g>
		<g>
			<g>
				<path style="&st0;" d="M34.761,193.325c0.57,0,0.57-0.884,0-0.884S34.191,193.325,34.761,193.325L34.761,193.325z"/>
			</g>
		</g>
		<g>
			<g>
				<path style="&st0;" d="M41.89,194.974c0.57,0,0.57-0.884,0-0.884S41.32,194.974,41.89,194.974L41.89,194.974z"/>
			</g>
		</g>
	</g>
	<g>
		<g>
			<path style="&st0;" d="M12.342,33.164c0.431,0,0.431-0.668,0-0.668S11.911,33.164,12.342,33.164L12.342,33.164z"/>
		</g>
	</g>
	<g>
		<g>
			<path style="&st0;" d="M16.012,50.068C2.645,60.479,0.393,75.321,8.989,89.721c0.265,0.444,0.959,0.04,0.693-0.405
				c-3.899-6.533-6.199-13.576-4.993-21.221c1.15-7.291,6.274-13.085,11.891-17.46C16.987,50.318,16.415,49.754,16.012,50.068
				L16.012,50.068z"/>
		</g>
	</g>
	<g>
		<g>
			<path style="&st0;" d="M18.489,97.53c-2.262,1.288-4.771,3.036-5.143,5.816c-0.068,0.512,0.735,0.505,0.802,0
				c0.327-2.444,2.793-4.012,4.745-5.124C19.344,97.967,18.94,97.273,18.489,97.53L18.489,97.53z"/>
		</g>
	</g>
	<g>
		<g>
			<path style="&st0;" d="M26.258,98.782c0.517,0,0.517-0.802,0-0.802S25.74,98.782,26.258,98.782L26.258,98.782z"/>
		</g>
	</g>
	<g>
		<g>
			<path style="&st0;" d="M21.218,126.103c-0.199,2.546,2.247,3.681,4.248,4.517c0.477,0.199,0.683-0.577,0.213-0.774
				c-1.668-0.697-3.826-1.607-3.659-3.743C22.06,125.587,21.258,125.591,21.218,126.103L21.218,126.103z"/>
		</g>
	</g>
	<g>
		<g>
			<path style="&st0;" d="M17.982,46.591c-0.05,0.274,0.095-0.093-0.031,0.127c0.106-0.185-0.132,0.086,0.028-0.033
				c-0.185,0.138-0.398,0.239-0.596,0.356c-0.527,0.312-0.979,0.783-1.092,1.404c-0.098,0.539,0.139,1.083,0.703,1.238
				c0.493,0.136,1.14-0.163,1.238-0.703c0.05-0.274-0.095,0.093,0.031-0.127c-0.106,0.185,0.132-0.086-0.028,0.033
				c0.185-0.138,0.398-0.239,0.596-0.356c0.527-0.312,0.979-0.783,1.092-1.404c0.098-0.539-0.139-1.083-0.703-1.238
				C18.728,45.753,18.08,46.051,17.982,46.591L17.982,46.591z"/>
		</g>
	</g>
	<g>
		<g>
			<path style="&st0;" d="M25.301,56.851c-4.65,4.155-9.722,7.798-14.372,11.953c-1.065,0.952,0.504,2.509,1.563,1.563
				c4.65-4.155,9.722-7.798,14.372-11.953C27.928,57.463,26.36,55.905,25.301,56.851L25.301,56.851z"/>
		</g>
	</g>
	<g>
		<g>
			<path style="&st0;" d="M6.878,1.726C1.894,10.485,0.4,20.081,2.87,29.884c2.404,9.542,8.983,16.327,15.126,23.582
				c0-0.667,0-1.334,0-2.001C11.816,56.67,6.586,63.624,5.731,71.908c-0.923,8.947,2.466,16.853,7.907,23.798
				c-0.074-0.572-0.148-1.143-0.221-1.715c-3.103,6.292-6.806,11.395-7.462,18.641c-0.782,8.636,3.562,16.825,9.422,22.822
				c0-0.667,0-1.334,0-2.001c-5.729,5.568-10.17,13.114-11.903,20.903c-1.323,5.95-0.31,11.938,2.502,17.292
				c3.523,6.706,10.319,9.964,15.021,15.516c0-0.667,0-1.334,0-2.001c-6.181,5.205-11.411,12.16-12.265,20.444
				c-0.923,8.947,2.466,16.853,7.907,23.798c-0.074-0.572-0.148-1.143-0.221-1.715c-3.103,6.292-6.806,11.395-7.462,18.641
				c-0.782,8.636,3.562,16.825,9.422,22.822c1.277,1.307,3.277-0.696,2.001-2.001c-6.142-6.286-9.616-14.281-8.326-23.141
				c0.813-5.584,4.382-9.972,6.808-14.892c0.311-0.631,0.2-1.177-0.221-1.715c-10.623-13.559-8.733-29.215,4.358-40.239
				c0.625-0.526,0.464-1.453,0-2.001c-4.047-4.779-9.565-7.712-13.29-12.869c-3.842-5.319-4.693-11.842-3.294-18.131
				c1.539-6.92,5.894-13.781,10.965-18.709c0.558-0.542,0.533-1.456,0-2.001c-6.142-6.286-9.616-14.281-8.326-23.141
				c0.813-5.584,4.382-9.972,6.808-14.892c0.311-0.631,0.2-1.177-0.221-1.715C5.017,80.146,6.907,64.491,19.998,53.466
				c0.625-0.526,0.464-1.453,0-2.001C14.746,45.263,9.415,39.63,6.467,31.88C2.815,22.277,4.325,11.936,9.322,3.155
				C10.226,1.566,7.78,0.14,6.878,1.726L6.878,1.726z"/>
		</g>
	</g>
	<g>
		<g>
			<path style="&st0;" d="M17.967,137.298c-5.598,5.657-9.684,12.145-10.751,20.139c-1.118,8.38,2.828,16.365,7.842,22.766
				c0.319,0.407,0.882-0.165,0.567-0.567c-4.795-6.121-7.894-12.911-7.716-20.803c0.184-8.176,5.086-15.37,10.624-20.967
				C18.898,137.497,18.331,136.93,17.967,137.298L17.967,137.298z"/>
		</g>
	</g>
	<g>
		<g>
			<path style="&st0;" d="M19.012,183.766c-13.367,10.411-15.619,25.253-7.023,39.653c0.265,0.444,0.959,0.04,0.693-0.405
				c-3.899-6.533-6.199-13.576-4.993-21.221c1.15-7.291,6.274-13.085,11.891-17.46C19.987,184.015,19.415,183.452,19.012,183.766
				L19.012,183.766z"/>
		</g>
	</g>
	<g>
		<g>
			<path style="&st0;" d="M21.489,231.227c-2.262,1.288-4.771,3.036-5.143,5.816c-0.068,0.512,0.735,0.505,0.802,0
				c0.327-2.444,2.793-4.012,4.745-5.124C22.344,231.664,21.94,230.971,21.489,231.227L21.489,231.227z"/>
		</g>
	</g>
	<g>
		<g>
			<path style="&st0;" d="M20.887,189.387c-0.003,0.018-0.104,0.361-0.014,0.166c-0.069,0.109-0.069,0.117,0,0.024
				c-0.044,0.049-0.092,0.096-0.142,0.14c-0.234,0.217,0.166-0.114-0.098,0.071c-0.111,0.077-0.223,0.153-0.333,0.232
				c-0.547,0.397-1.001,0.91-1.104,1.603c-0.088,0.595,0.139,1.185,0.772,1.359c0.527,0.145,1.271-0.175,1.359-0.772
				c0.003-0.018,0.104-0.361,0.014-0.166c0.069-0.109,0.069-0.117,0-0.024c0.044-0.049,0.092-0.096,0.142-0.14
				c0.234-0.217-0.166,0.114,0.098-0.071c0.111-0.077,0.223-0.153,0.333-0.232c0.547-0.397,1.001-0.91,1.104-1.603
				c0.088-0.595-0.139-1.185-0.772-1.359C21.72,188.47,20.976,188.79,20.887,189.387L20.887,189.387z"/>
		</g>
	</g>
	<g>
		<g>
			<path style="&st0;" d="M23.609,155.555c-3.235,4.279-6.508,8.573-8.693,13.505c-0.229,0.516,0.533,0.967,0.763,0.446
				c2.184-4.932,5.457-9.226,8.693-13.505C24.717,155.546,23.948,155.106,23.609,155.555L23.609,155.555z"/>
		</g>
	</g>
</g>
</svg>
