<?xml version="1.0" encoding="utf-8"?>
<!-- Generator: Adobe Illustrator 17.0.0, SVG Export Plug-In . SVG Version: 6.00 Build 0)  -->
<!DOCTYPE svg PUBLIC "-//W3C//DTD SVG 1.1//EN" "http://www.w3.org/Graphics/SVG/1.1/DTD/svg11.dtd">
<svg version="1.1" xmlns="http://www.w3.org/2000/svg" xmlns:xlink="http://www.w3.org/1999/xlink" x="0px" y="0px" width="10.01px"
	 height="38.58px" viewBox="0 0 10.01 38.58" enable-background="new 0 0 10.01 38.58" xml:space="preserve">
<g id="Calque_3">
	<g id="contenu">
		<path fill="#42FD84" d="M2.143,35.845C1.698,26.062,0,17.119,6.145,18.502c3.869,2.877,1.334,8.227,2.223,18.01">

<animate id="animation-fiole-1" repeatCount="indefinite" attributeName="d" dur="1500ms" values="
M2.143,35.845C1.698,26.062,0,17.119,6.145,18.502c3.869,2.877,1.334,8.227,2.223,18.01;
M2.143,35.845c-0.445-9.783-4.21-19.527,2.68-22.221c6.027-2.227,2.656,13.105,3.545,22.888;
M2.143,35.845c-0.445-9.783-2.729-12.181,3.045-14.47c5.503-1.949,2.291,5.354,3.18,15.137
" />

    </path>
	</g>
</g>
<g>
	<g>
		<g>
			<path fill="#006837" d="M2.214,22.444c1.384,0,2.769,0,4.153,0c0.495,0,0.495-0.767,0-0.767c-1.384,0-2.769,0-4.153,0
				C1.719,21.676,1.719,22.444,2.214,22.444L2.214,22.444z"/>
		</g>
	</g>
	<g>
		<g>
			<path fill="#006837" d="M1.698,25.112c1.076,0,2.16,0.005,3.215-0.236c0.482-0.11,0.278-0.85-0.204-0.74
				c-0.986,0.225-2.005,0.208-3.011,0.209C1.203,24.344,1.203,25.112,1.698,25.112L1.698,25.112z"/>
		</g>
	</g>
	<g id="point3">
		<g>
			<path fill="#006837" d="M7.257,22.666c0.495,0,0.495-0.767,0-0.767S6.762,22.666,7.257,22.666L7.257,22.666z"/>
		</g>
	</g>
	<g id="point2">
		<g>
			<path fill="#006837" d="M5.923,24.889c0.495,0,0.495-0.767,0-0.767S5.428,24.889,5.923,24.889L5.923,24.889z"/>
		</g>
	</g>
	<g>
		<g>
			<path fill="#006837" d="M1.698,29.112c1.076,0,2.16,0.005,3.215-0.236c0.482-0.11,0.278-0.85-0.204-0.74
				c-0.986,0.225-2.005,0.208-3.011,0.209C1.203,28.344,1.203,29.112,1.698,29.112L1.698,29.112z"/>
		</g>
	</g>
	<g id="point1">
		<g>
			<path fill="#006837" d="M5.923,28.889c0.495,0,0.495-0.767,0-0.767S5.428,28.889,5.923,28.889L5.923,28.889z"/>
		</g>
	</g>
</g>
<g id="Calque_1">
	<g>
		<g>
			<path d="M2.527,35.845C1.947,25.352-1.464,12.585,4.582,3.091c2.011-3.158,3.32,6.016,3.442,6.964
				c0.408,3.175,0.335,6.419,0.263,9.611C8.161,25.28,7.574,30.899,7.985,36.512c0.036,0.491,0.804,0.494,0.767,0
				C7.922,25.178,12.125,11.329,6.032,0.966C5.911,0.76,5.598,0.704,5.429,0.888c-8.321,9.119-4.277,23.959-3.67,34.957
				C1.786,36.337,2.554,36.34,2.527,35.845L2.527,35.845z"/>
		</g>
	</g>
</g>
</svg>
