<?xml version="1.0" encoding="utf-8"?>
<!-- Generator: Adobe Illustrator 17.0.0, SVG Export Plug-In . SVG Version: 6.00 Build 0)  -->
<!DOCTYPE svg PUBLIC "-//W3C//DTD SVG 1.1//EN" "http://www.w3.org/Graphics/SVG/1.1/DTD/svg11.dtd">
<svg version="1.1" xmlns="http://www.w3.org/2000/svg" xmlns:xlink="http://www.w3.org/1999/xlink" x="0px" y="0px" width="21.69px"
	 height="21.24px" viewBox="0 0 21.69 21.24" enable-background="new 0 0 21.69 21.24" xml:space="preserve">
<g id="Calque_2">
	<g id="contenu">
		<path fill="#FC3B40" d="M7.383,18.849c0.222,0-1.334,0-2.001-0.532c-0.445-3.723-1.077-8.644-1.077-8.644
			C8.318,10.234,12.29,8.696,17.506,5.9l-0.54,4.722c-0.445,4.433-0.245,3.439-2.024,7.695l0.222,0.355
			c-0.222,0.177-0.445,0.177-0.889,0.177">

<animate id="animation-fiole-1" repeatCount="indefinite" attributeName="d" dur="1000ms" values="
M7.383,18.849c0.222,0-1.334,0-2.001-0.532c-0.445-3.723-1.077-8.644-1.077-8.644 C8.318,10.234,12.29,8.696,17.506,5.9l-0.54,4.722c-0.445,4.433-0.245,3.439-2.024,7.695l0.222,0.355 c-0.222,0.177-0.445,0.177-0.889,0.177;
M7.383,18.849c0.222,0-1.334,0-2.001-0.532c-0.445-3.723-0.865-6.978-0.865-6.978 c4.013,0.561,7.49,1.293,12.706-1.503l-0.47,1.857c-0.445,4.433-0.032,2.368-1.811,6.624l0.222,0.355 c-0.222,0.177-0.445,0.177-0.889,0.177;
M7.383,18.849c0.222,0-1.334,0-2.001-0.532c-0.445-3.723-0.865-6.978-0.865-6.978 c5.667,2.144,4.253,8.788,11.795,3.564l0.441-3.21c-0.445,4.433-0.032,2.368-1.811,6.624l0.222,0.355 c-0.222,0.177-0.445,0.177-0.889,0.177;
M7.383,18.849c0.222,0-1.334,0-2.001-0.532c-0.445-3.723-0.865-6.978-0.865-6.978 c4.013,0.561,7.49,1.293,12.706-1.503l-0.47,1.857c-0.445,4.433-0.032,2.368-1.811,6.624l0.222,0.355 c-0.222,0.177-0.445,0.177-0.889,0.177;
M7.383,18.849c0.222,0-1.334,0-2.001-0.532c-0.445-3.723-1.077-8.644-1.077-8.644 C8.318,10.234,12.29,8.696,17.506,5.9l-0.54,4.722c-0.445,4.433-0.245,3.439-2.024,7.695l0.222,0.355 c-0.222,0.177-0.445,0.177-0.889,0.177
" />

      </path>
	</g>
</g>
<g id="Calque_3">
	<g>
		<g>
			<path fill="#84FFF5" d="M5.567,17.206c2.977,0.456,5.972,0.482,8.977,0.483c1.371,0,1.371-2.126,0-2.126
				c-2.805-0.001-5.631,0.019-8.412-0.407C4.792,14.95,4.215,16.999,5.567,17.206L5.567,17.206z">
        </path>
		</g>
	</g>
	<g>
		<g>
			<path fill="#84FFF5" d="M5.528,14.244c3.375-0.448,6.799-0.425,10.197-0.425c1.371,0,1.371-2.126,0-2.126
				c-3.398,0.001-6.822-0.023-10.197,0.425C4.189,12.296,4.172,14.424,5.528,14.244L5.528,14.244z">
        <animate id="animation-fiole-1" repeatCount="indefinite" attributeName="opacity" dur="1000ms" values="1;0;1" />
      </path>
		</g>
	</g>
</g>
<g id="Calque_1">
	<g>
		<g>
			<path d="M7.383,18.465c-2.246-0.187-1.974-3.52-2.191-5.12c-0.435-3.202-0.89-6.399-1.205-9.615
				c-0.02-0.208-0.159-0.384-0.384-0.384c-0.148,0-0.296,0-0.445,0C3.192,3.597,3.226,3.848,3.26,4.099
				c4.194-1.187,8.544-1.138,12.865-1.276c1.344-0.043,1.325-0.431,1.225,0.753c-0.096,1.151-0.225,2.299-0.357,3.446
				c-0.299,2.592-0.797,5.146-1.421,7.677c-0.189,0.767-1.314,2.969-0.96,3.676c0.12,0.241-0.974,0.09-1.413,0.09
				C11.26,18.465,9.321,18.465,7.383,18.465c-0.495,0-0.495,0.767,0,0.767c2.217,0,5.979,0.8,7.976-0.275
				c0.193-0.104,0.229-0.343,0.138-0.525c-0.359-0.717,0.605-2.751,0.815-3.529c0.394-1.458,0.677-2.945,0.946-4.43
				c0.485-2.668,0.732-5.379,0.959-8.079c0.017-0.209-0.188-0.384-0.384-0.384c-4.894,0-10.037,0.007-14.777,1.348
				C2.639,3.477,2.722,4.113,3.158,4.113c0.23,0,1.483,10.898,1.584,11.717c0.288,2.313,0.038,3.186,2.64,3.403
				C7.876,19.274,7.872,18.506,7.383,18.465z"/>
		</g>
	</g>
</g>
</svg>
