<?xml version="1.0" encoding="utf-8"?>
<!-- Generator: Adobe Illustrator 17.0.0, SVG Export Plug-In . SVG Version: 6.00 Build 0)  -->
<!DOCTYPE svg PUBLIC "-//W3C//DTD SVG 1.1//EN" "http://www.w3.org/Graphics/SVG/1.1/DTD/svg11.dtd">
<svg version="1.1" id="Calque_1" xmlns="http://www.w3.org/2000/svg" xmlns:xlink="http://www.w3.org/1999/xlink" x="0px" y="0px"
	 width="22.94px" height="55.06px" viewBox="0 0 22.94 55.06" enable-background="new 0 0 22.94 55.06" xml:space="preserve">
<g id="Calque_1_1_">
	<g>
		<path fill="#FFF035" d="M10.664,54.27c-0.445-9.783,0.667-20.9,0-31.573l-1.112-0.333C1.103,18.139,3.771,2.131,14.221,4.132
			c9.561,1.556,6.893,15.119-0.222,18.01l0.556,32.128C14.163,53.878,10.664,54.27,10.664,54.27z"/>
		<g>
			<path d="M11.047,54.27c-0.381-10.527,0.557-21.047,0-31.573c-0.009-0.175-0.111-0.319-0.282-0.37
				C3.014,20.005,3.004,7.309,10.452,4.623c5.264-1.898,9.588,2.599,9.561,7.54c-0.022,4.024-2.644,7.947-6.208,9.646
				c-0.118,0.056-0.192,0.206-0.19,0.331c0.107,6.171,0.214,12.343,0.321,18.514c0.065,3.775,0.131,7.55,0.196,11.324
				c0.013,0.75,0.026,1.5,0.039,2.25c-0.019-1.097-2.565-0.442-3.507-0.344c-0.487,0.051-0.492,0.819,0,0.767
				c1.198-0.125,2.618-0.39,3.79-0.014c0.236,0.076,0.49-0.128,0.486-0.37c-0.149-8.586-0.297-17.173-0.446-25.759
				c-0.029-1.681-0.058-3.361-0.087-5.042c-0.03-1.731,0.859-1.456,2.22-2.518c3.583-2.795,4.916-8.269,3.642-12.481
				C19.185,4.883,14.63,2.9,11.131,3.684C7.094,4.59,4.447,8.147,4.207,12.262c-0.211,3.634,1.14,9.243,5.243,10.472
				c2.31,0.692,0.992,12.845,0.938,15.14c-0.129,5.468-0.306,10.927-0.108,16.396C10.298,54.763,11.065,54.765,11.047,54.27z"/>
		</g>
	</g>
</g>
<g>
	<g>
		<path fill="#42FD84" d="M10.219,21.313c-0.311-0.016-0.424-0.223-0.558-0.477c-0.231-0.438-0.894-0.05-0.663,0.387
			c0.272,0.515,0.624,0.826,1.221,0.857C10.714,22.107,10.711,21.339,10.219,21.313L10.219,21.313z">
      <animate id="animation-fiole-1" repeatCount="indefinite" attributeName="opacity" dur="1000ms" values="1;0;1" />
      </path>
	</g>
</g>
<g>
	<g>
		<path fill="#42FD84" d="M7.724,20.634c0.421,0.401,0.914,0.711,1.334,1.112c0.358,0.341,0.901-0.201,0.543-0.543
			c-0.421-0.401-0.914-0.711-1.334-1.112C7.909,19.75,7.365,20.292,7.724,20.634L7.724,20.634z">
      <animate id="animation-fiole-2" repeatCount="indefinite" attributeName="opacity" dur="1000ms" values="1;0;1" />
</path>
	</g>
</g>
<g>
	<g>
		<path fill="#42FD84" d="M8.331,5.494C5.865,10.179,6.58,15.435,9.22,19.89c0.252,0.425,0.916,0.039,0.663-0.387
			c-2.496-4.21-3.234-9.168-0.889-13.62C9.224,5.444,8.562,5.056,8.331,5.494L8.331,5.494z">
      <animate id="animation-fiole-3" repeatCount="indefinite" attributeName="opacity" dur="1000ms" values="1;0;1" />
</path>
	</g>
</g>
<g>
	<g>
		<path fill="#00FF00" d="M9.443,5.717C7.024,10.561,7.633,15.834,8.96,20.91c0.125,0.478,0.865,0.275,0.74-0.204
			c-1.271-4.862-1.919-9.946,0.406-14.601C10.326,5.663,9.664,5.274,9.443,5.717L9.443,5.717z">
      <animate id="animation-fiole-4" repeatCount="indefinite" attributeName="opacity" dur="1000ms" values="1;0;1" />
</path>
	</g>
</g>
<g>
	<g>
		<path fill="#42FD84" d="M17.172,6.578c0.146,4.541-0.932,8.846-3.727,12.48c-0.302,0.392,0.365,0.774,0.663,0.387
			c2.873-3.734,3.982-8.205,3.832-12.867C17.924,6.084,17.157,6.082,17.172,6.578L17.172,6.578z">
      <animate id="animation-fiole-5" repeatCount="indefinite" attributeName="opacity" dur="1000ms" values="1;0;1" />
</path>
	</g>
</g>
<g>
	<g>
		<path fill="#42FD84" d="M18.284,8.801c-0.473,3.688-1.527,7.243-3.89,10.179c-0.307,0.382,0.232,0.928,0.543,0.543
			c2.506-3.114,3.612-6.804,4.115-10.722C19.115,8.311,18.346,8.317,18.284,8.801L18.284,8.801z">
      <animate id="animation-fiole-6" repeatCount="indefinite" attributeName="opacity" dur="1000ms" values="1;0;1" />
</path>
	</g>
</g>
<g>
	<g>
		<path fill="#42FD84" d="M14.06,5.243c-0.455,5.26-1.062,10.501-1.112,15.786c-0.005,0.495,0.763,0.495,0.767,0
			c0.049-5.285,0.657-10.526,1.112-15.786C14.87,4.75,14.102,4.754,14.06,5.243L14.06,5.243z">
      <animate id="animation-fiole-7" repeatCount="indefinite" attributeName="opacity" dur="1000ms" values="1;0;1" />
</path>
	</g>
</g>
<g>
	<g>
		<path fill="#42FD84" d="M11.405,5.141c-0.618,4.334-0.452,8.654-0.014,12.998c0.049,0.488,0.817,0.492,0.767,0
			c-0.431-4.269-0.622-8.531-0.014-12.794C12.214,4.862,11.475,4.653,11.405,5.141L11.405,5.141z"/>
	</g>
</g>
<g>
	<g>
		<path fill="#42FD84" d="M15.63,6.031c-0.871,4.66-1.574,9.348-2.446,14.008c-0.09,0.484,0.649,0.69,0.74,0.204
			c0.871-4.66,1.574-9.348,2.446-14.008C16.46,5.751,15.721,5.545,15.63,6.031L15.63,6.031z"/>
	</g>
</g>
<g>
	<g>
		<path fill="#42FD84" d="M11.614,21.475c0.629,9.646,0.435,19.292-0.433,28.917c-0.044,0.493,0.723,0.489,0.767,0
			c0.868-9.625,1.062-19.271,0.433-28.917C12.349,20.983,11.582,20.98,11.614,21.475L11.614,21.475z"/>
	</g>
</g>
<g>
	<g>
		<path fill="#42FD84" d="M12.726,21.697c1.022,9.352,0.458,18.7-0.667,28.015c-0.059,0.491,0.709,0.485,0.767,0
			c1.125-9.315,1.689-18.664,0.667-28.015C13.44,21.21,12.672,21.205,12.726,21.697L12.726,21.697z"/>
	</g>
</g>
<g>
	<g>
		<path fill="#42FD84" d="M11.614,33.037c0.224,6.077,0.413,12.151,0.222,18.232c-0.016,0.495,0.752,0.494,0.767,0
			c0.191-6.081,0.001-12.155-0.222-18.232C12.363,32.543,11.596,32.541,11.614,33.037L11.614,33.037z"/>
	</g>
</g>
<g>
	<g>
		<path fill="#42FD84" d="M13.06,37.039c0.21,4.819,0.226,9.631,0.222,14.452c0,0.495,0.767,0.495,0.767,0
			c0.003-4.822-0.013-9.634-0.222-14.452C13.806,36.546,13.038,36.544,13.06,37.039L13.06,37.039z"/>
	</g>
</g>
<g>
	<g>
		<path fill="#42FD84" d="M14.296,5.123c1.045,3.209,0.797,6.436-0.628,9.487c-0.208,0.445,0.453,0.835,0.663,0.387
			c1.513-3.238,1.817-6.667,0.706-10.079C14.883,4.451,14.142,4.651,14.296,5.123L14.296,5.123z"/>
	</g>
</g>
<g>
	<g>
		<path fill="#42FD84" d="M16.964,7.347c0.577,3.822-0.346,7.361-2.407,10.599c-0.267,0.419,0.398,0.803,0.663,0.387
			c2.178-3.423,3.092-7.163,2.484-11.191C17.63,6.654,16.891,6.863,16.964,7.347L16.964,7.347z"/>
	</g>
</g>
<g>
	<g>
		<path fill="#42FD84" d="M11.108,13.854c0.495,0,0.495-0.767,0-0.767S10.613,13.854,11.108,13.854L11.108,13.854z"/>
	</g>
</g>
<g>
	<g>
		<path fill="#42FD84" d="M11.331,5.627c0.495,0,0.495-0.767,0-0.767S10.836,5.627,11.331,5.627L11.331,5.627z"/>
	</g>
</g>
</svg>
