<?xml version="1.0" encoding="UTF-8" standalone="no"?>
<!DOCTYPE svg PUBLIC "-//W3C//DTD SVG 1.1//EN" "http://www.w3.org/Graphics/SVG/1.1/DTD/svg11.dtd">
<svg width="68" height="63" viewBox="0 0 68 63" version="1.1" xmlns="http://www.w3.org/2000/svg" xmlns:xlink="http://www.w3.org/1999/xlink" xml:space="preserve" xmlns:serif="http://www.serif.com/" style="fill-rule:evenodd;clip-rule:evenodd;stroke-linejoin:round;stroke-miterlimit:2;">
    <g transform="matrix(1,0,0,1,-1151.85,-38.286)">
        <path d="M1189.33,38.946C1149.07,33.997 1137.78,87.135 1174.74,98.225C1222.8,113.011 1237.68,48.069 1189.33,38.946Z" style="fill:rgb(253,79,82);fill-rule:nonzero;"/>
        <g>
            <path d="M1189.33,38.534C1174.23,36.88 1160,43.516 1154.08,57.957C1148.83,70.753 1153.12,85.447 1164.15,93.589C1176.14,102.445 1195.18,103.676 1207.41,94.82C1217.41,87.582 1221.36,74.309 1218.41,62.574C1214.99,48.994 1202.44,41.152 1189.44,38.548C1188.92,38.444 1188.7,39.238 1189.23,39.342C1205.9,42.682 1219.72,54.841 1218.51,72.898C1217.39,89.514 1202.9,100.336 1186.91,99.966C1168.4,99.538 1151.54,86.819 1152.78,67.216C1153.98,48.224 1171.57,37.412 1189.34,39.357C1189.86,39.415 1189.86,38.591 1189.33,38.534Z" style="fill:rgb(252,59,64);fill-rule:nonzero;"/>
        </g>
    </g>
    <g transform="matrix(1,0,0,1,-1151.85,-38.286)">
        <g>
            <path d="M1205.96,82.18C1205.96,75.717 1205.96,66.5 1205.24,60.5L1164.31,60.5C1164.31,65.5 1164.02,77.101 1164.02,82.128L1164.57,81.655C1179.65,81.655 1190.88,81.462 1205.96,82.18Z" style="fill:rgb(254,185,185);fill-rule:nonzero;"/>
            <g>
                <path d="M1206.7,82.019C1206.69,74.735 1206.71,67.433 1205.98,60.178C1205.94,59.779 1205.67,59.442 1205.24,59.442L1164.31,59.442C1163.91,59.442 1163.58,59.777 1163.57,60.178C1163.55,67.442 1163.31,74.703 1163.29,81.967C1163.29,82.645 1164.07,82.892 1164.54,82.487C1165.99,81.245 1171.97,82.218 1173.94,82.213C1177.43,82.205 1180.92,82.203 1184.41,82.217C1191.6,82.247 1198.78,82.427 1205.96,82.754C1206.91,82.797 1206.91,81.326 1205.96,81.283C1197.63,80.904 1189.3,80.754 1180.97,80.735C1176.79,80.726 1172.61,80.745 1168.42,80.754C1166.61,80.758 1164.91,80.238 1163.5,81.446C1163.92,81.619 1164.34,81.793 1164.76,81.966C1164.78,76.521 1164.91,71.076 1164.99,65.631C1165.01,64.448 1165.02,63.265 1165.04,62.082C1165.05,60.541 1164.37,60.912 1166.13,60.912L1203.31,60.912C1206.24,60.912 1205.22,79.242 1205.22,82.017C1205.22,82.968 1206.7,82.968 1206.7,82.019Z" style="fill:white;fill-rule:nonzero;"/>
            </g>
        </g>
        <g>
            <g>
                <path d="M1206.12,61.656C1206.13,61.619 1206.13,61.582 1206.13,61.545C1206.16,61.314 1205.98,61.005 1205.77,60.91C1204.36,60.281 1201.97,61.784 1200.74,62.313C1196.45,64.164 1192.23,66.192 1188.1,68.383C1186.65,69.155 1185.71,70.363 1184.25,69.508C1182.06,68.219 1179.71,67.167 1177.41,66.094C1173.2,64.129 1168.86,62.407 1164.68,60.379C1163.83,59.967 1163.08,61.236 1163.94,61.649C1170.85,64.999 1178.32,67.451 1184.83,71.585C1185.04,71.716 1185.37,71.729 1185.58,71.585C1188.5,69.534 1191.89,68.052 1195.09,66.504C1196.93,65.614 1198.79,64.764 1200.66,63.939C1202.21,63.256 1204.54,62.872 1204.65,61.655C1204.56,62.6 1206.04,62.591 1206.12,61.656Z" style="fill:white;fill-rule:nonzero;"/>
            </g>
        </g>
    </g>
</svg>
