<?xml version="1.0" encoding="utf-8"?>
<!-- Generator: Adobe Illustrator 17.0.0, SVG Export Plug-In . SVG Version: 6.00 Build 0)  -->
<!DOCTYPE svg PUBLIC "-//W3C//DTD SVG 1.1//EN" "http://www.w3.org/Graphics/SVG/1.1/DTD/svg11.dtd">
<svg version="1.1" xmlns="http://www.w3.org/2000/svg" xmlns:xlink="http://www.w3.org/1999/xlink" x="0px" y="0px"
	 width="168.83px" height="165.45px" viewBox="0 0 168.83 165.45" enable-background="new 0 0 168.83 165.45" xml:space="preserve">
<g id="Calque_1">
	<g>
		<path fill="#FFFFFF" d="M120.118,98.888c7.304-20.869,12.081-41.736,18.239-61.401l-1.145,1.205
			c-10.346,12.084-27.929,32.283-33.773,42.027c0,0,4.194,4.133,8.108,8.831C115.49,94.285,120.118,98.888,120.118,98.888z"/>
		<g>
			<path fill="#4B4B4B" d="M121.075,99.152c6.997-20.194,11.904-41.005,18.239-61.401c0.295-0.949-0.98-1.68-1.659-0.966
				c-6.44,6.776-12.322,14.203-18.303,21.385c-5.876,7.056-11.96,14.2-16.771,22.048c-0.232,0.378-0.156,0.894,0.155,1.203
				c5.843,5.799,10.859,12.345,16.679,18.169c0.906,0.906,2.309-0.497,1.404-1.404c-4.948-4.951-9.304-10.42-14.093-15.515
				c-0.807-0.858-1.633-1.699-2.465-2.533c0.788,0.79,1.621-1.399,2.062-2.051c1.976-2.921,4.142-5.718,6.311-8.496
				c8.359-10.706,17.062-21.552,26.424-31.402c-0.553-0.322-1.106-0.644-1.659-0.966c-6.335,20.396-11.243,41.207-18.239,61.401
				C118.741,99.837,120.659,100.353,121.075,99.152z"/>
		</g>
	</g>
	<g>
		<path fill="#FFFFFF" d="M131.542,147.741c5.041-89.209-104.639-106.285-91.39-0.36c0,0,19.878,15.525,45.286,13.607
			c31.03-2.342,15.294,1.163,35.923-6.388C124.536,153.437,126.208,149.339,131.542,147.741z"/>
		<g>
			<path fill="#4B4B4B" d="M132.943,147.741c1.424-27.871-9.157-60.089-37.017-71.501c-9.972-4.085-21.394-4.752-31.383-0.325
				c-11.303,5.01-18.637,15.175-22.698,26.574c-4.612,12.947-4.815,27.264-3.551,40.792c0.473,5.066,1.059,5.45,5.12,7.996
				c5.783,3.625,12.112,6.363,18.619,8.386c14.257,4.432,29.924,2.814,44.603,1.562c2.633-0.225,5.006-1.369,7.428-2.343
				c2.636-1.06,5.43-1.881,8.004-3.074c3.711-1.719,5.861-5.279,9.846-6.717c1.686-0.608,0.959-3.316-0.745-2.701
				c-4.484,1.618-7.094,5.721-11.424,7.316c-3.222,1.187-6.397,2.485-9.59,3.747c-4.003,1.583-8.488,1.173-12.716,1.371
				c-6.21,0.292-12.416,1.034-18.637,0.883c-6.804-0.165-13.517-1.783-19.91-4.032c-4.419-1.554-8.65-3.638-12.695-5.989
				c-1.205-0.7-2.378-1.453-3.536-2.228c-1.114-0.746-1.207-0.879-1.277-1.458c-3.213-26.63,1.976-68.577,36.466-70.326
				c14.432-0.732,27.766,7.365,36.8,18.085c12.515,14.851,16.458,35.041,15.49,53.983
				C130.049,149.547,132.851,149.538,132.943,147.741z"/>
		</g>
	</g>
	<g>
		<g>
			<path fill="#4B4B4B" d="M49.455,109.433c7.273,8.693,14.552,17.387,22.439,25.536c0.357,0.368,0.918-0.194,0.561-0.561
				c-7.887-8.149-15.166-16.843-22.439-25.536C49.687,108.478,49.129,109.043,49.455,109.433L49.455,109.433z"/>
		</g>
	</g>
	<g>
		<g>
			<path fill="#4B4B4B" d="M56.697,88.483c3.378,5.107,8.37,9.366,12.76,13.565c6.285,6.011,12.759,11.874,19.537,17.327
				c0.395,0.318,0.961-0.24,0.561-0.561c-6.092-4.9-11.898-10.156-17.603-15.497c-4.984-4.665-10.773-9.493-14.57-15.234
				C57.101,87.658,56.413,88.055,56.697,88.483L56.697,88.483z"/>
		</g>
	</g>
	<g>
		<g>
			<path fill="#4B4B4B" d="M69.238,79.029c12.747,16.368,27.775,30.635,42.862,44.802c0.373,0.35,0.935-0.21,0.561-0.561
				C97.575,109.103,82.547,94.835,69.8,78.468C69.486,78.064,68.928,78.631,69.238,79.029L69.238,79.029z"/>
		</g>
	</g>
	<g>
		<g>
			<path fill="#4B4B4B" d="M88,80.865c9.05,10.817,18.127,21.615,27.772,31.911c0.351,0.374,0.911-0.188,0.561-0.561
				c-9.645-10.296-18.722-21.094-27.772-31.911C88.233,79.911,87.674,80.475,88,80.865L88,80.865z"/>
		</g>
	</g>
	<g>
		<g>
			<path fill="#4B4B4B" d="M60.638,88.669c5.218-4.4,10.276-9.115,15.835-13.087c0.413-0.295,0.017-0.984-0.401-0.686
				c-5.617,4.013-10.725,8.767-15.996,13.211C59.684,88.438,60.249,88.997,60.638,88.669L60.638,88.669z"/>
		</g>
	</g>
	<g>
		<g>
			<path fill="#4B4B4B" d="M45.396,115.493c14.615-13.337,29.126-26.764,44.159-39.633c0.39-0.334-0.175-0.892-0.561-0.561
				c-15.033,12.869-29.545,26.296-44.159,39.633C44.456,115.277,45.019,115.837,45.396,115.493L45.396,115.493z"/>
		</g>
	</g>
	<g>
		<g>
			<path fill="#4B4B4B" d="M50.494,129.308C67.588,112.487,85.6,96.697,103.72,81c0.388-0.336-0.176-0.895-0.561-0.561
				c-18.12,15.697-36.132,31.487-53.226,48.308C49.567,129.106,50.128,129.667,50.494,129.308L50.494,129.308z"/>
		</g>
	</g>
	<g>
		<g>
			<path fill="#4B4B4B" d="M61.394,132.2c16.547-12.423,32.918-25.126,47.827-39.509c0.369-0.356-0.193-0.917-0.561-0.561
				c-14.861,14.337-31.173,27.002-47.666,39.385C60.589,131.818,60.984,132.508,61.394,132.2L61.394,132.2z"/>
		</g>
	</g>
	<g>
		<g>
			<path fill="#4B4B4B" d="M98.403,119.655c5.72-7.205,11.483-14.372,18.363-20.519c0.383-0.342-0.181-0.901-0.561-0.561
				c-6.88,6.147-12.643,13.314-18.363,20.519C97.527,119.49,98.085,120.056,98.403,119.655L98.403,119.655z"/>
		</g>
	</g>
	<g>
		<g>
			<path fill="#4B4B4B" d="M109.221,127.093c1.382-1.474,2.69-3.019,4.051-4.513c0.871-0.956,1.757-1.899,2.669-2.817
				c0.468-0.471,1.455-1.756,2.167-1.841c0.502-0.06,0.508-0.855,0-0.794c-1.608,0.192-3.298,2.639-4.303,3.707
				c-1.754,1.864-3.396,3.83-5.146,5.697C108.31,126.905,108.87,127.467,109.221,127.093L109.221,127.093z"/>
		</g>
	</g>
	<g>
		<path fill="#FFFFFF" d="M45.375,96.035C38.184,78.43,32.428,61.437,25.197,45.072l4.201,2.925
			c-1.106-0.035,29.429,21,36.935,28.686c0,0-10.068,5.006-11.82,7.213C51.941,87.137,45.375,96.035,45.375,96.035z"/>
		<g>
			<path fill="#4B4B4B" d="M46.332,95.771c-6.909-17.008-12.907-34.38-20.278-51.2c-0.453,0.453-0.905,0.905-1.358,1.358
				c1.4,0.975,2.801,1.95,4.201,2.925c0-0.571,0-1.143,0-1.714c-0.01,0.006-0.02,0.012-0.029,0.018
				c-0.479,0.296-0.608,0.868-0.356,1.358c0.681,1.327,2.913,2.446,4.047,3.289c3.542,2.634,7.121,5.22,10.678,7.834
				c7.606,5.59,15.703,11.045,22.395,17.745c0.067-0.52,0.134-1.039,0.201-1.559c-4.019,2.009-8.903,4.05-12.021,7.368
				c-3.472,3.696-6.282,8.262-9.293,12.341c-0.761,1.031,0.963,2.02,1.714,1.002c2.957-4.006,5.907-8.024,8.983-11.939
				c2.549-3.244,7.992-5.244,11.619-7.057c0.579-0.289,0.631-1.128,0.201-1.559c-6.02-6.026-13.254-10.991-20.077-16.048
				c-3.604-2.671-7.231-5.31-10.848-7.962c-1.368-1.003-2.733-2.009-4.088-3.03c-0.423-0.319-0.841-0.643-1.255-0.974
				c-1.23-0.982,0.442,0.078-0.868,0.887c0.668-0.413,0.609-1.29,0-1.714c-1.4-0.975-2.801-1.95-4.201-2.925
				c-0.911-0.634-1.712,0.549-1.358,1.358c7.302,16.663,13.234,33.877,20.078,50.726C44.893,97.468,46.814,96.958,46.332,95.771z"/>
		</g>
	</g>
</g>
<g id="point">
	<g id="petit_x5F_point">
		<g>
			<g>
				<path fill="#3D3D3D" d="M59.813,141.903c1.806,0,1.806-2.801,0-2.801S58.006,141.903,59.813,141.903L59.813,141.903z"/>
			</g>
		</g>
		<g>
			<g>
				<path fill="#3D3D3D" d="M84.399,142.479c0.013-0.413,0.026-0.827,0.039-1.24c0.024-0.763-0.655-1.401-1.401-1.401
					c-0.782,0-1.376,0.638-1.401,1.401c-0.013,0.413-0.026,0.827-0.039,1.24c-0.024,0.763,0.655,1.401,1.401,1.401
					C83.78,143.879,84.375,143.241,84.399,142.479L84.399,142.479z"/>
			</g>
		</g>
		<g>
			<g>
				<path fill="#3D3D3D" d="M105.351,138.504c-0.382,0.402-0.763,0.803-1.145,1.205c-1.244,1.308,0.734,3.292,1.981,1.981
					c0.382-0.402,0.763-0.803,1.145-1.205C108.575,139.177,106.597,137.193,105.351,138.504L105.351,138.504z"/>
			</g>
		</g>
	</g>
</g>
<g id="anneau_x5F_">
	<g>
		<g>
			<path fill="#4B4B4B" d="M26.54,52.785c-3.541,3.283-5.678,7.025-5.678,11.925c0,0.736,0.849,1.259,1.493,0.857
				c11.73-7.319,21.711-16.929,28.344-29.143c0.384-0.706-0.256-1.778-1.121-1.458c-3.493,1.293-7.819,2.331-10.757,4.771
				c-3.171,2.633-5.36,6.572-7.773,9.849c-0.76,1.032,0.964,2.021,1.714,1.002c2.23-3.028,4.236-6.48,6.999-9.062
				c2.661-2.487,7.034-3.419,10.345-4.646c-0.374-0.486-0.747-0.972-1.121-1.458c-6.481,11.933-16.171,21.28-27.632,28.431
				c0.498,0.286,0.996,0.571,1.493,0.857c0-4.435,1.93-7.585,5.097-10.522C28.884,53.316,27.477,51.916,26.54,52.785L26.54,52.785z"
				/>
		</g>
	</g>
	<g>
		<g>
			<path fill="#4B4B4B" d="M131.513,59.288c2.949,2.689,4.337,5.35,4.337,9.422c0.498-0.286,0.996-0.571,1.493-0.857
				c-11.461-7.151-21.151-16.497-27.632-28.431c-0.374,0.486-0.747,0.972-1.121,1.458c2.952,1.074,6.399,1.682,9.174,3.174
				c2.611,1.403,4.557,5.61,6.238,7.892c0.75,1.019,2.474,0.03,1.714-1.002c-1.895-2.573-3.821-6.565-6.602-8.377
				c-2.86-1.864-6.83-2.449-9.997-3.601c-0.865-0.315-1.506,0.749-1.121,1.458c6.633,12.214,16.614,21.824,28.344,29.143
				c0.645,0.402,1.493-0.121,1.493-0.857c0-4.608-1.521-7.727-4.918-10.825C131.973,57.024,130.565,58.424,131.513,59.288
				L131.513,59.288z"/>
		</g>
	</g>
</g>
<g id="anneau">
	<g id="anneau_x5F_1_1_">
		<g>
			<g>
				<path fill="#4B4B4B" d="M127.018,75.565c2.954,2.612,4.831,5.022,4.831,9.146c0.498-0.286,0.996-0.571,1.493-0.857
					c-10.994-6.859-20.349-15.725-26.855-27c-0.476-0.826,0.283-0.646,1.111-1.355c1.22-1.045,0.703-0.505,0.288-0.884
					c2.632,2.406,4.782,5.621,7.228,8.229c0.877,0.935,2.278-0.471,1.404-1.404c-2.063-2.2-4.081-4.431-5.997-6.76
					c-0.455-0.553-1.164-1.825-1.983-1.968c-1.389-0.242-2.959,1.829-4.185,2.355c-0.508,0.218-0.589,0.928-0.356,1.358
					c6.633,12.214,16.614,21.824,28.344,29.143c0.645,0.402,1.493-0.121,1.493-0.857c0-4.681-1.987-7.521-5.413-10.549
					C127.467,73.317,126.057,74.715,127.018,75.565L127.018,75.565z"/>
			</g>
		</g>
		<g id="anneau_x5F_1">
			<g>
				<path fill="#4B4B4B" d="M35.275,71.161c-3.426,3.028-5.413,5.868-5.413,10.549c0,0.736,0.849,1.259,1.493,0.857
					c11.73-7.319,21.711-16.929,28.344-29.143c0.234-0.431,0.151-1.137-0.356-1.358c-0.957-0.416-2.848-2.918-3.949-2.615
					c-0.631,0.174-1.042,0.83-1.426,1.303c-2,2.465-4.116,4.816-6.288,7.131c-0.875,0.932,0.526,2.339,1.404,1.404
					c2.433-2.594,4.626-5.385,7.022-8.001c-0.459,0.501-1.533-0.603-0.482,0.633c0.582,0.684,1.274,1.152,2.061,1.575
					c0.317,0.17-9.91,13.231-11.022,14.404c-4.796,5.056-10.413,9.276-16.309,12.954c0.498,0.286,0.996,0.571,1.493,0.857
					c0-4.123,1.877-6.534,4.831-9.146C37.639,71.715,36.23,70.317,35.275,71.161L35.275,71.161z"/>
			</g>
		</g>
	</g>
</g>
<g id="Calque_4">
	<g id="boules">
		<g>
			<g>
				<path class="circle-right" fill="#4B4B4B" d="M142.572,35.851c-2.78-6.108-1.833-13.569-0.088-19.823c1.255-4.497,5.484-14.362,11.298-9.083
					c6.352,5.767,9.616,18.553,7.079,26.662c-3.289,10.514-14.899,5.958-20.617,0.733c-0.401,0.52-0.802,1.039-1.203,1.559
					c0.724,0.437,1.448,0.873,2.173,1.31c1.099,0.663,2.096-1.054,1.002-1.714c-0.724-0.437-1.448-0.873-2.173-1.31
					c-0.958-0.578-2.043,0.791-1.203,1.559c6.041,5.519,15.715,9.819,21.939,2.154c6.743-8.305,1.491-23.689-4.358-30.93
					c-5.291-6.549-10.95-2.624-14.029,3.674c-3.721,7.611-5.121,18.33-1.534,26.212C141.387,38.017,143.098,37.007,142.572,35.851z"
					/>
			</g>
		</g>
		<g>
			<g>
				<path class="circle-left" fill="#4B4B4B" d="M22.323,43.06c-0.266,0.239-0.205,0.24,0.184,0.003c0.322,0.553,0.644,1.106,0.966,1.659
					c6.371-8.06,13.162-19.155,6.817-29.222c-4.11-6.52-11.844-1.603-15.794,2.293C9.586,22.636,4.011,30.996,5.212,38.29
					c1.64,9.958,15.275,6.154,21.473,4.054c-0.255-0.605-0.51-1.209-0.765-1.814c-1.132,0.792-2.264,1.583-3.396,2.375
					c-1.041,0.728-0.05,2.45,1.002,1.714c1.132-0.792,2.264-1.583,3.396-2.375c0.871-0.609,0.365-2.197-0.765-1.814
					c-4.937,1.673-18.002,5.919-19.042-2.793c-0.738-6.183,3.813-12.928,7.694-17.289c3-3.372,9.912-9.32,13.767-3.845
					c6.205,8.816-0.941,19.776-6.507,26.816c-0.531,0.672-0.07,2.082,0.966,1.659c0.3-0.123,0.474-0.285,0.692-0.514
					C24.609,43.537,23.207,42.131,22.323,43.06z"/>
			</g>
		</g>
	</g>
</g>
<g id="Calque_6">
	<g id="electrique">
		<g>
			<path class="sparkle" fill="#4B4B4B" d="M34.264,26.007c1.457-3.282,2.075-7.087,4.397-9.904c-0.592-0.156-1.184-0.313-1.777-0.469
				c0.615,3.029,2.095,5.725,2.778,8.73c0.163,0.719,1.285,1.105,1.777,0.469c3.032-3.916,7.851-5.813,11.111-9.524
				c-0.557-0.072-1.113-0.143-1.67-0.215c1.025,1.681,2.32,4.988,4.603,5.349c2.205,0.349,5.304-2.16,7.168-2.984
				c-0.485-0.127-0.97-0.254-1.454-0.381c1.135,1.834,1.993,3.683,3.341,5.374c0.353,0.442,1.141,0.39,1.503,0
				c2.055-2.212,4.69-3.74,6.746-5.952c-0.592-0.156-1.184-0.313-1.777-0.469c0.741,2.139,1.543,4.246,2.381,6.349
				c0.279,0.7,1.179,1.106,1.777,0.469c2.326-2.48,5.399-4.073,7.539-6.746c-0.592-0.156-1.184-0.313-1.777-0.469
				c0.6,2.97,1.781,5.76,2.381,8.73c0.164,0.81,1.235,0.992,1.777,0.469c1.907-1.843,3.788-3.602,5.325-5.771
				c-0.648-0.085-1.295-0.169-1.943-0.254c0.479,2.329,1.143,4.523,1.984,6.746c0.28,0.74,1.161,1.06,1.777,0.469
				c4.666-4.478,8.042-9.991,11.674-15.294c-0.648-0.085-1.295-0.169-1.943-0.254c1.141,7.007,2.061,14.017,4.762,20.634
				c0.301,0.736,1.521,1.202,1.943,0.254c1.854-4.165,4.636-7.793,6.059-12.158c-0.592,0.156-1.184,0.313-1.777,0.469
				c0.299,0.344,0.37,1.072,0.52,1.515c0.302,0.891,1.421,1.036,1.943,0.254c1.28-1.92,2.304-3.961,3.802-5.737
				c-0.592-0.156-1.184-0.313-1.777-0.469c0.741,2.139,1.543,4.246,2.381,6.349c0.258,0.648,1.226,1.169,1.777,0.469
				c1.982-2.52,4.571-4.404,6.746-6.746c-0.605-0.251-1.21-0.501-1.815-0.752c0.113,2.92,0.669,5.805,0.397,8.73
				c-0.097,1.048,1.525,1.462,1.981,0.537c1.552-3.15,3.74-5.904,5.159-9.127c-0.648-0.085-1.295-0.169-1.943-0.254
				c0.184,1.075,0.497,2.126,0.794,3.175c0.18,0.638,0.977,1.012,1.562,0.635c1.23-0.132,2.459-0.265,3.689-0.397
				c1.24,0.555,2.323-1.277,1.073-1.836c-2.295-1.027-3.673-0.997-5.835,0.397c0.521,0.212,1.041,0.424,1.562,0.635
				c-0.296-1.049-0.61-2.099-0.794-3.175c-0.149-0.872-1.581-1.076-1.943-0.254c-1.418,3.223-3.606,5.977-5.159,9.127
				c0.66,0.179,1.321,0.358,1.981,0.537c0.272-2.924-0.284-5.81-0.397-8.73c-0.034-0.886-1.156-1.461-1.815-0.752
				c-2.175,2.342-4.764,4.226-6.746,6.746c0.592,0.156,1.184,0.313,1.777,0.469c-0.838-2.103-1.64-4.21-2.381-6.349
				c-0.24-0.691-1.224-1.125-1.777-0.469c-1.615,1.915-2.749,4.09-4.134,6.167c0.648,0.085,1.295,0.169,1.943,0.254
				c-0.282-0.831-0.481-1.78-1.067-2.453c-0.554-0.637-1.545-0.24-1.777,0.469c-1.366,4.188-4.066,7.655-5.845,11.65
				c0.648,0.085,1.295,0.169,1.943,0.254c-2.701-6.617-3.621-13.627-4.762-20.634c-0.162-0.992-1.481-0.929-1.943-0.254
				c-3.529,5.154-6.805,10.511-11.341,14.864c0.592,0.156,1.184,0.313,1.777,0.469c-0.841-2.223-1.505-4.416-1.984-6.746
				c-0.202-0.982-1.457-0.939-1.943-0.254c-1.435,2.025-3.222,3.63-4.992,5.34c0.592,0.156,1.184,0.313,1.777,0.469
				c-0.6-2.97-1.781-5.76-2.381-8.73c-0.149-0.738-1.285-1.083-1.777-0.469c-2.138,2.669-5.215,4.268-7.539,6.746
				c0.592,0.156,1.184,0.313,1.777,0.469c-0.838-2.103-1.64-4.21-2.381-6.349c-0.249-0.72-1.2-1.09-1.777-0.469
				c-2.055,2.212-4.69,3.74-6.746,5.952c0.501,0,1.002,0,1.503,0c-1.226-1.538-1.985-3.29-3.008-4.943
				c-0.33-0.534-0.914-0.62-1.454-0.381c-1.655,0.732-3.25,1.55-4.855,2.385c-1.896,0.986-3.225-2.702-4.008-3.988
				c-0.338-0.555-1.206-0.742-1.67-0.215c-3.26,3.711-8.071,5.598-11.111,9.524c0.592,0.156,1.184,0.313,1.777,0.469
				c-0.683-3.005-2.163-5.701-2.778-8.73c-0.151-0.746-1.279-1.073-1.777-0.469c-2.508,3.042-3.158,6.794-4.73,10.334
				C31.878,26.175,33.709,27.258,34.264,26.007L34.264,26.007z"/>
		</g>
	</g>
</g>
</svg>
