<?xml version="1.0" encoding="utf-8"?>
<!-- Generator: Adobe Illustrator 17.0.0, SVG Export Plug-In . SVG Version: 6.00 Build 0)  -->
<!DOCTYPE svg PUBLIC "-//W3C//DTD SVG 1.1//EN" "http://www.w3.org/Graphics/SVG/1.1/DTD/svg11.dtd" [
	<!ENTITY st0 "fill:#3D3D3D;">
	<!ENTITY st1 "fill:#7D65FB;">
	<!ENTITY st2 "fill:#F2F2F2;">
	<!ENTITY st3 "fill:#FFFFFF;">
	<!ENTITY st4 "font-family:'BarlowSemiCondensed-Regular';">
	<!ENTITY st5 "font-size:10.5966;">
]>
<svg version="1.1" xmlns="http://www.w3.org/2000/svg" xmlns:xlink="http://www.w3.org/1999/xlink" x="0px" y="0px" width="97.07px"
	 height="164.54px" viewBox="0 0 97.07 164.54" style="enable-background:new 0 0 97.07 164.54;" xml:space="preserve">
<g id="Calque_1">
	<g>
		<g>
			<g>
				<path style="&st0;" d="M39.317,29.631c-1.827,0.014-2.827,1.649-2.583,3.347c0.307,2.138,2.511,2.303,4.121,1.548
					c0.488-0.229,0.063-0.95-0.422-0.722c-1.234,0.579-2.605,0.482-2.892-1.048c-0.218-1.166,0.579-2.279,1.776-2.289
					C39.856,30.463,39.856,29.627,39.317,29.631L39.317,29.631z"/>
			</g>
		</g>
		<g>
			<g>
				<path style="&st0;" d="M38.789,30.44c0.989-0.29,2.057-0.137,2.659,0.775c0.682,1.033-0.116,2.07-1.015,2.589
					c-0.467,0.27-0.046,0.993,0.422,0.722c1.213-0.701,2.122-2.054,1.456-3.462c-0.68-1.437-2.302-1.854-3.744-1.431
					C38.05,29.785,38.27,30.592,38.789,30.44L38.789,30.44z"/>
			</g>
		</g>
	</g>
	<g>
		<g>
			<g>
				<path style="&st0;" d="M54.967,29.411c-1.827,0.014-2.827,1.649-2.583,3.347c0.307,2.138,2.511,2.303,4.121,1.548
					c0.488-0.229,0.063-0.95-0.422-0.722c-1.234,0.579-2.605,0.482-2.892-1.048c-0.218-1.166,0.579-2.279,1.776-2.289
					C55.506,30.243,55.506,29.406,54.967,29.411L54.967,29.411z"/>
			</g>
		</g>
		<g>
			<g>
				<path style="&st0;" d="M54.439,30.22c0.989-0.29,2.057-0.137,2.659,0.775c0.682,1.033-0.116,2.07-1.015,2.589
					c-0.467,0.27-0.046,0.993,0.422,0.722c1.213-0.701,2.122-2.054,1.456-3.462c-0.68-1.437-2.302-1.854-3.744-1.431
					C53.7,29.565,53.92,30.372,54.439,30.22L54.439,30.22z"/>
			</g>
		</g>
	</g>
	<g>
		<g>
			<g>
				<path style="&st0;" d="M46.07,32.462c0.995-1.084,2.079-2.069,3.213-3.005c-0.238-0.099-0.476-0.197-0.714-0.296
					c0.097,1.899,0.103,3.799,0.104,5.7c0,0.539,0.837,0.539,0.837,0c0-1.901-0.006-3.801-0.104-5.7
					c-0.02-0.383-0.432-0.529-0.714-0.296c-1.133,0.937-2.218,1.921-3.213,3.005C45.114,32.267,45.704,32.861,46.07,32.462
					L46.07,32.462z"/>
			</g>
		</g>
	</g>
	<g>
		<g>
			<g>
				<path style="&st0;" d="M70.617,29.411c-1.827,0.014-2.827,1.649-2.583,3.347c0.307,2.138,2.511,2.303,4.121,1.548
					c0.488-0.229,0.063-0.95-0.422-0.722c-1.234,0.579-2.605,0.482-2.892-1.048c-0.218-1.166,0.579-2.279,1.776-2.289
					C71.156,30.243,71.156,29.406,70.617,29.411L70.617,29.411z"/>
			</g>
		</g>
		<g>
			<g>
				<path style="&st0;" d="M70.089,30.22c0.989-0.29,2.057-0.137,2.659,0.775c0.682,1.033-0.116,2.07-1.015,2.589
					c-0.467,0.27-0.046,0.993,0.422,0.722c1.213-0.701,2.122-2.054,1.456-3.462c-0.68-1.437-2.302-1.854-3.744-1.431
					C69.35,29.565,69.57,30.372,70.089,30.22L70.089,30.22z"/>
			</g>
		</g>
	</g>
	<g>
		<g>
			<g>
				<path style="&st0;" d="M84.346,32.462c0.995-1.084,2.079-2.069,3.213-3.005c-0.238-0.099-0.476-0.197-0.714-0.296
					c0.097,1.899,0.103,3.799,0.104,5.7c0,0.539,0.837,0.539,0.837,0c0-1.901-0.006-3.801-0.104-5.7
					c-0.02-0.383-0.432-0.529-0.714-0.296c-1.133,0.937-2.218,1.921-3.213,3.005C83.391,32.267,83.981,32.861,84.346,32.462
					L84.346,32.462z"/>
			</g>
		</g>
	</g>
	<g>
		<g>
			<g>
				<path style="&st0;" d="M77.37,32.462c0.995-1.084,2.079-2.069,3.213-3.005c-0.238-0.099-0.476-0.197-0.714-0.296
					c0.097,1.899,0.103,3.799,0.104,5.7c0,0.539,0.837,0.539,0.837,0c0-1.901-0.006-3.801-0.104-5.7
					c-0.02-0.383-0.432-0.529-0.714-0.296c-1.133,0.937-2.218,1.921-3.213,3.005C76.414,32.267,77.004,32.861,77.37,32.462
					L77.37,32.462z"/>
			</g>
		</g>
	</g>
	<g>
		<g>
			<g>
				<path style="&st0;" d="M61.72,32.462c0.995-1.084,2.079-2.069,3.213-3.005c-0.238-0.099-0.476-0.197-0.714-0.296
					c0.097,1.899,0.103,3.799,0.104,5.7c0,0.539,0.837,0.539,0.837,0c0-1.901-0.006-3.801-0.104-5.7
					c-0.02-0.383-0.432-0.529-0.714-0.296c-1.133,0.937-2.218,1.921-3.213,3.005C60.764,32.267,61.354,32.861,61.72,32.462
					L61.72,32.462z"/>
			</g>
		</g>
	</g>
	<g>
		<g>
			<g>
				<path style="&st0;" d="M24.516,32.842c2.919-0.596,6.197-0.003,9.157,0.015c0.54,0.003,0.539-0.833,0-0.837
					c-3.047-0.018-6.372-0.599-9.379,0.015C23.766,32.143,23.99,32.949,24.516,32.842L24.516,32.842z"/>
			</g>
		</g>
		<g>
			<g>
				<path style="&st0;" d="M23.987,32.438c0.494,5.265-0.73,10.559,0.015,15.833c0.075,0.532,0.881,0.305,0.807-0.222
					c-0.734-5.195,0.501-10.421,0.015-15.61C24.774,31.906,23.937,31.901,23.987,32.438L23.987,32.438z"/>
			</g>
		</g>
		<g>
			<g>
				<path style="&st0;" d="M24.405,48.578c3.089,0,6.179,0,9.268,0c0.539,0,0.539-0.837,0-0.837c-3.089,0-6.179,0-9.268,0
					C23.866,47.741,23.866,48.578,24.405,48.578L24.405,48.578z"/>
			</g>
		</g>
		<g>
			<g>
				<path style="&st0;" d="M29.827,45.193c1.473,0.751,2.694,1.796,3.914,2.898c0.399,0.361,0.993-0.229,0.592-0.592
					c-1.272-1.149-2.548-2.246-4.083-3.029C29.77,44.226,29.346,44.948,29.827,45.193L29.827,45.193z"/>
			</g>
		</g>
		<g>
			<g>
				<path style="&st0;" d="M33.377,47.864c-1.053,1.183-2.28,2.216-3.551,3.157c-0.428,0.317-0.012,1.044,0.422,0.722
					c1.329-0.983,2.619-2.05,3.72-3.287C34.326,48.054,33.737,47.46,33.377,47.864L33.377,47.864z"/>
			</g>
		</g>
	</g>
	<g>
		<g>
			<g>
				<path style="&st0;" d="M39.317,70.131c-1.827,0.014-2.827,1.649-2.583,3.347c0.307,2.138,2.511,2.303,4.121,1.548
					c0.488-0.229,0.063-0.95-0.422-0.722c-1.234,0.579-2.605,0.482-2.892-1.048c-0.218-1.166,0.579-2.279,1.776-2.289
					C39.856,70.963,39.856,70.127,39.317,70.131L39.317,70.131z"/>
			</g>
		</g>
		<g>
			<g>
				<path style="&st0;" d="M38.789,70.94c0.989-0.29,2.057-0.137,2.659,0.775c0.682,1.033-0.116,2.07-1.015,2.589
					c-0.467,0.27-0.046,0.993,0.422,0.722c1.213-0.701,2.122-2.054,1.456-3.462c-0.68-1.437-2.302-1.854-3.744-1.431
					C38.05,70.285,38.27,71.092,38.789,70.94L38.789,70.94z"/>
			</g>
		</g>
	</g>
	<g>
		<g>
			<g>
				<path style="&st0;" d="M47.967,69.911c-1.827,0.014-2.827,1.649-2.583,3.347c0.307,2.138,2.511,2.303,4.121,1.548
					c0.488-0.229,0.063-0.95-0.422-0.722c-1.234,0.579-2.605,0.482-2.892-1.048c-0.218-1.166,0.579-2.279,1.776-2.289
					C48.506,70.743,48.506,69.906,47.967,69.911L47.967,69.911z"/>
			</g>
		</g>
		<g>
			<g>
				<path style="&st0;" d="M47.439,70.72c0.989-0.29,2.057-0.137,2.659,0.775c0.682,1.033-0.116,2.07-1.015,2.589
					c-0.467,0.27-0.046,0.993,0.422,0.722c1.213-0.701,2.122-2.054,1.456-3.462c-0.68-1.437-2.302-1.854-3.744-1.431
					C46.7,70.065,46.92,70.872,47.439,70.72L47.439,70.72z"/>
			</g>
		</g>
	</g>
	<g>
		<g>
			<g>
				<path style="&st0;" d="M54.744,72.708c0.995-1.084,2.079-2.069,3.213-3.005c-0.238-0.099-0.476-0.197-0.714-0.296
					c0.097,1.899,0.103,3.799,0.104,5.7c0,0.539,0.837,0.539,0.837,0c0-1.901-0.006-3.801-0.104-5.7
					c-0.02-0.383-0.432-0.529-0.714-0.296c-1.133,0.937-2.218,1.921-3.213,3.005C53.788,72.513,54.378,73.106,54.744,72.708
					L54.744,72.708z"/>
			</g>
		</g>
	</g>
	<g>
		<g>
			<g>
				<path style="&st0;" d="M77.593,69.656c-1.827,0.014-2.827,1.649-2.583,3.347c0.307,2.138,2.511,2.303,4.121,1.548
					c0.488-0.229,0.063-0.95-0.422-0.722c-1.234,0.579-2.605,0.482-2.892-1.048c-0.218-1.166,0.579-2.279,1.776-2.289
					C78.132,70.489,78.133,69.652,77.593,69.656L77.593,69.656z"/>
			</g>
		</g>
		<g>
			<g>
				<path style="&st0;" d="M77.065,70.466c0.989-0.29,2.057-0.137,2.659,0.775c0.682,1.033-0.116,2.07-1.015,2.589
					c-0.467,0.27-0.046,0.993,0.422,0.722c1.213-0.701,2.122-2.054,1.456-3.462c-0.68-1.437-2.302-1.854-3.744-1.431
					C76.326,69.81,76.546,70.618,77.065,70.466L77.065,70.466z"/>
			</g>
		</g>
	</g>
	<g>
		<g>
			<g>
				<path style="&st0;" d="M84.346,72.962c0.995-1.084,2.079-2.069,3.213-3.005c-0.238-0.099-0.476-0.197-0.714-0.296
					c0.097,1.899,0.103,3.799,0.104,5.7c0,0.539,0.837,0.539,0.837,0c0-1.901-0.006-3.801-0.104-5.7
					c-0.02-0.383-0.432-0.529-0.714-0.296c-1.133,0.937-2.218,1.921-3.213,3.005C83.391,72.767,83.981,73.361,84.346,72.962
					L84.346,72.962z"/>
			</g>
		</g>
	</g>
	<g>
		<g>
			<g>
				<path style="&st0;" d="M68.696,72.962c0.995-1.084,2.079-2.069,3.213-3.005c-0.238-0.099-0.476-0.197-0.714-0.296
					c0.097,1.899,0.103,3.799,0.104,5.7c0,0.539,0.837,0.539,0.837,0c0-1.901-0.006-3.801-0.104-5.7
					c-0.02-0.383-0.432-0.529-0.714-0.296c-1.133,0.937-2.218,1.921-3.213,3.005C67.741,72.767,68.331,73.361,68.696,72.962
					L68.696,72.962z"/>
			</g>
		</g>
	</g>
	<g>
		<g>
			<g>
				<path style="&st0;" d="M61.72,72.962c0.995-1.084,2.079-2.069,3.213-3.005c-0.238-0.099-0.476-0.197-0.714-0.296
					c0.097,1.899,0.103,3.799,0.104,5.7c0,0.539,0.837,0.539,0.837,0c0-1.901-0.006-3.801-0.104-5.7
					c-0.02-0.383-0.432-0.529-0.714-0.296c-1.133,0.937-2.218,1.921-3.213,3.005C60.764,72.767,61.354,73.361,61.72,72.962
					L61.72,72.962z"/>
			</g>
		</g>
	</g>
	<g>
		<g>
			<g>
				<path style="&st0;" d="M24.516,73.342c2.919-0.596,6.197-0.003,9.157,0.015c0.54,0.003,0.539-0.833,0-0.837
					c-3.047-0.018-6.372-0.599-9.379,0.015C23.766,72.643,23.99,73.449,24.516,73.342L24.516,73.342z"/>
			</g>
		</g>
		<g>
			<g>
				<path style="&st0;" d="M23.987,72.938c0.494,5.265-0.73,10.559,0.015,15.833c0.075,0.532,0.881,0.305,0.807-0.222
					c-0.734-5.195,0.501-10.421,0.015-15.61C24.774,72.406,23.937,72.401,23.987,72.938L23.987,72.938z"/>
			</g>
		</g>
		<g>
			<g>
				<path style="&st0;" d="M24.405,89.078c3.089,0,6.179,0,9.268,0c0.539,0,0.539-0.837,0-0.837c-3.089,0-6.179,0-9.268,0
					C23.866,88.241,23.866,89.078,24.405,89.078L24.405,89.078z"/>
			</g>
		</g>
		<g>
			<g>
				<path style="&st0;" d="M29.827,85.693c1.473,0.751,2.694,1.796,3.914,2.898c0.399,0.361,0.993-0.229,0.592-0.592
					c-1.272-1.149-2.548-2.246-4.083-3.029C29.77,84.726,29.346,85.448,29.827,85.693L29.827,85.693z"/>
			</g>
		</g>
		<g>
			<g>
				<path style="&st0;" d="M33.377,88.364c-1.053,1.183-2.28,2.216-3.551,3.157c-0.428,0.317-0.012,1.044,0.422,0.722
					c1.329-0.983,2.619-2.05,3.72-3.287C34.326,88.554,33.737,87.96,33.377,88.364L33.377,88.364z"/>
			</g>
		</g>
	</g>
	<g>
		<g>
			<g>
				<path style="&st0;" d="M39.317,110.631c-1.827,0.014-2.827,1.649-2.583,3.347c0.307,2.138,2.511,2.303,4.121,1.548
					c0.488-0.229,0.063-0.95-0.422-0.722c-1.234,0.579-2.605,0.482-2.892-1.048c-0.218-1.166,0.579-2.279,1.776-2.289
					C39.856,111.463,39.856,110.627,39.317,110.631L39.317,110.631z"/>
			</g>
		</g>
		<g>
			<g>
				<path style="&st0;" d="M38.789,111.44c0.989-0.29,2.057-0.137,2.659,0.775c0.682,1.033-0.116,2.07-1.015,2.589
					c-0.467,0.27-0.046,0.993,0.422,0.722c1.213-0.701,2.122-2.054,1.456-3.462c-0.68-1.437-2.302-1.854-3.744-1.431
					C38.05,110.785,38.27,111.592,38.789,111.44L38.789,111.44z"/>
			</g>
		</g>
	</g>
	<g>
		<g>
			<g>
				<path style="&st0;" d="M55.882,110.411c-1.827,0.014-2.827,1.649-2.583,3.347c0.307,2.138,2.511,2.303,4.121,1.548
					c0.488-0.229,0.063-0.95-0.422-0.722c-1.234,0.579-2.605,0.482-2.892-1.048c-0.218-1.166,0.579-2.279,1.776-2.289
					C56.421,111.243,56.421,110.406,55.882,110.411L55.882,110.411z"/>
			</g>
		</g>
		<g>
			<g>
				<path style="&st0;" d="M55.354,111.22c0.989-0.29,2.057-0.137,2.659,0.775c0.682,1.033-0.116,2.07-1.015,2.589
					c-0.467,0.27-0.046,0.993,0.422,0.722c1.213-0.701,2.122-2.054,1.456-3.462c-0.68-1.437-2.302-1.854-3.744-1.431
					C54.615,110.565,54.835,111.372,55.354,111.22L55.354,111.22z"/>
			</g>
		</g>
	</g>
	<g>
		<g>
			<g>
				<path style="&st0;" d="M47.599,110.411c-1.827,0.014-2.827,1.649-2.583,3.347c0.307,2.138,2.511,2.303,4.121,1.548
					c0.488-0.229,0.063-0.95-0.422-0.722c-1.234,0.579-2.605,0.482-2.892-1.048c-0.218-1.166,0.579-2.279,1.776-2.289
					C48.138,111.243,48.139,110.406,47.599,110.411L47.599,110.411z"/>
			</g>
		</g>
		<g>
			<g>
				<path style="&st0;" d="M47.071,111.22c0.989-0.29,2.057-0.137,2.659,0.775c0.682,1.033-0.116,2.07-1.015,2.589
					c-0.467,0.27-0.046,0.993,0.422,0.722c1.213-0.701,2.122-2.054,1.456-3.462c-0.68-1.437-2.302-1.854-3.744-1.431
					C46.333,110.565,46.553,111.372,47.071,111.22L47.071,111.22z"/>
			</g>
		</g>
	</g>
	<g>
		<g>
			<g>
				<path style="&st0;" d="M77.334,110.411c-1.827,0.014-2.827,1.649-2.583,3.347c0.307,2.138,2.511,2.303,4.121,1.548
					c0.488-0.229,0.063-0.95-0.422-0.722c-1.234,0.579-2.605,0.482-2.892-1.048c-0.218-1.166,0.579-2.279,1.776-2.289
					C77.873,111.243,77.874,110.406,77.334,110.411L77.334,110.411z"/>
			</g>
		</g>
		<g>
			<g>
				<path style="&st0;" d="M76.807,111.22c0.989-0.29,2.057-0.137,2.659,0.775c0.682,1.033-0.116,2.07-1.015,2.589
					c-0.467,0.27-0.046,0.993,0.422,0.722c1.213-0.701,2.122-2.054,1.456-3.462c-0.68-1.437-2.302-1.854-3.744-1.431
					C76.068,110.565,76.288,111.372,76.807,111.22L76.807,111.22z"/>
			</g>
		</g>
	</g>
	<g>
		<g>
			<g>
				<path style="&st0;" d="M85.617,110.411c-1.827,0.014-2.827,1.649-2.583,3.347c0.307,2.138,2.511,2.303,4.121,1.548
					c0.488-0.229,0.063-0.95-0.422-0.722c-1.234,0.579-2.605,0.482-2.892-1.048c-0.218-1.166,0.579-2.279,1.776-2.289
					C86.156,111.243,86.156,110.406,85.617,110.411L85.617,110.411z"/>
			</g>
		</g>
		<g>
			<g>
				<path style="&st0;" d="M85.089,111.22c0.989-0.29,2.057-0.137,2.659,0.775c0.682,1.033-0.116,2.07-1.015,2.589
					c-0.467,0.27-0.046,0.993,0.422,0.722c1.213-0.701,2.122-2.054,1.456-3.462c-0.68-1.437-2.302-1.854-3.744-1.431
					C84.35,110.565,84.57,111.372,85.089,111.22L85.089,111.22z"/>
			</g>
		</g>
	</g>
	<g>
		<g>
			<g>
				<path style="&st0;" d="M68.37,113.462c0.995-1.084,2.079-2.069,3.213-3.005c-0.238-0.099-0.476-0.197-0.714-0.296
					c0.097,1.899,0.103,3.799,0.104,5.7c0,0.539,0.837,0.539,0.837,0c0-1.901-0.006-3.801-0.104-5.7
					c-0.02-0.383-0.432-0.529-0.714-0.296c-1.133,0.937-2.218,1.921-3.213,3.005C67.414,113.267,68.004,113.861,68.37,113.462
					L68.37,113.462z"/>
			</g>
		</g>
	</g>
	<g>
		<g>
			<g>
				<path style="&st0;" d="M62.244,113.462c0.995-1.084,2.079-2.069,3.213-3.005c-0.238-0.099-0.476-0.197-0.714-0.296
					c0.097,1.899,0.103,3.799,0.104,5.7c0,0.539,0.837,0.539,0.837,0c0-1.901-0.006-3.801-0.104-5.7
					c-0.02-0.383-0.432-0.529-0.714-0.296c-1.133,0.937-2.218,1.921-3.213,3.005C61.288,113.267,61.878,113.861,62.244,113.462
					L62.244,113.462z"/>
			</g>
		</g>
	</g>
	<g>
		<g>
			<g>
				<path style="&st0;" d="M24.516,113.842c2.919-0.596,6.197-0.003,9.157,0.015c0.54,0.003,0.539-0.833,0-0.837
					c-3.047-0.018-6.372-0.599-9.379,0.015C23.766,113.143,23.99,113.949,24.516,113.842L24.516,113.842z"/>
			</g>
		</g>
		<g>
			<g>
				<path style="&st0;" d="M23.987,113.438c0.494,5.265-0.73,10.559,0.015,15.833c0.075,0.532,0.881,0.305,0.807-0.222
					c-0.734-5.195,0.501-10.421,0.015-15.61C24.774,112.906,23.937,112.901,23.987,113.438L23.987,113.438z"/>
			</g>
		</g>
		<g>
			<g>
				<path style="&st0;" d="M24.405,129.578c3.089,0,6.179,0,9.268,0c0.539,0,0.539-0.837,0-0.837c-3.089,0-6.179,0-9.268,0
					C23.866,128.741,23.866,129.578,24.405,129.578L24.405,129.578z"/>
			</g>
		</g>
		<g>
			<g>
				<path style="&st0;" d="M29.827,126.193c1.473,0.751,2.694,1.796,3.914,2.898c0.399,0.361,0.993-0.229,0.592-0.592
					c-1.272-1.149-2.548-2.246-4.083-3.029C29.77,125.226,29.346,125.948,29.827,126.193L29.827,126.193z"/>
			</g>
		</g>
		<g>
			<g>
				<path style="&st0;" d="M33.377,128.864c-1.053,1.183-2.28,2.216-3.551,3.156c-0.428,0.317-0.012,1.044,0.422,0.722
					c1.329-0.983,2.619-2.05,3.72-3.287C34.326,129.054,33.737,128.46,33.377,128.864L33.377,128.864z"/>
			</g>
		</g>
	</g>
</g>
<g id="Calque_9">
	<g id="binaire_x5F_fleche_x5F_haut">
		<polygon style="&st1;" points="40.641,16.348 49.905,16.705 44.436,10.118 		"/>
		<g>
			<g>
				<g>
					<path d="M40.641,16.714c3.08,0.318,6.17,0.356,9.263,0.356c0.471,0,0.471-0.73,0-0.73c-3.093-0.001-6.184-0.039-9.263-0.356
						C40.173,15.935,40.178,16.666,40.641,16.714L40.641,16.714z"/>
				</g>
			</g>
			<g>
				<g>
					<path d="M40.994,16.445c1.064-2.523,2.811-4.864,4.538-6.965c0.296-0.361-0.217-0.881-0.516-0.516
						c-1.818,2.213-3.607,4.635-4.726,7.287C40.106,16.685,40.813,16.873,40.994,16.445L40.994,16.445z"/>
				</g>
			</g>
			<g>
				<g>
					<path d="M50.163,16.446c-1.93-2.312-3.879-4.608-5.643-7.052c-0.273-0.378-0.907-0.014-0.631,0.369
						c1.801,2.494,3.788,4.84,5.758,7.2C49.949,17.325,50.463,16.805,50.163,16.446L50.163,16.446z"/>
				</g>
			</g>
		</g>
	</g>
</g>
<g id="Calque_10">
	<g id="binaire_x5F_fleche_x5F_bas">
		<polygon style="&st1;" points="49.905,146.579 40.641,146.223 46.11,152.809 		"/>
		<g>
			<g>
				<g>
					<path d="M49.905,146.214c-3.08-0.318-6.17-0.356-9.263-0.356c-0.471,0-0.471,0.73,0,0.73c3.093,0.001,6.184,0.039,9.263,0.356
						C50.373,146.992,50.369,146.262,49.905,146.214L49.905,146.214z"/>
				</g>
			</g>
			<g>
				<g>
					<path d="M49.553,146.482c-1.064,2.523-2.811,4.864-4.538,6.965c-0.296,0.361,0.217,0.881,0.516,0.516
						c1.818-2.213,3.607-4.635,4.726-7.287C50.44,146.242,49.733,146.055,49.553,146.482L49.553,146.482z"/>
				</g>
			</g>
			<g>
				<g>
					<path d="M40.383,146.481c1.93,2.312,3.879,4.608,5.643,7.052c0.273,0.378,0.907,0.014,0.631-0.369
						c-1.801-2.494-3.788-4.84-5.758-7.2C40.598,145.602,40.084,146.122,40.383,146.481L40.383,146.481z"/>
				</g>
			</g>
		</g>
	</g>
</g>
<g id="Calque_8">
	<g id="binaire_x5F_rond_x5F_3">
		<path class="step-3-pastille" fill="white" d="M13.613,117.988c-8.997-2.361-11.276,12.361-1.792,13.968C21.052,133.318,22.08,118.116,13.613,117.988"/>
		<g>
			<path style="&st0;" d="M13.656,117.831c-9.467-2.148-10.873,12.456-1.878,14.282c8.829,1.793,10.886-13.81,1.835-14.288
				c-0.21-0.011-0.209,0.315,0,0.326c8.286,0.438,6.91,14.041-1.226,13.706c-9.138-0.376-8.213-15.844,1.182-13.712
				C13.774,118.192,13.861,117.877,13.656,117.831L13.656,117.831z"/>
		</g>
	</g>
</g>
<g id="Calque_7">
	<g id="binaire_x5F_rond_x5F_2">
		<path class="step-2-pastille" fill="white" d="M13.613,77.988c-8.997-2.361-11.276,12.361-1.792,13.968C21.052,93.318,22.08,78.116,13.613,77.988"/>
		<g>
			<path style="&st0;" d="M13.656,77.831c-9.467-2.148-10.873,12.456-1.878,14.282c8.829,1.793,10.886-13.81,1.835-14.288
				c-0.21-0.011-0.209,0.315,0,0.326c8.286,0.438,6.91,14.041-1.226,13.706c-9.138-0.376-8.213-15.844,1.182-13.712
				C13.774,78.192,13.861,77.877,13.656,77.831L13.656,77.831z"/>
		</g>
	</g>
</g>
<g id="Calque_6">
	<g id="binaire_x5F_rond_x5F_1">
		<path class="step-1-pastille" fill="white" d="M13.613,37.988c-8.997-2.361-11.276,12.361-1.792,13.968C21.052,53.318,22.08,38.116,13.613,37.988"/>
		<g>
			<path style="&st0;" d="M13.656,37.831c-9.467-2.148-10.873,12.456-1.878,14.282c8.829,1.793,10.886-13.81,1.835-14.288
				c-0.21-0.011-0.209,0.315,0,0.326c8.286,0.438,6.91,14.041-1.226,13.706c-9.138-0.376-8.213-15.844,1.182-13.712
				C13.774,38.192,13.861,37.877,13.656,37.831L13.656,37.831z"/>
		</g>
	</g>
</g>
<g id="Calque_4">
	<g id="binaire_x5F_cadre_x5F_2">
		<g>
			<path style="&st3;" d="M90.76,79.131c0.664,3.647,0.571,9.099,0.151,12.364l-0.031,1.817
				c-17.173,0.647-38.885-1.033-56.745,1.568l0.758-1.805c-0.664-3.647-0.953-8.015-0.527-11.643l-0.37,0.357
				C52.239,78.105,73.385,79.631,90.76,79.131z"/>
			<g>
				<path class="step-2-field" fill="#3D3D3D" d="M90.357,79.242c0.495,3.262,0.524,6.509,0.363,9.796c-0.048,0.98-0.218,1.948-0.235,2.928
					c-0.029,1.709-2.994,1.025-4.395,1.052c-8.07,0.151-16.146-0.062-24.217-0.073c-7.604-0.011-15.205,0.189-22.778,0.909
					c-1.138,0.108-2.305,0.242-3.437,0.398c-1.909,0.263-0.346,0.004-0.346-1.177c0-3.946-0.878-7.635-0.527-11.643
					c0.033-0.38-0.471-0.531-0.714-0.296c-0.123,0.119-0.246,0.238-0.37,0.357c-0.32,0.31,0.016,0.774,0.407,0.699
					c18.686-3.598,37.752-2.167,56.652-2.644c0.538-0.014,0.54-0.85,0-0.837c-12.6,0.318-25.205-0.161-37.801,0.443
					c-5.839,0.28-11.65,0.905-17.408,1.91c-3.907,0.682-0.666,10.958-1.82,13.704c-0.14,0.333,0.246,0.552,0.515,0.515
					c18.775-2.584,37.762-0.923,56.634-1.553c0.231-0.008,0.414-0.184,0.418-0.418c0.083-4.815,0.596-9.483-0.134-14.293
					C91.083,78.488,90.277,78.715,90.357,79.242z"/>
			</g>
		</g>
	</g>
</g>
<g id="Calque_5">
	<g id="binaire_x5F_cadre_x5F_3">
		<path style="&st3;" d="M90.76,119.631c0.664,3.647,0.571,9.099,0.151,12.364l-0.031,1.817
			c-17.173,0.647-38.885-1.033-56.745,1.568l0.758-1.805c-0.664-3.647-0.953-8.015-0.527-11.643l-0.37,0.357
			C52.239,118.605,73.385,120.131,90.76,119.631z"/>
		<g>
			<path class="step-3-field" fill="#3D3D3D" d="M90.357,119.742c0.495,3.262,0.524,6.509,0.363,9.796c-0.048,0.98-0.218,1.948-0.235,2.928
				c-0.029,1.709-2.994,1.025-4.395,1.052c-8.07,0.151-16.146-0.062-24.217-0.073c-7.604-0.011-15.205,0.189-22.778,0.909
				c-1.138,0.108-2.305,0.242-3.437,0.398c-1.909,0.263-0.346,0.004-0.346-1.177c0-3.946-0.878-7.635-0.527-11.643
				c0.033-0.38-0.471-0.531-0.714-0.296c-0.123,0.119-0.246,0.238-0.37,0.357c-0.32,0.31,0.016,0.774,0.407,0.699
				c18.686-3.598,37.752-2.167,56.652-2.644c0.538-0.014,0.54-0.85,0-0.837c-12.6,0.318-25.205-0.161-37.801,0.443
				c-5.839,0.28-11.65,0.905-17.408,1.91c-3.907,0.682-0.666,10.958-1.82,13.704c-0.14,0.333,0.246,0.552,0.515,0.515
				c18.775-2.584,37.762-0.923,56.634-1.553c0.231-0.008,0.414-0.184,0.418-0.418c0.083-4.815,0.596-9.483-0.134-14.293
				C91.083,118.988,90.277,119.215,90.357,119.742z"/>
		</g>
	</g>
</g>
<g id="Calque_3">
	<g id="binaire_x5F_cadre_x5F_1">
		<path style="&st3;" d="M90.76,38.631c0.664,3.647,0.571,9.099,0.151,12.364l-0.031,1.817c-17.173,0.647-38.885-1.033-56.745,1.568
			l0.758-1.805c-0.664-3.647-0.953-8.015-0.527-11.643l-0.37,0.357C52.239,37.605,73.385,39.131,90.76,38.631z"/>
		<g>
			<path class="step-1-field" fill="#3D3D3D" d="M90.357,38.742c0.495,3.262,0.524,6.509,0.363,9.796c-0.048,0.98-0.218,1.948-0.235,2.928
				c-0.029,1.709-2.994,1.025-4.395,1.052c-8.07,0.151-16.146-0.062-24.217-0.073c-7.604-0.011-15.205,0.189-22.778,0.909
				c-1.138,0.108-2.305,0.242-3.437,0.398c-1.909,0.263-0.346,0.004-0.346-1.177c0-3.946-0.878-7.635-0.527-11.643
				c0.033-0.38-0.471-0.531-0.714-0.296c-0.123,0.119-0.246,0.238-0.37,0.357c-0.32,0.31,0.016,0.774,0.407,0.699
				c18.686-3.598,37.752-2.167,56.652-2.644c0.538-0.014,0.54-0.85,0-0.837c-12.6,0.318-25.205-0.161-37.801,0.443
				c-5.839,0.28-11.65,0.905-17.408,1.91c-3.907,0.682-0.666,10.958-1.82,13.704c-0.14,0.333,0.246,0.552,0.515,0.515
				c18.775-2.584,37.762-0.923,56.634-1.553c0.231-0.008,0.414-0.184,0.418-0.418c0.083-4.815,0.596-9.483-0.134-14.293
				C91.083,37.988,90.277,38.215,90.357,38.742z"/>
		</g>
	</g>
</g>
<g id="points">
	<text transform="matrix(1 0 0 1 10.7676 47.9098)" style="&st4; &st5;">•</text>
	<text transform="matrix(1 0 0 1 9.0936 87.9098)" style="&st4; &st5;">••</text>
	<text transform="matrix(1 0 0 1 7.4191 127.9098)" style="&st4; &st5;">•••</text>
</g>
</svg>
