<?xml version="1.0" encoding="utf-8"?>
<!-- Generator: Adobe Illustrator 17.0.0, SVG Export Plug-In . SVG Version: 6.00 Build 0)  -->
<!DOCTYPE svg PUBLIC "-//W3C//DTD SVG 1.1//EN" "http://www.w3.org/Graphics/SVG/1.1/DTD/svg11.dtd" [
	<!ENTITY st0 "opacity:0.6;">
	<!ENTITY st1 "fill:#4B4B4B;">
	<!ENTITY st2 "fill:#3D3D3D;">
	<!ENTITY st3 "fill:#FFFFFF;">
	<!ENTITY st4 "fill:#FFF971;">
]>
<svg version="1.1" id="Calque_1" xmlns="http://www.w3.org/2000/svg" xmlns:xlink="http://www.w3.org/1999/xlink" x="0px" y="0px"
	 width="22px" height="15px" viewBox="0 0 22 15" style="enable-background:new 0 0 22 15;" xml:space="preserve">
<g style="&st0;">
	<path style="&st1;" d="M3.923,2.466c0,0-2.65,5.202-3.201,9.603c7.202,2.801,13.022,4.001,20.406-0.8
		c-0.798-4.601-0.798-4.601-2.401-9.203L3.923,2.466z"/>
	<g>
		<path style="&st2;" d="M3.696,2.334C2.173,5.386,1.02,8.63,0.469,11.999c-0.025,0.152,0.038,0.268,0.183,0.322
			c7.372,2.796,13.688,3.397,20.608-0.827c0.108-0.066,0.141-0.177,0.12-0.296c-0.557-3.194-1.337-6.14-2.401-9.203
			c-0.038-0.109-0.131-0.196-0.253-0.192c-4.935,0.133-9.87,0.267-14.805,0.4c-0.337,0.009-0.338,0.533,0,0.524
			c2.467-0.067,4.935-0.133,7.402-0.2c1.696-0.046,3.393-0.092,5.089-0.138c2.398-0.065,2.082-0.218,2.918,2.232
			c0.558,1.634,2.363,5.993,0.376,7.206c-3.575,2.182-7.603,2.74-11.678,2.162c-2.545-0.361-7.336-0.978-6.575-4.296
			c0.559-2.44,1.58-4.863,2.694-7.096C4.3,2.297,3.847,2.031,3.696,2.334z"/>
	</g>
</g>
<g>
	<g>
		<path style="&st3;" d="M2.395,6.095c5.857,1.577,11.846,1.847,17.457-0.73c0.553-0.254,0.073-1.068-0.477-0.815
			C14.004,7.016,8.238,6.69,2.646,5.184C2.057,5.026,1.807,5.937,2.395,6.095L2.395,6.095z"/>
	</g>
</g>
<g>
	<g>
		<path style="&st3;" d="M1.083,10.057c6.382,1.689,13.741,2.013,19.863-0.76c0.554-0.251,0.074-1.065-0.477-0.815
			c-5.864,2.656-13.037,2.279-19.135,0.665C0.745,8.991,0.495,9.902,1.083,10.057L1.083,10.057z"/>
	</g>
</g>
<g>
	<g>
		<path style="&st2;" d="M3.696,2.334C2.173,5.386,1.02,8.63,0.469,11.999c-0.025,0.152,0.038,0.268,0.183,0.322
			c7.372,2.796,13.688,3.397,20.608-0.827c0.108-0.066,0.141-0.177,0.12-0.296c-0.557-3.194-1.337-6.14-2.401-9.203
			c-0.038-0.109-0.131-0.196-0.253-0.192c-4.935,0.133-9.87,0.267-14.805,0.4c-0.337,0.009-0.338,0.533,0,0.524
			c2.467-0.067,4.935-0.133,7.402-0.2c1.696-0.046,3.393-0.092,5.089-0.138c2.398-0.065,2.082-0.218,2.918,2.232
			c0.558,1.634,2.363,5.993,0.376,7.206c-3.575,2.182-7.603,2.74-11.678,2.162c-2.545-0.361-7.336-0.978-6.575-4.296
			c0.559-2.44,1.58-4.863,2.694-7.096C4.3,2.297,3.847,2.031,3.696,2.334z"/>
	</g>
</g>
<g>
	<path style="&st4;" d="M4.323,3.266c5.202,0.8,10.003,0.4,14.805-1.2c-4.801-1.6-11.604-1.2-15.605,0.4L4.323,3.266z"/>
	<g>
		<path style="&st2;" d="M4.253,3.519c5.118,0.707,10.013,0.355,14.944-1.2c0.248-0.078,0.252-0.429,0-0.506
			C14.149,0.289,8.413,0.39,3.453,2.213C3.272,2.28,3.189,2.503,3.337,2.651c0.267,0.267,0.533,0.533,0.8,0.8
			c0.239,0.239,0.61-0.131,0.371-0.371C4.075,2.648,3.667,2.692,4.326,2.449C5.42,2.047,6.585,1.84,7.727,1.639
			c2.836-0.501,5.793-0.409,8.628,0.015c-0.129-0.019,2.417,0.249,1.673,0.484c-1.35,0.426-2.741,0.693-4.134,0.931
			C10.756,3.606,7.53,3.447,4.393,3.014C4.062,2.968,3.919,3.473,4.253,3.519z"/>
	</g>
</g>
<g>
	<path style="&st1;" d="M15.892,2.831c-3.072-1.218-6.979-1.07-10.009,0.4c0,0,3.552,0.323,4.736,0.279
		C11.943,3.462,15.892,2.831,15.892,2.831z"/>
	<g>
		<path style="&st2;" d="M15.961,2.579C12.6,1.359,9.003,1.541,5.75,3.005C5.488,3.123,5.652,3.473,5.882,3.494
			c3.48,0.313,6.633,0.137,10.079-0.409c0.333-0.053,0.191-0.558-0.139-0.506c-3.411,0.541-6.504,0.699-9.94,0.391
			c0.044,0.163,0.088,0.326,0.132,0.488c3.128-1.408,6.583-1.544,9.807-0.374C16.14,3.2,16.276,2.693,15.961,2.579z"/>
	</g>
</g>
</svg>
