<?xml version="1.0" encoding="utf-8"?>
<!-- Generator: Adobe Illustrator 17.0.0, SVG Export Plug-In . SVG Version: 6.00 Build 0)  -->
<!DOCTYPE svg PUBLIC "-//W3C//DTD SVG 1.1//EN" "http://www.w3.org/Graphics/SVG/1.1/DTD/svg11.dtd">
<svg version="1.1" id="Calque_1" xmlns="http://www.w3.org/2000/svg" xmlns:xlink="http://www.w3.org/1999/xlink" x="0px" y="0px"
	 width="90.87px" height="67.48px" viewBox="0 0 90.87 67.48" style="enable-background:new 0 0 90.87 67.48;" xml:space="preserve"
	>
<g>
	<g>
		<g>
			<g>
				<g>
					<path d="M4.64,41.411c1.839,0.598,3.685,1.186,5.636,1.206c1.971,0.02,3.839-0.916,5.522-1.836
						c1.742-0.952,0.189-3.611-1.554-2.658c-1.255,0.686-2.516,1.336-3.968,1.415c-1.62,0.089-3.307-0.604-4.818-1.096
						C3.565,37.826,2.761,40.8,4.64,41.411L4.64,41.411z"/>
				</g>
			</g>
			<g>
				<g>
					<path d="M16.031,39.861c0.998-4.684,0.119-9.492-0.42-14.18c-0.086-0.751-0.639-1.649-1.539-1.539
						c-2.264,0.274-4.402-0.338-6.648-0.475c-0.918-0.056-1.434,0.75-1.539,1.539c-0.527,3.957-1.345,7.868-1.425,11.871
						c-0.013,0.635,0.474,1.367,1.13,1.484c1.548,0.276,3.435,0.099,4.856,0.795c1.286,0.63,3.022-0.721,2.106-2.106
						c-0.706-1.068-2.966-3.525-2.528-4.962c0.448-1.467,1.32-2.781,1.733-4.299c0.263-0.966-0.482-1.949-1.484-1.949
						c-0.633,0-1.266,0-1.899,0c-0.954,0-1.813,0.991-1.484,1.949c1.161,3.38,2.115,6.4,1.844,10.037
						c1.008-0.136,2.016-0.273,3.024-0.409c-0.822-2.794-0.999-5.678-1.425-8.547c-0.938,0.395-1.876,0.791-2.814,1.186
						c0.91,1.791,0.419,4.316,0.795,6.28c0.312,1.635,2.487,1.29,2.969,0c0.684-1.831-0.372-5.062,1.029-6.443
						c-0.806-0.104-1.612-0.208-2.418-0.312c0.889,1.845,0.04,4.296,0.795,6.28c0.643,1.69,2.8,1.312,3.024-0.409
						c0.332-2.552,0.056-5.04,0-7.598c-0.044-2.033-2.854-1.925-3.079,0c-0.406,3.48-0.041,6.957,0,10.447
						c0.377-0.495,0.753-0.99,1.13-1.484c-2.014,0.556-4.479-0.53-6.595-0.53c-1.985,0-1.985,3.079,0,3.079
						c3.056,0,6.573-1.103,8.295-3.764c1.966-3.037,0.728-7.748,0.193-11.005c-0.085-0.515-0.6-0.941-1.075-1.075
						c-2.36-0.665-3.459,0.308-5.567,0.95c-1.894,0.576-1.086,3.548,0.818,2.969c1.45-0.441,2.241-1.425,3.93-0.95
						c-0.358-0.358-0.717-0.717-1.075-1.075c0.412,2.509,1.046,5.299,0.446,7.828c-0.557,2.348-3.934,3.044-5.966,3.044
						c-1.985,0-1.985,3.079,0,3.079c2.541,0,4.866,1.123,7.413,0.42c0.654-0.181,1.138-0.801,1.13-1.484
						c-0.041-3.489-0.406-6.966,0-10.447c-1.026,0-2.052,0-3.079,0c0.056,2.557,0.332,5.046,0,7.598
						c1.008-0.136,2.016-0.273,3.024-0.409c-0.868-2.281-0.022-4.768-1.105-7.016c-0.439-0.91-1.755-0.965-2.418-0.312
						c-2.276,2.244-0.828,5.146-1.82,7.802c0.99,0,1.979,0,2.969,0c-0.452-2.365,0.021-4.801-1.105-7.016
						c-0.858-1.687-3.05-0.406-2.814,1.186c0.427,2.878,0.599,5.742,1.425,8.547c0.508,1.727,2.897,1.291,3.024-0.409
						c0.291-3.91-0.703-7.212-1.954-10.856c-0.495,0.65-0.99,1.299-1.484,1.949c0.633,0,1.266,0,1.899,0
						c-0.495-0.65-0.99-1.299-1.484-1.949c-0.459,1.683-1.855,3.477-1.914,5.231c-0.079,2.333,1.817,4.584,3.019,6.402
						c0.702-0.702,1.404-1.404,2.106-2.106c-1.835-0.899-3.611-0.751-5.591-1.105c0.377,0.495,0.753,0.99,1.13,1.484
						c0.079-3.998,0.898-7.918,1.425-11.871c-0.513,0.513-1.026,1.026-1.539,1.539c2.272,0.138,4.356,0.753,6.648,0.475
						c-0.513-0.513-1.026-1.026-1.539-1.539c0.501,4.358,1.458,9.006,0.53,13.361C12.65,40.978,15.617,41.802,16.031,39.861
						L16.031,39.861z"/>
				</g>
			</g>
		</g>
		<g>
			<g>
				<path d="M79.789,55.963c1.321,0.09,2.278,0.822,3.486,1.238c1.382,0.475,2.631,0.441,4.046,0.132
					c1.495-0.327,1.451-2.615,0-2.969c-2.676-0.653-5.349-1.045-8.072-1.425c-0.963-0.134-1.96,0.385-1.949,1.484
					c0.036,3.473,0.403,6.903,0.881,10.339c0.07,0.503,0.61,0.958,1.075,1.075c2.871,0.724,5.221,0.112,8.058-0.465
					c0.656-0.134,1.142-0.837,1.13-1.484c-0.049-2.7-0.344-5.349,0.007-8.04c0.235-1.801-2.507-1.969-3.024-0.409
					c-0.539,1.629,0.191,3.908-0.795,5.33c0.886,0,1.772,0,2.658,0c-1.101-1.66-0.603-4.595-2.452-5.776
					c-0.79-0.505-2.083-0.045-2.261,0.92c-0.38,2.052-0.161,4.116-0.475,6.173c0.938-0.123,1.876-0.245,2.814-0.368
					c-1.124-1.458-1.23-3.605-1.744-5.33c-0.418-1.402-2.624-1.538-2.969,0c-0.315,1.405-0.06,2.913-0.475,4.274
					c0.938-0.123,1.876-0.245,2.814-0.368c-0.326-0.671-0.108-1.617-0.475-2.374c-0.689-1.421-2.869-0.683-2.869,0.777
					c0,0.791,0,1.583,0,2.374c1.026,0,2.052,0,3.079,0c-0.458-3.624-0.963-7.24-1.48-10.856c-0.631,0.631-1.262,1.262-1.894,1.894
					c2.485,0.93,4.934,1.823,7.23,3.169c0.395-0.938,0.791-1.876,1.186-2.814c-2.874-1.051-5.865-1.418-8.891-0.95
					c0.273,0.99,0.546,1.979,0.818,2.969c2.764-0.963,5.733-0.995,8.613-1.37c-0.495-0.65-0.99-1.299-1.484-1.949
					c-0.722,1.868-3.202,2.562-4.118,4.381c-0.891,1.768,1.765,3.327,2.658,1.554c1.039-2.062,3.532-2.797,4.429-5.116
					c0.334-0.864-0.539-2.072-1.484-1.949c-3.142,0.409-6.415,0.428-9.431,1.48c-1.906,0.664-1.119,3.269,0.818,2.969
					c2.463-0.381,4.941,0.104,7.254,0.95c1.676,0.613,2.656-1.952,1.186-2.814c-2.522-1.478-5.235-2.458-7.965-3.479
					c-1.23-0.46-2.041,0.864-1.894,1.894c0.477,3.343,0.946,6.687,1.37,10.037c0.241,1.909,3.079,2.042,3.079,0
					c0-0.791,0-1.583,0-2.374c-0.956,0.259-1.912,0.518-2.869,0.777c0.326,0.671,0.108,1.617,0.475,2.374
					c0.611,1.259,2.451,0.82,2.814-0.368c0.428-1.402,0.156-2.851,0.475-4.274c-0.99,0-1.979,0-2.969,0
					c0.593,1.991,0.751,4.375,2.055,6.066c0.694,0.901,2.586,1.128,2.814-0.368c0.312-2.05,0.099-4.143,0.475-6.173
					c-0.754,0.307-1.508,0.613-2.261,0.92c-0.637-0.407-0.224-0.023-0.06,0.486c0.166,0.516,0.306,1.041,0.455,1.562
					c0.246,0.864,0.449,1.863,0.953,2.623c0.667,1.006,1.985,0.972,2.658,0c1.258-1.815,0.454-4.101,1.105-6.066
					c-1.008-0.136-2.016-0.273-3.024-0.409c-0.351,2.691-0.056,5.341-0.007,8.04c0.377-0.495,0.753-0.99,1.13-1.484
					c-2.235,0.455-4.137,1.041-6.421,0.465c0.358,0.358,0.717,0.717,1.075,1.075c-0.44-3.164-0.738-6.326-0.771-9.521
					c-0.65,0.495-1.299,0.99-1.949,1.484c2.724,0.38,5.397,0.772,8.072,1.425c0-0.99,0-1.979,0-2.969
					c-2.329,0.509-4.371-1.319-6.714-1.48C77.806,52.748,77.819,55.828,79.789,55.963L79.789,55.963z"/>
			</g>
		</g>
		<g>
			<g>
				<path d="M83.947,51.789c2.438-22.185-17.695-39.854-36.462-47.318C39.027,1.107,28.744-0.767,20.017,2.68
					C11.122,6.193,7.863,15.151,7.914,24.112c0.011,1.985,3.09,1.986,3.079,0c-0.049-8.559,3.082-16.366,11.741-19.141
					c8.039-2.577,17.198-0.209,24.763,2.799c17.34,6.896,35.597,23.768,33.372,44.019C80.652,53.761,83.733,53.74,83.947,51.789
					L83.947,51.789z"/>
			</g>
		</g>
	</g>
	<g>
		<g>
			<path d="M81.731,64.579c1.985,0,1.985-3.079,0-3.079C79.746,61.501,79.746,64.579,81.731,64.579L81.731,64.579z"/>
		</g>
	</g>
</g>
</svg>
