<?xml version="1.0" encoding="utf-8"?>
<!-- Generator: Adobe Illustrator 17.0.0, SVG Export Plug-In . SVG Version: 6.00 Build 0)  -->
<!DOCTYPE svg PUBLIC "-//W3C//DTD SVG 1.1//EN" "http://www.w3.org/Graphics/SVG/1.1/DTD/svg11.dtd" [
	<!ENTITY st0 "fill:#4B4B4B;">
]>
<svg version="1.1" id="Calque_1" xmlns="http://www.w3.org/2000/svg" xmlns:xlink="http://www.w3.org/1999/xlink" x="0px" y="0px"
	 width="120.164px" height="13.453px" viewBox="0 0 120.164 13.453" style="enable-background:new 0 0 120.164 13.453;"
	 xml:space="preserve">
<g>
	<g>
		<g>
			<path d="M10.717,9.288c-0.189-1.592-0.386-3.195-0.736-4.762c-0.143-0.642-0.39-1.94-1.335-1.704
				C7.872,3.016,7.952,4.137,7.957,4.741C7.969,6.26,8.156,7.783,8.349,9.288c0.049,0.384,0.286,0.711,0.711,0.711
				c0.35,0,0.76-0.325,0.711-0.711C9.605,8,9.462,6.708,9.399,5.411C9.379,5.012,9.37,4.612,9.385,4.212
				c0.003-0.071,0.048-0.475,0.012-0.237c0.023-0.152,0.069-0.2-0.005-0.063c-0.176,0.328-0.73,0.377-0.996,0.13
				C8.262,3.917,8.3,3.907,8.343,3.981C8.445,4.153,8.32,3.885,8.403,4.129C8.52,4.472,8.596,4.831,8.671,5.185
				c0.287,1.353,0.462,2.731,0.625,4.103c0.046,0.385,0.289,0.711,0.711,0.711C10.359,9.999,10.763,9.674,10.717,9.288L10.717,9.288
				z"/>
		</g>
	</g>
	<g>
		<path style="&st0;" d="M9.059,10.022c5.682,0,10.417,0,16.099-0.734c1.894-2.201-1.894-7.336-1.894-7.336
			c-4.735,0-9.47,0-13.258,1.467L9.059,10.022z"/>
		<g>
			<path d="M9.059,10.732c4.98-0.001,9.939-0.06,14.896-0.587c2.648-0.282,2.755-2.238,2.041-4.579
				c-0.312-1.022-1.344-3.97-2.542-4.299c-2.042-0.562-5.07,0.015-7.173,0.158c-2.211,0.151-4.372,0.58-6.463,1.309
				C9.603,2.809,9.357,2.982,9.321,3.23C9.005,5.431,8.69,7.632,8.374,9.833c-0.129,0.896,1.241,1.282,1.371,0.378
				c0.266-1.857,0.533-3.714,0.799-5.571c0.201-1.404,1.21-1.062,2.655-1.383c2.503-0.556,5.152-0.552,7.702-0.587
				c1.855-0.026,1.716-0.515,2.661,1.054c0.521,0.866,2.689,4.721,0.392,5c-4.938,0.6-9.929,0.586-14.896,0.587
				C8.143,9.311,8.143,10.732,9.059,10.732z"/>
		</g>
	</g>
	<g>
		<g>
			<path d="M26.106,7.064c23.009-2.777,46.072,1.171,69.132,0.584c0.915-0.023,0.917-1.445,0-1.421
				C72.178,6.814,49.115,2.866,26.106,5.643C25.208,5.751,25.197,7.174,26.106,7.064L26.106,7.064z"/>
		</g>
	</g>
	<g>
		<path style="&st0;" d="M110.39,8.655c2.841-1,3.788-3.426,0-4.894l-0.947-0.613c-6.629,0.734-10.417-0.915-14.205,3.487
			c4.735,2.934,8.523,2.02,14.205,2.02H110.39z"/>
		<g>
			<path d="M110.749,9.752c1.171-0.673,3.183-1.95,2.824-3.62c-0.347-1.614-2.449-3.137-3.941-3.548
				c-1.248-0.343-3.343,0.201-4.672,0.238c-1.289,0.036-2.594,0.033-3.873,0.22c-2.607,0.382-4.567,1.456-6.351,3.392
				c-0.306,0.332-0.267,0.882,0.144,1.116c4.579,2.61,10.388,2.298,15.511,2.298c0.917,0,0.917-1.421,0-1.421
				c-4.805,0-10.522,0.332-14.794-2.104c0.048,0.372,0.096,0.744,0.144,1.116c2.603-2.826,5.576-3.103,9.219-3.196
				c1.255-0.032,3.726-0.67,4.683,0.072c0.48,0.372,0.612,0.403,1.307,0.719c2.824,1.284,0.109,2.9-0.918,3.491
				C109.238,8.981,109.953,10.21,110.749,9.752z"/>
		</g>
	</g>
	<g>
		<g>
			<path d="M10.195,6.368C8.969,6.076,7.691,6.025,6.436,5.97C5.844,5.944,5.251,5.925,4.659,5.896
				C4.398,5.883,4.138,5.865,3.878,5.84C3.803,5.833,3.729,5.821,3.656,5.805C3.25,5.667,3.277,6,3.737,6.804
				C5.265,5.869,7.693,6.297,9.4,6.297c0-0.474,0-0.948,0-1.421c-0.631,0-1.262,0-1.892,0c-0.703,0-1.406,0-2.11,0
				c-0.644,0-1.599-0.18-2.21,0.025c-0.7,0.236-3.3,0.747-2.958,1.989c0.272,0.989,2.123,0.693,2.839,0.68
				c1.59-0.03,3.292-0.196,4.854,0.169c0.892,0.209,1.27-1.162,0.378-1.371c-2.224-0.52-4.547-0.109-6.802-0.226
				C0.881,6.11,1.159,7.227,1.785,6.924C2.798,6.435,3.79,6.297,4.908,6.297c1.497,0,2.995,0,4.492,0c0.917,0,0.917-1.421,0-1.421
				c-1.141,0-2.281,0-3.422,0c-0.965,0-2.811,0.164-3.378,1.097C1.858,7.196,4.063,7.284,4.659,7.317
				C6.371,7.412,8.14,7.339,9.817,7.739C10.709,7.951,11.087,6.58,10.195,6.368L10.195,6.368z"/>
		</g>
	</g>
	<g>
		<g>
			<path d="M113.571,7.607c1.988-0.195,3.881-0.142,5.723-1.02c0.704-0.336,0.27-1.26-0.359-1.324
				c-2.081-0.213-4.167-0.23-6.258-0.231c-0.917,0-0.917,1.421,0,1.421c2.09,0,4.176,0.018,6.258,0.231
				c-0.12-0.441-0.239-0.883-0.359-1.324c-1.582,0.755-3.301,0.659-5.005,0.826C112.667,6.274,112.658,7.696,113.571,7.607
				L113.571,7.607z"/>
		</g>
	</g>
</g>
</svg>
