<?xml version="1.0" encoding="utf-8"?>
<!-- Generator: Adobe Illustrator 17.0.0, SVG Export Plug-In . SVG Version: 6.00 Build 0)  -->
<!DOCTYPE svg PUBLIC "-//W3C//DTD SVG 1.1//EN" "http://www.w3.org/Graphics/SVG/1.1/DTD/svg11.dtd">
<svg version="1.1" id="Calque_1" xmlns="http://www.w3.org/2000/svg" xmlns:xlink="http://www.w3.org/1999/xlink" x="0px" y="0px"
	 width="32.74px" height="59.3px" viewBox="0 0 32.74 59.3" style="enable-background:new 0 0 32.74 59.3;" xml:space="preserve">
<g>
	<g>
		<g>
			<g>
				<g>
					<g>
						<path d="M20.42,34.092c3.741,1.312,7.671,1.445,11.158-0.63c1.704-1.014,0.156-3.676-1.554-2.658
							c-2.807,1.67-5.808,1.364-8.786,0.32C19.36,30.464,18.56,33.439,20.42,34.092L20.42,34.092z"/>
					</g>
				</g>
				<g>
					<g>
						<path d="M31.811,32.542c0.998-4.684,0.119-9.492-0.42-14.18c-0.086-0.751-0.639-1.649-1.539-1.539
							c-2.264,0.274-4.402-0.338-6.648-0.475c-0.918-0.056-1.434,0.75-1.539,1.539c-0.527,3.957-1.345,7.868-1.425,11.871
							c-0.013,0.635,0.474,1.367,1.13,1.484c1.548,0.276,3.435,0.099,4.856,0.795c1.286,0.63,3.022-0.721,2.106-2.106
							c-0.706-1.068-2.966-3.525-2.528-4.962c0.448-1.467,1.32-2.781,1.733-4.299c0.263-0.966-0.482-1.949-1.484-1.949
							c-0.633,0-1.266,0-1.899,0c-0.954,0-1.813,0.991-1.484,1.949c1.161,3.38,2.115,6.4,1.844,10.037
							c1.008-0.136,2.016-0.273,3.024-0.409c-0.822-2.794-0.999-5.678-1.425-8.547c-0.938,0.395-1.876,0.791-2.814,1.186
							c0.91,1.791,0.419,4.316,0.795,6.28c0.312,1.635,2.487,1.29,2.969,0c0.684-1.831-0.372-5.062,1.029-6.443
							c-0.806-0.104-1.612-0.208-2.418-0.312c0.889,1.845,0.04,4.296,0.795,6.28c0.643,1.69,2.8,1.312,3.024-0.409
							c0.332-2.552,0.056-5.04,0-7.598c-0.044-2.033-2.854-1.925-3.079,0c-0.406,3.48-0.041,6.957,0,10.447
							c0.377-0.495,0.753-0.99,1.13-1.484c-2.014,0.556-4.479-0.53-6.595-0.53c-1.985,0-1.985,3.079,0,3.079
							c3.056,0,6.573-1.103,8.295-3.764c1.966-3.037,0.728-7.748,0.193-11.005c-0.085-0.515-0.6-0.941-1.075-1.075
							c-2.36-0.665-3.459,0.308-5.567,0.95c-1.894,0.576-1.086,3.548,0.818,2.969c1.45-0.441,2.241-1.425,3.93-0.95
							c-0.358-0.358-0.717-0.717-1.075-1.075c0.412,2.509,1.046,5.299,0.446,7.828c-0.557,2.348-3.934,3.044-5.966,3.044
							c-1.985,0-1.985,3.079,0,3.079c2.541,0,4.866,1.123,7.413,0.42c0.654-0.181,1.138-0.801,1.13-1.484
							c-0.041-3.489-0.406-6.966,0-10.447c-1.026,0-2.052,0-3.079,0c0.056,2.557,0.332,5.046,0,7.598
							c1.008-0.136,2.016-0.273,3.024-0.409c-0.868-2.281-0.022-4.768-1.105-7.016c-0.439-0.91-1.755-0.965-2.418-0.312
							c-2.276,2.244-0.828,5.146-1.82,7.802c0.99,0,1.979,0,2.969,0c-0.452-2.365,0.021-4.801-1.105-7.016
							c-0.858-1.687-3.05-0.406-2.814,1.186c0.427,2.878,0.599,5.742,1.425,8.547c0.508,1.727,2.897,1.291,3.024-0.409
							c0.291-3.91-0.703-7.212-1.954-10.856c-0.495,0.65-0.99,1.299-1.484,1.949c0.633,0,1.266,0,1.899,0
							c-0.495-0.65-0.99-1.299-1.484-1.949c-0.459,1.683-1.855,3.477-1.914,5.231c-0.079,2.333,1.817,4.584,3.019,6.402
							c0.702-0.702,1.404-1.404,2.106-2.106c-1.835-0.899-3.611-0.751-5.591-1.105c0.377,0.495,0.753,0.99,1.13,1.484
							c0.079-3.998,0.898-7.918,1.425-11.871c-0.513,0.513-1.026,1.026-1.539,1.539c2.272,0.138,4.356,0.753,6.648,0.475
							c-0.513-0.513-1.026-1.026-1.539-1.539c0.501,4.358,1.458,9.006,0.53,13.361C28.429,33.66,31.397,34.483,31.811,32.542
							L31.811,32.542z"/>
					</g>
				</g>
			</g>
			<g>
				<g>
					<path d="M10.862,47.078c-0.129-10.153-3.041-20.155-2.278-30.333c0.375-5.001,3.296-11.659,9.131-12.105
						c6.2-0.474,8.212,7.941,6.94,12.545c-0.529,1.917,2.441,2.73,2.969,0.818c1.397-5.059-0.02-10.985-4.05-14.458
						C18.947-0.441,12.87,2.251,9.338,6.221c-4.12,4.632-4.177,11.695-3.856,17.499c0.432,7.822,2.201,15.508,2.301,23.358
						C7.808,49.062,10.887,49.064,10.862,47.078L10.862,47.078z"/>
				</g>
			</g>
		</g>
		<g>
			<g>
				<path d="M4.44,48.644c1.716,0.073,3.181,0.765,4.79,1.278c1.603,0.512,3.252,0.382,4.877,0.091c1.483-0.265,1.468-2.691,0-2.969
					c-3.62-0.684-7.242-1.084-10.902-1.48c-0.832-0.09-1.545,0.768-1.539,1.539c0.019,2.497,0.216,4.947,0.586,7.415
					c0.268,1.788,0.559,3.032,2.307,3.78c2.979,1.274,7.033,0.347,10.003-0.549c0.638-0.192,1.157-0.792,1.13-1.484
					c-0.096-2.451-0.901-4.877-0.51-7.328c0.251-1.577-2.048-2.909-2.814-1.186c-0.649,1.462,0.037,4.274-0.994,5.387
					c0.726,0,1.451,0,2.177,0c-1.243-1.413-0.835-4.566-2.78-5.464c-1.256-0.58-2.527,0.354-2.261,1.738
					c0.146,0.762-0.297,5.455-0.968,4.456c-0.75-1.115-0.728-2.737-0.885-4.025c-0.269-2.218-0.096-6.367-2.058-7.868
					c-0.395,0.938-0.791,1.876-1.186,2.814c3.218,0.926,6.45,1.783,9.508,3.169c0.395-0.938,0.791-1.876,1.186-2.814
					c-3.512-1.009-7.265-1.466-10.902-1.005c0.136,1.008,0.273,2.016,0.409,3.024c3.668-1.015,7.552-0.985,11.318-1.37
					c-0.443-0.772-0.886-1.544-1.329-2.316c-1.036,2.224-4.254,2.616-5.555,4.749c-1.037,1.7,1.627,3.246,2.658,1.554
					c1.269-2.081,4.428-2.329,5.555-4.749c0.438-0.941-0.056-2.446-1.329-2.316c-4.038,0.412-8.202,0.391-12.137,1.48
					c-1.624,0.449-1.353,3.247,0.409,3.024c3.393-0.43,6.806-0.047,10.084,0.895c1.643,0.472,2.802-2.082,1.186-2.814
					c-3.31-1.5-6.758-2.476-10.243-3.479c-1.807-0.52-2.488,1.818-1.186,2.814c-0.728-0.557-0.443-0.545-0.267,0.129
					c0.153,0.586,0.244,1.191,0.344,1.788c0.211,1.25,0.36,2.51,0.513,3.767c0.236,1.943,0.41,3.859,1.535,5.532
					c1.28,1.904,3.852,1.824,5.235,0.099c1.537-1.918,1.512-5.066,1.072-7.356c-0.754,0.579-1.508,1.159-2.261,1.738
					c0.607,0.28,1.289,3.995,2.157,4.983c0.539,0.613,1.633,0.587,2.177,0c1.691-1.825,0.587-4.01,1.475-6.01
					c-0.938-0.395-1.876-0.791-2.814-1.186c-0.449,2.815,0.291,5.343,0.4,8.147c0.377-0.495,0.753-0.99,1.13-1.484
					c-2.056,0.62-4.17,0.985-6.32,0.976c-2.237-0.009-2.136-1.428-2.39-3.374c-0.229-1.751-0.276-3.518-0.289-5.281
					c-0.513,0.513-1.026,1.026-1.539,1.539c3.386,0.366,6.734,0.736,10.084,1.37c0-0.99,0-1.979,0-2.969
					c-3.12,0.557-5.762-1.349-8.849-1.48C2.454,45.481,2.462,48.56,4.44,48.644L4.44,48.644z"/>
			</g>
		</g>
	</g>
	<g>
		<g>
			<path d="M4.545,49.318c0,1.877,0,3.754,0,5.631c0,1.985,3.079,1.985,3.079,0c0-1.877,0-3.754,0-5.631
				C7.623,47.333,4.545,47.333,4.545,49.318L4.545,49.318z"/>
		</g>
	</g>
	<g>
		<g>
			<path d="M6.422,48.124c0,1.82,0,3.641,0,5.461c0,1.985,3.079,1.985,3.079,0c0-1.82,0-3.641,0-5.461
				C9.5,46.138,6.422,46.138,6.422,48.124L6.422,48.124z"/>
		</g>
	</g>
</g>
</svg>
