<?xml version="1.0" encoding="utf-8"?>
<!-- Generator: Adobe Illustrator 17.0.0, SVG Export Plug-In . SVG Version: 6.00 Build 0)  -->
<!DOCTYPE svg PUBLIC "-//W3C//DTD SVG 1.1//EN" "http://www.w3.org/Graphics/SVG/1.1/DTD/svg11.dtd">
<svg version="1.1" id="Calque_1" xmlns="http://www.w3.org/2000/svg" xmlns:xlink="http://www.w3.org/1999/xlink" x="0px" y="0px"
	 width="31.731px" height="57.402px" viewBox="0 0 31.731 57.402" enable-background="new 0 0 31.731 57.402" xml:space="preserve">
<g>
	<path fill="#FFFFFF" d="M18.881,9.454c0.789-2.156-4.073-3.086,1.639-5.768c5.47,3.144-0.151,3.641-0.241,5.826L18.881,9.454z"/>
	<g>
		<path fill="#4B4B4B" d="M19.692,9.678c0.33-1.072-0.179-1.937-0.778-2.789c-0.176-0.25-0.431-0.544-0.344-0.862
			c0.208-0.759,1.772-1.323,2.375-1.615c-0.283,0-0.566,0-0.849,0c0.63,0.372,1.73,0.88,1.974,1.645
			c0.081,0.253-0.645,0.737-0.793,0.858c-0.884,0.722-1.715,1.388-1.838,2.596c0.28-0.28,0.561-0.561,0.841-0.841
			c-0.466-0.019-0.932-0.039-1.398-0.058c-1.085-0.045-1.08,1.637,0,1.682c0.466,0.019,0.932,0.039,1.398,0.058
			c0.492,0.02,0.796-0.4,0.841-0.841c0.05-0.491,0.728-0.912,1.072-1.188c0.51-0.41,1.038-0.817,1.348-1.409
			c0.875-1.671-1.356-3.643-2.796-4.039c-0.882-0.243-2.245,0.931-2.9,1.451c-0.58,0.461-0.97,1.131-0.985,1.876
			c-0.023,1.103,1.523,2.016,1.211,3.028C17.751,10.27,19.374,10.711,19.692,9.678z"/>
	</g>
</g>
<g>
	<path fill="#FFFFFF" d="M11.037,50.396c3.247-10.808,8.585-38.307,7.977-40.521l0.639,1.485
		c0.126,13.865,0.982,27.031,1.138,40.168l-0.789,2.156c-3.615,2.768-7.079,1.896-8.995-2.561L11.037,50.396z"/>
	<g>
		<path fill="#4B4B4B" d="M11.848,50.62c2.325-7.895,3.97-16.004,5.55-24.075c0.978-4.997,3.298-11.733,2.427-16.893
			c-0.512,0.216-1.025,0.432-1.537,0.648c1.325,3.082,0.627,7.514,0.719,10.855c0.123,4.473,0.303,8.944,0.469,13.415
			c0.164,4.401,0.31,8.802,0.411,13.204c0.044,1.923,0.085,3.552-0.573,5.35c-0.966,2.639-7.56,0.261-7.436-2.728
			c0.045-1.085-1.637-1.08-1.682,0c-0.101,2.438,2.611,5.625,5.198,5.668c3.43,0.057,5.115-1.327,6.208-4.312
			c0.892-2.435-0.104-7.015-0.181-9.621c-0.131-4.426-0.312-8.851-0.475-13.276c-0.167-4.516-0.305-9.033-0.397-13.551
			c-0.047-2.31,0.066-3.82-0.808-5.853c-0.404-0.94-1.683-0.216-1.537,0.648c0.337,1.999-0.398,4.442-0.705,6.402
			c-0.566,3.609-1.253,7.199-1.954,10.784c-1.502,7.674-3.107,15.382-5.317,22.888C9.92,51.215,11.543,51.658,11.848,50.62z"/>
	</g>
</g>
<g>
	<g>
		<path fill="#84FFF5" class="ring2" d="M12.98,32.744c-1.013,0.415-2.251-0.181-3.328,0.311c-1.415,0.646-1.912,1.659-2.283,3.123
			c-0.116,0.456,0.067,0.966,0.489,1.2c6.855,3.816,14.52,5.748,22.211,3.485c0.803-0.236,0.992-1.177,0.469-1.777
			c-2.403-2.755-4.895-3.739-8.204-5.108c-1.267-0.524-1.813,1.533-0.565,2.05c2.915,1.207,5.143,2.127,7.266,4.562
			c0.156-0.592,0.313-1.184,0.469-1.777c-4.819,1.418-9.468,1.044-14.232-0.395c-1.285-0.419-2.538-0.922-3.759-1.507
			c-1.75-0.359-1.765-1.033-0.044-2.023c0.711-0.026,1.398,0.185,2.078-0.093C14.795,34.282,14.248,32.224,12.98,32.744
			L12.98,32.744z"/>
	</g>
</g>
<g>
	<g>
		<path fill="#84FFF5" class="ring3" d="M15.193,22.747c-4.09,0.227-5.809-2.287-9.241,1.139c-0.515,0.514-0.339,1.282,0.215,1.67
			c6.634,4.643,13.449,5.945,21.085,2.922c0.842-0.333,1.086-1.417,0.254-1.943c-1.871-1.184-3.348-2.221-5.455-2.963
			c-1.297-0.457-1.849,1.598-0.565,2.05c1.907,0.672,3.265,1.685,4.947,2.749c0.085-0.648,0.169-1.295,0.254-1.943
			c-7.145,2.829-13.252,1.628-19.447-2.708c0.072,0.557,0.143,1.113,0.215,1.67c2.627-2.623,4.875-0.358,7.738-0.517
			C16.556,24.798,16.564,22.672,15.193,22.747L15.193,22.747z"/>
	</g>
</g>
<g>
	<g>
		<path fill="#84FFF5" class="ring1" d="M11.007,42.978c-3.595,0.198-6.124-1.453-8.995,1.175c-0.404,0.37-0.426,1.137,0,1.503
			c7.023,6.038,15.779,8.565,24.958,8.193c0.998-0.04,1.312-1.098,0.752-1.815c-1.871-2.394-1.522-4.354-4.529-5.239
			c-1.318-0.388-1.877,1.664-0.565,2.05c1.394,0.41,2.686,3.534,3.591,4.692c0.251-0.605,0.501-1.21,0.752-1.815
			c-8.597,0.348-16.86-1.9-23.455-7.57c0,0.501,0,1.002,0,1.503c1.779-1.628,5.33-0.433,7.492-0.552
			C12.371,45.029,12.378,42.902,11.007,42.978L11.007,42.978z"/>
	</g>
</g>
<g>
	<g>
		<path fill="#84FFF5" class="ring4" d="M16.837,15.131c-2.617,0.181-4.351-3.184-5.984,0.526c-0.3,0.682-0.046,1.28,0.635,1.562
			c5.876,2.431,11.35,3.918,17.734,3.979c1.009,0.01,1.518-1.514,0.537-1.981c-2.752-1.308-5.681-2.142-8.431-3.449
			c-1.231-0.585-2.311,1.247-1.073,1.836c2.752,1.308,5.681,2.142,8.431,3.449c0.179-0.66,0.358-1.321,0.537-1.981
			c-6.208-0.059-11.476-1.548-17.169-3.903c0.212,0.521,0.424,1.041,0.635,1.562c0.493-1.12,2.908,0.612,4.149,0.526
			C18.197,17.163,18.206,15.036,16.837,15.131L16.837,15.131z"/>
	</g>
</g>
</svg>
