<?xml version="1.0" encoding="UTF-8" standalone="no"?>
<!DOCTYPE svg PUBLIC "-//W3C//DTD SVG 1.1//EN" "http://www.w3.org/Graphics/SVG/1.1/DTD/svg11.dtd">
<svg width="41px" height="44px" viewBox="0 0 41 44" version="1.1" xmlns="http://www.w3.org/2000/svg" xmlns:xlink="http://www.w3.org/1999/xlink" xml:space="preserve" xmlns:serif="http://www.serif.com/" style="fill-rule:evenodd;clip-rule:evenodd;stroke-linejoin:round;stroke-miterlimit:2;">
    <g>
        <g>
            <path d="M7.794,24.328C14.98,26.124 27.076,27.308 33.626,23.208C27.353,18.435 14.62,21.453 7.529,23.595" style="fill:rgb(75,75,75);fill-rule:nonzero;"/>
            <g>
                <path d="M7.565,25.161C15.971,27.156 26.218,28.372 34.063,23.954C34.657,23.619 34.585,22.813 34.063,22.462C26.416,17.331 15.399,20.363 7.301,22.762C6.235,23.078 6.689,24.745 7.76,24.428C15.44,22.153 25.952,19.097 33.191,23.954L33.191,22.462C25.805,26.621 15.92,25.368 8.024,23.494C6.941,23.238 6.481,24.904 7.565,25.161Z" style="fill:rgb(75,75,75);fill-rule:nonzero;"/>
            </g>
        </g>
        <g>
            <g>
                <path d="M6.457,23.618C4.815,28.87 2.978,34.064 1.172,39.262C1.009,39.73 1.355,40.176 1.775,40.325C13.745,44.552 28.174,44.017 39.847,39.084C40.186,38.941 40.352,38.439 40.244,38.109C38.563,32.949 36.921,27.582 34.372,22.774C34.234,22.513 33.919,22.339 33.626,22.346C24.847,22.559 16.068,22.772 7.289,22.985C6.177,23.012 6.174,24.74 7.289,24.713C12.978,24.575 18.666,24.437 24.355,24.299C27.199,24.23 30.044,24.161 32.888,24.092C34.018,24.065 35.938,30.921 36.643,32.892C37.223,34.516 37.776,36.15 38.321,37.786C38.788,39.188 38.533,37.807 36.663,38.512C35.326,39.016 33.936,39.372 32.556,39.735C26.222,41.398 19.501,41.579 13.008,41.031C9.759,40.757 6.573,40.057 3.465,39.095C2.984,38.946 2.664,40.224 3.119,38.91C3.364,38.203 3.608,37.496 3.852,36.789C5.31,32.565 6.789,28.343 8.122,24.078C8.456,23.011 6.789,22.559 6.457,23.618Z" style="fill:rgb(75,75,75);fill-rule:nonzero;"/>
            </g>
        </g>
        <g opacity="0.6">
            <path d="M7.29,23.848C6.149,27.57 2.005,39.492 2.005,39.492C12.444,43.425 28.936,43.025 39.412,38.338C39.412,38.338 35.685,26.853 33.627,23.209L7.29,23.848Z" style="fill:rgb(75,75,75);fill-rule:nonzero;"/>
        </g>
        <g>
            <g>
                <path d="M16.438,20.97C18.699,21.13 20.949,21.335 23.215,21.153C23.026,20.454 22.836,19.754 22.647,19.055C20.571,20.171 18.473,20.523 16.133,20.463C14.77,20.428 14.726,22.23 15.834,22.674C18.799,23.863 21.945,23.912 24.946,22.815C24.581,22.188 24.216,21.561 23.851,20.933C21.595,23.139 18.55,23.707 15.616,22.607C15.416,23.331 15.217,24.054 15.017,24.778C18.336,25.544 22.131,25.699 25.331,24.369C26.652,23.82 26.073,21.64 24.732,22.198C21.887,23.381 18.573,23.29 15.615,22.607C14.18,22.276 13.673,24.275 15.016,24.778C18.685,26.154 22.653,25.252 25.442,22.525C26.212,21.772 25.434,20.246 24.347,20.643C21.679,21.619 19.064,21.558 16.433,20.502C16.333,21.239 16.233,21.976 16.134,22.713C18.862,22.784 21.37,22.296 23.785,20.998C24.74,20.485 24.345,18.809 23.217,18.9C20.95,19.082 18.701,18.877 16.44,18.717C14.988,18.616 14.998,20.868 16.438,20.97Z" style="fill:white;fill-rule:nonzero;"/>
            </g>
        </g>
        <g>
            <g>
                <g>
                    <path d="M15.845,20.148C14.845,21.443 14.345,22.958 14.267,24.585C14.248,24.988 14.873,24.986 14.892,24.585C14.964,23.061 15.451,21.672 16.384,20.463C16.632,20.144 16.088,19.833 15.845,20.148Z" style="fill:rgb(128,128,128);fill-rule:nonzero;"/>
                </g>
            </g>
            <g>
                <g>
                    <path d="M16.024,20.916C19.113,21.942 22.467,22.032 25.608,21.182C25.997,21.077 25.832,20.474 25.442,20.579C22.402,21.401 19.178,21.305 16.19,20.313C15.806,20.185 15.643,20.789 16.024,20.916Z" style="fill:rgb(128,128,128);fill-rule:nonzero;"/>
                </g>
            </g>
            <g>
                <g>
                    <path d="M16.578,20.94C19.568,20.702 22.561,20.505 25.551,20.267C25.95,20.235 25.953,19.61 25.551,19.642C22.561,19.88 19.568,20.077 16.578,20.315C16.178,20.346 16.175,20.972 16.578,20.94Z" style="fill:rgb(128,128,128);fill-rule:nonzero;"/>
                </g>
            </g>
            <g>
                <g>
                    <path d="M16.058,19.681C18.997,20.361 22.078,20.525 25.08,20.254C25.478,20.218 25.482,19.592 25.08,19.629C22.135,19.896 19.108,19.746 16.225,19.079C15.832,18.988 15.666,19.59 16.058,19.681Z" style="fill:rgb(128,128,128);fill-rule:nonzero;"/>
                </g>
            </g>
            <g>
                <g>
                    <path d="M15.763,19.36C18.526,18.881 21.423,18.872 24.064,19.908C24.44,20.055 24.601,19.451 24.23,19.305C21.483,18.228 18.467,18.259 15.596,18.757C15.2,18.825 15.368,19.428 15.763,19.36Z" style="fill:rgb(128,128,128);fill-rule:nonzero;"/>
                </g>
            </g>
            <g>
                <g>
                    <path d="M24.379,20.458C25.575,21.583 26.565,22.861 27.522,24.19C27.755,24.514 28.298,24.202 28.062,23.874C27.075,22.502 26.056,21.177 24.821,20.015C24.528,19.74 24.085,20.181 24.379,20.458Z" style="fill:rgb(128,128,128);fill-rule:nonzero;"/>
                </g>
            </g>
            <g>
                <g>
                    <path d="M14.977,24.591C18.944,25.607 22.96,25.69 26.924,24.615C27.313,24.51 27.148,23.906 26.758,24.012C22.888,25.061 19.016,24.979 15.143,23.988C14.752,23.888 14.587,24.491 14.977,24.591Z" style="fill:rgb(128,128,128);fill-rule:nonzero;"/>
                </g>
            </g>
            <g>
                <g>
                    <path d="M15.078,23.985C18.739,24.347 22.374,24.207 26.009,23.663C26.407,23.604 26.237,23.001 25.843,23.06C22.264,23.595 18.681,23.716 15.078,23.36C14.676,23.32 14.68,23.946 15.078,23.985Z" style="fill:rgb(128,128,128);fill-rule:nonzero;"/>
                </g>
            </g>
            <g>
                <g>
                    <path d="M15.575,23.073C18.406,23.152 21.232,23.209 24.06,23.004C24.46,22.975 24.463,22.349 24.06,22.379C21.232,22.584 18.406,22.527 15.575,22.448C15.171,22.436 15.172,23.062 15.575,23.073Z" style="fill:rgb(128,128,128);fill-rule:nonzero;"/>
                </g>
            </g>
            <g>
                <g>
                    <path d="M14.642,22.738C17.995,23.1 21.306,22.891 24.631,22.389C25.029,22.329 24.859,21.727 24.465,21.786C21.19,22.28 17.939,22.468 14.642,22.112C14.241,22.069 14.245,22.695 14.642,22.738Z" style="fill:rgb(128,128,128);fill-rule:nonzero;"/>
                </g>
            </g>
            <g>
                <g>
                    <path d="M15.601,22.147C18.474,22.518 21.309,22.56 24.169,22.067C24.566,21.999 24.397,21.396 24.003,21.464C21.195,21.948 18.417,21.886 15.601,21.522C15.202,21.471 15.207,22.097 15.601,22.147Z" style="fill:rgb(128,128,128);fill-rule:nonzero;"/>
                </g>
            </g>
            <g>
                <g>
                    <path d="M13.717,22.094C17.33,21.885 20.951,21.957 24.565,21.783C24.966,21.764 24.968,21.138 24.565,21.158C20.951,21.331 17.329,21.259 13.717,21.469C13.317,21.492 13.314,22.118 13.717,22.094Z" style="fill:rgb(128,128,128);fill-rule:nonzero;"/>
                </g>
            </g>
            <g>
                <g>
                    <path d="M24.478,24.243C20.554,24.722 16.623,24.626 12.697,24.219C12.296,24.177 12.3,24.803 12.697,24.844C16.623,25.251 20.554,25.348 24.478,24.868C24.873,24.82 24.878,24.194 24.478,24.243Z" style="fill:rgb(128,128,128);fill-rule:nonzero;"/>
                </g>
            </g>
            <g>
                <g>
                    <path d="M15.522,24.924C19.008,25.323 22.495,25.396 25.974,24.897C26.372,24.84 26.202,24.237 25.808,24.294C22.387,24.784 18.948,24.69 15.523,24.298C15.122,24.253 15.127,24.879 15.522,24.924Z" style="fill:rgb(128,128,128);fill-rule:nonzero;"/>
                </g>
            </g>
            <g>
                <g>
                    <path d="M26.067,23.992C26.064,24.095 26.061,24.198 26.058,24.301C26.047,24.704 26.672,24.703 26.683,24.301C26.686,24.198 26.689,24.095 26.692,23.992C26.703,23.589 26.078,23.59 26.067,23.992Z" style="fill:rgb(128,128,128);fill-rule:nonzero;"/>
                </g>
            </g>
        </g>
        <g>
            <g>
                <path class="lever" d="M19.296,20.291C15.486,18.212 25.039,4.597 32.084,1.589C32.513,9.043 22.712,22.155 19.296,20.291Z" style="fill:rgb(61,61,61);fill-rule:nonzero;stroke:black;stroke-width:1px;"/>
            </g>
        </g>
    </g>
</svg>
