<?xml version="1.0" encoding="utf-8"?>
<!-- Generator: Adobe Illustrator 17.0.0, SVG Export Plug-In . SVG Version: 6.00 Build 0)  -->
<!DOCTYPE svg PUBLIC "-//W3C//DTD SVG 1.1//EN" "http://www.w3.org/Graphics/SVG/1.1/DTD/svg11.dtd" [
	<!ENTITY st0 "fill:#4B4B4B;">
	<!ENTITY st1 "opacity:0.6;">
	<!ENTITY st2 "fill:#FFFFFF;">
	<!ENTITY st3 "fill:#808080;">
	<!ENTITY st4 "fill:#3D3D3D;">
]>
<svg version="1.1" id="Calque_1" xmlns="http://www.w3.org/2000/svg" xmlns:xlink="http://www.w3.org/1999/xlink" x="0px" y="0px"
	 width="41px" height="44px" viewBox="0 0 41 44" style="enable-background:new 0 0 41 44;" xml:space="preserve">
<g>
	<g>
		<path style="&st0;" d="M7.794,24.328c7.186,1.796,19.282,2.98,25.832-1.12c-6.273-4.773-19.006-1.755-26.097,0.387"/>
		<g>
			<path style="&st0;" d="M7.565,25.161c8.406,1.995,18.653,3.211,26.498-1.207c0.594-0.335,0.522-1.141,0-1.492
				c-7.647-5.131-18.664-2.099-26.762,0.3c-1.066,0.316-0.612,1.983,0.459,1.666c7.68-2.275,18.192-5.331,25.431-0.474
				c0-0.497,0-0.994,0-1.492c-7.386,4.159-17.271,2.906-25.167,1.032C6.941,23.238,6.481,24.904,7.565,25.161L7.565,25.161z"/>
		</g>
	</g>
	<g>
		<g>
			<path style="&st0;" d="M6.457,23.618c-1.642,5.252-3.479,10.446-5.285,15.644c-0.163,0.468,0.183,0.914,0.603,1.063
				c11.97,4.227,26.399,3.692,38.072-1.241c0.339-0.143,0.505-0.645,0.397-0.975c-1.681-5.16-3.323-10.527-5.872-15.335
				c-0.138-0.261-0.453-0.435-0.746-0.428c-8.779,0.213-17.558,0.426-26.337,0.639c-1.112,0.027-1.115,1.755,0,1.728
				c5.689-0.138,11.377-0.276,17.066-0.414c2.844-0.069,5.689-0.138,8.533-0.207c1.13-0.027,3.05,6.829,3.755,8.8
				c0.58,1.624,1.133,3.258,1.678,4.894c0.467,1.402,0.212,0.021-1.658,0.726c-1.337,0.504-2.727,0.86-4.107,1.223
				c-6.334,1.663-13.055,1.844-19.548,1.296c-3.249-0.274-6.435-0.974-9.543-1.936c-0.481-0.149-0.801,1.129-0.346-0.185
				c0.245-0.707,0.489-1.414,0.733-2.121c1.458-4.224,2.937-8.446,4.27-12.711C8.456,23.011,6.789,22.559,6.457,23.618z"/>
		</g>
	</g>
	<g style="&st1;">
		<path style="&st0;" d="M7.29,23.848C6.149,27.57,2.005,39.492,2.005,39.492c10.439,3.933,26.931,3.533,37.407-1.154
			c0,0-3.727-11.485-5.785-15.129L7.29,23.848z"/>
	</g>
	<g>
		<g>
			<path style="&st2;" d="M16.438,20.97c2.261,0.16,4.511,0.365,6.777,0.183c-0.189-0.699-0.379-1.399-0.568-2.098
				c-2.076,1.116-4.174,1.468-6.514,1.408c-1.363-0.035-1.407,1.767-0.299,2.211c2.965,1.189,6.111,1.238,9.112,0.141
				c-0.365-0.627-0.73-1.254-1.095-1.882c-2.256,2.206-5.301,2.774-8.235,1.674c-0.2,0.724-0.399,1.447-0.599,2.171
				c3.319,0.766,7.114,0.921,10.314-0.409c1.321-0.549,0.742-2.729-0.599-2.171c-2.845,1.183-6.159,1.092-9.117,0.409
				c-1.435-0.331-1.942,1.668-0.599,2.171c3.669,1.376,7.637,0.474,10.426-2.253c0.77-0.753-0.008-2.279-1.095-1.882
				c-2.668,0.976-5.283,0.915-7.914-0.141c-0.1,0.737-0.2,1.474-0.299,2.211c2.728,0.071,5.236-0.417,7.651-1.715
				c0.955-0.513,0.56-2.189-0.568-2.098c-2.267,0.182-4.516-0.023-6.777-0.183C14.988,18.616,14.998,20.868,16.438,20.97
				L16.438,20.97z"/>
		</g>
	</g>
	<g>
		<g>
			<g>
				<path style="&st3;" d="M15.845,20.148c-1,1.295-1.5,2.81-1.578,4.437c-0.019,0.403,0.606,0.401,0.625,0
					c0.072-1.524,0.559-2.913,1.492-4.122C16.632,20.144,16.088,19.833,15.845,20.148L15.845,20.148z"/>
			</g>
		</g>
		<g>
			<g>
				<path style="&st3;" d="M16.024,20.916c3.089,1.026,6.443,1.116,9.584,0.266c0.389-0.105,0.224-0.708-0.166-0.603
					c-3.04,0.822-6.264,0.726-9.252-0.266C15.806,20.185,15.643,20.789,16.024,20.916L16.024,20.916z"/>
			</g>
		</g>
		<g>
			<g>
				<path style="&st3;" d="M16.578,20.94c2.99-0.238,5.983-0.435,8.973-0.673c0.399-0.032,0.402-0.657,0-0.625
					c-2.99,0.238-5.983,0.435-8.973,0.673C16.178,20.346,16.175,20.972,16.578,20.94L16.578,20.94z"/>
			</g>
		</g>
		<g>
			<g>
				<path style="&st3;" d="M16.058,19.681c2.939,0.68,6.02,0.844,9.022,0.573c0.398-0.036,0.402-0.662,0-0.625
					c-2.945,0.267-5.972,0.117-8.855-0.55C15.832,18.988,15.666,19.59,16.058,19.681L16.058,19.681z"/>
			</g>
		</g>
		<g>
			<g>
				<path style="&st3;" d="M15.763,19.36c2.763-0.479,5.66-0.488,8.301,0.548c0.376,0.147,0.537-0.457,0.166-0.603
					c-2.747-1.077-5.763-1.046-8.634-0.548C15.2,18.825,15.368,19.428,15.763,19.36L15.763,19.36z"/>
			</g>
		</g>
		<g>
			<g>
				<path style="&st3;" d="M24.379,20.458c1.196,1.125,2.186,2.403,3.143,3.732c0.233,0.324,0.776,0.012,0.54-0.316
					c-0.987-1.372-2.006-2.697-3.241-3.859C24.528,19.74,24.085,20.181,24.379,20.458L24.379,20.458z"/>
			</g>
		</g>
		<g>
			<g>
				<path style="&st3;" d="M14.977,24.591c3.967,1.016,7.983,1.099,11.947,0.024c0.389-0.105,0.224-0.709-0.166-0.603
					c-3.87,1.049-7.742,0.967-11.615-0.024C14.752,23.888,14.587,24.491,14.977,24.591L14.977,24.591z"/>
			</g>
		</g>
		<g>
			<g>
				<path style="&st3;" d="M15.078,23.985c3.661,0.362,7.296,0.222,10.931-0.322c0.398-0.059,0.228-0.662-0.166-0.603
					c-3.579,0.535-7.162,0.656-10.765,0.3C14.676,23.32,14.68,23.946,15.078,23.985L15.078,23.985z"/>
			</g>
		</g>
		<g>
			<g>
				<path style="&st3;" d="M15.575,23.073c2.831,0.079,5.657,0.136,8.485-0.069c0.4-0.029,0.403-0.655,0-0.625
					c-2.828,0.205-5.654,0.148-8.485,0.069C15.171,22.436,15.172,23.062,15.575,23.073L15.575,23.073z"/>
			</g>
		</g>
		<g>
			<g>
				<path style="&st3;" d="M14.642,22.738c3.353,0.362,6.664,0.153,9.989-0.349c0.398-0.06,0.228-0.662-0.166-0.603
					c-3.275,0.494-6.526,0.682-9.823,0.326C14.241,22.069,14.245,22.695,14.642,22.738L14.642,22.738z"/>
			</g>
		</g>
		<g>
			<g>
				<path style="&st3;" d="M15.601,22.147c2.873,0.371,5.708,0.413,8.568-0.08c0.397-0.068,0.228-0.671-0.166-0.603
					c-2.808,0.484-5.586,0.422-8.402,0.058C15.202,21.471,15.207,22.097,15.601,22.147L15.601,22.147z"/>
			</g>
		</g>
		<g>
			<g>
				<path style="&st3;" d="M13.717,22.094c3.613-0.209,7.234-0.137,10.848-0.311c0.401-0.019,0.403-0.645,0-0.625
					c-3.614,0.173-7.236,0.101-10.848,0.311C13.317,21.492,13.314,22.118,13.717,22.094L13.717,22.094z"/>
			</g>
		</g>
		<g>
			<g>
				<path style="&st3;" d="M24.478,24.243c-3.924,0.479-7.855,0.383-11.781-0.024c-0.401-0.042-0.397,0.584,0,0.625
					c3.926,0.407,7.857,0.504,11.781,0.024C24.873,24.82,24.878,24.194,24.478,24.243L24.478,24.243z"/>
			</g>
		</g>
		<g>
			<g>
				<path style="&st3;" d="M15.522,24.924c3.486,0.399,6.973,0.472,10.452-0.027c0.398-0.057,0.228-0.66-0.166-0.603
					c-3.421,0.49-6.86,0.396-10.285,0.004C15.122,24.253,15.127,24.879,15.522,24.924L15.522,24.924z"/>
			</g>
		</g>
		<g>
			<g>
				<path style="&st3;" d="M26.067,23.992c-0.003,0.103-0.006,0.206-0.009,0.309c-0.011,0.403,0.614,0.402,0.625,0
					c0.003-0.103,0.006-0.206,0.009-0.309C26.703,23.589,26.078,23.59,26.067,23.992L26.067,23.992z"/>
			</g>
		</g>
	</g>
	<g>
		<g>
			<path style="&st4;" d="M18.048,19.651c2.807-8.068,7.238-14.611,14.036-18.062c1.372,7.573-3.441,13.424-8.817,17.689
				C22.196,20.127,18.048,19.651,18.048,19.651z"/>
		</g>
		<g>
			<path style="&st4;" d="M18.372,19.74c1.486-4.126,3.376-7.971,6.077-11.438c1.055-1.355,2.301-2.541,3.596-3.661
				c0.767-0.635,1.571-1.216,2.413-1.744c1.656-1.092,1.523,0.731,1.508,1.985c-0.053,4.448-2.866,8.359-5.824,11.408
				c-2.383,2.456-4.742,3.378-8.093,3.025c-0.432-0.046-0.427,0.628,0,0.673c4.847,0.511,6.748-1.144,9.991-4.742
				c3.473-3.853,5.101-8.612,4.369-13.746c-0.032-0.225-0.323-0.293-0.494-0.201c-7.241,3.886-11.47,10.711-14.19,18.263
				C17.576,19.971,18.226,20.145,18.372,19.74z"/>
		</g>
	</g>
</g>
</svg>
