<?xml version="1.0" encoding="utf-8"?>
<!-- Generator: Adobe Illustrator 17.0.0, SVG Export Plug-In . SVG Version: 6.00 Build 0)  -->
<!DOCTYPE svg PUBLIC "-//W3C//DTD SVG 1.1//EN" "http://www.w3.org/Graphics/SVG/1.1/DTD/svg11.dtd" [
	<!ENTITY st0 "opacity:0.6;">
	<!ENTITY st1 "fill:#4B4B4B;">
]>
<svg version="1.1" id="Calque_1" xmlns="http://www.w3.org/2000/svg" xmlns:xlink="http://www.w3.org/1999/xlink" x="0px" y="0px"
	 width="28px" height="28px" viewBox="0 0 28 28" style="enable-background:new 0 0 28 28;" xml:space="preserve">
<g>
	<g>
		<g>
			<path d="M7.774,11.793c0.473-3.603,2.301-7.662,6.455-7.745c3.974-0.08,5.857,4.173,5.996,7.518c0.061,1.473,2.354,1.479,2.292,0
				c-0.199-4.788-2.787-9.166-7.843-9.787c-5.71-0.702-8.583,5.367-9.193,10.014C5.29,13.255,7.585,13.237,7.774,11.793
				L7.774,11.793z"/>
		</g>
	</g>
	<g>
		<g>
			<path d="M2.511,10.666c-0.593,2.379-1.063,4.686-1.233,7.129c-0.11,1.578,0.516,2.916,0.108,4.449
				C1.264,22.7,1.448,23.33,1.912,23.538c7.663,3.442,16.477,3.944,23.514-1.195c-0.575-0.33-1.15-0.66-1.725-0.99
				c0.004,0.284,0.009,0.567,0.013,0.851c0.021,1.377,1.784,1.451,2.251,0.305c1.711-4.197,0.305-9.265-3.33-11.961
				c0.137,0.523,0.274,1.045,0.411,1.568c0.298-0.572,0.597-1.144,0.895-1.715c0.494-0.946-0.562-2.266-1.568-1.568
				c-5.68,3.939-12.969,3.805-19.363,1.898c0.169,0.639,0.337,1.277,0.506,1.916c0.303-0.288,0.606-0.576,0.908-0.865
				c1.072-1.021-0.551-2.639-1.621-1.621c-0.303,0.288-0.606,0.576-0.908,0.865c-0.639,0.609-0.3,1.675,0.506,1.916
				c6.938,2.07,14.978,2.137,21.129-2.129c-0.523-0.523-1.045-1.045-1.568-1.568c-0.298,0.572-0.597,1.144-0.895,1.715
				c-0.314,0.601-0.109,1.182,0.411,1.568c2.869,2.128,3.56,6.224,2.276,9.373c0.75,0.102,1.501,0.203,2.251,0.305
				c-0.004-0.284-0.009-0.567-0.013-0.851c-0.012-0.797-0.993-1.524-1.725-0.99c-4.664,3.405-10.095,4.124-15.687,3.089
				c-0.983-0.213-1.951-0.485-2.902-0.814c-2.179-0.681-2.18,0.571-1.724-1.143c0.222-0.833-0.437-4.688-0.387-3.701
				c-0.107-2.123,0.639-4.467,1.151-6.52C5.079,9.841,2.869,9.232,2.511,10.666z"/>
		</g>
	</g>
	<g style="&st0;">
		<path style="&st1;" d="M3.616,10.971c-0.869,3.416-1.738,6.833-0.764,10.221l-0.361,1.357c8.116,3.938,16.894,3.143,22.357-1.195
			l0.013,0.851c1.791-3.431-0.012-9.008-2.803-10.667l0.895-1.715c-4.555,3.473-12.835,4.451-20.246,2.013L3.616,10.971z"/>
	</g>
</g>
</svg>
