<?xml version="1.0" encoding="utf-8"?>
<!-- Generator: Adobe Illustrator 17.0.0, SVG Export Plug-In . SVG Version: 6.00 Build 0)  -->
<!DOCTYPE svg PUBLIC "-//W3C//DTD SVG 1.1//EN" "http://www.w3.org/Graphics/SVG/1.1/DTD/svg11.dtd">
<svg version="1.1" id="Calque_1" xmlns="http://www.w3.org/2000/svg" xmlns:xlink="http://www.w3.org/1999/xlink" x="0px" y="0px"
	 width="33.774px" height="61.735px" viewBox="0 0 33.774 61.735" style="enable-background:new 0 0 33.774 61.735;"
	 xml:space="preserve">
<g>
	<g>
		<path d="M9.533,22.836c-1.735,0.64-3.374,0.359-4.895,1.497c-0.584,0.436-0.686,1.594,0.229,1.753
			c5.194,0.907,10.383,1.374,15.653,0.967c1.254-0.097,1.214-1.774,0-1.919c-4.37-0.519-8.695-1.347-13.065-1.866
			c-1.227-0.146-1.213,1.775,0,1.919c4.37,0.519,8.695,1.347,13.065,1.866c0-0.64,0-1.279,0-1.919
			c-5.101,0.393-10.109-0.02-15.143-0.899c0.076,0.584,0.153,1.169,0.229,1.753c1.257-0.94,3.01-0.777,4.437-1.303
			C11.193,24.262,10.696,22.407,9.533,22.836L9.533,22.836z"/>
	</g>
</g>
<g>
	<g>
		<path d="M9.533,17.836c-1.735,0.64-3.374,0.359-4.895,1.497c-0.584,0.436-0.686,1.594,0.229,1.753
			c5.194,0.907,10.383,1.374,15.653,0.967c1.254-0.097,1.214-1.774,0-1.919c-4.37-0.519-8.695-1.347-13.065-1.866
			c-1.227-0.146-1.213,1.775,0,1.919c4.37,0.519,8.695,1.347,13.065,1.866c0-0.64,0-1.279,0-1.919
			c-5.101,0.393-10.109-0.02-15.143-0.899c0.076,0.584,0.153,1.169,0.229,1.753c1.257-0.94,3.01-0.777,4.437-1.303
			C11.193,19.262,10.696,17.407,9.533,17.836L9.533,17.836z"/>
	</g>
</g>
<g>
	<g>
		<path d="M10.533,11.836c-1.735,0.64-3.374,0.359-4.895,1.497c-0.584,0.436-0.686,1.594,0.229,1.753
			c5.194,0.907,10.383,1.374,15.653,0.967c1.254-0.097,1.214-1.774,0-1.919c-4.37-0.519-8.695-1.347-13.065-1.866
			c-1.227-0.146-1.213,1.775,0,1.919c4.37,0.519,8.695,1.347,13.065,1.866c0-0.64,0-1.279,0-1.919
			c-5.101,0.393-10.109-0.02-15.143-0.899c0.076,0.584,0.153,1.169,0.229,1.753c1.257-0.94,3.01-0.777,4.437-1.303
			C12.193,13.262,11.696,11.407,10.533,11.836L10.533,11.836z"/>
	</g>
</g>
<g>
	<g>
		<path d="M9.721,33.534c-2.422,0.21-3.985-0.377-6.083,1.064c-0.837,0.575-0.453,1.664,0.484,1.788
			c6.907,0.909,13.884,0.938,20.785-0.034c0.92-0.13,0.92-1.721,0-1.85c-6.442-0.906-12.903-0.955-19.386-0.501
			c-1.227,0.086-1.235,2.005,0,1.919c6.3-0.441,12.611-0.448,18.876,0.432c0-0.617,0-1.233,0-1.85
			c-6.718,0.946-13.557,0.85-20.275-0.034c0.161,0.596,0.323,1.192,0.484,1.788c1.675-1.15,3.342-0.649,5.115-0.802
			C10.944,35.347,10.954,33.427,9.721,33.534L9.721,33.534z"/>
	</g>
</g>
<g>
	<g>
		<path d="M10.721,29.534c-2.422,0.21-3.985-0.377-6.083,1.064c-0.837,0.575-0.453,1.664,0.484,1.788
			c6.907,0.909,13.884,0.938,20.785-0.034c0.92-0.13,0.92-1.721,0-1.85c-6.442-0.906-12.903-0.955-19.386-0.501
			c-1.227,0.086-1.235,2.005,0,1.919c6.3-0.441,12.611-0.448,18.876,0.432c0-0.617,0-1.233,0-1.85
			c-6.718,0.946-13.557,0.85-20.275-0.034c0.161,0.596,0.323,1.192,0.484,1.788c1.675-1.15,3.342-0.649,5.115-0.802
			C11.944,31.347,11.954,29.427,10.721,29.534L10.721,29.534z"/>
	</g>
</g>
<g>
	<g>
		<path d="M13.987,40.333c-3.555-0.058-7.026-0.295-10.52,0.501c-1.047,0.239-0.83,1.962,0.255,1.884
			c6.962-0.499,13.877-1.387,20.785-2.367c1.131-0.161,0.757-1.814-0.255-1.884c-5.884-0.407-11.705,0.046-17.519,0.967
			c-1.219,0.193-0.7,2.042,0.51,1.85c5.65-0.895,11.297-1.294,17.009-0.899c-0.085-0.628-0.17-1.256-0.255-1.884
			c-6.74,0.957-13.484,1.812-20.275,2.299c0.085,0.628,0.17,1.256,0.255,1.884c3.321-0.757,6.64-0.488,10.01-0.432
			C15.225,42.272,15.223,40.353,13.987,40.333L13.987,40.333z"/>
	</g>
</g>
<g>
	<g>
		<path d="M11.654,43.532C8.658,43.893,5.836,43.837,3,44.966c-0.994,0.396-0.871,1.815,0.255,1.884
			c6.816,0.418,13.64,0.017,20.319-1.434c1.119-0.243,0.767-1.803-0.255-1.884c-4.996-0.399-9.953,0.017-14.931,0.467
			c-1.222,0.11-1.233,2.03,0,1.919c4.978-0.45,9.935-0.866,14.931-0.467c-0.085-0.628-0.17-1.256-0.255-1.884
			c-6.516,1.416-13.163,1.773-19.809,1.366c0.085,0.628,0.17,1.256,0.255,1.884c2.657-1.058,5.353-1.03,8.144-1.366
			C12.866,45.305,12.881,43.384,11.654,43.532L11.654,43.532z"/>
	</g>
</g>
<g>
	<g>
		<path d="M11.654,49.532C8.658,49.893,5.836,49.837,3,50.966c-0.994,0.396-0.871,1.815,0.255,1.884
			c6.816,0.418,13.64,0.017,20.319-1.434c1.119-0.243,0.767-1.803-0.255-1.884c-4.996-0.399-9.953,0.017-14.931,0.467
			c-1.222,0.11-1.233,2.03,0,1.919c4.978-0.45,9.935-0.866,14.931-0.467c-0.085-0.628-0.17-1.256-0.255-1.884
			c-6.516,1.416-13.163,1.773-19.809,1.366c0.085,0.628,0.17,1.256,0.255,1.884c2.657-1.058,5.353-1.03,8.144-1.366
			C12.866,51.305,12.881,49.384,11.654,49.532L11.654,49.532z"/>
	</g>
</g>
<g>
	<g>
		<path d="M13.062,10.507c-2.088,15.53-3.879,32.735,0,48.119c0.302,1.199,2.153,0.69,1.85-0.51
			c-3.783-15.003-2.037-31.942,0-47.099C15.075,9.808,13.226,9.286,13.062,10.507L13.062,10.507z"/>
	</g>
</g>
<g>
	<g>
		<path d="M16.282,9.447c-0.11,0.176-0.094,0.089,0.119,0.024c0.258-0.08,0.525-0.135,0.785-0.209
			c0.589-0.166,1.233-0.472,1.556-1.021c0.363-0.617,0.339-1.291,0.149-1.963c-0.154-0.542-0.455-1.054-0.743-1.532
			c-0.285-0.475-0.766-0.349-1.083-0.661c-0.424-0.417-1.218-0.362-1.507,0.194c-0.552,1.062-1.243,2.06-1.922,3.042
			c-0.525,0.759-1.386,1.439-0.853,2.423c0.821,1.517,4.33,2.583,4.563,0.151c-0.64,0-1.279,0-1.919,0
			c0.086-0.191,0.172-0.382,0.257-0.573c0.388-0.05,0.775-0.1,1.163-0.15c0.259,0.151,0.349,0.431,0.275,0.231
			c-0.064-0.172-0.118-0.348-0.174-0.523c-0.164-0.515-0.315-1.034-0.471-1.551c-0.193-0.64-0.348-1.729-0.983-2.1
			c-0.388-0.227-0.839-0.14-1.163,0.15c-0.228,0.204-0.291,0.493-0.305,0.784c0.628-0.085,1.256-0.17,1.884-0.255
			c-0.004-0.017-0.007-0.034-0.011-0.051c-0.071-0.324-0.361-0.582-0.67-0.67c-1.17-0.333-2.001,1.576-2.472,2.358
			c0.276-0.158,0.552-0.317,0.828-0.475c-1.4,0.151-1.264,1.438-0.488,2.243c0.686,0.712,1.536,1.304,2.337,1.878
			c0.657,0.471,1.719-0.316,1.409-1.083c-0.34-0.843-0.147-1.866-0.06-2.745c0.019-0.182,0.037-0.364,0.054-0.545
			c0.012-0.119,0.171-0.747-0.048-0.264c0.134-0.294,0.157-0.506,0.111-0.831c-0.064-0.451-0.539-0.655-0.925-0.704
			c-0.827-0.105-2.221,1.643-2.443,2.344c-0.247,0.782,0.71,1.549,1.409,1.083c0.091-0.06,0.176-0.128,0.255-0.203
			c-0.388,0.05-0.775,0.1-1.163,0.15c0.952,0.431,2.409,0.864,2.926-0.398c0.449-1.096-0.917-1.699-1.763-1.355
			c-1.13,0.46-0.637,2.317,0.51,1.85c0.589-0.177,0.548-0.696-0.124-1.556c-0.202-0.037-0.396-0.102-0.58-0.197
			c-0.407-0.184-0.824-0.171-1.163,0.15c0.044-0.032,0.089-0.065,0.133-0.097c0.47,0.361,0.939,0.722,1.409,1.083
			c-0.091,0.288-0.137,0.264,0.043,0.044c0.135-0.165,0.275-0.325,0.415-0.486c0.14-0.161,0.285-0.317,0.433-0.471
			c0.328-0.343,0.06,0.023-0.298-0.023c-0.308-0.235-0.617-0.47-0.925-0.704c0.104-0.621,0.086-0.729-0.057-0.323
			c-0.057,0.207-0.04,0.452-0.053,0.665c-0.03,0.462-0.089,0.923-0.132,1.384c-0.08,0.867-0.147,1.836,0.185,2.66
			c0.47-0.361,0.939-0.722,1.409-1.083c-0.686-0.492-1.555-1.023-2.071-1.694c-0.997,0.899-1.161,1.27-0.491,1.115
			c0.242-0.067,0.444-0.227,0.573-0.441c0.079-0.131,0.159-0.261,0.24-0.391c0.167-0.27,0.339-0.536,0.515-0.799
			c0.074-0.111,0.415-0.481,0.257-0.392c-0.246,0.032-0.493,0.064-0.739,0.097c0.011,0.003,0.021,0.006,0.032,0.009
			c-0.223-0.223-0.447-0.447-0.67-0.67c0.004,0.017,0.007,0.034,0.011,0.051c0.241,1.098,1.836,0.789,1.884-0.255
			c-0.086,0.191-0.172,0.382-0.257,0.573c-0.388,0.05-0.775,0.1-1.163,0.15c-0.259-0.151-0.349-0.431-0.275-0.231
			c0.064,0.172,0.118,0.348,0.174,0.523c0.164,0.515,0.315,1.034,0.471,1.551c0.193,0.64,0.348,1.729,0.983,2.1
			c0.388,0.227,0.839,0.14,1.163-0.15c0.228-0.204,0.291-0.493,0.305-0.784c0.057-1.252-1.803-1.21-1.919,0
			c0.065-0.681,0.696-0.324-0.01-0.549c-0.279-0.089-0.537-0.26-0.78-0.418c-0.542-0.354,0.349-0.063-0.304,0.639
			c0.204-0.219,0.377-0.473,0.555-0.712c0.846-1.137,1.671-2.348,2.326-3.607c-0.502,0.065-1.004,0.129-1.507,0.194
			c0.496,0.488,0.903,0.736,1.612,0.748c-0.276-0.158-0.552-0.317-0.828-0.475c0.24,0.4,0.74,1.063,0.609,1.562
			c0.047-0.178-0.011-0.033-0.148,0.042c-0.121,0.066-0.278,0.094-0.41,0.131c-0.729,0.206-1.483,0.338-1.917,1.029
			C13.965,9.53,15.626,10.492,16.282,9.447L16.282,9.447z"/>
	</g>
</g>
</svg>
