<?xml version="1.0" encoding="utf-8"?>
<!-- Generator: Adobe Illustrator 17.0.0, SVG Export Plug-In . SVG Version: 6.00 Build 0)  -->
<!DOCTYPE svg PUBLIC "-//W3C//DTD SVG 1.1//EN" "http://www.w3.org/Graphics/SVG/1.1/DTD/svg11.dtd">
<svg version="1.1" id="Calque_1" xmlns="http://www.w3.org/2000/svg" xmlns:xlink="http://www.w3.org/1999/xlink" x="0px" y="0px"
	 width="50.75px" height="11.69px" viewBox="0 0 50.75 11.69" enable-background="new 0 0 50.75 11.69" xml:space="preserve">
<g>
	<path class="fill-color" fill="#FFFFFF" d="M0.901,11.235c11.73-1.408,25.337-2.346,36.599-2.815C37.03,5.604,37.03,3.258,37.03,0.443l0.469,0.544
		C25.3,0.987,12.631,1,0.431,2h0.469c0,1,0.469,6.025,0.469,8.371L0.901,11.235z"/>
	<g>
		<path fill="#3D3D3D" d="M0.901,11.682c12.157-1.425,24.372-2.287,36.599-2.815c0.317-0.014,0.472-0.273,0.431-0.565
			c-0.542-3.885,0.84-7.837-4.104-7.834c-3.711,0.002-7.421,0.02-11.132,0.059C15.266,0.605,7.841,0.863,0.431,1.404
			c-0.568,0.041-0.582,0.893,0,0.893c0.254,0,0.61,7.659,0.084,8.712c-0.257,0.514,0.514,0.966,0.771,0.451
			c1.373-2.746,0.151-6.618,0.061-9.61C1.34,1.607,1.15,1.404,0.901,1.404c-0.817-0.034-0.362,0.22,1.364,0.76
			C4.108,2.029,5.954,1.935,7.8,1.84c3.098-0.16,6.199-0.247,9.3-0.324c6.798-0.17,13.6-0.156,20.399-0.156
			c0.39,0,0.591-0.487,0.316-0.763c-0.156-0.156-0.313-0.313-0.469-0.469c-0.275-0.275-0.763-0.074-0.763,0.316
			c0.002,0.985,1.09,7.522-0.708,7.6c-4.014,0.174-8.025,0.41-12.034,0.67C16.178,9.211,8.527,9.894,0.901,10.788
			C0.335,10.855,0.329,11.749,0.901,11.682z"/>
	</g>
</g>
<g>
	<path class="fill-color" fill="#FFFFFF" d="M46.133,3.998c0.822,3.495,4.832,1.439,2.981-1.234c-1.645-2.57-3.701,0.206-2.776,2.364"/>
	<g>
		<path fill="#3D3D3D" d="M45.984,4.039c0.266,1.045,0.981,2.093,2.189,1.947c0.978-0.118,1.616-1.031,1.573-1.977
			c-0.052-1.131-1.198-2.746-2.467-2.363c-1.37,0.413-1.521,2.432-1.089,3.524c0.072,0.183,0.371,0.103,0.298-0.082
			c-0.397-1.006-0.291-2.44,0.712-3.068c1.121-0.702,2.201,1.174,2.243,2.093c0.036,0.79-0.58,1.482-1.354,1.575
			c-1.024,0.123-1.591-0.886-1.806-1.731C46.233,3.764,45.935,3.845,45.984,4.039L45.984,4.039z"/>
	</g>
</g>
</svg>
