<?xml version="1.0" encoding="utf-8"?>
<!-- Generator: Adobe Illustrator 17.0.0, SVG Export Plug-In . SVG Version: 6.00 Build 0)  -->
<!DOCTYPE svg PUBLIC "-//W3C//DTD SVG 1.1//EN" "http://www.w3.org/Graphics/SVG/1.1/DTD/svg11.dtd">
<svg version="1.1" id="Calque_1" xmlns="http://www.w3.org/2000/svg" xmlns:xlink="http://www.w3.org/1999/xlink" x="0px" y="0px"
	 width="17.52px" height="17.32px" viewBox="0 0 17.52 17.32" enable-background="new 0 0 17.52 17.32" xml:space="preserve">
<g>
	<g>
		<g>
			<path fill="#4B4B4B" d="M4.455,9.141c0.628,2.465,2.312,4.934,5.163,4.591c2.307-0.278,3.81-2.432,3.709-4.662
				c-0.122-2.666-2.825-6.475-5.818-5.573c-3.232,0.974-3.586,5.735-2.568,8.31c0.171,0.432,0.875,0.244,0.703-0.194
				C4.705,9.243,4.956,5.86,7.32,4.379c2.643-1.655,5.19,2.769,5.288,4.937c0.085,1.862-1.369,3.494-3.193,3.713
				C7,13.319,5.664,10.938,5.157,8.948C5.041,8.493,4.339,8.686,4.455,9.141L4.455,9.141z"/>
		</g>
	</g>
	<g opacity="0.7">
		<path fill="#4B4B4B" d="M4.806,9.045c1.939,8.242,11.393,3.394,7.03-2.909c-3.879-6.06-8.727,0.485-6.545,5.575"/>
	</g>
</g>
</svg>
