<?xml version="1.0" encoding="utf-8"?>
<!-- Generator: Adobe Illustrator 17.0.0, SVG Export Plug-In . SVG Version: 6.00 Build 0)  -->
<!DOCTYPE svg PUBLIC "-//W3C//DTD SVG 1.1//EN" "http://www.w3.org/Graphics/SVG/1.1/DTD/svg11.dtd">
<svg version="1.1" xmlns="http://www.w3.org/2000/svg" xmlns:xlink="http://www.w3.org/1999/xlink" x="0px" y="0px" width="137px"
	 height="118.994px" viewBox="0 0 137 118.994" enable-background="new 0 0 137 118.994" xml:space="preserve">
<g id="Calque_1">
	<path id="levier" class="lever" d="M108.665,16.312c-0.07-0.132-0.149-0.269-0.233-0.411c0.527-2.08,0.262-4.356-1.164-6.629
		c-0.372-0.592-0.769-1.113-1.179-1.596c-1.115-3.352-3.645-6.091-7.384-4.491c-0.45-0.261-1.009-0.326-1.485-0.027
		c-0.801,0.504-1.614,1.03-2.405,1.588c-5.771,2.108-10.604,8.647-9.457,15.418c0.039,0.233,0.091,0.459,0.15,0.681
		c-0.696,4.306,0.818,8.112,6.4,9.71c0.434,0.124,0.877,0.225,1.322,0.315c-1.174,6.504-1.785,13.131-2.313,19.697
		c-0.564,7.009-1.19,14.224-0.726,21.258c0.045,0.679,0.451,1.114,0.949,1.314c-0.283,1.39-0.579,2.775-0.907,4.146
		c-0.449,1.881,2.444,2.679,2.893,0.798c3.589-15.034,4.513-31.28,4.29-46.854C105.725,31.01,113.521,25.423,108.665,16.312z
		 M89.342,25.858c-0.426-0.422-0.717-0.902-0.922-1.415c0.112,0.052,0.218,0.11,0.337,0.155c0.678,0.258,1.392,0.538,2.131,0.818
		c0.082,0.61,0.195,1.201,0.349,1.733C90.519,26.802,89.871,26.381,89.342,25.858z M93.344,58.592
		c0.142-2.241,0.312-4.476,0.471-6.693c0.116-1.609,0.243-3.222,0.378-4.836C94.017,50.915,93.744,54.767,93.344,58.592z
		 M98.827,6.521c1.509,0.126,3.07,0.931,4.601,2.661c0.021,0.077,0.042,0.154,0.062,0.23c0.01,0.039,0.015,0.079,0.024,0.118
		c-0.617-0.329-1.296-0.598-2.01-0.816c-1.084-0.746-2.207-1.364-3.314-1.759C98.401,6.807,98.612,6.66,98.827,6.521z
		 M102.975,13.765c-0.04,0.308-0.121,0.67-0.21,1.1c-0.441-0.87-0.913-1.725-1.411-2.568
		C101.888,12.731,102.436,13.226,102.975,13.765z M96.537,13.539c-0.036-0.075-0.072-0.149-0.107-0.222
		c0.161-0.688,0.294-1.13-0.011-1.643c0.48,0.693,0.824,1.589,1.12,2.329C97.201,13.857,96.868,13.701,96.537,13.539z
		 M105.07,26.113c-1.872,1.258-4.713,2.034-7.557,2.145c0.523-0.247,1.02-0.523,1.5-0.818c0.775,0.022,1.539-0.027,2.281-0.173
		c3.537-0.697,4.165-3.312,3.734-6.086c0.671-0.592,1.273-1.243,1.786-1.941C107.839,21.782,107.704,24.343,105.07,26.113z"/>
</g>
<g id="Calque_2">
	<g id="focus">
		<path class="fill-color" fill="#4B4B4B" d="M88.725,102.928c-4.055,0-9.123-2.934-12.164-6.934h-1.014c8.109-9,19.26-22.463,29.397-32.6l3.041-1.095
			c6.082,4.055,12.164,8.15,17.233,12.205L88.725,102.928z"/>
		<g>
			<path d="M88.725,101.266c-4.115-0.295-7.351-2.593-10.133-5.472c-1.294-1.339-1.259-1.623-3.044-1.623
				c0.354,0.854,0.707,1.707,1.061,2.561c7.018-7.915,13.91-15.938,21.068-23.728c3.057-3.327,6.058-7.788,10.392-9.233
				c0.535-0.178,6.512,4.691,7.359,5.273c2.977,2.042,5.892,4.169,8.73,6.4c0-0.707,0-1.414,0-2.121
				c-12.164,9.461-24.328,18.922-36.492,28.383c-1.526,1.187,0.614,3.294,2.121,2.121c12.164-9.461,24.328-18.922,36.492-28.383
				c0.594-0.462,0.589-1.658,0-2.121c-5.636-4.43-11.575-8.423-17.536-12.399c-2.256-1.504-6.036,2.434-7.214,3.638
				c-9.426,9.632-18.105,19.969-27.041,30.048c-0.846,0.955-0.307,2.561,1.061,2.561c0.976,0,4.685,4.045,5.959,4.864
				c2.17,1.395,4.68,2.05,7.219,2.232C90.656,104.405,90.643,101.404,88.725,101.266z"/>
		</g>
	</g>
</g>
</svg>
