<?xml version="1.0" encoding="utf-8"?>
<!-- Generator: Adobe Illustrator 17.0.0, SVG Export Plug-In . SVG Version: 6.00 Build 0)  -->
<!DOCTYPE svg PUBLIC "-//W3C//DTD SVG 1.1//EN" "http://www.w3.org/Graphics/SVG/1.1/DTD/svg11.dtd">
<svg version="1.1" id="Calque_1" xmlns="http://www.w3.org/2000/svg" xmlns:xlink="http://www.w3.org/1999/xlink" x="0px" y="0px"
	 width="274px" height="100px" viewBox="0 0 274 100" enable-background="new 0 0 274 100" xml:space="preserve">
<g>
	<g>
		<path fill="#3D3D3D" d="M57.237,50.089c-0.206-4.012-0.224-8.037-0.225-12.054c0-0.418-0.391-0.674-0.778-0.593
			c-3.542,0.743-7.261,0.841-10.873,0.848c-0.335,0.001-0.615,0.279-0.615,0.615c0,3.771,0.032,7.542,0.225,11.309
			c0.015,0.3,0.27,0.661,0.615,0.615c3.673-0.49,7.352,0.094,11.036-0.125c0.788-0.047,0.792-1.277,0-1.23
			c-3.684,0.219-7.363-0.365-11.036,0.125c0.205,0.205,0.41,0.41,0.615,0.615c-0.194-3.767-0.225-7.538-0.225-11.309
			c-0.205,0.205-0.41,0.41-0.615,0.615c3.725-0.007,7.545-0.125,11.2-0.892c-0.259-0.198-0.519-0.395-0.778-0.593
			c0.002,4.017,0.019,8.042,0.225,12.054C56.048,50.878,57.278,50.882,57.237,50.089z"/>
	</g>
</g>
<g>
	<path fill="#3D3D3D" d="M56.622,65.371c-0.225-4.06-0.225-12.054-0.225-12.054c-3.829,0.87-11.036,0.87-11.036,0.87
		c0,2.61,0,7.249,0.225,11.309C49.19,64.916,53.019,65.661,56.622,65.371z"/>
	<g>
		<path fill="#3D3D3D" d="M57.237,65.371c-0.206-4.012-0.224-8.037-0.225-12.054c0-0.418-0.391-0.674-0.778-0.593
			c-3.542,0.743-7.261,0.841-10.873,0.848c-0.335,0.001-0.615,0.279-0.615,0.615c0,3.771,0.032,7.542,0.225,11.309
			c0.015,0.3,0.27,0.661,0.615,0.615c3.673-0.49,7.352,0.094,11.036-0.125c0.788-0.047,0.792-1.277,0-1.23
			c-3.684,0.219-7.363-0.365-11.036,0.125c0.205,0.205,0.41,0.41,0.615,0.615c-0.194-3.767-0.225-7.538-0.225-11.309
			c-0.205,0.205-0.41,0.41-0.615,0.615c3.725-0.007,7.545-0.125,11.2-0.892c-0.259-0.198-0.519-0.395-0.778-0.593
			c0.002,4.017,0.019,8.042,0.225,12.054C56.048,66.16,57.278,66.164,57.237,65.371z"/>
	</g>
</g>
<g>
	<g>
		<path fill="#3D3D3D" d="M42.965,34.714c-0.206-4.012-0.224-8.037-0.225-12.054c0-0.418-0.391-0.674-0.778-0.593
			c-3.542,0.743-7.261,0.841-10.873,0.848c-0.335,0.001-0.615,0.279-0.615,0.615c0,3.771,0.032,7.542,0.225,11.309
			c0.015,0.3,0.27,0.661,0.615,0.615c3.673-0.49,7.352,0.094,11.036-0.125c0.788-0.047,0.792-1.277,0-1.23
			c-3.684,0.219-7.363-0.365-11.036,0.125c0.205,0.205,0.41,0.41,0.615,0.615c-0.194-3.767-0.225-7.538-0.225-11.309
			c-0.205,0.205-0.41,0.41-0.615,0.615c3.725-0.007,7.545-0.125,11.2-0.892c-0.259-0.198-0.519-0.395-0.778-0.593
			c0.002,4.017,0.019,8.042,0.225,12.054C41.775,35.503,43.005,35.507,42.965,34.714z"/>
	</g>
</g>
<g>
	<g>
		<path fill="#3D3D3D" d="M57.237,34.714c-0.206-4.012-0.224-8.037-0.225-12.054c0-0.418-0.391-0.674-0.778-0.593
			c-3.542,0.743-7.261,0.841-10.873,0.848c-0.335,0.001-0.615,0.279-0.615,0.615c0,3.771,0.032,7.542,0.225,11.309
			c0.015,0.3,0.27,0.661,0.615,0.615c3.673-0.49,7.352,0.094,11.036-0.125c0.788-0.047,0.792-1.277,0-1.23
			c-3.684,0.219-7.363-0.365-11.036,0.125c0.205,0.205,0.41,0.41,0.615,0.615c-0.194-3.767-0.225-7.538-0.225-11.309
			c-0.205,0.205-0.41,0.41-0.615,0.615c3.725-0.007,7.545-0.125,11.2-0.892c-0.259-0.198-0.519-0.395-0.778-0.593
			c0.002,4.017,0.019,8.042,0.225,12.054C56.048,35.503,57.278,35.507,57.237,34.714z"/>
	</g>
</g>
<g>
	<g>
		<path fill="#3D3D3D" d="M23.168,29.19c0.113,0.272,0.142,0.559,0.409,0.73c0.247,0.158,0.549,0.039,0.7-0.184
			c0.107-0.158,0.138-0.356,0.18-0.538c0.04-0.173,0.006-0.373-0.132-0.498c-0.072-0.066-0.145-0.131-0.218-0.196
			c-0.302-0.496-1.087-0.172-0.935,0.394c0.102,0.381,0.207,0.666,0.417,1.008c0.165,0.268,0.579,0.356,0.804,0.104
			c0.017-0.019,0.033-0.037,0.05-0.056c0.169-0.19,0.176-0.395,0.08-0.62c-0.203-0.475-0.857-0.629-1.318-0.607
			c-0.282,0.013-0.507,0.223-0.512,0.512c-0.042,0.194-0.003,0.211,0.117,0.052c-0.168,0.154-0.193,0.429-0.08,0.62
			c0.247,0.419,1.226,0.673,1.642,0.413c0.195-0.122,0.298-0.352,0.235-0.578c0.088,0.32-0.006,0.293,0.088,0.014
			c0.021-0.064,0.023-0.361,0.026-0.368c0.102-0.236,0.078-0.481-0.108-0.671c-0.262-0.267-0.771-0.645-1.169-0.607
			c-0.304,0.029-0.477,0.213-0.512,0.512c-0.085,0.729,0.456,1.139,0.885,1.582c0.424,0.438,1.049-0.116,0.804-0.62
			s-0.65-1.231-1.32-1.154c-0.576,0.066-0.803,0.618-0.819,1.134c-0.031,1.034,1.315,1.95,2.022,0.944
			c0.45-0.639,0.512-2.007-0.239-2.473c-1.057-0.656-1.882,0.751-1.558,1.667c0.429,1.213,2.208,0.836,2.343-0.366
			c0.096-0.854-0.99-1.254-1.655-1.316c-2.493-0.233-0.873,4.413,0.897,2.558c0.619-0.649,0.92-1.907,0.212-2.592
			c-0.763-0.738-1.889-0.218-2.144,0.687c-0.228,0.806,0.086,1.925,0.954,2.187c0.894,0.27,1.94-0.846,2.129-1.638
			c0.429-1.802-2.577-0.563-3.139-0.137c-0.503,0.381-0.91,1.104-0.237,1.562c0.634,0.432,2.072,0.499,2.636-0.039
			c1.313-1.252-1.076-4.943-2.154-2.633c-0.461,0.988-0.603,2.763,0.896,2.808c1.471,0.044,1.892-1.422,1.379-2.55
			c-0.509-1.121-1.757-1.338-2.485-0.264c-0.628,0.927-0.733,2.476,0.439,3.023c0.86,0.401,2.018,0.106,2.323-0.839
			c0.259-0.802-0.216-1.739-0.715-2.338c-0.431-0.519-1.078-0.781-1.712-0.497c-0.802,0.359-0.985,1.673-0.847,2.414
			c0.15,0.806,0.916,1.324,1.693,1.363c0.955,0.048,1.606-0.801,1.762-1.654c0.148-0.813,0.038-2.019-0.673-2.556
			c-0.604-0.456-1.325,0.246-1.659,0.69c-0.419,0.557-0.761,1.222-0.934,1.899c-0.163,0.637,0.188,1.273,0.906,0.967
			c-0.207-0.268-0.413-0.536-0.62-0.804c-0.327,0.26-0.223,0.765,0.135,0.936c0.416,0.198,0.963,0.173,1.41,0.139
			c0.343-0.027,0.855-0.095,1.01-0.461c0.092-0.217,0.086-0.402-0.032-0.61c-0.176-0.31-0.039,0.002-0.041-0.015
			c-0.013-0.135-0.005-0.274-0.005-0.409c0.004-1.002-0.292-2.332-1.612-2.033c-1.226,0.278-1.84,1.461-1.353,2.628
			c0.427,1.022,1.723,1.689,2.753,1.103c0.894-0.509,0.86-1.882,0.554-2.711c-0.35-0.946-1.338-1.557-2.254-0.896
			c-0.951,0.685-1.335,2.088-1.103,3.197c0.243,1.165,1.662,1.633,2.614,0.997c0.984-0.657,1.086-2.143,0.788-3.175
			c-0.28-0.968-1.28-1.816-2.318-1.411c-0.921,0.359-1.271,1.424-1.356,2.325c-0.083,0.889,0.248,1.997,1.161,2.332
			c0.87,0.318,2.069-0.155,2.781-0.68c1.349-0.995,0.258-2.265-0.885-2.766c-0.944-0.414-2.902-0.961-3.562,0.202
			c-0.374,0.659,0.085,1.447,0.477,1.975c0.755,1.019,1.834,1.653,2.983,0.773c1.051-0.805,1.43-2.321,0.763-3.479
			c-0.711-1.235-2.162-1.073-3.049-0.167c-0.925,0.945-1.238,2.674-0.372,3.752c0.864,1.076,2.223,0.767,3.045-0.184
			c0.85-0.983,1.015-2.588,0.115-3.599c-0.678-0.761-1.686-0.712-2.446-0.099c-0.729,0.588-1.251,1.602-1.077,2.553
			c0.215,1.179,1.388,1.632,2.463,1.695c2.21,0.129,2.192-2.353,1.34-3.731c-0.412-0.667-1.102-1.272-1.927-1.249
			c-1.072,0.03-1.696,1.176-1.989,2.061c-0.821,2.473,2.609,3.962,3.848,1.693c0.582-1.065,0.396-2.496-0.605-3.214
			c-0.858-0.615-2.13-0.292-2.769,0.471c-1.209,1.443-0.353,4.862,1.936,4.144c1.459-0.457,2.999-2.617,1.762-4.009
			c-1.347-1.516-4.039-1.052-4.245,1.102c-0.186,1.948,1.523,3.459,3.263,2.152c0.521-0.391,0.012-1.281-0.517-0.884
			c-0.808,0.607-1.467,0.428-1.701-0.577c-0.196-0.841,0.204-1.689,1.133-1.659c0.926,0.03,1.709,0.603,1.378,1.55
			c-0.22,0.632-0.943,1.345-1.633,1.406c-1.016,0.09-0.998-1.818-0.718-2.383c0.212-0.427,0.714-0.665,1.18-0.593
			c0.647,0.101,0.844,0.691,0.825,1.271c-0.037,1.145-1.445,1.97-2.123,0.788c-0.349-0.607,0.26-2.467,1.155-2.286
			c0.716,0.145,1.131,1.104,1.275,1.729c0.2,0.868-0.286,1.296-1.14,1.17c-1.201-0.177-1.522-1.149-0.791-2.086
			c0.234-0.299,0.566-0.576,0.962-0.576c0.614,0.001,0.76,1.027,0.736,1.447c-0.038,0.636-0.545,1.327-1.141,1.54
			c-0.875,0.312-1.148-0.952-1.046-1.557c0.108-0.637,0.545-1.336,1.181-1.545c0.867-0.285,1.086,1.024,0.945,1.581
			c-0.135,0.536-0.681,1.284-1.315,1.178c-0.493-0.083-0.927-0.825-1.151-1.235c-0.117-0.215-0.127-0.402-0.103-0.444
			c-0.023,0.04,0.013-0.015,0.118-0.066c0.011-0.005,0.204-0.046,0.274-0.052c0.609-0.054,1.267,0.114,1.821,0.357
			c0.25,0.11,0.505,0.244,0.713,0.423c0.085,0.073,0.156,0.153,0.196,0.214c0.033,0.051,0.047,0.144,0.054,0.091
			c-0.07,0.481-1.473,0.954-1.95,0.876c-0.898-0.147-0.634-1.724-0.375-2.264c0.149-0.31,0.399-0.606,0.773-0.525
			c0.612,0.134,0.76,0.958,0.775,1.474c0.014,0.478-0.128,1.209-0.637,1.405c-0.746,0.287-0.963-0.52-0.935-1.065
			c0.028-0.549,0.311-1.226,0.766-1.553c0.433-0.312,0.68,0.409,0.757,0.707c0.086,0.331,0.126,0.97-0.192,1.207
			c-0.519,0.387-1.195-0.295-1.343-0.744c-0.186-0.565,0.173-1.044,0.745-1.117c0.4-0.051,0.304,0.925,0.303,1.161
			c-0.001,0.193,0.008,0.38,0.042,0.57c0.122,0.682,0.486-0.32,0.222-0.244c-0.207,0.059-0.44,0.048-0.653,0.047
			c-0.114-0.001-0.228-0.01-0.342-0.02c-0.531-0.047,0.943-0.072,0.001,0.677c0.497-0.395-0.137-1.01-0.62-0.804
			c0.493-0.21,0.575,0.391,0.583,0.244c-0.004,0.071,0.04-0.152,0.033-0.128c0.042-0.165,0.104-0.327,0.172-0.483
			c0.176-0.404,0.399-0.809,0.684-1.145c0.068-0.08,0.173-0.214,0.27-0.254c0.037-0.015-0.079-0.081-0.015,0.074
			c0.243,0.587,0.278,1.398-0.07,1.944c-0.211,0.33-0.652,0.307-0.945,0.132c-0.479-0.286-0.332-1.02-0.155-1.432
			c0.342-0.793,0.97,0.378,1.096,0.755c0.062,0.184,0.176,0.611-0.023,0.761c-0.485,0.366-1.121-0.019-1.144-0.57
			c-0.009-0.221,0.359-1.481,0.752-1.169c0.226,0.179,0.311,0.503,0.372,0.769c0.104,0.453-0.117,0.649-0.572,0.705
			c-0.506,0.063,0.002-1.415,0.156-1.592c-0.147,0.169-0.163-0.026,0.031,0.261c0.155,0.23,0.246,0.49,0.319,0.755
			c0.138,0.506,0.151,0.726-0.354,0.73c-0.248,0.002-0.5-0.006-0.745-0.051C22.543,29.812,22.72,29.75,22.728,30
			c0.005,0.164,0.07-0.011,0.212-0.112c0.212-0.151,0.453-0.279,0.693-0.379c0.228-0.095,0.465-0.168,0.707-0.22
			c0.348-0.074,0.214,0.094,0.116-0.198c-0.024-0.071,0.016-0.128-0.043-0.011c-0.098,0.194-0.247,0.353-0.394,0.509
			c-0.192,0.203-0.461,0.445-0.607,0.1c-0.111-0.262-0.141-0.619-0.018-0.882c0.111-0.238,0.433-0.124,0.492,0.099
			c0.077,0.29-0.119,0.655-0.266,0.888c-0.259,0.41-0.321,0.043-0.451-0.299c-0.254-0.67,0.405-0.494,0.82-0.222
			c0.094,0.062,0.055,0.145,0.045,0.008c0.007,0.09-0.296,0.278-0.38,0.04c-0.03-0.084-0.003-0.424,0.08-0.412
			c-0.039-0.006,0.043,0.203,0.058,0.274c0.032,0.156,0.007,0.339-0.025,0.493c-0.028,0.134-0.178,0.274-0.049,0.257
			c-0.175,0.023-0.225-0.365-0.208-0.473c0.067-0.132,0.009-0.134-0.173-0.006c0.192,0.15,0.299,0.442,0.401,0.652
			c0.268-0.207,0.536-0.413,0.804-0.62c-0.174-0.18-0.351-0.351-0.56-0.49c0.186,0.123,0.17,0.299,0.103,0.05
			c-0.029-0.108-0.14-0.314-0.128-0.418c-0.171,0.171-0.341,0.341-0.512,0.512c0.005,0,0.352,0.179,0.393,0.254
			c0-0.172,0-0.344,0-0.517c-0.12,0.277-0.301,0.839-0.217,1.142c0.078-0.193,0.157-0.385,0.235-0.578
			c0.17-0.106,0.19-0.028-0.035-0.073c-0.216-0.044-0.343-0.203-0.207,0.028c-0.027,0.207-0.053,0.413-0.08,0.62
			c0.224-0.205,0.179-0.5,0.183-0.776c-0.171,0.171-0.341,0.341-0.512,0.512c0.163-0.034,0.308-0.001,0.434,0.101
			c0.027-0.207,0.053-0.413,0.08-0.62c-0.017,0.019-0.033,0.037-0.05,0.056c0.268,0.035,0.536,0.069,0.804,0.104
			c-0.17-0.277-0.232-0.458-0.313-0.763c-0.312,0.131-0.624,0.263-0.935,0.394c0.104,0.17,0.232,0.271,0.378,0.403
			c-0.044-0.166-0.088-0.332-0.132-0.498c-0.011,0.102-0.037,0.2-0.077,0.294c0.233-0.061,0.467-0.122,0.7-0.184
			c0.169,0.263,0.218,0.303,0.148,0.117c-0.022-0.081-0.051-0.159-0.086-0.235C23.906,28.317,22.916,28.58,23.168,29.19
			L23.168,29.19z"/>
	</g>
</g>
<g>
	<g>
		<path fill="#3D3D3D" d="M24.901,28.185c0.3,0.527,0.324,1.083,0.145,1.656c-0.198,0.632,0.791,0.9,0.987,0.272
			c0.259-0.829,0.183-1.688-0.248-2.444C25.458,27.095,24.574,27.611,24.901,28.185L24.901,28.185z"/>
	</g>
</g>
<g>
	<g>
		<path fill="#3D3D3D" d="M25.982,28.184c-0.355-1.018-1.015-1.942-2.175-2.003c-1.191-0.063-1.955,1.141-2.294,2.111
			c-0.218,0.625,0.771,0.891,0.987,0.272c0.207-0.592,0.541-1.196,1.192-1.354c0.684-0.166,1.132,0.757,1.302,1.246
			C25.21,29.075,26.2,28.809,25.982,28.184L25.982,28.184z"/>
	</g>
</g>
<g>
	<g>
		<path fill="#3D3D3D" d="M22.908,26.36c-1.967,1.027-2.049,3.352-0.686,4.928c0.553,0.64,1.369,1.041,2.218,0.892
			c1.111-0.195,1.61-1.498,1.825-2.45c0.145-0.643-0.842-0.916-0.987-0.272c-0.136,0.602-0.359,1.519-1.044,1.72
			c-0.478,0.14-0.98-0.275-1.288-0.613c-0.419-0.459-0.663-1.094-0.662-1.713c0-0.75,0.511-1.279,1.141-1.608
			C24.01,26.938,23.492,26.054,22.908,26.36L22.908,26.36z"/>
	</g>
</g>
<g>
	<g>
		<path fill="#3D3D3D" d="M21.513,28.832c0.364-1.371,1.439-2.695,2.963-1.922c1.436,0.729,1.296,2.421,0.534,3.585
			c-0.363,0.554,0.524,1.066,0.884,0.517c1.124-1.717,0.951-4.045-1.02-5.046c-2.084-1.058-3.834,0.662-4.348,2.594
			C20.356,29.199,21.344,29.469,21.513,28.832L21.513,28.832z"/>
	</g>
</g>
<g>
	<g>
		<path fill="#3D3D3D" d="M20.812,27.734c-0.652,1.41-0.323,2.815,0.938,3.737c1.199,0.877,2.857,0.658,3.912-0.309
			c0.488-0.447-0.238-1.169-0.724-0.724c-1.541,1.412-4.178-0.163-3.242-2.187C21.97,27.656,21.088,27.135,20.812,27.734
			L20.812,27.734z"/>
	</g>
</g>
<g>
	<g>
		<path fill="#3D3D3D" d="M87.312,49.995c-0.206-4.012-0.224-8.037-0.225-12.054c0-0.418-0.391-0.674-0.778-0.593
			c-3.542,0.743-7.261,0.841-10.873,0.848c-0.335,0.001-0.615,0.279-0.615,0.615c0,3.771,0.031,7.542,0.225,11.309
			c0.015,0.3,0.27,0.661,0.615,0.615c3.673-0.49,7.352,0.094,11.036-0.125c0.788-0.047,0.792-1.277,0-1.23
			c-3.684,0.219-7.363-0.365-11.036,0.125c0.205,0.205,0.41,0.41,0.615,0.615c-0.194-3.767-0.225-7.538-0.225-11.309
			c-0.205,0.205-0.41,0.41-0.615,0.615c3.725-0.007,7.545-0.125,11.2-0.892c-0.259-0.198-0.519-0.395-0.778-0.593
			c0.002,4.017,0.019,8.042,0.225,12.054C86.123,50.784,87.353,50.788,87.312,49.995z"/>
	</g>
</g>
<g>
	<g>
		<path fill="#3D3D3D" d="M102.094,49.995c-0.206-4.012-0.224-8.037-0.225-12.054c0-0.418-0.391-0.674-0.778-0.593
			c-3.542,0.743-7.261,0.841-10.873,0.848c-0.335,0.001-0.615,0.279-0.615,0.615c0,3.771,0.031,7.542,0.225,11.309
			c0.015,0.3,0.27,0.661,0.615,0.615c3.673-0.49,7.352,0.094,11.036-0.125c0.788-0.047,0.792-1.277,0-1.23
			c-3.684,0.219-7.363-0.365-11.036,0.125c0.205,0.205,0.41,0.41,0.615,0.615c-0.194-3.767-0.225-7.538-0.225-11.309
			c-0.205,0.205-0.41,0.41-0.615,0.615c3.725-0.007,7.545-0.125,11.2-0.892c-0.259-0.198-0.519-0.395-0.778-0.593
			c0.002,4.017,0.019,8.042,0.225,12.054C100.905,50.784,102.135,50.788,102.094,49.995z"/>
	</g>
</g>
<g>
	<g>
		<path fill="#3D3D3D" d="M116.877,49.995c-0.206-4.012-0.224-8.037-0.225-12.054c0-0.418-0.391-0.674-0.778-0.593
			c-3.542,0.743-7.261,0.841-10.873,0.848c-0.335,0.001-0.615,0.279-0.615,0.615c0,3.771,0.032,7.542,0.225,11.309
			c0.015,0.3,0.27,0.661,0.615,0.615c3.673-0.49,7.352,0.094,11.036-0.125c0.788-0.047,0.792-1.277,0-1.23
			c-3.684,0.219-7.363-0.365-11.036,0.125c0.205,0.205,0.41,0.41,0.615,0.615c-0.194-3.767-0.225-7.538-0.225-11.309
			c-0.205,0.205-0.41,0.41-0.615,0.615c3.725-0.007,7.545-0.125,11.2-0.892c-0.259-0.198-0.519-0.395-0.778-0.593
			c0.002,4.017,0.019,8.042,0.225,12.054C115.688,50.784,116.917,50.788,116.877,49.995z"/>
	</g>
</g>
<g>
	<g>
		<path fill="#3D3D3D" d="M131.659,49.995c-0.206-4.012-0.224-8.037-0.225-12.054c0-0.418-0.391-0.674-0.778-0.593
			c-3.542,0.743-7.261,0.841-10.873,0.848c-0.335,0.001-0.615,0.279-0.615,0.615c0,3.771,0.031,7.542,0.225,11.309
			c0.015,0.3,0.27,0.661,0.615,0.615c3.673-0.49,7.352,0.094,11.036-0.125c0.788-0.047,0.792-1.277,0-1.23
			c-3.684,0.219-7.363-0.365-11.036,0.125c0.205,0.205,0.41,0.41,0.615,0.615c-0.194-3.767-0.225-7.538-0.225-11.309
			c-0.205,0.205-0.41,0.41-0.615,0.615c3.725-0.007,7.545-0.125,11.2-0.892c-0.259-0.198-0.519-0.395-0.778-0.593
			c0.002,4.017,0.019,8.042,0.225,12.054C130.47,50.784,131.7,50.788,131.659,49.995z"/>
	</g>
</g>
<g>
	<g>
		<path fill="#3D3D3D" d="M131.659,65.371c-0.206-4.012-0.224-8.037-0.225-12.054c0-0.418-0.391-0.674-0.778-0.593
			c-3.542,0.743-7.261,0.841-10.873,0.848c-0.335,0.001-0.615,0.279-0.615,0.615c0,3.771,0.031,7.542,0.225,11.309
			c0.015,0.3,0.27,0.661,0.615,0.615c3.673-0.49,7.352,0.094,11.036-0.125c0.788-0.047,0.792-1.277,0-1.23
			c-3.684,0.219-7.363-0.365-11.036,0.125c0.205,0.205,0.41,0.41,0.615,0.615c-0.194-3.767-0.225-7.538-0.225-11.309
			c-0.205,0.205-0.41,0.41-0.615,0.615c3.725-0.007,7.545-0.125,11.2-0.892c-0.259-0.198-0.519-0.395-0.778-0.593
			c0.002,4.017,0.019,8.042,0.225,12.054C130.47,66.16,131.7,66.164,131.659,65.371z"/>
	</g>
</g>
<g>
	<path fill="#3D3D3D" d="M131.044,80.652c-0.225-4.06-0.225-12.054-0.225-12.054c-3.829,0.87-11.036,0.87-11.036,0.87
		c0,2.61,0,7.249,0.225,11.309C123.612,80.197,127.441,80.942,131.044,80.652z"/>
	<g>
		<path fill="#3D3D3D" d="M131.659,80.652c-0.206-4.012-0.224-8.037-0.225-12.054c0-0.418-0.391-0.674-0.778-0.593
			c-3.542,0.743-7.261,0.841-10.873,0.848c-0.335,0.001-0.615,0.279-0.615,0.615c0,3.771,0.031,7.542,0.225,11.309
			c0.015,0.3,0.27,0.661,0.615,0.615c3.673-0.49,7.352,0.094,11.036-0.125c0.788-0.047,0.792-1.277,0-1.23
			c-3.684,0.219-7.363-0.365-11.036,0.125c0.205,0.205,0.41,0.41,0.615,0.615c-0.194-3.767-0.225-7.538-0.225-11.309
			c-0.205,0.205-0.41,0.41-0.615,0.615c3.725-0.007,7.545-0.125,11.2-0.892c-0.259-0.198-0.519-0.395-0.778-0.593
			c0.002,4.017,0.019,8.042,0.225,12.054C130.47,81.441,131.7,81.445,131.659,80.652z"/>
	</g>
</g>
<g>
	<g>
		<g>
			<path fill="#3D3D3D" d="M80.259,29.496c0.113,0.272,0.142,0.559,0.409,0.73c0.247,0.158,0.549,0.039,0.7-0.184
				c0.107-0.158,0.138-0.356,0.18-0.538c0.04-0.173,0.006-0.373-0.132-0.498c-0.072-0.066-0.145-0.131-0.218-0.196
				c-0.302-0.496-1.087-0.172-0.935,0.394c0.102,0.381,0.207,0.666,0.417,1.008c0.164,0.268,0.579,0.356,0.804,0.104
				c0.017-0.019,0.033-0.037,0.05-0.056c0.169-0.19,0.176-0.395,0.08-0.62c-0.203-0.475-0.857-0.629-1.318-0.607
				c-0.282,0.013-0.508,0.223-0.512,0.512c-0.042,0.194-0.003,0.211,0.117,0.052c-0.168,0.154-0.193,0.429-0.08,0.62
				c0.247,0.419,1.226,0.673,1.642,0.413c0.195-0.122,0.298-0.352,0.235-0.578c0.088,0.32-0.006,0.293,0.088,0.014
				c0.021-0.064,0.023-0.361,0.026-0.368c0.102-0.236,0.078-0.481-0.108-0.671c-0.262-0.267-0.771-0.645-1.169-0.607
				c-0.304,0.029-0.477,0.213-0.512,0.512c-0.085,0.729,0.456,1.139,0.885,1.582c0.424,0.438,1.049-0.116,0.804-0.62
				s-0.65-1.231-1.32-1.154c-0.576,0.066-0.803,0.618-0.819,1.134c-0.031,1.034,1.315,1.95,2.022,0.944
				c0.45-0.639,0.512-2.007-0.239-2.473c-1.057-0.656-1.882,0.751-1.558,1.667c0.429,1.213,2.208,0.836,2.343-0.366
				c0.096-0.854-0.99-1.254-1.655-1.316c-2.493-0.233-0.873,4.413,0.897,2.558c0.619-0.649,0.92-1.907,0.212-2.592
				c-0.763-0.738-1.889-0.218-2.144,0.687c-0.228,0.806,0.086,1.925,0.954,2.187c0.894,0.27,1.94-0.846,2.129-1.638
				c0.43-1.802-2.577-0.563-3.139-0.137c-0.503,0.381-0.91,1.104-0.237,1.562c0.634,0.432,2.072,0.499,2.636-0.039
				c1.313-1.252-1.076-4.943-2.154-2.633c-0.461,0.988-0.603,2.763,0.896,2.808c1.471,0.044,1.892-1.422,1.379-2.55
				c-0.51-1.121-1.757-1.338-2.485-0.264c-0.628,0.927-0.733,2.476,0.439,3.023c0.86,0.401,2.018,0.106,2.323-0.839
				c0.259-0.802-0.216-1.739-0.714-2.338c-0.431-0.519-1.078-0.781-1.712-0.497c-0.802,0.359-0.985,1.673-0.847,2.414
				c0.15,0.806,0.916,1.324,1.693,1.363c0.955,0.048,1.606-0.801,1.762-1.654c0.148-0.813,0.038-2.019-0.673-2.556
				c-0.604-0.456-1.326,0.246-1.659,0.69c-0.419,0.557-0.761,1.222-0.934,1.899c-0.163,0.637,0.188,1.273,0.906,0.967
				c-0.207-0.268-0.413-0.536-0.62-0.804c-0.327,0.26-0.223,0.765,0.135,0.936c0.416,0.198,0.963,0.173,1.41,0.139
				c0.343-0.027,0.855-0.095,1.01-0.461c0.092-0.217,0.086-0.402-0.032-0.61c-0.176-0.31-0.039,0.002-0.041-0.015
				c-0.013-0.135-0.005-0.274-0.005-0.409c0.004-1.002-0.292-2.332-1.612-2.033c-1.226,0.278-1.84,1.461-1.353,2.628
				c0.427,1.022,1.723,1.689,2.753,1.103c0.894-0.509,0.86-1.882,0.554-2.711c-0.35-0.946-1.338-1.557-2.254-0.896
				c-0.951,0.685-1.335,2.088-1.103,3.197c0.243,1.165,1.662,1.633,2.614,0.997c0.984-0.657,1.086-2.143,0.787-3.175
				c-0.28-0.968-1.28-1.816-2.318-1.411c-0.921,0.359-1.271,1.424-1.356,2.325c-0.083,0.889,0.248,1.997,1.161,2.332
				c0.87,0.318,2.069-0.155,2.781-0.68c1.349-0.995,0.258-2.265-0.885-2.766c-0.944-0.414-2.902-0.961-3.563,0.202
				c-0.374,0.659,0.085,1.447,0.477,1.975c0.755,1.019,1.834,1.653,2.983,0.773c1.051-0.805,1.43-2.321,0.763-3.479
				c-0.711-1.235-2.162-1.073-3.049-0.167c-0.925,0.945-1.238,2.674-0.372,3.752c0.864,1.076,2.223,0.767,3.045-0.184
				c0.85-0.983,1.015-2.588,0.115-3.599c-0.678-0.761-1.686-0.712-2.446-0.099c-0.729,0.588-1.251,1.602-1.077,2.553
				c0.215,1.179,1.388,1.632,2.464,1.695c2.21,0.129,2.192-2.353,1.34-3.731c-0.412-0.667-1.102-1.272-1.927-1.249
				c-1.072,0.03-1.696,1.176-1.989,2.061c-0.821,2.473,2.609,3.962,3.848,1.693c0.582-1.065,0.396-2.496-0.605-3.214
				c-0.858-0.615-2.13-0.292-2.769,0.471c-1.209,1.443-0.353,4.862,1.936,4.144c1.459-0.457,2.999-2.617,1.762-4.009
				c-1.347-1.516-4.039-1.052-4.245,1.102c-0.186,1.948,1.523,3.459,3.263,2.152c0.521-0.391,0.012-1.281-0.517-0.884
				c-0.808,0.607-1.467,0.428-1.701-0.577c-0.196-0.841,0.204-1.689,1.133-1.659c0.926,0.03,1.709,0.603,1.378,1.55
				c-0.22,0.632-0.943,1.345-1.633,1.406c-1.016,0.09-0.998-1.818-0.718-2.383c0.212-0.427,0.714-0.665,1.18-0.593
				c0.647,0.101,0.844,0.691,0.825,1.271c-0.037,1.145-1.445,1.97-2.123,0.788c-0.349-0.607,0.26-2.467,1.155-2.286
				c0.716,0.145,1.131,1.104,1.275,1.729c0.2,0.868-0.286,1.296-1.14,1.17c-1.201-0.177-1.522-1.149-0.791-2.086
				c0.234-0.299,0.566-0.576,0.962-0.576c0.614,0.001,0.76,1.027,0.736,1.447c-0.038,0.636-0.545,1.327-1.141,1.54
				c-0.875,0.312-1.148-0.952-1.046-1.557c0.108-0.637,0.545-1.336,1.181-1.545c0.867-0.285,1.086,1.024,0.945,1.581
				c-0.135,0.536-0.681,1.284-1.315,1.178c-0.493-0.083-0.927-0.825-1.151-1.235c-0.117-0.215-0.127-0.402-0.103-0.444
				c-0.023,0.04,0.013-0.015,0.118-0.066c0.011-0.005,0.204-0.046,0.274-0.052c0.609-0.054,1.267,0.114,1.821,0.357
				c0.25,0.11,0.505,0.244,0.713,0.423c0.085,0.073,0.156,0.153,0.196,0.214c0.033,0.051,0.047,0.144,0.054,0.091
				c-0.07,0.481-1.473,0.954-1.95,0.876c-0.898-0.147-0.634-1.724-0.375-2.264c0.149-0.31,0.399-0.606,0.773-0.525
				c0.612,0.134,0.76,0.958,0.775,1.474c0.014,0.478-0.128,1.209-0.637,1.405c-0.746,0.287-0.963-0.52-0.935-1.065
				c0.028-0.549,0.311-1.226,0.766-1.553c0.433-0.312,0.68,0.409,0.757,0.707c0.086,0.331,0.126,0.97-0.192,1.207
				c-0.519,0.387-1.195-0.295-1.343-0.744c-0.186-0.565,0.173-1.044,0.745-1.117c0.4-0.051,0.304,0.925,0.303,1.161
				c-0.001,0.193,0.008,0.38,0.042,0.57c0.122,0.682,0.486-0.32,0.222-0.244c-0.207,0.059-0.44,0.048-0.653,0.047
				c-0.114-0.001-0.228-0.01-0.342-0.02c-0.531-0.047,0.943-0.072,0.001,0.677c0.497-0.395-0.137-1.01-0.62-0.804
				c0.493-0.21,0.575,0.391,0.583,0.244c-0.004,0.071,0.04-0.152,0.033-0.128c0.042-0.165,0.104-0.327,0.172-0.483
				c0.176-0.404,0.399-0.809,0.684-1.145c0.068-0.08,0.173-0.214,0.27-0.254c0.037-0.015-0.079-0.081-0.015,0.074
				c0.243,0.587,0.278,1.398-0.07,1.944c-0.211,0.33-0.652,0.307-0.945,0.132c-0.479-0.286-0.332-1.02-0.155-1.432
				c0.342-0.793,0.97,0.378,1.096,0.755c0.062,0.184,0.176,0.611-0.023,0.761c-0.485,0.366-1.121-0.019-1.144-0.57
				c-0.009-0.221,0.359-1.481,0.752-1.169c0.226,0.179,0.311,0.503,0.372,0.769c0.104,0.453-0.117,0.649-0.572,0.705
				c-0.506,0.063,0.002-1.415,0.156-1.592c-0.147,0.169-0.163-0.026,0.031,0.261c0.155,0.23,0.246,0.49,0.319,0.755
				c0.138,0.506,0.151,0.726-0.354,0.73c-0.248,0.002-0.5-0.006-0.745-0.051c-0.309-0.057-0.132-0.119-0.124,0.131
				c0.005,0.164,0.07-0.011,0.212-0.112c0.212-0.151,0.453-0.279,0.693-0.379c0.228-0.095,0.466-0.168,0.707-0.22
				c0.347-0.074,0.214,0.094,0.116-0.198c-0.024-0.071,0.016-0.128-0.043-0.011c-0.098,0.194-0.247,0.353-0.394,0.509
				c-0.192,0.203-0.461,0.445-0.607,0.1c-0.11-0.262-0.141-0.619-0.018-0.882c0.111-0.238,0.433-0.124,0.492,0.099
				c0.077,0.29-0.119,0.655-0.266,0.888c-0.259,0.41-0.321,0.043-0.451-0.299c-0.254-0.67,0.405-0.494,0.82-0.222
				c0.094,0.062,0.055,0.145,0.045,0.008c0.007,0.09-0.296,0.278-0.38,0.04c-0.03-0.084-0.003-0.424,0.081-0.412
				c-0.039-0.006,0.043,0.203,0.058,0.274c0.032,0.156,0.007,0.339-0.025,0.493c-0.028,0.134-0.179,0.274-0.049,0.257
				c-0.175,0.023-0.225-0.365-0.208-0.473c0.067-0.132,0.009-0.134-0.173-0.006c0.192,0.15,0.299,0.442,0.401,0.652
				c0.268-0.207,0.536-0.413,0.804-0.62c-0.174-0.18-0.351-0.351-0.56-0.49c0.186,0.123,0.17,0.299,0.103,0.05
				c-0.029-0.108-0.14-0.314-0.128-0.418c-0.171,0.171-0.341,0.341-0.512,0.512c0.005,0,0.352,0.179,0.393,0.254
				c0-0.172,0-0.344,0-0.517c-0.12,0.277-0.301,0.839-0.217,1.142c0.078-0.193,0.157-0.385,0.235-0.578
				c0.17-0.106,0.19-0.028-0.035-0.073c-0.216-0.044-0.343-0.203-0.207,0.028c-0.027,0.207-0.053,0.413-0.08,0.62
				c0.224-0.205,0.179-0.5,0.183-0.776c-0.171,0.171-0.341,0.341-0.512,0.512c0.163-0.034,0.308-0.001,0.434,0.101
				c0.027-0.207,0.053-0.413,0.08-0.62c-0.017,0.019-0.033,0.037-0.05,0.056c0.268,0.035,0.536,0.069,0.804,0.104
				c-0.17-0.277-0.232-0.458-0.313-0.763c-0.312,0.131-0.624,0.263-0.935,0.394c0.104,0.17,0.232,0.271,0.378,0.403
				c-0.044-0.166-0.088-0.332-0.132-0.498c-0.012,0.102-0.037,0.2-0.077,0.294c0.233-0.061,0.467-0.122,0.7-0.184
				c0.169,0.263,0.218,0.302,0.148,0.117c-0.022-0.081-0.051-0.159-0.086-0.235C80.997,28.623,80.006,28.886,80.259,29.496
				L80.259,29.496z"/>
		</g>
	</g>
	<g>
		<g>
			<path fill="#3D3D3D" d="M81.992,28.492c0.3,0.527,0.324,1.083,0.145,1.656c-0.198,0.632,0.791,0.9,0.987,0.272
				c0.259-0.829,0.183-1.688-0.248-2.444C82.549,27.401,81.664,27.917,81.992,28.492L81.992,28.492z"/>
		</g>
	</g>
	<g>
		<g>
			<path fill="#3D3D3D" d="M83.072,28.49c-0.355-1.018-1.015-1.942-2.174-2.003c-1.191-0.063-1.955,1.141-2.294,2.111
				c-0.218,0.625,0.771,0.891,0.987,0.272c0.207-0.592,0.541-1.196,1.192-1.354c0.684-0.166,1.132,0.757,1.302,1.246
				C82.301,29.382,83.29,29.115,83.072,28.49L83.072,28.49z"/>
		</g>
	</g>
	<g>
		<g>
			<path fill="#3D3D3D" d="M79.998,26.666c-1.967,1.027-2.049,3.352-0.686,4.928c0.553,0.64,1.369,1.041,2.218,0.892
				c1.111-0.195,1.61-1.498,1.825-2.45c0.145-0.643-0.842-0.916-0.987-0.272c-0.136,0.602-0.359,1.519-1.044,1.72
				c-0.478,0.14-0.98-0.275-1.288-0.613c-0.419-0.459-0.663-1.094-0.662-1.713c0-0.75,0.511-1.279,1.141-1.608
				C81.1,27.244,80.583,26.361,79.998,26.666L79.998,26.666z"/>
		</g>
	</g>
	<g>
		<g>
			<path fill="#3D3D3D" d="M78.604,29.138c0.364-1.371,1.439-2.695,2.963-1.922c1.436,0.729,1.296,2.421,0.534,3.585
				c-0.363,0.554,0.524,1.066,0.884,0.517c1.124-1.717,0.951-4.045-1.02-5.046c-2.084-1.058-3.834,0.662-4.348,2.594
				C77.447,29.505,78.434,29.776,78.604,29.138L78.604,29.138z"/>
		</g>
	</g>
	<g>
		<g>
			<path fill="#3D3D3D" d="M77.902,28.04c-0.652,1.41-0.323,2.815,0.938,3.737c1.199,0.877,2.857,0.658,3.912-0.309
				c0.488-0.447-0.238-1.169-0.724-0.724c-1.541,1.412-4.178-0.163-3.242-2.187C79.061,27.962,78.179,27.442,77.902,28.04
				L77.902,28.04z"/>
		</g>
	</g>
</g>
<g>
	<g>
		<path fill="#3D3D3D" d="M166.831,49.995c-0.206-4.012-0.224-8.037-0.225-12.054c0-0.418-0.391-0.674-0.778-0.593
			c-3.542,0.743-7.261,0.841-10.873,0.848c-0.335,0.001-0.615,0.279-0.615,0.615c0,3.771,0.031,7.542,0.225,11.309
			c0.015,0.3,0.27,0.661,0.615,0.615c3.673-0.49,7.352,0.094,11.036-0.125c0.788-0.047,0.792-1.277,0-1.23
			c-3.684,0.219-7.363-0.365-11.036,0.125c0.205,0.205,0.41,0.41,0.615,0.615c-0.194-3.767-0.225-7.538-0.225-11.309
			c-0.205,0.205-0.41,0.41-0.615,0.615c3.725-0.007,7.545-0.125,11.2-0.892c-0.259-0.198-0.519-0.395-0.778-0.593
			c0.002,4.017,0.019,8.042,0.225,12.054C165.642,50.784,166.872,50.788,166.831,49.995z"/>
	</g>
</g>
<g>
	<g>
		<path fill="#3D3D3D" d="M166.831,65.371c-0.206-4.012-0.224-8.037-0.225-12.054c0-0.418-0.391-0.674-0.778-0.593
			c-3.542,0.743-7.261,0.841-10.873,0.848c-0.335,0.001-0.615,0.279-0.615,0.615c0,3.771,0.031,7.542,0.225,11.309
			c0.015,0.3,0.27,0.661,0.615,0.615c3.673-0.49,7.352,0.094,11.036-0.125c0.788-0.047,0.792-1.277,0-1.23
			c-3.684,0.219-7.363-0.365-11.036,0.125c0.205,0.205,0.41,0.41,0.615,0.615c-0.194-3.767-0.225-7.538-0.225-11.309
			c-0.205,0.205-0.41,0.41-0.615,0.615c3.725-0.007,7.545-0.125,11.2-0.892c-0.259-0.198-0.519-0.395-0.778-0.593
			c0.002,4.017,0.019,8.042,0.225,12.054C165.642,66.16,166.872,66.164,166.831,65.371z"/>
	</g>
</g>
<g>
	<g>
		<path fill="#3D3D3D" d="M182.123,65.371c-0.206-4.012-0.224-8.037-0.225-12.054c0-0.418-0.391-0.674-0.778-0.593
			c-3.542,0.743-7.261,0.841-10.873,0.848c-0.335,0.001-0.615,0.279-0.615,0.615c0,3.771,0.031,7.542,0.225,11.309
			c0.015,0.3,0.27,0.661,0.615,0.615c3.673-0.49,7.352,0.094,11.036-0.125c0.788-0.047,0.792-1.277,0-1.23
			c-3.684,0.219-7.363-0.365-11.036,0.125c0.205,0.205,0.41,0.41,0.615,0.615c-0.194-3.767-0.225-7.538-0.225-11.309
			c-0.205,0.205-0.41,0.41-0.615,0.615c3.725-0.007,7.545-0.125,11.2-0.892c-0.259-0.198-0.519-0.395-0.778-0.593
			c0.002,4.017,0.019,8.042,0.225,12.054C180.934,66.16,182.164,66.164,182.123,65.371z"/>
	</g>
</g>
<g>
	<path fill="#3D3D3D" d="M181.509,80.652c-0.225-4.06-0.225-12.054-0.225-12.054c-3.829,0.87-11.036,0.87-11.036,0.87
		c0,2.61,0,7.249,0.225,11.309C174.076,80.197,177.905,80.942,181.509,80.652z"/>
	<g>
		<path fill="#3D3D3D" d="M182.123,80.652c-0.206-4.012-0.224-8.037-0.225-12.054c0-0.418-0.391-0.674-0.778-0.593
			c-3.542,0.743-7.261,0.841-10.873,0.848c-0.335,0.001-0.615,0.279-0.615,0.615c0,3.771,0.031,7.542,0.225,11.309
			c0.015,0.3,0.27,0.661,0.615,0.615c3.673-0.49,7.352,0.094,11.036-0.125c0.788-0.047,0.792-1.277,0-1.23
			c-3.684,0.219-7.363-0.365-11.036,0.125c0.205,0.205,0.41,0.41,0.615,0.615c-0.194-3.767-0.225-7.538-0.225-11.309
			c-0.205,0.205-0.41,0.41-0.615,0.615c3.725-0.007,7.545-0.125,11.2-0.892c-0.259-0.198-0.519-0.395-0.778-0.593
			c0.002,4.017,0.019,8.042,0.225,12.054C180.934,81.441,182.164,81.445,182.123,80.652z"/>
	</g>
</g>
<g>
	<g>
		<g>
			<path fill="#3D3D3D" d="M159.268,29.496c0.113,0.272,0.142,0.559,0.409,0.73c0.247,0.158,0.549,0.039,0.7-0.184
				c0.107-0.158,0.138-0.356,0.18-0.538c0.04-0.173,0.006-0.373-0.132-0.498c-0.072-0.066-0.145-0.131-0.218-0.196
				c-0.302-0.496-1.087-0.172-0.935,0.394c0.102,0.381,0.207,0.666,0.417,1.008c0.164,0.268,0.579,0.356,0.804,0.104
				c0.017-0.019,0.033-0.037,0.05-0.056c0.169-0.19,0.176-0.395,0.08-0.62c-0.203-0.475-0.857-0.629-1.318-0.607
				c-0.282,0.013-0.507,0.223-0.512,0.512c-0.042,0.194-0.003,0.211,0.117,0.052c-0.168,0.154-0.193,0.429-0.08,0.62
				c0.247,0.419,1.226,0.673,1.642,0.413c0.195-0.122,0.298-0.352,0.235-0.578c0.088,0.32-0.006,0.293,0.088,0.014
				c0.021-0.064,0.023-0.361,0.026-0.368c0.102-0.236,0.078-0.481-0.108-0.671c-0.262-0.267-0.771-0.645-1.169-0.607
				c-0.304,0.029-0.477,0.213-0.512,0.512c-0.085,0.729,0.456,1.139,0.885,1.582c0.424,0.438,1.049-0.116,0.804-0.62
				c-0.245-0.504-0.65-1.231-1.32-1.154c-0.576,0.066-0.803,0.618-0.819,1.134c-0.031,1.034,1.315,1.95,2.022,0.944
				c0.45-0.639,0.512-2.007-0.239-2.473c-1.057-0.656-1.882,0.751-1.558,1.667c0.429,1.213,2.208,0.836,2.343-0.366
				c0.096-0.854-0.99-1.254-1.655-1.316c-2.493-0.233-0.872,4.413,0.897,2.558c0.619-0.649,0.92-1.907,0.212-2.592
				c-0.763-0.738-1.889-0.218-2.144,0.687c-0.228,0.806,0.086,1.925,0.954,2.187c0.894,0.27,1.94-0.846,2.129-1.638
				c0.429-1.802-2.577-0.563-3.139-0.137c-0.503,0.381-0.91,1.104-0.237,1.562c0.634,0.432,2.072,0.499,2.636-0.039
				c1.313-1.252-1.076-4.943-2.154-2.633c-0.461,0.988-0.603,2.763,0.896,2.808c1.471,0.044,1.892-1.422,1.379-2.55
				c-0.509-1.121-1.757-1.338-2.485-0.264c-0.628,0.927-0.733,2.476,0.439,3.023c0.86,0.401,2.018,0.106,2.323-0.839
				c0.259-0.802-0.216-1.739-0.715-2.338c-0.431-0.519-1.078-0.781-1.712-0.497c-0.802,0.359-0.985,1.673-0.847,2.414
				c0.15,0.806,0.916,1.324,1.693,1.363c0.955,0.048,1.606-0.801,1.762-1.654c0.148-0.813,0.038-2.019-0.673-2.556
				c-0.604-0.456-1.325,0.246-1.659,0.69c-0.419,0.557-0.761,1.222-0.934,1.899c-0.163,0.637,0.188,1.273,0.906,0.967
				c-0.207-0.268-0.414-0.536-0.62-0.804c-0.327,0.26-0.223,0.765,0.135,0.936c0.416,0.198,0.963,0.173,1.41,0.139
				c0.343-0.027,0.855-0.095,1.01-0.461c0.092-0.217,0.086-0.402-0.032-0.61c-0.176-0.31-0.039,0.002-0.041-0.015
				c-0.013-0.135-0.005-0.274-0.005-0.409c0.004-1.002-0.292-2.332-1.612-2.033c-1.226,0.278-1.84,1.461-1.353,2.628
				c0.427,1.022,1.723,1.689,2.753,1.103c0.894-0.509,0.86-1.882,0.554-2.711c-0.35-0.946-1.338-1.557-2.254-0.896
				c-0.951,0.685-1.335,2.088-1.103,3.197c0.243,1.165,1.662,1.633,2.614,0.997c0.984-0.657,1.086-2.143,0.787-3.175
				c-0.28-0.968-1.28-1.816-2.318-1.411c-0.921,0.359-1.271,1.424-1.356,2.325c-0.083,0.889,0.248,1.997,1.162,2.332
				c0.87,0.318,2.069-0.155,2.781-0.68c1.349-0.995,0.258-2.265-0.885-2.766c-0.944-0.414-2.902-0.961-3.562,0.202
				c-0.374,0.659,0.085,1.447,0.477,1.975c0.755,1.019,1.834,1.653,2.983,0.773c1.051-0.805,1.43-2.321,0.763-3.479
				c-0.711-1.235-2.162-1.073-3.049-0.167c-0.925,0.945-1.238,2.674-0.372,3.752c0.864,1.076,2.223,0.767,3.044-0.184
				c0.85-0.983,1.015-2.588,0.115-3.599c-0.678-0.761-1.686-0.712-2.446-0.099c-0.729,0.588-1.251,1.602-1.077,2.553
				c0.215,1.179,1.388,1.632,2.463,1.695c2.21,0.129,2.192-2.353,1.34-3.731c-0.412-0.667-1.102-1.272-1.927-1.249
				c-1.072,0.03-1.696,1.176-1.989,2.061c-0.821,2.473,2.609,3.962,3.848,1.693c0.582-1.065,0.396-2.496-0.605-3.214
				c-0.858-0.615-2.13-0.292-2.769,0.471c-1.209,1.443-0.353,4.862,1.936,4.144c1.459-0.457,2.999-2.617,1.762-4.009
				c-1.347-1.516-4.039-1.052-4.245,1.102c-0.186,1.948,1.523,3.459,3.263,2.152c0.521-0.391,0.012-1.281-0.517-0.884
				c-0.808,0.607-1.467,0.428-1.701-0.577c-0.196-0.841,0.204-1.689,1.133-1.659c0.926,0.03,1.709,0.603,1.378,1.55
				c-0.22,0.632-0.943,1.345-1.633,1.406c-1.016,0.09-0.998-1.818-0.718-2.383c0.212-0.427,0.714-0.665,1.18-0.593
				c0.647,0.101,0.844,0.691,0.825,1.271c-0.037,1.145-1.444,1.97-2.123,0.788c-0.349-0.607,0.26-2.467,1.155-2.286
				c0.716,0.145,1.131,1.104,1.274,1.729c0.2,0.868-0.286,1.296-1.14,1.17c-1.201-0.177-1.522-1.149-0.791-2.086
				c0.234-0.299,0.566-0.576,0.962-0.576c0.614,0.001,0.76,1.027,0.736,1.447c-0.038,0.636-0.545,1.327-1.141,1.54
				c-0.875,0.312-1.148-0.952-1.046-1.557c0.108-0.637,0.545-1.336,1.181-1.545c0.867-0.285,1.086,1.024,0.945,1.581
				c-0.135,0.536-0.681,1.284-1.315,1.178c-0.493-0.083-0.927-0.825-1.151-1.235c-0.117-0.215-0.127-0.402-0.103-0.444
				c-0.023,0.04,0.013-0.015,0.118-0.066c0.011-0.005,0.204-0.046,0.274-0.052c0.609-0.054,1.267,0.114,1.821,0.357
				c0.25,0.11,0.505,0.244,0.713,0.423c0.085,0.073,0.156,0.153,0.196,0.214c0.033,0.051,0.047,0.144,0.054,0.091
				c-0.07,0.481-1.473,0.954-1.95,0.876c-0.898-0.147-0.634-1.724-0.375-2.264c0.149-0.31,0.399-0.606,0.773-0.525
				c0.612,0.134,0.76,0.958,0.775,1.474c0.014,0.478-0.128,1.209-0.637,1.405c-0.746,0.287-0.963-0.52-0.935-1.065
				c0.028-0.549,0.311-1.226,0.766-1.553c0.433-0.312,0.68,0.409,0.757,0.707c0.086,0.331,0.126,0.97-0.192,1.207
				c-0.519,0.387-1.195-0.295-1.343-0.744c-0.186-0.565,0.173-1.044,0.745-1.117c0.4-0.051,0.304,0.925,0.303,1.161
				c-0.001,0.193,0.008,0.38,0.042,0.57c0.122,0.682,0.486-0.32,0.222-0.244c-0.207,0.059-0.44,0.048-0.653,0.047
				c-0.114-0.001-0.228-0.01-0.342-0.02c-0.531-0.047,0.943-0.072,0.001,0.677c0.497-0.395-0.137-1.01-0.62-0.804
				c0.493-0.21,0.575,0.391,0.583,0.244c-0.004,0.071,0.04-0.152,0.033-0.128c0.042-0.165,0.104-0.327,0.172-0.483
				c0.176-0.404,0.398-0.809,0.684-1.145c0.068-0.08,0.173-0.214,0.27-0.254c0.037-0.015-0.079-0.081-0.015,0.074
				c0.243,0.587,0.278,1.398-0.07,1.944c-0.211,0.33-0.652,0.307-0.945,0.132c-0.479-0.286-0.332-1.02-0.155-1.432
				c0.342-0.793,0.97,0.378,1.096,0.755c0.062,0.184,0.176,0.611-0.023,0.761c-0.485,0.366-1.121-0.019-1.144-0.57
				c-0.009-0.221,0.359-1.481,0.752-1.169c0.226,0.179,0.311,0.503,0.372,0.769c0.104,0.453-0.117,0.649-0.572,0.705
				c-0.506,0.063,0.002-1.415,0.156-1.592c-0.147,0.169-0.163-0.026,0.031,0.261c0.155,0.23,0.246,0.49,0.319,0.755
				c0.138,0.506,0.151,0.726-0.354,0.73c-0.248,0.002-0.5-0.006-0.745-0.051c-0.309-0.057-0.132-0.119-0.124,0.131
				c0.005,0.164,0.07-0.011,0.212-0.112c0.212-0.151,0.453-0.279,0.693-0.379c0.228-0.095,0.466-0.168,0.707-0.22
				c0.347-0.074,0.214,0.094,0.116-0.198c-0.024-0.071,0.016-0.128-0.043-0.011c-0.098,0.194-0.247,0.353-0.394,0.509
				c-0.192,0.203-0.461,0.445-0.607,0.1c-0.111-0.262-0.141-0.619-0.018-0.882c0.111-0.238,0.433-0.124,0.492,0.099
				c0.077,0.29-0.119,0.655-0.266,0.888c-0.259,0.41-0.321,0.043-0.451-0.299c-0.254-0.67,0.405-0.494,0.82-0.222
				c0.094,0.062,0.055,0.145,0.045,0.008c0.007,0.09-0.296,0.278-0.38,0.04c-0.03-0.084-0.003-0.424,0.081-0.412
				c-0.039-0.006,0.043,0.203,0.058,0.274c0.032,0.156,0.006,0.339-0.025,0.493c-0.028,0.134-0.178,0.274-0.049,0.257
				c-0.175,0.023-0.225-0.365-0.208-0.473c0.067-0.132,0.009-0.134-0.173-0.006c0.192,0.15,0.299,0.442,0.401,0.652
				c0.268-0.207,0.536-0.413,0.804-0.62c-0.174-0.18-0.351-0.351-0.56-0.49c0.186,0.123,0.17,0.299,0.103,0.05
				c-0.029-0.108-0.14-0.314-0.128-0.418c-0.171,0.171-0.341,0.341-0.512,0.512c0.005,0,0.352,0.179,0.393,0.254
				c0-0.172,0-0.344,0-0.517c-0.12,0.277-0.301,0.839-0.217,1.142c0.078-0.193,0.157-0.385,0.235-0.578
				c0.17-0.106,0.19-0.028-0.035-0.073c-0.216-0.044-0.343-0.203-0.207,0.028c-0.027,0.207-0.053,0.413-0.08,0.62
				c0.224-0.205,0.179-0.5,0.183-0.776c-0.171,0.171-0.341,0.341-0.512,0.512c0.163-0.034,0.308-0.001,0.434,0.101
				c0.027-0.207,0.053-0.413,0.08-0.62c-0.017,0.019-0.033,0.037-0.05,0.056c0.268,0.035,0.536,0.069,0.804,0.104
				c-0.17-0.277-0.232-0.458-0.313-0.763c-0.312,0.131-0.624,0.263-0.935,0.394c0.104,0.17,0.232,0.271,0.378,0.403
				c-0.044-0.166-0.088-0.332-0.132-0.498c-0.011,0.102-0.037,0.2-0.077,0.294c0.233-0.061,0.467-0.122,0.7-0.184
				c0.169,0.263,0.218,0.302,0.148,0.117c-0.022-0.081-0.051-0.159-0.086-0.235C160.007,28.623,159.016,28.886,159.268,29.496
				L159.268,29.496z"/>
		</g>
	</g>
	<g>
		<g>
			<path fill="#3D3D3D" d="M161.001,28.492c0.3,0.527,0.324,1.083,0.145,1.656c-0.198,0.632,0.791,0.9,0.987,0.272
				c0.259-0.829,0.183-1.688-0.248-2.444C161.558,27.401,160.674,27.917,161.001,28.492L161.001,28.492z"/>
		</g>
	</g>
	<g>
		<g>
			<path fill="#3D3D3D" d="M162.082,28.49c-0.355-1.018-1.015-1.942-2.174-2.003c-1.191-0.063-1.955,1.141-2.294,2.111
				c-0.218,0.625,0.771,0.891,0.987,0.272c0.207-0.592,0.541-1.196,1.192-1.354c0.684-0.166,1.132,0.757,1.302,1.246
				C161.311,29.382,162.3,29.115,162.082,28.49L162.082,28.49z"/>
		</g>
	</g>
	<g>
		<g>
			<path fill="#3D3D3D" d="M159.008,26.666c-1.967,1.027-2.049,3.352-0.686,4.928c0.553,0.64,1.369,1.041,2.219,0.892
				c1.111-0.195,1.61-1.498,1.825-2.45c0.145-0.643-0.842-0.916-0.987-0.272c-0.136,0.602-0.359,1.519-1.044,1.72
				c-0.478,0.14-0.98-0.275-1.288-0.613c-0.419-0.459-0.663-1.094-0.662-1.713c0-0.75,0.511-1.279,1.141-1.608
				C160.11,27.244,159.592,26.361,159.008,26.666L159.008,26.666z"/>
		</g>
	</g>
	<g>
		<g>
			<path fill="#3D3D3D" d="M157.613,29.138c0.364-1.371,1.439-2.695,2.963-1.922c1.436,0.729,1.296,2.421,0.534,3.585
				c-0.363,0.554,0.524,1.066,0.884,0.517c1.124-1.717,0.951-4.045-1.02-5.046c-2.084-1.058-3.834,0.662-4.348,2.594
				C156.456,29.505,157.444,29.776,157.613,29.138L157.613,29.138z"/>
		</g>
	</g>
	<g>
		<g>
			<path fill="#3D3D3D" d="M156.912,28.04c-0.652,1.41-0.323,2.815,0.938,3.737c1.199,0.877,2.857,0.658,3.912-0.309
				c0.488-0.447-0.238-1.169-0.724-0.724c-1.541,1.412-4.178-0.163-3.242-2.187C158.071,27.962,157.189,27.442,156.912,28.04
				L156.912,28.04z"/>
		</g>
	</g>
</g>
<g>
	<g>
		<path fill="#3D3D3D" d="M223.922,49.995c-0.206-4.012-0.224-8.037-0.225-12.054c0-0.418-0.391-0.674-0.778-0.593
			c-3.542,0.743-7.261,0.841-10.873,0.848c-0.335,0.001-0.615,0.279-0.615,0.615c0,3.771,0.032,7.542,0.225,11.309
			c0.015,0.3,0.27,0.661,0.615,0.615c3.673-0.49,7.352,0.094,11.036-0.125c0.788-0.047,0.792-1.277,0-1.23
			c-3.684,0.219-7.363-0.365-11.036,0.125c0.205,0.205,0.41,0.41,0.615,0.615c-0.194-3.767-0.225-7.538-0.225-11.309
			c-0.205,0.205-0.41,0.41-0.615,0.615c3.725-0.007,7.545-0.125,11.2-0.892c-0.259-0.198-0.519-0.395-0.778-0.593
			c0.002,4.017,0.019,8.042,0.225,12.054C222.733,50.784,223.963,50.788,223.922,49.995z"/>
	</g>
</g>
<g>
	<g>
		<path fill="#3D3D3D" d="M223.922,65.371c-0.206-4.012-0.224-8.037-0.225-12.054c0-0.418-0.391-0.674-0.778-0.593
			c-3.542,0.743-7.261,0.841-10.873,0.848c-0.335,0.001-0.615,0.279-0.615,0.615c0,3.771,0.032,7.542,0.225,11.309
			c0.015,0.3,0.27,0.661,0.615,0.615c3.673-0.49,7.352,0.094,11.036-0.125c0.788-0.047,0.792-1.277,0-1.23
			c-3.684,0.219-7.363-0.365-11.036,0.125c0.205,0.205,0.41,0.41,0.615,0.615c-0.194-3.767-0.225-7.538-0.225-11.309
			c-0.205,0.205-0.41,0.41-0.615,0.615c3.725-0.007,7.545-0.125,11.2-0.892c-0.259-0.198-0.519-0.395-0.778-0.593
			c0.002,4.017,0.019,8.042,0.225,12.054C222.733,66.16,223.963,66.164,223.922,65.371z"/>
	</g>
</g>
<g>
	<g>
		<path fill="#3D3D3D" d="M238.195,65.371c-0.206-4.012-0.224-8.037-0.225-12.054c0-0.418-0.391-0.674-0.778-0.593
			c-3.542,0.743-7.261,0.841-10.873,0.848c-0.335,0.001-0.615,0.279-0.615,0.615c0,3.771,0.031,7.542,0.225,11.309
			c0.015,0.3,0.27,0.661,0.615,0.615c3.673-0.49,7.352,0.094,11.036-0.125c0.788-0.047,0.792-1.277,0-1.23
			c-3.684,0.219-7.363-0.365-11.036,0.125c0.205,0.205,0.41,0.41,0.615,0.615c-0.194-3.767-0.225-7.538-0.225-11.309
			c-0.205,0.205-0.41,0.41-0.615,0.615c3.725-0.007,7.545-0.125,11.2-0.892c-0.259-0.198-0.519-0.395-0.778-0.593
			c0.002,4.017,0.019,8.042,0.225,12.054C237.006,66.16,238.235,66.164,238.195,65.371z"/>
	</g>
</g>
<g>
	<path fill="#3D3D3D" d="M251.852,65.371c-0.225-4.06-0.225-12.054-0.225-12.054c-3.829,0.87-11.036,0.87-11.036,0.87
		c0,2.61,0,7.249,0.225,11.309C244.42,64.916,248.249,65.661,251.852,65.371z"/>
	<g>
		<path fill="#3D3D3D" d="M252.467,65.371c-0.206-4.012-0.224-8.037-0.225-12.054c0-0.418-0.391-0.674-0.778-0.593
			c-3.542,0.743-7.261,0.841-10.873,0.848c-0.335,0.001-0.615,0.279-0.615,0.615c0,3.771,0.031,7.542,0.225,11.309
			c0.015,0.3,0.27,0.661,0.615,0.615c3.673-0.49,7.352,0.094,11.036-0.125c0.788-0.047,0.792-1.277,0-1.23
			c-3.684,0.219-7.363-0.365-11.036,0.125c0.205,0.205,0.41,0.41,0.615,0.615c-0.194-3.767-0.225-7.538-0.225-11.309
			c-0.205,0.205-0.41,0.41-0.615,0.615c3.725-0.007,7.545-0.125,11.2-0.892c-0.259-0.198-0.519-0.395-0.778-0.593
			c0.002,4.017,0.019,8.042,0.225,12.054C251.278,66.16,252.508,66.164,252.467,65.371z"/>
	</g>
</g>
<g>
	<g>
		<path fill="#3D3D3D" d="M223.922,34.714c-0.206-4.012-0.224-8.037-0.225-12.054c0-0.418-0.391-0.674-0.778-0.593
			c-3.542,0.743-7.261,0.841-10.873,0.848c-0.335,0.001-0.615,0.279-0.615,0.615c0,3.771,0.032,7.542,0.225,11.309
			c0.015,0.3,0.27,0.661,0.615,0.615c3.673-0.49,7.352,0.094,11.036-0.125c0.788-0.047,0.792-1.277,0-1.23
			c-3.684,0.219-7.363-0.365-11.036,0.125c0.205,0.205,0.41,0.41,0.615,0.615c-0.194-3.767-0.225-7.538-0.225-11.309
			c-0.205,0.205-0.41,0.41-0.615,0.615c3.725-0.007,7.545-0.125,11.2-0.892c-0.259-0.198-0.519-0.395-0.778-0.593
			c0.002,4.017,0.019,8.042,0.225,12.054C222.733,35.503,223.963,35.507,223.922,34.714z"/>
	</g>
</g>
<g>
	<g>
		<g>
			<path fill="#3D3D3D" d="M205.655,29.496c0.113,0.272,0.142,0.559,0.409,0.73c0.247,0.158,0.549,0.039,0.7-0.184
				c0.107-0.158,0.138-0.356,0.18-0.538c0.04-0.173,0.006-0.373-0.132-0.498c-0.072-0.066-0.145-0.131-0.218-0.196
				c-0.302-0.496-1.087-0.172-0.935,0.394c0.102,0.381,0.207,0.666,0.417,1.008c0.164,0.268,0.579,0.356,0.804,0.104
				c0.017-0.019,0.033-0.037,0.05-0.056c0.169-0.19,0.176-0.395,0.08-0.62c-0.203-0.475-0.857-0.629-1.318-0.607
				c-0.282,0.013-0.508,0.223-0.512,0.512c-0.042,0.194-0.003,0.211,0.117,0.052c-0.168,0.154-0.193,0.429-0.08,0.62
				c0.247,0.419,1.226,0.673,1.642,0.413c0.195-0.122,0.298-0.352,0.235-0.578c0.088,0.32-0.006,0.293,0.088,0.014
				c0.021-0.064,0.023-0.361,0.026-0.368c0.102-0.236,0.078-0.481-0.108-0.671c-0.262-0.267-0.771-0.645-1.169-0.607
				c-0.304,0.029-0.477,0.213-0.512,0.512c-0.085,0.729,0.456,1.139,0.885,1.582c0.424,0.438,1.049-0.116,0.804-0.62
				c-0.245-0.504-0.65-1.231-1.32-1.154c-0.576,0.066-0.803,0.618-0.819,1.134c-0.031,1.034,1.315,1.95,2.022,0.944
				c0.45-0.639,0.512-2.007-0.239-2.473c-1.057-0.656-1.882,0.751-1.558,1.667c0.429,1.213,2.208,0.836,2.343-0.366
				c0.096-0.854-0.99-1.254-1.655-1.316c-2.493-0.233-0.872,4.413,0.897,2.558c0.619-0.649,0.92-1.907,0.212-2.592
				c-0.763-0.738-1.889-0.218-2.144,0.687c-0.228,0.806,0.086,1.925,0.954,2.187c0.894,0.27,1.94-0.846,2.129-1.638
				c0.43-1.802-2.577-0.563-3.139-0.137c-0.503,0.381-0.91,1.104-0.237,1.562c0.634,0.432,2.072,0.499,2.636-0.039
				c1.313-1.252-1.076-4.943-2.154-2.633c-0.461,0.988-0.603,2.763,0.896,2.808c1.471,0.044,1.892-1.422,1.379-2.55
				c-0.51-1.121-1.757-1.338-2.485-0.264c-0.628,0.927-0.733,2.476,0.439,3.023c0.86,0.401,2.018,0.106,2.323-0.839
				c0.259-0.802-0.216-1.739-0.714-2.338c-0.431-0.519-1.078-0.781-1.712-0.497c-0.802,0.359-0.985,1.673-0.847,2.414
				c0.15,0.806,0.916,1.324,1.693,1.363c0.955,0.048,1.606-0.801,1.762-1.654c0.148-0.813,0.038-2.019-0.673-2.556
				c-0.604-0.456-1.325,0.246-1.659,0.69c-0.419,0.557-0.761,1.222-0.934,1.899c-0.163,0.637,0.188,1.273,0.906,0.967
				c-0.207-0.268-0.413-0.536-0.62-0.804c-0.327,0.26-0.224,0.765,0.135,0.936c0.416,0.198,0.963,0.173,1.41,0.139
				c0.343-0.027,0.855-0.095,1.01-0.461c0.092-0.217,0.086-0.402-0.032-0.61c-0.176-0.31-0.039,0.002-0.041-0.015
				c-0.013-0.135-0.005-0.274-0.005-0.409c0.004-1.002-0.292-2.332-1.612-2.033c-1.226,0.278-1.84,1.461-1.353,2.628
				c0.427,1.022,1.723,1.689,2.753,1.103c0.894-0.509,0.86-1.882,0.554-2.711c-0.35-0.946-1.338-1.557-2.254-0.896
				c-0.951,0.685-1.335,2.088-1.103,3.197c0.243,1.165,1.662,1.633,2.614,0.997c0.984-0.657,1.086-2.143,0.787-3.175
				c-0.28-0.968-1.28-1.816-2.318-1.411c-0.921,0.359-1.271,1.424-1.356,2.325c-0.083,0.889,0.248,1.997,1.161,2.332
				c0.87,0.318,2.069-0.155,2.781-0.68c1.349-0.995,0.258-2.265-0.885-2.766c-0.944-0.414-2.902-0.961-3.562,0.202
				c-0.374,0.659,0.085,1.447,0.477,1.975c0.755,1.019,1.834,1.653,2.983,0.773c1.051-0.805,1.43-2.321,0.763-3.479
				c-0.711-1.235-2.162-1.073-3.049-0.167c-0.925,0.945-1.238,2.674-0.372,3.752c0.864,1.076,2.223,0.767,3.045-0.184
				c0.85-0.983,1.015-2.588,0.115-3.599c-0.678-0.761-1.686-0.712-2.446-0.099c-0.729,0.588-1.251,1.602-1.077,2.553
				c0.215,1.179,1.388,1.632,2.463,1.695c2.21,0.129,2.192-2.353,1.34-3.731c-0.412-0.667-1.102-1.272-1.927-1.249
				c-1.072,0.03-1.696,1.176-1.989,2.061c-0.821,2.473,2.609,3.962,3.848,1.693c0.582-1.065,0.396-2.496-0.605-3.214
				c-0.858-0.615-2.13-0.292-2.769,0.471c-1.209,1.443-0.353,4.862,1.936,4.144c1.459-0.457,2.999-2.617,1.762-4.009
				c-1.347-1.516-4.039-1.052-4.245,1.102c-0.186,1.948,1.523,3.459,3.263,2.152c0.521-0.391,0.012-1.281-0.517-0.884
				c-0.808,0.607-1.467,0.428-1.701-0.577c-0.196-0.841,0.204-1.689,1.133-1.659c0.926,0.03,1.709,0.603,1.378,1.55
				c-0.22,0.632-0.943,1.345-1.633,1.406c-1.016,0.09-0.998-1.818-0.718-2.383c0.212-0.427,0.714-0.665,1.18-0.593
				c0.647,0.101,0.844,0.691,0.825,1.271c-0.037,1.145-1.445,1.97-2.123,0.788c-0.349-0.607,0.26-2.467,1.155-2.286
				c0.716,0.145,1.131,1.104,1.275,1.729c0.2,0.868-0.286,1.296-1.14,1.17c-1.201-0.177-1.523-1.149-0.791-2.086
				c0.234-0.299,0.566-0.576,0.962-0.576c0.614,0.001,0.76,1.027,0.736,1.447c-0.038,0.636-0.545,1.327-1.141,1.54
				c-0.875,0.312-1.148-0.952-1.046-1.557c0.108-0.637,0.545-1.336,1.181-1.545c0.867-0.285,1.086,1.024,0.945,1.581
				c-0.135,0.536-0.681,1.284-1.315,1.178c-0.493-0.083-0.927-0.825-1.151-1.235c-0.117-0.215-0.127-0.402-0.103-0.444
				c-0.023,0.04,0.013-0.015,0.118-0.066c0.011-0.005,0.204-0.046,0.274-0.052c0.609-0.054,1.267,0.114,1.821,0.357
				c0.25,0.11,0.505,0.244,0.713,0.423c0.085,0.073,0.156,0.153,0.196,0.214c0.033,0.051,0.047,0.144,0.054,0.091
				c-0.07,0.481-1.473,0.954-1.95,0.876c-0.898-0.147-0.634-1.724-0.375-2.264c0.149-0.31,0.399-0.606,0.773-0.525
				c0.612,0.134,0.76,0.958,0.775,1.474c0.014,0.478-0.128,1.209-0.637,1.405c-0.746,0.287-0.963-0.52-0.935-1.065
				c0.028-0.549,0.311-1.226,0.766-1.553c0.433-0.312,0.68,0.409,0.757,0.707c0.086,0.331,0.126,0.97-0.192,1.207
				c-0.519,0.387-1.195-0.295-1.343-0.744c-0.186-0.565,0.173-1.044,0.745-1.117c0.4-0.051,0.304,0.925,0.303,1.161
				c-0.001,0.193,0.008,0.38,0.042,0.57c0.122,0.682,0.486-0.32,0.222-0.244c-0.207,0.059-0.44,0.048-0.653,0.047
				c-0.114-0.001-0.228-0.01-0.342-0.02c-0.531-0.047,0.943-0.072,0.001,0.677c0.497-0.395-0.137-1.01-0.62-0.804
				c0.493-0.21,0.575,0.391,0.583,0.244c-0.004,0.071,0.04-0.152,0.033-0.128c0.042-0.165,0.104-0.327,0.172-0.483
				c0.176-0.404,0.399-0.809,0.684-1.145c0.068-0.08,0.173-0.214,0.27-0.254c0.037-0.015-0.079-0.081-0.015,0.074
				c0.243,0.587,0.278,1.398-0.07,1.944c-0.211,0.33-0.652,0.307-0.945,0.132c-0.479-0.286-0.332-1.02-0.155-1.432
				c0.342-0.793,0.97,0.378,1.096,0.755c0.062,0.184,0.176,0.611-0.023,0.761c-0.485,0.366-1.121-0.019-1.144-0.57
				c-0.009-0.221,0.359-1.481,0.752-1.169c0.226,0.179,0.311,0.503,0.372,0.769c0.104,0.453-0.117,0.649-0.572,0.705
				c-0.506,0.063,0.002-1.415,0.156-1.592c-0.147,0.169-0.163-0.026,0.031,0.261c0.155,0.23,0.246,0.49,0.319,0.755
				c0.138,0.506,0.151,0.726-0.354,0.73c-0.248,0.002-0.5-0.006-0.745-0.051c-0.309-0.057-0.132-0.119-0.124,0.131
				c0.005,0.164,0.07-0.011,0.212-0.112c0.212-0.151,0.453-0.279,0.693-0.379c0.228-0.095,0.466-0.168,0.707-0.22
				c0.347-0.074,0.214,0.094,0.116-0.198c-0.024-0.071,0.016-0.128-0.043-0.011c-0.098,0.194-0.247,0.353-0.394,0.509
				c-0.192,0.203-0.461,0.445-0.607,0.1c-0.111-0.262-0.141-0.619-0.018-0.882c0.111-0.238,0.433-0.124,0.492,0.099
				c0.077,0.29-0.119,0.655-0.266,0.888c-0.259,0.41-0.321,0.043-0.451-0.299c-0.254-0.67,0.405-0.494,0.82-0.222
				c0.094,0.062,0.055,0.145,0.045,0.008c0.007,0.09-0.296,0.278-0.38,0.04c-0.03-0.084-0.003-0.424,0.081-0.412
				c-0.039-0.006,0.043,0.203,0.058,0.274c0.032,0.156,0.007,0.339-0.025,0.493c-0.028,0.134-0.179,0.274-0.049,0.257
				c-0.175,0.023-0.225-0.365-0.208-0.473c0.067-0.132,0.009-0.134-0.173-0.006c0.192,0.15,0.299,0.442,0.401,0.652
				c0.268-0.207,0.536-0.413,0.804-0.62c-0.174-0.18-0.351-0.351-0.56-0.49c0.186,0.123,0.17,0.299,0.103,0.05
				c-0.029-0.108-0.14-0.314-0.128-0.418c-0.171,0.171-0.341,0.341-0.512,0.512c0.005,0,0.352,0.179,0.393,0.254
				c0-0.172,0-0.344,0-0.517c-0.12,0.277-0.301,0.839-0.217,1.142c0.078-0.193,0.157-0.385,0.235-0.578
				c0.169-0.106,0.19-0.028-0.035-0.073c-0.216-0.044-0.343-0.203-0.207,0.028c-0.027,0.207-0.053,0.413-0.08,0.62
				c0.224-0.205,0.179-0.5,0.183-0.776c-0.171,0.171-0.341,0.341-0.512,0.512c0.163-0.034,0.308-0.001,0.434,0.101
				c0.027-0.207,0.053-0.413,0.08-0.62c-0.017,0.019-0.033,0.037-0.05,0.056c0.268,0.035,0.536,0.069,0.804,0.104
				c-0.17-0.277-0.232-0.458-0.313-0.763c-0.312,0.131-0.624,0.263-0.935,0.394c0.104,0.17,0.232,0.271,0.378,0.403
				c-0.044-0.166-0.088-0.332-0.132-0.498c-0.012,0.102-0.037,0.2-0.077,0.294c0.233-0.061,0.467-0.122,0.7-0.184
				c0.169,0.263,0.218,0.302,0.148,0.117c-0.022-0.081-0.051-0.159-0.086-0.235C206.393,28.623,205.402,28.886,205.655,29.496
				L205.655,29.496z"/>
		</g>
	</g>
	<g>
		<g>
			<path fill="#3D3D3D" d="M207.387,28.492c0.3,0.527,0.324,1.083,0.145,1.656c-0.198,0.632,0.791,0.9,0.987,0.272
				c0.259-0.829,0.183-1.688-0.248-2.444C207.945,27.401,207.06,27.917,207.387,28.492L207.387,28.492z"/>
		</g>
	</g>
	<g>
		<g>
			<path fill="#3D3D3D" d="M208.468,28.49c-0.355-1.018-1.015-1.942-2.174-2.003c-1.191-0.063-1.955,1.141-2.294,2.111
				c-0.218,0.625,0.771,0.891,0.987,0.272c0.207-0.592,0.541-1.196,1.192-1.354c0.684-0.166,1.132,0.757,1.302,1.246
				C207.697,29.382,208.686,29.115,208.468,28.49L208.468,28.49z"/>
		</g>
	</g>
	<g>
		<g>
			<path fill="#3D3D3D" d="M205.394,26.666c-1.967,1.027-2.049,3.352-0.686,4.928c0.553,0.64,1.369,1.041,2.218,0.892
				c1.111-0.195,1.61-1.498,1.825-2.45c0.145-0.643-0.842-0.916-0.987-0.272c-0.136,0.602-0.359,1.519-1.044,1.72
				c-0.478,0.14-0.98-0.275-1.288-0.613c-0.419-0.459-0.663-1.094-0.662-1.713c0.001-0.75,0.511-1.279,1.141-1.608
				C206.496,27.244,205.979,26.361,205.394,26.666L205.394,26.666z"/>
		</g>
	</g>
	<g>
		<g>
			<path fill="#3D3D3D" d="M204,29.138c0.364-1.371,1.439-2.695,2.963-1.922c1.436,0.729,1.296,2.421,0.534,3.585
				c-0.363,0.554,0.524,1.066,0.884,0.517c1.124-1.717,0.951-4.045-1.02-5.046c-2.084-1.058-3.834,0.662-4.348,2.594
				C202.843,29.505,203.83,29.776,204,29.138L204,29.138z"/>
		</g>
	</g>
	<g>
		<g>
			<path fill="#3D3D3D" d="M203.298,28.04c-0.652,1.41-0.323,2.815,0.938,3.737c1.199,0.877,2.857,0.658,3.912-0.309
				c0.488-0.447-0.238-1.169-0.724-0.724c-1.541,1.412-4.178-0.163-3.242-2.187C204.457,27.962,203.575,27.442,203.298,28.04
				L203.298,28.04z"/>
		</g>
	</g>
</g>
</svg>
