<?xml version="1.0" encoding="utf-8"?>
<!-- Generator: Adobe Illustrator 17.0.0, SVG Export Plug-In . SVG Version: 6.00 Build 0)  -->
<!DOCTYPE svg PUBLIC "-//W3C//DTD SVG 1.1//EN" "http://www.w3.org/Graphics/SVG/1.1/DTD/svg11.dtd" [
	<!ENTITY st0 "fill:#E6E6E6;">
	<!ENTITY st1 "fill:#3D3D3D;">
]>
<svg version="1.1" id="Calque_1" xmlns="http://www.w3.org/2000/svg" xmlns:xlink="http://www.w3.org/1999/xlink" x="0px" y="0px"
	 width="54px" height="55px" viewBox="0 0 54 55" style="enable-background:new 0 0 54 55;" xml:space="preserve">
<g>
	<path style="&st0;" d="M29.564,11.449c-21.19-5.561-26.558,29.114-4.22,32.899C47.087,47.555,49.506,11.75,29.564,11.449"/>
	<g>
		<path class="focus-piece" fill="#3D3D3D" d="M29.666,11.079C7.321,5.83,3.743,42.118,25.344,44.732c21.135,2.558,25.264-32.744,4.22-33.666
			c-0.495-0.022-0.493,0.746,0,0.767c19.614,0.859,16.222,33.555-3.2,32.255C5.018,42.66,7.643,6.693,29.462,11.819
			C29.943,11.932,30.148,11.192,29.666,11.079L29.666,11.079z"/>
	</g>
</g>
<g>
	<g>
		<g>
			<path d="M13.463,33.195c9.254,2.066,18.773,1.661,28.059,0c0.519-0.093,0.298-0.881-0.217-0.789
				c-9.141,1.635-18.513,2.034-27.624,0C13.167,32.292,12.948,33.08,13.463,33.195L13.463,33.195z"/>
		</g>
	</g>
	<g>
		<g>
			<path d="M15.136,33.378c1.893-13.07,20.595-11.603,24.012-0.234c0.151,0.504,0.941,0.289,0.789-0.217
				C36.3,20.829,16.356,19.29,14.347,33.16C14.272,33.676,15.06,33.898,15.136,33.378L15.136,33.378z"/>
		</g>
	</g>
	<g>
		<g>
			<path d="M27.033,26.644c0.243,0.07,0.537,0.135,0.729,0.312c-0.095-0.088,0.089-0.198-0.071-0.059
				c-0.054,0.047-0.161,0.087-0.233,0.111c-0.108,0.035-0.016,0.014-0.052,0.016c0.021,0.566,0.12,0.76,0.298,0.583
				c-0.027,0.024,0.136-0.084,0.113-0.07c0.448-0.277,0.037-0.984-0.413-0.706c-0.296,0.183-0.752,0.66-0.255,0.943
				c0.276,0.157,0.624,0.007,0.877-0.127c0.33-0.175,0.589-0.497,0.525-0.886c-0.092-0.563-0.845-0.776-1.3-0.907
				C26.742,25.71,26.527,26.499,27.033,26.644L27.033,26.644z"/>
		</g>
	</g>
	<g>
		<g>
			<path d="M28.472,24.487c0.476-2.501,0.699-5.051,0.717-7.596c0.004-0.528-0.814-0.527-0.818,0
				c-0.017,2.472-0.225,4.949-0.687,7.378C27.585,24.785,28.373,25.005,28.472,24.487L28.472,24.487z"/>
		</g>
	</g>
	<g>
		<g>
			<path d="M27.551,26.952c0.275-3.632,0.638-7.32,1.389-10.888c0.108-0.515-0.68-0.733-0.789-0.217
				c-0.765,3.637-1.138,7.404-1.418,11.105C26.693,27.478,27.511,27.474,27.551,26.952L27.551,26.952z"/>
		</g>
	</g>
	<g>
		<g>
			<path d="M29.948,15.158c-0.935-0.037-1.87-0.075-2.805-0.112c-0.528-0.021-0.526,0.797,0,0.818
				c1.013,0.04,2.026,0.081,3.039,0.121c0.533,0.021,0.517-0.771,0-0.818c0.041,0.004-0.259-0.049-0.337-0.065
				c-0.258-0.052-0.516-0.105-0.774-0.156c-0.385-0.076-0.897-0.245-1.292-0.149c-0.669,0.162-0.204,0.781,0.097,1.015
				c0.552,0.431,1.172,0.383,1.828,0.387c0.528,0.004,0.527-0.814,0-0.818c-0.211-0.002-0.421,0.013-0.631,0.012
				c-0.113,0-0.225-0.016-0.334-0.047c-0.133-0.03-0.465-0.369-0.49-0.136c-0.068,0.118-0.135,0.235-0.203,0.353
				c-0.117,0.083-0.142,0.029,0.005,0.038c0.081,0.005,0.162,0.019,0.243,0.031c0.265,0.041,0.529,0.095,0.792,0.148
				c0.361,0.072,0.726,0.171,1.094,0.204c0-0.273,0-0.545,0-0.818c-1.013-0.04-2.026-0.081-3.039-0.121c0,0.273,0,0.545,0,0.818
				c0.935,0.037,1.87,0.075,2.805,0.112C30.475,15.997,30.473,15.179,29.948,15.158L29.948,15.158z"/>
		</g>
	</g>
</g>
</svg>
