<?xml version="1.0" encoding="utf-8"?>
<!-- Generator: Adobe Illustrator 17.0.0, SVG Export Plug-In . SVG Version: 6.00 Build 0)  -->
<!DOCTYPE svg PUBLIC "-//W3C//DTD SVG 1.1//EN" "http://www.w3.org/Graphics/SVG/1.1/DTD/svg11.dtd" [
	<!ENTITY st0 "fill:#E6E6E6;">
	<!ENTITY st1 "fill:#3D3D3D;">
]>
<svg version="1.1" id="Calque_1" xmlns="http://www.w3.org/2000/svg" xmlns:xlink="http://www.w3.org/1999/xlink" x="0px" y="0px"
	 width="54px" height="55px" viewBox="0 0 54 55" style="enable-background:new 0 0 54 55;" xml:space="preserve">
<g>
	<path style="&st0;" d="M29.564,11.449c-21.19-5.561-26.558,29.114-4.22,32.899C47.087,47.555,49.506,11.75,29.564,11.449"/>
	<g>
		<path class="focus-piece" fill="#3D3D3D" d="M29.666,11.079C7.321,5.83,3.743,42.118,25.344,44.732c21.135,2.558,25.264-32.744,4.22-33.666
			c-0.495-0.022-0.493,0.746,0,0.767c19.614,0.859,16.222,33.555-3.2,32.255C5.018,42.66,7.643,6.693,29.462,11.819
			C29.943,11.932,30.148,11.192,29.666,11.079L29.666,11.079z"/>
	</g>
</g>
<g>
	<g>
		<g>
			<g>
				<path d="M28.772,26.769c0.261,0.427,0.406,0.913,0.62,1.364c0.078,0.164,0.321,0.021,0.244-0.143
					c-0.214-0.452-0.358-0.935-0.62-1.364C28.922,26.471,28.677,26.613,28.772,26.769L28.772,26.769z"/>
			</g>
		</g>
		<g>
			<g>
				<g>
					<path d="M27.251,26.884c1.602-1.569,2.923-1.151,4.143,0.528c0.807,1.11,1.384,2.37,2.17,3.495
						c0.259,0.37,0.871,0.018,0.61-0.356c-1.806-2.584-3.803-7.711-7.422-4.166C26.426,26.704,26.925,27.203,27.251,26.884
						L27.251,26.884z"/>
				</g>
			</g>
			<g>
				<g>
					<path d="M33.434,30.541c2.474-0.43,2.581-3.889,3.194-5.782c0.118-0.642,0.556-0.908,1.315-0.796
						c0.972,0.476,0.869,1.205,0.713,2.112c-0.246,1.424-0.323,2.876-0.369,4.318c-0.092,2.853,0.242,5.749,1.053,8.486
						c0.129,0.435,0.81,0.25,0.681-0.188c-1.19-4.019-1.267-8.297-0.683-12.428c0.237-1.674,0.278-2.651-1.709-3.169
						c-2.511-0.655-1.923,6.339-4.381,6.766C32.799,29.938,32.989,30.618,33.434,30.541L33.434,30.541z"/>
				</g>
			</g>
			<g>
				<g>
					<path d="M28.454,33.987c1.814-0.233,3.149,0.455,4.242,1.901c0.401,0.53,0.37,0.619,0.855,0.989
						c0.106,0.081,0.248,0.046,0.356,0c1.132-0.483,2.199-1.089,3.31-1.617c0.256-0.121,0.202-0.475,0-0.61
						c-0.132-0.088-0.264-0.176-0.396-0.264c-0.287-0.191-0.689,0.194-0.483,0.483c0.898,1.259,1.827,2.446,2.961,3.505
						c0.332,0.31,0.833-0.188,0.499-0.499c-1.088-1.016-1.985-2.149-2.85-3.362c-0.161,0.161-0.322,0.322-0.483,0.483
						c0.132,0.088,0.264,0.176,0.396,0.264c0-0.203,0-0.406,0-0.61c-0.913,0.433-1.797,0.921-2.707,1.359
						c-0.648,0.312-1.256-1.024-1.71-1.502c-1.036-1.091-2.557-1.41-3.989-1.226C28.009,33.339,28.003,34.045,28.454,33.987
						L28.454,33.987z"/>
				</g>
			</g>
			<g>
				<g>
					<path d="M28.188,27.578c1.289-0.543,2.214,0.183,2.677,1.389c0.065,0.168,0.338,0.095,0.272-0.075
						c-0.516-1.342-1.584-2.192-3.025-1.586C27.948,27.375,28.02,27.648,28.188,27.578L28.188,27.578z"/>
				</g>
			</g>
			<g>
				<g>
					<path d="M30.012,27.017c0.296,0.419,0.652,0.782,1.014,1.144c0.129,0.129,0.328-0.071,0.2-0.2
						c-0.344-0.345-0.687-0.688-0.97-1.087C30.152,26.727,29.907,26.868,30.012,27.017L30.012,27.017z"/>
				</g>
			</g>
			<g>
				<g>
					<path d="M32.117,29.442c0.182,0,0.182-0.282,0-0.282C31.935,29.16,31.935,29.442,32.117,29.442L32.117,29.442z"/>
				</g>
			</g>
			<g>
				<g>
					<path d="M37.075,28.326c0.457-0.013,0.805-0.143,1.187-0.391c0.152-0.099,0.011-0.344-0.143-0.244
						c-0.336,0.219-0.637,0.341-1.044,0.353C36.894,28.049,36.893,28.332,37.075,28.326L37.075,28.326z"/>
				</g>
			</g>
			<g>
				<g>
					<path d="M36.951,27.211c0.182,0,0.182-0.282,0-0.282S36.769,27.211,36.951,27.211L36.951,27.211z"/>
				</g>
			</g>
			<g>
				<g>
					<path d="M37.707,24.628c0.027-0.168,0.102-0.303,0.212-0.434c0.116-0.138-0.082-0.339-0.2-0.2
						c-0.139,0.165-0.25,0.342-0.284,0.558C37.407,24.731,37.679,24.808,37.707,24.628L37.707,24.628z"/>
				</g>
			</g>
			<g>
				<g>
					<path d="M37.683,24.801c-0.127,0.834-0.35,1.649-0.496,2.479c-0.031,0.178,0.241,0.254,0.272,0.075
						c0.146-0.831,0.369-1.645,0.496-2.479C37.982,24.698,37.71,24.621,37.683,24.801L37.683,24.801z"/>
				</g>
			</g>
		</g>
		<g>
			<g>
				<path d="M26.738,26.602c1.042,2.182,1.49,4.475,1.073,6.874c-0.077,0.445,0.603,0.636,0.681,0.188
					c0.452-2.602-0.013-5.051-1.144-7.418C27.151,25.835,26.543,26.193,26.738,26.602L26.738,26.602z"/>
			</g>
		</g>
	</g>
	<g>
		<g>
			<g>
				<path d="M27.601,20.332c-1.234-1.783-3.793-5.839-6.405-3.954c-1.107,0.799-1.906,2.982-1.996,4.268
					c-0.062,0.88,0.023,1.75,0.08,2.628c0.046,0.711,0.013,1.366-0.144,2.068c-1.237-0.017-2.473-0.034-3.71-0.051
					c-0.314-0.532-0.514-1.101-0.6-1.706c-0.095-0.445-0.775-0.256-0.681,0.188c0.346,1.627,1.106,2.917,2.709,3.496
					c0.997,0.36,2.392-0.327,2.78-1.287c0.746-1.846-0.049-3.757,0.343-5.643c0.376-1.809,1.497-4.659,3.786-3.322
					c1.352,0.79,2.373,2.433,3.229,3.67C27.248,21.06,27.861,20.708,27.601,20.332L27.601,20.332z"/>
			</g>
		</g>
		<g>
			<g>
				<path d="M14.132,23.416c-0.249,2.944-0.141,5.898-0.132,8.849c0.001,0.455,0.707,0.455,0.706,0
					c-0.009-2.951-0.117-5.904,0.132-8.849C14.877,22.962,14.17,22.966,14.132,23.416L14.132,23.416z"/>
			</g>
		</g>
		<g>
			<g>
				<path d="M14.658,32.311c0.469-0.662,1.112-0.788,1.847-0.498c0.424,0.167,0.606-0.516,0.188-0.681
					c-1.048-0.413-2.002-0.082-2.644,0.823C13.784,32.327,14.397,32.679,14.658,32.311L14.658,32.311z"/>
			</g>
		</g>
		<g>
			<g>
				<path d="M16.156,31.645c0.735,0.559,1.46,1.224,1.986,1.986c0.257,0.372,0.869,0.019,0.61-0.356
					c-0.601-0.87-1.402-1.602-2.24-2.24C16.15,30.759,15.799,31.373,16.156,31.645L16.156,31.645z"/>
			</g>
		</g>
		<g>
			<g>
				<path d="M18.565,33.042c0.963-1.173,1.52-2.576,1.688-4.08c0.051-0.452-0.656-0.447-0.706,0
					c-0.146,1.301-0.648,2.566-1.481,3.58C17.779,32.892,18.276,33.395,18.565,33.042L18.565,33.042z"/>
			</g>
		</g>
		<g>
			<g>
				<path d="M20.032,29.712c0.628,0.019,1.239,0.209,1.803,0.48c0.408,0.196,0.766-0.412,0.356-0.61
					c-0.679-0.327-1.402-0.554-2.159-0.576C19.577,28.993,19.578,29.699,20.032,29.712L20.032,29.712z"/>
			</g>
		</g>
		<g>
			<g>
				<path d="M21.663,30.06c0.876-0.58,1.322-1.721,1.483-2.72c0.072-0.445-0.609-0.636-0.681-0.188
					c-0.129,0.8-0.445,1.826-1.158,2.298C20.929,29.701,21.282,30.312,21.663,30.06L21.663,30.06z"/>
			</g>
		</g>
		<g>
			<g>
				<path d="M22.976,27.718c0.616,0.134,1.198,0.348,1.765,0.625c0.407,0.199,0.765-0.41,0.356-0.61
					c-0.62-0.303-1.258-0.549-1.933-0.696C22.72,26.941,22.531,27.622,22.976,27.718L22.976,27.718z"/>
			</g>
		</g>
		<g>
			<g>
				<path d="M21.435,20.649c0.08-0.558,0.178-1.223,0.61-1.628c0.484-0.455,1.256,0.145,1.633,0.451c0.14,0.114,0.341-0.085,0.2-0.2
					c-0.455-0.368-1.184-0.919-1.807-0.6c-0.664,0.34-0.813,1.239-0.908,1.901C21.137,20.752,21.409,20.829,21.435,20.649
					L21.435,20.649z"/>
			</g>
		</g>
		<g>
			<g>
				<path d="M15.847,29.236c0.236,0.339,0.507,0.652,0.744,0.992c0.103,0.148,0.348,0.007,0.244-0.143
					c-0.236-0.339-0.507-0.652-0.744-0.992C15.987,28.945,15.742,29.086,15.847,29.236L15.847,29.236z"/>
			</g>
		</g>
		<g>
			<g>
				<path d="M16.365,30.132c0.417,0.404,0.878,0.744,1.392,1.014c0.161,0.085,0.304-0.159,0.143-0.244
					c-0.493-0.259-0.934-0.582-1.335-0.97C16.433,29.806,16.233,30.005,16.365,30.132L16.365,30.132z"/>
			</g>
		</g>
		<g>
			<g>
				<path d="M15.154,29.411c0.79,0.529,1.565,1.082,2.355,1.611c0.152,0.102,0.293-0.143,0.143-0.244
					c-0.79-0.529-1.565-1.082-2.355-1.611C15.144,29.065,15.003,29.31,15.154,29.411L15.154,29.411z"/>
			</g>
		</g>
		<g>
			<g>
				<path d="M14.815,30.169c1.07,0.265,2.147,0.505,3.223,0.744c0.177,0.039,0.253-0.233,0.075-0.272
					c-1.076-0.239-2.153-0.478-3.223-0.744C14.714,29.852,14.639,30.125,14.815,30.169L14.815,30.169z"/>
			</g>
		</g>
		<g>
			<g>
				<path d="M16.04,31.022c0.561-0.327,1.153-0.583,1.735-0.868c0.164-0.08,0.02-0.324-0.143-0.244
					c-0.582,0.285-1.175,0.541-1.735,0.868C15.74,30.87,15.882,31.114,16.04,31.022L16.04,31.022z"/>
			</g>
		</g>
		<g>
			<g>
				<path d="M17.804,31.992c0.385-0.407,0.675-0.884,1.116-1.24c-0.067-0.067-0.133-0.133-0.2-0.2
					c-0.291,0.311-0.505,0.655-0.656,1.054c-0.025,0.067,0.028,0.162,0.099,0.174c0.459,0.078,0.562-0.672,0.868-0.62
					c0.178,0.03,0.254-0.242,0.075-0.272c-0.459-0.078-0.562,0.672-0.868,0.62c0.033,0.058,0.066,0.116,0.099,0.174
					c0.135-0.355,0.325-0.652,0.583-0.929c0.127-0.136-0.06-0.312-0.2-0.2c-0.441,0.356-0.73,0.832-1.116,1.24
					C17.479,31.924,17.678,32.124,17.804,31.992L17.804,31.992z"/>
			</g>
		</g>
		<g>
			<g>
				<path d="M23.265,24.33c-0.009,1.162-0.121,2.317-0.248,3.471c-0.02,0.181,0.263,0.179,0.282,0
					c0.127-1.154,0.239-2.309,0.248-3.471C23.548,24.148,23.266,24.148,23.265,24.33L23.265,24.33z"/>
			</g>
		</g>
		<g>
			<g>
				<path d="M27.137,20.551c-1.931,1.914-3.02,4.88-2.559,7.581c0.076,0.448,0.757,0.257,0.681-0.188
					c-0.418-2.446,0.639-5.171,2.377-6.894C27.96,20.73,27.461,20.231,27.137,20.551L27.137,20.551z"/>
			</g>
		</g>
	</g>
</g>
</svg>
