<?xml version="1.0" encoding="utf-8"?>
<!-- Generator: Adobe Illustrator 17.0.0, SVG Export Plug-In . SVG Version: 6.00 Build 0)  -->
<!DOCTYPE svg PUBLIC "-//W3C//DTD SVG 1.1//EN" "http://www.w3.org/Graphics/SVG/1.1/DTD/svg11.dtd" [
	<!ENTITY st0 "fill:#E6E6E6;">
	<!ENTITY st1 "fill:#3D3D3D;">
]>
<svg version="1.1" id="Calque_1" xmlns="http://www.w3.org/2000/svg" xmlns:xlink="http://www.w3.org/1999/xlink" x="0px" y="0px"
	 width="54px" height="55px" viewBox="0 0 54 55" style="enable-background:new 0 0 54 55;" xml:space="preserve">
<g>
	<path style="&st0;" d="M29.564,11.449c-21.19-5.561-26.558,29.114-4.22,32.899C47.087,47.555,49.506,11.75,29.564,11.449"/>
	<g>
		<path class="focus-piece" fill="#3D3D3D" d="M29.666,11.079C7.321,5.83,3.743,42.118,25.344,44.732c21.135,2.558,25.264-32.744,4.22-33.666
			c-0.495-0.022-0.493,0.746,0,0.767c19.614,0.859,16.222,33.555-3.2,32.255C5.018,42.66,7.643,6.693,29.462,11.819
			C29.943,11.932,30.148,11.192,29.666,11.079L29.666,11.079z"/>
	</g>
</g>
<g>
	<g>
		<g>
			<g>
				<path d="M23.431,36.413c0.246,2.266,2.125,3.364,4.284,2.838c0.736-0.179,0.423-1.312-0.312-1.132
					c-1.354,0.33-2.635-0.208-2.797-1.706C24.525,35.668,23.35,35.66,23.431,36.413L23.431,36.413z"/>
			</g>
		</g>
		<g>
			<g>
				<path d="M24.798,37.083c0.81-0.39,1.786-0.809,2.704-0.618c0.977,0.203,1.07,1.428,1.082,2.226c0.012,0.757,1.186,0.758,1.174,0
					c-0.02-1.265-0.324-2.747-1.646-3.258c-1.295-0.5-2.734,0.071-3.908,0.636C23.523,36.397,24.119,37.41,24.798,37.083
					L24.798,37.083z"/>
			</g>
		</g>
		<g>
			<g>
				<path d="M27.512,35.779c-0.109-6.185,0.179-12.367,0.07-18.552c-0.013-0.756-1.188-0.758-1.174,0
					c0.109,6.185-0.179,12.367-0.07,18.552C26.351,36.535,27.525,36.536,27.512,35.779L27.512,35.779z"/>
			</g>
		</g>
		<g>
			<g>
				<path d="M26.675,19.102c3.253,0,3.253-5.044,0-5.044S23.422,19.102,26.675,19.102L26.675,19.102z"/>
			</g>
		</g>
	</g>
	<g>
		<g>
			<path d="M23.326,39.129c2.492,0,4.983-0.012,7.467-0.244c0.713-0.066,0.719-1.187,0-1.12c-2.484,0.232-4.975,0.243-7.467,0.244
				C22.604,38.009,22.604,39.129,23.326,39.129L23.326,39.129z"/>
		</g>
	</g>
</g>
</svg>
