<?xml version="1.0" encoding="utf-8"?>
<!-- Generator: Adobe Illustrator 17.0.0, SVG Export Plug-In . SVG Version: 6.00 Build 0)  -->
<!DOCTYPE svg PUBLIC "-//W3C//DTD SVG 1.1//EN" "http://www.w3.org/Graphics/SVG/1.1/DTD/svg11.dtd">
<svg version="1.1" id="Calque_1" xmlns="http://www.w3.org/2000/svg" xmlns:xlink="http://www.w3.org/1999/xlink" x="0px" y="0px"
	 width="54px" height="55px" viewBox="0 0 54 55" enable-background="new 0 0 54 55" xml:space="preserve">
<g>
	<path fill="#E6E6E6" d="M29.564,11.449c-21.19-5.561-26.558,29.114-4.22,32.899C47.087,47.555,49.506,11.75,29.564,11.449"/>
	<g>
		<path class="focus-piece" fill="#3D3D3D" d="M29.666,11.079C7.321,5.83,3.743,42.118,25.344,44.732c21.135,2.558,25.264-32.744,4.22-33.666
			c-0.495-0.022-0.493,0.746,0,0.767c19.614,0.859,16.222,33.555-3.2,32.255C5.018,42.66,7.643,6.693,29.462,11.819
			C29.943,11.932,30.148,11.192,29.666,11.079L29.666,11.079z"/>
	</g>
</g>
<g>
	<g>
		<g>
			<path d="M21.729,27.045c0.253-0.214,0.671-0.309,0.979-0.411c0.426-0.142,0.876-0.268,1.327-0.281
				c0.302-0.009,0.303-0.479,0-0.47c-0.538,0.015-1.065,0.168-1.572,0.337c-0.354,0.118-0.776,0.246-1.066,0.492
				C21.165,26.909,21.499,27.24,21.729,27.045L21.729,27.045z"/>
		</g>
	</g>
	<g>
		<g>
			<path d="M24.18,26.499c0.189,1.708,0.366,3.414,0.38,5.134c0.003,0.303,0.473,0.303,0.47,0c-0.014-1.72-0.191-3.426-0.38-5.134
				C24.617,26.201,24.147,26.198,24.18,26.499L24.18,26.499z"/>
		</g>
	</g>
	<g>
		<g>
			<path d="M21.753,31.868c1.271-0.012,2.532-0.178,3.803-0.19c0.303-0.003,0.303-0.473,0-0.47c-1.271,0.012-2.532,0.178-3.803,0.19
				C21.45,31.401,21.45,31.871,21.753,31.868L21.753,31.868z"/>
		</g>
	</g>
	<g>
		<g>
			<g>
				<path d="M23.645,20.034c0.277,5.975,1.095,11.91,1.521,17.874c0.021,0.301,0.492,0.303,0.47,0
					c-0.426-5.964-1.244-11.899-1.521-17.874C24.101,19.732,23.631,19.731,23.645,20.034L23.645,20.034z"/>
			</g>
		</g>
		<g>
			<g>
				<path d="M25.339,38.135c1.778,0.367,3.518,0.349,5.259-0.19c0.289-0.089,0.165-0.543-0.125-0.453
					c-1.667,0.516-3.306,0.541-5.009,0.19C25.168,37.62,25.042,38.073,25.339,38.135L25.339,38.135z"/>
			</g>
		</g>
		<g>
			<g>
				<path d="M24.513,19.88c1.193-0.46,2.461-0.73,3.74-0.752c0.303-0.005,0.303-0.475,0-0.47c-1.32,0.023-2.635,0.295-3.865,0.769
					C24.108,19.535,24.23,19.989,24.513,19.88L24.513,19.88z"/>
			</g>
		</g>
		<g>
			<g>
				<path d="M28.788,18.956c1.41,6.263,3.192,12.868,2.654,19.333c-0.025,0.302,0.445,0.3,0.47,0
					c0.54-6.494-1.256-13.176-2.67-19.458C29.174,18.535,28.721,18.66,28.788,18.956L28.788,18.956z"/>
			</g>
		</g>
		<g>
			<g>
				<path d="M30.027,35.282c0.96-0.251,1.864-0.663,2.718-1.165c0.261-0.153,0.025-0.56-0.237-0.406
					c-0.821,0.482-1.683,0.876-2.606,1.117C29.61,34.906,29.734,35.359,30.027,35.282L30.027,35.282z"/>
			</g>
		</g>
		<g>
			<g>
				<path d="M29.457,33.571c0.909-0.184,1.766-0.425,2.528-0.974c0.243-0.175,0.009-0.584-0.237-0.406
					c-0.73,0.526-1.545,0.75-2.416,0.927C29.035,33.178,29.161,33.631,29.457,33.571L29.457,33.571z"/>
			</g>
		</g>
		<g>
			<g>
				<path d="M28.887,31.669c0.905-0.236,1.769-0.614,2.528-1.165c0.243-0.176,0.009-0.584-0.237-0.406
					c-0.729,0.528-1.547,0.89-2.416,1.117C28.469,31.293,28.593,31.746,28.887,31.669L28.887,31.669z"/>
			</g>
		</g>
		<g>
			<g>
				<path d="M29.133,29.744c0.622-0.415,1.222-0.844,1.759-1.368c0.217-0.212-0.115-0.544-0.332-0.332
					c-0.508,0.495-1.075,0.901-1.664,1.294C28.645,29.506,28.88,29.913,29.133,29.744L29.133,29.744z"/>
			</g>
		</g>
		<g>
			<g>
				<path d="M28.943,27.463c0.474-0.312,0.966-0.593,1.379-0.987c0.219-0.21-0.113-0.542-0.332-0.332
					c-0.383,0.366-0.843,0.624-1.283,0.914C28.453,27.222,28.689,27.63,28.943,27.463L28.943,27.463z"/>
			</g>
		</g>
		<g>
			<g>
				<path d="M28.753,25.941c0.523-0.359,0.998-0.782,1.521-1.141c0.248-0.17,0.013-0.578-0.237-0.406
					c-0.523,0.359-0.998,0.782-1.521,1.141C28.267,25.706,28.502,26.113,28.753,25.941L28.753,25.941z"/>
			</g>
		</g>
		<g>
			<g>
				<path d="M28.99,23.623c0.382-0.351,0.899-0.544,1.178-0.998c0.159-0.259-0.248-0.495-0.406-0.237
					c-0.244,0.397-0.764,0.591-1.104,0.903C28.434,23.496,28.768,23.828,28.99,23.623L28.99,23.623z"/>
			</g>
		</g>
		<g>
			<g>
				<path d="M28.562,21.948c0.307-0.165,0.562-0.363,0.808-0.607c0.215-0.214-0.117-0.546-0.332-0.332
					c-0.217,0.216-0.442,0.388-0.713,0.534C28.058,21.686,28.295,22.092,28.562,21.948L28.562,21.948z"/>
			</g>
		</g>
		<g>
			<g>
				<path d="M28.42,20.58c0.142-0.14,0.261-0.281,0.467-0.32c0.298-0.056,0.171-0.509-0.125-0.453
					c-0.283,0.053-0.475,0.245-0.674,0.441C27.871,20.461,28.204,20.793,28.42,20.58L28.42,20.58z"/>
			</g>
		</g>
	</g>
	<g>
		<g>
			<path d="M25.628,38.301c0.604,0.428,1.741,0.289,2.422,0.275c1.221-0.026,2.516-0.168,3.654-0.631
				c0.277-0.113,0.156-0.568-0.125-0.453c-1.026,0.418-2.139,0.54-3.238,0.603c-0.652,0.037-1.908,0.204-2.476-0.199
				C25.617,37.719,25.383,38.127,25.628,38.301L25.628,38.301z"/>
		</g>
	</g>
	<g>
		<g>
			<path d="M24.011,19.63c0.515-0.41,1.486-0.49,2.107-0.605c0.89-0.166,1.904-0.309,2.799-0.095
				c0.295,0.071,0.42-0.383,0.125-0.453c-0.994-0.238-2.056-0.073-3.048,0.095c-0.73,0.124-1.713,0.247-2.314,0.726
				C23.442,19.486,23.777,19.817,24.011,19.63L24.011,19.63z"/>
		</g>
	</g>
	<g>
		<g>
			<path d="M24.391,18.537c-0.718-0.9-1.17-2.036-0.544-3.106c0.503-0.861,1.536-1.316,2.477-1.483
				c0.905-0.161,1.93,0.013,2.574,0.708c0.973,1.048,0.368,2.816-0.123,3.93c-0.121,0.275,0.284,0.514,0.406,0.237
				c0.583-1.325,1.129-3.092,0.151-4.375c-0.691-0.906-1.954-1.132-3.023-0.97c-1.162,0.177-2.312,0.766-2.92,1.805
				c-0.713,1.219-0.131,2.584,0.669,3.587C24.248,19.106,24.578,18.771,24.391,18.537L24.391,18.537z"/>
		</g>
	</g>
	<g>
		<g>
			<path d="M25.701,38.098c-0.104,2.212,1.219,4.625,3.731,4.383c2.621-0.253,2.355-3.146,1.461-4.882
				c-0.139-0.27-0.544-0.032-0.406,0.237c0.801,1.555,1.074,4.072-1.297,4.192c-2.148,0.109-3.104-2.116-3.018-3.931
				C26.186,37.795,25.716,37.796,25.701,38.098L25.701,38.098z"/>
		</g>
	</g>
	<g>
		<g>
			<path d="M24.618,18.061c0.373-0.545,0.829-1.008,1.294-1.474c0.214-0.215-0.118-0.547-0.332-0.332
				c-0.494,0.494-0.972,0.99-1.368,1.569C24.041,18.075,24.448,18.309,24.618,18.061L24.618,18.061z"/>
		</g>
	</g>
	<g>
		<g>
			<path d="M24.011,16.968c0.57-0.57,1.141-1.141,1.711-1.711c0.215-0.215-0.118-0.547-0.332-0.332
				c-0.57,0.57-1.141,1.141-1.711,1.711C23.464,16.85,23.797,17.182,24.011,16.968L24.011,16.968z"/>
		</g>
	</g>
	<g>
		<g>
			<path d="M24.581,15.256c0.178-0.147,0.391-0.232,0.57-0.38c0.234-0.193-0.101-0.524-0.332-0.332
				c-0.178,0.147-0.391,0.232-0.57,0.38C24.015,15.117,24.35,15.448,24.581,15.256L24.581,15.256z"/>
		</g>
	</g>
	<g>
		<g>
			<path d="M25.057,14.913c0.452,0.247,0.769,0.638,1.057,1.057c0.171,0.248,0.578,0.013,0.406-0.237
				c-0.332-0.483-0.703-0.94-1.225-1.225C25.028,14.362,24.791,14.768,25.057,14.913L25.057,14.913z"/>
		</g>
	</g>
	<g>
		<g>
			<path d="M25.01,16.587c0.38,0.38,0.761,0.761,1.141,1.141c0.215,0.215,0.547-0.118,0.332-0.332
				c-0.38-0.38-0.761-0.761-1.141-1.141C25.128,16.04,24.795,16.373,25.01,16.587L25.01,16.587z"/>
		</g>
	</g>
	<g>
		<g>
			<path d="M25.113,17.979c0.14,0.029,0.232,0.159,0.38,0.19c0.296,0.062,0.422-0.391,0.125-0.453
				c-0.14-0.029-0.232-0.159-0.38-0.19C24.943,17.464,24.817,17.917,25.113,17.979L25.113,17.979z"/>
		</g>
	</g>
	<g>
		<g>
			<path d="M26.198,38.491c0.859,0.429,1.678,0.755,2.653,0.594c0.299-0.049,0.171-0.502-0.125-0.453
				c-0.837,0.138-1.558-0.181-2.291-0.547C26.165,37.95,25.927,38.356,26.198,38.491L26.198,38.491z"/>
		</g>
	</g>
	<g>
		<g>
			<path d="M26.388,39.632c0.883,0.408,1.826,0.408,2.709,0c0.275-0.127,0.036-0.532-0.237-0.406c-0.716,0.331-1.518,0.331-2.235,0
				C26.352,39.1,26.113,39.505,26.388,39.632L26.388,39.632z"/>
		</g>
	</g>
	<g>
		<g>
			<path d="M27.077,40.615c0.727-0.001,1.443-0.035,2.154-0.199c0.295-0.068,0.17-0.521-0.125-0.453
				c-0.671,0.154-1.344,0.181-2.029,0.182C26.774,40.145,26.774,40.615,27.077,40.615L27.077,40.615z"/>
		</g>
	</g>
	<g>
		<g>
			<path d="M28.29,41.343c0.492,0.218,0.966,0.219,1.272-0.274c0.16-0.258-0.246-0.494-0.406-0.237
				c-0.169,0.271-0.388,0.213-0.629,0.106C28.253,40.816,28.013,41.221,28.29,41.343L28.29,41.343z"/>
		</g>
	</g>
	<g>
		<g>
			<path d="M26.874,39.358c0.457,1.057,1.409,1.782,2.366,2.366c0.26,0.158,0.496-0.248,0.237-0.406
				c-0.896-0.546-1.77-1.209-2.197-2.197C27.16,38.843,26.755,39.082,26.874,39.358L26.874,39.358z"/>
		</g>
	</g>
	<g>
		<g>
			<path d="M27.255,38.977c0.418,0.989,1.187,1.757,2.176,2.176c0.276,0.117,0.516-0.288,0.237-0.406
				c-0.927-0.392-1.615-1.08-2.007-2.007C27.543,38.462,27.138,38.702,27.255,38.977L27.255,38.977z"/>
		</g>
	</g>
	<g>
		<g>
			<path d="M29.478,41.914c0.193-0.147,0.408-0.157,0.642-0.158c0.303-0.002,0.303-0.472,0-0.47
				c-0.313,0.002-0.623,0.027-0.879,0.222C29.003,41.689,29.237,42.098,29.478,41.914L29.478,41.914z"/>
		</g>
	</g>
	<g>
		<g>
			<path d="M21.563,32.248c1.102,0,2.207,0.001,3.295-0.199c0.298-0.055,0.171-0.508-0.125-0.453
				c-1.045,0.192-2.111,0.181-3.17,0.182C21.26,31.778,21.26,32.248,21.563,32.248L21.563,32.248z"/>
		</g>
	</g>
	<g>
		<g>
			<path d="M22.089,29.922c0.034,0.538,0.282,1.099,0.639,1.497c0.203,0.226,0.534-0.107,0.332-0.332
				c-0.27-0.301-0.476-0.755-0.502-1.165C22.54,29.621,22.07,29.619,22.089,29.922L22.089,29.922z"/>
		</g>
	</g>
	<g>
		<g>
			<path d="M23.238,30.174c0.035,0.203,0.155,0.369,0.19,0.57c0.052,0.298,0.505,0.171,0.453-0.125
				c-0.035-0.203-0.155-0.369-0.19-0.57C23.639,29.751,23.187,29.878,23.238,30.174L23.238,30.174z"/>
		</g>
	</g>
	<g>
		<g>
			<path d="M23.679,30.468c0.093,0.124,0.133,0.259,0.121,0.404c0.004,0.303,0.474,0.303,0.47,0c-0.004-0.3-0.07-0.504-0.259-0.737
				C23.82,29.901,23.489,30.235,23.679,30.468L23.679,30.468z"/>
		</g>
	</g>
	<g>
		<g>
			<path d="M21.777,31.419c0.717,0.888,1.797,0.953,2.757,0.417c0.265-0.148,0.028-0.554-0.237-0.406
				c-0.789,0.44-1.603,0.38-2.187-0.344C21.919,30.851,21.589,31.185,21.777,31.419L21.777,31.419z"/>
		</g>
	</g>
	<g>
		<g>
			<path d="M22.36,27.702c0.241-0.575,1.077-0.706,1.612-0.596c0.296,0.06,0.422-0.393,0.125-0.453
				c-0.822-0.167-1.842,0.091-2.191,0.925C21.79,27.857,22.245,27.978,22.36,27.702L22.36,27.702z"/>
		</g>
	</g>
	<g>
		<g>
			<path d="M21.79,27.132c0.051-0.17,0.769-0.406,0.916-0.465c0.422-0.17,0.873-0.298,1.329-0.314
				c-0.021-0.154-0.042-0.308-0.062-0.462c-0.929,0.186-1.857,0.376-2.718,0.784c-0.214,0.101-0.107,0.446,0.119,0.438
				c0.57-0.02,1.145-0.12,1.711-0.19c-0.055-0.134-0.111-0.267-0.166-0.401c-0.444,0.444-0.887,0.887-1.331,1.331
				c-0.201,0.201,0.052,0.473,0.285,0.369c0.217-0.097,0.197-0.573,0.19-0.57c-0.095-0.012-0.19-0.024-0.285-0.037
				c0.027,0.037,0.055,0.073,0.082,0.11c0.096-0.096,0.193-0.193,0.289-0.289c0.114,0.077,0.114,0.041-0.002-0.106
				c-0.125-0.23-0.534-0.067-0.43,0.181c0.205,0.487,0.175,1.034,0.38,1.521c0.097,0.229,0.464,0.224,0.462-0.062
				c-0.002-0.239-0.372-2.387-0.891-1.868c-0.256,0.256-0.002,1.049,0.049,1.36c0.049,0.299,0.502,0.171,0.453-0.125
				c-0.023-0.139-0.044-0.279-0.064-0.419c-0.018-0.129-0.033-0.259-0.044-0.389c-0.021-0.231,0.054-0.138-0.099-0.064
				c-0.079,0-0.158,0-0.237,0c-0.1-0.063-0.032-0.02,0.005,0.075c0.047,0.121,0.085,0.246,0.124,0.37
				c0.113,0.356,0.231,0.68,0.234,1.059c0.154-0.021,0.308-0.042,0.462-0.062c-0.205-0.487-0.175-1.034-0.38-1.521
				c-0.143,0.06-0.286,0.121-0.43,0.181c0.061,0.112,0.135,0.297,0.283,0.322c0.161,0.027,0.355-0.104,0.289-0.289
				c-0.045-0.127-0.116-0.216-0.203-0.318c-0.073-0.086-0.193-0.078-0.285-0.037c-0.217,0.097-0.197,0.573-0.19,0.57
				c0.095,0.123,0.19,0.246,0.285,0.369c0.444-0.444,0.887-0.887,1.331-1.331c0.132-0.132,0.047-0.428-0.166-0.401
				c-0.566,0.071-1.141,0.17-1.711,0.19c0.04,0.146,0.079,0.292,0.119,0.438c0.821-0.39,1.72-0.559,2.606-0.737
				c0.262-0.052,0.2-0.47-0.062-0.462c-0.622,0.021-1.209,0.221-1.776,0.464c-0.287,0.123-0.82,0.319-0.923,0.659
				C21.248,27.298,21.702,27.421,21.79,27.132L21.79,27.132z"/>
		</g>
	</g>
</g>
</svg>
