<?xml version="1.0" encoding="utf-8"?>
<!-- Generator: Adobe Illustrator 17.0.0, SVG Export Plug-In . SVG Version: 6.00 Build 0)  -->
<!DOCTYPE svg PUBLIC "-//W3C//DTD SVG 1.1//EN" "http://www.w3.org/Graphics/SVG/1.1/DTD/svg11.dtd" [
	<!ENTITY st0 "fill:#E6E6E6;">
	<!ENTITY st1 "fill:#3D3D3D;">
]>
<svg version="1.1" id="Calque_1" xmlns="http://www.w3.org/2000/svg" xmlns:xlink="http://www.w3.org/1999/xlink" x="0px" y="0px"
	 width="54px" height="55px" viewBox="0 0 54 55" style="enable-background:new 0 0 54 55;" xml:space="preserve">
<g>
	<path style="&st0;" d="M29.564,11.449c-21.19-5.561-26.558,29.114-4.22,32.899C47.087,47.555,49.506,11.75,29.564,11.449"/>
	<g>
		<path class="focus-piece" fill="#3D3D3D" d="M29.666,11.079C7.321,5.83,3.743,42.118,25.344,44.732c21.135,2.558,25.264-32.744,4.22-33.666
			c-0.495-0.022-0.493,0.746,0,0.767c19.614,0.859,16.222,33.555-3.2,32.255C5.018,42.66,7.643,6.693,29.462,11.819
			C29.943,11.932,30.148,11.192,29.666,11.079L29.666,11.079z"/>
	</g>
</g>
<g>
	<g>
		<g>
			<path d="M16.105,35.474C16.437,28.853,18.58,17.993,27,17.488c8.342-0.501,10.593,11.487,10.895,17.433
				c0.029,0.578,0.93,0.581,0.901,0C38.437,27.853,35.955,16.784,27,16.587c-8.952-0.197-11.466,12.322-11.796,18.887
				C15.175,36.055,16.076,36.052,16.105,35.474L16.105,35.474z"/>
		</g>
	</g>
	<g>
		<g>
			<path d="M18.872,36.304c0.135-4.807,1.191-14.262,7.782-14.389c6.398-0.123,8.496,9.763,9.027,14.389
				c0.065,0.57,0.967,0.577,0.901,0c-0.644-5.608-2.87-14.802-9.928-15.29c-7.152-0.494-8.547,10.457-8.683,15.29
				C17.955,36.885,18.856,36.884,18.872,36.304L18.872,36.304z"/>
		</g>
	</g>
	<g>
		<g>
			<path d="M16.485,34.767c0.873,0,0.873-1.354,0-1.354C15.611,33.413,15.611,34.767,16.485,34.767L16.485,34.767z"/>
		</g>
	</g>
	<g>
		<g>
			<path d="M17.038,31.723c0.873,0,0.873-1.354,0-1.354C16.165,30.369,16.165,31.723,17.038,31.723L17.038,31.723z"/>
		</g>
	</g>
	<g>
		<g>
			<path d="M18.145,28.403c0.873,0,0.873-1.354,0-1.354S17.272,28.403,18.145,28.403L18.145,28.403z"/>
		</g>
	</g>
	<g>
		<g>
			<path d="M19.252,25.082c0.873,0,0.873-1.354,0-1.354S18.379,25.082,19.252,25.082L19.252,25.082z"/>
		</g>
	</g>
	<g>
		<g>
			<path d="M21.466,22.315c0.873,0,0.873-1.354,0-1.354S20.592,22.315,21.466,22.315L21.466,22.315z"/>
		</g>
	</g>
	<g>
		<g>
			<path d="M24.233,20.654c0.873,0,0.873-1.354,0-1.354S23.359,20.654,24.233,20.654L24.233,20.654z"/>
		</g>
	</g>
	<g>
		<g>
			<path d="M27.277,20.101c0.873,0,0.873-1.354,0-1.354S26.403,20.101,27.277,20.101L27.277,20.101z"/>
		</g>
	</g>
	<g>
		<g>
			<path d="M30.119,19.499c-0.092,0.092-0.184,0.184-0.277,0.277c-0.618,0.618,0.34,1.576,0.958,0.958
				c0.092-0.092,0.184-0.184,0.277-0.277C31.694,19.838,30.737,18.881,30.119,19.499L30.119,19.499z"/>
		</g>
	</g>
	<g>
		<g>
			<path d="M32.534,22.868c0.873,0,0.873-1.354,0-1.354S31.661,22.868,32.534,22.868L32.534,22.868z"/>
		</g>
	</g>
	<g>
		<g>
			<path d="M33.918,25.635c0.873,0,0.873-1.354,0-1.354S33.045,25.635,33.918,25.635L33.918,25.635z"/>
		</g>
	</g>
	<g>
		<g>
			<path d="M35.302,28.403c0.873,0,0.873-1.354,0-1.354S34.428,28.403,35.302,28.403L35.302,28.403z"/>
		</g>
	</g>
	<g>
		<g>
			<path d="M36.408,31.723c0.873,0,0.873-1.354,0-1.354S35.535,31.723,36.408,31.723L36.408,31.723z"/>
		</g>
	</g>
	<g>
		<g>
			<path d="M37.239,34.49c0.873,0,0.873-1.354,0-1.354S36.365,34.49,37.239,34.49L37.239,34.49z"/>
		</g>
	</g>
	<g>
		<g>
			<path d="M20.031,37.044c1.495,0.296,2.998,0.561,4.428,1.107c0.233,0.089,0.333-0.285,0.103-0.373
				c-1.429-0.546-2.932-0.811-4.428-1.107C19.89,36.623,19.786,36.995,20.031,37.044L20.031,37.044z"/>
		</g>
	</g>
	<g>
		<g>
			<path d="M19.154,35.641c2.478,1.321,5.038,1.913,7.846,1.687c0.247-0.02,0.249-0.407,0-0.387
				c-2.739,0.221-5.229-0.343-7.651-1.634C19.129,35.189,18.934,35.523,19.154,35.641L19.154,35.641z"/>
		</g>
	</g>
	<g>
		<g>
			<path d="M18.838,33.95c1.742,1.404,3.698,2.221,5.948,2.27c0.25,0.006,0.249-0.381,0-0.387c-2.142-0.047-4.016-0.821-5.674-2.157
				C18.92,33.522,18.644,33.794,18.838,33.95L18.838,33.95z"/>
		</g>
	</g>
	<g>
		<g>
			<path d="M20.745,29.288c-1.373,2.347-1.655,4.976-1.126,7.621c0.049,0.245,0.422,0.141,0.373-0.103
				c-0.508-2.542-0.234-5.064,1.087-7.322C21.205,29.268,20.871,29.073,20.745,29.288L20.745,29.288z"/>
		</g>
	</g>
	<g>
		<g>
			<path d="M21.002,29.334c-1.045,2.486-1.339,4.972-0.553,7.574c0.072,0.238,0.445,0.137,0.373-0.103
				c-0.767-2.541-0.463-4.95,0.553-7.369C21.472,29.207,21.098,29.108,21.002,29.334L21.002,29.334z"/>
		</g>
	</g>
	<g>
		<g>
			<path d="M23.512,27.351c-1.932,2.898-2.708,6.128-1.957,9.558c0.053,0.244,0.426,0.14,0.373-0.103
				c-0.73-3.334,0.042-6.446,1.918-9.259C23.985,27.338,23.65,27.145,23.512,27.351L23.512,27.351z"/>
		</g>
	</g>
	<g>
		<g>
			<path d="M23.77,32.655c-0.248,1.603-0.293,3.207,0,4.807c0.045,0.245,0.418,0.141,0.373-0.103c-0.28-1.529-0.237-3.07,0-4.601
				C24.18,32.514,23.808,32.409,23.77,32.655L23.77,32.655z"/>
		</g>
	</g>
	<g>
		<g>
			<path d="M23.074,35.383c1.816,0.577,3.684,0.818,5.586,0.837c0.25,0.003,0.249-0.384,0-0.387
				c-1.867-0.019-3.701-0.257-5.483-0.823C22.939,34.935,22.838,35.308,23.074,35.383L23.074,35.383z"/>
		</g>
	</g>
</g>
</svg>
