<?xml version="1.0" encoding="utf-8"?>
<!-- Generator: Adobe Illustrator 17.0.0, SVG Export Plug-In . SVG Version: 6.00 Build 0)  -->
<!DOCTYPE svg PUBLIC "-//W3C//DTD SVG 1.1//EN" "http://www.w3.org/Graphics/SVG/1.1/DTD/svg11.dtd" [
	<!ENTITY st0 "fill:#E6E6E6;">
	<!ENTITY st1 "fill:#3D3D3D;">
]>
<svg version="1.1" id="Calque_1" xmlns="http://www.w3.org/2000/svg" xmlns:xlink="http://www.w3.org/1999/xlink" x="0px" y="0px"
	 width="54px" height="55px" viewBox="0 0 54 55" style="enable-background:new 0 0 54 55;" xml:space="preserve">
<g>
	<path style="&st0;" d="M29.564,11.449c-21.19-5.561-26.558,29.114-4.22,32.899C47.087,47.555,49.506,11.75,29.564,11.449"/>
	<g>
		<path class="focus-piece" fill="#3D3D3D" d="M29.666,11.079C7.321,5.83,3.743,42.118,25.344,44.732c21.135,2.558,25.264-32.744,4.22-33.666
			c-0.495-0.022-0.493,0.746,0,0.767c19.614,0.859,16.222,33.555-3.2,32.255C5.018,42.66,7.643,6.693,29.462,11.819
			C29.943,11.932,30.148,11.192,29.666,11.079L29.666,11.079z"/>
	</g>
</g>
<g>
	<g>
		<g>
			<g>
				<path d="M17.146,33.185c-0.133-1.051-0.225-2.099-0.288-3.157c-0.032-0.683-0.033-1.366-0.004-2.049
					c0.053-2.575,2.832-5.228,4.603-2.397c1.081,1.727,1.661,3.679,3.469,4.788c0.178,0.109,0.47,0.013,0.509-0.207
					c0.34-1.912-0.01-3.858,0.003-5.79c1.061-0.604,2.123-1.208,3.184-1.812c0.29,0.603,0.486,1.234,0.589,1.891
					c0.279,1.309,0.263,2.723,0.302,4.057c0.072,2.472,0.219,6.193,2.683,7.636c1.882,1.102,2.561-2.707,2.751-3.626
					c0.86-4.148-0.85-14.723,5.331-15.335c0.441-0.044,0.445-0.737,0-0.693c-6.689,0.662-5.29,11.213-6,15.844
					c-0.062,0.406-0.85,4.644-2.628,2.187c-0.905-1.252-1.253-2.384-1.371-3.796c-0.131-1.575-0.086-3.167-0.19-4.746
					c-0.12-1.83-0.372-4.148-2.266-4.925c-1.478-0.606-2.832,1.113-2.973,2.368c-0.069,0.614,0.165,6.58-1.064,4.924
					c-1.047-1.411-1.614-3.11-2.707-4.505c-1.153-1.471-2.994-0.963-4.004,0.313c-1.73,2.187-0.938,6.545-0.624,9.028
					C16.507,33.623,17.202,33.628,17.146,33.185L17.146,33.185z"/>
			</g>
		</g>
		<g>
			<g>
				<path d="M19.338,33.659c-0.361-1.496-0.553-3.055-0.467-4.594c0.048-0.867,0.307-2.199,1.46-1.985
					c0.73,0.136,1.186,0.984,1.508,1.569c0.748,1.36,1.67,5.352,3.897,3.614c0.352-0.275-0.142-0.762-0.49-0.49
					c-1.278,0.997-2.111-1.999-2.484-2.817c-0.466-1.022-1.225-2.513-2.525-2.592c-3.191-0.194-1.981,5.761-1.567,7.479
					C18.775,34.278,19.443,34.093,19.338,33.659L19.338,33.659z"/>
			</g>
		</g>
		<g>
			<g>
				<path d="M25.245,31.772c-0.015,0.011-0.029,0.022-0.043,0.034c-0.31,0.261,0.087,0.731,0.42,0.545
					c0.511-0.286,0.918-0.965,1.219-1.438c0.847-1.33,1.098-2.927,0.942-4.474c-0.045-0.44-0.738-0.445-0.693,0
					c0.141,1.395-0.063,2.706-0.738,3.941c-0.231,0.423-0.837,1.237-1.079,1.372c0.14,0.182,0.28,0.363,0.42,0.545
					c0.014-0.012,0.028-0.023,0.043-0.034C26.087,31.987,25.592,31.5,25.245,31.772L25.245,31.772z"/>
			</g>
		</g>
		<g>
			<g>
				<path d="M26.83,26.829c-0.075,2.131-0.048,4.242,0.391,6.336c0.198,0.948,0.579,1.828,1.055,2.664
					c0.255,0.448,1.408,1.296,1.408,1.637c0,0.164,0.108,0.28,0.255,0.334c1.195,0.439,2.6,0.484,3.854,0.402
					c0.444-0.029,0.447-0.723,0-0.693c-0.495,0.032-3.415-0.09-3.415-0.172c0-0.641-1.161-1.363-1.502-1.857
					c-1.646-2.386-1.448-5.89-1.352-8.65C27.539,26.381,26.845,26.383,26.83,26.829L26.83,26.829z"/>
			</g>
		</g>
		<g>
			<g>
				<path d="M33.495,38.189c3.096-1.073,3.684-4.51,4.088-7.409c0.355-2.55-0.614-11.245,3.343-10.999
					c0.447,0.028,0.444-0.666,0-0.693c-6.75-0.42-1.357,16.263-7.616,18.433C32.891,37.666,33.072,38.336,33.495,38.189
					L33.495,38.189z"/>
			</g>
		</g>
		<g>
			<g>
				<path d="M39.875,19.939c0.231-0.204,0.491-0.275,0.793-0.288c0.445-0.019,0.447-0.712,0-0.693
					c-0.492,0.021-0.912,0.163-1.283,0.491C39.049,19.746,39.541,20.234,39.875,19.939L39.875,19.939z"/>
			</g>
		</g>
		<g>
			<g>
				<path d="M16.618,32.394c0.52,0.114,1.015,0.114,1.535,0c0.175-0.038,0.101-0.306-0.074-0.267c-0.475,0.104-0.912,0.104-1.387,0
					C16.518,32.088,16.444,32.355,16.618,32.394L16.618,32.394z"/>
			</g>
		</g>
		<g>
			<g>
				<path d="M16.801,29.923c0.302,0.385,0.76,0.523,1.231,0.401c0.173-0.045,0.1-0.312-0.074-0.267
					c-0.38,0.098-0.718-0.02-0.961-0.33C16.887,29.586,16.692,29.784,16.801,29.923L16.801,29.923z"/>
			</g>
		</g>
		<g>
			<g>
				<path d="M16.585,27.388c0.534,0.38,1.117,0.604,1.775,0.628c0.179,0.006,0.178-0.271,0-0.277
					c-0.61-0.022-1.141-0.239-1.635-0.59C16.579,27.045,16.441,27.285,16.585,27.388L16.585,27.388z"/>
			</g>
		</g>
		<g>
			<g>
				<path d="M17.734,23.859c-0.096,1.293,0.433,2.4,1.38,3.264c0.132,0.12,0.329-0.075,0.196-0.196
					c-0.898-0.819-1.39-1.84-1.299-3.067C18.025,23.681,17.747,23.682,17.734,23.859L17.734,23.859z"/>
			</g>
		</g>
		<g>
			<g>
				<path d="M20.539,24.796c-0.107,0.7-0.126,1.4-0.127,2.107c0,0.179,0.277,0.179,0.277,0c0-0.681,0.013-1.358,0.117-2.033
					C20.833,24.695,20.566,24.62,20.539,24.796L20.539,24.796z"/>
			</g>
		</g>
		<g>
			<g>
				<path d="M22.487,27.84c-0.131,0.41-0.232,0.824-0.248,1.254c-0.007,0.179,0.271,0.178,0.277,0
					c0.016-0.407,0.115-0.795,0.239-1.181C22.809,27.743,22.541,27.67,22.487,27.84L22.487,27.84z"/>
			</g>
		</g>
		<g>
			<g>
				<path d="M24.206,29.511c-0.445,0.711-0.656,1.558-0.244,2.332c0.084,0.158,0.324,0.018,0.239-0.14
					c-0.366-0.686-0.146-1.429,0.244-2.052C24.54,29.499,24.3,29.36,24.206,29.511L24.206,29.511z"/>
			</g>
		</g>
		<g>
			<g>
				<path d="M25.409,29.618c0.169,0.536,0.573,0.697,1.108,0.711c0.179,0.004,0.179-0.273,0-0.277
					c-0.395-0.01-0.708-0.088-0.84-0.507C25.623,29.375,25.355,29.447,25.409,29.618L25.409,29.618z"/>
			</g>
		</g>
		<g>
			<g>
				<path d="M25.201,27.244c0.291,0.372,0.724,0.503,1.157,0.644c0.171,0.056,0.243-0.212,0.074-0.267
					c-0.391-0.127-0.771-0.236-1.035-0.573C25.288,26.907,25.093,27.105,25.201,27.244L25.201,27.244z"/>
			</g>
		</g>
		<g>
			<g>
				<path d="M25.891,22.398c0.036,1.435,0.636,2.721,1.623,3.751c0.124,0.129,0.32-0.067,0.196-0.196
					c-0.937-0.977-1.508-2.192-1.542-3.554C26.164,22.22,25.887,22.219,25.891,22.398L25.891,22.398z"/>
			</g>
		</g>
		<g>
			<g>
				<path d="M27.625,26.331c0.261-0.967,0.839-1.759,1.641-2.352c0.142-0.105,0.004-0.346-0.14-0.239
					c-0.862,0.637-1.487,1.478-1.768,2.518C27.31,26.43,27.578,26.504,27.625,26.331L27.625,26.331z"/>
			</g>
		</g>
		<g>
			<g>
				<path d="M27.711,27.853c0.45-0.536,0.999-0.914,1.643-1.182c0.163-0.068,0.091-0.336-0.074-0.267
					c-0.691,0.287-1.282,0.678-1.766,1.253C27.4,27.793,27.596,27.99,27.711,27.853L27.711,27.853z"/>
			</g>
		</g>
		<g>
			<g>
				<path d="M27.346,31.628c0.639-0.504,1.317-0.947,2.042-1.318c0.159-0.082,0.019-0.321-0.14-0.239
					c-0.746,0.382-1.44,0.842-2.098,1.361C27.009,31.542,27.207,31.737,27.346,31.628L27.346,31.628z"/>
			</g>
		</g>
		<g>
			<g>
				<path d="M28.463,35.13c0.512-0.863,1.256-1.405,2.23-1.641c0.174-0.042,0.1-0.309-0.074-0.267
					c-1.042,0.252-1.849,0.847-2.396,1.768C28.132,35.144,28.372,35.284,28.463,35.13L28.463,35.13z"/>
			</g>
		</g>
		<g>
			<g>
				<path d="M31.654,35.206c-0.735,0.78-0.867,1.696-0.265,2.603c0.098,0.148,0.339,0.009,0.239-0.14
					c-0.533-0.802-0.432-1.573,0.222-2.267C31.973,35.272,31.777,35.075,31.654,35.206L31.654,35.206z"/>
			</g>
		</g>
		<g>
			<g>
				<path d="M33.874,34.936c0.536,0.377,1.067,0.477,1.69,0.257c0.168-0.059,0.095-0.327-0.074-0.267
					c-0.556,0.196-1.001,0.105-1.476-0.23C33.867,34.594,33.729,34.834,33.874,34.936L33.874,34.936z"/>
			</g>
		</g>
		<g>
			<g>
				<path d="M34.969,31.649c0.551,0.245,1.05,0.245,1.601,0c0.163-0.073,0.022-0.311-0.14-0.239c-0.459,0.204-0.862,0.204-1.321,0
					C34.948,31.338,34.806,31.577,34.969,31.649L34.969,31.649z"/>
			</g>
		</g>
		<g>
			<g>
				<path d="M35.456,27.753c0.656,0.361,1.3,0.371,1.873-0.143c0.133-0.12-0.064-0.315-0.196-0.196
					c-0.483,0.434-0.991,0.4-1.536,0.1C35.44,27.427,35.3,27.667,35.456,27.753L35.456,27.753z"/>
			</g>
		</g>
		<g>
			<g>
				<path d="M35.631,23.129c0.041,0.757,0.612,1.207,1.319,1.351c0.175,0.036,0.249-0.232,0.074-0.267
					c-0.577-0.118-1.082-0.448-1.116-1.084C35.899,22.951,35.622,22.95,35.631,23.129L35.631,23.129z"/>
			</g>
		</g>
		<g>
			<g>
				<path d="M36.245,20.852c0.293,0.787,0.902,1.279,1.68,1.558c0.169,0.06,0.241-0.208,0.074-0.267
					c-0.678-0.243-1.229-0.675-1.486-1.364C36.451,20.612,36.183,20.684,36.245,20.852L36.245,20.852z"/>
			</g>
		</g>
		<g>
			<g>
				<path d="M37.336,18.38c0.017,0.773,0.254,1.502,0.921,1.946c0.149,0.099,0.288-0.141,0.14-0.239
					c-0.583-0.388-0.769-1.037-0.784-1.707C37.609,18.202,37.332,18.201,37.336,18.38L37.336,18.38z"/>
			</g>
		</g>
		<g>
			<g>
				<path d="M39.04,17.163c-0.103,0.842-0.008,1.665,0.248,2.472c0.054,0.17,0.322,0.097,0.267-0.074
					c-0.249-0.785-0.339-1.58-0.239-2.398C39.339,16.986,39.062,16.988,39.04,17.163L39.04,17.163z"/>
			</g>
		</g>
	</g>
	<g>
		<g>
			<g>
				<path d="M13.691,34.625c0-0.084,0.002-0.179-0.022-0.26c-0.089-0.303-0.525-0.466-0.752-0.199
					c-0.273,0.322-0.191,1.021-0.213,1.413c-0.033,0.578-0.076,1.16-0.081,1.739c-0.005,0.581,0.895,0.58,0.9,0
					c0.004-0.479,0.039-0.959,0.065-1.438c0.015-0.284,0.032-0.568,0.05-0.852c0.007-0.115,0.015-0.231,0.024-0.346
					c0.018-0.236,0.01-0.019-0.108,0.12c-0.251-0.066-0.501-0.132-0.752-0.199c-0.05-0.17-0.011-0.054-0.01,0.021
					C12.794,35.205,13.694,35.205,13.691,34.625L13.691,34.625z"/>
			</g>
		</g>
		<g>
			<g>
				<path d="M13.361,35.059c2.768-1.025,5.786-1.135,8.683-0.673c0.567,0.09,0.811-0.777,0.239-0.868
					c-3.054-0.487-6.238-0.409-9.162,0.673C12.582,34.39,12.816,35.26,13.361,35.059L13.361,35.059z"/>
			</g>
		</g>
		<g>
			<g>
				<path d="M22.067,34.576c0.301,0.779,0.477,1.569,0.489,2.406c0.008,0.58,0.908,0.581,0.9,0
					c-0.013-0.913-0.193-1.793-0.521-2.645C22.728,33.801,21.857,34.034,22.067,34.576L22.067,34.576z"/>
			</g>
		</g>
		<g>
			<g>
				<path d="M22.669,36.868c-2.954-0.141-5.857,0.022-8.705,0.858c-0.556,0.163-0.319,1.032,0.239,0.868
					c2.775-0.815,5.592-0.963,8.466-0.826C23.249,37.796,23.246,36.896,22.669,36.868L22.669,36.868z"/>
			</g>
		</g>
		<g>
			<g>
				<path d="M13.679,35.422c0.073,0.505,0.214,1.012,0.655,1.312c0.405,0.276,0.952,0.087,1.347-0.099
					c0.21-0.099,0.027-0.409-0.182-0.311c-0.309,0.146-0.659,0.269-0.984,0.099c-0.363-0.19-0.438-0.739-0.49-1.097
					C13.993,35.098,13.646,35.196,13.679,35.422L13.679,35.422z"/>
			</g>
		</g>
		<g>
			<g>
				<path d="M14.058,36.338c0.416-0.128,0.848-0.188,1.264-0.316c0.221-0.068,0.127-0.415-0.096-0.347
					c-0.416,0.128-0.848,0.188-1.264,0.316C13.741,36.059,13.836,36.406,14.058,36.338L14.058,36.338z"/>
			</g>
		</g>
		<g>
			<g>
				<path d="M14.101,35.056c0.28-0.139,0.541-0.267,0.857-0.291c0.23-0.018,0.232-0.378,0-0.36c-0.38,0.03-0.701,0.173-1.039,0.341
					C13.712,34.848,13.894,35.159,14.101,35.056L14.101,35.056z"/>
			</g>
		</g>
		<g>
			<g>
				<path d="M14.101,36.32c0.316-0.158,0.632-0.316,0.948-0.474c0.208-0.104,0.025-0.414-0.182-0.311
					c-0.316,0.158-0.632,0.316-0.948,0.474C13.712,36.113,13.894,36.424,14.101,36.32L14.101,36.32z"/>
			</g>
		</g>
		<g>
			<g>
				<path d="M13.9,37.286c0.897-0.151,1.789-0.323,2.686-0.474c0.229-0.039,0.131-0.385-0.096-0.347
					c-0.897,0.151-1.789,0.323-2.686,0.474C13.576,36.978,13.673,37.324,13.9,37.286L13.9,37.286z"/>
			</g>
		</g>
		<g>
			<g>
				<path d="M14.642,36.345c1.672-0.132,3.276,0.027,4.85,0.626c0.217,0.083,0.31-0.265,0.096-0.347
					c-1.607-0.611-3.238-0.774-4.946-0.638C14.413,36.003,14.411,36.363,14.642,36.345L14.642,36.345z"/>
			</g>
		</g>
	</g>
</g>
</svg>
