<?xml version="1.0" encoding="utf-8"?>
<!-- Generator: Adobe Illustrator 17.0.0, SVG Export Plug-In . SVG Version: 6.00 Build 0)  -->
<!DOCTYPE svg PUBLIC "-//W3C//DTD SVG 1.1//EN" "http://www.w3.org/Graphics/SVG/1.1/DTD/svg11.dtd" [
	<!ENTITY st0 "fill:#E6E6E6;">
	<!ENTITY st1 "fill:#3D3D3D;">
]>
<svg version="1.1" id="Calque_1" xmlns="http://www.w3.org/2000/svg" xmlns:xlink="http://www.w3.org/1999/xlink" x="0px" y="0px"
	 width="54px" height="55px" viewBox="0 0 54 55" style="enable-background:new 0 0 54 55;" xml:space="preserve">
<g>
	<path style="&st0;" d="M29.564,11.449c-21.19-5.561-26.558,29.114-4.22,32.899C47.087,47.555,49.506,11.75,29.564,11.449"/>
	<g>
		<path class="focus-piece" fill="#3D3D3D" d="M29.666,11.079C7.321,5.83,3.743,42.118,25.344,44.732c21.135,2.558,25.264-32.744,4.22-33.666
			c-0.495-0.022-0.493,0.746,0,0.767c19.614,0.859,16.222,33.555-3.2,32.255C5.018,42.66,7.643,6.693,29.462,11.819
			C29.943,11.932,30.148,11.192,29.666,11.079L29.666,11.079z"/>
	</g>
</g>
<g>
	<g>
		<g>
			<path d="M23.988,14.261c-6.456,0.335-5.752,13.987-5.462,17.999c0.162,2.236,0.391,6.505,2.448,7.974
				c3.64,2.599,9.348,0.696,13.471,0.728c0.214,0.002,0.338-0.167,0.361-0.361c0.992-8.282,4.012-31.68-11.197-26.012
				c-0.432,0.161-0.245,0.859,0.192,0.696c8.081-3.011,10.671,3.322,11.143,10.264c0.19,2.795,0.026,5.617-0.175,8.405
				c-0.096,1.328-0.235,2.653-0.376,3.977c-0.239,2.251-0.535,2.262-2.743,2.423c-2.966,0.217-8.821,1.575-10.795-1.43
				c-1.38-2.1-1.504-5.237-1.677-7.632c-0.257-3.555-0.568-16.029,4.81-16.308C24.452,14.959,24.454,14.237,23.988,14.261
				L23.988,14.261z"/>
		</g>
	</g>
	<g>
		<g>
			<path d="M22.006,20.954c2.855-0.025,2.995,6.536,3.159,8.313c0.137,1.48,0.211,2.966,0.292,4.45
				c0.121,2.192,1.217,4.399-2.223,3.813c-0.455-0.078-0.65,0.618-0.192,0.696c1.234,0.21,1.977,0.269,3.166-0.157
				c0.139-0.05,0.285-0.183,0.265-0.348c-0.375-3.171,0.727-17.534-4.468-17.489C21.54,20.236,21.54,20.958,22.006,20.954
				L22.006,20.954z"/>
		</g>
	</g>
	<g>
		<g>
			<path d="M21.503,20.907c0.601,5.467,0.539,10.986,1.287,16.438c0.063,0.46,0.759,0.263,0.696-0.192
				c-0.74-5.388-0.668-10.845-1.262-16.247C22.175,20.45,21.452,20.445,21.503,20.907L21.503,20.907z"/>
		</g>
	</g>
	<g>
		<g>
			<path d="M23.139,36.039c0.85,0,1.699,0,2.549,0c0.466,0,0.466-0.722,0-0.722c-0.85,0-1.699,0-2.549,0
				C22.673,35.317,22.673,36.039,23.139,36.039L23.139,36.039z"/>
		</g>
	</g>
	<g>
		<g>
			<path d="M23.518,34.141c0.727-0.175,1.413-0.466,2.069-0.822c0.409-0.222,0.045-0.846-0.364-0.623
				c-0.604,0.328-1.227,0.589-1.896,0.749C22.873,33.553,23.065,34.249,23.518,34.141L23.518,34.141z"/>
		</g>
	</g>
	<g>
		<g>
			<path d="M23.462,31.433c0.667-0.301,1.315-0.642,1.983-0.943c0.424-0.191,0.056-0.813-0.364-0.623
				c-0.667,0.301-1.315,0.642-1.983,0.943C22.674,31.001,23.042,31.623,23.462,31.433L23.462,31.433z"/>
		</g>
	</g>
	<g>
		<g>
			<path d="M23.847,28.968c0.567-0.05,0.999-0.329,1.388-0.734c0.322-0.336-0.188-0.847-0.511-0.511
				c-0.242,0.253-0.512,0.49-0.878,0.523C23.387,28.287,23.383,29.009,23.847,28.968L23.847,28.968z"/>
		</g>
	</g>
	<g>
		<g>
			<path d="M23.801,27.07c0.209-0.034,0.399-0.124,0.612-0.144c0.459-0.044,0.463-0.767,0-0.722c-0.279,0.027-0.53,0.126-0.804,0.17
				C23.15,26.448,23.346,27.143,23.801,27.07L23.801,27.07z"/>
		</g>
	</g>
	<g>
		<g>
			<path d="M23.111,24.305c0.291-0.266,0.795-0.208,1.161-0.209c0.466-0.001,0.466-0.723,0-0.722
				c-0.594,0.001-1.209-0.002-1.671,0.42C22.256,24.11,22.768,24.619,23.111,24.305L23.111,24.305z"/>
		</g>
	</g>
	<g>
		<g>
			<path d="M29.132,21.098c2.997,0.544,2.709,6.196,2.75,8.398c0.028,1.481-0.027,2.963-0.078,4.443
				c-0.022,0.64-0.048,1.281-0.071,1.921c-0.061,1.689-0.887,1.152-2.692,0.728c-0.453-0.107-0.645,0.59-0.192,0.696
				c1.07,0.252,2.117,0.358,3.211,0.484c0.197,0.023,0.359-0.181,0.361-0.361c0.032-3.509,2.172-16.048-3.097-17.005
				C28.869,20.319,28.674,21.015,29.132,21.098L29.132,21.098z"/>
		</g>
	</g>
	<g>
		<g>
			<path d="M28.584,20.907c-0.437,5.311-0.498,10.719,0,16.028c0.043,0.459,0.765,0.464,0.722,0c-0.498-5.309-0.437-10.717,0-16.028
				C29.344,20.443,28.622,20.447,28.584,20.907L28.584,20.907z"/>
		</g>
	</g>
	<g>
		<g>
			<path d="M30.439,34.893c0-0.052,0-0.105,0-0.157c0-0.466-0.722-0.466-0.722,0c0,0.052,0,0.105,0,0.157
				C29.717,35.358,30.439,35.358,30.439,34.893L30.439,34.893z"/>
		</g>
	</g>
	<g>
		<g>
			<path d="M30.361,33.211c0.466,0,0.466-0.722,0-0.722C29.895,32.489,29.895,33.211,30.361,33.211L30.361,33.211z"/>
		</g>
	</g>
	<g>
		<g>
			<path d="M30.722,30.964c0-0.052,0-0.105,0-0.157c0-0.466-0.722-0.466-0.722,0c0,0.052,0,0.105,0,0.157
				C30,31.43,30.722,31.43,30.722,30.964L30.722,30.964z"/>
		</g>
	</g>
	<g>
		<g>
			<path d="M30.722,29.079c0.002-0.014,0.003-0.028,0.005-0.042c-0.084,0.084-0.168,0.168-0.252,0.252
				c0.009-0.002,0.019-0.004,0.028-0.007c0.465-0.014,0.466-0.736,0-0.722c-0.331,0.01-0.495,0.191-0.503,0.518
				C29.989,29.544,30.711,29.543,30.722,29.079L30.722,29.079z"/>
		</g>
	</g>
	<g>
		<g>
			<path d="M30.644,27.24c0.466,0,0.466-0.722,0-0.722S30.179,27.24,30.644,27.24L30.644,27.24z"/>
		</g>
	</g>
	<g>
		<g>
			<path d="M30.644,25.04c0.466,0,0.466-0.722,0-0.722S30.179,25.04,30.644,25.04L30.644,25.04z"/>
		</g>
	</g>
</g>
</svg>
