<?xml version="1.0" encoding="utf-8"?>
<!-- Generator: Adobe Illustrator 17.0.0, SVG Export Plug-In . SVG Version: 6.00 Build 0)  -->
<!DOCTYPE svg PUBLIC "-//W3C//DTD SVG 1.1//EN" "http://www.w3.org/Graphics/SVG/1.1/DTD/svg11.dtd" [
	<!ENTITY st0 "fill:#E6E6E6;">
	<!ENTITY st1 "fill:#3D3D3D;">
]>
<svg version="1.1" id="Calque_1" xmlns="http://www.w3.org/2000/svg" xmlns:xlink="http://www.w3.org/1999/xlink" x="0px" y="0px"
	 width="54px" height="55px" viewBox="0 0 54 55" style="enable-background:new 0 0 54 55;" xml:space="preserve">
<g>
	<path style="&st0;" d="M29.564,11.449c-21.19-5.561-26.558,29.114-4.22,32.899C47.087,47.555,49.506,11.75,29.564,11.449"/>
	<g>
		<path class="focus-piece" fill="#3D3D3D" d="M29.666,11.079C7.321,5.83,3.743,42.118,25.344,44.732c21.135,2.558,25.264-32.744,4.22-33.666
			c-0.495-0.022-0.493,0.746,0,0.767c19.614,0.859,16.222,33.555-3.2,32.255C5.018,42.66,7.643,6.693,29.462,11.819
			C29.943,11.932,30.148,11.192,29.666,11.079L29.666,11.079z"/>
	</g>
</g>
<g>
	<g>
		<g>
			<path d="M20.835,23.585c0.017,2.849,0.22,5.692,0.237,8.541c0.005,0.818,1.273,0.818,1.268,0
				c-0.017-2.849-0.22-5.692-0.237-8.541C22.098,22.768,20.83,22.767,20.835,23.585L20.835,23.585z"/>
		</g>
	</g>
	<g>
		<g>
			<g>
				<path d="M21.552,24.607c0.584-0.257,1.431-0.15,2.052-0.151c0.818,0,0.818-1.268,0-1.268c-0.891,0-1.862-0.042-2.693,0.324
					C20.164,23.841,20.811,24.934,21.552,24.607L21.552,24.607z"/>
			</g>
		</g>
		<g>
			<g>
				<path d="M23.207,24.297c-0.246,3.238-0.457,6.479-0.475,9.727c-0.004,0.818,1.264,0.818,1.268,0
					c0.017-3.249,0.228-6.489,0.474-9.727C24.537,23.481,23.269,23.487,23.207,24.297L23.207,24.297z"/>
			</g>
		</g>
		<g>
			<g>
				<path d="M22.181,33.235c0.079,0,0.158,0,0.237,0c0.818,0,0.818-1.268,0-1.268c-0.079,0-0.158,0-0.237,0
					C21.363,31.967,21.363,33.235,22.181,33.235L22.181,33.235z"/>
			</g>
		</g>
		<g>
			<g>
				<path d="M24.052,26.169c2.726-3.08,5.876-5.664,9.016-8.304c-0.361-0.149-0.722-0.299-1.082-0.448
					c0.606,6.793-1.315,13.561-0.215,20.335c0.31-0.239,0.621-0.477,0.931-0.716c-3.135-2.226-6.118-4.654-9.253-6.88
					c-0.668-0.475-1.301,0.626-0.64,1.095c3.135,2.226,6.118,4.654,9.253,6.88c0.506,0.36,1.01-0.231,0.931-0.716
					c-1.08-6.65,0.855-13.324,0.26-19.998c-0.051-0.568-0.644-0.817-1.082-0.448c-3.14,2.64-6.29,5.224-9.016,8.304
					C22.616,25.882,23.509,26.783,24.052,26.169L24.052,26.169z"/>
			</g>
		</g>
		<g>
			<g>
				<path d="M22.853,28.326c2.726-2.045,5.443-4.1,8.068-6.274c0.252-0.209-0.109-0.566-0.359-0.359
					c-2.591,2.147-5.273,4.176-7.965,6.195C22.339,28.081,22.591,28.522,22.853,28.326L22.853,28.326z"/>
			</g>
		</g>
		<g>
			<g>
				<path d="M26.193,28.548c1.146-0.674,2.373-1.192,3.563-1.781c0.293-0.145,0.036-0.583-0.256-0.438
					c-1.19,0.589-2.416,1.107-3.563,1.781C25.656,28.276,25.911,28.715,26.193,28.548L26.193,28.548z"/>
			</g>
		</g>
		<g>
			<g>
				<path d="M23.265,30.775c1.728,0.834,3.549,1.342,5.405,1.807c0.317,0.079,0.452-0.41,0.135-0.489
					c-1.813-0.454-3.594-0.94-5.284-1.756C23.228,30.196,22.971,30.633,23.265,30.775L23.265,30.775z"/>
			</g>
		</g>
		<g>
			<g>
				<path d="M24.379,29.662c1.978,0.863,3.992,1.544,6.14,1.816c0.324,0.041,0.32-0.467,0-0.507
					c-2.054-0.26-3.993-0.922-5.884-1.747C24.338,29.094,24.08,29.531,24.379,29.662L24.379,29.662z"/>
			</g>
		</g>
		<g>
			<g>
				<path d="M24.698,25.212c-0.213,1.849-0.222,3.708-0.223,5.567c0,0.327,0.507,0.327,0.507,0c0-1.859,0.009-3.718,0.223-5.567
					C25.243,24.887,24.735,24.891,24.698,25.212L24.698,25.212z"/>
			</g>
		</g>
		<g>
			<g>
				<path d="M27.148,23.876c0,2.231-0.017,4.457-0.223,6.68c-0.03,0.326,0.477,0.323,0.507,0c0.206-2.223,0.222-4.45,0.223-6.68
					C27.655,23.549,27.148,23.549,27.148,23.876L27.148,23.876z"/>
			</g>
		</g>
		<g>
			<g>
				<path d="M28.039,23.431c0,2.969,0,5.938,0,8.907c0,0.327,0.507,0.327,0.507,0c0-2.969,0-5.938,0-8.907
					C28.546,23.103,28.039,23.103,28.039,23.431L28.039,23.431z"/>
			</g>
		</g>
		<g>
			<g>
				<path d="M27.358,25.837c0.66-0.634,1.457-1.038,2.337-1.271c0.316-0.084,0.182-0.573-0.135-0.489
					c-0.962,0.255-1.841,0.708-2.561,1.401C26.763,25.705,27.122,26.063,27.358,25.837L27.358,25.837z"/>
			</g>
		</g>
		<g>
			<g>
				<path d="M25.553,30.578c1.711,0.431,3.411,0.905,5.121,1.336c0.317,0.08,0.452-0.409,0.135-0.489
					c-1.711-0.431-3.411-0.905-5.121-1.336C25.37,30.009,25.236,30.498,25.553,30.578L25.553,30.578z"/>
			</g>
		</g>
		<g>
			<g>
				<path d="M24.773,31.403c1.552,1.738,3.37,3.127,5.395,4.27c0.285,0.161,0.541-0.277,0.256-0.438
					c-1.988-1.123-3.77-2.486-5.293-4.191C24.913,30.8,24.556,31.16,24.773,31.403L24.773,31.403z"/>
			</g>
		</g>
	</g>
</g>
</svg>
