<?xml version="1.0" encoding="utf-8"?>
<!-- Generator: Adobe Illustrator 17.0.0, SVG Export Plug-In . SVG Version: 6.00 Build 0)  -->
<!DOCTYPE svg PUBLIC "-//W3C//DTD SVG 1.1//EN" "http://www.w3.org/Graphics/SVG/1.1/DTD/svg11.dtd">
<svg version="1.1" id="Calque_1" xmlns="http://www.w3.org/2000/svg" xmlns:xlink="http://www.w3.org/1999/xlink" x="0px" y="0px"
	 width="54px" height="55px" viewBox="0 0 54 55" enable-background="new 0 0 54 55" xml:space="preserve">
<g>
	<path fill="#E6E6E6" d="M29.564,11.449c-21.19-5.561-26.558,29.114-4.22,32.899C47.087,47.555,49.506,11.75,29.564,11.449"/>
	<g>
		<path class="focus-piece" fill="#3D3D3D" d="M29.666,11.079C7.321,5.83,3.743,42.118,25.344,44.732c21.135,2.558,25.264-32.744,4.22-33.666
			c-0.495-0.022-0.493,0.746,0,0.767c19.614,0.859,16.222,33.555-3.2,32.255C5.018,42.66,7.643,6.693,29.462,11.819
			C29.943,11.932,30.148,11.192,29.666,11.079L29.666,11.079z"/>
	</g>
</g>
<g>
	<g>
		<g>
			<path d="M15.594,17.185c-0.012,4.989-0.118,9.966,0.545,14.922c0.06,0.445,0.767,0.451,0.707,0
				c-0.663-4.957-0.557-9.934-0.545-14.922C16.302,16.73,15.595,16.73,15.594,17.185L15.594,17.185z"/>
		</g>
	</g>
	<g>
		<g>
			<path d="M15.947,17.89c7.136-0.659,14.292-0.537,21.449-0.527c0.456,0.001,0.456-0.706,0-0.707
				c-7.157-0.011-14.314-0.132-21.449,0.527C15.497,17.225,15.493,17.932,15.947,17.89L15.947,17.89z"/>
		</g>
	</g>
	<g>
		<g>
			<path d="M36.68,17.185c0.546,6.541,0.883,13.098,0.909,19.662c0.002,0.456,0.709,0.456,0.707,0
				c-0.026-6.565-0.363-13.121-0.909-19.662C37.349,16.735,36.642,16.731,36.68,17.185L36.68,17.185z"/>
		</g>
	</g>
	<g>
		<g>
			<path d="M38.124,36.845c-6.907,0.743-14.134,1.481-20.992,0.013c-0.444-0.095-0.633,0.586-0.188,0.682
				c6.93,1.484,14.2,0.763,21.18,0.013C38.572,37.504,38.577,36.797,38.124,36.845L38.124,36.845z"/>
		</g>
	</g>
	<g>
		<g>
			<path d="M15.594,31.757c-0.157,1.756,0.03,3.463,0.376,5.185c0.09,0.447,0.771,0.257,0.682-0.188
				c-0.334-1.662-0.502-3.305-0.351-4.997C16.341,31.302,15.634,31.306,15.594,31.757L15.594,31.757z"/>
		</g>
	</g>
	<g>
		<g>
			<path d="M24.76,20.531c-3.835,0.768-6.55,4.158-5.859,8.159c0.776,4.492,4.87,7.052,9.313,6.308
				c3.957-0.662,7.175-3.158,6.306-7.489c-0.909-4.531-5.823-6.983-10.029-7.167c-0.456-0.02-0.454,0.687,0,0.707
				c3.859,0.169,7.565,2.092,9.086,5.793c1.575,3.83-1.356,6.572-4.873,7.361c-4.085,0.916-8.057-1.087-9.042-5.242
				c-0.893-3.764,1.678-7.026,5.286-7.749C25.395,21.123,25.205,20.442,24.76,20.531L24.76,20.531z"/>
		</g>
	</g>
	<g>
		<g>
			<path d="M33.58,19.114c-0.061,0-0.121,0-0.182,0c-0.456,0-0.456,0.707,0,0.707c0.061,0,0.121,0,0.182,0
				C34.035,19.821,34.035,19.114,33.58,19.114L33.58,19.114z"/>
		</g>
	</g>
	<g>
		<g>
			<path d="M33.58,19.997c0.456,0,0.456-0.707,0-0.707C33.124,19.29,33.124,19.997,33.58,19.997L33.58,19.997z"/>
		</g>
	</g>
	<g>
		<g>
			<path d="M33.885,19.822c0.047-0.084-0.007-0.073-0.164,0.032c-0.102-0.058-0.203-0.117-0.305-0.175
				c0.002,0.005,0.005,0.009,0.007,0.014c-0.012-0.091-0.024-0.182-0.036-0.272c0.008-0.043-0.176,0.103-0.223,0.13
				c-0.021,0.012-0.542,0.197-0.297,0.15c0.115,0.03,0.229,0.061,0.344,0.091c0.198,0.16,0.035,0.358,0.134,0.143
				c0.039-0.084,0.084-0.164,0.131-0.244c0.039-0.068,0.082-0.138,0.132-0.2c0.127-0.159-0.385-0.283-0.381-0.198
				c0.008,0.161,0.103,0.294,0.259,0.341c0.055,0.016,0.11,0.033,0.165,0.049c0.179,0.122,0.232,0.055,0.158-0.201
				c-0.069,0.072-0.17,0.124-0.251,0.181c-0.19,0.135-0.367,0.289-0.465,0.505c-0.186,0.412,0.423,0.771,0.61,0.357
				c0.155-0.342,0.661-0.407,0.765-0.784c0.138-0.498-0.427-0.679-0.794-0.789c0.086,0.114,0.173,0.227,0.259,0.341
				c-0.026-0.545-0.537-0.66-0.862-0.256c-0.206,0.256-0.626,0.83-0.424,1.176c0.29,0.495,1.153-0.186,1.364-0.459
				c0.155-0.201,0.047-0.526-0.195-0.593c-0.245-0.067-0.427,0.113-0.54,0.305C33.042,19.858,33.653,20.214,33.885,19.822
				L33.885,19.822z"/>
		</g>
	</g>
	<g>
		<g>
			<path d="M15.958,31.581c0,1.584,0.014,3.164,0.182,4.74c0.048,0.448,0.755,0.453,0.707,0c-0.168-1.576-0.181-3.156-0.182-4.74
				C16.664,31.125,15.957,31.125,15.958,31.581L15.958,31.581z"/>
		</g>
	</g>
	<g>
		<g>
			<path d="M16.259,31.415c0,1.824,0.016,3.643,0.202,5.459c0.018,0.18,0.301,0.181,0.283,0c-0.187-1.816-0.202-3.635-0.202-5.459
				C16.542,31.232,16.259,31.232,16.259,31.415L16.259,31.415z"/>
		</g>
	</g>
	<g>
		<g>
			<path d="M17.073,30.366c-0.314,1.614-0.391,3.307,0.539,4.737c0.831,1.276,2.423,1.728,3.843,1.912
				c0.18,0.023,0.178-0.26,0-0.283c-1.483-0.192-2.886-0.678-3.736-1.983c-0.812-1.247-0.642-2.931-0.374-4.308
				C17.38,30.263,17.108,30.187,17.073,30.366L17.073,30.366z"/>
		</g>
	</g>
	<g>
		<g>
			<path d="M16.941,35.9c0.441-1.284,1.062-2.473,1.805-3.606c0.1-0.153-0.145-0.294-0.244-0.143
				c-0.757,1.153-1.385,2.368-1.834,3.673C16.609,35.998,16.882,36.072,16.941,35.9L16.941,35.9z"/>
		</g>
	</g>
	<g>
		<g>
			<path d="M16.805,32.769c0.182,0,0.182-0.283,0-0.283C16.622,32.486,16.622,32.769,16.805,32.769L16.805,32.769z"/>
		</g>
	</g>
	<g>
		<g>
			<path d="M17.007,30.343c0.182,0,0.182-0.283,0-0.283C16.825,30.06,16.825,30.343,17.007,30.343L17.007,30.343z"/>
		</g>
	</g>
	<g>
		<g>
			<path d="M18.342,34.923c0.66-0.864,1.435-1.63,2.202-2.398c0.129-0.129-0.071-0.329-0.2-0.2
				c-0.785,0.785-1.571,1.571-2.246,2.455C17.987,34.925,18.233,35.066,18.342,34.923L18.342,34.923z"/>
		</g>
	</g>
	<g>
		<g>
			<path d="M18.422,35.398c0.182,0,0.182-0.283,0-0.283C18.24,35.115,18.24,35.398,18.422,35.398L18.422,35.398z"/>
		</g>
	</g>
	<g>
		<g>
			<path d="M19.837,33.578c0.182,0,0.182-0.283,0-0.283C19.655,33.295,19.655,33.578,19.837,33.578L19.837,33.578z"/>
		</g>
	</g>
	<g>
		<g>
			<path d="M20.929,29.868c0.251,0.453,0.608,0.81,1.062,1.062c0.16,0.088,0.302-0.156,0.143-0.244
				c-0.412-0.229-0.732-0.548-0.96-0.96C21.084,29.566,20.84,29.709,20.929,29.868L20.929,29.868z"/>
		</g>
	</g>
	<g>
		<g>
			<path d="M19.8,36.606c2.39,0.342,5.195,0.324,7.556-0.202c0.178-0.04,0.102-0.312-0.075-0.273
				c-2.296,0.512-5.077,0.536-7.406,0.202C19.697,36.307,19.62,36.58,19.8,36.606L19.8,36.606z"/>
		</g>
	</g>
	<g>
		<g>
			<path d="M17.918,34.345c0.939,0.949,1.794,1.982,2.831,2.831c0.14,0.114,0.341-0.084,0.2-0.2
				c-1.036-0.848-1.892-1.881-2.831-2.831C17.989,34.016,17.79,34.215,17.918,34.345L17.918,34.345z"/>
		</g>
	</g>
	<g>
		<g>
			<path d="M19.968,34.974c0.966,0.602,1.698,1.476,2.376,2.376c0.108,0.144,0.354,0.003,0.244-0.143
				c-0.708-0.94-1.469-1.848-2.477-2.477C19.956,34.633,19.814,34.878,19.968,34.974L19.968,34.974z"/>
		</g>
	</g>
	<g>
		<g>
			<path d="M21.153,35.356c0.533,0.547,0.971,1.158,1.393,1.791c0.101,0.151,0.346,0.009,0.244-0.143
				c-0.436-0.654-0.887-1.284-1.437-1.848C21.225,35.026,21.026,35.226,21.153,35.356L21.153,35.356z"/>
		</g>
	</g>
	<g>
		<g>
			<path d="M18.154,31.048c0.218-0.669,0.389-1.353,0.607-2.022c0.057-0.174-0.216-0.248-0.273-0.075
				c-0.218,0.669-0.389,1.353-0.607,2.022C17.825,31.147,18.098,31.22,18.154,31.048L18.154,31.048z"/>
		</g>
	</g>
	<g>
		<g>
			<path d="M17.209,29.13c0.182,0,0.182-0.283,0-0.283C17.027,28.847,17.027,29.13,17.209,29.13L17.209,29.13z"/>
		</g>
	</g>
	<g>
		<g>
			<path d="M16.927,27.038c0.427-0.866,0.787-1.763,1.213-2.628c0.08-0.163-0.164-0.306-0.244-0.143
				c-0.427,0.866-0.787,1.763-1.213,2.628C16.602,27.058,16.846,27.201,16.927,27.038L16.927,27.038z"/>
		</g>
	</g>
	<g>
		<g>
			<path d="M16.503,24.236c0.747,0.577,1.548,1.356,2,2.195c0.086,0.161,0.33,0.018,0.244-0.143
				c-0.464-0.862-1.279-1.661-2.044-2.253C16.56,23.926,16.358,24.125,16.503,24.236L16.503,24.236z"/>
		</g>
	</g>
	<g>
		<g>
			<path d="M17.275,27.611c0.181,0.597,0.224,1.222,0.404,1.82c0.053,0.174,0.325,0.1,0.273-0.075
				c-0.181-0.597-0.224-1.222-0.404-1.82C17.495,27.361,17.222,27.436,17.275,27.611L17.275,27.611z"/>
		</g>
	</g>
	<g>
		<g>
			<path d="M17.311,31.919c0.299,0.316,0.518,0.69,0.809,1.011c0.123,0.135,0.322-0.065,0.2-0.2
				c-0.291-0.321-0.509-0.695-0.809-1.011C17.386,31.587,17.186,31.787,17.311,31.919L17.311,31.919z"/>
		</g>
	</g>
	<g>
		<g>
			<path d="M17.542,35.378c0.35,0.185,0.573,0.409,0.758,0.758c0.085,0.161,0.329,0.018,0.244-0.143
				c-0.208-0.393-0.467-0.651-0.859-0.859C17.524,35.049,17.381,35.293,17.542,35.378L17.542,35.378z"/>
		</g>
	</g>
	<g>
		<g>
			<path d="M16.565,36.606c1.46,0.238,2.921,0.431,4.395,0.56c0.949,0.083,1.9,0.107,2.852,0.102
				c1.673-0.01-1.241-0.603-1.713-0.732c-0.176-0.048-0.251,0.225-0.075,0.273c0.992,0.272,1.836,0.503,2.868,0.409
				c0.179-0.016,0.184-0.294,0-0.283c-2.767,0.169-5.524-0.157-8.252-0.602C16.462,36.304,16.385,36.576,16.565,36.606
				L16.565,36.606z"/>
		</g>
	</g>
	<g>
		<g>
			<path d="M23.477,35.6c0.182,0,0.182-0.283,0-0.283C23.295,35.317,23.295,35.6,23.477,35.6L23.477,35.6z"/>
		</g>
	</g>
	<g>
		<g>
			<path d="M25.057,36.201c0.153,0.032,0.246,0.169,0.404,0.202c0.178,0.037,0.254-0.235,0.075-0.273
				c-0.153-0.032-0.246-0.169-0.404-0.202C24.954,35.891,24.878,36.164,25.057,36.201L25.057,36.201z"/>
		</g>
	</g>
	<g>
		<g>
			<path d="M25.499,33.78c0.182,0,0.182-0.283,0-0.283C25.316,33.497,25.316,33.78,25.499,33.78L25.499,33.78z"/>
		</g>
	</g>
	<g>
		<g>
			<path d="M25.145,22.724c-0.524,0.11-0.913,0.557-0.834,1.113c0.097,0.687,0.68,1.011,1.336,0.931
				c0.562-0.069,0.987-0.465,0.881-1.049c-0.118-0.649-0.828-0.992-1.421-1.022c-0.064-0.003-0.064,0.097,0,0.1
				c0.524,0.027,0.992,0.261,1.247,0.732c0.289,0.533-0.086,0.982-0.602,1.119c-1.302,0.346-1.921-1.547-0.581-1.828
				C25.235,22.807,25.208,22.711,25.145,22.724L25.145,22.724z"/>
		</g>
	</g>
	<g>
		<g>
			<path d="M30.132,24.719c-0.524,0.11-0.913,0.557-0.834,1.113c0.097,0.687,0.68,1.011,1.336,0.931
				c0.562-0.069,0.987-0.465,0.881-1.049c-0.118-0.649-0.828-0.992-1.421-1.022c-0.064-0.003-0.064,0.097,0,0.1
				c0.524,0.027,0.992,0.261,1.247,0.732c0.289,0.533-0.086,0.982-0.602,1.119c-1.302,0.346-1.921-1.547-0.581-1.828
				C30.221,24.802,30.194,24.706,30.132,24.719L30.132,24.719z"/>
		</g>
	</g>
	<g>
		<g>
			<path d="M30.464,29.373c-0.524,0.11-0.913,0.557-0.834,1.113c0.097,0.687,0.68,1.011,1.336,0.931
				c0.562-0.069,0.987-0.465,0.881-1.049c-0.118-0.649-0.828-0.992-1.421-1.022c-0.064-0.003-0.064,0.097,0,0.1
				c0.524,0.027,0.992,0.261,1.247,0.732c0.289,0.533-0.086,0.982-0.602,1.119c-1.302,0.346-1.921-1.547-0.581-1.828
				C30.554,29.456,30.527,29.36,30.464,29.373L30.464,29.373z"/>
		</g>
	</g>
	<g>
		<g>
			<path d="M24.812,30.038c-0.524,0.11-0.913,0.557-0.834,1.113c0.097,0.687,0.68,1.011,1.336,0.931
				c0.562-0.069,0.987-0.465,0.881-1.049c-0.118-0.649-0.828-0.992-1.421-1.022c-0.064-0.003-0.064,0.097,0,0.1
				c0.524,0.027,0.992,0.261,1.247,0.732c0.289,0.533-0.086,0.982-0.602,1.119c-1.302,0.346-1.921-1.547-0.581-1.828
				C24.902,30.121,24.875,30.025,24.812,30.038L24.812,30.038z"/>
		</g>
	</g>
	<g>
		<g>
			<path d="M21.82,25.716c-0.524,0.11-0.913,0.557-0.834,1.113c0.097,0.687,0.68,1.011,1.336,0.931
				c0.562-0.069,0.987-0.465,0.881-1.049c-0.118-0.649-0.828-0.992-1.421-1.022c-0.064-0.003-0.064,0.097,0,0.1
				c0.524,0.027,0.992,0.261,1.247,0.732c0.289,0.533-0.086,0.982-0.602,1.119c-1.302,0.346-1.921-1.547-0.581-1.828
				C21.91,25.799,21.883,25.703,21.82,25.716L21.82,25.716z"/>
		</g>
	</g>
	<g>
		<g>
			<path d="M26.51,27.825c0.064,0,0.064-0.1,0-0.1S26.445,27.825,26.51,27.825L26.51,27.825z"/>
		</g>
	</g>
	<g>
		<g>
			<path d="M26.51,27.623c0.199,0.02,0.662,0.594,0.805,0.514c0.015-0.008,0.026-0.026,0.025-0.043
				c-0.016-0.297-0.432-0.721-0.584-0.951c-0.026-0.039-0.096-0.028-0.093,0.025c0.016,0.28,0.089,0.531,0.344,0.678
				c0.13,0.075,0.308,0.056,0.381-0.082c0.013-0.025,0-0.179-0.002-0.179c0.033-0.023,0.069-0.055,0.08-0.096
				c0.028-0.1-0.117-0.106-0.176-0.106c-0.195,0-0.905,0.076-0.97,0.312c-0.025,0.09,0.115,0.113,0.17,0.118
				c0.161,0.015,0.271,0.232,0.444,0.169c0.158-0.057,0.297-0.189,0.246-0.375c-0.036-0.131-0.214-0.216-0.192-0.347
				c0.007-0.04,0.012-0.099-0.021-0.132c-0.159-0.159-0.457,0.615-0.484,0.709c-0.021,0.073-0.041,0.215,0.059,0.243
				c0.051,0.014,0.098-0.01,0.143-0.03c-0.057,0.025,0.011,0.159,0.045,0.194c0.223,0.223,0.535-0.487,0.549-0.631
				c0.007-0.076-0.054-0.114-0.12-0.109c-0.241,0.02-0.349,0.081-0.554-0.056c-0.022-0.015-0.056-0.005-0.068,0.018
				c-0.088,0.162-0.049,0.525-0.076,0.698c-0.04,0.259,0.292,0.263,0.453,0.265c0.032,0,0.057-0.032,0.048-0.063
				c-0.064-0.219-0.014-0.483-0.118-0.685c-0.076-0.148-0.433-0.401-0.585-0.349c-0.186,0.063,0.082,0.737,0.244,0.722
				c0.021-0.002,0.043-0.014,0.048-0.037c0.024-0.115,0.009-0.236,0.026-0.353c-0.168-0.099-0.174-0.147-0.017-0.146
				c-0.001,0.042,0.001,0.083,0.004,0.125c0.011,0.202,0.156,0.301,0.324,0.375c0.058,0.026,0.109-0.06,0.05-0.086
				c-0.46-0.205-0.09-0.765-0.657-0.404c-0.026,0.016-0.035,0.056-0.01,0.079c0.085,0.075,0.198,0.19,0.309,0.098
				c0.044-0.036,0.037-0.118-0.005-0.149c-0.024-0.017-0.053-0.002-0.068,0.018c-0.047,0.064-0.073,0.285-0.03,0.345
				c-0.072-0.098-0.114-0.222-0.152-0.336c-0.088-0.264,0.206-0.036,0.296,0.021c0.217,0.139,0.164,0.359,0.192,0.575
				c0.047,0.362-0.236-0.109-0.231-0.141c0.018-0.113,0.029-0.226,0.039-0.34c0.005-0.054,0.006-0.108,0.006-0.162
				c0-0.047-0.095-0.017-0.035,0.036c0.071,0.062,0.166,0.075,0.256,0.083c0.148,0.013,0.374-0.137,0.301,0.08
				c-0.048,0.144-0.37,0.649-0.388,0.241c-0.002-0.037-0.042-0.064-0.075-0.043c-0.233,0.141-0.012-0.325,0.018-0.387
				c0.054-0.112,0.233-0.505,0.161-0.19c-0.004,0.016-0.001,0.038,0.013,0.049c0.195,0.095,0.155,0.214-0.119,0.356
				c-0.003-0.022-0.028-0.036-0.048-0.037c-0.438-0.006-0.161-0.085,0.089-0.155c0.099-0.027,0.199-0.048,0.3-0.066
				c0.06-0.011,0.335-0.077,0.192,0.025c-0.017,0.012-0.032,0.034-0.023,0.056c0.122,0.316-0.328,0.111-0.415-0.019
				c-0.239-0.354,0-0.093,0.092,0.046c0.075,0.114,0.149,0.23,0.221,0.346c0.061,0.099,0.149,0.114,0.039,0.019
				c-0.196-0.17-0.423-0.428-0.697-0.455C26.445,27.517,26.446,27.617,26.51,27.623L26.51,27.623z"/>
		</g>
	</g>
</g>
</svg>
