<?xml version="1.0" encoding="utf-8"?>
<!-- Generator: Adobe Illustrator 17.0.0, SVG Export Plug-In . SVG Version: 6.00 Build 0)  -->
<!DOCTYPE svg PUBLIC "-//W3C//DTD SVG 1.1//EN" "http://www.w3.org/Graphics/SVG/1.1/DTD/svg11.dtd">
<svg version="1.1" id="Calque_1" xmlns="http://www.w3.org/2000/svg" xmlns:xlink="http://www.w3.org/1999/xlink" x="0px" y="0px"
	 width="54px" height="55px" viewBox="0 0 54 55" enable-background="new 0 0 54 55" xml:space="preserve">
<g>
	<path fill="#E6E6E6" d="M29.564,11.449c-21.19-5.561-26.558,29.114-4.22,32.899C47.087,47.555,49.506,11.75,29.564,11.449"/>
	<g>
		<path class="focus-piece" fill="#3D3D3D" d="M29.666,11.079C7.321,5.83,3.743,42.118,25.344,44.732c21.135,2.558,25.264-32.744,4.22-33.666
			c-0.495-0.022-0.493,0.746,0,0.767c19.614,0.859,16.222,33.555-3.2,32.255C5.018,42.66,7.643,6.693,29.462,11.819
			C29.943,11.932,30.148,11.192,29.666,11.079L29.666,11.079z"/>
	</g>
</g>
<g>
	<g>
		<g>
			<path d="M30.137,33.866c-0.507-1-1.504-2.759-2.875-2.591c-1.71,0.208-1.709,2.634-1.675,3.901c0.024,0.9,1.423,0.903,1.399,0
				c-0.017-0.664-0.014-1.329,0.146-1.977c0.041-0.167,0.1-0.312,0.187-0.459c0.041-0.069,0.146-0.09,0.013-0.074
				c0.577-0.07,1.328,1.377,1.597,1.907C29.337,35.377,30.544,34.669,30.137,33.866L30.137,33.866z"/>
		</g>
	</g>
	<g>
		<g>
			<path d="M21.733,32.959c-0.452,1.093-0.31,2.477-0.282,3.632c0.019,0.779,1.23,0.781,1.211,0
				c-0.026-1.054-0.174-2.314,0.239-3.31C23.199,32.56,22.027,32.249,21.733,32.959L21.733,32.959z"/>
		</g>
	</g>
	<g>
		<g>
			<path d="M22.781,33.852c2.499-0.814,5.115-0.903,7.719-1.051c0.992-0.056,2.588-0.655,2.66,0.732
				c0.048,0.923-0.072,1.851-0.085,2.774c-0.008,0.528,0.81,0.527,0.818,0c0.02-1.424,0.243-2.865-0.118-4.264
				c-0.042-0.161-0.218-0.32-0.394-0.3c-3.607,0.402-7.328,0.184-10.817,1.32C22.064,33.226,22.278,34.016,22.781,33.852
				L22.781,33.852z"/>
		</g>
	</g>
	<g>
		<g>
			<path d="M24.772,32.485c0.156-0.81,0.15-1.62,0.213-2.44c0.038-0.487,0.116-1.113,0.658-1.223
				c0.388-0.079,0.797-0.109,1.187-0.03c1.036,0.21,1.561,2.191,2.025,2.977c0.268,0.454,0.975,0.043,0.706-0.413
				c-0.695-1.178-1.131-3.072-2.67-3.385c-0.442-0.09-2.06-0.121-2.268,0.372c-0.547,1.292-0.38,2.577-0.639,3.924
				C23.884,32.783,24.672,33.003,24.772,32.485L24.772,32.485z"/>
		</g>
	</g>
	<g>
		<g>
			<path d="M25.602,27.906c-1.747-1.572-3.805-3.468-4.571-5.753c-0.209-0.623-0.27-1.173-0.092-1.741
				c0.13-0.417,0.485-0.828,0.868-1.086c1.078-0.725,2.505-0.856,3.833-0.824c1.489,0.035,3.078,0.351,4.419,0.93
				c0.602,0.26,1.251,0.631,1.684,1c0.11,0.094,0.215,0.193,0.315,0.297c0.048,0.05,0.095,0.102,0.14,0.155
				c0.087,0.101,0.056,0.065,0.104,0.13c0.178,0.243,0.277,0.448,0.341,0.642c0.153,0.468,0.099,0.962-0.096,1.394
				c-0.325,0.721-0.88,1.265-1.493,1.772c-1.599,1.323-3.595,2.204-5.504,2.971c-0.483,0.194-0.272,0.985,0.217,0.789
				c2.345-0.941,4.96-2.051,6.695-3.966c0.914-1.009,1.422-2.335,0.783-3.624c-0.596-1.203-1.927-1.926-3.117-2.409
				c-1.457-0.591-3.06-0.876-4.628-0.901c-1.374-0.022-2.897,0.159-4.077,0.92c-1.15,0.741-1.585,1.979-1.309,3.299
				c0.216,1.032,0.793,1.985,1.403,2.829c1.006,1.39,2.235,2.611,3.507,3.756C25.414,28.836,25.995,28.26,25.602,27.906
				L25.602,27.906z"/>
		</g>
	</g>
	<g>
		<g>
			<path d="M24.95,22.937c-0.563,1.527,0.247,3.9,0.822,5.305c0.116,0.285,0.585,0.16,0.467-0.129
				c-0.335-0.821-0.564-1.668-0.736-2.536c-0.147-0.742-0.359-1.77-0.086-2.512C25.526,22.772,25.057,22.647,24.95,22.937
				L24.95,22.937z"/>
		</g>
	</g>
	<g>
		<g>
			<path d="M25.669,25.053c0.032,1.27,0.063,2.539,0.095,3.809c0.019,0.779,1.23,0.781,1.211,0c-0.032-1.27-0.063-2.539-0.095-3.809
				C26.86,24.274,25.649,24.272,25.669,25.053L25.669,25.053z"/>
		</g>
	</g>
	<g>
		<g>
			<path d="M24.837,23.252c1.061-0.002,2.064,0.299,3.069,0.606c0.299,0.091,0.427-0.376,0.129-0.467
				c-1.047-0.32-2.094-0.625-3.198-0.624C24.525,22.769,24.525,23.253,24.837,23.252L24.837,23.252z"/>
		</g>
	</g>
	<g>
		<g>
			<path d="M25.989,23.322c0.011,0.462,0.023,0.923,0.034,1.385c0.008,0.312,0.492,0.312,0.484,0
				c-0.011-0.462-0.023-0.923-0.034-1.385C26.465,23.01,25.981,23.01,25.989,23.322L25.989,23.322z"/>
		</g>
	</g>
	<g>
		<g>
			<path d="M25.53,23.235c0.312,0,0.312-0.484,0-0.484S25.218,23.235,25.53,23.235L25.53,23.235z"/>
		</g>
	</g>
	<g>
		<g>
			<path d="M24.907,21.617c0.029,1.154,0.057,2.308,0.086,3.463c0.008,0.312,0.492,0.312,0.484,0
				c-0.029-1.154-0.057-2.308-0.086-3.463C25.384,21.305,24.899,21.304,24.907,21.617L24.907,21.617z"/>
		</g>
	</g>
	<g>
		<g>
			<path d="M26.309,21.864c-0.296,1.047-0.304,2.109-0.277,3.189c0.008,0.312,0.492,0.312,0.484,0
				c-0.025-1.037-0.025-2.054,0.26-3.061C26.862,21.692,26.394,21.564,26.309,21.864L26.309,21.864z"/>
		</g>
	</g>
	<g>
		<g>
			<path d="M27.762,23.503c-1.147,1.726-1.627,3.999-1.618,6.052c0.001,0.312,0.486,0.312,0.484,0
				c-0.009-1.963,0.454-4.155,1.552-5.807C28.353,23.487,27.934,23.244,27.762,23.503L27.762,23.503z"/>
		</g>
	</g>
	<g>
		<g>
			<path d="M24.806,31.721c-1.224,0.683-2.19,1.744-3.146,2.749c-0.363,0.382,0.214,0.961,0.578,0.578
				c0.908-0.954,1.819-1.972,2.981-2.621C25.679,32.17,25.267,31.463,24.806,31.721L24.806,31.721z"/>
		</g>
	</g>
	<g>
		<g>
			<path d="M25.325,31.939c-0.559,1.129-1.449,2.051-2.008,3.18c-0.138,0.279,0.28,0.524,0.418,0.244
				c0.559-1.129,1.449-2.051,2.008-3.18C25.881,31.904,25.463,31.659,25.325,31.939L25.325,31.939z"/>
		</g>
	</g>
	<g>
		<g>
			<path d="M25.897,32.398c-0.628,0.661-1.152,1.349-1.55,2.174c-0.135,0.28,0.282,0.526,0.418,0.244
				c0.38-0.787,0.875-1.445,1.475-2.076C26.454,32.514,26.112,32.171,25.897,32.398L25.897,32.398z"/>
		</g>
	</g>
	<g>
		<g>
			<path d="M26.902,32.421c-0.478,0.973-1.241,1.828-1.983,2.61c-0.215,0.226,0.127,0.569,0.342,0.342
				c0.767-0.809,1.564-1.702,2.059-2.708C27.457,32.386,27.04,32.141,26.902,32.421L26.902,32.421z"/>
		</g>
	</g>
	<g>
		<g>
			<path d="M28.453,31.861c-0.488,1.014-1.214,1.802-1.983,2.61c-0.215,0.226,0.127,0.569,0.342,0.342
				c0.797-0.838,1.553-1.657,2.059-2.708C29.006,31.825,28.588,31.579,28.453,31.861L28.453,31.861z"/>
		</g>
	</g>
</g>
</svg>
