<?xml version="1.0" encoding="utf-8"?>
<!-- Generator: Adobe Illustrator 17.0.0, SVG Export Plug-In . SVG Version: 6.00 Build 0)  -->
<!DOCTYPE svg PUBLIC "-//W3C//DTD SVG 1.1//EN" "http://www.w3.org/Graphics/SVG/1.1/DTD/svg11.dtd">
<svg version="1.1" id="Calque_1" xmlns="http://www.w3.org/2000/svg" xmlns:xlink="http://www.w3.org/1999/xlink" x="0px" y="0px"
	 width="54px" height="55px" viewBox="0 0 54 55" enable-background="new 0 0 54 55" xml:space="preserve">
<g>
	<path fill="#E6E6E6" d="M29.564,11.449c-21.19-5.561-26.558,29.114-4.22,32.899C47.087,47.555,49.506,11.75,29.564,11.449"/>
	<g>
		<path class="focus-piece" fill="#3D3D3D" d="M29.666,11.079C7.321,5.83,3.743,42.118,25.344,44.732c21.135,2.558,25.264-32.744,4.22-33.666
			c-0.495-0.022-0.493,0.746,0,0.767c19.614,0.859,16.222,33.555-3.2,32.255C5.018,42.66,7.643,6.693,29.462,11.819
			C29.943,11.932,30.148,11.192,29.666,11.079L29.666,11.079z"/>
	</g>
</g>
<g>
	<g>
		<g>
			<path d="M13.86,27.182c-0.115-3.194,0.685-8.513,4.262-9.667c3.555-1.147,4.293,5.945,5.039,7.906
				c0.134,0.353,0.715,0.443,0.808,0c0.142-0.753,0.313-1.499,0.511-2.24c0.111-0.363,0.223-0.726,0.334-1.089
				c0.319-1.687,1.347-2.718,3.083-3.093c0.029,2.774-1.179,5.661-1.976,8.276c-1.155,3.787-1.545,7.328,0.298,10.936
				c0.184,0.361,0.639,0.201,0.765-0.1c1.009-2.407,2.33-4.639,3.835-6.765c0.313-0.442-0.414-0.86-0.723-0.423
				c-1.08,1.527-2.033,3.112-2.92,4.758c-1.864,3.456-1.282-4.755-1.084-5.782c0.79-4.112,2.675-7.813,2.631-12.079
				c-0.003-0.272-0.265-0.477-0.53-0.404c-2.588,0.711-5.496,4.438-4.488,7.087c-0.802-2.109-0.802-5.856-2.904-7.262
				c-5.58-3.731-7.905,6.416-7.778,9.94C13.042,27.721,13.879,27.722,13.86,27.182L13.86,27.182z"/>
		</g>
	</g>
	<g>
		<g>
			<path d="M30.916,28.319c-0.365,1.163-0.43,2.565-0.215,3.759c0.095,0.531,0.903,0.305,0.808-0.223
				c-0.188-1.046-0.103-2.3,0.215-3.314C31.886,28.025,31.077,27.806,30.916,28.319L30.916,28.319z"/>
		</g>
	</g>
	<g>
		<g>
			<path d="M31.316,28.376c2.232-1.001,4.708-1.171,7.112-1.399c-0.135-0.102-0.269-0.205-0.404-0.307
				c0.164,0.611,1.004,5.014,0.117,5.171c-2.159,0.382-4.604,0.338-6.71-0.277c-0.52-0.152-0.74,0.657-0.223,0.808
				c2.418,0.706,5.084,0.643,7.546,0.208c0.141-0.025,0.255-0.162,0.292-0.292c0.525-1.833,0.273-4.022-0.215-5.84
				c-0.045-0.167-0.222-0.325-0.404-0.307c-2.562,0.243-5.158,0.447-7.535,1.513C30.401,27.873,30.827,28.595,31.316,28.376
				L31.316,28.376z"/>
		</g>
	</g>
	<g>
		<g>
			<path d="M39.79,24.474c-1.945,2.593-1.718,6.11-1.35,9.157c0.027,0.227,0.17,0.419,0.419,0.419c0.503,0,1.005,0,1.508,0
				c0.239,0,0.404-0.191,0.419-0.419c0.196-3.049,0.215-6.099,0.215-9.154c0-0.54-0.837-0.54-0.838,0
				c0,3.054-0.02,6.105-0.215,9.154c0.14-0.14,0.279-0.279,0.419-0.419c-0.503,0-1.005,0-1.508,0c0.14,0.14,0.279,0.279,0.419,0.419
				c-0.352-2.911-0.624-6.256,1.235-8.734C40.837,24.465,40.11,24.048,39.79,24.474L39.79,24.474z"/>
		</g>
	</g>
	<g>
		<g>
			<path d="M32.28,29.507c0.323,0.624,0.736,1.205,1.224,1.711c0.15,0.156,0.387-0.081,0.237-0.237
				c-0.469-0.486-0.861-1.044-1.172-1.643C32.47,29.147,32.181,29.316,32.28,29.507L32.28,29.507z"/>
		</g>
	</g>
	<g>
		<g>
			<path d="M32.52,28.789c0.719,0.958,1.438,1.917,2.156,2.875c0.128,0.171,0.419,0.004,0.289-0.169
				c-0.719-0.958-1.438-1.917-2.156-2.875C32.681,28.449,32.39,28.616,32.52,28.789L32.52,28.789z"/>
		</g>
	</g>
	<g>
		<g>
			<path d="M33.958,29.028c0.475,0.95,0.96,1.898,1.703,2.669c0.15,0.156,0.387-0.081,0.237-0.237
				c-0.724-0.75-1.189-1.678-1.651-2.602C34.15,28.666,33.861,28.836,33.958,29.028L33.958,29.028z"/>
		</g>
	</g>
	<g>
		<g>
			<path d="M32.33,30.945c0.475-0.912,1.17-1.641,1.891-2.362c0.153-0.153-0.084-0.39-0.237-0.237
				c-0.741,0.741-1.455,1.493-1.943,2.43C31.941,30.967,32.23,31.137,32.33,30.945L32.33,30.945z"/>
		</g>
	</g>
	<g>
		<g>
			<path d="M33.742,30.979c0.591-0.591,1.191-1.176,1.883-1.651c0.177-0.121,0.01-0.412-0.169-0.289
				c-0.715,0.491-1.339,1.092-1.951,1.703C33.352,30.895,33.589,31.132,33.742,30.979L33.742,30.979z"/>
		</g>
	</g>
	<g>
		<g>
			<path d="M35.385,31.245c0.413-0.218,0.785-0.501,1.198-0.719c0.191-0.101,0.022-0.39-0.169-0.289
				c-0.413,0.218-0.785,0.501-1.198,0.719C35.025,31.056,35.194,31.345,35.385,31.245L35.385,31.245z"/>
		</g>
	</g>
	<g>
		<g>
			<path d="M36.977,30.788c0.216,0,0.216-0.335,0-0.335S36.761,30.788,36.977,30.788L36.977,30.788z"/>
		</g>
	</g>
	<g>
		<g>
			<path d="M40.247,27.362c-0.443,0.31-0.565,1.009-0.685,1.493c-0.24,0.962-0.343,1.974-0.356,2.964
				c-0.003,0.216,0.332,0.216,0.335,0c0.01-0.814,0.099-1.617,0.246-2.418c0.087-0.473,0.198-1.448,0.629-1.75
				C40.592,27.528,40.425,27.237,40.247,27.362L40.247,27.362z"/>
		</g>
	</g>
	<g>
		<g>
			<path d="M39.691,28.749c0.218,1.416,0.233,2.839,0.234,4.268c0,0.216,0.335,0.216,0.335,0c0-1.46-0.023-2.911-0.246-4.357
				C39.981,28.447,39.658,28.537,39.691,28.749L39.691,28.749z"/>
		</g>
	</g>
</g>
</svg>
