<?xml version="1.0" encoding="utf-8"?>
<!-- Generator: Adobe Illustrator 17.0.0, SVG Export Plug-In . SVG Version: 6.00 Build 0)  -->
<!DOCTYPE svg PUBLIC "-//W3C//DTD SVG 1.1//EN" "http://www.w3.org/Graphics/SVG/1.1/DTD/svg11.dtd">
<svg version="1.1" id="Calque_1" xmlns="http://www.w3.org/2000/svg" xmlns:xlink="http://www.w3.org/1999/xlink" x="0px" y="0px"
	 width="54px" height="55px" viewBox="0 0 54 55" enable-background="new 0 0 54 55" xml:space="preserve">
<g>
	<path fill="#E6E6E6" d="M29.564,11.449c-21.19-5.561-26.558,29.114-4.22,32.899C47.087,47.555,49.506,11.75,29.564,11.449"/>
	<g>
		<path class="focus-piece" fill="#3D3D3D" d="M29.666,11.079C7.321,5.83,3.743,42.118,25.344,44.732c21.135,2.558,25.264-32.744,4.22-33.666
			c-0.495-0.022-0.493,0.746,0,0.767c19.614,0.859,16.222,33.555-3.2,32.255C5.018,42.66,7.643,6.693,29.462,11.819
			C29.943,11.932,30.148,11.192,29.666,11.079L29.666,11.079z"/>
	</g>
</g>
<g>
	<g>
		<g>
			<path d="M31.514,35.615c0.229,0.02,1.307,0.102,0.944-0.467c-0.132-0.208-0.427-0.332-0.632-0.447
				c-0.333-0.185-0.673-0.355-0.995-0.559c-0.252-0.16-0.483,0.239-0.233,0.398c0.352,0.223,0.726,0.409,1.091,0.612
				c0.128,0.071,0.262,0.143,0.373,0.239c0.029-0.074,0.057-0.149,0.086-0.223c-0.062,0.012-0.124,0.016-0.186,0.013
				c-0.149,0.003-0.3-0.014-0.448-0.027C31.218,35.129,31.22,35.59,31.514,35.615L31.514,35.615z"/>
		</g>
	</g>
	<g>
		<g>
			<path d="M26.662,35.727c0.471,0.018,0.928,0.156,1.4,0.174c0.297,0.012,0.296-0.449,0-0.461c-0.471-0.018-0.928-0.156-1.4-0.174
				C26.364,35.255,26.366,35.716,26.662,35.727L26.662,35.727z"/>
		</g>
	</g>
	<g>
		<g>
			<path d="M26.862,35.901c0.297,0,0.297-0.461,0-0.461C26.564,35.44,26.564,35.901,26.862,35.901L26.862,35.901z"/>
		</g>
	</g>
	<g>
		<g>
			<path d="M25.49,19.514c-8.384-0.534-7.406,12.894-1.07,15.213c4.441,1.626,9.589-2.343,10.22-6.757
				c0.775-5.423-5.072-8.855-9.769-8.456c-0.294,0.025-0.296,0.486,0,0.461c5.087-0.432,10.429,3.419,9.113,8.986
				c-0.979,4.144-6.666,7.125-10.396,4.808C18.733,30.753,18,19.498,25.49,19.975C25.787,19.994,25.785,19.533,25.49,19.514
				L25.49,19.514z"/>
		</g>
	</g>
	<g>
		<g>
			<path d="M25.268,25.995c0.123,0.678,0.357,1.564,1.088,1.817c0.488,0.169,0.976-0.163,1.254-0.537
				c0.268-0.361,0.345-0.906-0.003-1.241c-0.569-0.549-1.686-0.162-2.303,0.049c-0.279,0.096-0.159,0.541,0.123,0.444
				c0.43-0.147,2.547-0.672,1.81,0.479c-0.158,0.247-0.46,0.444-0.758,0.361c-0.54-0.15-0.686-1.051-0.767-1.495
				C25.659,25.58,25.215,25.704,25.268,25.995L25.268,25.995z"/>
		</g>
	</g>
	<g>
		<g>
			<path d="M21.405,21.708c2.056,0.2,4.008,2.462,4.225,4.473c0.032,0.292,0.493,0.295,0.461,0c-0.247-2.28-2.353-4.707-4.686-4.934
				C21.109,21.218,21.112,21.68,21.405,21.708L21.405,21.708z"/>
		</g>
	</g>
	<g>
		<g>
			<path d="M20.91,23.193c2.011,0.078,3.713,1.368,4.912,2.903c0.183,0.234,0.506-0.095,0.326-0.326
				c-1.276-1.635-3.108-2.955-5.238-3.038C20.613,22.721,20.614,23.182,20.91,23.193L20.91,23.193z"/>
		</g>
	</g>
	<g>
		<g>
			<path d="M25.305,26.454c-2.171,0.313-3.888,1.755-4.841,3.695c-0.131,0.266,0.267,0.499,0.398,0.233
				c0.907-1.846,2.5-3.186,4.566-3.484C25.72,26.856,25.595,26.412,25.305,26.454L25.305,26.454z"/>
		</g>
	</g>
	<g>
		<g>
			<path d="M21.627,31.441c0.423-2.192,2.125-3.758,4.295-4.171c0.292-0.056,0.168-0.5-0.123-0.444
				c-2.314,0.44-4.167,2.158-4.617,4.493C21.127,31.608,21.571,31.732,21.627,31.441L21.627,31.441z"/>
		</g>
	</g>
	<g>
		<g>
			<path d="M26.528,27.426c-1.285,1.984-1.946,4.571-1.137,6.861c0.098,0.278,0.544,0.158,0.444-0.123
				c-0.771-2.183-0.132-4.618,1.091-6.506C27.089,27.409,26.689,27.178,26.528,27.426L26.528,27.426z"/>
		</g>
	</g>
	<g>
		<g>
			<path d="M27.363,27.666c-0.183,2.298,1.372,4.424,3.511,5.173c0.281,0.099,0.401-0.347,0.123-0.444
				c-1.957-0.686-3.339-2.641-3.173-4.729C27.848,27.37,27.387,27.372,27.363,27.666L27.363,27.666z"/>
		</g>
	</g>
	<g>
		<g>
			<path d="M26.281,27.797c-0.966,1.953-1.483,4.622-0.495,6.669c0.129,0.268,0.526,0.034,0.398-0.233
				c-0.909-1.884-0.39-4.414,0.495-6.204C26.81,27.765,26.413,27.531,26.281,27.797L26.281,27.797z"/>
		</g>
	</g>
	<g>
		<g>
			<path d="M26.877,27.604c0.533,2.148,2.156,4.104,4.369,4.617c0.289,0.067,0.412-0.377,0.123-0.444
				c-2.063-0.478-3.551-2.296-4.047-4.295C27.249,27.193,26.805,27.315,26.877,27.604L26.877,27.604z"/>
		</g>
	</g>
	<g>
		<g>
			<path d="M27.601,26.627c2.076,1.581,4.647,1.853,6.793,0.248c0.235-0.176,0.006-0.576-0.233-0.398
				c-2.026,1.516-4.372,1.241-6.327-0.248C27.597,26.049,27.368,26.45,27.601,26.627L27.601,26.627z"/>
		</g>
	</g>
	<g>
		<g>
			<path d="M27.339,26.256c1.725-0.894,3.02-2.294,3.448-4.222c0.064-0.29-0.38-0.413-0.444-0.123
				c-0.404,1.821-1.609,3.104-3.236,3.947C26.842,25.995,27.075,26.393,27.339,26.256L27.339,26.256z"/>
		</g>
	</g>
	<g>
		<g>
			<path d="M27.849,26.256c1.869,1.179,4.318,1.696,6.097,0.088c0.221-0.2-0.106-0.525-0.326-0.326
				c-1.622,1.467-3.861,0.899-5.538-0.16C27.829,25.699,27.598,26.098,27.849,26.256L27.849,26.256z"/>
		</g>
	</g>
	<g>
		<g>
			<path d="M27.71,25.761c1.838-1.027,2.912-2.679,3.085-4.779c0.024-0.296-0.437-0.294-0.461,0
				c-0.159,1.936-1.168,3.436-2.856,4.381C27.218,25.508,27.45,25.906,27.71,25.761L27.71,25.761z"/>
		</g>
	</g>
	<g>
		<g>
			<path d="M26.281,19.49c0.924,2.05,1.378,4.211,0.371,6.327c-0.127,0.267,0.27,0.501,0.398,0.233
				c1.083-2.277,0.631-4.569-0.371-6.793C26.557,18.987,26.16,19.221,26.281,19.49L26.281,19.49z"/>
		</g>
	</g>
	<g>
		<g>
			<path d="M26.578,26.118c0.707-2.222,0.466-4.407-0.371-6.559c-0.106-0.274-0.552-0.155-0.444,0.123
				c0.807,2.076,1.056,4.163,0.371,6.314C26.043,26.28,26.489,26.401,26.578,26.118L26.578,26.118z"/>
		</g>
	</g>
	<g>
		<g>
			<path d="M25.285,18.503c-9.475-0.604-8.369,14.572-1.209,17.193c5.019,1.837,10.837-2.648,11.55-7.637
				c0.876-6.129-5.732-10.007-11.04-9.556c-0.332,0.028-0.335,0.549,0,0.521c5.749-0.488,11.785,3.863,10.299,10.155
				c-1.106,4.683-7.533,8.052-11.749,5.434c-5.487-3.409-6.315-16.128,2.149-15.589C25.621,19.045,25.619,18.525,25.285,18.503
				L25.285,18.503z"/>
		</g>
	</g>
	<g>
		<g>
			<path d="M19.045,27.743c0.09,0.122,0.157,0.25,0.248,0.371c0.116,0.157,0.382,0.004,0.264-0.154
				c-0.09-0.122-0.157-0.25-0.248-0.371C19.193,27.432,18.928,27.585,19.045,27.743L19.045,27.743z"/>
		</g>
	</g>
	<g>
		<g>
			<path d="M19.672,28.933c0.197,0,0.197-0.306,0-0.306C19.475,28.627,19.475,28.933,19.672,28.933L19.672,28.933z"/>
		</g>
	</g>
	<g>
		<g>
			<path d="M20.044,29.428c0.197,0,0.197-0.306,0-0.306S19.846,29.428,20.044,29.428L20.044,29.428z"/>
		</g>
	</g>
	<g>
		<g>
			<path d="M20.786,30.79c0.197,0,0.197-0.306,0-0.306C20.589,30.484,20.589,30.79,20.786,30.79L20.786,30.79z"/>
		</g>
	</g>
	<g>
		<g>
			<path d="M20.881,31.875c0.026,0.27,0.085,0.538,0.36,0.643c0.185,0.07,0.264-0.226,0.081-0.295
				c-0.045-0.116-0.09-0.232-0.135-0.348C21.168,31.68,20.862,31.678,20.881,31.875L20.881,31.875z"/>
		</g>
	</g>
	<g>
		<g>
			<path d="M21.624,32.246c0.001,0.504,0.011,0.992,0.268,1.439c0.098,0.171,0.363,0.017,0.264-0.154
				c-0.229-0.398-0.226-0.838-0.227-1.284C21.929,32.049,21.623,32.048,21.624,32.246L21.624,32.246z"/>
		</g>
	</g>
	<g>
		<g>
			<path d="M22.248,33.072c-0.103,0.66,0.141,1.105,0.658,1.51c0.153,0.12,0.372-0.095,0.216-0.216
				c-0.415-0.325-0.666-0.658-0.58-1.213C22.573,32.96,22.278,32.877,22.248,33.072L22.248,33.072z"/>
		</g>
	</g>
	<g>
		<g>
			<path d="M23.154,34.087c0.199,0.216,0.34,0.451,0.471,0.712c0.089,0.176,0.353,0.021,0.264-0.154
				c-0.144-0.286-0.301-0.537-0.519-0.774C23.236,33.725,23.02,33.942,23.154,34.087L23.154,34.087z"/>
		</g>
	</g>
	<g>
		<g>
			<path d="M20.763,31.586c-0.05,0.167-0.073,0.337-0.115,0.506c0.063-0.036,0.125-0.071,0.188-0.107
				c-0.001-0.001-0.003-0.001-0.004-0.002c0.037,0.049,0.075,0.098,0.112,0.148c-0.01-0.126-0.005-0.254-0.005-0.38
				c0-0.197-0.306-0.197-0.306,0c0,0.126-0.005,0.254,0.005,0.38c0.006,0.074,0.044,0.122,0.112,0.148
				c0.001,0.001,0.003,0.001,0.004,0.002c0.077,0.029,0.169-0.031,0.188-0.107c0.042-0.168,0.065-0.339,0.115-0.506
				C21.115,31.478,20.819,31.398,20.763,31.586L20.763,31.586z"/>
		</g>
	</g>
	<g>
		<g>
			<path d="M20.386,30.761c0,0.165,0,0.33,0,0.495c0,0.197,0.306,0.197,0.306,0c0-0.165,0-0.33,0-0.495
				C20.692,30.563,20.386,30.563,20.386,30.761L20.386,30.761z"/>
		</g>
	</g>
	<g>
		<g>
			<path d="M20.02,29.606c-0.106,0.261-0.127,0.503-0.129,0.783c-0.001,0.197,0.305,0.197,0.306,0
				c0.002-0.248,0.024-0.469,0.118-0.702C20.389,29.504,20.093,29.426,20.02,29.606L20.02,29.606z"/>
		</g>
	</g>
	<g>
		<g>
			<path d="M19.788,28.579c-0.145,0.322-0.227,0.668-0.371,0.99c-0.08,0.178,0.184,0.334,0.264,0.154
				c0.145-0.322,0.227-0.668,0.371-0.99C20.132,28.555,19.868,28.399,19.788,28.579L19.788,28.579z"/>
		</g>
	</g>
	<g>
		<g>
			<path d="M19.277,27.626c-0.112,0.282-0.136,0.585-0.248,0.866c-0.073,0.184,0.223,0.262,0.295,0.081
				c0.112-0.282,0.136-0.585,0.248-0.866C19.645,27.523,19.349,27.444,19.277,27.626L19.277,27.626z"/>
		</g>
	</g>
	<g>
		<g>
			<path d="M19.417,26.228c-0.145,0.322-0.227,0.668-0.371,0.99c-0.08,0.178,0.184,0.334,0.264,0.154
				c0.145-0.322,0.227-0.668,0.371-0.99C19.761,26.204,19.497,26.048,19.417,26.228L19.417,26.228z"/>
		</g>
	</g>
	<g>
		<g>
			<path d="M19.177,26.21c0.312-0.003,0.492-0.07,0.524-0.401c0.019-0.196-0.287-0.194-0.306,0
				c-0.051,0.087-0.124,0.118-0.218,0.095C18.98,25.906,18.98,26.212,19.177,26.21L19.177,26.21z"/>
		</g>
	</g>
	<g>
		<g>
			<path d="M19.285,25.175c0.142-0.14,0.289-0.251,0.464-0.347c0.173-0.095,0.018-0.36-0.154-0.264
				c-0.2,0.11-0.364,0.235-0.526,0.395C18.929,25.098,19.145,25.314,19.285,25.175L19.285,25.175z"/>
		</g>
	</g>
	<g>
		<g>
			<path d="M19.162,24.092c-0.008-0.011-0.017-0.021-0.025-0.032c-0.036,0.087-0.072,0.174-0.108,0.261
				c0.104,0.012,0.239,0.127,0.356,0.15c0.193,0.039,0.275-0.256,0.081-0.295c-0.155-0.031-0.28-0.144-0.437-0.161
				c-0.15-0.017-0.178,0.171-0.108,0.261c0.008,0.011,0.017,0.021,0.025,0.032C19.066,24.465,19.281,24.246,19.162,24.092
				L19.162,24.092z"/>
		</g>
	</g>
	<g>
		<g>
			<path d="M19.54,22.762c-0.369,0.534-0.508,1.142-0.634,1.769c-0.039,0.193,0.256,0.275,0.295,0.081
				c0.121-0.601,0.25-1.184,0.603-1.696C19.917,22.753,19.652,22.601,19.54,22.762L19.54,22.762z"/>
		</g>
	</g>
	<g>
		<g>
			<path d="M19.401,24.16c-0.124,0.495-0.248,0.99-0.371,1.485c-0.048,0.191,0.247,0.273,0.295,0.081
				c0.124-0.495,0.248-0.99,0.371-1.485C19.744,24.05,19.449,23.969,19.401,24.16L19.401,24.16z"/>
		</g>
	</g>
	<g>
		<g>
			<path d="M23.881,35.122c0.571,0.011,1.138,0.109,1.692,0.242c0.192,0.046,0.273-0.249,0.081-0.295
				c-0.58-0.139-1.176-0.241-1.773-0.253C23.683,34.812,23.684,35.118,23.881,35.122L23.881,35.122z"/>
		</g>
	</g>
	<g>
		<g>
			<path d="M25.66,35.225c0.434,0.259,0.936,0.376,1.439,0.392c0.197,0.006,0.197-0.3,0-0.306c-0.45-0.014-0.896-0.119-1.284-0.35
				C25.645,34.859,25.491,35.124,25.66,35.225L25.66,35.225z"/>
		</g>
	</g>
	<g>
		<g>
			<path d="M27.182,35.116c0.295,0.118,0.529,0.118,0.824,0c0.181-0.072,0.102-0.368-0.081-0.295c-0.227,0.091-0.434,0.091-0.661,0
				C27.08,34.748,27.001,35.044,27.182,35.116L27.182,35.116z"/>
		</g>
	</g>
	<g>
		<g>
			<path d="M27.841,34.503c0.197,0,0.197-0.306,0-0.306S27.644,34.503,27.841,34.503L27.841,34.503z"/>
		</g>
	</g>
	<g>
		<g>
			<path d="M20.014,22.344c0,0.132,0,0.264,0,0.395c0,0.197,0.306,0.197,0.306,0c0-0.008,0-0.016,0-0.024
				c0-0.197-0.306-0.197-0.306,0c0,0.008,0,0.016,0,0.024c0,0.197,0.306,0.197,0.306,0c0-0.132,0-0.264,0-0.395
				C20.32,22.147,20.014,22.147,20.014,22.344L20.014,22.344z"/>
		</g>
	</g>
	<g>
		<g>
			<path d="M20.262,21.354c0.018,0.191,0.098,0.351,0.129,0.536c0.033,0.194,0.328,0.112,0.295-0.081
				c-0.027-0.159-0.102-0.288-0.118-0.454C20.549,21.159,20.243,21.157,20.262,21.354L20.262,21.354z"/>
		</g>
	</g>
	<g>
		<g>
			<path d="M20.91,21.383c0.197,0,0.197-0.306,0-0.306S20.713,21.383,20.91,21.383L20.91,21.383z"/>
		</g>
	</g>
</g>
</svg>
