<?xml version="1.0" encoding="utf-8"?>
<!-- Generator: Adobe Illustrator 17.0.0, SVG Export Plug-In . SVG Version: 6.00 Build 0)  -->
<!DOCTYPE svg PUBLIC "-//W3C//DTD SVG 1.1//EN" "http://www.w3.org/Graphics/SVG/1.1/DTD/svg11.dtd" [
	<!ENTITY st0 "fill:#E6E6E6;">
	<!ENTITY st1 "fill:#3D3D3D;">
]>
<svg version="1.1" id="Calque_1" xmlns="http://www.w3.org/2000/svg" xmlns:xlink="http://www.w3.org/1999/xlink" x="0px" y="0px"
	 width="54px" height="55px" viewBox="0 0 54 55" style="enable-background:new 0 0 54 55;" xml:space="preserve">
<g>
	<path style="&st0;" d="M29.564,11.449c-21.19-5.561-26.558,29.114-4.22,32.899C47.087,47.555,49.506,11.75,29.564,11.449"/>
	<g>
		<path class="focus-piece" fill="#3D3D3D" d="M29.666,11.079C7.321,5.83,3.743,42.118,25.344,44.732c21.135,2.558,25.264-32.744,4.22-33.666
			c-0.495-0.022-0.493,0.746,0,0.767c19.614,0.859,16.222,33.555-3.2,32.255C5.018,42.66,7.643,6.693,29.462,11.819
			C29.943,11.932,30.148,11.192,29.666,11.079L29.666,11.079z"/>
	</g>
</g>
<g>
	<g>
		<g>
			<path d="M13.757,33.595c9.01-0.367,17.813,0.31,26.747-1.293c0.159-0.029,0.245-0.192,0.256-0.337
				c0.193-2.507,1.523-9.227-1.464-10.705c-2.547-1.26-6.827-0.218-9.483,0.01c-5.418,0.465-10.78,1.203-16.227,1.256
				c-0.192,0.002-0.348,0.158-0.349,0.349c-0.033,3.514,0.049,7.023,0.153,10.535c0.014,0.46,0.649,0.438,0.699,0
				c0.006-0.055,0.012-0.11,0.019-0.165c0.05-0.447-0.649-0.442-0.699,0c0.649-1.037,0.842-2.155,0.58-3.352
				c-0.048-1.756-0.063-3.511-0.069-5.267c-0.008-2.207,8.977-1.948,10.526-2.106c3.966-0.406,15.854-3.473,15.742,2.795
				c-0.037,2.07-0.144,4.121-0.09,6.194c0.02,0.768-7.713,1.205-9.215,1.294c-5.693,0.339-11.421-0.14-17.124,0.093
				C13.308,32.914,13.306,33.613,13.757,33.595z"/>
		</g>
	</g>
	<g>
		<g>
			<path d="M18.638,22.744c0.648-0.148,1.299-0.161,1.96-0.162c0.15,0,0.15-0.232,0-0.232c-0.682,0-1.354,0.018-2.022,0.17
				C18.43,22.554,18.492,22.778,18.638,22.744L18.638,22.744z"/>
		</g>
	</g>
	<g>
		<g>
			<path d="M19.24,24.512c-1.791,0.567-3.277,2.362-2.512,4.292c0.797,2.012,3.842,2.109,5.449,1.17
				c1.431-0.837,1.791-2.735,1.026-4.135c-1.059-1.939-3.533-1.469-5.152-0.652c-0.134,0.067-0.016,0.268,0.117,0.2
				c1.539-0.777,3.605-1.193,4.752,0.436c0.801,1.138,0.507,2.721-0.459,3.647c-1.375,1.319-4.254,1.13-5.349-0.434
				c-1.229-1.756,0.547-3.781,2.189-4.301C19.443,24.69,19.383,24.466,19.24,24.512L19.24,24.512z"/>
		</g>
	</g>
	<g>
		<g>
			<path d="M32.607,24.512c-1.791,0.567-3.277,2.362-2.512,4.292c0.797,2.012,3.842,2.109,5.449,1.17
				c1.431-0.837,1.791-2.735,1.026-4.135c-1.059-1.939-3.533-1.469-5.152-0.652c-0.134,0.067-0.016,0.268,0.117,0.2
				c1.539-0.777,3.605-1.193,4.752,0.436c0.801,1.138,0.507,2.721-0.459,3.647c-1.375,1.319-4.254,1.13-5.349-0.434
				c-1.229-1.756,0.547-3.781,2.189-4.301C32.81,24.69,32.75,24.466,32.607,24.512L32.607,24.512z"/>
		</g>
	</g>
	<g>
		<g>
			<path d="M14.343,26.449c0,1.993,0.013,3.984,0.166,5.973c0.011,0.148,0.243,0.149,0.232,0c-0.153-1.989-0.166-3.979-0.166-5.973
				C14.575,26.299,14.343,26.299,14.343,26.449L14.343,26.449z"/>
		</g>
	</g>
	<g>
		<g>
			<path d="M15.755,32.533c0.834,0.167,1.666,0.323,2.52,0.336c0.15,0.002,0.149-0.23,0-0.232c-0.832-0.012-1.644-0.165-2.458-0.328
				C15.671,32.28,15.609,32.504,15.755,32.533L15.755,32.533z"/>
		</g>
	</g>
	<g>
		<g>
			<path d="M15.852,23.404c-0.685,1.037-1.306,2.115-1.991,3.152c-0.083,0.125,0.118,0.241,0.2,0.117
				c0.685-1.037,1.306-2.115,1.991-3.152C16.135,23.395,15.934,23.279,15.852,23.404L15.852,23.404z"/>
		</g>
	</g>
	<g>
		<g>
			<path d="M15.686,24.897c-0.518,1.015-1.141,1.971-1.659,2.986c-0.068,0.133,0.132,0.25,0.2,0.117
				c0.518-1.015,1.141-1.971,1.659-2.986C15.954,24.881,15.754,24.764,15.686,24.897L15.686,24.897z"/>
		</g>
	</g>
	<g>
		<g>
			<path d="M14.525,25.014c0.54,0.704,1.162,1.327,1.867,1.867c0.119,0.091,0.234-0.111,0.117-0.2
				c-0.671-0.514-1.269-1.113-1.783-1.783C14.635,24.78,14.434,24.895,14.525,25.014L14.525,25.014z"/>
		</g>
	</g>
	<g>
		<g>
			<path d="M14.856,26.341c0.166,0.332,0.332,0.664,0.498,0.995c0.067,0.134,0.267,0.016,0.2-0.117
				c-0.166-0.332-0.332-0.664-0.498-0.995C14.99,26.09,14.79,26.208,14.856,26.341L14.856,26.341z"/>
		</g>
	</g>
	<g>
		<g>
			<path d="M15.538,29.185c0.228,0.243,0.403,0.534,0.574,0.818c0.138,0.228,0.352,0.52,0.392,0.79
				c0.021,0.148,0.245,0.085,0.224-0.062c-0.038-0.259-0.229-0.524-0.356-0.745c-0.193-0.337-0.403-0.681-0.67-0.965
				C15.6,28.912,15.436,29.076,15.538,29.185L15.538,29.185z"/>
		</g>
	</g>
	<g>
		<g>
			<path d="M15.538,31.01c0.206,0.239,0.339,0.526,0.48,0.806c0.067,0.134,0.267,0.016,0.2-0.117
				c-0.15-0.299-0.296-0.598-0.516-0.853C15.604,30.733,15.441,30.898,15.538,31.01L15.538,31.01z"/>
		</g>
	</g>
	<g>
		<g>
			<path d="M15.454,32.703c0.15,0,0.15-0.232,0-0.232C15.305,32.471,15.305,32.703,15.454,32.703L15.454,32.703z"/>
		</g>
	</g>
	<g>
		<g>
			<path d="M14.393,31.485c0.506-0.769,0.947-1.58,1.493-2.323c0.089-0.121-0.113-0.236-0.2-0.117
				c-0.547,0.743-0.988,1.553-1.493,2.323C14.11,31.493,14.311,31.609,14.393,31.485L14.393,31.485z"/>
		</g>
	</g>
	<g>
		<g>
			<path d="M14.393,30.157c0.376-0.766,0.69-1.559,1.007-2.35c0.056-0.139-0.169-0.199-0.224-0.062
				c-0.309,0.773-0.616,1.547-0.984,2.295C14.127,30.174,14.327,30.291,14.393,30.157L14.393,30.157z"/>
		</g>
	</g>
	<g>
		<g>
			<path d="M14.428,31.704c0.684,0.219,1.394,0.359,2.097,0.506c0.496,0.103,1.087,0.134,1.56,0.322c0-0.075,0-0.149,0-0.224
				c-0.002,0.001-0.005,0.001-0.007,0.002c-0.145,0.035-0.084,0.259,0.062,0.224c0.002-0.001,0.005-0.001,0.007-0.002
				c0.122-0.029,0.098-0.184,0-0.224c-0.423-0.169-0.952-0.198-1.396-0.289c-0.757-0.155-1.524-0.304-2.261-0.539
				C14.347,31.434,14.286,31.658,14.428,31.704L14.428,31.704z"/>
		</g>
	</g>
	<g>
		<g>
			<path d="M17.055,31.028c1.125,0.652,2.197,1.394,3.129,2.305c0.107,0.105,0.271-0.059,0.164-0.164
				c-0.946-0.924-2.035-1.679-3.176-2.341C17.042,30.753,16.926,30.953,17.055,31.028L17.055,31.028z"/>
		</g>
	</g>
	<g>
		<g>
			<path d="M17.884,30.862c1.646,0.746,3.201,1.672,4.811,2.489c0.133,0.067,0.251-0.133,0.117-0.2
				c-1.611-0.817-3.165-1.742-4.811-2.489C17.866,30.601,17.748,30.801,17.884,30.862L17.884,30.862z"/>
		</g>
	</g>
	<g>
		<g>
			<path d="M21.037,31.858c0.695,0.343,1.553,0.615,2.133,1.143c0.11,0.1,0.275-0.063,0.164-0.164c-0.6-0.545-1.463-0.825-2.18-1.18
				C21.02,31.592,20.903,31.792,21.037,31.858L21.037,31.858z"/>
		</g>
	</g>
	<g>
		<g>
			<path d="M20.822,32.024c0.699-0.463,1.411-0.941,2.157-1.327c0.133-0.069,0.016-0.269-0.117-0.2
				c-0.746,0.386-1.457,0.864-2.157,1.327C20.581,31.906,20.697,32.107,20.822,32.024L20.822,32.024z"/>
		</g>
	</g>
	<g>
		<g>
			<path d="M22.589,32.703c0.15,0,0.15-0.232,0-0.232C22.439,32.471,22.439,32.703,22.589,32.703L22.589,32.703z"/>
		</g>
	</g>
	<g>
		<g>
			<path d="M18.193,25.537c-1.542,1.468-1.668,3.222,0,4.644c0.113,0.096,0.278-0.067,0.164-0.164c-1.566-1.335-1.449-2.935,0-4.316
				C18.465,25.598,18.301,25.434,18.193,25.537L18.193,25.537z"/>
		</g>
	</g>
	<g>
		<g>
			<path d="M17.677,25.892c-0.601,1.062-1.096,2.32-0.558,3.507c0.57,1.257,2.286,1.459,3.478,1.479c0.15,0.002,0.149-0.23,0-0.232
				c-1.155-0.019-2.493-0.184-3.196-1.219c-0.705-1.037-0.059-2.473,0.476-3.418C17.951,25.879,17.751,25.762,17.677,25.892
				L17.677,25.892z"/>
		</g>
	</g>
	<g>
		<g>
			<path d="M18.193,25.371c-1.109,1.174-1.34,2.545-0.516,3.957c0.075,0.129,0.276,0.012,0.2-0.117
				c-0.768-1.317-0.555-2.58,0.48-3.675C18.46,25.427,18.296,25.262,18.193,25.371L18.193,25.371z"/>
		</g>
	</g>
	<g>
		<g>
			<path d="M32.377,25.171c-1.957,0.258-2.496,2.069-2.103,3.797c0.033,0.146,0.257,0.084,0.224-0.062
				c-0.354-1.557,0.076-3.265,1.879-3.503C32.524,25.384,32.525,25.152,32.377,25.171L32.377,25.171z"/>
		</g>
	</g>
	<g>
		<g>
			<path d="M32.512,25.175c-1.064,0.281-2.146,1.15-2.283,2.31c-0.193,1.63,1.284,2.545,2.615,3.057
				c0.14,0.054,0.2-0.171,0.062-0.224c-1.272-0.489-2.733-1.39-2.416-2.965c0.2-0.994,1.158-1.71,2.085-1.955
				C32.719,25.361,32.657,25.137,32.512,25.175L32.512,25.175z"/>
		</g>
	</g>
	<g>
		<g>
			<path d="M32.651,24.689c-1.446,0.906-2.561,2.4-2.127,4.175c0.435,1.779,2.45,2.212,4.011,2.014c0.146-0.019,0.148-0.251,0-0.232
				c-1.56,0.198-3.243-0.187-3.787-1.844c-0.531-1.616,0.757-3.121,2.021-3.913C32.894,24.81,32.778,24.61,32.651,24.689
				L32.651,24.689z"/>
		</g>
	</g>
	<g>
		<g>
			<path d="M33.072,30.708c1.038-0.197,1.993-0.653,2.986-0.995c-0.03-0.071-0.06-0.141-0.089-0.212
				c-0.728,0.422-1.515,0.678-2.295,0.984c0.03,0.071,0.06,0.141,0.089,0.212c0.931-0.636,1.764-1.402,2.364-2.364
				c0.079-0.127-0.121-0.244-0.2-0.117c-0.579,0.929-1.382,1.667-2.281,2.281c-0.102,0.07-0.04,0.263,0.089,0.212
				c0.8-0.313,1.604-0.575,2.35-1.007c0.112-0.065,0.037-0.256-0.089-0.212c-0.993,0.342-1.948,0.799-2.986,0.995
				C32.863,30.512,32.926,30.736,33.072,30.708L33.072,30.708z"/>
		</g>
	</g>
	<g>
		<g>
			<path d="M36.093,28.049c-0.389,0.713-1.106,1.357-1.783,1.783c-0.126,0.079-0.01,0.28,0.117,0.2
				c0.716-0.451,1.456-1.114,1.867-1.867C36.365,28.035,36.165,27.918,36.093,28.049L36.093,28.049z"/>
		</g>
	</g>
	<g>
		<g>
			<path d="M33.072,30.708c0.741-0.2,1.4-0.555,2.019-1.007c0.119-0.087,0.004-0.289-0.117-0.2c-0.602,0.44-1.239,0.789-1.963,0.984
				C32.866,30.523,32.927,30.747,33.072,30.708L33.072,30.708z"/>
		</g>
	</g>
</g>
</svg>
