<?xml version="1.0" encoding="utf-8"?>
<!-- Generator: Adobe Illustrator 17.0.0, SVG Export Plug-In . SVG Version: 6.00 Build 0)  -->
<!DOCTYPE svg PUBLIC "-//W3C//DTD SVG 1.1//EN" "http://www.w3.org/Graphics/SVG/1.1/DTD/svg11.dtd" [
	<!ENTITY st0 "fill:#E6E6E6;">
	<!ENTITY st1 "fill:#3D3D3D;">
]>
<svg version="1.1" id="Calque_1" xmlns="http://www.w3.org/2000/svg" xmlns:xlink="http://www.w3.org/1999/xlink" x="0px" y="0px"
	 width="54px" height="55px" viewBox="0 0 54 55" style="enable-background:new 0 0 54 55;" xml:space="preserve">
<g>
	<path style="&st0;" d="M29.564,11.449c-21.19-5.561-26.558,29.114-4.22,32.899C47.087,47.555,49.506,11.75,29.564,11.449"/>
	<g>
		<path class="focus-piece" fill="#3D3D3D" d="M29.666,11.079C7.321,5.83,3.743,42.118,25.344,44.732c21.135,2.558,25.264-32.744,4.22-33.666
			c-0.495-0.022-0.493,0.746,0,0.767c19.614,0.859,16.222,33.555-3.2,32.255C5.018,42.66,7.643,6.693,29.462,11.819
			C29.943,11.932,30.148,11.192,29.666,11.079L29.666,11.079z"/>
	</g>
</g>
<g>
	<g>
		<g>
			<path d="M12.758,26.227c-0.358,1.421-0.358,2.882,0,4.302c0.138,0.548,0.984,0.316,0.846-0.233c-0.32-1.27-0.32-2.566,0-3.836
				C13.742,25.911,12.896,25.679,12.758,26.227L12.758,26.227z"/>
		</g>
	</g>
	<g>
		<g>
			<path d="M12.871,30.723c3.344,3.804,10.114,3.757,14.712,3.573c4.638-0.186,11.586-1.149,13.996-5.754
				c0.262-0.5-0.495-0.944-0.757-0.443c-3.668,7.011-22.335,7.688-27.331,2.004C13.117,29.677,12.499,30.3,12.871,30.723
				L12.871,30.723z"/>
		</g>
	</g>
	<g>
		<g>
			<path d="M38.914,25.607c0.929,0.867,1.463,2.014,1.383,3.294c-0.035,0.565,0.842,0.562,0.877,0
				c0.093-1.496-0.556-2.902-1.64-3.914C39.121,24.602,38.5,25.221,38.914,25.607L38.914,25.607z"/>
		</g>
	</g>
	<g>
		<g>
			<path d="M18.106,34.25c0.272,0.744,0.717,1.832,1.644,1.891c1.068,0.069,1.243-1.659,1.31-2.357c0.055-0.563-0.823-0.558-0.877,0
				c-0.019,0.195-0.122,1.459-0.433,1.48c-0.355,0.023-0.711-1.01-0.798-1.248C18.759,33.49,17.912,33.717,18.106,34.25
				L18.106,34.25z"/>
		</g>
	</g>
	<g>
		<g>
			<path d="M32.683,34.006c0.077,0.178,0.149,0.483,0.266,0.699c0.205,0.38,0.567,0.653,0.938,0.854
				c0.223,0.121,0.459,0.043,0.6-0.157c0.273-0.389,0.436-0.789,0.444-1.268c0.007-0.428-0.14-0.85-0.152-1.279
				c-0.015-0.564-0.892-0.566-0.877,0c0.009,0.354,0.071,0.697,0.131,1.045c0.071,0.413-0.069,0.724-0.304,1.059
				c0.2-0.052,0.4-0.105,0.6-0.157c-0.578-0.313-0.654-0.692-0.889-1.238C33.217,33.045,32.462,33.492,32.683,34.006L32.683,34.006z
				"/>
		</g>
	</g>
	<g>
		<g>
			<path d="M15.374,28.931c-0.049,0.544-0.098,1.09-0.109,1.637c-0.001,0.058,0.039,0.101,0.091,0.12
				c1.561,0.555,3.131,1.082,4.692,1.637c0.151,0.054,0.216-0.186,0.066-0.24c-1.23-0.437-2.465-0.857-3.697-1.286
				c-0.099-0.035-0.904-0.235-0.901-0.383c0.004-0.204,0.022-0.409,0.035-0.613c0.02-0.291,0.045-0.582,0.071-0.872
				C15.637,28.771,15.388,28.772,15.374,28.931L15.374,28.931z"/>
		</g>
	</g>
	<g>
		<g>
			<path d="M13.994,27.006c8.863,3.206,16.751,3.256,25.218-1.091c0.503-0.258,0.059-1.015-0.443-0.757
				c-8.253,4.237-15.967,4.104-24.543,1.002C13.694,25.967,13.467,26.815,13.994,27.006L13.994,27.006z"/>
		</g>
	</g>
</g>
</svg>
