<?xml version="1.0" encoding="utf-8"?>
<!-- Generator: Adobe Illustrator 17.0.0, SVG Export Plug-In . SVG Version: 6.00 Build 0)  -->
<!DOCTYPE svg PUBLIC "-//W3C//DTD SVG 1.1//EN" "http://www.w3.org/Graphics/SVG/1.1/DTD/svg11.dtd">
<svg version="1.1" id="Calque_1" xmlns="http://www.w3.org/2000/svg" xmlns:xlink="http://www.w3.org/1999/xlink" x="0px" y="0px"
	 width="54px" height="55px" viewBox="0 0 54 55" enable-background="new 0 0 54 55" xml:space="preserve">
<g>
	<path fill="#E6E6E6" d="M29.564,11.449c-21.19-5.561-26.558,29.114-4.22,32.899C47.087,47.555,49.506,11.75,29.564,11.449"/>
	<g>
		<path class="focus-piece" fill="#3D3D3D" d="M29.666,11.079C7.321,5.83,3.743,42.118,25.344,44.732c21.135,2.558,25.264-32.744,4.22-33.666
			c-0.495-0.022-0.493,0.746,0,0.767c19.614,0.859,16.222,33.555-3.2,32.255C5.018,42.66,7.643,6.693,29.462,11.819
			C29.943,11.932,30.148,11.192,29.666,11.079L29.666,11.079z"/>
	</g>
</g>
<g>
	<g>
		<g>
			<path d="M29.94,30.11c2.427-1.023,2.821,8.382-0.153,7.384c-0.233-0.078-0.332,0.289-0.101,0.367
				c3.663,1.229,3.271-9.431,0.153-8.117C29.616,29.837,29.714,30.205,29.94,30.11L29.94,30.11z"/>
		</g>
	</g>
	<g>
		<g>
			<path d="M20.528,30.148c-2.825,1.876-3.167,8.559,1.291,8.288c0.276-0.017,0.278-0.448,0-0.431
				c-4.022,0.244-3.542-5.846-1.074-7.485C20.976,30.367,20.76,29.994,20.528,30.148L20.528,30.148z"/>
		</g>
	</g>
	<g>
		<g>
			<path d="M31.931,33.171c6.538,0.736,3.825-8.47,3.381-12.083c-0.039-0.32-0.546-0.324-0.506,0
				c0.409,3.327,3.138,12.254-2.874,11.577C31.607,32.628,31.611,33.135,31.931,33.171L31.931,33.171z"/>
		</g>
	</g>
	<g>
		<g>
			<path d="M32.135,34.93c2.291-0.351,4.939-0.329,5.714-2.878c1.15-3.785,0.547-8.429-0.642-12.119
				c-0.1-0.309-0.589-0.177-0.488,0.135c1.14,3.54,1.357,7.196,0.839,10.861c-0.438,3.094-2.96,3.116-5.557,3.513
				C31.678,34.491,31.815,34.979,32.135,34.93L32.135,34.93z"/>
		</g>
	</g>
	<g>
		<g>
			<path d="M35.059,20.427c-0.638,0.011-1.266,0.125-1.904,0.136c-0.326,0.006-0.327,0.512,0,0.506
				c0.638-0.011,1.266-0.125,1.904-0.136C35.385,20.927,35.385,20.421,35.059,20.427L35.059,20.427z"/>
		</g>
	</g>
	<g>
		<g>
			<path d="M33.047,18.845c-0.101,0.558-0.247,1.132-0.281,1.699c-0.019,0.326,0.487,0.324,0.506,0
				c0.031-0.521,0.17-1.051,0.263-1.564C33.593,18.66,33.105,18.524,33.047,18.845L33.047,18.845z"/>
		</g>
	</g>
	<g>
		<g>
			<path d="M33.358,18.748c1.141-0.35,2.31-0.467,3.498-0.515c0.468-0.019,0.937-0.018,1.406-0.02
				c0.287-0.001,0.214,1.721,0.214,1.922c0.001,0.326,0.507,0.327,0.506,0c-0.001-0.755-0.023-1.497-0.145-2.243
				c-0.018-0.109-0.141-0.186-0.244-0.186c-1.807,0.001-3.629,0.019-5.37,0.553C32.913,18.355,33.045,18.844,33.358,18.748
				L33.358,18.748z"/>
		</g>
	</g>
	<g>
		<g>
			<path d="M36.758,20.244c0.764-0.139,1.544-0.153,2.312-0.272c0.322-0.05,0.185-0.538-0.135-0.488
				c-0.768,0.119-1.547,0.132-2.312,0.272C36.302,19.814,36.439,20.302,36.758,20.244L36.758,20.244z"/>
		</g>
	</g>
	<g>
		<g>
			<path d="M16.855,34.114c0.539-0.121,1.092-0.151,1.632-0.272c0.319-0.071,0.183-0.56-0.135-0.488
				c-0.539,0.121-1.092,0.151-1.632,0.272C16.402,33.697,16.537,34.185,16.855,34.114L16.855,34.114z"/>
		</g>
	</g>
	<g>
		<g>
			<path d="M15.7,35.619c0.952,0,1.904,0,2.856,0c0.327,0,0.327-0.506,0-0.506c-0.952,0-1.904,0-2.856,0
				C15.374,35.112,15.374,35.619,15.7,35.619L15.7,35.619z"/>
		</g>
	</g>
	<g>
		<g>
			<path d="M15.681,35.094c-0.171-5.28-0.786-10.635,0.399-15.842c0.072-0.318-0.416-0.453-0.488-0.135
				c-1.195,5.252-0.589,10.649-0.417,15.977C15.185,35.419,15.692,35.42,15.681,35.094L15.681,35.094z"/>
		</g>
	</g>
	<g>
		<g>
			<path d="M16.151,19.363c2.361-2.27,11.663-4.4,11.942,0.637c0.018,0.325,0.524,0.326,0.506,0
				c-0.314-5.662-10.134-3.563-12.806-0.995C15.557,19.232,15.916,19.589,16.151,19.363L16.151,19.363z"/>
		</g>
	</g>
	<g>
		<g>
			<path d="M17.313,32.782c-0.069-3.628-0.929-7.27-0.171-10.878c0.813-3.873,8.901-6.159,10.009-1.429
				c0.074,0.318,0.563,0.183,0.488-0.135c-0.947-4.041-6.68-3.263-9.262-1.42c-3.804,2.715-1.642,10.074-1.57,13.862
				C16.813,33.108,17.319,33.109,17.313,32.782L17.313,32.782z"/>
		</g>
	</g>
	<g>
		<g>
			<path d="M27.054,20.028c-0.595-0.12-1.191-0.044-1.766,0.136c-0.082,0.026-0.157,0.09-0.177,0.177
				c-0.141,0.632-0.141,1.27,0,1.902c0.071,0.319,0.559,0.184,0.488-0.135c-0.121-0.543-0.121-1.09,0-1.633
				c-0.059,0.059-0.118,0.118-0.177,0.177c0.486-0.152,0.992-0.238,1.497-0.136C27.238,20.58,27.374,20.092,27.054,20.028
				L27.054,20.028z"/>
		</g>
	</g>
	<g>
		<g>
			<path d="M25.355,22.293c1.436-0.009,2.876-0.121,4.283-0.417c0.319-0.067,0.184-0.555-0.135-0.488
				c-1.363,0.287-2.757,0.39-4.148,0.399C25.028,21.789,25.028,22.295,25.355,22.293L25.355,22.293z"/>
		</g>
	</g>
	<g>
		<g>
			<path d="M28.141,20.38c0.519-0.116,1.036-0.126,1.564-0.127c-0.081-0.062-0.163-0.124-0.244-0.186
				c0.117,0.479,0.263,1.008,0.136,1.497c-0.082,0.316,0.406,0.45,0.488,0.135c0.151-0.581,0.003-1.197-0.136-1.766
				c-0.027-0.109-0.134-0.186-0.244-0.186c-0.574,0.001-1.137,0.02-1.699,0.145C27.688,19.963,27.823,20.451,28.141,20.38
				L28.141,20.38z"/>
		</g>
	</g>
	<g>
		<g>
			<path d="M30.811,31.014c-0.011,1.492-0.098,3.006-0.272,4.487c-0.025,0.215,0.311,0.213,0.336,0
				c0.174-1.482,0.261-2.995,0.272-4.487C31.149,30.797,30.813,30.798,30.811,31.014L30.811,31.014z"/>
		</g>
	</g>
	<g>
		<g>
			<path d="M30.409,30.515c0.384,1.514,0.386,3.031,0.266,4.579c-0.017,0.216,0.319,0.215,0.336,0
				c0.122-1.578,0.113-3.127-0.278-4.668C30.68,30.216,30.356,30.305,30.409,30.515L30.409,30.515z"/>
		</g>
	</g>
	<g>
		<g>
			<path d="M20.161,31.377c-0.558,1.342-0.653,2.766-0.272,4.169c0.057,0.209,0.381,0.12,0.324-0.089
				c-0.367-1.35-0.265-2.701,0.272-3.99C20.569,31.267,20.243,31.18,20.161,31.377L20.161,31.377z"/>
		</g>
	</g>
	<g>
		<g>
			<path d="M19.617,31.921c-0.507,1.67-0.393,3.286,0.289,4.889c0.085,0.199,0.374,0.027,0.29-0.17
				c-0.646-1.518-0.735-3.05-0.255-4.63C20.005,31.803,19.68,31.715,19.617,31.921L19.617,31.921z"/>
		</g>
	</g>
	<g>
		<g>
			<path d="M19.073,35.682c0.176,0.89,0.793,1.463,1.573,1.868c0.192,0.1,0.362-0.19,0.17-0.29
				c-0.708-0.367-1.258-0.857-1.419-1.667C19.355,35.38,19.032,35.47,19.073,35.682L19.073,35.682z"/>
		</g>
	</g>
	<g>
		<g>
			<path d="M16.797,33.547c0.272-0.408,0.544-0.816,0.816-1.224c0.121-0.181-0.171-0.349-0.29-0.17
				c-0.272,0.408-0.544,0.816-0.816,1.224C16.386,33.558,16.677,33.726,16.797,33.547L16.797,33.547z"/>
		</g>
	</g>
	<g>
		<g>
			<path d="M16.525,33.003c0.29-0.472,0.427-1.002,0.561-1.536c0.053-0.21-0.271-0.3-0.324-0.089
				c-0.127,0.505-0.252,1.008-0.527,1.456C16.121,33.018,16.412,33.187,16.525,33.003L16.525,33.003z"/>
		</g>
	</g>
	<g>
		<g>
			<path d="M16.525,31.779c0.175-0.377,0.276-0.757,0.295-1.173c0.01-0.217-0.326-0.216-0.336,0
				c-0.016,0.357-0.099,0.68-0.249,1.003C16.144,31.804,16.434,31.975,16.525,31.779L16.525,31.779z"/>
		</g>
	</g>
	<g>
		<g>
			<path d="M16.108,31.182c0.217,0,0.217-0.336,0-0.336C15.891,30.846,15.891,31.182,16.108,31.182L16.108,31.182z"/>
		</g>
	</g>
	<g>
		<g>
			<path d="M16.27,29.971c0.037-0.141,0.1-0.267,0.136-0.408c0.054-0.21-0.27-0.299-0.324-0.089
				c-0.037,0.141-0.099,0.267-0.136,0.408C15.891,30.092,16.216,30.181,16.27,29.971L16.27,29.971z"/>
		</g>
	</g>
	<g>
		<g>
			<path d="M16.244,31.998c0.217,0,0.217-0.336,0-0.336S16.027,31.998,16.244,31.998L16.244,31.998z"/>
		</g>
	</g>
	<g>
		<g>
			<path d="M17.332,34.854c0.091,0,0.181,0,0.272,0c0.217,0,0.217-0.336,0-0.336c-0.091,0-0.181,0-0.272,0
				C17.115,34.518,17.115,34.854,17.332,34.854L17.332,34.854z"/>
		</g>
	</g>
	<g>
		<g>
			<path d="M17.196,34.038c0.217,0,0.217-0.336,0-0.336C16.979,33.702,16.979,34.038,17.196,34.038L17.196,34.038z"/>
		</g>
	</g>
	<g>
		<g>
			<path d="M17.468,34.038c0.217,0,0.217-0.336,0-0.336S17.251,34.038,17.468,34.038L17.468,34.038z"/>
		</g>
	</g>
	<g>
		<g>
			<path d="M18.012,34.854c0.217,0,0.217-0.336,0-0.336C17.795,34.518,17.795,34.854,18.012,34.854L18.012,34.854z"/>
		</g>
	</g>
	<g>
		<g>
			<path d="M33.138,32.935c-0.502-0.611-0.749,0.779-0.825,1.026c-0.064,0.208,0.26,0.296,0.324,0.089
				c0.031-0.099,0.298-0.835,0.263-0.878C33.038,33.34,33.274,33.101,33.138,32.935L33.138,32.935z"/>
		</g>
	</g>
	<g>
		<g>
			<path d="M33.826,32.561c-0.374,0.514-0.665,1.057-0.833,1.672c-0.057,0.209,0.267,0.298,0.324,0.089
				c0.16-0.588,0.442-1.101,0.799-1.592C34.244,32.555,33.952,32.388,33.826,32.561L33.826,32.561z"/>
		</g>
	</g>
	<g>
		<g>
			<path d="M34.642,32.153c-0.272,0.544-0.544,1.088-0.816,1.632c-0.097,0.193,0.193,0.364,0.29,0.17
				c0.272-0.544,0.544-1.088,0.816-1.632C35.029,32.13,34.739,31.959,34.642,32.153L34.642,32.153z"/>
		</g>
	</g>
	<g>
		<g>
			<path d="M33.699,33.358c0.321,0.02,0.63,0.116,0.952,0.136c0.217,0.013,0.215-0.323,0-0.336c-0.321-0.02-0.63-0.116-0.952-0.136
				C33.482,33.009,33.484,33.345,33.699,33.358L33.699,33.358z"/>
		</g>
	</g>
	<g>
		<g>
			<path d="M35.246,32.927c0.413,0.186,0.857,0.279,1.309,0.295c0.217,0.007,0.216-0.329,0-0.336
				c-0.389-0.013-0.783-0.088-1.139-0.249C35.22,32.549,35.049,32.838,35.246,32.927L35.246,32.927z"/>
		</g>
	</g>
	<g>
		<g>
			<path d="M35.875,31.998c0.217,0,0.217-0.336,0-0.336C35.658,31.662,35.658,31.998,35.875,31.998L35.875,31.998z"/>
		</g>
	</g>
	<g>
		<g>
			<path d="M36.419,31.046c0.217,0,0.217-0.336,0-0.336S36.202,31.046,36.419,31.046L36.419,31.046z"/>
		</g>
	</g>
	<g>
		<g>
			<path d="M36.844,29.264c-0.332,0.35-0.616,0.74-0.952,1.088c-0.151,0.156,0.087,0.394,0.238,0.238
				c0.336-0.347,0.619-0.738,0.952-1.088C37.231,29.344,36.993,29.106,36.844,29.264L36.844,29.264z"/>
		</g>
	</g>
	<g>
		<g>
			<path d="M35.603,31.454c0.499,0,0.997,0,1.496,0c0.217,0,0.217-0.336,0-0.336c-0.499,0-0.997,0-1.496,0
				C35.386,31.118,35.386,31.454,35.603,31.454L35.603,31.454z"/>
		</g>
	</g>
	<g>
		<g>
			<path d="M35.467,32.678c0.614-0.027,1.198-0.241,1.717-0.567c0.183-0.115,0.014-0.406-0.17-0.29
				c-0.468,0.294-0.991,0.497-1.547,0.521C35.251,32.351,35.25,32.687,35.467,32.678L35.467,32.678z"/>
		</g>
	</g>
	<g>
		<g>
			<path d="M36.528,30.515c0.087,0.213,0.127,0.403,0.13,0.635c0.002,0.217,0.339,0.217,0.336,0
				c-0.003-0.257-0.044-0.485-0.142-0.725C36.772,30.228,36.446,30.314,36.528,30.515L36.528,30.515z"/>
		</g>
	</g>
	<g>
		<g>
			<path d="M36.936,29.155c0.081,0.318,0.021,0.537-0.119,0.822c-0.095,0.194,0.195,0.364,0.29,0.17
				c0.181-0.368,0.256-0.677,0.153-1.081C37.207,28.856,36.883,28.945,36.936,29.155L36.936,29.155z"/>
		</g>
	</g>
	<g>
		<g>
			<path d="M25.807,20.57c0.587-0.109,1.185-0.139,1.768-0.272c0.211-0.048,0.122-0.372-0.089-0.324
				c-0.582,0.133-1.181,0.163-1.768,0.272C25.505,20.285,25.595,20.609,25.807,20.57L25.807,20.57z"/>
		</g>
	</g>
	<g>
		<g>
			<path d="M25.627,20.984c0.886,0,1.774-0.015,2.628-0.278c0.206-0.064,0.118-0.388-0.089-0.324
				c-0.826,0.255-1.682,0.266-2.539,0.266C25.41,20.648,25.41,20.984,25.627,20.984L25.627,20.984z"/>
		</g>
	</g>
	<g>
		<g>
			<path d="M25.762,21.256c0.835,0,1.665-0.014,2.492-0.142c0.214-0.033,0.123-0.357-0.089-0.324
				c-0.797,0.123-1.599,0.13-2.403,0.13C25.546,20.92,25.546,21.256,25.762,21.256L25.762,21.256z"/>
		</g>
	</g>
	<g>
		<g>
			<path d="M34.062,19.89c0.838,0.12,1.601-0.013,2.401-0.272c0.205-0.067,0.117-0.391-0.089-0.324
				c-0.733,0.238-1.45,0.382-2.222,0.272C33.94,19.536,33.848,19.859,34.062,19.89L34.062,19.89z"/>
		</g>
	</g>
	<g>
		<g>
			<path d="M34.515,19.352c0.442-0.02,0.85-0.139,1.268-0.278c0.205-0.068,0.117-0.392-0.089-0.324
				c-0.388,0.129-0.767,0.247-1.179,0.266C34.299,19.026,34.298,19.362,34.515,19.352L34.515,19.352z"/>
		</g>
	</g>
	<g>
		<g>
			<path d="M34.923,18.808c0.217,0,0.217-0.336,0-0.336S34.706,18.808,34.923,18.808L34.923,18.808z"/>
		</g>
	</g>
</g>
</svg>
