<?xml version="1.0" encoding="utf-8"?>
<!-- Generator: Adobe Illustrator 17.0.0, SVG Export Plug-In . SVG Version: 6.00 Build 0)  -->
<!DOCTYPE svg PUBLIC "-//W3C//DTD SVG 1.1//EN" "http://www.w3.org/Graphics/SVG/1.1/DTD/svg11.dtd">
<svg version="1.1" id="Calque_1" xmlns="http://www.w3.org/2000/svg" xmlns:xlink="http://www.w3.org/1999/xlink" x="0px" y="0px"
	 width="54px" height="55px" viewBox="0 0 54 55" enable-background="new 0 0 54 55" xml:space="preserve">
<g>
	<path fill="#E6E6E6" d="M29.564,11.449c-21.19-5.561-26.558,29.114-4.22,32.899C47.087,47.555,49.506,11.75,29.564,11.449"/>
	<g>
		<path class="focus-piece" fill="#3D3D3D" d="M29.666,11.079C7.321,5.83,3.743,42.118,25.344,44.732c21.135,2.558,25.264-32.744,4.22-33.666
			c-0.495-0.022-0.493,0.746,0,0.767c19.614,0.859,16.222,33.555-3.2,32.255C5.018,42.66,7.643,6.693,29.462,11.819
			C29.943,11.932,30.148,11.192,29.666,11.079L29.666,11.079z"/>
	</g>
</g>
<g>
	<g>
		<g>
			<path d="M22.137,28.535c1.63-1.748,4.003-3.991,3.267,0.426c-0.298,1.788-0.798,3.547-1.002,5.351
				c-0.367,3.252-0.109,5.848,2.019,8.397c0.143,0.172,0.459,0.163,0.604,0c4.193-4.706,10.576-22.55-0.215-23.52
				c-0.549-0.049-0.544,0.805,0,0.854c7.23,0.65,4.866,11.015,3.362,15.447c-0.488,1.439-1.166,2.798-1.91,4.117
				c-2.063,3.663-3.055-0.169-3.203-2.754c-0.219-3.839,1.427-7.702,1.601-11.554c0.014-0.305-0.281-0.449-0.541-0.412
				c-2.177,0.308-3.108,1.456-4.587,3.042C21.158,28.333,21.761,28.939,22.137,28.535L22.137,28.535z"/>
		</g>
	</g>
	<g>
		<g>
			<path d="M23.608,14.548c0.017,1.615,0.438,4.455,2.338,4.973c2.386,0.651,2.62-3.944,2.67-5.218
				c0.009-0.233-0.201-0.427-0.427-0.427c-1.385,0-2.77,0-4.155,0c-0.551,0-0.551,0.854,0,0.854c1.385,0,2.77,0,4.155,0
				c-0.142-0.142-0.285-0.285-0.427-0.427c-0.027,0.698-0.139,4.789-1.667,4.373c-0.536-0.146-0.876-0.832-1.091-1.286
				c-0.413-0.874-0.532-1.888-0.542-2.842C24.456,13.997,23.602,13.997,23.608,14.548L23.608,14.548z"/>
		</g>
	</g>
	<g>
		<g>
			<path d="M25.334,12.479c-0.26,0.83-0.259,1.696-0.26,2.557c0,0.551,0.854,0.551,0.854,0c0-0.788-0.008-1.571,0.229-2.33
				C26.322,12.179,25.497,11.955,25.334,12.479L25.334,12.479z"/>
		</g>
	</g>
	<g>
		<g>
			<path d="M26.785,12.593c0,0.869-0.03,1.725-0.229,2.575c-0.125,0.536,0.698,0.763,0.824,0.227
				c0.216-0.923,0.259-1.857,0.26-2.802C27.639,12.042,26.785,12.042,26.785,12.593L26.785,12.593z"/>
		</g>
	</g>
	<g>
		<g>
			<path d="M26.156,15.633c-0.235,0.77-0.235,1.52,0,2.29c0.064,0.21,0.394,0.12,0.33-0.091c-0.218-0.713-0.218-1.396,0-2.109
				C26.55,15.512,26.221,15.422,26.156,15.633L26.156,15.633z"/>
		</g>
	</g>
	<g>
		<g>
			<path d="M25.344,15.36c0.22,0,0.22-0.342,0-0.342C25.123,15.018,25.123,15.36,25.344,15.36L25.344,15.36z"/>
		</g>
	</g>
	<g>
		<g>
			<path d="M25.099,16.582c0.22,0,0.22-0.342,0-0.342C24.879,16.24,24.879,16.582,25.099,16.582L25.099,16.582z"/>
		</g>
	</g>
	<g>
		<g>
			<path d="M25.674,17.047c0.437-0.219,0.891-0.429,1.256-0.76c0.164-0.148-0.079-0.389-0.242-0.242
				c-0.342,0.309-0.779,0.502-1.187,0.706C25.305,16.851,25.478,17.146,25.674,17.047L25.674,17.047z"/>
		</g>
	</g>
	<g>
		<g>
			<path d="M25.633,16.087c0.716-0.245,1.364-0.579,1.996-0.995c0.183-0.121,0.012-0.417-0.172-0.295
				c-0.607,0.4-1.225,0.725-1.914,0.96C25.335,15.828,25.424,16.159,25.633,16.087L25.633,16.087z"/>
		</g>
	</g>
	<g>
		<g>
			<path d="M25.588,14.871c0.565-0.03,1.053-0.264,1.553-0.512c0.197-0.098,0.024-0.393-0.172-0.295
				c-0.442,0.22-0.879,0.439-1.38,0.465C25.369,14.541,25.368,14.883,25.588,14.871L25.588,14.871z"/>
		</g>
	</g>
	<g>
		<g>
			<path d="M26.321,17.071c0.343-0.003,0.59-0.072,0.854-0.294c0.169-0.142-0.074-0.383-0.242-0.242
				c-0.21,0.177-0.364,0.192-0.612,0.194C26.101,16.731,26.101,17.073,26.321,17.071L26.321,17.071z"/>
		</g>
	</g>
	<g>
		<g>
			<path d="M26.686,17.998c0.288-0.234,0.685-0.251,0.978-0.489c0.171-0.139-0.072-0.379-0.242-0.242
				c-0.288,0.234-0.685,0.251-0.978,0.489C26.274,17.896,26.517,18.136,26.686,17.998L26.686,17.998z"/>
		</g>
	</g>
</g>
</svg>
