<?xml version="1.0" encoding="utf-8"?>
<!-- Generator: Adobe Illustrator 17.0.0, SVG Export Plug-In . SVG Version: 6.00 Build 0)  -->
<!DOCTYPE svg PUBLIC "-//W3C//DTD SVG 1.1//EN" "http://www.w3.org/Graphics/SVG/1.1/DTD/svg11.dtd" [
	<!ENTITY st0 "fill:#E6E6E6;">
	<!ENTITY st1 "fill:#3D3D3D;">
]>
<svg version="1.1" id="Calque_1" xmlns="http://www.w3.org/2000/svg" xmlns:xlink="http://www.w3.org/1999/xlink" x="0px" y="0px"
	 width="54px" height="55px" viewBox="0 0 54 55" style="enable-background:new 0 0 54 55;" xml:space="preserve">
<g>
	<path style="&st0;" d="M29.564,11.449c-21.19-5.561-26.558,29.114-4.22,32.899C47.087,47.555,49.506,11.75,29.564,11.449"/>
	<g>
		<path class="focus-piece" fill="#3D3D3D" d="M29.666,11.079C7.321,5.83,3.743,42.118,25.344,44.732c21.135,2.558,25.264-32.744,4.22-33.666
			c-0.495-0.022-0.493,0.746,0,0.767c19.614,0.859,16.222,33.555-3.2,32.255C5.018,42.66,7.643,6.693,29.462,11.819
			C29.943,11.932,30.148,11.192,29.666,11.079L29.666,11.079z"/>
	</g>
</g>
<g>
	<g>
		<g>
			<path d="M16.174,38.652c7.642,2.764,14.442,2.807,21.743-0.94c0.434-0.223,0.051-0.875-0.382-0.653
				c-7.116,3.653-13.767,3.538-21.16,0.864C15.915,37.757,15.719,38.488,16.174,38.652L16.174,38.652z"/>
		</g>
	</g>
	<g>
		<g>
			<g>
				<path d="M18.543,38.181c-2.72-7.431-1.285-22.083,8.659-22.873c9.194-0.731,10.061,16.33,9.444,22.373
					c-0.05,0.485,0.707,0.48,0.756,0c0.753-7.364-0.261-22.696-10.2-23.129c-10.78-0.469-11.95,16.833-9.388,23.831
					C17.981,38.836,18.711,38.64,18.543,38.181L18.543,38.181z"/>
			</g>
		</g>
		<g>
			<g>
				<path d="M23.621,19.88c-3.729,0.95-2.052,6.827-2.001,9.48c0.002,0.123,0.081,0.222,0.197,0.258
					c2.83,0.898,6.192,1.582,9.064,0.501c0.32-0.12,0.182-0.639-0.142-0.517c-1.738,0.654-3.564,0.567-5.375,0.318
					c-0.79-0.109-1.567-0.299-2.338-0.498c-0.976-0.251-0.872-0.526-0.948-1.417c-0.183-2.165-1.226-6.868,1.686-7.61
					C24.098,20.312,23.956,19.795,23.621,19.88L23.621,19.88z"/>
			</g>
		</g>
		<g>
			<g>
				<path d="M22.861,20.597c2.327-0.755,4.687-0.724,6.71,0.775c0.278,0.206,0.545-0.259,0.27-0.463
					c-2.128-1.576-4.672-1.624-7.123-0.829C22.392,20.187,22.532,20.704,22.861,20.597L22.861,20.597z"/>
			</g>
		</g>
		<g>
			<g>
				<path d="M31.141,29.696c1.244-2.753,0.755-5.568-0.802-8.089c-0.181-0.293-0.645-0.024-0.463,0.27
					c1.447,2.343,1.968,4.966,0.802,7.548C30.537,29.738,30.999,30.011,31.141,29.696L31.141,29.696z"/>
			</g>
		</g>
		<g>
			<g>
				<path d="M29.275,21.276c0.382,0.661,0.792,1.305,1.103,2.005c0.14,0.315,0.602,0.042,0.463-0.27
					c-0.311-0.7-0.721-1.343-1.103-2.005C29.565,20.707,29.102,20.976,29.275,21.276L29.275,21.276z"/>
			</g>
		</g>
		<g>
			<g>
				<path d="M18.709,32.426c1.69,0.501,3.43,0.701,5.183,0.811c0.345,0.022,0.343-0.514,0-0.536
					c-1.707-0.108-3.397-0.304-5.041-0.792C18.52,31.81,18.379,32.327,18.709,32.426L18.709,32.426z"/>
			</g>
		</g>
		<g>
			<g>
				<path d="M18.412,32.067c0.089,1.509-0.125,3.079,0.32,4.546c0.436,1.438,1.785,1.928,3.156,2.037
					c0.345,0.027,0.342-0.509,0-0.536c-3.457-0.276-2.789-3.496-2.94-6.047C18.928,31.724,18.392,31.722,18.412,32.067
					L18.412,32.067z"/>
			</g>
		</g>
		<g>
			<g>
				<path d="M23.825,33.069c0.244,1.954-0.172,3.796-1.367,5.378c-0.208,0.276,0.257,0.542,0.463,0.27
					c1.245-1.648,1.695-3.61,1.44-5.648C24.319,32.731,23.782,32.727,23.825,33.069L23.825,33.069z"/>
			</g>
		</g>
		<g>
			<g>
				<path d="M21.817,38.54c0.323,0.106,0.634,0.189,0.973,0.21c0.345,0.021,0.343-0.514,0-0.536c-0.293-0.018-0.554-0.1-0.831-0.191
					C21.63,37.915,21.49,38.433,21.817,38.54L21.817,38.54z"/>
			</g>
		</g>
		<g>
			<g>
				<path d="M28.303,33.037c1.93-0.142,3.751-0.719,5.448-1.64c0.304-0.165,0.033-0.628-0.27-0.463
					c-1.614,0.877-3.342,1.432-5.177,1.567C27.961,32.526,27.958,33.062,28.303,33.037L28.303,33.037z"/>
			</g>
		</g>
		<g>
			<g>
				<path d="M28.145,33.04c0.414,1.635,0.88,3.256,1.203,4.912c0.066,0.339,0.583,0.195,0.517-0.142
					c-0.323-1.656-0.789-3.277-1.203-4.912C28.577,32.563,28.06,32.705,28.145,33.04L28.145,33.04z"/>
			</g>
		</g>
		<g>
			<g>
				<path d="M29.606,38.249c1.7,0.166,3.223-0.46,4.399-1.682c0.239-0.249-0.139-0.628-0.379-0.379
					c-1.088,1.131-2.452,1.679-4.021,1.525C29.262,37.68,29.266,38.216,29.606,38.249L29.606,38.249z"/>
			</g>
		</g>
		<g>
			<g>
				<path d="M33.257,31.637c0.398,1.526,0.68,3.066,0.792,4.64c0.024,0.343,0.56,0.345,0.536,0
					c-0.116-1.621-0.402-3.211-0.811-4.782C33.687,31.16,33.17,31.302,33.257,31.637L33.257,31.637z"/>
			</g>
		</g>
		<g>
			<g>
				<path d="M19.323,33.735c0.376,0.094,0.753,0.188,1.129,0.282c0.134,0.034,0.191-0.173,0.057-0.207
					c-0.376-0.094-0.753-0.188-1.129-0.282C19.246,33.495,19.189,33.702,19.323,33.735L19.323,33.735z"/>
			</g>
		</g>
		<g>
			<g>
				<path d="M19.135,33.453c0.631,0.174,1.255,0.277,1.91,0.286c0.138,0.002,0.138-0.213,0-0.214
					c-0.634-0.008-1.243-0.11-1.853-0.278C19.059,33.21,19.002,33.416,19.135,33.453L19.135,33.453z"/>
			</g>
		</g>
		<g>
			<g>
				<path d="M19.512,33.265c0.595,0.098,1.192,0.185,1.788,0.282c0.135,0.022,0.193-0.184,0.057-0.207
					c-0.595-0.098-1.192-0.185-1.788-0.282C19.433,33.036,19.375,33.243,19.512,33.265L19.512,33.265z"/>
			</g>
		</g>
		<g>
			<g>
				<path d="M22.538,33.256c0.172,1.573,0.174,3.126-0.184,4.676c-0.031,0.135,0.176,0.192,0.207,0.057
					c0.362-1.565,0.366-3.141,0.192-4.733C22.737,33.12,22.523,33.118,22.538,33.256L22.538,33.256z"/>
			</g>
		</g>
		<g>
			<g>
				<path d="M24.517,25.983c-0.091,0.617-0.091,1.228,0,1.845c0.02,0.136,0.227,0.078,0.207-0.057c-0.085-0.577-0.085-1.153,0-1.731
					C24.744,25.905,24.537,25.847,24.517,25.983L24.517,25.983z"/>
			</g>
		</g>
		<g>
			<g>
				<path d="M24.451,27.875c0.578,0.468,1.19,0.767,1.929,0.874c0.135,0.02,0.193-0.187,0.057-0.207
					c-0.699-0.102-1.287-0.376-1.834-0.819C24.496,27.637,24.343,27.788,24.451,27.875L24.451,27.875z"/>
			</g>
		</g>
		<g>
			<g>
				<path d="M27.295,29.021c0.699,0.481,1.462,0.748,2.312,0.767c0.138,0.003,0.138-0.211,0-0.214
					c-0.815-0.018-1.536-0.278-2.204-0.738C27.289,28.757,27.182,28.943,27.295,29.021L27.295,29.021z"/>
			</g>
		</g>
		<g>
			<g>
				<path d="M28.826,28.749c0.529,0.196,1.066,0.276,1.628,0.286c0.138,0.003,0.138-0.212,0-0.214
					c-0.542-0.01-1.062-0.09-1.571-0.278C28.753,28.494,28.697,28.702,28.826,28.749L28.826,28.749z"/>
			</g>
		</g>
		<g>
			<g>
				<path d="M29.484,28.279c0.436,0.108,0.834,0.164,1.28,0.094c0.136-0.021,0.078-0.228-0.057-0.207
					c-0.405,0.063-0.773,0.003-1.166-0.094C29.407,28.039,29.35,28.246,29.484,28.279L29.484,28.279z"/>
			</g>
		</g>
		<g>
			<g>
				<path d="M29.484,27.62c0.537,0.172,1.064,0.275,1.628,0.286c0.138,0.003,0.138-0.212,0-0.214
					c-0.546-0.01-1.053-0.113-1.571-0.278C29.409,27.371,29.353,27.578,29.484,27.62L29.484,27.62z"/>
			</g>
		</g>
		<g>
			<g>
				<path d="M30.237,26.962c0.309,0.087,0.628,0.119,0.941,0.188c0.135,0.03,0.192-0.177,0.057-0.207
					c-0.313-0.069-0.632-0.101-0.941-0.188C30.16,26.717,30.104,26.924,30.237,26.962L30.237,26.962z"/>
			</g>
		</g>
		<g>
			<g>
				<path d="M30.305,26.389c-0.505,0.313-0.969,0.681-1.433,1.052c-0.108,0.086,0.045,0.237,0.152,0.152
					c0.449-0.359,0.9-0.715,1.39-1.018C30.531,26.502,30.423,26.316,30.305,26.389L30.305,26.389z"/>
			</g>
		</g>
		<g>
			<g>
				<path d="M29.835,27.424c-0.534,0.279-1.003,0.631-1.433,1.052c-0.099,0.097,0.053,0.248,0.152,0.152
					c0.417-0.407,0.873-0.748,1.39-1.018C30.066,27.545,29.957,27.36,29.835,27.424L29.835,27.424z"/>
			</g>
		</g>
		<g>
			<g>
				<path d="M27.953,28.832c0.793,0.379,1.622,0.562,2.5,0.485c0.137-0.012,0.138-0.226,0-0.214
					c-0.842,0.074-1.632-0.093-2.392-0.456C27.937,28.588,27.829,28.773,27.953,28.832L27.953,28.832z"/>
			</g>
		</g>
		<g>
			<g>
				<path d="M28.073,29.031c0.727,0.167,1.453,0.193,2.192,0.098c0.135-0.017,0.137-0.232,0-0.214
					c-0.721,0.093-1.425,0.073-2.135-0.09C27.995,28.794,27.938,29,28.073,29.031L28.073,29.031z"/>
			</g>
		</g>
		<g>
			<g>
				<path d="M30.143,27.432c0.337,0.105,0.649,0.17,0.998,0.094c0.135-0.029,0.078-0.236-0.057-0.207
					c-0.31,0.067-0.59-0.003-0.884-0.094C30.067,27.184,30.011,27.391,30.143,27.432L30.143,27.432z"/>
			</g>
		</g>
		<g>
			<g>
				<path d="M30.079,25.407c0.27,0.45,0.537,0.901,0.742,1.386c0.053,0.125,0.26,0.07,0.207-0.057
					c-0.212-0.503-0.484-0.97-0.763-1.437C30.193,25.18,30.007,25.288,30.079,25.407L30.079,25.407z"/>
			</g>
		</g>
		<g>
			<g>
				<path d="M32.138,32.908c0.472,1.269,0.731,2.567,0.749,3.923c0.002,0.138,0.216,0.138,0.214,0
					c-0.018-1.374-0.277-2.692-0.756-3.98C32.296,32.723,32.089,32.778,32.138,32.908L32.138,32.908z"/>
			</g>
		</g>
		<g>
			<g>
				<path d="M29.082,34.289c0.48,0.273,0.991,0.459,1.531,0.575c0.135,0.029,0.192-0.178,0.057-0.207
					c-0.522-0.113-1.014-0.289-1.48-0.554C29.07,34.035,28.962,34.221,29.082,34.289L29.082,34.289z"/>
			</g>
		</g>
		<g>
			<g>
				<path d="M29.458,33.725c0.253,0.116,0.515,0.205,0.778,0.293c0.131,0.044,0.187-0.163,0.057-0.207
					c-0.246-0.082-0.491-0.163-0.727-0.271C29.442,33.482,29.333,33.667,29.458,33.725L29.458,33.725z"/>
			</g>
		</g>
		<g>
			<g>
				<path d="M30.117,33.536c0.286,0.175,0.564,0.278,0.901,0.297c0.138,0.008,0.137-0.207,0-0.214
					c-0.301-0.017-0.536-0.111-0.793-0.268C30.107,33.279,29.999,33.464,30.117,33.536L30.117,33.536z"/>
			</g>
		</g>
		<g>
			<g>
				<path d="M30.754,33.331c0.155,0.129,0.319,0.241,0.47,0.376c0.103,0.092,0.255-0.059,0.152-0.152
					c-0.151-0.135-0.314-0.247-0.47-0.376C30.8,33.092,30.647,33.243,30.754,33.331L30.754,33.331z"/>
			</g>
		</g>
		<g>
			<g>
				<path d="M29.5,33.726c-0.016,0.285-0.078,0.562-0.094,0.847c-0.008,0.138,0.206,0.137,0.214,0
					c0.016-0.285,0.078-0.562,0.094-0.847C29.722,33.588,29.507,33.589,29.5,33.726L29.5,33.726z"/>
			</g>
		</g>
		<g>
			<g>
				<path d="M30.173,34.331c-0.168,0.389-0.201,0.762-0.203,1.183c0,0.138,0.214,0.138,0.214,0c0.001-0.376,0.021-0.722,0.174-1.075
					C30.412,34.313,30.227,34.204,30.173,34.331L30.173,34.331z"/>
			</g>
		</g>
		<g>
			<g>
				<path d="M30.346,35.984c-0.002,0.189-0.022,0.359-0.09,0.536c-0.05,0.129,0.158,0.185,0.207,0.057
					c0.078-0.203,0.096-0.377,0.098-0.593C30.562,35.846,30.348,35.846,30.346,35.984L30.346,35.984z"/>
			</g>
		</g>
	</g>
</g>
</svg>
