<?xml version="1.0" encoding="utf-8"?>
<!-- Generator: Adobe Illustrator 17.0.0, SVG Export Plug-In . SVG Version: 6.00 Build 0)  -->
<!DOCTYPE svg PUBLIC "-//W3C//DTD SVG 1.1//EN" "http://www.w3.org/Graphics/SVG/1.1/DTD/svg11.dtd" [
	<!ENTITY st0 "fill:#E6E6E6;">
	<!ENTITY st1 "fill:#3D3D3D;">
]>
<svg version="1.1" id="Calque_1" xmlns="http://www.w3.org/2000/svg" xmlns:xlink="http://www.w3.org/1999/xlink" x="0px" y="0px"
	 width="54px" height="55px" viewBox="0 0 54 55" style="enable-background:new 0 0 54 55;" xml:space="preserve">
<g>
	<path style="&st0;" d="M29.564,11.449c-21.19-5.561-26.558,29.114-4.22,32.899C47.087,47.555,49.506,11.75,29.564,11.449"/>
	<g>
		<path class="focus-piece" fill="#3D3D3D" d="M29.666,11.079C7.321,5.83,3.743,42.118,25.344,44.732c21.135,2.558,25.264-32.744,4.22-33.666
			c-0.495-0.022-0.493,0.746,0,0.767c19.614,0.859,16.222,33.555-3.2,32.255C5.018,42.66,7.643,6.693,29.462,11.819
			C29.943,11.932,30.148,11.192,29.666,11.079L29.666,11.079z"/>
	</g>
</g>
<g>
	<g>
		<g>
			<path d="M16.272,30.863c0-0.004,0-0.009,0.001-0.013c-0.141,0.108-0.282,0.215-0.423,0.322c0.001,0,0.001,0,0.002,0
				c-0.078-0.078-0.156-0.156-0.234-0.234c0.192,0.814,0.158,1.672,0.408,2.478c0.127,0.411,0.773,0.235,0.645-0.178
				c-0.25-0.806-0.216-1.664-0.408-2.478c-0.025-0.108-0.125-0.21-0.234-0.234c-0.001,0-0.001,0-0.002,0
				c-0.219-0.048-0.412,0.098-0.423,0.322c0,0.004,0,0.009-0.001,0.013C15.582,31.294,16.251,31.292,16.272,30.863L16.272,30.863z"
				/>
		</g>
	</g>
	<g>
		<g>
			<path d="M16.027,31.391c1.127-0.337,2.339-0.396,3.493-0.616c-0.137-0.078-0.274-0.156-0.411-0.234
				c0.234,0.902,0.527,1.787,0.822,2.671c0.136,0.407,0.782,0.233,0.645-0.178c-0.294-0.884-0.588-1.769-0.822-2.671
				c-0.048-0.187-0.235-0.267-0.411-0.234c-1.154,0.221-2.365,0.279-3.493,0.616C15.437,30.869,15.612,31.515,16.027,31.391
				L16.027,31.391z"/>
		</g>
	</g>
	<g>
		<g>
			<path d="M33.684,30.041c0.015,0.809,0.225,1.57,0.423,2.349c0.106,0.418,0.751,0.24,0.645-0.178
				c-0.183-0.721-0.385-1.422-0.399-2.171C34.345,29.61,33.676,29.61,33.684,30.041L33.684,30.041z"/>
		</g>
	</g>
	<g>
		<g>
			<path d="M34.132,30.451c1.104-0.276,2.236-0.578,3.38-0.601c0.548-0.011,0.549-0.861,0-0.85c-1.22,0.024-2.428,0.338-3.606,0.632
				C33.374,29.764,33.599,30.584,34.132,30.451L34.132,30.451z"/>
		</g>
	</g>
	<g>
		<g>
			<path d="M37.805,30.541c0.038,0.219,0.168,0.399,0.205,0.616c0.074,0.424,0.718,0.244,0.645-0.178
				c-0.038-0.219-0.168-0.399-0.205-0.616C38.377,29.939,37.732,30.119,37.805,30.541L37.805,30.541z"/>
		</g>
	</g>
	<g>
		<g>
			<path d="M37.394,29.719c0.173,0.746,0.189,1.526,0.411,2.26c0.124,0.412,0.77,0.236,0.645-0.178
				c-0.221-0.734-0.238-1.514-0.411-2.26C37.942,29.121,37.297,29.299,37.394,29.719L37.394,29.719z"/>
		</g>
	</g>
	<g>
		<g>
			<path d="M18.154,30.032c-1.308-1.874-2.57-4.134-1.555-6.433c0.368-0.833,1.273-1.404,2.201-1.256
				c2.321,0.371,0.267,3.144,1.05,3.86c-2.419-2.212-1.719-5.498,0.851-7.153c3.896-2.507,4.557,2.618,4.114,5.293
				c-0.235,1.419-0.115,1.444-0.733-0.622c-0.498-1.664-0.088-3.434,0.636-4.946c1.247-2.606,2.584-1.615,3.274,0.512
				c0.688,2.121,0.411,4.43-0.137,6.531c0.273,0,0.547,0,0.82,0c-0.666-1.874-0.8-3.34,0.164-5.235
				c2.428-2.012,3.499-1.565,3.213,1.341c-0.441,3.575-0.579,3.522-0.415-0.159c0.451-1.594,1.397-2.846,2.837-3.756
				c1.129,0.472,1.479,1.443,1.052,2.915c0.218,2.19-0.333,4.311-1.096,6.332c0.273,0.075,0.547,0.151,0.82,0.226
				c0.38-2.032,1.139-3.789,2.012-5.651c-0.264-0.072-0.528-0.143-0.792-0.215c0.288,2.756-0.189,5.346-1.218,7.9
				c-0.205,0.509,0.618,0.728,0.82,0.226c1.066-2.646,1.545-5.284,1.248-8.126c-0.039-0.374-0.594-0.639-0.792-0.215
				c-0.92,1.964-1.697,3.708-2.098,5.855c-0.101,0.542,0.626,0.738,0.82,0.226c1.332-3.522,1.384-6.881,0.411-10.499
				c-0.073-0.27-0.386-0.386-0.625-0.254c-3.546,1.956-5.176,5.167-3.894,9.11c0.103,0.318,0.613,0.46,0.777,0.102
				c1.262-2.76,1.079-5.098,0.043-7.93c-0.073-0.2-0.294-0.386-0.523-0.297c-3.691,1.43-4.894,4.645-3.584,8.331
				c0.135,0.379,0.708,0.431,0.82,0c0.939-3.602,0.571-6.951-1.276-10.19c-0.115-0.202-0.382-0.267-0.582-0.153
				c-4.024,2.305-4.702,7.013-2.413,10.855c0.186,0.312,0.683,0.259,0.777-0.102c0.839-3.197,1.436-10.456-4.091-8.535
				c-4.4,1.529-4.371,6.573-1.346,9.34c0.226,0.207,0.633,0.137,0.711-0.188c0.514-2.161,0.629-6.287-2.753-5.505
				c-4.194,0.969-1.679,6.896-0.284,8.894C17.731,30.907,18.469,30.483,18.154,30.032L18.154,30.032z"/>
		</g>
	</g>
	<g>
		<g>
			<path d="M16.903,31.685c-0.002-0.101,0.01-0.238-0.095-0.294c-0.075-0.041-0.148-0.012-0.197,0.052
				c-0.181,0.238-0.19,0.773-0.202,1.065c-0.008,0.185,0.28,0.185,0.287,0c0.009-0.233,0.016-0.727,0.162-0.92
				c-0.066,0.017-0.131,0.034-0.197,0.052c-0.055-0.061-0.071-0.045-0.048,0.046C16.62,31.87,16.907,31.87,16.903,31.685
				L16.903,31.685z"/>
		</g>
	</g>
	<g>
		<g>
			<path d="M17.237,31.236c-0.183,0.607-0.227,1.242-0.411,1.849c-0.054,0.178,0.224,0.253,0.277,0.076
				c0.183-0.607,0.227-1.242,0.411-1.849C17.568,31.134,17.291,31.059,17.237,31.236L17.237,31.236z"/>
		</g>
	</g>
	<g>
		<g>
			<path d="M17.868,31.612c-0.222,0.442-0.457,0.842-0.799,1.204c-0.127,0.134,0.076,0.338,0.203,0.203
				c0.357-0.377,0.612-0.799,0.844-1.262C18.199,31.592,17.951,31.447,17.868,31.612L17.868,31.612z"/>
		</g>
	</g>
	<g>
		<g>
			<path d="M16.554,32.65c0.436,0.046,0.79,0.394,1.16,0.597c0.162,0.089,0.307-0.159,0.145-0.248
				c-0.432-0.237-0.8-0.583-1.305-0.636C16.37,32.344,16.372,32.631,16.554,32.65L16.554,32.65z"/>
		</g>
	</g>
	<g>
		<g>
			<path d="M16.31,31.618c0.658,0.237,1.237,0.628,1.815,1.013c0.155,0.103,0.298-0.146,0.145-0.248
				c-0.6-0.4-1.201-0.796-1.883-1.042C16.212,31.278,16.138,31.556,16.31,31.618L16.31,31.618z"/>
		</g>
	</g>
	<g>
		<g>
			<path d="M17.303,31.398c0.639,0.402,1.372,0.618,2.127,0.636c0.185,0.004,0.185-0.283,0-0.287
				c-0.706-0.016-1.384-0.221-1.982-0.597C17.291,31.051,17.147,31.3,17.303,31.398L17.303,31.398z"/>
		</g>
	</g>
	<g>
		<g>
			<path d="M34.1,31.141c0.261,0.433,0.848,0.834,1.357,0.893c0.184,0.021,0.182-0.266,0-0.287
				c-0.401-0.046-0.906-0.415-1.109-0.751C34.253,30.838,34.004,30.982,34.1,31.141L34.1,31.141z"/>
		</g>
	</g>
	<g>
		<g>
			<path d="M34.019,30.596c0.301,0.037,0.658,0.304,0.919,0.446c0.166,0.09,0.329,0.184,0.491,0.281
				c0.065,0.039,0.129,0.079,0.193,0.12c0.033,0.021,0.065,0.043,0.097,0.066c0.073,0.076,0.11,0.02,0.111-0.168
				c-0.181,0.04-0.104,0.317,0.076,0.277c0.004-0.001,0.009-0.002,0.013-0.003c0.047-0.01,0.09-0.054,0.1-0.1
				c0.063-0.271-0.599-0.531-0.764-0.625c-0.362-0.205-0.814-0.529-1.237-0.581C33.835,30.286,33.837,30.574,34.019,30.596
				L34.019,30.596z"/>
		</g>
	</g>
	<g>
		<g>
			<path d="M34.716,29.969c-0.24,0.435-0.582,0.798-0.822,1.233c-0.09,0.162,0.159,0.307,0.248,0.145
				c0.24-0.435,0.582-0.798,0.822-1.233C35.054,29.951,34.806,29.807,34.716,29.969L34.716,29.969z"/>
		</g>
	</g>
	<g>
		<g>
			<path d="M35.538,29.969c-0.148,0.223-1.037,1.341-0.325,1.444c0.181,0.026,0.259-0.251,0.076-0.277
				c-0.168-0.024,0.444-0.943,0.497-1.022C35.889,29.959,35.64,29.815,35.538,29.969L35.538,29.969z"/>
		</g>
	</g>
	<g>
		<g>
			<path d="M35.93,30.658c-0.029,0.275-0.213,0.625-0.511,0.683c-0.182,0.035-0.105,0.312,0.076,0.277
				c0.432-0.084,0.68-0.561,0.722-0.96C36.236,30.473,35.949,30.475,35.93,30.658L35.93,30.658z"/>
		</g>
	</g>
	<g>
		<g>
			<path d="M34.326,31.376c0.423-0.408,0.955-0.744,1.255-1.262c0.093-0.161-0.155-0.305-0.248-0.145
				c-0.285,0.491-0.808,0.816-1.21,1.204C33.989,31.301,34.192,31.504,34.326,31.376L34.326,31.376z"/>
		</g>
	</g>
	<g>
		<g>
			<path d="M34.019,30.39c0.185,0,0.185-0.287,0-0.287C33.833,30.103,33.833,30.39,34.019,30.39L34.019,30.39z"/>
		</g>
	</g>
</g>
</svg>
