<?xml version="1.0" encoding="utf-8"?>
<!-- Generator: Adobe Illustrator 17.0.0, SVG Export Plug-In . SVG Version: 6.00 Build 0)  -->
<!DOCTYPE svg PUBLIC "-//W3C//DTD SVG 1.1//EN" "http://www.w3.org/Graphics/SVG/1.1/DTD/svg11.dtd">
<svg version="1.1" id="Calque_1" xmlns="http://www.w3.org/2000/svg" xmlns:xlink="http://www.w3.org/1999/xlink" x="0px" y="0px"
	 width="54px" height="55px" viewBox="0 0 54 55" enable-background="new 0 0 54 55" xml:space="preserve">
<g>
	<path fill="#E6E6E6" d="M29.564,11.449c-21.19-5.561-26.558,29.114-4.22,32.899C47.087,47.555,49.506,11.75,29.564,11.449"/>
	<g>
		<path class="focus-piece" fill="#3D3D3D" d="M29.666,11.079C7.321,5.83,3.743,42.118,25.344,44.732c21.135,2.558,25.264-32.744,4.22-33.666
			c-0.495-0.022-0.493,0.746,0,0.767c19.614,0.859,16.222,33.555-3.2,32.255C5.018,42.66,7.643,6.693,29.462,11.819
			C29.943,11.932,30.148,11.192,29.666,11.079L29.666,11.079z"/>
	</g>
</g>
<g>
	<g>
		<g>
			<path d="M18.782,28.579c-0.464,1.039,0.855,2.088,1.619,2.552c0.381,0.231,0.727-0.365,0.348-0.595
				c-0.329-0.2-0.62-0.434-0.89-0.709c-0.155-0.158-0.601-0.633-0.482-0.899C19.557,28.525,18.963,28.174,18.782,28.579
				L18.782,28.579z"/>
		</g>
	</g>
	<g>
		<g>
			<path d="M19.024,28.477c0.711-0.602,1.504-1.085,2.094-1.82c0.275-0.343-0.209-0.834-0.488-0.488
				c-0.589,0.734-1.384,1.219-2.094,1.82C18.197,28.277,18.687,28.762,19.024,28.477L19.024,28.477z"/>
		</g>
	</g>
	<g>
		<g>
			<path d="M29.375,25.93c1.057,0.6,2.177,1.076,3.29,1.56c0.403,0.175,0.755-0.418,0.348-0.595c-1.113-0.484-2.233-0.961-3.29-1.56
				C29.335,25.115,28.988,25.711,29.375,25.93L29.375,25.93z"/>
		</g>
	</g>
	<g>
		<g>
			<path d="M32.242,28.579c-0.247,0.429-0.483,0.884-0.843,1.231c-0.321,0.309,0.167,0.796,0.488,0.488
				c0.403-0.388,0.675-0.89,0.951-1.37C33.06,28.541,32.464,28.194,32.242,28.579L32.242,28.579z"/>
		</g>
	</g>
	<g>
		<g>
			<path d="M21.772,25.977c2.581-0.017,5.098-0.282,7.569-1.053c0.423-0.132,0.242-0.797-0.183-0.665
				c-2.411,0.752-4.868,1.011-7.386,1.028C21.327,25.29,21.327,25.98,21.772,25.977L21.772,25.977z"/>
		</g>
	</g>
	<g>
		<g>
			<path d="M29.547,24.506c0.621-0.825,1.149-1.722,1.53-2.683c0.164-0.414-0.503-0.591-0.665-0.183
				c-0.358,0.901-0.879,1.746-1.461,2.518C28.684,24.513,29.283,24.856,29.547,24.506L29.547,24.506z"/>
		</g>
	</g>
	<g>
		<g>
			<path d="M18.537,23.796C19.29,24.431,20.15,24.917,21,25.41c0.385,0.223,0.732-0.372,0.348-0.595
				c-0.796-0.461-1.618-0.911-2.323-1.506C18.687,23.023,18.197,23.508,18.537,23.796L18.537,23.796z"/>
		</g>
	</g>
	<g>
		<g>
			<path d="M19.412,23.383c0.594-1.501,1.517-2.751,2.833-3.695c0.358-0.257,0.014-0.855-0.348-0.595
				c-1.475,1.058-2.484,2.425-3.15,4.107C18.584,23.614,19.251,23.792,19.412,23.383L19.412,23.383z"/>
		</g>
	</g>
	<g>
		<g>
			<path d="M27.211,18.854c0.798,0.693,1.595,1.387,2.393,2.08c0.334,0.29,0.824-0.195,0.488-0.488
				c-0.798-0.693-1.595-1.387-2.393-2.08C27.365,18.077,26.875,18.562,27.211,18.854L27.211,18.854z"/>
		</g>
	</g>
	<g>
		<g>
			<path d="M22.669,19.996c1.571-0.02,3.09-0.293,4.578-0.792c0.419-0.141,0.239-0.807-0.183-0.665
				c-1.432,0.48-2.883,0.749-4.395,0.768C22.225,19.312,22.224,20.001,22.669,19.996L22.669,19.996z"/>
		</g>
	</g>
	<g>
		<g>
			<path d="M20.575,23.116c3.666,0.443,7.149-0.282,10.344-2.128c0.385-0.222,0.038-0.818-0.348-0.595
				c-3.099,1.79-6.447,2.462-9.996,2.033C20.135,22.374,20.14,23.064,20.575,23.116L20.575,23.116z"/>
		</g>
	</g>
	<g>
		<g>
			<path d="M17.111,16.828c1.607,0.845,3.179,1.756,4.786,2.601c0.393,0.207,0.742-0.388,0.348-0.595
				c-1.607-0.845-3.179-1.756-4.786-2.601C17.066,16.026,16.717,16.621,17.111,16.828L17.111,16.828z"/>
		</g>
	</g>
	<g>
		<g>
			<path d="M28.398,18.611c0.043-0.473,0.636-1.068,0.913-1.411c0.42-0.521,0.878-1.02,1.379-1.465
				c0.333-0.296-0.156-0.782-0.488-0.488c-0.604,0.537-1.145,1.151-1.637,1.791c-0.345,0.45-0.804,0.983-0.857,1.573
				C27.669,19.054,28.358,19.05,28.398,18.611L28.398,18.611z"/>
		</g>
	</g>
	<g>
		<g>
			<path d="M19.08,15.835c4.44-0.26,8.861-0.584,13.253-1.313c0.438-0.073,0.251-0.737-0.183-0.665
				c-4.332,0.719-8.691,1.032-13.069,1.288C18.638,15.171,18.635,15.861,19.08,15.835L19.08,15.835z"/>
		</g>
	</g>
	<g>
		<g>
			<path d="M20.783,27.785c1.401,0.477,2.796,0.775,4.279,0.792c0.445,0.005,0.444-0.684,0-0.689
				c-1.424-0.017-2.753-0.311-4.096-0.768C20.544,26.977,20.364,27.643,20.783,27.785L20.783,27.785z"/>
		</g>
	</g>
	<g>
		<g>
			<path d="M23.866,27.277c0.73,0.019,1.474,0.249,2.185-0.012c0.414-0.152,0.235-0.818-0.183-0.665
				c-0.641,0.235-1.342,0.005-2.002-0.012C23.421,26.576,23.422,27.266,23.866,27.277L23.866,27.277z"/>
		</g>
	</g>
	<g>
		<g>
			<path d="M23.475,24.144c1.123,0.248,2.226,0.515,3.382,0.532c0.445,0.007,0.444-0.683,0-0.689
				c-1.094-0.017-2.136-0.273-3.199-0.508C23.225,23.384,23.041,24.048,23.475,24.144L23.475,24.144z"/>
		</g>
	</g>
	<g>
		<g>
			<path d="M21.299,23.589c0.98,0.568,1.963,1.076,3.073,1.335c0.433,0.101,0.616-0.564,0.183-0.665
				c-1.054-0.246-1.979-0.727-2.909-1.266C21.261,22.771,20.914,23.367,21.299,23.589L21.299,23.589z"/>
		</g>
	</g>
	<g>
		<g>
			<path d="M22.126,23.568c-0.299,0.26-0.598,0.52-0.897,0.78c-0.336,0.292,0.154,0.778,0.488,0.488
				c0.299-0.26,0.598-0.52,0.897-0.78C22.95,23.763,22.46,23.278,22.126,23.568L22.126,23.568z"/>
		</g>
	</g>
	<g>
		<g>
			<path d="M23.093,20.654c-0.821,0.485-1.572,1.075-2.393,1.56c-0.382,0.226-0.036,0.822,0.348,0.595
				c0.821-0.485,1.572-1.075,2.393-1.56C23.824,21.023,23.477,20.427,23.093,20.654L23.093,20.654z"/>
		</g>
	</g>
	<g>
		<g>
			<path d="M21.474,19.997c-0.174,0.32-0.28,0.713-0.544,0.97c-0.319,0.311,0.169,0.798,0.488,0.488
				c0.318-0.31,0.444-0.727,0.652-1.11C22.282,19.955,21.687,19.607,21.474,19.997L21.474,19.997z"/>
		</g>
	</g>
	<g>
		<g>
			<path d="M22.669,21.556c0.311,0.04,0.58,0.219,0.897,0.26c0.44,0.057,0.435-0.633,0-0.689c-0.311-0.04-0.58-0.219-0.897-0.26
				C22.229,20.81,22.234,21.5,22.669,21.556L22.669,21.556z"/>
		</g>
	</g>
	<g>
		<g>
			<path d="M23.566,20.776c0.1,0,0.199,0,0.299,0c0.445,0,0.445-0.689,0-0.689c-0.1,0-0.199,0-0.299,0
				C23.122,20.086,23.122,20.776,23.566,20.776L23.566,20.776z"/>
		</g>
	</g>
	<g>
		<g>
			<path d="M19.08,28.722c4.287,0.214,8.623-0.195,12.624-1.829c0.269-0.11,0.152-0.553-0.122-0.441
				c-3.965,1.619-8.253,2.025-12.502,1.812C18.785,28.249,18.786,28.707,19.08,28.722L19.08,28.722z"/>
		</g>
	</g>
	<g>
		<g>
			<path d="M20.713,28.655c1.444,1.764,3.639,2.369,5.845,2.408c0.295,0.005,0.295-0.453,0-0.458
				c-2.096-0.036-4.15-0.597-5.521-2.273C20.849,28.102,20.527,28.428,20.713,28.655L20.713,28.655z"/>
		</g>
	</g>
	<g>
		<g>
			<path d="M22.208,28.331c-0.564,0.492-0.974,0.96-1.255,1.661c-0.11,0.274,0.333,0.392,0.441,0.122
				c0.249-0.62,0.642-1.028,1.138-1.459C22.755,28.461,22.43,28.138,22.208,28.331L22.208,28.331z"/>
		</g>
	</g>
	<g>
		<g>
			<path d="M24.302,28.591c-0.997,0.889-1.764,1.935-2.153,3.222c-0.086,0.283,0.356,0.403,0.441,0.122
				c0.367-1.214,1.096-2.182,2.035-3.02C24.846,28.718,24.521,28.395,24.302,28.591L24.302,28.591z"/>
		</g>
	</g>
	<g>
		<g>
			<path d="M26.695,28.851c-0.997,0.867-1.994,1.734-2.991,2.601c-0.223,0.194,0.102,0.516,0.324,0.324
				c0.997-0.867,1.994-1.734,2.991-2.601C27.242,28.981,26.916,28.658,26.695,28.851L26.695,28.851z"/>
		</g>
	</g>
	<g>
		<g>
			<path d="M22.748,17.25c-0.242,0.616-0.545,1.193-0.874,1.766c-0.147,0.256,0.248,0.487,0.395,0.231
				c0.349-0.607,0.664-1.223,0.92-1.875C23.297,17.096,22.854,16.978,22.748,17.25L22.748,17.25z"/>
		</g>
	</g>
	<g>
		<g>
			<path d="M21.574,15.895c-0.325,0.564-0.675,1.074-1.161,1.514c-0.219,0.199,0.106,0.521,0.324,0.324
				c0.515-0.467,0.887-1.008,1.232-1.607C22.117,15.869,21.721,15.639,21.574,15.895L21.574,15.895z"/>
		</g>
	</g>
	<g>
		<g>
			<path d="M21.113,15.451c0.699,0.207,1.371,0.467,2.039,0.757c0.268,0.116,0.501-0.278,0.231-0.395
				c-0.704-0.306-1.412-0.585-2.148-0.803C20.951,14.925,20.83,15.367,21.113,15.451L21.113,15.451z"/>
		</g>
	</g>
	<g>
		<g>
			<path d="M23.566,15.835c0.445,0,0.445-0.689,0-0.689S23.122,15.835,23.566,15.835L23.566,15.835z"/>
		</g>
	</g>
	<g>
		<g>
			<path d="M25.361,16.095c0.445,0,0.445-0.689,0-0.689S24.916,16.095,25.361,16.095L25.361,16.095z"/>
		</g>
	</g>
	<g>
		<g>
			<path d="M17.068,32.142c6.542-0.594,13.212-0.548,19.667-1.864c0.435-0.089,0.251-0.753-0.183-0.665
				c-6.392,1.303-13.005,1.251-19.484,1.839C16.629,31.492,16.625,32.182,17.068,32.142L17.068,32.142z"/>
		</g>
	</g>
	<g>
		<g>
			<path d="M16.353,31.982c-0.474,14.276,25.522,10.443,20.623-2.128c-0.16-0.41-0.826-0.232-0.665,0.183
				c4.516,11.59-19.71,15.242-19.269,1.945C17.057,31.538,16.367,31.539,16.353,31.982L16.353,31.982z"/>
		</g>
	</g>
	<g>
		<g>
			<path d="M19.833,34.135c1.559,2.642,3.781,4.657,6.618,5.845c0.272,0.114,0.39-0.329,0.122-0.441
				c-2.721-1.14-4.85-3.104-6.344-5.635C20.078,33.65,19.682,33.88,19.833,34.135L19.833,34.135z"/>
		</g>
	</g>
	<g>
		<g>
			<path d="M18.884,31.858c0.661,3.543,2.742,6.54,6.03,8.099c0.265,0.126,0.498-0.269,0.231-0.395
				c-3.193-1.513-5.179-4.387-5.82-7.825C19.271,31.446,18.83,31.57,18.884,31.858L18.884,31.858z"/>
		</g>
	</g>
	<g>
		<g>
			<path d="M17.403,32.599c1.071,4.319,4.744,7.252,9.109,7.76c0.293,0.034,0.29-0.424,0-0.458
				c-4.163-0.485-7.648-3.315-8.667-7.424C17.773,32.191,17.332,32.312,17.403,32.599L17.403,32.599z"/>
		</g>
	</g>
	<g>
		<g>
			<path d="M20.573,33.209c1.74,3.142,4.628,5.887,8.345,6.224c0.294,0.027,0.291-0.431,0-0.458c-3.551-0.322-6.295-3.01-7.95-5.997
				C20.826,32.72,20.43,32.95,20.573,33.209L20.573,33.209z"/>
		</g>
	</g>
	<g>
		<g>
			<path d="M19.405,34.587c1.606-0.733,3.035-1.724,4.444-2.777c0.233-0.175,0.006-0.572-0.231-0.395
				c-1.409,1.054-2.838,2.044-4.444,2.777C18.906,34.314,19.139,34.709,19.405,34.587L19.405,34.587z"/>
		</g>
	</g>
	<g>
		<g>
			<path d="M21.627,36.254c1.32-0.77,2.481-1.74,3.564-2.813c0.21-0.208-0.114-0.532-0.324-0.324
				c-1.056,1.047-2.184,1.991-3.472,2.742C21.141,36.007,21.372,36.403,21.627,36.254L21.627,36.254z"/>
		</g>
	</g>
	<g>
		<g>
			<path d="M22.738,38.29c1.709-0.969,3.281-2.178,4.49-3.739c0.178-0.23-0.143-0.557-0.324-0.324
				c-1.187,1.532-2.719,2.715-4.398,3.668C22.251,38.041,22.481,38.436,22.738,38.29L22.738,38.29z"/>
		</g>
	</g>
	<g>
		<g>
			<path d="M24.59,40.512c2.113-1.276,3.711-3.096,4.364-5.507c0.077-0.285-0.364-0.406-0.441-0.122
				c-0.623,2.299-2.138,4.016-4.154,5.233C24.107,40.27,24.337,40.665,24.59,40.512L24.59,40.512z"/>
		</g>
	</g>
	<g>
		<g>
			<path d="M19.59,36.624c1.26-0.554,2.395-1.295,3.379-2.258c0.211-0.207-0.113-0.53-0.324-0.324
				c-0.958,0.937-2.062,1.647-3.287,2.186C19.09,36.347,19.323,36.742,19.59,36.624L19.59,36.624z"/>
		</g>
	</g>
	<g>
		<g>
			<path d="M19.66,33.693c1.535-0.205,3.009-0.58,4.374-1.327c0.259-0.142,0.028-0.537-0.231-0.395
				c-1.293,0.708-2.69,1.071-4.143,1.265C19.372,33.273,19.368,33.732,19.66,33.693L19.66,33.693z"/>
		</g>
	</g>
	<g>
		<g>
			<path d="M18.572,33.302c-1.835,1.989,0.379,3.91,2.083,4.989c0.25,0.158,0.48-0.238,0.231-0.395
				c-1.405-0.889-3.59-2.536-1.99-4.27C19.096,33.409,18.773,33.085,18.572,33.302L18.572,33.302z"/>
		</g>
	</g>
	<g>
		<g>
			<path d="M19.266,33.44c1.088-0.896,2.252-1.668,3.472-2.371c0.256-0.147,0.025-0.543-0.231-0.395
				c-1.254,0.723-2.447,1.523-3.564,2.443C18.715,33.305,19.04,33.626,19.266,33.44L19.266,33.44z"/>
		</g>
	</g>
	<g>
		<g>
			<path d="M21.512,35.359c0.295,0,0.295-0.458,0-0.458S21.217,35.359,21.512,35.359L21.512,35.359z"/>
		</g>
	</g>
	<g>
		<g>
			<path d="M23.795,37.017c1.523-0.572,3.037-1.157,4.499-1.875c0.265-0.13,0.033-0.525-0.231-0.395
				c-1.426,0.701-2.903,1.271-4.389,1.829C23.399,36.679,23.518,37.121,23.795,37.017L23.795,37.017z"/>
		</g>
	</g>
	<g>
		<g>
			<path d="M24.72,39.98c2.494-0.393,4.766-1.286,6.906-2.615c0.25-0.155,0.02-0.551-0.231-0.395
				c-2.106,1.308-4.345,2.183-6.796,2.569C24.308,39.584,24.432,40.025,24.72,39.98L24.72,39.98z"/>
		</g>
	</g>
	<g>
		<g>
			<path d="M27.128,39.424c2.822-0.802,5.208-2.439,6.803-4.919c0.16-0.249-0.236-0.478-0.395-0.231
				c-1.533,2.384-3.821,3.939-6.529,4.709C26.722,39.064,26.843,39.505,27.128,39.424L27.128,39.424z"/>
		</g>
	</g>
	<g>
		<g>
			<path d="M28.945,29.611c1.222-0.236,2.277-0.962,3.064-1.911c0.187-0.225-0.135-0.551-0.324-0.324
				c-0.742,0.895-1.708,1.57-2.862,1.793C28.533,29.225,28.656,29.666,28.945,29.611L28.945,29.611z"/>
		</g>
	</g>
	<g>
		<g>
			<path d="M31.279,28.395c0.126,0.274,0.153,0.513,0.154,0.81c0.001,0.295,0.459,0.295,0.458,0
				c-0.001-0.382-0.056-0.693-0.216-1.041C31.55,27.896,31.156,28.129,31.279,28.395L31.279,28.395z"/>
		</g>
	</g>
	<g>
		<g>
			<path d="M29.81,29.434c0.295,0,0.295-0.458,0-0.458C29.514,28.976,29.514,29.434,29.81,29.434L29.81,29.434z"/>
		</g>
	</g>
</g>
</svg>
