<?xml version="1.0" encoding="utf-8"?>
<!-- Generator: Adobe Illustrator 17.0.0, SVG Export Plug-In . SVG Version: 6.00 Build 0)  -->
<!DOCTYPE svg PUBLIC "-//W3C//DTD SVG 1.1//EN" "http://www.w3.org/Graphics/SVG/1.1/DTD/svg11.dtd" [
	<!ENTITY st0 "fill:#3D3D3D;">
	<!ENTITY st1 "opacity:0.6;">
	<!ENTITY st2 "fill:#4B4B4B;">
	<!ENTITY st3 "fill:#CC88EF;">
]>
<svg version="1.1" id="Calque_1" xmlns="http://www.w3.org/2000/svg" xmlns:xlink="http://www.w3.org/1999/xlink" x="0px" y="0px"
	 width="99px" height="29px" viewBox="0 0 99 29" style="enable-background:new 0 0 99 29;" xml:space="preserve">
<g>
	<g>
		<g>
			<g>
				<g>
					<path style="&st0;" d="M95.385,3.599c0.938,4.953,0.831,10.098,0.737,15.118c-0.034,1.815-0.107,3.629-0.194,5.442
						c-0.085,1.781,0.915,0.474-0.4,0.553c-5.042,0.305-10.112,0.299-15.16,0.364c-16.651,0.214-33.305,0.224-49.957,0.232
						c-6.82,0.003-13.64-0.001-20.46-0.011c-1.933-0.003-3.865-0.007-5.798-0.011C1.365,25.281,2.9,25.727,3.01,23.774
						c0.334-5.935-0.431-11.863,0.067-17.806c0.21-2.505-0.707-1.96,1.867-1.955c4.822,0.009,9.643,0.017,14.465,0.026
						c25.578,0.046,51.156,0.091,76.734,0.137c1.014,0.002,1.014-1.57,0-1.572C64.998,2.549,33.853,2.493,2.707,2.437
						C2.382,2.437,2.01,2.675,1.949,3.015C0.58,10.671,2.048,18.388,1.258,26.068c-0.044,0.428,0.391,0.785,0.786,0.786
						c14.565,0.04,29.13,0.039,43.695,0.007c16.857-0.038,34.092,0.785,50.907-0.656c0.447-0.038,0.759-0.33,0.786-0.786
						c0.441-7.319,0.839-15.001-0.531-22.238C96.713,2.186,95.197,2.609,95.385,3.599z"/>
				</g>
			</g>
			<g style="&st1;">
				<path style="&st2;" d="M96.143,3.39c0.813,6.683,0.503,22.029,0.503,22.029c-9.617,0.883-94.602,0.556-94.602,0.556
					C3.406,20.507,1.423,8.991,2.707,3.224L96.143,3.39z"/>
				<g>
					<path style="&st0;" d="M95.357,3.39c0.489,4.485,0.525,9.013,0.556,13.52c0.014,2.002,0.001,4.004-0.018,6.006
						c-0.006,0.61-0.015,1.22-0.024,1.83c-0.018,1.196,0.7-0.106,0.269-0.073c-4.692,0.353-9.434,0.309-14.136,0.371
						c-16.541,0.218-33.086,0.208-49.629,0.203c-10.105-0.003-20.211-0.02-30.316-0.058c1.913,0.007,1.252-3.341,1.273-4.918
						c0.038-2.8-0.149-5.607-0.244-8.405C3.065,11.181,3.387,4.011,2.721,4.01C3.006,4.01,3.291,4.011,3.576,4.011
						c4.03,0.007,8.06,0.014,12.09,0.022c26.826,0.048,53.651,0.096,80.477,0.144c1.014,0.002,1.014-1.57,0-1.572
						C64.998,2.549,33.853,2.493,2.707,2.437C2.381,2.437,2.011,2.675,1.949,3.015c-1.374,7.519,0.865,15.269-0.663,22.752
						c-0.102,0.497,0.221,0.993,0.758,0.995c14.565,0.056,29.13,0.071,43.695,0.053c16.854-0.02,34.094,0.83,50.907-0.609
						c0.433-0.037,0.777-0.33,0.786-0.786c0.142-7.315,0.292-14.747-0.503-22.029C96.82,2.394,95.247,2.383,95.357,3.39z"/>
				</g>
			</g>
			<g>
				<g>
					<path style="&st0;" d="M91.936,23.512c1.485,0.848,3.075,1.494,4.624,2.215c0.913,0.425,1.712-0.93,0.793-1.357
						c-1.548-0.72-3.138-1.367-4.624-2.215C91.848,21.651,91.056,23.009,91.936,23.512L91.936,23.512z"/>
				</g>
			</g>
			<g>
				<g>
					<path style="&st0;" d="M2.441,26.654c1.532-0.998,2.774-2.348,4.263-3.4c0.821-0.58,0.036-1.944-0.793-1.357
						c-1.488,1.052-2.735,2.405-4.263,3.4C0.801,25.847,1.588,27.209,2.441,26.654L2.441,26.654z"/>
				</g>
			</g>
		</g>
		<g>
			<g>
				<path style="&st0;" d="M6.219,22.316c0,0.086,0,0.172,0,0.259c0,0.951,1.475,0.951,1.475,0c0-0.086,0-0.172,0-0.259
					C7.694,21.365,6.219,21.365,6.219,22.316L6.219,22.316z"/>
			</g>
		</g>
		<g>
			<path class="fill-color" d="M92.606,23.507c0.553-5.781-0.724-20.797-0.724-20.797c-5.377,0.259-84.827,0-84.827,0
				C6.313,6.456,7.415,18.988,6.415,22.99v0.259C13.415,23.248,85.53,23.507,92.606,23.507z"/>
			<g>
				<path style="&st0;" d="M93.394,23.507c0.527-6.879-0.183-13.938-0.788-20.797c-0.03-0.346-0.277-0.675-0.659-0.659
					c-28.153,1.195-56.553,0.092-84.73,0C6.948,2.05,6.624,2.25,6.58,2.535c-0.485,3.152-0.288,6.396-0.23,9.572
					c0.069,3.731-0.336,7.448-0.336,11.141c0,0.359,0.3,0.659,0.659,0.659c28.687,0.009,57.374,0.25,86.061,0.259
					c0.85,0,0.85-1.318,0-1.318C65.03,22.839,37.324,22.66,9.62,22.594c-0.747-0.002-1.493-0.003-2.24-0.004
					c-0.373-0.001,0.156-0.739,0.26-2.065c0.402-5.127-0.137-10.313,0.009-15.451C7.707,3.035,6.86,3.368,9.098,3.375
					c2.138,0.007,4.276,0.013,6.413,0.019c15.426,0.044,30.851,0.078,46.277,0.088c8.826,0.006,17.653,0.023,26.479-0.05
					c0.967-0.008,1.934-0.019,2.9-0.039c0.993-0.02,0.192,0.136,0.127-0.6c0.075,0.85,0.142,1.701,0.209,2.552
					c0.472,6.001,1.033,12.146,0.572,18.162C92.01,24.355,93.329,24.349,93.394,23.507z"/>
			</g>
		</g>
	</g>
	<g>
		<g>
			<path style="&st0;" d="M2.707,4.01c1.225,0.041,2.366,0.605,3.6,0.646c1.014,0.034,1.011-1.538,0-1.572
				c-1.225-0.041-2.366-0.605-3.6-0.646C1.693,2.403,1.696,3.976,2.707,4.01L2.707,4.01z"/>
		</g>
	</g>
	<g>
		<g>
			<path style="&st0;" d="M95.905,2.751c-0.367-0.042-0.72-0.041-1.088-0.027c-0.343,0.014-0.695-0.118-1.126-0.259
				c-0.967-0.315-1.378,1.203-0.418,1.516c0.481,0.157,0.972,0.309,1.483,0.316c0.388,0.006,0.76-0.018,1.149,0.026
				c0.427,0.048,0.786-0.394,0.786-0.786C96.691,3.072,96.331,2.799,95.905,2.751L95.905,2.751z"/>
		</g>
	</g>
</g>
</svg>
