<?xml version="1.0" encoding="utf-8"?>
<!-- Generator: Adobe Illustrator 17.0.0, SVG Export Plug-In . SVG Version: 6.00 Build 0)  -->
<!DOCTYPE svg PUBLIC "-//W3C//DTD SVG 1.1//EN" "http://www.w3.org/Graphics/SVG/1.1/DTD/svg11.dtd">
<svg version="1.1" xmlns="http://www.w3.org/2000/svg" xmlns:xlink="http://www.w3.org/1999/xlink" x="0px" y="0px" width="25.92px"
	 height="32.32px" viewBox="0 0 25.92 32.32" enable-background="new 0 0 25.92 32.32" xml:space="preserve">
<g id="Calque_2">
	<g id="contenu">
		<path fill="#FFF035" d="M16.52,29.05c2.89-8.449,3.13-8.232,5.132-16.904c0,0-5.458,1.477-6.956,2.561
			c-2.735,1.979-6.096-0.564-10.228-4.469L2.269,5.926c2.223,8.004,4.002,15.786,7.115,23.569L16.52,29.05z"/>
	</g>
</g>
<g id="Calque_1">
	<path d="M23.459,4.059c-0.135,0.135-0.49,0.149-0.988,0.081C22.43,4.066,22.37,4,22.275,3.961c-0.192-0.079-0.387-0.144-0.58-0.217
		c-0.045-0.108-0.135-0.195-0.291-0.225c-0.224-0.042-0.449-0.074-0.673-0.109c-1.223-0.382-2.473-0.635-3.736-0.768
		c-1.218-0.374-2.274-0.683-2.801-0.735c-3.584-0.352-7.35,0.424-10.344,2.431C3.292,4.712,2.918,5.07,2.668,5.43
		C2.642,5.446,2.616,5.46,2.589,5.476C2.388,5.601,2.339,5.799,2.38,5.978c-0.407,1.177,0.344,2.451,0.858,4.357
		c1.727,6.405,3.443,12.782,5.78,18.993C8.94,29.426,8.9,29.539,8.894,29.678c-0.007,0.158,0.07,0.259,0.173,0.316
		C9.09,30.07,9.11,30.147,9.13,30.225c0.065,0.258,0.307,0.314,0.5,0.24c0.267,0.065,0.586-0.122,0.462-0.444
		c-0.004-0.009-0.007-0.03-0.01-0.039C10.153,29.995,10.22,30,10.306,30c0,0,0.947,0,2.181,0c0.09,0,0.306,0.324,0.542,0.22
		c0.367-0.161,0.747-0.163,1.14-0.164c0.242-0.001,0.364-0.102,0.369-0.289C14.599,29.855,14.695,30,14.836,30
		c0.074,0,0.148,0,0.222,0c0.074,0,0.148,0,0.222,0c0.148,0,0.296,0,0.445,0c0.125,0,0.217-0.129,0.279-0.202
		c0.017,0.362,0.617,0.437,0.758,0.022c2.828-8.343,5.32-16.79,7.337-25.367C24.186,4.085,23.738,3.78,23.459,4.059z M5.834,3.788
		C5.266,4.031,4.701,4.299,4.141,4.595C4.61,4.281,5.187,4.013,5.834,3.788z M3.226,6.527c0.308-0.103,0.617-0.204,0.928-0.303
		C4.088,6.342,3.967,6.387,3.719,6.393C3.453,6.399,3.335,6.624,3.355,6.829c-0.007,0-0.012,0.002-0.019,0.002
		C3.3,6.73,3.263,6.628,3.226,6.527z M3.282,8.938c1.174,3.238,2.363,6.491,3.411,9.783c-0.145-0.071-0.287-0.102-0.418-0.078
		C5.364,15.735,3.895,12.158,3.282,8.938z M7.794,22.652c-0.365-0.817-0.713-1.643-0.996-2.492c-0.059-0.177-0.109-0.36-0.148-0.544
		c0.125,0.104,0.243,0.22,0.355,0.328c0.027,0.026,0.057,0.039,0.086,0.055c0.299,0.981,0.581,1.967,0.845,2.957
		C7.89,22.854,7.84,22.754,7.794,22.652z M10.167,28.182c-0.117,0-0.205,0.045-0.267,0.111c-0.015-0.084-0.03-0.167-0.045-0.251
		c0.029,0.007,0.055,0.018,0.09,0.018c0.193,0,0.376-0.012,0.558-0.03c0.02,0.056,0.05,0.109,0.095,0.152
		C10.454,28.182,10.31,28.182,10.167,28.182z M15.232,28.962c-0.009,0.006-0.019,0.008-0.028,0.014
		c-0.001-0.009-0.005-0.016-0.006-0.025c0.018,0,0.037,0,0.055,0C15.246,28.956,15.239,28.956,15.232,28.962z M22.475,7.92
		c-0.595,2.435-1.26,4.852-1.933,7.265c-1.334,4.78-2.866,9.503-4.456,14.203c-0.02-0.127-0.093-0.24-0.224-0.288
		c-0.042-0.077-0.109-0.144-0.193-0.185c0.32-0.15,0.266-0.732-0.166-0.732c-0.334,0-0.661,0.014-0.983,0.063
		c0.023-0.081,0.024-0.181-0.002-0.262C15.288,27.846,15.225,27,14.306,27c-1,0-2,0-2,0c-0.134,0-0.247-0.004-0.346,0.027
		c-0.005,0-0.009-0.027-0.015-0.027c-0.036,0-0.073,0-0.109,0c-0.051,0-0.161-0.187-0.336-0.187
		c-0.243-0.001-0.635,0.069-0.84-0.092c-0.079-0.062-0.164-0.073-0.246-0.073c-0.238-0.885-0.573-1.737-0.767-2.635
		c-0.077-0.356-0.495-0.582-0.671-0.356C7.67,18.42,5.773,14,3.936,8C3.828,8,3.722,8,3.659,8c-0.02,0-0.04-0.248-0.06-0.303
		c0.655-0.1,1.126-0.514,1.379-1.195c0.045-0.121,0.026-0.257-0.027-0.335C4.96,6.111,4.975,6.045,4.979,5.985
		c4.17-1.276,8.537-2.173,12.885-1.965c0.752,0.264,1.498,0.588,2.236,0.986c0.056,0.081,0.143,0.135,0.263,0.148
		c0.603,0.34,1.202,0.711,1.793,1.145c0.386,0.284,0.746-0.153,0.658-0.53c0.062-0.066,0.13-0.14,0.209-0.233
		c0.03-0.015,0.065-0.021,0.089-0.045C24.206,4.397,22.574,7.515,22.475,7.92z"/>
</g>
</svg>
