<?xml version="1.0" encoding="utf-8"?>
<!-- Generator: Adobe Illustrator 17.0.0, SVG Export Plug-In . SVG Version: 6.00 Build 0)  -->
<!DOCTYPE svg PUBLIC "-//W3C//DTD SVG 1.1//EN" "http://www.w3.org/Graphics/SVG/1.1/DTD/svg11.dtd">
<svg version="1.1" xmlns="http://www.w3.org/2000/svg" xmlns:xlink="http://www.w3.org/1999/xlink" x="0px" y="0px" width="25.04px"
	 height="26.05px" viewBox="0 0 25.04 26.05" enable-background="new 0 0 25.04 26.05" xml:space="preserve">
<g id="Calque_bulle">
	<g id="bulle5_1_">
		<g>
			<path fill="#715DDF" d="M9.351,4.54c0-0.102,0-0.204,0-0.305c0-0.495-0.767-0.495-0.767,0c0,0.043,0,0.086,0,0.129
				c0,0.495,0.767,0.495,0.767,0c0-0.015,0-0.031,0-0.046c0-0.495-0.767-0.495-0.767,0c0,0.015,0,0.031,0,0.046
				c0,0.495,0.767,0.495,0.767,0c0-0.043,0-0.086,0-0.129c0-0.495-0.767-0.495-0.767,0c0,0.102,0,0.204,0,0.305
				C8.584,5.035,9.351,5.035,9.351,4.54L9.351,4.54z"/>
		</g>
	</g>
	<g id="bulle5">
		<g>
			<path fill="#715DDF" d="M10.079,6.258c0.495,0,0.495-0.767,0-0.767S9.584,6.258,10.079,6.258L10.079,6.258z"/>
		</g>
	</g>
	<g id="bulle4">
		<g>
			<path fill="#715DDF" d="M7.079,8.258c0.495,0,0.495-0.767,0-0.767S6.584,8.258,7.079,8.258L7.079,8.258z"/>
		</g>
	</g>
	<g id="bulle3">
		<g>
			<path fill="#715DDF" d="M14.971,3.59c0.495,0,0.495-0.767,0-0.767C14.476,2.822,14.476,3.59,14.971,3.59L14.971,3.59z"/>
		</g>
	</g>
	<g id="bulle2">
		<g>
			<path fill="#715DDF" d="M6.583,5.652c0,0.074,0,0.148,0,0.222c0,0.495,0.767,0.495,0.767,0c0-0.074,0-0.148,0-0.222
				C7.35,5.157,6.583,5.157,6.583,5.652L6.583,5.652z"/>
		</g>
	</g>
	<g id="bulle1">
		<g>
			<path fill="#715DDF" d="M4.359,9.432c0,0.074,0,0.148,0,0.222c0,0.495,0.767,0.495,0.767,0c0-0.074,0-0.148,0-0.222
				C5.127,8.937,4.359,8.937,4.359,9.432L4.359,9.432z"/>
		</g>
	</g>
</g>
<g id="calque_contenu">
	<g id="contenu">
		<path fill="blue" d="M21.863,14.546c0.049-0.701-1.556-1.779-2.001-2.446c-0.667,0.889-2.001,2.223-2.223,3.335
			c-0.445-1.334-1.556-2.89-2.001-4.225c-0.222,1.112-1.112,2.89-1.334,3.78c-0.889-1.334-2.668-2.446-3.335-4.002
			c-0.667,1.112-1.556,2.446-2.001,3.558C8.3,13.434,6.744,12.1,5.855,10.988c-1.112,1.112-2.302,2.404-3.192,3.96
			c0,0,0.682,7.447,5.798,8.714c5.116,1.266,6.967,0.317,6.967,0.317S21.59,18.479,21.863,14.546z">
      <animate id="animation-to-check"
        repeatCount="indefinite" attributeName="d" dur="2s"
        values="M21.863,14.546c0.049-0.701-1.556-1.779-2.001-2.446c-0.667,0.889-2.001,2.223-2.223,3.335
			c-0.445-1.334-1.556-2.89-2.001-4.225c-0.222,1.112-1.112,2.89-1.334,3.78c-0.889-1.334-2.668-2.446-3.335-4.002
			c-0.667,1.112-1.556,2.446-2.001,3.558C8.3,13.434,6.744,12.1,5.855,10.988c-1.112,1.112-2.302,2.404-3.192,3.96
			c0,0,0.682,7.447,5.798,8.714c5.116,1.266,6.967,0.317,6.967,0.317S21.59,18.479,21.863,14.546z;

      M21.863,16.546c0.049-0.701-1.556-1.779-2.001-2.446c-0.667,0.889-2.001,2.223-2.223,3.335
			c-0.445-1.334-1.556-2.89-2.001-4.225c-0.222,1.112-1.112,2.89-1.334,3.78c-0.889-1.334-2.668-2.446-3.335-4.002
			c-0.667,1.112-1.556,2.446-2.001,3.558C8.3,13.434,6.744,12.1,5.855,10.988c-1.112,1.112-2.302,2.404-3.192,3.96
			c0,0,0.682,7.447,5.798,8.714c5.116,1.266,6.967,0.317,6.967,0.317S21.59,18.479,21.863,14.546z" />
    </path>
		<g>
			<path fill="red" d="M22.233,14.444c-0.435-1.106-1.31-1.736-2.1-2.615c-0.129-0.144-0.416-0.157-0.543,0
				c-0.678,0.84-1.333,1.654-1.936,2.548c0.023-0.034-1.479-2.871-1.686-3.359c-0.137-0.324-0.618-0.196-0.701,0.092
				c-0.295,1.019-0.672,1.985-1.063,2.97c-0.105,0.266-3.006-3.458-2.905-3.284c-0.148-0.253-0.513-0.244-0.663,0
				c-0.156,0.254-1.842,2.855-1.833,2.867c-0.764-1.066-1.817-1.956-2.678-2.945c-0.136-0.156-0.405-0.142-0.543,0
				c-2.848,2.937-3.739,3.836-2.557,7.55c1.261,3.965,3.869,5.585,7.808,6.255c1.744,0.297,3.995,0.556,5.374-0.747
				c2.552-2.41,5.482-5.527,6.025-9.127c0.073-0.484-0.666-0.692-0.74-0.204c-0.481,3.19-2.879,5.775-5.045,8.016
				c-1.431,1.481-2.347,1.545-4.502,1.424c-4.698-0.264-7.35-2.674-8.548-7.06c-0.504-1.845-0.378-1.908,1.048-3.751
				c1.721-2.225,3.004,0.013,4.189,1.667c0.151,0.211,0.529,0.285,0.663,0c0.121-0.259,1.534-3.223,1.856-2.672
				c0.697,1.194,2.011,2.113,2.878,3.194c0.193,0.241,0.559,0.077,0.641-0.169c0.322-0.962,0.702-1.898,1.063-2.845
				c-0.19,0.499,1.332,2.818,1.571,3.382c0.146,0.345,0.596,0.171,0.701-0.092c0.961-2.394,2.396-3.66,3.484-0.889
				C21.672,15.103,22.415,14.905,22.233,14.444z"/>
		</g>
	</g>
</g>
<g id="Calque_1">
	<g>
		<g>
			<path d="M8.494,23.553c-5.41-3.094-7.197-9.044-5.208-14.818C5.73,1.64,14.998-0.245,20.469,4.617
				c4.693,4.171,1.089,11.986-1.966,15.922c-1.213,1.562-3.024,3.731-5.113,3.507C11.693,23.864,9.997,23.682,8.3,23.5
				c-0.492-0.053-0.487,0.715,0,0.767c1.373,0.147,5.272,1.322,6.419,0.615c2.719-1.675,4.742-4.046,6.352-6.779
				c3.047-5.173,3.582-12.219-2.192-15.561C4.974-5.505-5.004,16.717,8.107,24.216C8.537,24.462,8.923,23.798,8.494,23.553z"/>
		</g>
	</g>
</g>
</svg>
