<?xml version="1.0" encoding="utf-8"?>
<!-- Generator: Adobe Illustrator 17.0.0, SVG Export Plug-In . SVG Version: 6.00 Build 0)  -->
<!DOCTYPE svg PUBLIC "-//W3C//DTD SVG 1.1//EN" "http://www.w3.org/Graphics/SVG/1.1/DTD/svg11.dtd">
<svg version="1.1" xmlns="http://www.w3.org/2000/svg" xmlns:xlink="http://www.w3.org/1999/xlink" x="0px" y="0px" width="14.67px"
	 height="35.95px" viewBox="0 0 14.67 35.95" enable-background="new 0 0 14.67 35.95" xml:space="preserve">
<g id="Calque_3">
	<g id="contenu">
		<path fill="#84FFF5" d="M5.646,32.779c-4.669-5.141,2.018-18.061,4.355-14.804c3.056,4.259,0.982,10.348-0.353,15.661"/>
	</g>
</g>
<g id="Calque_2">
	<g id="point_x5F_bulle">
		<g>
			<g>
				<g>
					<path fill="#FFF035" d="M7.11,22.404c0.495,0,0.495-0.767,0-0.767S6.615,22.404,7.11,22.404L7.11,22.404z"/>
				</g>
			</g>
			<g>
				<g>
					<path fill="#FFF035" d="M8.889,19.958c0.495,0,0.495-0.767,0-0.767S8.394,19.958,8.889,19.958L8.889,19.958z"/>
				</g>
			</g>
			<g>
				<g>
					<path fill="#FFF035" d="M9.556,22.626c0.495,0,0.495-0.767,0-0.767S9.061,22.626,9.556,22.626L9.556,22.626z"/>
				</g>
			</g>
			<g>
				<g>
					<path fill="#FFF035" d="M9.334,25.739c0.495,0,0.495-0.767,0-0.767S8.839,25.739,9.334,25.739L9.334,25.739z"/>
				</g>
			</g>
			<g>
				<g>
					<path fill="#FFF035" d="M5.554,27.073c0.495,0,0.495-0.767,0-0.767S5.059,27.073,5.554,27.073L5.554,27.073z"/>
				</g>
			</g>
			<g>
				<g>
					<path fill="#FFF035" d="M6.221,30.186c0.495,0,0.495-0.767,0-0.767S5.726,30.186,6.221,30.186L6.221,30.186z"/>
				</g>
			</g>
			<g>
				<g>
					<path fill="#FFF035" d="M8.222,29.741c0.495,0,0.495-0.767,0-0.767S7.727,29.741,8.222,29.741L8.222,29.741z"/>
				</g>
			</g>
			<g>
				<g>
					<path fill="#FFF035" d="M10.001,20.513c0.074,0,0.148,0,0.222,0c0.495,0,0.495-0.767,0-0.767c-0.074,0-0.148,0-0.222,0
						C9.506,19.746,9.506,20.513,10.001,20.513L10.001,20.513z"/>
				</g>
			</g>
		</g>
	</g>
</g>
<g id="Calque_1">
	<g>
		<g>
			<path d="M5.977,32.33c-2.421-3.826-2.335-9.346-2.401-13.706C3.504,13.894,3.601,8.478,5.51,4.069
				c1.275-2.944,3.192-0.295,4.091,1.39c2.079,3.901,1.941,8.694,1.757,12.982c-0.172,4.001-0.804,7.983-1.488,11.923
				c-0.164,0.942,0.011,2.937-0.912,2.681c-1.07-0.297-2.139-0.594-3.209-0.891c-0.478-0.133-0.68,0.608-0.204,0.74
				c1.334,0.371,2.668,0.741,4.002,1.112c0.189,0.053,0.433-0.063,0.472-0.268c1.64-8.552,3.68-18.262,1.058-26.793
				c-0.567-1.846-2.958-6.997-5.481-4.452C2.583,5.531,2.911,12.926,2.817,16.77c-0.12,4.924-0.253,11.6,2.498,15.948
				C5.578,33.135,6.243,32.75,5.977,32.33z"/>
		</g>
	</g>
</g>
</svg>
