<?xml version="1.0" encoding="UTF-8" standalone="no"?>
<!DOCTYPE svg PUBLIC "-//W3C//DTD SVG 1.1//EN" "http://www.w3.org/Graphics/SVG/1.1/DTD/svg11.dtd">
<svg width="100%" height="100%" viewBox="0 0 26 27" version="1.1" xmlns="http://www.w3.org/2000/svg" xmlns:xlink="http://www.w3.org/1999/xlink" xml:space="preserve" xmlns:serif="http://www.serif.com/" style="fill-rule:evenodd;clip-rule:evenodd;stroke-linecap:round;stroke-linejoin:round;stroke-miterlimit:1.5;">
    <g transform="matrix(1,0,0,1.19441,0,-4.82562)">
        <g id="Calque_3">
            <path d="M10.298,15.535C11.408,15.535 12.604,11.969 13.741,12.134C15.108,12.334 16.406,15.757 17.351,14.945C19.488,13.109 22.232,12.938 22.5,14.89C22.604,15.649 21.649,17.28 21.093,18.434C19.817,21.077 17.36,23.136 15.022,24.114C13.422,24.784 10.152,24.338 9.018,24.114C5.636,23.448 1.834,19.086 2.297,15.146C2.525,13.205 4.352,12.819 5.686,12.884C7.019,12.948 8.04,15.535 10.298,15.535Z" style="fill:rgb(125,241,255);stroke:rgb(113,93,223);stroke-width:0.41px;">
            <animate id="animation-fiole-1" repeatCount="indefinite" attributeName="d" dur="400ms" values="
M10.298,15.535C11.408,15.535 12.604,11.969 13.741,12.134C15.108,12.334 16.406,15.757 17.351,14.945C19.488,13.109 22.232,12.938 22.5,14.89C22.604,15.649 21.649,17.28 21.093,18.434C19.817,21.077 17.36,23.136 15.022,24.114C13.422,24.784 10.152,24.338 9.018,24.114C5.636,23.448 1.834,19.086 2.297,15.146C2.525,13.205 4.352,12.819 5.686,12.884C7.019,12.948 8.04,15.535 10.298,15.535Z;
M9.018,14.241C10.127,14.241 11.384,12.717 12.52,12.883C13.887,13.082 16.235,14.449 17.409,13.885C19.702,12.784 22.232,12.938 22.5,14.89C22.604,15.649 21.649,17.28 21.093,18.434C19.817,21.077 17.36,23.136 15.022,24.114C13.422,24.784 10.152,24.338 9.018,24.114C5.636,23.448 1.834,19.086 2.297,15.146C2.525,13.205 4.507,14.392 5.627,14.241C6.747,14.091 6.76,14.241 9.018,14.241Z;
M9.018,12.883C10.127,12.883 11.092,15.926 12.229,16.091C13.596,16.291 14.387,11.672 15.43,12.394C19.594,15.273 22.232,12.938 22.5,14.89C22.604,15.649 21.649,17.28 21.093,18.434C19.817,21.077 17.36,23.136 15.022,24.114C13.422,24.784 10.152,24.338 9.018,24.114C5.636,23.448 1.834,19.086 2.297,15.146C2.525,13.205 4.634,15.51 5.713,15.146C6.833,14.769 6.76,12.883 9.018,12.883Z;
M9.018,14.241C10.127,14.241 11.384,12.717 12.52,12.883C13.887,13.082 16.235,14.449 17.409,13.885C19.702,12.784 22.232,12.938 22.5,14.89C22.604,15.649 21.649,17.28 21.093,18.434C19.817,21.077 17.36,23.136 15.022,24.114C13.422,24.784 10.152,24.338 9.018,24.114C5.636,23.448 1.834,19.086 2.297,15.146C2.525,13.205 4.507,14.392 5.627,14.241C6.747,14.091 6.76,14.241 9.018,14.241Z;
M10.298,15.535C11.408,15.535 12.604,11.969 13.741,12.134C15.108,12.334 16.406,15.757 17.351,14.945C19.488,13.109 22.232,12.938 22.5,14.89C22.604,15.649 21.649,17.28 21.093,18.434C19.817,21.077 17.36,23.136 15.022,24.114C13.422,24.784 10.152,24.338 9.018,24.114C5.636,23.448 1.834,19.086 2.297,15.146C2.525,13.205 4.352,12.819 5.686,12.884C7.019,12.948 8.04,15.535 10.298,15.535Z" />
            </path>
        </g>
    </g>
    <g id="Calque_2">
        <g>
            <g>
                <path d="M8.494,23.553C3.084,20.459 1.297,14.509 3.286,8.735C5.73,1.64 14.998,-0.245 20.469,4.617C25.162,8.788 21.558,16.603 18.503,20.539C17.29,22.101 15.479,24.27 13.39,24.046C11.693,23.864 9.997,23.682 8.3,23.5C7.808,23.447 7.813,24.215 8.3,24.267C9.673,24.414 13.572,25.589 14.719,24.882C17.438,23.207 19.461,20.836 21.071,18.103C24.118,12.93 24.653,5.884 18.879,2.542C4.974,-5.505 -5.004,16.717 8.107,24.216C8.537,24.462 8.923,23.798 8.494,23.553Z" style="fill-rule:nonzero;"/>
            </g>
        </g>
    </g>
    <g id="Calque_1">
        <g>
            <g>
                <path d="M12.796,4.047C12.781,4.031 12.765,4.015 12.749,4C12.399,3.65 11.856,4.192 12.206,4.543C12.249,4.586 12.292,4.629 12.335,4.672C12.516,4.491 12.697,4.31 12.878,4.129C12.776,4.027 12.675,3.926 12.573,3.824C12.223,3.474 11.68,4.016 12.03,4.367C12.132,4.469 12.233,4.57 12.335,4.672C12.685,5.022 13.228,4.48 12.878,4.129C12.836,4.086 12.793,4.043 12.749,4C12.568,4.181 12.387,4.362 12.206,4.543C12.222,4.559 12.237,4.574 12.253,4.59C12.604,4.939 13.147,4.397 12.796,4.047Z" style="fill:rgb(113,93,223);fill-rule:nonzero;"/>
            </g>
        </g>
        <g>
            <g>
                <path d="M9.351,4.54L9.351,4.235C9.351,3.74 8.584,3.74 8.584,4.235L8.584,4.364C8.584,4.859 9.351,4.859 9.351,4.364L9.351,4.318C9.351,3.823 8.584,3.823 8.584,4.318L8.584,4.364C8.584,4.859 9.351,4.859 9.351,4.364L9.351,4.235C9.351,3.74 8.584,3.74 8.584,4.235L8.584,4.54C8.584,5.035 9.351,5.035 9.351,4.54Z" style="fill:rgb(113,93,223);fill-rule:nonzero;"/>
            </g>
        </g>
        <g>
            <g>
                <path d="M10.079,6.258C10.574,6.258 10.574,5.491 10.079,5.491C9.584,5.491 9.584,6.258 10.079,6.258Z" style="fill:rgb(113,93,223);fill-rule:nonzero;"/>
            </g>
        </g>
        <g>
            <g>
                <path d="M14.971,3.59C15.466,3.59 15.466,2.823 14.971,2.823C14.476,2.823 14.476,3.59 14.971,3.59Z" style="fill:rgb(113,93,223);fill-rule:nonzero;"/>
            </g>
        </g>
        <g>
            <g>
                <path d="M6.583,5.652L6.583,5.874C6.583,6.369 7.35,6.369 7.35,5.874L7.35,5.652C7.35,5.157 6.583,5.157 6.583,5.652Z" style="fill:rgb(113,93,223);fill-rule:nonzero;"/>
            </g>
        </g>
        <g>
            <g>
                <path d="M4.359,9.432L4.359,9.654C4.359,10.149 5.126,10.149 5.126,9.654L5.126,9.432C5.127,8.937 4.359,8.937 4.359,9.432Z" style="fill:rgb(113,93,223);fill-rule:nonzero;"/>
            </g>
        </g>
        <g>
            <g>
                <path d="M7.189,8.926L7.411,8.926C7.906,8.926 7.906,8.159 7.411,8.159L7.189,8.159C6.694,8.159 6.694,8.926 7.189,8.926Z" style="fill:rgb(113,93,223);fill-rule:nonzero;"/>
            </g>
        </g>
    </g>
</svg>
