<?xml version="1.0" encoding="UTF-8" standalone="no"?>
<!DOCTYPE svg PUBLIC "-//W3C//DTD SVG 1.1//EN" "http://www.w3.org/Graphics/SVG/1.1/DTD/svg11.dtd">
<svg width="100%" height="100%" viewBox="0 0 190 360" version="1.1" xmlns="http://www.w3.org/2000/svg" xmlns:xlink="http://www.w3.org/1999/xlink" xml:space="preserve" xmlns:serif="http://www.serif.com/" style="fill-rule:evenodd;clip-rule:evenodd;stroke-linecap:round;stroke-linejoin:round;stroke-miterlimit:1.5;">
    <g>
        <g id="bas">
            <path class="animated" d="M132.07 347.14C129.72 352.68 149.34 353.11 150.13 347.14C179.41 126.08 126.47 77.45 101.55 138.13L115.44 138.13C150.36 87.44 148.02 309.45 132.07 347.14z" style="fill:white;stroke:rgb(75,75,75);stroke-width:2px;">
<animate id="animation-bas" repeatCount="indefinite" attributeName="d" dur="500ms" values="
M132.07 347.14C129.72 352.68 149.34 353.11 150.13 347.14C179.41 126.08 126.47 77.45 101.55 138.13L115.44 138.13C150.36 87.44 148.02 309.45 132.07 347.14z;
M132.07 347.14C129.72 352.68 149.34 353.11 150.13 347.14C179.41 126.08 139.23 74.12 101.55 138.13L115.44 138.13C158.53 77.69 148.02 309.45 132.07 347.14z;
M132.07 347.14C129.72 352.68 149.34 353.11 150.13 347.14C179.41 126.08 126.47 77.45 101.55 138.13L115.44 138.13C150.36 87.44 148.02 309.45 132.07 347.14z
" />
            </path>
            <path class="fixed" d="M132.07 347.14C129.72 352.68 149.34 353.11 150.13 347.14C179.41 126.08 126.47 77.45 101.55 138.13L115.44 138.13C150.36 87.44 148.02 309.45 132.07 347.14z" style="fill:white;stroke:rgb(75,75,75);stroke-width:2px;" />
        </g>
    </g>
    <g>
        <g id="haut">
            <path class="animated" d="M55.46 147.51L73.52 147.51C74.65 38.16 65.49 24.98 9.34 18.83L11.39 29.4C41.05 36.57 66.59 23.37 55.46 147.51z" style="fill:white;stroke:rgb(75,75,75);stroke-width:2px;">

<animate id="animation-haut" repeatCount="indefinite" attributeName="d" dur="450ms" values="
M55.46 147.51L73.52 147.51C74.65 38.16 65.49 24.98 9.34 18.83L11.39 29.4C41.05 36.57 66.59 23.37 55.46 147.51z;
M55.46 147.51L73.52 147.51C74.65 38.16 76.83 21.22 9.34 18.83L11.39 29.4C52.63 33.17 66.59 23.37 55.46 147.51z;
M55.46 147.51L73.52 147.51C74.65 38.16 65.49 24.98 9.34 18.83L11.39 29.4C41.05 36.57 66.59 23.37 55.46 147.51z
" />
            </path>
            <path class="fixed" d="M55.46 147.51L73.52 147.51C74.65 38.16 65.49 24.98 9.34 18.83L11.39 29.4C41.05 36.57 66.59 23.37 55.46 147.51z" style="fill:white;stroke:rgb(75,75,75);stroke-width:2px;"/>
        </g>
    </g>
    <g>
        <g id="milieu">
            <path class="animated" d="M71.39 167.59L53.76 166.08C36.59 237.51 130.65 255.14 115.34 150.34L102.64 152.34C110.55 241.08 57.02 216.17 71.39 167.59z" style="fill:white;stroke:rgb(75,75,75);stroke-width:2px;">
<animate id="animation-milieu" repeatCount="indefinite" attributeName="d" dur="600ms" values="
M71.39 167.59L53.76 166.08C36.59 237.51 130.65 255.14 115.34 150.34L102.64 152.34C110.55 241.08 57.02 216.17 71.39 167.59z;
M71.39 167.59L53.76 166.08C40.17 220.09 130.65 255.14 115.34 150.34L102.64 152.34C110.55 241.08 56.36 199.14 71.39 167.59z;
M71.39 167.59L53.76 166.08C36.59 237.51 130.65 255.14 115.34 150.34L102.64 152.34C110.55 241.08 57.02 216.17 71.39 167.59z
" />
            </path>
            <path class="fixed" d="M71.39 167.59L53.76 166.08C36.59 237.51 130.65 255.14 115.34 150.34L102.64 152.34C110.55 241.08 57.02 216.17 71.39 167.59z" style="fill:white;stroke:rgb(75,75,75);stroke-width:2px;"/>
        </g>
    </g>
    <g id="attache-gauche" serif:id="attache gauche" transform="matrix(1,0,0,1,27.8937,0)">
        <path d="M49.867,151.216C41.219,145.032 28.961,146.791 20.314,147.511C17.285,155.627 18.999,161.113 23.112,165.268L45.717,168.168C49.568,161.755 51.45,155.464 49.867,151.216Z" style="fill:white;stroke:rgb(75,75,75);stroke-width:2.5px;"/>
    </g>
    <g id="attache-droite" serif:id="attache droite" transform="matrix(1,0,0,1,76.2238,-14.5483)">
        <path d="M44.274,154.486C35.627,148.302 27.424,153.767 18.776,154.486C15.748,162.603 21.208,164.013 25.321,168.168L40.806,164.891C43.05,159.67 43.147,158.734 44.274,154.486Z" style="fill:white;stroke:rgb(75,75,75);stroke-width:2.5px;"/>
    </g>
    <g id="attache-haut" serif:id="attache haut">
        <g transform="matrix(1,0,0,1,-8.14786,4.68457)">
            <path d="M12.444,28.192C16.215,28.192 19.987,28.192 22.501,26.935L19.987,25.678C21.244,15.621 18.73,9.335 12.444,9.335" style="fill:white;fill-rule:nonzero;"/>
        </g>
        <g transform="matrix(1,0,0,1,-8.14786,4.68457)">
            <path d="M12.444,29.255C15.942,29.249 19.503,29.322 22.784,27.96C23.546,27.644 23.958,26.477 23.038,26.017C22.417,25.707 21.796,25.396 21.176,25.086C20.708,24.852 21.296,23.064 21.345,22.088C21.481,19.426 21.19,16.721 20.364,14.185C19.176,10.535 16.208,8.431 12.444,8.271C11.073,8.213 11.078,10.339 12.444,10.397C19.973,10.717 19.523,20.286 18.924,25.677C18.886,26.02 19.149,26.444 19.45,26.595C20.288,27.014 21.126,27.433 21.964,27.852C22.049,27.204 22.133,26.557 22.218,25.909C19.105,27.201 15.758,27.122 12.443,27.128C11.073,27.132 11.073,29.258 12.444,29.255Z" style="fill:rgb(75,75,75);fill-rule:nonzero;"/>
        </g>
    </g>
</svg>
